M48
;Layer_Color=9474304
;FILE_FORMAT=2:4
INCH
;TYPE=PLATED
T1F00S00C0.0118
T2F00S00C0.0394
T3F00S00C0.0472
%
T01
X003504Y000906
X003465Y002362
X003504Y003583
X005748Y003780
X006535Y004055
X006654Y003071
X006299Y002559
X006311Y002039
X005669Y002047
X005984Y002795
X006083Y001004
X006654Y001063
X009252
X010019Y001084
X010039Y002165
X009606Y002913
X009316Y003282
X008957Y003051
X008976Y003543
X010039
X009528Y004094
X011201Y003297
X012254Y002554
X013465Y001890
X013780Y001673
Y001339
X013465Y000945
X014606Y000906
X014862Y002657
X014961Y004213
X011220Y000945
X008943Y001575
T02
X011571Y003780
X012571
X013571
X014571
T03
X002520Y003543
X015591
M30
