G04*
G04 #@! TF.GenerationSoftware,Altium Limited,Altium Designer,18.1.9 (240)*
G04*
G04 Layer_Color=8388736*
%FSLAX25Y25*%
%MOIN*%
G70*
G01*
G75*
%ADD13C,0.06496*%
G04:AMPARAMS|DCode=14|XSize=64.96mil|YSize=64.96mil|CornerRadius=11.81mil|HoleSize=0mil|Usage=FLASHONLY|Rotation=180.000|XOffset=0mil|YOffset=0mil|HoleType=Round|Shape=RoundedRectangle|*
%AMROUNDEDRECTD14*
21,1,0.06496,0.04134,0,0,180.0*
21,1,0.04134,0.06496,0,0,180.0*
1,1,0.02362,-0.02067,0.02067*
1,1,0.02362,0.02067,0.02067*
1,1,0.02362,0.02067,-0.02067*
1,1,0.02362,-0.02067,-0.02067*
%
%ADD14ROUNDEDRECTD14*%
%ADD15C,0.06102*%
%ADD16R,0.06102X0.06102*%
G04:AMPARAMS|DCode=17|XSize=88.58mil|YSize=88.58mil|CornerRadius=15.35mil|HoleSize=0mil|Usage=FLASHONLY|Rotation=90.000|XOffset=0mil|YOffset=0mil|HoleType=Round|Shape=RoundedRectangle|*
%AMROUNDEDRECTD17*
21,1,0.08858,0.05787,0,0,90.0*
21,1,0.05787,0.08858,0,0,90.0*
1,1,0.03071,0.02894,0.02894*
1,1,0.03071,0.02894,-0.02894*
1,1,0.03071,-0.02894,-0.02894*
1,1,0.03071,-0.02894,0.02894*
%
%ADD17ROUNDEDRECTD17*%
%ADD18C,0.08858*%
%ADD19C,0.08465*%
G04:AMPARAMS|DCode=20|XSize=61.02mil|YSize=61.02mil|CornerRadius=11.22mil|HoleSize=0mil|Usage=FLASHONLY|Rotation=90.000|XOffset=0mil|YOffset=0mil|HoleType=Round|Shape=RoundedRectangle|*
%AMROUNDEDRECTD20*
21,1,0.06102,0.03858,0,0,90.0*
21,1,0.03858,0.06102,0,0,90.0*
1,1,0.02244,0.01929,0.01929*
1,1,0.02244,0.01929,-0.01929*
1,1,0.02244,-0.01929,-0.01929*
1,1,0.02244,-0.01929,0.01929*
%
%ADD20ROUNDEDRECTD20*%
%ADD21C,0.07677*%
%ADD22C,0.05709*%
%ADD23R,0.05709X0.05709*%
%ADD24C,0.10827*%
G04:AMPARAMS|DCode=25|XSize=64.96mil|YSize=64.96mil|CornerRadius=11.81mil|HoleSize=0mil|Usage=FLASHONLY|Rotation=270.000|XOffset=0mil|YOffset=0mil|HoleType=Round|Shape=RoundedRectangle|*
%AMROUNDEDRECTD25*
21,1,0.06496,0.04134,0,0,270.0*
21,1,0.04134,0.06496,0,0,270.0*
1,1,0.02362,-0.02067,-0.02067*
1,1,0.02362,-0.02067,0.02067*
1,1,0.02362,0.02067,0.02067*
1,1,0.02362,0.02067,-0.02067*
%
%ADD25ROUNDEDRECTD25*%
%ADD26O,0.06591X0.12591*%
G04:AMPARAMS|DCode=27|XSize=65.91mil|YSize=125.91mil|CornerRadius=17.95mil|HoleSize=0mil|Usage=FLASHONLY|Rotation=0.000|XOffset=0mil|YOffset=0mil|HoleType=Round|Shape=RoundedRectangle|*
%AMROUNDEDRECTD27*
21,1,0.06591,0.09000,0,0,0.0*
21,1,0.03000,0.12591,0,0,0.0*
1,1,0.03591,0.01500,-0.04500*
1,1,0.03591,-0.01500,-0.04500*
1,1,0.03591,-0.01500,0.04500*
1,1,0.03591,0.01500,0.04500*
%
%ADD27ROUNDEDRECTD27*%
G04:AMPARAMS|DCode=28|XSize=108.27mil|YSize=108.27mil|CornerRadius=18.31mil|HoleSize=0mil|Usage=FLASHONLY|Rotation=270.000|XOffset=0mil|YOffset=0mil|HoleType=Round|Shape=RoundedRectangle|*
%AMROUNDEDRECTD28*
21,1,0.10827,0.07165,0,0,270.0*
21,1,0.07165,0.10827,0,0,270.0*
1,1,0.03661,-0.03583,-0.03583*
1,1,0.03661,-0.03583,0.03583*
1,1,0.03661,0.03583,0.03583*
1,1,0.03661,0.03583,-0.03583*
%
%ADD28ROUNDEDRECTD28*%
%ADD29C,0.10039*%
G04:AMPARAMS|DCode=30|XSize=100.39mil|YSize=100.39mil|CornerRadius=12.4mil|HoleSize=0mil|Usage=FLASHONLY|Rotation=270.000|XOffset=0mil|YOffset=0mil|HoleType=Round|Shape=RoundedRectangle|*
%AMROUNDEDRECTD30*
21,1,0.10039,0.07559,0,0,270.0*
21,1,0.07559,0.10039,0,0,270.0*
1,1,0.02480,-0.03780,-0.03780*
1,1,0.02480,-0.03780,0.03780*
1,1,0.02480,0.03780,0.03780*
1,1,0.02480,0.03780,-0.03780*
%
%ADD30ROUNDEDRECTD30*%
%ADD31R,0.05709X0.05709*%
%ADD32C,0.00591*%
%ADD33C,0.24213*%
%ADD34C,0.10433*%
G36*
X340551Y118110D02*
X312008D01*
Y118110D01*
X305118Y111221D01*
Y90551D01*
X309055Y86614D01*
X342520D01*
Y86614D01*
X346457Y90551D01*
Y112205D01*
X340551Y118110D01*
D02*
G37*
G36*
X267717Y301181D02*
X255906D01*
X251969Y297244D01*
Y275591D01*
X254921Y272638D01*
X265748D01*
X269685Y276575D01*
Y299213D01*
X267717Y301181D01*
D02*
G37*
G36*
X324803Y290354D02*
Y275528D01*
X319945Y270669D01*
X305118D01*
X302165Y273622D01*
Y285433D01*
X311024Y294291D01*
X317913D01*
Y294291D01*
X321850Y290354D01*
X324803D01*
D02*
G37*
D13*
X25748Y310669D02*
D03*
X15748Y310669D02*
D03*
X25748Y289961D02*
D03*
X15748D02*
D03*
X25748Y269961D02*
D03*
X15748Y269961D02*
D03*
X25748Y259842D02*
D03*
X15748D02*
D03*
X151654Y250000D02*
D03*
X53150Y230197D02*
D03*
X5906Y349331D02*
D03*
Y359331D02*
D03*
X74961Y387795D02*
D03*
X64961D02*
D03*
X53150Y197362D02*
D03*
Y162480D02*
D03*
X116220Y250000D02*
D03*
X15748Y279961D02*
D03*
X25748D02*
D03*
X15748Y300669D02*
D03*
X25748Y300669D02*
D03*
X5906Y369331D02*
D03*
X212598Y387795D02*
D03*
X222598D02*
D03*
D14*
X5748Y310669D02*
D03*
Y289961D02*
D03*
Y269961D02*
D03*
Y259842D02*
D03*
X141654Y250000D02*
D03*
X54961Y387795D02*
D03*
X106220Y250000D02*
D03*
X5748Y279961D02*
D03*
Y300669D02*
D03*
X202598Y387795D02*
D03*
D15*
X214567Y264764D02*
D03*
X381890Y372047D02*
D03*
Y364173D02*
D03*
X311024Y372047D02*
D03*
Y364173D02*
D03*
X353740Y127953D02*
D03*
X372638D02*
D03*
X98425Y372047D02*
D03*
Y364173D02*
D03*
X382874Y99410D02*
D03*
Y156496D02*
D03*
X240158Y364173D02*
D03*
Y372047D02*
D03*
D16*
X234252Y264764D02*
D03*
X363189Y99410D02*
D03*
Y156496D02*
D03*
D17*
X185827Y253937D02*
D03*
X198425D02*
D03*
X374213Y275590D02*
D03*
X361614D02*
D03*
Y309055D02*
D03*
X32087Y145669D02*
D03*
Y182087D02*
D03*
X374213Y309055D02*
D03*
X19488Y145591D02*
D03*
Y182087D02*
D03*
D18*
X185827Y267717D02*
D03*
X198425D02*
D03*
X374213Y261811D02*
D03*
X361614D02*
D03*
Y295276D02*
D03*
X32087Y159449D02*
D03*
Y195866D02*
D03*
X374213Y295276D02*
D03*
X19488Y159370D02*
D03*
Y195866D02*
D03*
D19*
X381890Y380315D02*
D03*
Y348031D02*
D03*
X311024Y380315D02*
D03*
Y348031D02*
D03*
X98425Y380315D02*
D03*
Y348031D02*
D03*
X240158D02*
D03*
Y380315D02*
D03*
D20*
X381890Y356299D02*
D03*
X311024D02*
D03*
X98425D02*
D03*
X240158D02*
D03*
D21*
X159449Y388779D02*
D03*
Y339567D02*
D03*
X179134Y388779D02*
D03*
Y339567D02*
D03*
D22*
X106299Y271654D02*
D03*
X126969D02*
D03*
X147638D02*
D03*
X107283Y24409D02*
D03*
X47244Y24606D02*
D03*
X107283Y159449D02*
D03*
X107283Y193268D02*
D03*
X159449Y226378D02*
D03*
X191929Y226378D02*
D03*
X295433Y117126D02*
D03*
X272638Y17717D02*
D03*
X283465Y44488D02*
D03*
X74803Y159449D02*
D03*
X74803Y193268D02*
D03*
D23*
X106299Y263779D02*
D03*
X126969D02*
D03*
X147638D02*
D03*
X107283Y10630D02*
D03*
X47244Y10827D02*
D03*
X107283Y145669D02*
D03*
X107283Y179488D02*
D03*
X159449Y212598D02*
D03*
X191929Y212598D02*
D03*
X74803Y145669D02*
D03*
X74803Y179488D02*
D03*
D24*
X110039Y44488D02*
D03*
X29882Y124803D02*
D03*
X69882D02*
D03*
X109882D02*
D03*
X59882Y44488D02*
D03*
X79882D02*
D03*
X214213Y192362D02*
D03*
X174213D02*
D03*
X134213D02*
D03*
X204213Y12362D02*
D03*
X164213D02*
D03*
X144213D02*
D03*
X289528Y144882D02*
D03*
X269528D02*
D03*
X319528Y225197D02*
D03*
X279528D02*
D03*
X239528D02*
D03*
X319685Y144882D02*
D03*
X339567Y212047D02*
D03*
D25*
X53150Y220197D02*
D03*
Y187362D02*
D03*
Y152480D02*
D03*
X5906Y379331D02*
D03*
D26*
X90709Y220020D02*
D03*
X80709D02*
D03*
X30669Y220020D02*
D03*
X20669D02*
D03*
X133031Y220020D02*
D03*
X123031D02*
D03*
D27*
X70709D02*
D03*
X10669Y220020D02*
D03*
X113031Y220020D02*
D03*
D28*
X339567Y172677D02*
D03*
D29*
X377756Y212756D02*
D03*
X376772Y64134D02*
D03*
D30*
X377756Y192756D02*
D03*
X376772Y44134D02*
D03*
D31*
X281653Y117126D02*
D03*
X280512Y17717D02*
D03*
X297244Y44488D02*
D03*
D32*
X121555Y326772D02*
D03*
X124508D02*
D03*
X127461D02*
D03*
X130413D02*
D03*
X133366D02*
D03*
X136319D02*
D03*
X121555Y334646D02*
D03*
X124508D02*
D03*
X127461D02*
D03*
X130413D02*
D03*
X133366D02*
D03*
X136319D02*
D03*
X186516Y326772D02*
D03*
X189469D02*
D03*
X192421D02*
D03*
X195374D02*
D03*
X198327D02*
D03*
X201279D02*
D03*
X186516Y334646D02*
D03*
X189469D02*
D03*
X192421D02*
D03*
X195374D02*
D03*
X198327D02*
D03*
X201279D02*
D03*
X287894Y326772D02*
D03*
X290846D02*
D03*
X293799D02*
D03*
X296752D02*
D03*
X299705D02*
D03*
X302658D02*
D03*
Y334646D02*
D03*
X299705D02*
D03*
X296752D02*
D03*
X293799D02*
D03*
X290846D02*
D03*
X287894D02*
D03*
D33*
X161417Y291339D02*
D03*
X275590Y364173D02*
D03*
X133858D02*
D03*
X13780Y330709D02*
D03*
X379921D02*
D03*
Y240158D02*
D03*
X13780D02*
D03*
Y13780D02*
D03*
X379921D02*
D03*
X27559Y364173D02*
D03*
D34*
X353287Y8071D02*
D03*
X300256Y21457D02*
D03*
X353287D02*
D03*
X300256Y8071D02*
D03*
M02*
