G04*
G04 #@! TF.GenerationSoftware,Altium Limited,Altium Designer,18.1.9 (240)*
G04*
G04 Layer_Physical_Order=1*
G04 Layer_Color=255*
%FSLAX25Y25*%
%MOIN*%
G70*
G01*
G75*
%ADD35C,0.03150*%
%ADD36C,0.01968*%
%ADD37C,0.12992*%
%ADD38C,0.05512*%
%ADD39C,0.07087*%
%ADD40C,0.09843*%
%ADD41C,0.10630*%
%ADD42C,0.11811*%
%ADD43C,0.01378*%
%ADD44C,0.03937*%
%ADD45C,0.12598*%
%ADD46C,0.10236*%
%ADD47C,0.12205*%
%ADD48C,0.07874*%
%ADD49C,0.11024*%
%ADD50C,0.06299*%
%ADD51C,0.05906*%
G04:AMPARAMS|DCode=52|XSize=59.06mil|YSize=59.06mil|CornerRadius=8.86mil|HoleSize=0mil|Usage=FLASHONLY|Rotation=180.000|XOffset=0mil|YOffset=0mil|HoleType=Round|Shape=RoundedRectangle|*
%AMROUNDEDRECTD52*
21,1,0.05906,0.04134,0,0,180.0*
21,1,0.04134,0.05906,0,0,180.0*
1,1,0.01772,-0.02067,0.02067*
1,1,0.01772,0.02067,0.02067*
1,1,0.01772,0.02067,-0.02067*
1,1,0.01772,-0.02067,-0.02067*
%
%ADD52ROUNDEDRECTD52*%
%ADD53C,0.05512*%
%ADD54R,0.05512X0.05512*%
G04:AMPARAMS|DCode=55|XSize=82.68mil|YSize=82.68mil|CornerRadius=12.4mil|HoleSize=0mil|Usage=FLASHONLY|Rotation=90.000|XOffset=0mil|YOffset=0mil|HoleType=Round|Shape=RoundedRectangle|*
%AMROUNDEDRECTD55*
21,1,0.08268,0.05787,0,0,90.0*
21,1,0.05787,0.08268,0,0,90.0*
1,1,0.02480,0.02894,0.02894*
1,1,0.02480,0.02894,-0.02894*
1,1,0.02480,-0.02894,-0.02894*
1,1,0.02480,-0.02894,0.02894*
%
%ADD55ROUNDEDRECTD55*%
%ADD56C,0.08268*%
%ADD57C,0.07874*%
G04:AMPARAMS|DCode=58|XSize=55.12mil|YSize=55.12mil|CornerRadius=8.27mil|HoleSize=0mil|Usage=FLASHONLY|Rotation=90.000|XOffset=0mil|YOffset=0mil|HoleType=Round|Shape=RoundedRectangle|*
%AMROUNDEDRECTD58*
21,1,0.05512,0.03858,0,0,90.0*
21,1,0.03858,0.05512,0,0,90.0*
1,1,0.01654,0.01929,0.01929*
1,1,0.01654,0.01929,-0.01929*
1,1,0.01654,-0.01929,-0.01929*
1,1,0.01654,-0.01929,0.01929*
%
%ADD58ROUNDEDRECTD58*%
%ADD59C,0.07087*%
%ADD60C,0.05118*%
%ADD61R,0.05118X0.05118*%
%ADD62C,0.10236*%
G04:AMPARAMS|DCode=63|XSize=59.06mil|YSize=59.06mil|CornerRadius=8.86mil|HoleSize=0mil|Usage=FLASHONLY|Rotation=270.000|XOffset=0mil|YOffset=0mil|HoleType=Round|Shape=RoundedRectangle|*
%AMROUNDEDRECTD63*
21,1,0.05906,0.04134,0,0,270.0*
21,1,0.04134,0.05906,0,0,270.0*
1,1,0.01772,-0.02067,-0.02067*
1,1,0.01772,-0.02067,0.02067*
1,1,0.01772,0.02067,0.02067*
1,1,0.01772,0.02067,-0.02067*
%
%ADD63ROUNDEDRECTD63*%
%ADD64O,0.06000X0.12000*%
G04:AMPARAMS|DCode=65|XSize=60mil|YSize=120mil|CornerRadius=15mil|HoleSize=0mil|Usage=FLASHONLY|Rotation=0.000|XOffset=0mil|YOffset=0mil|HoleType=Round|Shape=RoundedRectangle|*
%AMROUNDEDRECTD65*
21,1,0.06000,0.09000,0,0,0.0*
21,1,0.03000,0.12000,0,0,0.0*
1,1,0.03000,0.01500,-0.04500*
1,1,0.03000,-0.01500,-0.04500*
1,1,0.03000,-0.01500,0.04500*
1,1,0.03000,0.01500,0.04500*
%
%ADD65ROUNDEDRECTD65*%
G04:AMPARAMS|DCode=66|XSize=102.36mil|YSize=102.36mil|CornerRadius=15.35mil|HoleSize=0mil|Usage=FLASHONLY|Rotation=270.000|XOffset=0mil|YOffset=0mil|HoleType=Round|Shape=RoundedRectangle|*
%AMROUNDEDRECTD66*
21,1,0.10236,0.07165,0,0,270.0*
21,1,0.07165,0.10236,0,0,270.0*
1,1,0.03071,-0.03583,-0.03583*
1,1,0.03071,-0.03583,0.03583*
1,1,0.03071,0.03583,0.03583*
1,1,0.03071,0.03583,-0.03583*
%
%ADD66ROUNDEDRECTD66*%
%ADD67C,0.09449*%
G04:AMPARAMS|DCode=68|XSize=94.49mil|YSize=94.49mil|CornerRadius=9.45mil|HoleSize=0mil|Usage=FLASHONLY|Rotation=270.000|XOffset=0mil|YOffset=0mil|HoleType=Round|Shape=RoundedRectangle|*
%AMROUNDEDRECTD68*
21,1,0.09449,0.07559,0,0,270.0*
21,1,0.07559,0.09449,0,0,270.0*
1,1,0.01890,-0.03780,-0.03780*
1,1,0.01890,-0.03780,0.03780*
1,1,0.01890,0.03780,0.03780*
1,1,0.01890,0.03780,-0.03780*
%
%ADD68ROUNDEDRECTD68*%
%ADD69R,0.05118X0.05118*%
%ADD70C,0.23622*%
%ADD71C,0.09843*%
%ADD72C,0.03150*%
G36*
X382301Y391887D02*
X383843Y391474D01*
X385317Y390863D01*
X386699Y390065D01*
X387965Y389094D01*
X389094Y387965D01*
X390065Y386699D01*
X390863Y385317D01*
X391474Y383843D01*
X391887Y382301D01*
X392095Y380719D01*
Y379921D01*
Y336076D01*
X391605Y335979D01*
X391371Y336543D01*
X390318Y338262D01*
X389008Y339795D01*
X387475Y341105D01*
X385755Y342159D01*
X383892Y342930D01*
X383471Y343032D01*
X383430Y343556D01*
X384272Y343905D01*
X385259Y344662D01*
X386017Y345649D01*
X386493Y346798D01*
X386655Y348031D01*
X386493Y349265D01*
X386017Y350414D01*
X385259Y351401D01*
X384272Y352158D01*
X384033Y352257D01*
X384085Y352777D01*
X384449Y352850D01*
X384983Y353206D01*
X385339Y353740D01*
X385465Y354370D01*
Y358228D01*
X385339Y358858D01*
X384983Y359392D01*
X384449Y359749D01*
X383819Y359874D01*
X379961D01*
X379331Y359749D01*
X378797Y359392D01*
X378440Y358858D01*
X378315Y358228D01*
Y354370D01*
X378440Y353740D01*
X378797Y353206D01*
X379331Y352850D01*
X379695Y352777D01*
X379746Y352257D01*
X379507Y352158D01*
X378520Y351401D01*
X377763Y350414D01*
X377287Y349265D01*
X377125Y348031D01*
X377287Y346798D01*
X377763Y345649D01*
X378520Y344662D01*
X379361Y344017D01*
X379218Y343504D01*
X377911Y343401D01*
X375950Y342930D01*
X374087Y342159D01*
X372368Y341105D01*
X370834Y339795D01*
X369525Y338262D01*
X368471Y336543D01*
X367700Y334680D01*
X367229Y332719D01*
X367109Y331201D01*
X379921D01*
Y330709D01*
X380413D01*
Y317897D01*
X381931Y318016D01*
X383892Y318487D01*
X385755Y319259D01*
X387475Y320312D01*
X389008Y321622D01*
X390318Y323155D01*
X391371Y324875D01*
X391605Y325438D01*
X392095Y325341D01*
Y245525D01*
X391605Y245428D01*
X391371Y245991D01*
X390318Y247711D01*
X389008Y249244D01*
X387475Y250554D01*
X385755Y251607D01*
X383892Y252379D01*
X381931Y252850D01*
X380413Y252969D01*
Y240158D01*
Y227346D01*
X381931Y227465D01*
X383892Y227936D01*
X385755Y228708D01*
X387475Y229761D01*
X389008Y231071D01*
X390318Y232604D01*
X391371Y234323D01*
X391605Y234887D01*
X392095Y234790D01*
Y19147D01*
X391605Y19050D01*
X391371Y19614D01*
X390318Y21333D01*
X389008Y22866D01*
X387475Y24176D01*
X385755Y25229D01*
X383892Y26001D01*
X381931Y26472D01*
X380413Y26591D01*
Y13780D01*
X379921D01*
Y13287D01*
X367109D01*
X367229Y11769D01*
X367700Y9809D01*
X368471Y7946D01*
X369525Y6226D01*
X370834Y4693D01*
X372368Y3383D01*
X374087Y2330D01*
X374651Y2096D01*
X374553Y1606D01*
X19147D01*
X19050Y2096D01*
X19614Y2330D01*
X21333Y3383D01*
X22866Y4693D01*
X24176Y6226D01*
X25229Y7946D01*
X26001Y9809D01*
X26472Y11769D01*
X26591Y13287D01*
X13780D01*
Y13780D01*
X13287D01*
Y26591D01*
X11769Y26472D01*
X9809Y26001D01*
X7946Y25229D01*
X6226Y24176D01*
X4693Y22866D01*
X3383Y21333D01*
X2330Y19614D01*
X2096Y19050D01*
X1606Y19147D01*
Y234790D01*
X2096Y234887D01*
X2330Y234323D01*
X3383Y232604D01*
X4693Y231071D01*
X6226Y229761D01*
X7946Y228708D01*
X9809Y227936D01*
X11404Y227553D01*
X11420Y227543D01*
X11501Y227415D01*
X11507Y227313D01*
X11069Y226852D01*
X9169D01*
X8277Y226674D01*
X7520Y226169D01*
X7015Y225412D01*
X6837Y224520D01*
Y215520D01*
X7015Y214627D01*
X7276Y214236D01*
X7322Y214142D01*
X7306Y213646D01*
X7301Y213638D01*
X7254Y213588D01*
X7198Y213484D01*
X7132Y213386D01*
X7125Y213347D01*
X7106Y213312D01*
X7094Y213194D01*
X7071Y213078D01*
Y206790D01*
X7071Y206790D01*
X7132Y206483D01*
X7306Y206222D01*
X7306Y206222D01*
X11340Y202188D01*
X11601Y202014D01*
X11908Y201953D01*
X23625D01*
X23799Y201900D01*
X24957Y201786D01*
X40277D01*
X41435Y201900D01*
X41609Y201953D01*
X42904D01*
X43211Y202014D01*
X43472Y202188D01*
X43569Y202286D01*
X44636Y203104D01*
X45829Y203598D01*
X47163Y203774D01*
X57661D01*
X58994Y203598D01*
X60187Y203104D01*
X61254Y202286D01*
X64462Y199078D01*
X64722Y198904D01*
X65029Y198843D01*
X120927D01*
X125181Y194589D01*
Y191284D01*
X125242Y190977D01*
X125417Y190717D01*
X125417Y190717D01*
X127506Y188627D01*
X127315Y188165D01*
X62965Y188165D01*
X62788Y188341D01*
X62701Y188400D01*
X62622Y188469D01*
X62572Y188486D01*
X62528Y188515D01*
X62425Y188536D01*
X62325Y188570D01*
X61838Y188634D01*
X60645Y189128D01*
X59578Y189947D01*
X56595Y192930D01*
X56334Y193104D01*
X56027Y193165D01*
X54652D01*
X54553Y193665D01*
X55143Y193910D01*
X55969Y194543D01*
X56602Y195369D01*
X57001Y196330D01*
X57072Y196870D01*
X53150D01*
X49227D01*
X49299Y196330D01*
X49697Y195369D01*
X50331Y194543D01*
X51156Y193910D01*
X51746Y193665D01*
X51647Y193165D01*
X48796Y193165D01*
X48489Y193104D01*
X48228Y192930D01*
X48228Y192930D01*
X47698Y192400D01*
X46631Y191581D01*
X45438Y191087D01*
X44662Y190984D01*
X44563Y190951D01*
X44459Y190930D01*
X44415Y190901D01*
X44365Y190884D01*
X44286Y190814D01*
X44199Y190756D01*
X43222Y189779D01*
X14979D01*
X11811Y189779D01*
X11504Y189718D01*
X11243Y189544D01*
X11243Y189544D01*
X7306Y185607D01*
X7132Y185347D01*
X7071Y185039D01*
X7071Y175197D01*
X7132Y174890D01*
X7306Y174629D01*
X15180Y166755D01*
X15441Y166581D01*
X15748Y166520D01*
X40607D01*
X40914Y166581D01*
X41175Y166755D01*
X43147Y168727D01*
X44074Y169488D01*
X45097Y170035D01*
X46208Y170372D01*
X46816Y170432D01*
X47401Y170489D01*
X59409D01*
X60603Y170372D01*
X61714Y170035D01*
X62737Y169488D01*
X63665Y168727D01*
X65636Y166755D01*
X65897Y166581D01*
X66204Y166520D01*
X180438D01*
Y120905D01*
X180575Y120214D01*
X180967Y119628D01*
X197837Y102758D01*
X198423Y102367D01*
X199114Y102229D01*
X266463D01*
X267090Y101810D01*
X268012Y101627D01*
X268934Y101810D01*
X269715Y102332D01*
X270237Y103114D01*
X270420Y104035D01*
X270237Y104957D01*
X269715Y105738D01*
X268934Y106261D01*
X268012Y106444D01*
X267090Y106261D01*
X266463Y105842D01*
X199862D01*
X184051Y121654D01*
Y166520D01*
X210630D01*
X210937Y166581D01*
X211198Y166755D01*
X248599Y204157D01*
X248773Y204417D01*
X248834Y204724D01*
Y228346D01*
X248834Y228346D01*
X248773Y228654D01*
X248599Y228914D01*
X248599Y228914D01*
X245450Y232064D01*
X245189Y232238D01*
X244882Y232299D01*
X241561D01*
X241464Y232280D01*
X241366Y232275D01*
X241334Y232260D01*
X240955Y232375D01*
X239528Y232516D01*
X238100Y232375D01*
X237721Y232260D01*
X237690Y232275D01*
X237591Y232280D01*
X237494Y232299D01*
X225155Y232299D01*
X225155Y232299D01*
X224848Y232238D01*
X224587Y232064D01*
X204139Y211616D01*
X203965Y211355D01*
X203923Y211141D01*
X203920Y211134D01*
X203767Y210368D01*
X203566Y210067D01*
X190656Y197158D01*
X190355Y196956D01*
X189590Y196804D01*
X189583Y196801D01*
X189368Y196758D01*
X189108Y196584D01*
X189108Y196584D01*
X180689Y188165D01*
X179267D01*
X179054Y188617D01*
X179324Y188947D01*
X179892Y190010D01*
X180242Y191163D01*
X180312Y191870D01*
X174213D01*
X168113D01*
X168183Y191163D01*
X168533Y190010D01*
X169101Y188947D01*
X169371Y188617D01*
X169158Y188165D01*
X142513D01*
X142322Y188627D01*
X155648Y201953D01*
X179992D01*
X180044Y201963D01*
X180097Y201960D01*
X180276Y201983D01*
X180455Y201960D01*
X180507Y201963D01*
X180559Y201953D01*
X190672D01*
X190979Y202014D01*
X191239Y202188D01*
X191239Y202188D01*
X199387Y210336D01*
X199561Y210596D01*
X199622Y210903D01*
Y218504D01*
X199561Y218811D01*
X199387Y219072D01*
X199387Y219072D01*
X197418Y221040D01*
X197158Y221214D01*
X196850Y221275D01*
X147692D01*
X147385Y221214D01*
X147125Y221040D01*
X139880Y213795D01*
X136164D01*
X135983Y214295D01*
X136525Y215002D01*
X136928Y215975D01*
X137066Y217020D01*
Y219528D01*
X133031D01*
Y220020D01*
X132539D01*
Y226989D01*
X131987Y226917D01*
X131014Y226514D01*
X130179Y225872D01*
X129610Y225131D01*
X129197Y225209D01*
X129104Y225257D01*
X129049Y225534D01*
X128875Y225794D01*
X127369Y227301D01*
X127108Y227474D01*
X126801Y227536D01*
X125585D01*
X125558Y227530D01*
X125532Y227534D01*
X125406Y227500D01*
X125277Y227474D01*
X125255Y227460D01*
X125230Y227453D01*
X125126Y227373D01*
X125017Y227301D01*
X125002Y227278D01*
X124981Y227262D01*
X124916Y227149D01*
X124843Y227040D01*
X124838Y227014D01*
X124824Y226991D01*
X124803Y226927D01*
X124182Y226643D01*
X124020Y226710D01*
X123031Y226840D01*
X122043Y226710D01*
X121881Y226643D01*
X121260Y226927D01*
X121239Y226991D01*
X121225Y227014D01*
X121220Y227040D01*
X121148Y227149D01*
X121082Y227262D01*
X121061Y227278D01*
X121046Y227301D01*
X120937Y227373D01*
X120834Y227453D01*
X120808Y227460D01*
X120786Y227474D01*
X120657Y227500D01*
X120531Y227534D01*
X120504Y227530D01*
X120478Y227536D01*
X116237D01*
X116198Y227528D01*
X116158Y227532D01*
X116045Y227498D01*
X115929Y227474D01*
X115896Y227452D01*
X115858Y227441D01*
X115767Y227366D01*
X115669Y227301D01*
X115647Y227267D01*
X115616Y227242D01*
X115560Y227138D01*
X115495Y227040D01*
X115067Y226745D01*
X114532Y226852D01*
X111531D01*
X110996Y226745D01*
X110568Y227040D01*
X110503Y227138D01*
X110447Y227242D01*
X110416Y227267D01*
X110394Y227301D01*
X110296Y227366D01*
X110205Y227441D01*
X110167Y227452D01*
X110134Y227474D01*
X110018Y227498D01*
X109905Y227532D01*
X109865Y227528D01*
X109826Y227536D01*
X108266D01*
X107959Y227474D01*
X107698Y227301D01*
X97934Y217536D01*
X97155Y216938D01*
X96297Y216583D01*
X95376Y216461D01*
X94682Y216553D01*
X94743Y217020D01*
Y219528D01*
X90709D01*
Y220512D01*
X94743D01*
Y223020D01*
X94619Y223963D01*
X94644Y224206D01*
X94720Y224493D01*
X94829Y224566D01*
X94942Y224631D01*
X94959Y224652D01*
X94981Y224667D01*
X96330Y226016D01*
X96352Y226050D01*
X96383Y226075D01*
X96439Y226179D01*
X96504Y226277D01*
X96512Y226316D01*
X96531Y226351D01*
X96542Y226468D01*
X96565Y226584D01*
X96558Y226623D01*
X96562Y226663D01*
X96527Y226776D01*
X96504Y226891D01*
X96482Y226924D01*
X96471Y226963D01*
X96243Y227388D01*
X96602Y227628D01*
X97124Y228409D01*
X97308Y229331D01*
X97124Y230252D01*
X96602Y231034D01*
X95821Y231556D01*
X94899Y231739D01*
X93978Y231556D01*
X93351Y231137D01*
X75630D01*
X74939Y231000D01*
X74353Y230608D01*
X70596Y226852D01*
X69209D01*
X68723Y226755D01*
X68441Y227037D01*
X67855Y227429D01*
X67163Y227566D01*
X56679D01*
X56458Y228015D01*
X56602Y228203D01*
X57001Y229165D01*
X57072Y229705D01*
X53150D01*
X49227D01*
X49287Y229251D01*
X49092Y229089D01*
X48837Y228994D01*
X48207Y229624D01*
X47621Y230015D01*
X46930Y230153D01*
X27139D01*
X26512Y230572D01*
X25591Y230755D01*
X24669Y230572D01*
X23888Y230049D01*
X23365Y229268D01*
X23339Y229134D01*
X23260D01*
X23182Y229149D01*
X21256D01*
X21120Y229630D01*
X21333Y229761D01*
X22866Y231071D01*
X24176Y232604D01*
X25229Y234323D01*
X26001Y236186D01*
X26472Y238147D01*
X26591Y239665D01*
X13780D01*
Y240158D01*
X13287D01*
Y252969D01*
X11769Y252850D01*
X9809Y252379D01*
X7946Y251607D01*
X6226Y250554D01*
X4693Y249244D01*
X3383Y247711D01*
X2330Y245991D01*
X2096Y245428D01*
X1606Y245525D01*
Y257070D01*
X2105Y257123D01*
X2475Y256569D01*
X3028Y256199D01*
X3681Y256070D01*
X7815D01*
X8468Y256199D01*
X9021Y256569D01*
X9391Y257123D01*
X9521Y257776D01*
Y261910D01*
X9391Y262562D01*
X9021Y263116D01*
X8468Y263486D01*
X7815Y263615D01*
X3681D01*
X3028Y263486D01*
X2475Y263116D01*
X2105Y262562D01*
X1606Y262615D01*
Y267188D01*
X2105Y267241D01*
X2475Y266687D01*
X3028Y266318D01*
X3681Y266188D01*
X7815D01*
X8468Y266318D01*
X9021Y266687D01*
X9391Y267241D01*
X9521Y267894D01*
Y272028D01*
X9391Y272680D01*
X9021Y273234D01*
X8468Y273604D01*
X7815Y273734D01*
X3681D01*
X3028Y273604D01*
X2475Y273234D01*
X2105Y272680D01*
X1606Y272733D01*
Y277188D01*
X2105Y277241D01*
X2475Y276687D01*
X3028Y276318D01*
X3681Y276188D01*
X7815D01*
X8468Y276318D01*
X9021Y276687D01*
X9391Y277241D01*
X9521Y277894D01*
Y282028D01*
X9391Y282680D01*
X9021Y283234D01*
X8468Y283604D01*
X7815Y283734D01*
X3681D01*
X3028Y283604D01*
X2475Y283234D01*
X2105Y282680D01*
X1606Y282733D01*
Y287188D01*
X2105Y287241D01*
X2475Y286687D01*
X3028Y286318D01*
X3681Y286188D01*
X7815D01*
X8468Y286318D01*
X9021Y286687D01*
X9391Y287241D01*
X9521Y287894D01*
Y292028D01*
X9391Y292680D01*
X9021Y293234D01*
X8468Y293604D01*
X7815Y293734D01*
X3681D01*
X3028Y293604D01*
X2475Y293234D01*
X2105Y292680D01*
X1606Y292733D01*
Y297897D01*
X2105Y297950D01*
X2475Y297396D01*
X3028Y297026D01*
X3681Y296896D01*
X7815D01*
X8468Y297026D01*
X9021Y297396D01*
X9391Y297950D01*
X9521Y298602D01*
Y302736D01*
X9391Y303389D01*
X9021Y303942D01*
X8468Y304312D01*
X7815Y304442D01*
X3681D01*
X3028Y304312D01*
X2475Y303942D01*
X2105Y303389D01*
X1606Y303442D01*
Y307897D01*
X2105Y307949D01*
X2475Y307396D01*
X3028Y307026D01*
X3681Y306896D01*
X7815D01*
X8468Y307026D01*
X9021Y307396D01*
X9391Y307949D01*
X9521Y308602D01*
Y312736D01*
X9391Y313389D01*
X9021Y313943D01*
X8468Y314312D01*
X7815Y314442D01*
X3681D01*
X3028Y314312D01*
X2475Y313943D01*
X2105Y313389D01*
X1606Y313442D01*
Y325341D01*
X2096Y325438D01*
X2330Y324875D01*
X3383Y323155D01*
X4693Y321622D01*
X6226Y320312D01*
X7946Y319259D01*
X9809Y318487D01*
X11769Y318016D01*
X13287Y317897D01*
Y330709D01*
Y343521D01*
X11769Y343401D01*
X9809Y342930D01*
X7946Y342159D01*
X6226Y341105D01*
X4693Y339795D01*
X3383Y338262D01*
X2330Y336543D01*
X2096Y335979D01*
X1606Y336076D01*
Y348076D01*
X2106Y348176D01*
X2453Y347337D01*
X3086Y346512D01*
X3912Y345878D01*
X4874Y345480D01*
X5413Y345409D01*
Y349331D01*
Y353253D01*
X4874Y353182D01*
X3912Y352783D01*
X3086Y352150D01*
X2453Y351324D01*
X2106Y350486D01*
X1606Y350585D01*
Y379921D01*
Y380425D01*
X1633Y380455D01*
X2133Y380263D01*
Y377264D01*
X2262Y376611D01*
X2632Y376058D01*
X3186Y375688D01*
X3839Y375558D01*
X7972D01*
X8625Y375688D01*
X9179Y376058D01*
X9549Y376611D01*
X9678Y377264D01*
Y381398D01*
X9549Y382050D01*
X9179Y382604D01*
X8625Y382974D01*
X7972Y383104D01*
X3839D01*
X3186Y382974D01*
X2632Y382604D01*
X2262Y382050D01*
X1799Y382188D01*
X1814Y382301D01*
X2227Y383843D01*
X2838Y385317D01*
X3636Y386699D01*
X4607Y387965D01*
X5736Y389094D01*
X7001Y390065D01*
X8384Y390863D01*
X9858Y391474D01*
X11399Y391887D01*
X12982Y392095D01*
X155904D01*
X156151Y391595D01*
X155666Y390964D01*
X155230Y389910D01*
X155081Y388779D01*
X155230Y387649D01*
X155666Y386596D01*
X156360Y385691D01*
X157265Y384997D01*
X158318Y384560D01*
X159449Y384412D01*
X160579Y384560D01*
X161633Y384997D01*
X162538Y385691D01*
X163232Y386596D01*
X163668Y387649D01*
X163817Y388779D01*
X163668Y389910D01*
X163232Y390964D01*
X162747Y391595D01*
X162994Y392095D01*
X175589D01*
X175836Y391595D01*
X175351Y390964D01*
X174915Y389910D01*
X174766Y388779D01*
X174915Y387649D01*
X175351Y386596D01*
X176045Y385691D01*
X176950Y384997D01*
X178003Y384560D01*
X179134Y384412D01*
X180264Y384560D01*
X181318Y384997D01*
X182223Y385691D01*
X182917Y386596D01*
X183353Y387649D01*
X183502Y388779D01*
X183353Y389910D01*
X182917Y390964D01*
X182432Y391595D01*
X182679Y392095D01*
X221344D01*
X221443Y391595D01*
X220605Y391248D01*
X219779Y390614D01*
X219146Y389789D01*
X218747Y388827D01*
X218676Y388287D01*
X222599D01*
X226520D01*
X226449Y388827D01*
X226051Y389789D01*
X225418Y390614D01*
X224592Y391248D01*
X223754Y391595D01*
X223853Y392095D01*
X380719D01*
X382301Y391887D01*
D02*
G37*
G36*
X23365Y227425D02*
X23888Y226643D01*
X24669Y226121D01*
X25591Y225938D01*
X26512Y226121D01*
X27139Y226540D01*
X28214D01*
X28384Y226040D01*
X27968Y225721D01*
X27361Y224930D01*
X26979Y224008D01*
X26849Y223020D01*
Y217020D01*
X26979Y216031D01*
X27361Y215110D01*
X27968Y214318D01*
X28759Y213711D01*
X29681Y213330D01*
X30669Y213200D01*
X31658Y213330D01*
X32579Y213711D01*
X33371Y214318D01*
X33978Y215110D01*
X34359Y216031D01*
X34489Y217020D01*
Y223020D01*
X34359Y224008D01*
X33978Y224930D01*
X33371Y225721D01*
X32954Y226040D01*
X33124Y226540D01*
X46182D01*
X48239Y224482D01*
X48825Y224091D01*
X49403Y223976D01*
X49428Y223949D01*
X49571Y223660D01*
X49610Y223453D01*
X49306Y223000D01*
X49160Y222264D01*
Y220689D01*
X53150D01*
X57139D01*
Y222264D01*
X56993Y223000D01*
X56690Y223453D01*
X56914Y223954D01*
X66415D01*
X66876Y223492D01*
Y215520D01*
X67054Y214627D01*
X67559Y213871D01*
X68316Y213365D01*
X69209Y213188D01*
X72209D01*
X73101Y213365D01*
X73858Y213871D01*
X74363Y214627D01*
X74541Y215520D01*
Y224520D01*
X74363Y225412D01*
X74324Y225471D01*
X76378Y227524D01*
X80015D01*
X80458Y227386D01*
Y227386D01*
D01*
X80482Y227024D01*
X80449Y227020D01*
X79664Y226917D01*
X78691Y226514D01*
X77856Y225872D01*
X77215Y225037D01*
X76812Y224064D01*
X76674Y223020D01*
Y220512D01*
X84743D01*
Y223020D01*
X84606Y224064D01*
X84203Y225037D01*
X83561Y225872D01*
X82726Y226514D01*
X81753Y226917D01*
X80968Y227020D01*
X80936Y227024D01*
X80959Y227386D01*
X81402Y227524D01*
X93351D01*
X93978Y227106D01*
X94899Y226922D01*
X95516Y227045D01*
X95763Y226584D01*
X94413Y225235D01*
X93749Y225278D01*
X93410Y225721D01*
X92619Y226328D01*
X91697Y226710D01*
X90709Y226840D01*
X89720Y226710D01*
X88799Y226328D01*
X88007Y225721D01*
X87400Y224930D01*
X87019Y224008D01*
X86889Y223020D01*
Y221085D01*
X86873Y221047D01*
X86738Y220020D01*
X86873Y218992D01*
X86889Y218954D01*
Y217020D01*
X87019Y216031D01*
X87400Y215110D01*
X88007Y214318D01*
X88799Y213711D01*
X89720Y213330D01*
X90709Y213200D01*
X91697Y213330D01*
X92619Y213711D01*
X93410Y214318D01*
X94017Y215110D01*
X94300Y215793D01*
X95376Y215652D01*
X96506Y215800D01*
X97560Y216237D01*
X98464Y216931D01*
X108266Y226733D01*
X109826D01*
X109978Y226233D01*
X109882Y226169D01*
X109377Y225412D01*
X109199Y224520D01*
Y215520D01*
X109377Y214627D01*
X109882Y213871D01*
X110639Y213365D01*
X111531Y213188D01*
X114532D01*
X115424Y213365D01*
X116181Y213871D01*
X116686Y214627D01*
X116864Y215520D01*
Y224520D01*
X116686Y225412D01*
X116181Y226169D01*
X116085Y226233D01*
X116237Y226733D01*
X120478D01*
X120648Y226233D01*
X120179Y225872D01*
X119537Y225037D01*
X119134Y224064D01*
X118997Y223020D01*
Y220512D01*
X127066D01*
Y223020D01*
X126928Y224064D01*
X126525Y225037D01*
X125884Y225872D01*
X125415Y226233D01*
X125585Y226733D01*
X126801D01*
X128307Y225227D01*
Y220376D01*
X128456Y219246D01*
X128892Y218192D01*
X129211Y217776D01*
Y217020D01*
X129342Y216031D01*
X129723Y215110D01*
X130330Y214318D01*
X131122Y213711D01*
X132043Y213330D01*
X133031Y213200D01*
X133114Y213210D01*
X133332Y212992D01*
X140212D01*
X147692Y220472D01*
X196850D01*
X198819Y218504D01*
Y210903D01*
X190672Y202756D01*
X180559D01*
X180276Y202793D01*
X179992Y202756D01*
X155315D01*
X140724Y188165D01*
X139330D01*
X139114Y188434D01*
X139069Y188636D01*
X139324Y188947D01*
X139892Y190010D01*
X140242Y191163D01*
X140312Y191870D01*
X134213D01*
X128113D01*
X128183Y191163D01*
X128533Y190010D01*
X129051Y189041D01*
X129000Y188719D01*
X128874Y188435D01*
X128845Y188423D01*
X125984Y191284D01*
Y194921D01*
X121260Y199646D01*
X65029D01*
X61785Y202890D01*
X60592Y203805D01*
X59203Y204381D01*
X57713Y204577D01*
X47110D01*
X45620Y204381D01*
X44231Y203805D01*
X43038Y202890D01*
X42904Y202756D01*
X11908D01*
X7874Y206790D01*
Y213078D01*
X8374Y213346D01*
X9169Y213188D01*
X12169D01*
X13062Y213365D01*
X13818Y213871D01*
X14324Y214627D01*
X14502Y215520D01*
Y224520D01*
X14324Y225412D01*
X13818Y226169D01*
X13062Y226674D01*
X12786Y226729D01*
X12641Y227208D01*
X13013Y227580D01*
X13780Y227520D01*
X15756Y227676D01*
X17685Y228139D01*
X18187Y228346D01*
X23182D01*
X23365Y227425D01*
D02*
G37*
G36*
X248031Y228346D02*
Y204724D01*
X210630Y167323D01*
X66204D01*
X64204Y169322D01*
X63185Y170159D01*
X62023Y170780D01*
X60761Y171163D01*
X59449Y171292D01*
X47362D01*
X47362Y171292D01*
X46737Y171231D01*
X46050Y171163D01*
X44789Y170780D01*
X43626Y170159D01*
X42607Y169322D01*
X40607Y167323D01*
X15748D01*
X7874Y175197D01*
X7874Y185039D01*
X11811Y188976D01*
X14979Y188976D01*
X43555D01*
X44767Y190189D01*
X45647Y190304D01*
X47036Y190880D01*
X48229Y191795D01*
X48796Y192362D01*
X56027Y192362D01*
X59047Y189342D01*
X60240Y188427D01*
X61628Y187852D01*
X62221Y187774D01*
X62632Y187362D01*
X129171Y187362D01*
X129177Y187355D01*
X130256Y186469D01*
X131488Y185811D01*
X132823Y185406D01*
X134213Y185269D01*
X135602Y185406D01*
X136938Y185811D01*
X138169Y186469D01*
X139248Y187355D01*
X139254Y187362D01*
X171039D01*
X171942Y186880D01*
X173055Y186542D01*
X174213Y186428D01*
X175370Y186542D01*
X176484Y186880D01*
X177386Y187362D01*
X181021D01*
X189676Y196017D01*
X189747D01*
X190668Y196200D01*
X191450Y196722D01*
X204001Y209274D01*
X204524Y210055D01*
X204707Y210977D01*
Y211048D01*
X225155Y231496D01*
X237494Y231496D01*
X237569Y230996D01*
X237175Y230877D01*
X236112Y230309D01*
X235180Y229544D01*
X234416Y228612D01*
X233848Y227550D01*
X233498Y226396D01*
X233428Y225689D01*
X245627D01*
X245557Y226396D01*
X245207Y227550D01*
X244639Y228612D01*
X243875Y229544D01*
X242943Y230309D01*
X241880Y230877D01*
X241486Y230996D01*
X241561Y231496D01*
X244882D01*
X248031Y228346D01*
D02*
G37*
%LPC*%
G36*
X212598Y391568D02*
X211622Y391439D01*
X210712Y391062D01*
X209931Y390463D01*
X209331Y389682D01*
X208955Y388772D01*
X208826Y387795D01*
X208955Y386819D01*
X209331Y385909D01*
X209931Y385128D01*
X210712Y384528D01*
X211622Y384151D01*
X212598Y384023D01*
X213575Y384151D01*
X214485Y384528D01*
X215266Y385128D01*
X215865Y385909D01*
X216242Y386819D01*
X216371Y387795D01*
X216242Y388772D01*
X215865Y389682D01*
X215266Y390463D01*
X214485Y391062D01*
X213575Y391439D01*
X212598Y391568D01*
D02*
G37*
G36*
X74961D02*
X73984Y391439D01*
X73074Y391062D01*
X72293Y390463D01*
X71694Y389682D01*
X71317Y388772D01*
X71188Y387795D01*
X71317Y386819D01*
X71694Y385909D01*
X72293Y385128D01*
X73074Y384528D01*
X73984Y384151D01*
X74961Y384023D01*
X75937Y384151D01*
X76847Y384528D01*
X77628Y385128D01*
X78228Y385909D01*
X78605Y386819D01*
X78733Y387795D01*
X78605Y388772D01*
X78228Y389682D01*
X77628Y390463D01*
X76847Y391062D01*
X75937Y391439D01*
X74961Y391568D01*
D02*
G37*
G36*
X64961D02*
X63984Y391439D01*
X63074Y391062D01*
X62293Y390463D01*
X61694Y389682D01*
X61317Y388772D01*
X61188Y387795D01*
X61317Y386819D01*
X61350Y386739D01*
X52533Y377922D01*
X52103Y378209D01*
X51181Y378393D01*
X50259Y378209D01*
X49478Y377687D01*
X48956Y376906D01*
X48773Y375984D01*
X48956Y375063D01*
X49478Y374281D01*
X50259Y373759D01*
X51181Y373576D01*
X52103Y373759D01*
X52729Y374178D01*
X53150D01*
X53841Y374315D01*
X54427Y374707D01*
X63904Y384185D01*
X63984Y384151D01*
X64961Y384023D01*
X65937Y384151D01*
X66847Y384528D01*
X67628Y385128D01*
X68228Y385909D01*
X68604Y386819D01*
X68733Y387795D01*
X68604Y388772D01*
X68228Y389682D01*
X67628Y390463D01*
X66847Y391062D01*
X65937Y391439D01*
X64961Y391568D01*
D02*
G37*
G36*
X226520Y387303D02*
X223091D01*
Y383873D01*
X223630Y383944D01*
X224592Y384343D01*
X225418Y384976D01*
X226051Y385802D01*
X226449Y386763D01*
X226520Y387303D01*
D02*
G37*
G36*
X222106D02*
X218676D01*
X218747Y386763D01*
X219146Y385802D01*
X219779Y384976D01*
X220605Y384343D01*
X221567Y383944D01*
X222106Y383873D01*
Y387303D01*
D02*
G37*
G36*
X311024Y385080D02*
X309790Y384918D01*
X308641Y384442D01*
X307654Y383684D01*
X306897Y382698D01*
X306421Y381548D01*
X306258Y380315D01*
X306421Y379082D01*
X306897Y377932D01*
X307654Y376945D01*
X308641Y376188D01*
X309270Y375928D01*
Y375386D01*
X309130Y375328D01*
X308345Y374726D01*
X307743Y373941D01*
X307364Y373028D01*
X307300Y372539D01*
X311024D01*
X314747D01*
X314683Y373028D01*
X314304Y373941D01*
X313702Y374726D01*
X312918Y375328D01*
X312777Y375386D01*
Y375928D01*
X313406Y376188D01*
X314393Y376945D01*
X315150Y377932D01*
X315626Y379082D01*
X315789Y380315D01*
X315626Y381548D01*
X315150Y382698D01*
X314393Y383684D01*
X313406Y384442D01*
X312257Y384918D01*
X311024Y385080D01*
D02*
G37*
G36*
X381890D02*
X380656Y384918D01*
X379507Y384442D01*
X378520Y383684D01*
X377763Y382698D01*
X377287Y381548D01*
X377125Y380315D01*
X377287Y379082D01*
X377763Y377932D01*
X378520Y376945D01*
X379507Y376188D01*
X380136Y375928D01*
Y375386D01*
X379996Y375328D01*
X379211Y374726D01*
X378609Y373941D01*
X378231Y373028D01*
X378166Y372539D01*
X381890D01*
X385613D01*
X385549Y373028D01*
X385171Y373941D01*
X384569Y374726D01*
X383784Y375328D01*
X383643Y375386D01*
Y375928D01*
X384272Y376188D01*
X385259Y376945D01*
X386017Y377932D01*
X386493Y379082D01*
X386655Y380315D01*
X386493Y381548D01*
X386017Y382698D01*
X385259Y383684D01*
X384272Y384442D01*
X383123Y384918D01*
X381890Y385080D01*
D02*
G37*
G36*
X240158D02*
X238924Y384918D01*
X237775Y384442D01*
X236788Y383684D01*
X236031Y382698D01*
X235555Y381548D01*
X235392Y380315D01*
X235555Y379082D01*
X236031Y377932D01*
X236788Y376945D01*
X237775Y376188D01*
X238404Y375928D01*
Y375386D01*
X238263Y375328D01*
X237479Y374726D01*
X236877Y373941D01*
X236498Y373028D01*
X236434Y372539D01*
X240158D01*
X243881D01*
X243817Y373028D01*
X243438Y373941D01*
X242836Y374726D01*
X242052Y375328D01*
X241911Y375386D01*
Y375928D01*
X242540Y376188D01*
X243527Y376945D01*
X244284Y377932D01*
X244760Y379082D01*
X244923Y380315D01*
X244760Y381548D01*
X244284Y382698D01*
X243527Y383684D01*
X242540Y384442D01*
X241391Y384918D01*
X240158Y385080D01*
D02*
G37*
G36*
X204665Y391568D02*
X200532D01*
X199879Y391438D01*
X199325Y391069D01*
X198955Y390515D01*
X198826Y389862D01*
Y385728D01*
X198955Y385075D01*
X199325Y384522D01*
X199879Y384152D01*
X200532Y384022D01*
X203817D01*
X217069Y370770D01*
X217655Y370378D01*
X218347Y370241D01*
X226798D01*
X227425Y369822D01*
X228346Y369639D01*
X229268Y369822D01*
X230049Y370344D01*
X230572Y371126D01*
X230755Y372047D01*
X230572Y372969D01*
X230049Y373750D01*
X229268Y374272D01*
X228346Y374456D01*
X227425Y374272D01*
X226798Y373854D01*
X219095D01*
X206371Y386577D01*
Y389862D01*
X206241Y390515D01*
X205872Y391069D01*
X205318Y391438D01*
X204665Y391568D01*
D02*
G37*
G36*
X57028D02*
X52894D01*
X52241Y391438D01*
X51687Y391069D01*
X51318Y390515D01*
X51188Y389862D01*
Y386577D01*
X43998Y379387D01*
X43607Y378801D01*
X43469Y378110D01*
Y369659D01*
X43050Y369032D01*
X42867Y368110D01*
X43050Y367189D01*
X43573Y366407D01*
X44354Y365885D01*
X45276Y365702D01*
X46197Y365885D01*
X46824Y366304D01*
X90126D01*
X90817Y366441D01*
X91403Y366833D01*
X94811Y370241D01*
X95345D01*
X95898Y369520D01*
X96638Y368952D01*
X97500Y368595D01*
X98425Y368473D01*
X99350Y368595D01*
X100212Y368952D01*
X100952Y369520D01*
X101520Y370260D01*
X101877Y371122D01*
X101999Y372047D01*
X101877Y372972D01*
X101520Y373834D01*
X100952Y374574D01*
X100212Y375142D01*
X99901Y375271D01*
Y375813D01*
X100808Y376188D01*
X101795Y376945D01*
X102552Y377932D01*
X103028Y379082D01*
X103190Y380315D01*
X103028Y381548D01*
X102552Y382698D01*
X101795Y383684D01*
X100808Y384442D01*
X99659Y384918D01*
X98425Y385080D01*
X97192Y384918D01*
X96043Y384442D01*
X95056Y383684D01*
X94298Y382698D01*
X93822Y381548D01*
X93660Y380315D01*
X93822Y379082D01*
X94298Y377932D01*
X95056Y376945D01*
X96043Y376188D01*
X96950Y375813D01*
Y375271D01*
X96638Y375142D01*
X95898Y374574D01*
X95345Y373854D01*
X94063D01*
X93371Y373716D01*
X92785Y373324D01*
X89377Y369917D01*
X47082D01*
Y377362D01*
X53742Y384022D01*
X57028D01*
X57680Y384152D01*
X58234Y384522D01*
X58604Y385075D01*
X58734Y385728D01*
Y389862D01*
X58604Y390515D01*
X58234Y391069D01*
X57680Y391438D01*
X57028Y391568D01*
D02*
G37*
G36*
X310531Y371555D02*
X307300D01*
X307364Y371067D01*
X307743Y370153D01*
X308345Y369369D01*
X309130Y368766D01*
X310043Y368388D01*
X310531Y368324D01*
Y371555D01*
D02*
G37*
G36*
X381398Y371555D02*
X378166D01*
X378231Y371067D01*
X378609Y370153D01*
X379211Y369369D01*
X379996Y368766D01*
X380909Y368388D01*
X381398Y368324D01*
Y371555D01*
D02*
G37*
G36*
X239665D02*
X236434D01*
X236498Y371067D01*
X236877Y370153D01*
X237479Y369369D01*
X238263Y368766D01*
X239177Y368388D01*
X239665Y368324D01*
Y371555D01*
D02*
G37*
G36*
X385613D02*
X382382D01*
Y368324D01*
X382870Y368388D01*
X383784Y368766D01*
X384569Y369369D01*
X385171Y370153D01*
X385549Y371067D01*
X385613Y371555D01*
D02*
G37*
G36*
X243881D02*
X240650D01*
Y368324D01*
X241138Y368388D01*
X242052Y368766D01*
X242836Y369369D01*
X243438Y370153D01*
X243817Y371067D01*
X243881Y371555D01*
D02*
G37*
G36*
X314747Y371555D02*
X311516D01*
Y368324D01*
X312004Y368388D01*
X312918Y368766D01*
X313702Y369369D01*
X314304Y370153D01*
X314683Y371067D01*
X314747Y371555D01*
D02*
G37*
G36*
X5906Y373103D02*
X4929Y372975D01*
X4019Y372598D01*
X3238Y371998D01*
X2638Y371217D01*
X2262Y370307D01*
X2133Y369331D01*
X2262Y368354D01*
X2638Y367444D01*
X3238Y366663D01*
X4019Y366064D01*
X4929Y365687D01*
X5906Y365558D01*
X6882Y365687D01*
X7792Y366064D01*
X8573Y366663D01*
X9172Y367444D01*
X9549Y368354D01*
X9678Y369331D01*
X9549Y370307D01*
X9172Y371217D01*
X8573Y371998D01*
X7792Y372598D01*
X6882Y372975D01*
X5906Y373103D01*
D02*
G37*
G36*
X276083Y376985D02*
Y364665D01*
X288402D01*
X288283Y366183D01*
X287812Y368144D01*
X287040Y370007D01*
X285987Y371727D01*
X284677Y373260D01*
X283144Y374570D01*
X281425Y375623D01*
X279562Y376395D01*
X277601Y376866D01*
X276083Y376985D01*
D02*
G37*
G36*
X275098D02*
X273580Y376866D01*
X271620Y376395D01*
X269757Y375623D01*
X268037Y374570D01*
X266504Y373260D01*
X265194Y371727D01*
X264141Y370007D01*
X263369Y368144D01*
X262898Y366183D01*
X262779Y364665D01*
X275098D01*
Y376985D01*
D02*
G37*
G36*
X134350D02*
Y364665D01*
X146670D01*
X146551Y366183D01*
X146080Y368144D01*
X145308Y370007D01*
X144255Y371727D01*
X142945Y373260D01*
X141412Y374570D01*
X139692Y375623D01*
X137829Y376395D01*
X135869Y376866D01*
X134350Y376985D01*
D02*
G37*
G36*
X133366D02*
X131848Y376866D01*
X129887Y376395D01*
X128024Y375623D01*
X126305Y374570D01*
X124771Y373260D01*
X123462Y371727D01*
X122408Y370007D01*
X121637Y368144D01*
X121166Y366183D01*
X121046Y364665D01*
X133366D01*
Y376985D01*
D02*
G37*
G36*
X381890Y367747D02*
X380965Y367625D01*
X380103Y367268D01*
X379363Y366700D01*
X378795Y365960D01*
X378438Y365098D01*
X378316Y364173D01*
X378438Y363248D01*
X378795Y362386D01*
X379363Y361646D01*
X380103Y361078D01*
X380965Y360721D01*
X381890Y360599D01*
X382815Y360721D01*
X383677Y361078D01*
X384417Y361646D01*
X384985Y362386D01*
X385342Y363248D01*
X385464Y364173D01*
X385342Y365098D01*
X384985Y365960D01*
X384417Y366700D01*
X383677Y367268D01*
X382815Y367625D01*
X381890Y367747D01*
D02*
G37*
G36*
X311024D02*
X310099Y367625D01*
X309237Y367268D01*
X308496Y366700D01*
X307929Y365960D01*
X307572Y365098D01*
X307450Y364173D01*
X307572Y363248D01*
X307929Y362386D01*
X308496Y361646D01*
X309237Y361078D01*
X310099Y360721D01*
X311024Y360599D01*
X311949Y360721D01*
X312811Y361078D01*
X313551Y361646D01*
X314119Y362386D01*
X314476Y363248D01*
X314598Y364173D01*
X314476Y365098D01*
X314119Y365960D01*
X313551Y366700D01*
X312811Y367268D01*
X311949Y367625D01*
X311024Y367747D01*
D02*
G37*
G36*
X240158D02*
X239232Y367625D01*
X238371Y367268D01*
X237630Y366700D01*
X237062Y365960D01*
X236705Y365098D01*
X236584Y364173D01*
X236705Y363248D01*
X237062Y362386D01*
X237630Y361646D01*
X238371Y361078D01*
X239232Y360721D01*
X240158Y360599D01*
X241083Y360721D01*
X241944Y361078D01*
X242685Y361646D01*
X243252Y362386D01*
X243610Y363248D01*
X243731Y364173D01*
X243610Y365098D01*
X243252Y365960D01*
X242685Y366700D01*
X241944Y367268D01*
X241083Y367625D01*
X240158Y367747D01*
D02*
G37*
G36*
X98425D02*
X97500Y367625D01*
X96638Y367268D01*
X95898Y366700D01*
X95330Y365960D01*
X94973Y365098D01*
X94851Y364173D01*
X94973Y363248D01*
X95330Y362386D01*
X95898Y361646D01*
X96638Y361078D01*
X97500Y360721D01*
X98425Y360599D01*
X99350Y360721D01*
X100212Y361078D01*
X100952Y361646D01*
X101520Y362386D01*
X101877Y363248D01*
X101999Y364173D01*
X101877Y365098D01*
X101520Y365960D01*
X100952Y366700D01*
X100212Y367268D01*
X99350Y367625D01*
X98425Y367747D01*
D02*
G37*
G36*
X100354Y360091D02*
X98917D01*
Y356791D01*
X102217D01*
Y358228D01*
X102075Y358941D01*
X101671Y359545D01*
X101067Y359949D01*
X100354Y360091D01*
D02*
G37*
G36*
X97933D02*
X96496D01*
X95783Y359949D01*
X95179Y359545D01*
X94775Y358941D01*
X94634Y358228D01*
Y356791D01*
X97933D01*
Y360091D01*
D02*
G37*
G36*
X5906Y363103D02*
X4929Y362975D01*
X4019Y362598D01*
X3238Y361998D01*
X2638Y361217D01*
X2262Y360307D01*
X2133Y359331D01*
X2262Y358354D01*
X2638Y357445D01*
X3238Y356663D01*
X4019Y356064D01*
X4929Y355687D01*
X5906Y355558D01*
X6882Y355687D01*
X7792Y356064D01*
X8573Y356663D01*
X9172Y357445D01*
X9549Y358354D01*
X9678Y359331D01*
X9549Y360307D01*
X9172Y361217D01*
X8573Y361998D01*
X7792Y362598D01*
X6882Y362975D01*
X5906Y363103D01*
D02*
G37*
G36*
X288402Y363681D02*
X276083D01*
Y351361D01*
X277601Y351481D01*
X279562Y351952D01*
X281425Y352723D01*
X283144Y353777D01*
X284677Y355086D01*
X285987Y356620D01*
X287040Y358339D01*
X287812Y360202D01*
X288283Y362163D01*
X288402Y363681D01*
D02*
G37*
G36*
X275098D02*
X262779D01*
X262898Y362163D01*
X263369Y360202D01*
X264141Y358339D01*
X265194Y356620D01*
X266504Y355086D01*
X268037Y353777D01*
X269757Y352723D01*
X271620Y351952D01*
X273580Y351481D01*
X275098Y351361D01*
Y363681D01*
D02*
G37*
G36*
X146670D02*
X134350D01*
Y351361D01*
X135869Y351481D01*
X137829Y351952D01*
X139692Y352723D01*
X141412Y353777D01*
X142945Y355086D01*
X144255Y356620D01*
X145308Y358339D01*
X146080Y360202D01*
X146551Y362163D01*
X146670Y363681D01*
D02*
G37*
G36*
X133366D02*
X121046D01*
X121166Y362163D01*
X121637Y360202D01*
X122408Y358339D01*
X123462Y356620D01*
X124771Y355086D01*
X126305Y353777D01*
X128024Y352723D01*
X129887Y351952D01*
X131848Y351481D01*
X133366Y351361D01*
Y363681D01*
D02*
G37*
G36*
X6398Y353253D02*
Y349823D01*
X9828D01*
X9757Y350363D01*
X9358Y351324D01*
X8725Y352150D01*
X7899Y352783D01*
X6937Y353182D01*
X6398Y353253D01*
D02*
G37*
G36*
X27559Y378785D02*
X25273Y378605D01*
X23044Y378070D01*
X20925Y377193D01*
X18970Y375995D01*
X17227Y374505D01*
X15738Y372762D01*
X14540Y370807D01*
X13662Y368689D01*
X13127Y366459D01*
X12947Y364173D01*
X13127Y361887D01*
X13662Y359658D01*
X14540Y357540D01*
X15738Y355585D01*
X17227Y353841D01*
X18970Y352352D01*
X20925Y351154D01*
X23044Y350276D01*
X25273Y349741D01*
X27559Y349561D01*
X29845Y349741D01*
X32074Y350276D01*
X34193Y351154D01*
X36148Y352352D01*
X37891Y353841D01*
X39380Y355585D01*
X40578Y357540D01*
X41456Y359658D01*
X41991Y361887D01*
X42171Y364173D01*
X41991Y366459D01*
X41456Y368689D01*
X40578Y370807D01*
X39380Y372762D01*
X37891Y374505D01*
X36148Y375995D01*
X34193Y377193D01*
X32074Y378070D01*
X29845Y378605D01*
X27559Y378785D01*
D02*
G37*
G36*
X9828Y348839D02*
X6398D01*
Y345409D01*
X6937Y345480D01*
X7899Y345878D01*
X8725Y346512D01*
X9358Y347337D01*
X9757Y348299D01*
X9828Y348839D01*
D02*
G37*
G36*
X312953Y359874D02*
X309095D01*
X308465Y359749D01*
X307931Y359392D01*
X307574Y358858D01*
X307449Y358228D01*
Y354370D01*
X307574Y353740D01*
X307931Y353206D01*
X308465Y352850D01*
X308829Y352777D01*
X308880Y352257D01*
X308641Y352158D01*
X307654Y351401D01*
X306897Y350414D01*
X306421Y349265D01*
X306258Y348031D01*
X306421Y346798D01*
X306897Y345649D01*
X307654Y344662D01*
X308641Y343905D01*
X309790Y343429D01*
X311024Y343266D01*
X312257Y343429D01*
X313406Y343905D01*
X314393Y344662D01*
X315150Y345649D01*
X315626Y346798D01*
X315789Y348031D01*
X315626Y349265D01*
X315150Y350414D01*
X314393Y351401D01*
X313406Y352158D01*
X313167Y352257D01*
X313219Y352777D01*
X313583Y352850D01*
X314117Y353206D01*
X314473Y353740D01*
X314598Y354370D01*
Y358228D01*
X314473Y358858D01*
X314117Y359392D01*
X313583Y359749D01*
X312953Y359874D01*
D02*
G37*
G36*
X242087D02*
X238228D01*
X237598Y359749D01*
X237065Y359392D01*
X236708Y358858D01*
X236583Y358228D01*
Y354370D01*
X236708Y353740D01*
X237065Y353206D01*
X237598Y352850D01*
X237963Y352777D01*
X238014Y352257D01*
X237775Y352158D01*
X236788Y351401D01*
X236031Y350414D01*
X235555Y349265D01*
X235392Y348031D01*
X235555Y346798D01*
X236031Y345649D01*
X236788Y344662D01*
X237775Y343905D01*
X238924Y343429D01*
X240158Y343266D01*
X241391Y343429D01*
X242540Y343905D01*
X243527Y344662D01*
X244284Y345649D01*
X244760Y346798D01*
X244923Y348031D01*
X244760Y349265D01*
X244284Y350414D01*
X243527Y351401D01*
X242540Y352158D01*
X242301Y352257D01*
X242353Y352777D01*
X242716Y352850D01*
X243250Y353206D01*
X243607Y353740D01*
X243732Y354370D01*
Y358228D01*
X243607Y358858D01*
X243250Y359392D01*
X242716Y359749D01*
X242087Y359874D01*
D02*
G37*
G36*
X102217Y355807D02*
X98425D01*
X94634D01*
Y354370D01*
X94775Y353657D01*
X95179Y353053D01*
X95783Y352649D01*
X95877Y352631D01*
X95964Y352381D01*
X95970Y352102D01*
X95056Y351401D01*
X94298Y350414D01*
X93822Y349265D01*
X93660Y348031D01*
X93822Y346798D01*
X94298Y345649D01*
X95056Y344662D01*
X96043Y343905D01*
X97192Y343429D01*
X98425Y343266D01*
X99659Y343429D01*
X100808Y343905D01*
X101795Y344662D01*
X102552Y345649D01*
X103028Y346798D01*
X103190Y348031D01*
X103028Y349265D01*
X102552Y350414D01*
X101795Y351401D01*
X100881Y352102D01*
X100886Y352381D01*
X100974Y352631D01*
X101067Y352649D01*
X101671Y353053D01*
X102075Y353657D01*
X102217Y354370D01*
Y355807D01*
D02*
G37*
G36*
X149606Y359148D02*
X148685Y358964D01*
X147903Y358442D01*
X147381Y357661D01*
X147234Y356922D01*
X131686Y341373D01*
X131470D01*
X130843Y341792D01*
X129921Y341975D01*
X129000Y341792D01*
X128373Y341373D01*
X76536D01*
X71270Y346639D01*
X71123Y347378D01*
X70601Y348160D01*
X69819Y348682D01*
X68898Y348865D01*
X67976Y348682D01*
X67195Y348160D01*
X66672Y347378D01*
X66489Y346457D01*
X66672Y345535D01*
X67195Y344754D01*
X67976Y344232D01*
X68715Y344085D01*
X74510Y338290D01*
X75096Y337898D01*
X75787Y337761D01*
X128373D01*
X129000Y337342D01*
X129921Y337158D01*
X130843Y337342D01*
X131470Y337761D01*
X132434D01*
X133125Y337898D01*
X133711Y338290D01*
X149789Y354367D01*
X150528Y354514D01*
X151309Y355036D01*
X151831Y355818D01*
X152015Y356739D01*
X151831Y357661D01*
X151309Y358442D01*
X150528Y358964D01*
X149606Y359148D01*
D02*
G37*
G36*
X179626Y344085D02*
Y340059D01*
X183652D01*
X183560Y340753D01*
X183102Y341858D01*
X182374Y342807D01*
X181425Y343535D01*
X180320Y343993D01*
X179626Y344085D01*
D02*
G37*
G36*
X178642D02*
X177948Y343993D01*
X176843Y343535D01*
X175893Y342807D01*
X175165Y341858D01*
X174707Y340753D01*
X174616Y340059D01*
X178642D01*
Y344085D01*
D02*
G37*
G36*
X291339Y352802D02*
X290417Y352619D01*
X289635Y352097D01*
X289113Y351315D01*
X288966Y350576D01*
X280748Y342357D01*
X255299D01*
X254859Y342652D01*
X253937Y342835D01*
X253015Y342652D01*
X252234Y342130D01*
X251712Y341348D01*
X251529Y340427D01*
X251712Y339505D01*
X252234Y338724D01*
X253015Y338201D01*
X253937Y338018D01*
X254859Y338201D01*
X255640Y338724D01*
X255654Y338745D01*
X281496D01*
X282187Y338882D01*
X282773Y339274D01*
X291339Y347839D01*
X300102Y339076D01*
X300688Y338684D01*
X301379Y338546D01*
X314762D01*
X315454Y338684D01*
X316040Y339076D01*
X318898Y341934D01*
X321756Y339076D01*
X322342Y338684D01*
X323033Y338546D01*
X361656D01*
X361803Y338400D01*
X361950Y337661D01*
X362472Y336880D01*
X363253Y336357D01*
X364175Y336174D01*
X365096Y336357D01*
X365878Y336880D01*
X366400Y337661D01*
X366583Y338583D01*
X366400Y339504D01*
X365878Y340286D01*
X365096Y340808D01*
X364357Y340955D01*
X363682Y341630D01*
X363096Y342022D01*
X362405Y342159D01*
X323781D01*
X321270Y344671D01*
X321123Y345410D01*
X320601Y346191D01*
X319819Y346713D01*
X318898Y346897D01*
X317976Y346713D01*
X317195Y346191D01*
X316672Y345410D01*
X316525Y344671D01*
X314014Y342159D01*
X302128D01*
X293711Y350576D01*
X293564Y351315D01*
X293042Y352097D01*
X292260Y352619D01*
X291339Y352802D01*
D02*
G37*
G36*
X159449Y343935D02*
X158318Y343786D01*
X157265Y343350D01*
X156360Y342656D01*
X155666Y341751D01*
X155230Y340698D01*
X155081Y339567D01*
X155230Y338436D01*
X155666Y337383D01*
X156149Y336753D01*
X155903Y336253D01*
X141214D01*
X141008Y336212D01*
X140798Y336198D01*
X139796Y335930D01*
X139608Y335837D01*
X139409Y335769D01*
X138511Y335251D01*
X138119Y335315D01*
X137965Y335370D01*
X137596Y335923D01*
X137010Y336315D01*
X136319Y336452D01*
X135628Y336315D01*
X135182Y336017D01*
X134843Y335958D01*
X134503Y336017D01*
X134057Y336315D01*
X133366Y336452D01*
X132675Y336315D01*
X132229Y336017D01*
X131890Y335958D01*
X131550Y336017D01*
X131105Y336315D01*
X130413Y336452D01*
X129722Y336315D01*
X129277Y336017D01*
X128937Y335958D01*
X128597Y336017D01*
X128152Y336315D01*
X127461Y336452D01*
X126769Y336315D01*
X126183Y335923D01*
X125785D01*
X125199Y336315D01*
X124508Y336452D01*
X123817Y336315D01*
X123231Y335923D01*
X122832D01*
X122246Y336315D01*
X121555Y336452D01*
X120864Y336315D01*
X120278Y335923D01*
X119939Y335416D01*
X119868Y335359D01*
X119757Y335311D01*
X119355Y335229D01*
X118899Y335534D01*
X118753Y335595D01*
X118622Y335682D01*
X117905Y335979D01*
X117750Y336010D01*
X117604Y336071D01*
X116843Y336222D01*
X116685D01*
X116530Y336253D01*
X32946D01*
X32740Y336212D01*
X32531Y336198D01*
X31529Y335930D01*
X31340Y335837D01*
X31141Y335769D01*
X30243Y335251D01*
X30086Y335112D01*
X29911Y334996D01*
X29178Y334262D01*
X29061Y334088D01*
X28922Y333930D01*
X28404Y333032D01*
X28336Y332833D01*
X28243Y332644D01*
X27975Y331643D01*
X27961Y331433D01*
X27920Y331227D01*
Y330190D01*
X27961Y329984D01*
X27975Y329775D01*
X28243Y328773D01*
X28336Y328585D01*
X28404Y328386D01*
X28922Y327487D01*
X29061Y327330D01*
X29178Y327155D01*
X29911Y326422D01*
X30086Y326305D01*
X30243Y326167D01*
X31141Y325648D01*
X31340Y325581D01*
X31529Y325488D01*
X32531Y325219D01*
X32740Y325205D01*
X32946Y325165D01*
X116530D01*
X116685Y325195D01*
X116843D01*
X117604Y325347D01*
X117750Y325407D01*
X117905Y325438D01*
X118622Y325735D01*
X118753Y325823D01*
X118899Y325883D01*
X119355Y326188D01*
X119757Y326107D01*
X119868Y326058D01*
X119939Y326002D01*
X120278Y325494D01*
X120864Y325103D01*
X121555Y324965D01*
X122246Y325103D01*
X122692Y325400D01*
X123031Y325460D01*
X123371Y325400D01*
X123817Y325103D01*
X124508Y324965D01*
X125199Y325103D01*
X125785Y325494D01*
X126183D01*
X126769Y325103D01*
X127461Y324965D01*
X128152Y325103D01*
X128597Y325400D01*
X128937Y325460D01*
X129277Y325400D01*
X129722Y325103D01*
X130413Y324965D01*
X131105Y325103D01*
X131550Y325400D01*
X131890Y325460D01*
X132229Y325400D01*
X132675Y325103D01*
X133366Y324965D01*
X134057Y325103D01*
X134503Y325400D01*
X134843Y325460D01*
X135182Y325400D01*
X135628Y325103D01*
X136319Y324965D01*
X137010Y325103D01*
X137596Y325494D01*
X137965Y326047D01*
X138119Y326102D01*
X138511Y326167D01*
X139409Y325648D01*
X139608Y325581D01*
X139796Y325488D01*
X140798Y325219D01*
X141008Y325205D01*
X141214Y325165D01*
X151535D01*
X151956Y325144D01*
X152820Y324972D01*
X153597Y324650D01*
X154297Y324183D01*
X154892Y323588D01*
X155359Y322889D01*
X155681Y322112D01*
X155852Y321248D01*
X155873Y320827D01*
Y308537D01*
X155914Y308331D01*
X155928Y308121D01*
X156196Y307119D01*
X156289Y306931D01*
X156357Y306732D01*
X156875Y305834D01*
X157014Y305676D01*
X157130Y305501D01*
X157864Y304768D01*
X158038Y304651D01*
X158196Y304513D01*
X158512Y304330D01*
X158435Y303798D01*
X157446Y303560D01*
X155583Y302789D01*
X153864Y301735D01*
X152331Y300425D01*
X151021Y298892D01*
X149967Y297173D01*
X149196Y295310D01*
X148725Y293349D01*
X148605Y291831D01*
X174229D01*
X174110Y293349D01*
X173639Y295310D01*
X172867Y297173D01*
X171814Y298892D01*
X170504Y300425D01*
X168971Y301735D01*
X167251Y302789D01*
X165388Y303560D01*
X164400Y303798D01*
X164322Y304330D01*
X164638Y304513D01*
X164796Y304651D01*
X164971Y304768D01*
X165704Y305501D01*
X165821Y305676D01*
X165959Y305834D01*
X166478Y306732D01*
X166545Y306931D01*
X166638Y307119D01*
X166907Y308121D01*
X166920Y308331D01*
X166962Y308537D01*
Y320827D01*
X166982Y321248D01*
X167154Y322112D01*
X167476Y322889D01*
X167943Y323588D01*
X168538Y324183D01*
X169237Y324650D01*
X170014Y324972D01*
X170878Y325144D01*
X171299Y325165D01*
X181490D01*
X181645Y325195D01*
X181804D01*
X182564Y325347D01*
X182711Y325407D01*
X182866Y325438D01*
X183582Y325735D01*
X183714Y325823D01*
X183860Y325883D01*
X184316Y326188D01*
X184718Y326107D01*
X184828Y326058D01*
X184899Y326002D01*
X185239Y325494D01*
X185825Y325103D01*
X186516Y324965D01*
X187207Y325103D01*
X187653Y325400D01*
X187992Y325460D01*
X188332Y325400D01*
X188777Y325103D01*
X189469Y324965D01*
X190160Y325103D01*
X190746Y325494D01*
X191144D01*
X191730Y325103D01*
X192421Y324965D01*
X193113Y325103D01*
X193558Y325400D01*
X193898Y325460D01*
X194237Y325400D01*
X194683Y325103D01*
X195374Y324965D01*
X196065Y325103D01*
X196511Y325400D01*
X196850Y325460D01*
X197190Y325400D01*
X197635Y325103D01*
X198327Y324965D01*
X199018Y325103D01*
X199464Y325400D01*
X199803Y325460D01*
X200143Y325400D01*
X200588Y325103D01*
X201279Y324965D01*
X201971Y325103D01*
X202557Y325494D01*
X202926Y326047D01*
X203080Y326102D01*
X203472Y326167D01*
X204370Y325648D01*
X204569Y325581D01*
X204757Y325488D01*
X205759Y325219D01*
X205968Y325205D01*
X206174Y325165D01*
X281884D01*
X282039Y325195D01*
X282197D01*
X282958Y325347D01*
X283104Y325407D01*
X283259Y325438D01*
X283976Y325735D01*
X284108Y325823D01*
X284254Y325883D01*
X284899Y326314D01*
X285011Y326426D01*
X285142Y326514D01*
X285622Y326994D01*
X285895Y326913D01*
X286087Y326772D01*
X286087Y326772D01*
X286225Y326080D01*
X286616Y325494D01*
X287202Y325103D01*
X287894Y324965D01*
X288585Y325103D01*
X289171Y325494D01*
X289569D01*
X290155Y325103D01*
X290846Y324965D01*
X291538Y325103D01*
X292124Y325494D01*
X292522D01*
X293108Y325103D01*
X293799Y324965D01*
X294491Y325103D01*
X294936Y325400D01*
X295276Y325460D01*
X295615Y325400D01*
X296061Y325103D01*
X296752Y324965D01*
X297443Y325103D01*
X298029Y325494D01*
X298427D01*
X299013Y325103D01*
X299705Y324965D01*
X300396Y325103D01*
X300982Y325494D01*
X301380D01*
X301966Y325103D01*
X302658Y324965D01*
X303349Y325103D01*
X303935Y325494D01*
X304326Y326080D01*
X304461Y326755D01*
X304532Y326804D01*
X304929Y326994D01*
X305501Y326422D01*
X305676Y326305D01*
X305834Y326167D01*
X306732Y325648D01*
X306931Y325581D01*
X307119Y325488D01*
X308121Y325219D01*
X308331Y325205D01*
X308537Y325165D01*
X360624D01*
X360779Y325195D01*
X360937D01*
X361698Y325347D01*
X361844Y325407D01*
X362000Y325438D01*
X362716Y325735D01*
X362848Y325823D01*
X362994Y325883D01*
X363639Y326314D01*
X363751Y326426D01*
X363882Y326514D01*
X364431Y327063D01*
X364519Y327194D01*
X364631Y327306D01*
X365061Y327951D01*
X365122Y328097D01*
X365210Y328229D01*
X365507Y328945D01*
X365538Y329100D01*
X365598Y329247D01*
X365750Y330008D01*
Y330166D01*
X365780Y330321D01*
Y331097D01*
X365750Y331252D01*
Y331410D01*
X365598Y332171D01*
X365538Y332317D01*
X365507Y332472D01*
X365210Y333189D01*
X365122Y333320D01*
X365061Y333466D01*
X364631Y334111D01*
X364519Y334223D01*
X364431Y334355D01*
X363882Y334903D01*
X363751Y334991D01*
X363639Y335103D01*
X362994Y335534D01*
X362848Y335595D01*
X362716Y335682D01*
X362000Y335979D01*
X361844Y336010D01*
X361698Y336071D01*
X360937Y336222D01*
X360779D01*
X360624Y336253D01*
X308537D01*
X308331Y336212D01*
X308121Y336198D01*
X307119Y335930D01*
X306931Y335837D01*
X306732Y335769D01*
X305834Y335251D01*
X305676Y335112D01*
X305501Y334996D01*
X304929Y334424D01*
X304532Y334613D01*
X304461Y334662D01*
X304326Y335337D01*
X303935Y335923D01*
X303349Y336315D01*
X302658Y336452D01*
X301966Y336315D01*
X301380Y335923D01*
X300982D01*
X300396Y336315D01*
X299705Y336452D01*
X299013Y336315D01*
X298427Y335923D01*
X298029D01*
X297443Y336315D01*
X296752Y336452D01*
X296061Y336315D01*
X295475Y335923D01*
X295076D01*
X294491Y336315D01*
X293799Y336452D01*
X293108Y336315D01*
X292662Y336017D01*
X292323Y335958D01*
X291983Y336017D01*
X291538Y336315D01*
X290846Y336452D01*
X290155Y336315D01*
X289710Y336017D01*
X289370Y335958D01*
X289031Y336017D01*
X288585Y336315D01*
X287894Y336452D01*
X287202Y336315D01*
X286616Y335923D01*
X286225Y335337D01*
X286087Y334646D01*
X286087Y334645D01*
X285895Y334504D01*
X285622Y334424D01*
X285142Y334903D01*
X285011Y334991D01*
X284899Y335103D01*
X284254Y335534D01*
X284108Y335595D01*
X283976Y335682D01*
X283259Y335979D01*
X283104Y336010D01*
X282958Y336071D01*
X282197Y336222D01*
X282039D01*
X281884Y336253D01*
X206174D01*
X205968Y336212D01*
X205759Y336198D01*
X204757Y335930D01*
X204569Y335837D01*
X204370Y335769D01*
X203472Y335251D01*
X203080Y335315D01*
X202926Y335370D01*
X202557Y335923D01*
X201971Y336315D01*
X201279Y336452D01*
X200588Y336315D01*
X200143Y336017D01*
X199803Y335958D01*
X199464Y336017D01*
X199018Y336315D01*
X198327Y336452D01*
X197635Y336315D01*
X197190Y336017D01*
X196850Y335958D01*
X196511Y336017D01*
X196065Y336315D01*
X195374Y336452D01*
X194683Y336315D01*
X194097Y335923D01*
X193699D01*
X193113Y336315D01*
X192421Y336452D01*
X191730Y336315D01*
X191144Y335923D01*
X190746D01*
X190160Y336315D01*
X189469Y336452D01*
X188777Y336315D01*
X188332Y336017D01*
X187992Y335958D01*
X187653Y336017D01*
X187207Y336315D01*
X186516Y336452D01*
X185825Y336315D01*
X185239Y335923D01*
X184899Y335416D01*
X184828Y335359D01*
X184718Y335311D01*
X184316Y335229D01*
X183860Y335534D01*
X183714Y335595D01*
X183582Y335682D01*
X182866Y335979D01*
X182740Y336004D01*
X182685Y336087D01*
X182567Y336430D01*
X182568Y336580D01*
X183102Y337276D01*
X183560Y338381D01*
X183652Y339075D01*
X179134D01*
X174616D01*
X174707Y338381D01*
X175165Y337276D01*
X175566Y336753D01*
X175320Y336253D01*
X162995D01*
X162748Y336753D01*
X163232Y337383D01*
X163668Y338436D01*
X163817Y339567D01*
X163668Y340698D01*
X163232Y341751D01*
X162538Y342656D01*
X161633Y343350D01*
X160579Y343786D01*
X159449Y343935D01*
D02*
G37*
G36*
X14272Y343521D02*
Y331201D01*
X26591D01*
X26472Y332719D01*
X26001Y334680D01*
X25229Y336543D01*
X24176Y338262D01*
X22866Y339795D01*
X21333Y341105D01*
X19614Y342159D01*
X17751Y342930D01*
X15790Y343401D01*
X14272Y343521D01*
D02*
G37*
G36*
X244094Y323353D02*
X243173Y323170D01*
X242391Y322648D01*
X241869Y321867D01*
X241686Y320945D01*
X241857Y320087D01*
X241788Y319871D01*
X241636Y319586D01*
X239092D01*
X238908Y319863D01*
X238126Y320385D01*
X237205Y320568D01*
X236283Y320385D01*
X235502Y319863D01*
X234980Y319082D01*
X234796Y318160D01*
X234980Y317238D01*
X235502Y316457D01*
X236283Y315935D01*
X237205Y315751D01*
X238126Y315935D01*
X238908Y316457D01*
X238987Y316576D01*
X292087D01*
X293898Y314765D01*
X293851Y314532D01*
X294035Y313610D01*
X294557Y312829D01*
X295338Y312307D01*
X296260Y312123D01*
X297182Y312307D01*
X297963Y312829D01*
X298485Y313610D01*
X298668Y314532D01*
X298485Y315454D01*
X297963Y316235D01*
X297182Y316757D01*
X296260Y316940D01*
X296027Y316894D01*
X294060Y318861D01*
X294267Y319361D01*
X298362D01*
X298494Y319163D01*
X299275Y318641D01*
X300197Y318458D01*
X301118Y318641D01*
X301900Y319163D01*
X302422Y319945D01*
X302605Y320866D01*
X302422Y321788D01*
X301900Y322569D01*
X301118Y323091D01*
X300197Y323275D01*
X299275Y323091D01*
X298494Y322569D01*
X298362Y322371D01*
X245982D01*
X245797Y322648D01*
X245016Y323170D01*
X244094Y323353D01*
D02*
G37*
G36*
X379429Y330217D02*
X367109D01*
X367229Y328698D01*
X367700Y326738D01*
X368471Y324875D01*
X369525Y323155D01*
X370834Y321622D01*
X372368Y320312D01*
X374087Y319259D01*
X375950Y318487D01*
X377911Y318016D01*
X379429Y317897D01*
Y330217D01*
D02*
G37*
G36*
X26591D02*
X14272D01*
Y317897D01*
X15790Y318016D01*
X17751Y318487D01*
X19614Y319259D01*
X21333Y320312D01*
X22866Y321622D01*
X24176Y323155D01*
X25229Y324875D01*
X26001Y326738D01*
X26472Y328698D01*
X26591Y330217D01*
D02*
G37*
G36*
X98550Y322756D02*
X91017D01*
X90095Y322573D01*
X89314Y322051D01*
X84632Y317369D01*
X48242D01*
X44616Y320994D01*
X43835Y321516D01*
X42913Y321700D01*
X41992Y321516D01*
X41210Y320994D01*
X40688Y320213D01*
X40505Y319291D01*
X40688Y318370D01*
X41210Y317588D01*
X42644Y316155D01*
X37622Y311134D01*
X37100Y310352D01*
X36917Y309431D01*
Y297289D01*
X37100Y296367D01*
X37622Y295586D01*
X39606Y293602D01*
X37693Y291690D01*
X37171Y290909D01*
X36988Y289987D01*
Y267690D01*
X37171Y266769D01*
X37693Y265987D01*
X41210Y262470D01*
X41992Y261948D01*
X42913Y261765D01*
X43835Y261948D01*
X44616Y262470D01*
X45138Y263251D01*
X45322Y264173D01*
X45138Y265095D01*
X44616Y265876D01*
X41805Y268688D01*
Y288989D01*
X44715Y291899D01*
X45237Y292681D01*
X45420Y293602D01*
X45237Y294524D01*
X44715Y295305D01*
X41734Y298286D01*
Y308433D01*
X46151Y312850D01*
X46322Y312736D01*
X47244Y312552D01*
X85630D01*
X86552Y312736D01*
X87333Y313258D01*
X92014Y317939D01*
X97552D01*
X118851Y296640D01*
Y269488D01*
X119035Y268566D01*
X119557Y267785D01*
X123622Y263720D01*
Y260433D01*
X130315D01*
Y267126D01*
X127028D01*
X126538Y267616D01*
X126771Y268090D01*
X126969Y268064D01*
X127898Y268186D01*
X128763Y268545D01*
X129507Y269115D01*
X130077Y269859D01*
X130436Y270724D01*
X130493Y271161D01*
X126969D01*
Y271654D01*
X126476D01*
Y275179D01*
X126039Y275121D01*
X125174Y274762D01*
X124430Y274192D01*
X124168Y273851D01*
X123668Y274020D01*
Y297638D01*
X123485Y298559D01*
X122963Y299341D01*
X100253Y322051D01*
X99472Y322573D01*
X98550Y322756D01*
D02*
G37*
G36*
X16240Y314591D02*
Y311161D01*
X19670D01*
X19599Y311701D01*
X19201Y312663D01*
X18567Y313488D01*
X17741Y314122D01*
X16780Y314520D01*
X16240Y314591D01*
D02*
G37*
G36*
X15256D02*
X14716Y314520D01*
X13755Y314122D01*
X12929Y313488D01*
X12295Y312663D01*
X11897Y311701D01*
X11826Y311161D01*
X15256D01*
Y314591D01*
D02*
G37*
G36*
X374213Y315385D02*
X361614D01*
X360379Y315263D01*
X359192Y314903D01*
X358097Y314318D01*
X357138Y313531D01*
X356351Y312572D01*
X355766Y311477D01*
X355761Y311459D01*
X355667Y311440D01*
X355407Y311266D01*
X353014Y308874D01*
X331693Y308874D01*
X329073D01*
X325371Y312576D01*
X325110Y312750D01*
X324803Y312811D01*
X303150D01*
X303150Y312811D01*
X302842Y312750D01*
X302582Y312576D01*
X302582Y312576D01*
X286110Y296104D01*
X276075D01*
X275882Y296078D01*
X272638D01*
X272638Y296078D01*
X272331Y296017D01*
X272070Y295843D01*
X272070Y295843D01*
X271086Y294859D01*
X271086Y294859D01*
X270988Y294712D01*
X270488Y294835D01*
Y295275D01*
X270488Y295276D01*
X270488Y295276D01*
Y299213D01*
X270488Y299213D01*
X270427Y299520D01*
X270253Y299780D01*
X270253Y299780D01*
X268284Y301749D01*
X268284Y301749D01*
X268024Y301923D01*
X267717Y301984D01*
X255854Y301984D01*
X255854Y301984D01*
X255546Y301923D01*
X255286Y301749D01*
X251401Y297864D01*
X251227Y297603D01*
X251166Y297296D01*
X251166Y289703D01*
X247699Y286236D01*
X240106Y286236D01*
X239798Y286175D01*
X239538Y286001D01*
X239538Y286001D01*
X218795Y265258D01*
X218267Y265437D01*
X218226Y265744D01*
X217848Y266658D01*
X217246Y267442D01*
X216461Y268044D01*
X215547Y268423D01*
X215059Y268487D01*
Y264764D01*
X214567D01*
Y264272D01*
X210843D01*
X210908Y263783D01*
X211286Y262870D01*
X211888Y262085D01*
X212317Y261756D01*
X212148Y261256D01*
X185827D01*
X185567Y261230D01*
X184556Y261330D01*
X183335Y261700D01*
X182209Y262302D01*
X182051Y262432D01*
X181947Y262487D01*
X181849Y262553D01*
X181810Y262561D01*
X181775Y262579D01*
X181657Y262591D01*
X181542Y262614D01*
X179134D01*
X179134Y262614D01*
X178827Y262553D01*
X178566Y262379D01*
X174629Y258442D01*
X174455Y258181D01*
X174394Y257874D01*
Y250000D01*
X174455Y249693D01*
X174629Y249432D01*
X174629Y249432D01*
X177898Y246164D01*
X177707Y245702D01*
X171299D01*
X170878Y245722D01*
X170014Y245894D01*
X169237Y246216D01*
X168538Y246683D01*
X167943Y247278D01*
X167476Y247977D01*
X167154Y248755D01*
X166982Y249618D01*
X166962Y250040D01*
Y273622D01*
Y274141D01*
X166920Y274346D01*
X166907Y274556D01*
X166638Y275558D01*
X166545Y275746D01*
X166478Y275945D01*
X165959Y276843D01*
X165821Y277001D01*
X165704Y277176D01*
X164971Y277909D01*
X164796Y278026D01*
X164638Y278164D01*
X164322Y278347D01*
X164400Y278879D01*
X165388Y279117D01*
X167251Y279889D01*
X168971Y280942D01*
X170504Y282252D01*
X171814Y283785D01*
X172867Y285505D01*
X173639Y287368D01*
X174110Y289328D01*
X174229Y290846D01*
X148605D01*
X148725Y289328D01*
X149196Y287368D01*
X149967Y285505D01*
X151021Y283785D01*
X152331Y282252D01*
X153864Y280942D01*
X155583Y279889D01*
X157446Y279117D01*
X158435Y278879D01*
X158512Y278347D01*
X158196Y278164D01*
X158038Y278026D01*
X157864Y277909D01*
X157130Y277176D01*
X157014Y277001D01*
X156875Y276843D01*
X156357Y275945D01*
X156289Y275746D01*
X156196Y275558D01*
X155928Y274556D01*
X155914Y274346D01*
X155873Y274141D01*
Y273622D01*
Y251448D01*
X155373Y251349D01*
X155106Y251993D01*
X154473Y252819D01*
X153647Y253453D01*
X152685Y253851D01*
X152146Y253922D01*
Y250000D01*
X151654D01*
Y249508D01*
X147731D01*
X147802Y248968D01*
X148201Y248007D01*
X148834Y247181D01*
X149660Y246547D01*
X150495Y246202D01*
X150395Y245702D01*
X141214D01*
X141008Y245661D01*
X140798Y245647D01*
X139796Y245378D01*
X139608Y245286D01*
X139409Y245218D01*
X138511Y244700D01*
X138353Y244561D01*
X138179Y244444D01*
X137445Y243711D01*
X137329Y243536D01*
X137190Y243379D01*
X136672Y242480D01*
X136604Y242282D01*
X136511Y242093D01*
X136243Y241092D01*
X136229Y240882D01*
X136188Y240676D01*
Y239639D01*
X136229Y239433D01*
X136243Y239223D01*
X136511Y238222D01*
X136604Y238033D01*
X136672Y237835D01*
X137190Y236936D01*
X137329Y236778D01*
X137445Y236604D01*
X138179Y235871D01*
X138353Y235754D01*
X138511Y235615D01*
X139409Y235097D01*
X139608Y235029D01*
X139796Y234936D01*
X140798Y234668D01*
X141008Y234654D01*
X141214Y234613D01*
X181490D01*
X181645Y234644D01*
X181804D01*
X182564Y234795D01*
X182711Y234856D01*
X182866Y234887D01*
X183582Y235184D01*
X183714Y235272D01*
X183860Y235332D01*
X184505Y235763D01*
X184617Y235875D01*
X184748Y235963D01*
X185297Y236511D01*
X185385Y236643D01*
X185497Y236755D01*
X185928Y237400D01*
X185988Y237546D01*
X186076Y237677D01*
X186373Y238394D01*
X186404Y238549D01*
X186464Y238695D01*
X186616Y239456D01*
Y239615D01*
X186646Y239770D01*
Y240545D01*
X186616Y240701D01*
Y240859D01*
X186464Y241619D01*
X186404Y241766D01*
X186373Y241921D01*
X186076Y242637D01*
X185988Y242769D01*
X185928Y242915D01*
X185497Y243560D01*
X185385Y243672D01*
X185297Y243804D01*
X184748Y244352D01*
X184617Y244440D01*
X184505Y244552D01*
X184193Y244760D01*
X184345Y245260D01*
X203443D01*
X203577Y244760D01*
X203472Y244700D01*
X203314Y244561D01*
X203139Y244444D01*
X202406Y243711D01*
X202289Y243536D01*
X202151Y243379D01*
X201632Y242480D01*
X201565Y242282D01*
X201472Y242093D01*
X201203Y241092D01*
X201190Y240882D01*
X201149Y240676D01*
Y239639D01*
X201190Y239433D01*
X201203Y239223D01*
X201472Y238222D01*
X201565Y238033D01*
X201632Y237835D01*
X202151Y236936D01*
X202289Y236778D01*
X202406Y236604D01*
X203139Y235871D01*
X203314Y235754D01*
X203472Y235615D01*
X204370Y235097D01*
X204569Y235029D01*
X204757Y234936D01*
X205759Y234668D01*
X205968Y234654D01*
X206174Y234613D01*
X277947D01*
X278102Y234644D01*
X278260D01*
X279021Y234795D01*
X279167Y234856D01*
X279322Y234887D01*
X279895Y235124D01*
X280274Y234944D01*
X280395Y234820D01*
Y231418D01*
X280024Y231082D01*
X279528Y231131D01*
X278370Y231017D01*
X277257Y230679D01*
X276231Y230131D01*
X275331Y229393D01*
X274594Y228494D01*
X274045Y227468D01*
X273708Y226355D01*
X273593Y225197D01*
X273708Y224039D01*
X274045Y222926D01*
X274594Y221900D01*
X275331Y221001D01*
X276231Y220263D01*
X277257Y219714D01*
X278370Y219377D01*
X279528Y219263D01*
X280024Y219312D01*
X280395Y218976D01*
Y216535D01*
X280456Y216228D01*
X280630Y215968D01*
X280630Y215968D01*
X347559Y149039D01*
X347820Y148865D01*
X348127Y148803D01*
X372047D01*
X372355Y148865D01*
X372615Y149039D01*
X378796Y155220D01*
X379386Y155103D01*
X379593Y154602D01*
X380195Y153817D01*
X380980Y153215D01*
X381893Y152837D01*
X382382Y152772D01*
Y156496D01*
X382874D01*
Y156988D01*
X386597D01*
X386533Y157476D01*
X386155Y158390D01*
X385553Y159175D01*
X384768Y159777D01*
X384268Y159984D01*
X384150Y160574D01*
X386395Y162818D01*
X386568Y163079D01*
X386630Y163386D01*
Y200787D01*
X386568Y201095D01*
X386395Y201355D01*
X386394Y201355D01*
X382457Y205292D01*
X382197Y205466D01*
X381890Y205527D01*
X340829D01*
X340766Y206018D01*
X341920Y206367D01*
X342982Y206936D01*
X343914Y207700D01*
X344679Y208632D01*
X345247Y209695D01*
X345597Y210848D01*
X345666Y211555D01*
X339567D01*
X333468D01*
X333537Y210848D01*
X333887Y209695D01*
X334455Y208632D01*
X335220Y207700D01*
X336152Y206936D01*
X337214Y206367D01*
X338368Y206018D01*
X338305Y205527D01*
X331041D01*
X317747Y218821D01*
X318012Y219263D01*
X318328Y219167D01*
X319035Y219098D01*
Y224705D01*
X313428D01*
X313498Y223997D01*
X313594Y223682D01*
X313152Y223417D01*
X310125Y226444D01*
Y234911D01*
X310558Y235161D01*
X310669Y235097D01*
X310868Y235029D01*
X311056Y234936D01*
X312058Y234668D01*
X312268Y234654D01*
X312474Y234613D01*
X360624D01*
X360779Y234644D01*
X360937D01*
X361698Y234795D01*
X361844Y234856D01*
X362000Y234887D01*
X362716Y235184D01*
X362848Y235272D01*
X362994Y235332D01*
X363639Y235763D01*
X363751Y235875D01*
X363882Y235963D01*
X364431Y236511D01*
X364519Y236643D01*
X364631Y236755D01*
X365061Y237400D01*
X365122Y237546D01*
X365210Y237677D01*
X365507Y238394D01*
X365538Y238549D01*
X365598Y238695D01*
X365750Y239456D01*
Y239615D01*
X365780Y239770D01*
Y240545D01*
X365750Y240701D01*
Y240859D01*
X365598Y241619D01*
X365538Y241766D01*
X365507Y241921D01*
X365210Y242637D01*
X365122Y242769D01*
X365061Y242915D01*
X364631Y243560D01*
X364519Y243672D01*
X364431Y243804D01*
X363882Y244352D01*
X363751Y244440D01*
X363639Y244552D01*
X362994Y244983D01*
X362848Y245043D01*
X362716Y245131D01*
X362000Y245428D01*
X361844Y245459D01*
X361698Y245519D01*
X360937Y245671D01*
X360779D01*
X360624Y245702D01*
X312474D01*
X312268Y245661D01*
X312058Y245647D01*
X311056Y245378D01*
X310868Y245286D01*
X310669Y245218D01*
X309867Y244755D01*
X309508Y244829D01*
X309286Y244939D01*
X309161Y245126D01*
X302756Y251531D01*
Y266040D01*
X302740Y266118D01*
Y266197D01*
X302710Y266270D01*
X302695Y266348D01*
X302651Y266413D01*
X302620Y266487D01*
X302468Y266714D01*
X302347Y267323D01*
X302468Y267931D01*
X302813Y268447D01*
X303453Y268875D01*
X303509Y268931D01*
X303575Y268975D01*
X304466Y269866D01*
X319882Y269866D01*
X319882Y269866D01*
X320189Y269928D01*
X320449Y270102D01*
X320450Y270102D01*
X325371Y275023D01*
X325545Y275283D01*
X325606Y275590D01*
Y278273D01*
X326106Y278425D01*
X326244Y278218D01*
X327026Y277696D01*
X327947Y277513D01*
X328869Y277696D01*
X329650Y278218D01*
X330172Y279000D01*
X330356Y279921D01*
X330172Y280843D01*
X329650Y281624D01*
X328869Y282146D01*
X327947Y282330D01*
X327026Y282146D01*
X326244Y281624D01*
X326106Y281417D01*
X325606Y281569D01*
Y286865D01*
X326106Y287074D01*
X326736Y286653D01*
X327658Y286470D01*
X328579Y286653D01*
X329361Y287175D01*
X329883Y287956D01*
X330066Y288878D01*
X330009Y289165D01*
X330326Y289551D01*
X333662D01*
X333979Y289165D01*
X333925Y288893D01*
X334108Y287971D01*
X334630Y287190D01*
X335412Y286668D01*
X336333Y286485D01*
X337255Y286668D01*
X338036Y287190D01*
X338559Y287971D01*
X338742Y288893D01*
X338688Y289165D01*
X339005Y289551D01*
X358870D01*
X358936Y289564D01*
X359192Y289428D01*
X360379Y289068D01*
X361614Y288946D01*
X374213D01*
X375447Y289068D01*
X376635Y289428D01*
X377729Y290013D01*
X378688Y290800D01*
X379475Y291759D01*
X380060Y292853D01*
X380421Y294041D01*
X380542Y295276D01*
X380421Y296510D01*
X380060Y297698D01*
X379475Y298792D01*
X378688Y299751D01*
X377729Y300538D01*
X376635Y301123D01*
X375447Y301484D01*
X374213Y301605D01*
X362657D01*
X362436Y302100D01*
X362632Y302347D01*
X374878D01*
X374926Y302356D01*
X374975Y302353D01*
X375079Y302387D01*
X375186Y302408D01*
X375226Y302435D01*
X375273Y302450D01*
X375356Y302521D01*
X375446Y302582D01*
X375473Y302623D01*
X375510Y302655D01*
X375689Y302882D01*
X375711Y302927D01*
X376635Y303207D01*
X377729Y303792D01*
X378688Y304579D01*
X379475Y305539D01*
X380060Y306633D01*
X380421Y307820D01*
X380542Y309055D01*
X380421Y310290D01*
X380060Y311477D01*
X379475Y312572D01*
X378688Y313531D01*
X377729Y314318D01*
X376635Y314903D01*
X375447Y315263D01*
X374213Y315385D01*
D02*
G37*
G36*
X25748Y314442D02*
X24772Y314313D01*
X23862Y313936D01*
X23080Y313337D01*
X22481Y312556D01*
X22104Y311646D01*
X21976Y310669D01*
X22104Y309693D01*
X22481Y308783D01*
X23080Y308002D01*
X23862Y307402D01*
X24772Y307025D01*
X25748Y306897D01*
X26724Y307025D01*
X27634Y307402D01*
X28416Y308002D01*
X29015Y308783D01*
X29392Y309693D01*
X29520Y310669D01*
X29392Y311646D01*
X29015Y312556D01*
X28416Y313337D01*
X27634Y313936D01*
X26724Y314313D01*
X25748Y314442D01*
D02*
G37*
G36*
X19670Y310177D02*
X16240D01*
Y306747D01*
X16780Y306818D01*
X17741Y307217D01*
X18567Y307850D01*
X19201Y308676D01*
X19599Y309637D01*
X19670Y310177D01*
D02*
G37*
G36*
X15256D02*
X11826D01*
X11897Y309637D01*
X12295Y308676D01*
X12929Y307850D01*
X13755Y307217D01*
X14716Y306818D01*
X15256Y306747D01*
Y310177D01*
D02*
G37*
G36*
X16240Y304591D02*
Y301161D01*
X19670D01*
X19599Y301701D01*
X19201Y302663D01*
X18567Y303488D01*
X17741Y304122D01*
X16780Y304520D01*
X16240Y304591D01*
D02*
G37*
G36*
X15256D02*
X14716Y304520D01*
X13755Y304122D01*
X12929Y303488D01*
X12295Y302663D01*
X11897Y301701D01*
X11826Y301161D01*
X15256D01*
Y304591D01*
D02*
G37*
G36*
X25748Y304442D02*
X24772Y304313D01*
X23862Y303936D01*
X23080Y303337D01*
X22481Y302555D01*
X22104Y301646D01*
X21976Y300669D01*
X22104Y299693D01*
X22481Y298783D01*
X23080Y298002D01*
X23862Y297402D01*
X24772Y297025D01*
X25748Y296897D01*
X26724Y297025D01*
X27634Y297402D01*
X28416Y298002D01*
X29015Y298783D01*
X29392Y299693D01*
X29520Y300669D01*
X29392Y301646D01*
X29015Y302555D01*
X28416Y303337D01*
X27634Y303936D01*
X26724Y304313D01*
X25748Y304442D01*
D02*
G37*
G36*
X19670Y300177D02*
X16240D01*
Y296747D01*
X16780Y296818D01*
X17741Y297217D01*
X18567Y297850D01*
X19201Y298676D01*
X19599Y299637D01*
X19670Y300177D01*
D02*
G37*
G36*
X15256D02*
X11826D01*
X11897Y299637D01*
X12295Y298676D01*
X12929Y297850D01*
X13755Y297217D01*
X14716Y296818D01*
X15256Y296747D01*
Y300177D01*
D02*
G37*
G36*
X208661Y323747D02*
X207740Y323564D01*
X206958Y323042D01*
X206436Y322260D01*
X206253Y321339D01*
X206436Y320417D01*
X206958Y319636D01*
X207740Y319113D01*
X208479Y318966D01*
X210792Y316653D01*
Y296824D01*
X210373Y296197D01*
X210190Y295276D01*
X210373Y294354D01*
X210895Y293572D01*
X211677Y293050D01*
X212598Y292867D01*
X213520Y293050D01*
X214301Y293572D01*
X214824Y294354D01*
X215007Y295276D01*
X214824Y296197D01*
X214405Y296824D01*
Y317402D01*
X214267Y318093D01*
X213876Y318679D01*
X211034Y321521D01*
X210887Y322260D01*
X210365Y323042D01*
X209583Y323564D01*
X208661Y323747D01*
D02*
G37*
G36*
X16240Y293883D02*
Y290453D01*
X19670D01*
X19599Y290992D01*
X19201Y291954D01*
X18567Y292780D01*
X17741Y293413D01*
X16780Y293812D01*
X16240Y293883D01*
D02*
G37*
G36*
X15256D02*
X14716Y293812D01*
X13755Y293413D01*
X12929Y292780D01*
X12295Y291954D01*
X11897Y290992D01*
X11826Y290453D01*
X15256D01*
Y293883D01*
D02*
G37*
G36*
X25748Y293733D02*
X24772Y293604D01*
X23862Y293228D01*
X23080Y292628D01*
X22481Y291847D01*
X22104Y290937D01*
X21976Y289961D01*
X22104Y288984D01*
X22481Y288074D01*
X23080Y287293D01*
X23862Y286694D01*
X24772Y286317D01*
X25748Y286188D01*
X26724Y286317D01*
X27634Y286694D01*
X28416Y287293D01*
X29015Y288074D01*
X29392Y288984D01*
X29520Y289961D01*
X29392Y290937D01*
X29015Y291847D01*
X28416Y292628D01*
X27634Y293228D01*
X26724Y293604D01*
X25748Y293733D01*
D02*
G37*
G36*
X19670Y289469D02*
X16240D01*
Y286039D01*
X16780Y286110D01*
X17741Y286508D01*
X18567Y287141D01*
X19201Y287967D01*
X19599Y288929D01*
X19670Y289469D01*
D02*
G37*
G36*
X15256D02*
X11826D01*
X11897Y288929D01*
X12295Y287967D01*
X12929Y287141D01*
X13755Y286508D01*
X14716Y286110D01*
X15256Y286039D01*
Y289469D01*
D02*
G37*
G36*
X361385Y287417D02*
X360463Y287234D01*
X359682Y286712D01*
X359550Y286514D01*
X359255D01*
X358678Y286399D01*
X358190Y286073D01*
X352282Y280165D01*
X351956Y279677D01*
X351841Y279101D01*
Y259709D01*
X351643Y259577D01*
X351121Y258796D01*
X350938Y257874D01*
X351121Y256952D01*
X351643Y256171D01*
X352425Y255649D01*
X353346Y255466D01*
X354268Y255649D01*
X355049Y256171D01*
X355572Y256952D01*
X355755Y257874D01*
X355572Y258796D01*
X355049Y259577D01*
X354852Y259709D01*
Y278477D01*
X359680Y283306D01*
X359682Y283306D01*
X360463Y282784D01*
X361385Y282600D01*
X362307Y282784D01*
X363088Y283306D01*
X363610Y284087D01*
X363793Y285009D01*
X363610Y285930D01*
X363088Y286712D01*
X362307Y287234D01*
X361385Y287417D01*
D02*
G37*
G36*
X16240Y283883D02*
Y280453D01*
X19670D01*
X19599Y280993D01*
X19201Y281954D01*
X18567Y282780D01*
X17741Y283413D01*
X16780Y283812D01*
X16240Y283883D01*
D02*
G37*
G36*
X15256D02*
X14716Y283812D01*
X13755Y283413D01*
X12929Y282780D01*
X12295Y281954D01*
X11897Y280993D01*
X11826Y280453D01*
X15256D01*
Y283883D01*
D02*
G37*
G36*
X335236Y282428D02*
X334314Y282245D01*
X333533Y281723D01*
X333011Y280941D01*
X332828Y280020D01*
X333011Y279098D01*
X333533Y278317D01*
X334314Y277795D01*
X335236Y277611D01*
X336158Y277795D01*
X336939Y278317D01*
X337461Y279098D01*
X337645Y280020D01*
X337461Y280941D01*
X336939Y281723D01*
X336158Y282245D01*
X335236Y282428D01*
D02*
G37*
G36*
X25748Y283733D02*
X24772Y283605D01*
X23862Y283228D01*
X23080Y282628D01*
X22481Y281847D01*
X22104Y280937D01*
X21976Y279961D01*
X22104Y278984D01*
X22481Y278074D01*
X23080Y277293D01*
X23862Y276694D01*
X24772Y276317D01*
X25748Y276188D01*
X26724Y276317D01*
X27634Y276694D01*
X28416Y277293D01*
X29015Y278074D01*
X29392Y278984D01*
X29520Y279961D01*
X29392Y280937D01*
X29015Y281847D01*
X28416Y282628D01*
X27634Y283228D01*
X26724Y283605D01*
X25748Y283733D01*
D02*
G37*
G36*
X19670Y279468D02*
X16240D01*
Y276039D01*
X16780Y276110D01*
X17741Y276508D01*
X18567Y277141D01*
X19201Y277967D01*
X19599Y278929D01*
X19670Y279468D01*
D02*
G37*
G36*
X15256D02*
X11826D01*
X11897Y278929D01*
X12295Y277967D01*
X12929Y277141D01*
X13755Y276508D01*
X14716Y276110D01*
X15256Y276039D01*
Y279468D01*
D02*
G37*
G36*
X148130Y275179D02*
Y272146D01*
X151163D01*
X151105Y272583D01*
X150747Y273448D01*
X150176Y274192D01*
X149433Y274762D01*
X148567Y275121D01*
X148130Y275179D01*
D02*
G37*
G36*
X127461D02*
Y272146D01*
X130493D01*
X130436Y272583D01*
X130077Y273448D01*
X129507Y274192D01*
X128763Y274762D01*
X127898Y275121D01*
X127461Y275179D01*
D02*
G37*
G36*
X147146D02*
X146709Y275121D01*
X145843Y274762D01*
X145099Y274192D01*
X144529Y273448D01*
X144170Y272583D01*
X144113Y272146D01*
X147146D01*
Y275179D01*
D02*
G37*
G36*
X106791D02*
Y272146D01*
X109824D01*
X109767Y272583D01*
X109408Y273448D01*
X108838Y274192D01*
X108094Y274762D01*
X107228Y275121D01*
X106791Y275179D01*
D02*
G37*
G36*
X105807D02*
X105370Y275121D01*
X104504Y274762D01*
X103761Y274192D01*
X103190Y273448D01*
X102832Y272583D01*
X102774Y272146D01*
X105807D01*
Y275179D01*
D02*
G37*
G36*
X377106Y280552D02*
X371319D01*
X370528Y280394D01*
X369857Y279946D01*
X369409Y279275D01*
X369252Y278484D01*
Y272697D01*
X369409Y271906D01*
X369857Y271235D01*
X370528Y270787D01*
X371319Y270630D01*
X377106D01*
X377897Y270787D01*
X378568Y271235D01*
X379016Y271906D01*
X379173Y272697D01*
Y278484D01*
X379016Y279275D01*
X378568Y279946D01*
X377897Y280394D01*
X377106Y280552D01*
D02*
G37*
G36*
X364508D02*
X358720D01*
X357929Y280394D01*
X357258Y279946D01*
X356810Y279275D01*
X356653Y278484D01*
Y272697D01*
X356810Y271906D01*
X357258Y271235D01*
X357929Y270787D01*
X358720Y270630D01*
X364508D01*
X365299Y270787D01*
X365969Y271235D01*
X366418Y271906D01*
X366575Y272697D01*
Y278484D01*
X366418Y279275D01*
X365969Y279946D01*
X365299Y280394D01*
X364508Y280552D01*
D02*
G37*
G36*
X16240Y273883D02*
Y270453D01*
X19670D01*
X19599Y270992D01*
X19201Y271954D01*
X18567Y272780D01*
X17741Y273413D01*
X16780Y273812D01*
X16240Y273883D01*
D02*
G37*
G36*
X15256D02*
X14716Y273812D01*
X13755Y273413D01*
X12929Y272780D01*
X12295Y271954D01*
X11897Y270992D01*
X11826Y270453D01*
X15256D01*
Y273883D01*
D02*
G37*
G36*
X198918Y272830D02*
Y268209D01*
X203539D01*
X203427Y269057D01*
X202910Y270306D01*
X202087Y271378D01*
X201014Y272201D01*
X199766Y272718D01*
X198918Y272830D01*
D02*
G37*
G36*
X197933D02*
X197085Y272718D01*
X195836Y272201D01*
X194764Y271378D01*
X193941Y270306D01*
X193424Y269057D01*
X193312Y268209D01*
X197933D01*
Y272830D01*
D02*
G37*
G36*
X186319D02*
Y268209D01*
X190940D01*
X190829Y269057D01*
X190311Y270306D01*
X189488Y271378D01*
X188416Y272201D01*
X187167Y272718D01*
X186319Y272830D01*
D02*
G37*
G36*
X185335D02*
X184487Y272718D01*
X183238Y272201D01*
X182165Y271378D01*
X181342Y270306D01*
X180825Y269057D01*
X180713Y268209D01*
X185335D01*
Y272830D01*
D02*
G37*
G36*
X105807Y271161D02*
X102774D01*
X102832Y270724D01*
X103190Y269859D01*
X103761Y269115D01*
X104504Y268545D01*
X105370Y268186D01*
X105807Y268129D01*
Y271161D01*
D02*
G37*
G36*
X147146Y271161D02*
X144113D01*
X144170Y270724D01*
X144529Y269859D01*
X145099Y269115D01*
X145843Y268545D01*
X146709Y268186D01*
X147146Y268129D01*
Y271161D01*
D02*
G37*
G36*
X151163D02*
X148130D01*
Y268129D01*
X148567Y268186D01*
X149433Y268545D01*
X150176Y269115D01*
X150747Y269859D01*
X151105Y270724D01*
X151163Y271161D01*
D02*
G37*
G36*
X109824Y271161D02*
X106791D01*
Y268129D01*
X107228Y268186D01*
X108094Y268545D01*
X108838Y269115D01*
X109408Y269859D01*
X109767Y270724D01*
X109824Y271161D01*
D02*
G37*
G36*
X25748Y273733D02*
X24772Y273604D01*
X23862Y273228D01*
X23080Y272628D01*
X22481Y271847D01*
X22104Y270937D01*
X21976Y269961D01*
X22104Y268984D01*
X22481Y268074D01*
X23080Y267293D01*
X23862Y266694D01*
X24772Y266317D01*
X25748Y266188D01*
X26724Y266317D01*
X27634Y266694D01*
X28416Y267293D01*
X29015Y268074D01*
X29392Y268984D01*
X29520Y269961D01*
X29392Y270937D01*
X29015Y271847D01*
X28416Y272628D01*
X27634Y273228D01*
X26724Y273604D01*
X25748Y273733D01*
D02*
G37*
G36*
X19670Y269468D02*
X16240D01*
Y266038D01*
X16780Y266110D01*
X17741Y266508D01*
X18567Y267142D01*
X19201Y267967D01*
X19599Y268929D01*
X19670Y269468D01*
D02*
G37*
G36*
X15256D02*
X11826D01*
X11897Y268929D01*
X12295Y267967D01*
X12929Y267142D01*
X13755Y266508D01*
X14716Y266110D01*
X15256Y266038D01*
Y269468D01*
D02*
G37*
G36*
X214075Y268487D02*
X213586Y268423D01*
X212673Y268044D01*
X211888Y267442D01*
X211286Y266658D01*
X210908Y265744D01*
X210843Y265256D01*
X214075D01*
Y268487D01*
D02*
G37*
G36*
X197933Y267224D02*
X193312D01*
X193424Y266376D01*
X193941Y265127D01*
X194764Y264055D01*
X195836Y263232D01*
X197085Y262715D01*
X197933Y262603D01*
Y267224D01*
D02*
G37*
G36*
X190940Y267224D02*
X186319D01*
Y262603D01*
X187167Y262715D01*
X188416Y263232D01*
X189488Y264055D01*
X190311Y265127D01*
X190829Y266376D01*
X190940Y267224D01*
D02*
G37*
G36*
X185335D02*
X180713D01*
X180825Y266376D01*
X181342Y265127D01*
X182165Y264055D01*
X183238Y263232D01*
X184487Y262715D01*
X185335Y262603D01*
Y267224D01*
D02*
G37*
G36*
X203539Y267224D02*
X198918D01*
Y262603D01*
X199766Y262715D01*
X201014Y263232D01*
X202087Y264055D01*
X202910Y265127D01*
X203427Y266376D01*
X203539Y267224D01*
D02*
G37*
G36*
X93504Y315401D02*
X92582Y315217D01*
X91801Y314695D01*
X91279Y313914D01*
X91095Y312992D01*
X91279Y312070D01*
X91698Y311444D01*
Y286982D01*
X91279Y286355D01*
X91095Y285433D01*
X91279Y284511D01*
X91698Y283885D01*
Y259422D01*
X91279Y258796D01*
X91096Y257874D01*
X91279Y256952D01*
X91801Y256171D01*
X92582Y255649D01*
X93504Y255466D01*
X94426Y255649D01*
X95207Y256171D01*
X95729Y256952D01*
X95912Y257874D01*
X95729Y258796D01*
X95310Y259422D01*
Y283025D01*
X105302D01*
X111765Y276561D01*
Y264055D01*
X111948Y263133D01*
X112470Y262352D01*
X119635Y255187D01*
X120417Y254665D01*
X121339Y254481D01*
X132874D01*
X133796Y254665D01*
X134577Y255187D01*
X140761Y261371D01*
X144291D01*
Y260433D01*
X150984D01*
Y267126D01*
X144291D01*
Y266188D01*
X139764D01*
X138842Y266005D01*
X138061Y265483D01*
X131876Y259298D01*
X122336D01*
X116582Y265053D01*
Y277559D01*
X116398Y278481D01*
X115876Y279262D01*
X108002Y287136D01*
X107221Y287658D01*
X106299Y287842D01*
X95310D01*
Y311444D01*
X95729Y312070D01*
X95912Y312992D01*
X95729Y313914D01*
X95207Y314695D01*
X94426Y315217D01*
X93504Y315401D01*
D02*
G37*
G36*
X16240Y263765D02*
Y260335D01*
X19670D01*
X19599Y260874D01*
X19201Y261836D01*
X18567Y262662D01*
X17741Y263295D01*
X16780Y263693D01*
X16240Y263765D01*
D02*
G37*
G36*
X15256D02*
X14716Y263693D01*
X13755Y263295D01*
X12929Y262662D01*
X12295Y261836D01*
X11897Y260874D01*
X11826Y260335D01*
X15256D01*
Y263765D01*
D02*
G37*
G36*
X374213Y266775D02*
X372928Y266606D01*
X371731Y266110D01*
X370703Y265321D01*
X369914Y264293D01*
X369418Y263096D01*
X369249Y261811D01*
X369418Y260526D01*
X369914Y259329D01*
X370703Y258301D01*
X371731Y257512D01*
X372928Y257016D01*
X374213Y256847D01*
X375497Y257016D01*
X376694Y257512D01*
X377722Y258301D01*
X378511Y259329D01*
X379007Y260526D01*
X379176Y261811D01*
X379007Y263096D01*
X378511Y264293D01*
X377722Y265321D01*
X376694Y266110D01*
X375497Y266606D01*
X374213Y266775D01*
D02*
G37*
G36*
X361614D02*
X360329Y266606D01*
X359132Y266110D01*
X358104Y265321D01*
X357315Y264293D01*
X356819Y263096D01*
X356650Y261811D01*
X356819Y260526D01*
X357315Y259329D01*
X358104Y258301D01*
X359132Y257512D01*
X360329Y257016D01*
X361614Y256847D01*
X362899Y257016D01*
X364096Y257512D01*
X365124Y258301D01*
X365913Y259329D01*
X366408Y260526D01*
X366578Y261811D01*
X366408Y263096D01*
X365913Y264293D01*
X365124Y265321D01*
X364096Y266110D01*
X362899Y266606D01*
X361614Y266775D01*
D02*
G37*
G36*
X25748Y263615D02*
X24772Y263486D01*
X23862Y263109D01*
X23080Y262510D01*
X22481Y261729D01*
X22104Y260819D01*
X21976Y259842D01*
X22104Y258866D01*
X22481Y257956D01*
X23080Y257175D01*
X23862Y256575D01*
X24772Y256199D01*
X25748Y256070D01*
X26724Y256199D01*
X27634Y256575D01*
X28416Y257175D01*
X29015Y257956D01*
X29392Y258866D01*
X29520Y259842D01*
X29392Y260819D01*
X29015Y261729D01*
X28416Y262510D01*
X27634Y263109D01*
X26724Y263486D01*
X25748Y263615D01*
D02*
G37*
G36*
X19670Y259350D02*
X16240D01*
Y255920D01*
X16780Y255992D01*
X17741Y256390D01*
X18567Y257023D01*
X19201Y257849D01*
X19599Y258811D01*
X19670Y259350D01*
D02*
G37*
G36*
X15256D02*
X11826D01*
X11897Y258811D01*
X12295Y257849D01*
X12929Y257023D01*
X13755Y256390D01*
X14716Y255992D01*
X15256Y255920D01*
Y259350D01*
D02*
G37*
G36*
X151161Y253922D02*
X150622Y253851D01*
X149660Y253453D01*
X148834Y252819D01*
X148201Y251993D01*
X147802Y251032D01*
X147731Y250492D01*
X151161D01*
Y253922D01*
D02*
G37*
G36*
X116713Y253922D02*
Y250492D01*
X120142D01*
X120071Y251032D01*
X119673Y251993D01*
X119040Y252819D01*
X118214Y253453D01*
X117252Y253851D01*
X116713Y253922D01*
D02*
G37*
G36*
X115728D02*
X115189Y253851D01*
X114227Y253453D01*
X113401Y252819D01*
X112768Y251993D01*
X112370Y251032D01*
X112298Y250492D01*
X115728D01*
Y253922D01*
D02*
G37*
G36*
X306232Y263227D02*
X305311Y263044D01*
X304529Y262522D01*
X304007Y261740D01*
X303824Y260819D01*
X304007Y259897D01*
X304529Y259116D01*
X305311Y258594D01*
X306232Y258410D01*
X306465Y258457D01*
X313831Y251091D01*
X314319Y250765D01*
X314895Y250650D01*
X339763D01*
X339895Y250452D01*
X340677Y249930D01*
X341598Y249747D01*
X342520Y249930D01*
X343302Y250452D01*
X343824Y251234D01*
X344007Y252155D01*
X343824Y253077D01*
X343302Y253859D01*
X342520Y254381D01*
X341598Y254564D01*
X340677Y254381D01*
X339895Y253859D01*
X339763Y253661D01*
X315519D01*
X308594Y260585D01*
X308641Y260819D01*
X308457Y261740D01*
X307935Y262522D01*
X307154Y263044D01*
X306232Y263227D01*
D02*
G37*
G36*
X47146Y309101D02*
X46224Y308918D01*
X45443Y308396D01*
X44921Y307615D01*
X44737Y306693D01*
X44921Y305771D01*
X45443Y304990D01*
X47788Y302644D01*
Y284364D01*
X45443Y282018D01*
X44921Y281237D01*
X44737Y280315D01*
X44921Y279393D01*
X45443Y278612D01*
X48674Y275380D01*
Y255624D01*
X45147Y252097D01*
X44625Y251315D01*
X44442Y250394D01*
X44625Y249472D01*
X45147Y248691D01*
X45929Y248169D01*
X46850Y247985D01*
X47772Y248169D01*
X48553Y248691D01*
X52088Y252225D01*
X86440D01*
X88399Y250266D01*
X89180Y249744D01*
X90102Y249561D01*
X97737D01*
X98659Y249744D01*
X99440Y250266D01*
X102097Y252923D01*
X102619Y253704D01*
X102802Y254626D01*
Y259995D01*
X102953Y260433D01*
X103891D01*
Y253721D01*
X103501Y253643D01*
X102947Y253273D01*
X102577Y252720D01*
X102448Y252067D01*
Y247933D01*
X102577Y247280D01*
X102947Y246727D01*
X103501Y246357D01*
X104154Y246227D01*
X108287D01*
X108940Y246357D01*
X109494Y246727D01*
X109864Y247280D01*
X109993Y247933D01*
Y252067D01*
X109864Y252720D01*
X109494Y253273D01*
X108940Y253643D01*
X108708Y253689D01*
Y260433D01*
X109646D01*
Y267126D01*
X102953D01*
Y266188D01*
X102165D01*
X101244Y266005D01*
X100462Y265483D01*
X98691Y263711D01*
X98169Y262930D01*
X97985Y262008D01*
Y255624D01*
X96739Y254378D01*
X91100D01*
X89141Y256337D01*
X88359Y256859D01*
X87437Y257042D01*
X53491D01*
Y276378D01*
X53308Y277300D01*
X52786Y278081D01*
X50552Y280315D01*
X51900Y281663D01*
X52422Y282445D01*
X52605Y283366D01*
Y303642D01*
X52422Y304563D01*
X51900Y305345D01*
X48849Y308396D01*
X48067Y308918D01*
X47146Y309101D01*
D02*
G37*
G36*
X143720Y253773D02*
X139587D01*
X138934Y253643D01*
X138380Y253273D01*
X138011Y252720D01*
X137881Y252067D01*
Y247933D01*
X138011Y247280D01*
X138380Y246727D01*
X138934Y246357D01*
X139587Y246227D01*
X143720D01*
X144373Y246357D01*
X144927Y246727D01*
X145297Y247280D01*
X145426Y247933D01*
Y252067D01*
X145297Y252720D01*
X144927Y253273D01*
X144373Y253643D01*
X143720Y253773D01*
D02*
G37*
G36*
X379429Y252969D02*
X377911Y252850D01*
X375950Y252379D01*
X374087Y251607D01*
X372368Y250554D01*
X370834Y249244D01*
X369525Y247711D01*
X368471Y245991D01*
X367700Y244128D01*
X367229Y242168D01*
X367109Y240650D01*
X379429D01*
Y252969D01*
D02*
G37*
G36*
X14272D02*
Y240650D01*
X26591D01*
X26472Y242168D01*
X26001Y244128D01*
X25229Y245991D01*
X24176Y247711D01*
X22866Y249244D01*
X21333Y250554D01*
X19614Y251607D01*
X17751Y252379D01*
X15790Y252850D01*
X14272Y252969D01*
D02*
G37*
G36*
X116220Y250000D02*
D01*
Y249508D01*
X112298D01*
X112370Y248968D01*
X112768Y248007D01*
X113401Y247181D01*
X114227Y246547D01*
X115061Y246202D01*
X114962Y245702D01*
X32946D01*
X32740Y245661D01*
X32531Y245647D01*
X31529Y245378D01*
X31340Y245286D01*
X31141Y245218D01*
X30243Y244700D01*
X30086Y244561D01*
X29911Y244444D01*
X29178Y243711D01*
X29061Y243536D01*
X28922Y243379D01*
X28404Y242480D01*
X28336Y242282D01*
X28243Y242093D01*
X27975Y241092D01*
X27961Y240882D01*
X27920Y240676D01*
Y239639D01*
X27961Y239433D01*
X27975Y239223D01*
X28243Y238222D01*
X28336Y238033D01*
X28404Y237835D01*
X28922Y236936D01*
X29061Y236778D01*
X29178Y236604D01*
X29911Y235871D01*
X30086Y235754D01*
X30243Y235615D01*
X31141Y235097D01*
X31340Y235029D01*
X31529Y234936D01*
X32531Y234668D01*
X32740Y234654D01*
X32946Y234613D01*
X52582D01*
X52615Y234113D01*
X52118Y234048D01*
X51156Y233650D01*
X50331Y233016D01*
X49697Y232190D01*
X49299Y231229D01*
X49227Y230689D01*
X53150D01*
X57072D01*
X57001Y231229D01*
X56602Y232190D01*
X55969Y233016D01*
X55143Y233650D01*
X54181Y234048D01*
X53684Y234113D01*
X53717Y234613D01*
X116530D01*
X116685Y234644D01*
X116843D01*
X117604Y234795D01*
X117750Y234856D01*
X117905Y234887D01*
X118622Y235184D01*
X118753Y235272D01*
X118899Y235332D01*
X119544Y235763D01*
X119656Y235875D01*
X119788Y235963D01*
X120336Y236511D01*
X120424Y236643D01*
X120536Y236755D01*
X120967Y237400D01*
X121028Y237546D01*
X121115Y237677D01*
X121412Y238394D01*
X121443Y238549D01*
X121504Y238695D01*
X121655Y239456D01*
Y239615D01*
X121686Y239770D01*
Y240545D01*
X121655Y240701D01*
Y240859D01*
X121504Y241619D01*
X121443Y241766D01*
X121412Y241921D01*
X121115Y242637D01*
X121028Y242769D01*
X120967Y242915D01*
X120536Y243560D01*
X120424Y243672D01*
X120336Y243804D01*
X119788Y244352D01*
X119656Y244440D01*
X119544Y244552D01*
X118899Y244983D01*
X118753Y245043D01*
X118622Y245131D01*
X117905Y245428D01*
X117750Y245459D01*
X117604Y245519D01*
X117085Y245623D01*
X117102Y246129D01*
X117252Y246149D01*
X118214Y246547D01*
X119040Y247181D01*
X119673Y248007D01*
X120071Y248968D01*
X120142Y249508D01*
X116220D01*
Y250000D01*
D02*
G37*
G36*
X379429Y239665D02*
X367109D01*
X367229Y238147D01*
X367700Y236186D01*
X368471Y234323D01*
X369525Y232604D01*
X370834Y231071D01*
X372368Y229761D01*
X374087Y228708D01*
X375950Y227936D01*
X377911Y227465D01*
X379429Y227346D01*
Y239665D01*
D02*
G37*
G36*
X320020Y231296D02*
Y225689D01*
X325627D01*
X325557Y226396D01*
X325207Y227550D01*
X324639Y228612D01*
X323875Y229544D01*
X322943Y230309D01*
X321880Y230877D01*
X320727Y231226D01*
X320020Y231296D01*
D02*
G37*
G36*
X319035D02*
X318328Y231226D01*
X317175Y230877D01*
X316112Y230309D01*
X315180Y229544D01*
X314416Y228612D01*
X313848Y227550D01*
X313498Y226396D01*
X313428Y225689D01*
X319035D01*
Y231296D01*
D02*
G37*
G36*
X198031Y233905D02*
X142715D01*
X141793Y233721D01*
X141012Y233199D01*
X136878Y229065D01*
X136355Y228284D01*
X136172Y227362D01*
X136355Y226441D01*
X136878Y225659D01*
X137659Y225137D01*
X138581Y224954D01*
X139502Y225137D01*
X140284Y225659D01*
X143712Y229088D01*
X156412D01*
X156658Y228588D01*
X156340Y228173D01*
X155981Y227307D01*
X155924Y226870D01*
X159449D01*
Y226378D01*
D01*
Y226870D01*
X162974D01*
X162916Y227307D01*
X162558Y228173D01*
X162239Y228588D01*
X162486Y229088D01*
X188892D01*
X189139Y228588D01*
X188820Y228173D01*
X188462Y227307D01*
X188404Y226870D01*
X191929D01*
X195454D01*
X195397Y227307D01*
X195038Y228173D01*
X194720Y228588D01*
X194966Y229088D01*
X197034D01*
X201447Y224675D01*
X202228Y224153D01*
X203150Y223970D01*
X204071Y224153D01*
X204853Y224675D01*
X205375Y225456D01*
X205558Y226378D01*
X205375Y227300D01*
X204853Y228081D01*
X204853Y228081D01*
X199734Y233199D01*
X198953Y233721D01*
X198031Y233905D01*
D02*
G37*
G36*
X195454Y225886D02*
X192421D01*
Y222853D01*
X192858Y222910D01*
X193724Y223269D01*
X194467Y223840D01*
X195038Y224583D01*
X195397Y225449D01*
X195454Y225886D01*
D02*
G37*
G36*
X191437D02*
X188404D01*
X188462Y225449D01*
X188820Y224583D01*
X189391Y223840D01*
X190134Y223269D01*
X191000Y222910D01*
X191437Y222853D01*
Y225886D01*
D02*
G37*
G36*
X162974Y225886D02*
X159941D01*
Y222853D01*
X160378Y222910D01*
X161244Y223269D01*
X161987Y223840D01*
X162558Y224583D01*
X162916Y225449D01*
X162974Y225886D01*
D02*
G37*
G36*
X158957D02*
X155924D01*
X155981Y225449D01*
X156340Y224583D01*
X156911Y223840D01*
X157654Y223269D01*
X158520Y222910D01*
X158957Y222853D01*
Y225886D01*
D02*
G37*
G36*
X133524Y226989D02*
Y220512D01*
X137066D01*
Y223020D01*
X136928Y224064D01*
X136525Y225037D01*
X135884Y225872D01*
X135049Y226514D01*
X134076Y226917D01*
X133524Y226989D01*
D02*
G37*
G36*
X325627Y224705D02*
X320020D01*
Y219098D01*
X320727Y219167D01*
X321880Y219517D01*
X322943Y220085D01*
X323875Y220850D01*
X324639Y221781D01*
X325207Y222844D01*
X325557Y223997D01*
X325627Y224705D01*
D02*
G37*
G36*
X378248Y218465D02*
Y213248D01*
X383465D01*
X383333Y214250D01*
X382756Y215643D01*
X381839Y216839D01*
X380643Y217756D01*
X379250Y218333D01*
X378248Y218465D01*
D02*
G37*
G36*
X377264D02*
X376262Y218333D01*
X374869Y217756D01*
X373673Y216839D01*
X372756Y215643D01*
X372179Y214250D01*
X372047Y213248D01*
X377264D01*
Y218465D01*
D02*
G37*
G36*
X340059Y218146D02*
Y212539D01*
X345666D01*
X345597Y213247D01*
X345247Y214400D01*
X344679Y215463D01*
X343914Y216394D01*
X342982Y217159D01*
X341920Y217727D01*
X340766Y218077D01*
X340059Y218146D01*
D02*
G37*
G36*
X339075D02*
X338368Y218077D01*
X337214Y217727D01*
X336152Y217159D01*
X335220Y216394D01*
X334455Y215463D01*
X333887Y214400D01*
X333537Y213247D01*
X333468Y212539D01*
X339075D01*
Y218146D01*
D02*
G37*
G36*
X383465Y212264D02*
X378248D01*
Y207047D01*
X379250Y207179D01*
X380643Y207756D01*
X381839Y208673D01*
X382756Y209869D01*
X383333Y211262D01*
X383465Y212264D01*
D02*
G37*
G36*
X377264D02*
X372047D01*
X372179Y211262D01*
X372756Y209869D01*
X373673Y208673D01*
X374869Y207756D01*
X376262Y207179D01*
X377264Y207047D01*
Y212264D01*
D02*
G37*
G36*
X53642Y201284D02*
Y197854D01*
X57072D01*
X57001Y198394D01*
X56602Y199356D01*
X55969Y200181D01*
X55143Y200815D01*
X54181Y201213D01*
X53642Y201284D01*
D02*
G37*
G36*
X52658D02*
X52118Y201213D01*
X51156Y200815D01*
X50331Y200181D01*
X49697Y199356D01*
X49299Y198394D01*
X49227Y197854D01*
X52658D01*
Y201284D01*
D02*
G37*
G36*
X32579Y200979D02*
Y196358D01*
X37200D01*
X37089Y197206D01*
X36571Y198455D01*
X35748Y199528D01*
X34676Y200351D01*
X33427Y200868D01*
X32579Y200979D01*
D02*
G37*
G36*
X19980D02*
Y196358D01*
X24602D01*
X24490Y197206D01*
X23973Y198455D01*
X23150Y199528D01*
X22077Y200351D01*
X20829Y200868D01*
X19980Y200979D01*
D02*
G37*
G36*
X31595D02*
X30747Y200868D01*
X29498Y200351D01*
X28425Y199528D01*
X27602Y198455D01*
X27085Y197206D01*
X26974Y196358D01*
X31595D01*
Y200979D01*
D02*
G37*
G36*
X18996D02*
X18148Y200868D01*
X16899Y200351D01*
X15827Y199528D01*
X15004Y198455D01*
X14487Y197206D01*
X14375Y196358D01*
X18996D01*
Y200979D01*
D02*
G37*
G36*
X75295Y196793D02*
Y193760D01*
X78328D01*
X78271Y194197D01*
X77912Y195063D01*
X77342Y195806D01*
X76598Y196377D01*
X75732Y196735D01*
X75295Y196793D01*
D02*
G37*
G36*
X74311D02*
X73874Y196735D01*
X73008Y196377D01*
X72265Y195806D01*
X71694Y195063D01*
X71336Y194197D01*
X71278Y193760D01*
X74311D01*
Y196793D01*
D02*
G37*
G36*
X107776D02*
Y193760D01*
X110808D01*
X110751Y194197D01*
X110392Y195063D01*
X109822Y195806D01*
X109078Y196377D01*
X108213Y196735D01*
X107776Y196793D01*
D02*
G37*
G36*
X106791D02*
X106354Y196735D01*
X105489Y196377D01*
X104745Y195806D01*
X104175Y195063D01*
X103816Y194197D01*
X103759Y193760D01*
X106791D01*
Y196793D01*
D02*
G37*
G36*
X174705Y198461D02*
Y192854D01*
X180312D01*
X180242Y193562D01*
X179892Y194715D01*
X179324Y195778D01*
X178560Y196709D01*
X177628Y197474D01*
X176565Y198042D01*
X175412Y198392D01*
X174705Y198461D01*
D02*
G37*
G36*
X173721D02*
X173013Y198392D01*
X171860Y198042D01*
X170797Y197474D01*
X169866Y196709D01*
X169101Y195778D01*
X168533Y194715D01*
X168183Y193562D01*
X168113Y192854D01*
X173721D01*
Y198461D01*
D02*
G37*
G36*
X37200Y195374D02*
X32579D01*
Y190753D01*
X33427Y190864D01*
X34676Y191382D01*
X35748Y192205D01*
X36571Y193277D01*
X37089Y194526D01*
X37200Y195374D01*
D02*
G37*
G36*
X24602D02*
X19980D01*
Y190753D01*
X20829Y190864D01*
X22077Y191382D01*
X23150Y192205D01*
X23973Y193277D01*
X24490Y194526D01*
X24602Y195374D01*
D02*
G37*
G36*
X18996D02*
X14375D01*
X14487Y194526D01*
X15004Y193277D01*
X15827Y192205D01*
X16899Y191382D01*
X18148Y190864D01*
X18996Y190753D01*
Y195374D01*
D02*
G37*
G36*
X31595D02*
X26974D01*
X27085Y194526D01*
X27602Y193277D01*
X28425Y192205D01*
X29498Y191382D01*
X30747Y190864D01*
X31595Y190753D01*
Y195374D01*
D02*
G37*
G36*
X106791Y192776D02*
X103759D01*
X103816Y192339D01*
X104175Y191473D01*
X104745Y190729D01*
X105489Y190159D01*
X106354Y189800D01*
X106791Y189743D01*
Y192776D01*
D02*
G37*
G36*
X78328Y192776D02*
X75295D01*
Y189743D01*
X75732Y189800D01*
X76598Y190159D01*
X77342Y190729D01*
X77912Y191473D01*
X78271Y192339D01*
X78328Y192776D01*
D02*
G37*
G36*
X74311D02*
X71278D01*
X71336Y192339D01*
X71694Y191473D01*
X72265Y190729D01*
X73008Y190159D01*
X73874Y189800D01*
X74311Y189743D01*
Y192776D01*
D02*
G37*
G36*
X110808Y192776D02*
X107776D01*
Y189743D01*
X108213Y189800D01*
X109078Y190159D01*
X109822Y190729D01*
X110392Y191473D01*
X110751Y192339D01*
X110808Y192776D01*
D02*
G37*
G36*
X53642Y166402D02*
Y162972D01*
X57072D01*
X57001Y163512D01*
X56602Y164474D01*
X55969Y165299D01*
X55143Y165933D01*
X54181Y166331D01*
X53642Y166402D01*
D02*
G37*
G36*
X52658D02*
X52118Y166331D01*
X51156Y165933D01*
X50331Y165299D01*
X49697Y164474D01*
X49299Y163512D01*
X49227Y162972D01*
X52658D01*
Y166402D01*
D02*
G37*
G36*
X32579Y164562D02*
Y159941D01*
X37200D01*
X37089Y160789D01*
X36571Y162038D01*
X35748Y163110D01*
X34676Y163933D01*
X33427Y164451D01*
X32579Y164562D01*
D02*
G37*
G36*
X31595D02*
X30747Y164451D01*
X29498Y163933D01*
X28425Y163110D01*
X27602Y162038D01*
X27085Y160789D01*
X26974Y159941D01*
X31595D01*
Y164562D01*
D02*
G37*
G36*
X75295Y162974D02*
Y159941D01*
X78328D01*
X78271Y160378D01*
X77912Y161244D01*
X77342Y161987D01*
X76598Y162558D01*
X75732Y162916D01*
X75295Y162974D01*
D02*
G37*
G36*
X74311D02*
X73874Y162916D01*
X73008Y162558D01*
X72265Y161987D01*
X71694Y161244D01*
X71336Y160378D01*
X71278Y159941D01*
X74311D01*
Y162974D01*
D02*
G37*
G36*
X107776D02*
Y159941D01*
X110808D01*
X110751Y160378D01*
X110392Y161244D01*
X109822Y161987D01*
X109078Y162558D01*
X108213Y162916D01*
X107776Y162974D01*
D02*
G37*
G36*
X106791D02*
X106354Y162916D01*
X105489Y162558D01*
X104745Y161987D01*
X104175Y161244D01*
X103816Y160378D01*
X103759Y159941D01*
X106791D01*
Y162974D01*
D02*
G37*
G36*
X19980Y164483D02*
Y159862D01*
X24602D01*
X24490Y160710D01*
X23973Y161959D01*
X23150Y163032D01*
X22077Y163855D01*
X20829Y164372D01*
X19980Y164483D01*
D02*
G37*
G36*
X18996D02*
X18148Y164372D01*
X16899Y163855D01*
X15827Y163032D01*
X15004Y161959D01*
X14487Y160710D01*
X14375Y159862D01*
X18996D01*
Y164483D01*
D02*
G37*
G36*
X78328Y158957D02*
X75295D01*
Y155924D01*
X75732Y155981D01*
X76598Y156340D01*
X77342Y156911D01*
X77912Y157654D01*
X78271Y158520D01*
X78328Y158957D01*
D02*
G37*
G36*
X110808Y158957D02*
X107776D01*
Y155924D01*
X108213Y155981D01*
X109078Y156340D01*
X109822Y156911D01*
X110392Y157654D01*
X110751Y158520D01*
X110808Y158957D01*
D02*
G37*
G36*
X106791D02*
X103759D01*
X103816Y158520D01*
X104175Y157654D01*
X104745Y156911D01*
X105489Y156340D01*
X106354Y155981D01*
X106791Y155924D01*
Y158957D01*
D02*
G37*
G36*
X74311Y158957D02*
X71278D01*
X71336Y158520D01*
X71694Y157654D01*
X72265Y156911D01*
X73008Y156340D01*
X73874Y155981D01*
X74311Y155924D01*
Y158957D01*
D02*
G37*
G36*
X37200Y158957D02*
X32579D01*
Y154335D01*
X33427Y154447D01*
X34676Y154964D01*
X35748Y155787D01*
X36571Y156860D01*
X37089Y158109D01*
X37200Y158957D01*
D02*
G37*
G36*
X31595D02*
X26974D01*
X27085Y158109D01*
X27602Y156860D01*
X28425Y155787D01*
X29498Y154964D01*
X30747Y154447D01*
X31595Y154335D01*
Y158957D01*
D02*
G37*
G36*
X24602Y158878D02*
X19980D01*
Y154257D01*
X20829Y154368D01*
X22077Y154886D01*
X23150Y155709D01*
X23973Y156781D01*
X24490Y158030D01*
X24602Y158878D01*
D02*
G37*
G36*
X18996D02*
X14375D01*
X14487Y158030D01*
X15004Y156781D01*
X15827Y155709D01*
X16899Y154886D01*
X18148Y154368D01*
X18996Y154257D01*
Y158878D01*
D02*
G37*
G36*
X57072Y161988D02*
X53150D01*
X49227D01*
X49299Y161448D01*
X49697Y160487D01*
X50331Y159661D01*
X51156Y159028D01*
X51746Y158783D01*
X51647Y158283D01*
X49787D01*
X49479Y158222D01*
X49219Y158048D01*
X49219Y158048D01*
X46381Y155210D01*
X45454Y154449D01*
X44430Y153902D01*
X43320Y153565D01*
X42126Y153448D01*
X19528D01*
X18334Y153565D01*
X17223Y153902D01*
X16281Y154406D01*
X16243Y154417D01*
X16210Y154439D01*
X16094Y154463D01*
X15981Y154497D01*
X15942Y154493D01*
X15902Y154501D01*
X15787Y154478D01*
X15669Y154466D01*
X15634Y154447D01*
X15595Y154439D01*
X15497Y154374D01*
X15393Y154318D01*
X15368Y154288D01*
X15335Y154265D01*
X9275Y148205D01*
X9101Y147945D01*
X9040Y147638D01*
Y133858D01*
X9040Y133858D01*
X9101Y133551D01*
X9275Y133291D01*
X42739Y99826D01*
X43000Y99652D01*
X43307Y99591D01*
X82677D01*
X82984Y99652D01*
X83245Y99826D01*
X83245Y99826D01*
X84133Y100714D01*
X104431Y80416D01*
X105017Y80024D01*
X105709Y79887D01*
X189901D01*
X196028Y73760D01*
Y51181D01*
X196166Y50490D01*
X196557Y49904D01*
X207384Y39077D01*
X207970Y38686D01*
X208661Y38548D01*
X209353Y38686D01*
X209441Y38745D01*
X244721D01*
X245348Y38326D01*
X246269Y38143D01*
X247191Y38326D01*
X247972Y38848D01*
X248495Y39630D01*
X248678Y40551D01*
X248495Y41473D01*
X247972Y42254D01*
X247191Y42776D01*
X246269Y42960D01*
X245348Y42776D01*
X244721Y42358D01*
X209213D01*
X199641Y51929D01*
Y72702D01*
X266463D01*
X267090Y72283D01*
X268012Y72099D01*
X268934Y72283D01*
X269715Y72805D01*
X270237Y73586D01*
X270420Y74508D01*
X270237Y75430D01*
X269715Y76211D01*
X268934Y76733D01*
X268012Y76916D01*
X267090Y76733D01*
X266463Y76314D01*
X198583D01*
X191927Y82970D01*
X191341Y83362D01*
X190650Y83499D01*
X106457D01*
X86687Y103269D01*
X104094Y120675D01*
X104116Y120708D01*
X104147Y120733D01*
X104202Y120837D01*
X104268Y120936D01*
X104276Y120975D01*
X104295Y121010D01*
X104306Y121127D01*
X104316Y121177D01*
X104578Y121299D01*
X104817Y121330D01*
X105535Y120456D01*
X106466Y119692D01*
X107529Y119123D01*
X108683Y118774D01*
X109390Y118704D01*
Y124803D01*
Y130902D01*
X108683Y130833D01*
X107529Y130483D01*
X106466Y129915D01*
X106172Y130308D01*
X116677Y140813D01*
X116851Y141074D01*
X116912Y141381D01*
Y149576D01*
X116851Y149884D01*
X116677Y150144D01*
X116677Y150144D01*
X113530Y153291D01*
X113270Y153465D01*
X112962Y153526D01*
X64606D01*
X63412Y153644D01*
X62302Y153981D01*
X61279Y154528D01*
X60351Y155289D01*
X57592Y158048D01*
X57332Y158222D01*
X57024Y158283D01*
X54652D01*
X54553Y158783D01*
X55143Y159028D01*
X55969Y159661D01*
X56602Y160487D01*
X57001Y161448D01*
X57072Y161988D01*
D02*
G37*
G36*
X386597Y156004D02*
X383366D01*
Y152772D01*
X383855Y152837D01*
X384768Y153215D01*
X385553Y153817D01*
X386155Y154602D01*
X386533Y155516D01*
X386597Y156004D01*
D02*
G37*
G36*
X290020Y150981D02*
Y145374D01*
X295627D01*
X295557Y146081D01*
X295207Y147234D01*
X294639Y148297D01*
X293875Y149229D01*
X292943Y149994D01*
X291880Y150562D01*
X290727Y150911D01*
X290020Y150981D01*
D02*
G37*
G36*
X289035D02*
X288328Y150911D01*
X287175Y150562D01*
X286112Y149994D01*
X285180Y149229D01*
X284416Y148297D01*
X283848Y147234D01*
X283498Y146081D01*
X283428Y145374D01*
X289035D01*
Y150981D01*
D02*
G37*
G36*
X319685Y150816D02*
X318527Y150702D01*
X317414Y150364D01*
X316388Y149816D01*
X315489Y149078D01*
X314751Y148179D01*
X314203Y147153D01*
X313865Y146040D01*
X313751Y144882D01*
X313865Y143724D01*
X314203Y142611D01*
X314751Y141585D01*
X315489Y140686D01*
X316388Y139948D01*
X317414Y139400D01*
X318527Y139062D01*
X319685Y138948D01*
X320843Y139062D01*
X321956Y139400D01*
X322982Y139948D01*
X323881Y140686D01*
X324619Y141585D01*
X325167Y142611D01*
X325505Y143724D01*
X325619Y144882D01*
X325505Y146040D01*
X325167Y147153D01*
X324619Y148179D01*
X323881Y149078D01*
X322982Y149816D01*
X321956Y150364D01*
X320843Y150702D01*
X319685Y150816D01*
D02*
G37*
G36*
X269528D02*
X268370Y150702D01*
X267257Y150364D01*
X266231Y149816D01*
X265332Y149078D01*
X264594Y148179D01*
X264045Y147153D01*
X263707Y146040D01*
X263594Y144882D01*
X263707Y143724D01*
X264045Y142611D01*
X264594Y141585D01*
X265332Y140686D01*
X266231Y139948D01*
X267257Y139400D01*
X268370Y139062D01*
X269528Y138948D01*
X270685Y139062D01*
X271798Y139400D01*
X272824Y139948D01*
X273724Y140686D01*
X274462Y141585D01*
X275010Y142611D01*
X275348Y143724D01*
X275462Y144882D01*
X275348Y146040D01*
X275010Y147153D01*
X274462Y148179D01*
X273724Y149078D01*
X272824Y149816D01*
X271798Y150364D01*
X270685Y150702D01*
X269528Y150816D01*
D02*
G37*
G36*
X295627Y144390D02*
X290020D01*
Y138783D01*
X290727Y138852D01*
X291880Y139202D01*
X292943Y139770D01*
X293875Y140535D01*
X294639Y141466D01*
X295207Y142529D01*
X295557Y143683D01*
X295627Y144390D01*
D02*
G37*
G36*
X289035D02*
X283428D01*
X283498Y143683D01*
X283848Y142529D01*
X284416Y141466D01*
X285180Y140535D01*
X286112Y139770D01*
X287175Y139202D01*
X288328Y138852D01*
X289035Y138783D01*
Y144390D01*
D02*
G37*
G36*
X110374Y130902D02*
Y125295D01*
X115981D01*
X115911Y126003D01*
X115562Y127156D01*
X114994Y128219D01*
X114229Y129150D01*
X113297Y129915D01*
X112234Y130483D01*
X111081Y130833D01*
X110374Y130902D01*
D02*
G37*
G36*
X372638Y131527D02*
X371713Y131405D01*
X370851Y131048D01*
X370111Y130480D01*
X369543Y129740D01*
X369186Y128878D01*
X369064Y127953D01*
X369186Y127028D01*
X369543Y126166D01*
X370111Y125426D01*
X370851Y124858D01*
X371713Y124501D01*
X372638Y124379D01*
X373563Y124501D01*
X374425Y124858D01*
X375165Y125426D01*
X375733Y126166D01*
X376090Y127028D01*
X376212Y127953D01*
X376090Y128878D01*
X375733Y129740D01*
X375165Y130480D01*
X374425Y131048D01*
X373563Y131405D01*
X372638Y131527D01*
D02*
G37*
G36*
X353740D02*
X352815Y131405D01*
X351953Y131048D01*
X351213Y130480D01*
X350645Y129740D01*
X350288Y128878D01*
X350166Y127953D01*
X350288Y127028D01*
X350645Y126166D01*
X351213Y125426D01*
X351953Y124858D01*
X352815Y124501D01*
X353740Y124379D01*
X354665Y124501D01*
X355527Y124858D01*
X356267Y125426D01*
X356835Y126166D01*
X357192Y127028D01*
X357314Y127953D01*
X357192Y128878D01*
X356835Y129740D01*
X356267Y130480D01*
X355527Y131048D01*
X354665Y131405D01*
X353740Y131527D01*
D02*
G37*
G36*
X115981Y124311D02*
X110374D01*
Y118704D01*
X111081Y118774D01*
X112234Y119123D01*
X113297Y119692D01*
X114229Y120456D01*
X114994Y121388D01*
X115562Y122450D01*
X115911Y123604D01*
X115981Y124311D01*
D02*
G37*
G36*
X295925Y120651D02*
Y117618D01*
X298958D01*
X298901Y118055D01*
X298542Y118921D01*
X297971Y119664D01*
X297228Y120235D01*
X296362Y120593D01*
X295925Y120651D01*
D02*
G37*
G36*
X294941D02*
X294504Y120593D01*
X293638Y120235D01*
X292895Y119664D01*
X292324Y118921D01*
X291966Y118055D01*
X291908Y117618D01*
X294941D01*
Y120651D01*
D02*
G37*
G36*
X285000Y120472D02*
X278307D01*
Y113779D01*
X285000D01*
Y120472D01*
D02*
G37*
G36*
X298958Y116634D02*
X295925D01*
Y113601D01*
X296362Y113658D01*
X297228Y114017D01*
X297971Y114588D01*
X298542Y115331D01*
X298901Y116197D01*
X298958Y116634D01*
D02*
G37*
G36*
X294941D02*
X291908D01*
X291966Y116197D01*
X292324Y115331D01*
X292895Y114588D01*
X293638Y114017D01*
X294504Y113658D01*
X294941Y113601D01*
Y116634D01*
D02*
G37*
G36*
X383366Y103133D02*
Y99901D01*
X386598D01*
X386533Y100390D01*
X386155Y101304D01*
X385553Y102088D01*
X384768Y102690D01*
X383855Y103069D01*
X383366Y103133D01*
D02*
G37*
G36*
X382382Y103133D02*
X381893Y103069D01*
X380980Y102690D01*
X380195Y102088D01*
X379593Y101304D01*
X379215Y100390D01*
X379151Y99901D01*
X382382D01*
Y103133D01*
D02*
G37*
G36*
X366732Y102953D02*
X359646D01*
Y95866D01*
X366732D01*
Y102953D01*
D02*
G37*
G36*
X382382Y98917D02*
X379151D01*
X379215Y98429D01*
X379593Y97515D01*
X380195Y96731D01*
X380980Y96129D01*
X381893Y95750D01*
X382382Y95686D01*
Y98917D01*
D02*
G37*
G36*
X386597D02*
X383366D01*
Y95686D01*
X383855Y95750D01*
X384768Y96129D01*
X385553Y96731D01*
X386155Y97515D01*
X386533Y98429D01*
X386597Y98917D01*
D02*
G37*
G36*
X147716Y154967D02*
X146795Y154784D01*
X146013Y154262D01*
X145491Y153481D01*
X145308Y152559D01*
X145491Y151637D01*
X145831Y151128D01*
Y118504D01*
X134030Y106703D01*
X133291Y106556D01*
X132510Y106034D01*
X131987Y105252D01*
X131804Y104331D01*
X131987Y103409D01*
X132510Y102628D01*
X133291Y102106D01*
X134030Y101959D01*
X147994Y87994D01*
X148580Y87603D01*
X149272Y87465D01*
X266168D01*
X266795Y87046D01*
X267717Y86863D01*
X268638Y87046D01*
X269420Y87569D01*
X269942Y88350D01*
X270125Y89272D01*
X269942Y90193D01*
X269420Y90975D01*
X268638Y91497D01*
X267717Y91680D01*
X266795Y91497D01*
X266168Y91078D01*
X150020D01*
X136767Y104331D01*
X148915Y116479D01*
X149307Y117065D01*
X149444Y117756D01*
Y150893D01*
X149942Y151637D01*
X150125Y152559D01*
X149942Y153481D01*
X149420Y154262D01*
X148638Y154784D01*
X147716Y154967D01*
D02*
G37*
G36*
X312008Y118913D02*
X311701Y118852D01*
X311440Y118678D01*
X311440Y118678D01*
X304550Y111788D01*
X304376Y111528D01*
X304315Y111220D01*
X304315Y90258D01*
X304376Y89951D01*
X304550Y89690D01*
X304551Y89690D01*
X308194Y86046D01*
X308455Y85872D01*
X308762Y85811D01*
X342520D01*
X342827Y85872D01*
X343087Y86046D01*
X343087Y86046D01*
X347024Y89983D01*
X347198Y90244D01*
X347259Y90551D01*
X347259Y112205D01*
X347259Y112205D01*
X347198Y112512D01*
X347024Y112772D01*
X347024Y112772D01*
X341119Y118678D01*
X341119Y118678D01*
X340859Y118852D01*
X340551Y118913D01*
X312008Y118913D01*
D02*
G37*
G36*
X324803Y85086D02*
X323882Y84902D01*
X323255Y84483D01*
X306102D01*
X305411Y84346D01*
X304825Y83955D01*
X269921Y49051D01*
X258524D01*
X257195Y50379D01*
X257048Y51118D01*
X256526Y51900D01*
X255745Y52422D01*
X254823Y52605D01*
X253901Y52422D01*
X253120Y51900D01*
X252598Y51118D01*
X252414Y50197D01*
X252598Y49275D01*
X253120Y48494D01*
X253901Y47972D01*
X254641Y47825D01*
X256498Y45967D01*
X257084Y45575D01*
X257776Y45438D01*
X270669D01*
X271361Y45575D01*
X271947Y45967D01*
X306851Y80871D01*
X323255D01*
X323882Y80452D01*
X324803Y80269D01*
X325725Y80452D01*
X326506Y80974D01*
X327028Y81756D01*
X327212Y82677D01*
X327028Y83599D01*
X326506Y84380D01*
X325725Y84902D01*
X324803Y85086D01*
D02*
G37*
G36*
X151654Y75243D02*
X150732Y75060D01*
X150105Y74641D01*
X43307D01*
X42616Y74503D01*
X42030Y74112D01*
X20487Y52569D01*
X19748Y52422D01*
X18966Y51900D01*
X18444Y51118D01*
X18261Y50197D01*
X18444Y49275D01*
X18966Y48494D01*
X19748Y47972D01*
X20669Y47788D01*
X21591Y47972D01*
X22372Y48494D01*
X22894Y49275D01*
X23042Y50015D01*
X44055Y71028D01*
X150105D01*
X150732Y70609D01*
X151654Y70426D01*
X152575Y70609D01*
X153357Y71132D01*
X153879Y71913D01*
X154062Y72835D01*
X153879Y73756D01*
X153357Y74538D01*
X152575Y75060D01*
X151654Y75243D01*
D02*
G37*
G36*
X377264Y69843D02*
Y64626D01*
X382481D01*
X382349Y65628D01*
X381772Y67021D01*
X380854Y68217D01*
X379659Y69134D01*
X378266Y69711D01*
X377264Y69843D01*
D02*
G37*
G36*
X376280D02*
X375277Y69711D01*
X373885Y69134D01*
X372689Y68217D01*
X371772Y67021D01*
X371195Y65628D01*
X371063Y64626D01*
X376280D01*
Y69843D01*
D02*
G37*
G36*
X301181Y69042D02*
X300259Y68859D01*
X299478Y68337D01*
X298956Y67556D01*
X298773Y66634D01*
X298956Y65712D01*
X299478Y64931D01*
X300259Y64409D01*
X301181Y64225D01*
X302103Y64409D01*
X302730Y64828D01*
X332655D01*
X333429Y64310D01*
X334350Y64127D01*
X335272Y64310D01*
X336053Y64832D01*
X336576Y65614D01*
X336759Y66535D01*
X336576Y67457D01*
X336053Y68239D01*
X335272Y68761D01*
X334350Y68944D01*
X333429Y68761D01*
X332949Y68440D01*
X302730D01*
X302103Y68859D01*
X301181Y69042D01*
D02*
G37*
G36*
X382481Y63642D02*
X377264D01*
Y58425D01*
X378266Y58557D01*
X379659Y59134D01*
X380854Y60051D01*
X381772Y61247D01*
X382349Y62639D01*
X382481Y63642D01*
D02*
G37*
G36*
X376280D02*
X371063D01*
X371195Y62639D01*
X371772Y61247D01*
X372689Y60051D01*
X373885Y59134D01*
X375277Y58557D01*
X376280Y58425D01*
Y63642D01*
D02*
G37*
G36*
X210236Y59495D02*
X209315Y59312D01*
X208533Y58790D01*
X208011Y58008D01*
X207828Y57087D01*
X208011Y56165D01*
X208533Y55384D01*
X209315Y54861D01*
X210236Y54678D01*
X211158Y54861D01*
X211785Y55280D01*
X263031D01*
X264360Y53952D01*
X264507Y53212D01*
X265029Y52431D01*
X265811Y51909D01*
X266732Y51725D01*
X267654Y51909D01*
X268435Y52431D01*
X268957Y53212D01*
X269141Y54134D01*
X268957Y55056D01*
X268435Y55837D01*
X267654Y56359D01*
X266915Y56506D01*
X265057Y58364D01*
X264471Y58755D01*
X263779Y58893D01*
X211785D01*
X211158Y59312D01*
X210236Y59495D01*
D02*
G37*
G36*
X282972Y48013D02*
X282536Y47956D01*
X281670Y47597D01*
X280926Y47027D01*
X280356Y46283D01*
X279997Y45417D01*
X279940Y44980D01*
X282972D01*
Y48013D01*
D02*
G37*
G36*
X380551Y49680D02*
X372992D01*
X372316Y49545D01*
X371743Y49162D01*
X371360Y48589D01*
X371226Y47913D01*
Y40354D01*
X371360Y39678D01*
X371743Y39105D01*
X372316Y38723D01*
X372992Y38588D01*
X380551D01*
X381227Y38723D01*
X381800Y39105D01*
X382183Y39678D01*
X382317Y40354D01*
Y47913D01*
X382183Y48589D01*
X381800Y49162D01*
X381227Y49545D01*
X380551Y49680D01*
D02*
G37*
G36*
X248819Y48263D02*
X236221D01*
X235529Y48125D01*
X234943Y47734D01*
X234857Y47648D01*
X234118Y47501D01*
X233336Y46979D01*
X232814Y46197D01*
X232631Y45276D01*
X232814Y44354D01*
X233336Y43573D01*
X234118Y43050D01*
X235039Y42867D01*
X235961Y43050D01*
X236742Y43573D01*
X237264Y44354D01*
X237323Y44650D01*
X248071D01*
X250897Y41824D01*
X250531Y41276D01*
X250347Y40354D01*
X250531Y39433D01*
X251053Y38651D01*
X251834Y38129D01*
X252756Y37946D01*
X253678Y38129D01*
X254459Y38651D01*
X254981Y39433D01*
X255164Y40354D01*
X254981Y41276D01*
X254562Y41903D01*
Y42520D01*
X254425Y43211D01*
X254033Y43797D01*
X250096Y47734D01*
X249510Y48125D01*
X248819Y48263D01*
D02*
G37*
G36*
X353287Y27215D02*
X351797Y27018D01*
X350408Y26443D01*
X349216Y25528D01*
X348301Y24336D01*
X347726Y22947D01*
X347530Y21457D01*
X347726Y19966D01*
X348301Y18578D01*
X349216Y17385D01*
X350408Y16470D01*
X351797Y15895D01*
X353287Y15699D01*
X354778Y15895D01*
X356166Y16470D01*
X357359Y17385D01*
X358274Y18578D01*
X358849Y19966D01*
X359045Y21457D01*
X358849Y22947D01*
X358274Y24336D01*
X357359Y25528D01*
X356166Y26443D01*
X354778Y27018D01*
X353287Y27215D01*
D02*
G37*
G36*
X300256D02*
X298766Y27018D01*
X297377Y26443D01*
X296184Y25528D01*
X295269Y24336D01*
X294694Y22947D01*
X294498Y21457D01*
X294694Y19966D01*
X295269Y18578D01*
X296184Y17385D01*
X297377Y16470D01*
X298766Y15895D01*
X300256Y15699D01*
X301746Y15895D01*
X303135Y16470D01*
X304327Y17385D01*
X305242Y18578D01*
X305818Y19966D01*
X306014Y21457D01*
X305818Y22947D01*
X305242Y24336D01*
X304327Y25528D01*
X303135Y26443D01*
X301746Y27018D01*
X300256Y27215D01*
D02*
G37*
G36*
X152756Y66551D02*
X54724D01*
X54417Y66490D01*
X54157Y66316D01*
X54157Y66316D01*
X27779Y39938D01*
X27605Y39677D01*
X27544Y39370D01*
Y11024D01*
X27544Y11024D01*
X27605Y10716D01*
X27779Y10456D01*
X27779Y10456D01*
X34865Y3369D01*
X35126Y3195D01*
X35433Y3134D01*
X111451D01*
X111490Y3142D01*
X111529Y3138D01*
X111642Y3172D01*
X111758Y3195D01*
X111791Y3217D01*
X111829Y3229D01*
X111850Y3246D01*
X112216Y3303D01*
X112454Y3224D01*
X112474Y3215D01*
X113251Y2696D01*
X114173Y2513D01*
X115040Y2685D01*
X115591Y2575D01*
X147518D01*
X148209Y2713D01*
X148795Y3105D01*
X148806Y3115D01*
X227782D01*
X228409Y2696D01*
X229331Y2513D01*
X230252Y2696D01*
X231034Y3218D01*
X231556Y4000D01*
X231739Y4921D01*
X231556Y5843D01*
X231034Y6624D01*
X230252Y7146D01*
X229331Y7330D01*
X228409Y7146D01*
X227782Y6728D01*
X212060D01*
X211868Y7190D01*
X217655Y12977D01*
X217701D01*
X217701Y12977D01*
X217701Y12977D01*
X226008D01*
X266732Y12977D01*
X266732Y12977D01*
X267039Y13038D01*
X267300Y13212D01*
X269470Y15382D01*
X269969Y15349D01*
X270099Y15178D01*
X270843Y14608D01*
X271709Y14249D01*
X272146Y14192D01*
Y17717D01*
X273130D01*
Y14192D01*
X273567Y14249D01*
X274433Y14608D01*
X275176Y15178D01*
X275585Y15711D01*
X275913Y15958D01*
X276060Y15991D01*
X276180Y15967D01*
X276296Y15933D01*
X276332Y15936D01*
X276368Y15929D01*
X276953D01*
X277165Y15755D01*
Y14370D01*
X283858D01*
Y20102D01*
X284190Y20482D01*
X284282Y20515D01*
X284378Y20534D01*
X284428Y20567D01*
X284485Y20588D01*
X284885Y20828D01*
X284899Y20841D01*
X284917Y20849D01*
X285015Y20946D01*
X285117Y21039D01*
X285125Y21057D01*
X285139Y21070D01*
X285338Y21368D01*
X289165Y25196D01*
X289505Y25456D01*
X296783Y32735D01*
X297128Y32965D01*
X297815Y33102D01*
X299443D01*
X299585Y33130D01*
X299728Y33154D01*
X299738Y33160D01*
X299750Y33163D01*
X299871Y33244D01*
X299994Y33321D01*
X303468Y36599D01*
X319291D01*
X319599Y36660D01*
X319859Y36834D01*
X319859Y36834D01*
X321828Y38802D01*
X322002Y39063D01*
X322063Y39370D01*
Y53543D01*
X322002Y53851D01*
X321828Y54111D01*
X321828Y54111D01*
X320253Y55686D01*
X319992Y55860D01*
X319685Y55921D01*
X293307Y55921D01*
X293307Y55921D01*
X293000Y55860D01*
X292739Y55686D01*
X285106Y48053D01*
X285091Y48030D01*
X285070Y48014D01*
X285005Y47901D01*
X284932Y47792D01*
X284466Y47926D01*
X284394Y47956D01*
X283957Y48013D01*
Y44488D01*
X283465D01*
Y43996D01*
X279940D01*
X279997Y43559D01*
X280027Y43487D01*
X280161Y43021D01*
X280052Y42948D01*
X279939Y42882D01*
X279922Y42861D01*
X279900Y42847D01*
X274077Y37023D01*
X245669Y37023D01*
X182616D01*
X153324Y66316D01*
X153063Y66490D01*
X152756Y66551D01*
D02*
G37*
G36*
X379429Y26591D02*
X377911Y26472D01*
X375950Y26001D01*
X374087Y25229D01*
X372368Y24176D01*
X370834Y22866D01*
X369525Y21333D01*
X368471Y19614D01*
X367700Y17751D01*
X367229Y15790D01*
X367109Y14272D01*
X379429D01*
Y26591D01*
D02*
G37*
G36*
X14272D02*
Y14272D01*
X26591D01*
X26472Y15790D01*
X26001Y17751D01*
X25229Y19614D01*
X24176Y21333D01*
X22866Y22866D01*
X21333Y24176D01*
X19614Y25229D01*
X17751Y26001D01*
X15790Y26472D01*
X14272Y26591D01*
D02*
G37*
G36*
X353287Y13829D02*
X351797Y13633D01*
X350408Y13057D01*
X349216Y12142D01*
X348301Y10950D01*
X347726Y9561D01*
X347530Y8071D01*
X347726Y6581D01*
X348301Y5192D01*
X349216Y3999D01*
X350408Y3084D01*
X351797Y2509D01*
X353287Y2313D01*
X354778Y2509D01*
X356166Y3084D01*
X357359Y3999D01*
X358274Y5192D01*
X358849Y6581D01*
X359045Y8071D01*
X358849Y9561D01*
X358274Y10950D01*
X357359Y12142D01*
X356166Y13057D01*
X354778Y13633D01*
X353287Y13829D01*
D02*
G37*
G36*
X300256D02*
X298766Y13633D01*
X297377Y13057D01*
X296184Y12142D01*
X295269Y10950D01*
X294694Y9561D01*
X294498Y8071D01*
X294694Y6581D01*
X295269Y5192D01*
X296184Y3999D01*
X297377Y3084D01*
X298766Y2509D01*
X300256Y2313D01*
X301746Y2509D01*
X303135Y3084D01*
X304327Y3999D01*
X305242Y5192D01*
X305818Y6581D01*
X306014Y8071D01*
X305818Y9561D01*
X305242Y10950D01*
X304327Y12142D01*
X303135Y13057D01*
X301746Y13633D01*
X300256Y13829D01*
D02*
G37*
%LPD*%
G36*
X301966Y332977D02*
X302658Y332839D01*
X303349Y332977D01*
X303477Y333062D01*
X303629Y332985D01*
X303875Y332727D01*
X303834Y332644D01*
X303566Y331643D01*
X303552Y331433D01*
X303511Y331227D01*
Y330190D01*
X303552Y329984D01*
X303566Y329775D01*
X303834Y328773D01*
X303875Y328690D01*
X303629Y328432D01*
X303477Y328355D01*
X303349Y328440D01*
X302658Y328578D01*
X301966Y328440D01*
X301380Y328049D01*
X300982D01*
X300396Y328440D01*
X299705Y328578D01*
X299013Y328440D01*
X298427Y328049D01*
X298029D01*
X297443Y328440D01*
X296752Y328578D01*
X296061Y328440D01*
X295475Y328049D01*
X295076D01*
X294491Y328440D01*
X293799Y328578D01*
X293108Y328440D01*
X292522Y328049D01*
X292124D01*
X291538Y328440D01*
X290846Y328578D01*
X290155Y328440D01*
X289569Y328049D01*
X289171D01*
X288585Y328440D01*
X287894Y328578D01*
X287202Y328440D01*
X287059Y328345D01*
X286655Y328676D01*
X286767Y328945D01*
X286797Y329100D01*
X286858Y329247D01*
X287009Y330008D01*
Y330166D01*
X287040Y330321D01*
Y331097D01*
X287009Y331252D01*
Y331410D01*
X286858Y332171D01*
X286797Y332317D01*
X286767Y332472D01*
X286655Y332741D01*
X287059Y333073D01*
X287202Y332977D01*
X287894Y332839D01*
X288585Y332977D01*
X289031Y333275D01*
X289370Y333334D01*
X289710Y333275D01*
X290155Y332977D01*
X290846Y332839D01*
X291538Y332977D01*
X291983Y333275D01*
X292323Y333334D01*
X292662Y333275D01*
X293108Y332977D01*
X293799Y332839D01*
X294491Y332977D01*
X294936Y333275D01*
X295276Y333334D01*
X295615Y333275D01*
X296061Y332977D01*
X296752Y332839D01*
X297443Y332977D01*
X298029Y333368D01*
X298427D01*
X299013Y332977D01*
X299705Y332839D01*
X300396Y332977D01*
X300982Y333368D01*
X301380D01*
X301966Y332977D01*
D02*
G37*
G36*
X194683D02*
X195374Y332839D01*
X196065Y332977D01*
X196511Y333275D01*
X196850Y333334D01*
X197190Y333275D01*
X197635Y332977D01*
X198327Y332839D01*
X199018Y332977D01*
X199464Y333275D01*
X199803Y333334D01*
X200143Y333275D01*
X200588Y332977D01*
X201034Y332888D01*
X201085Y332860D01*
X201373Y332439D01*
X201394Y332352D01*
X201203Y331643D01*
X201190Y331433D01*
X201149Y331227D01*
Y330190D01*
X201190Y329984D01*
X201203Y329775D01*
X201394Y329065D01*
X201373Y328978D01*
X201085Y328558D01*
X201034Y328529D01*
X200588Y328440D01*
X200143Y328143D01*
X199803Y328084D01*
X199464Y328143D01*
X199018Y328440D01*
X198327Y328578D01*
X197635Y328440D01*
X197190Y328143D01*
X196850Y328084D01*
X196511Y328143D01*
X196065Y328440D01*
X195374Y328578D01*
X194683Y328440D01*
X194237Y328143D01*
X193898Y328084D01*
X193558Y328143D01*
X193113Y328440D01*
X192421Y328578D01*
X191730Y328440D01*
X191144Y328049D01*
X190746D01*
X190160Y328440D01*
X189469Y328578D01*
X188777Y328440D01*
X188332Y328143D01*
X187992Y328084D01*
X187653Y328143D01*
X187207Y328440D01*
X186743Y328533D01*
X186445Y328865D01*
X186397Y329064D01*
X186404Y329100D01*
X186464Y329247D01*
X186616Y330008D01*
Y330166D01*
X186646Y330321D01*
Y331097D01*
X186616Y331252D01*
Y331410D01*
X186464Y332171D01*
X186404Y332317D01*
X186397Y332353D01*
X186445Y332553D01*
X186743Y332885D01*
X187207Y332977D01*
X187653Y333275D01*
X187992Y333334D01*
X188332Y333275D01*
X188777Y332977D01*
X189469Y332839D01*
X190160Y332977D01*
X190746Y333368D01*
X191144D01*
X191730Y332977D01*
X192421Y332839D01*
X193113Y332977D01*
X193699Y333368D01*
X194097D01*
X194683Y332977D01*
D02*
G37*
G36*
X126769D02*
X127461Y332839D01*
X128152Y332977D01*
X128597Y333275D01*
X128937Y333334D01*
X129277Y333275D01*
X129722Y332977D01*
X130413Y332839D01*
X131105Y332977D01*
X131550Y333275D01*
X131890Y333334D01*
X132229Y333275D01*
X132675Y332977D01*
X133366Y332839D01*
X134057Y332977D01*
X134503Y333275D01*
X134843Y333334D01*
X135182Y333275D01*
X135628Y332977D01*
X136074Y332888D01*
X136125Y332860D01*
X136413Y332439D01*
X136433Y332352D01*
X136243Y331643D01*
X136229Y331433D01*
X136188Y331227D01*
Y330190D01*
X136229Y329984D01*
X136243Y329775D01*
X136433Y329065D01*
X136413Y328978D01*
X136125Y328558D01*
X136074Y328529D01*
X135628Y328440D01*
X135182Y328143D01*
X134843Y328084D01*
X134503Y328143D01*
X134057Y328440D01*
X133366Y328578D01*
X132675Y328440D01*
X132229Y328143D01*
X131890Y328084D01*
X131550Y328143D01*
X131105Y328440D01*
X130413Y328578D01*
X129722Y328440D01*
X129277Y328143D01*
X128937Y328084D01*
X128597Y328143D01*
X128152Y328440D01*
X127461Y328578D01*
X126769Y328440D01*
X126183Y328049D01*
X125785D01*
X125199Y328440D01*
X124508Y328578D01*
X123817Y328440D01*
X123371Y328143D01*
X123031Y328084D01*
X122692Y328143D01*
X122246Y328440D01*
X121783Y328533D01*
X121485Y328865D01*
X121436Y329064D01*
X121443Y329100D01*
X121504Y329247D01*
X121655Y330008D01*
Y330166D01*
X121686Y330321D01*
Y331097D01*
X121655Y331252D01*
Y331410D01*
X121504Y332171D01*
X121443Y332317D01*
X121436Y332353D01*
X121485Y332553D01*
X121783Y332885D01*
X122246Y332977D01*
X122832Y333368D01*
X123231D01*
X123817Y332977D01*
X124508Y332839D01*
X125199Y332977D01*
X125785Y333368D01*
X126183D01*
X126769Y332977D01*
D02*
G37*
G36*
X369645Y313476D02*
X369209Y312823D01*
X369035Y311949D01*
Y309547D01*
X374213D01*
Y309055D01*
X374705D01*
Y303877D01*
X374817D01*
X375057Y303377D01*
X374878Y303150D01*
X362205D01*
X360556Y301501D01*
X360379Y301484D01*
X359192Y301123D01*
X358097Y300538D01*
X357681Y300197D01*
X325440D01*
X323055Y302582D01*
X322068Y303339D01*
X320918Y303815D01*
X319685Y303978D01*
X309055D01*
X307822Y303815D01*
X306673Y303339D01*
X306425Y303150D01*
X306102D01*
X305118Y302165D01*
X289370Y286417D01*
X272638D01*
X271654Y287402D01*
Y294291D01*
X272638Y295276D01*
X286417D01*
X303150Y312008D01*
X324803D01*
X328740Y308071D01*
X331693D01*
X353346Y308071D01*
X355974Y310699D01*
X356436Y310507D01*
Y309547D01*
X361614D01*
X366792D01*
Y311949D01*
X366618Y312823D01*
X366181Y313476D01*
X366337Y313976D01*
X369490Y313976D01*
X369645Y313476D01*
D02*
G37*
G36*
X371541Y299697D02*
X370551Y298937D01*
X369728Y297865D01*
X369211Y296616D01*
X369099Y295768D01*
X374213D01*
Y294783D01*
X369099D01*
X369211Y293935D01*
X369728Y292687D01*
X370551Y291614D01*
X371541Y290854D01*
X371469Y290354D01*
X364357D01*
X364285Y290854D01*
X365275Y291614D01*
X366098Y292687D01*
X366616Y293935D01*
X366727Y294783D01*
X361614D01*
X356501D01*
X356612Y293935D01*
X357130Y292687D01*
X357952Y291614D01*
X358943Y290854D01*
X358870Y290354D01*
X338198D01*
X338036Y290596D01*
X337255Y291118D01*
X336333Y291302D01*
X335412Y291118D01*
X334630Y290596D01*
X334469Y290354D01*
X329512D01*
X329361Y290581D01*
X328579Y291103D01*
X327658Y291286D01*
X326736Y291103D01*
X326084Y290668D01*
X325586Y290794D01*
X325545Y290818D01*
X325371Y291078D01*
X325110Y291252D01*
X324803Y291313D01*
X323675D01*
X322598Y291455D01*
X321644Y291850D01*
X320981Y292359D01*
X318412Y294929D01*
X318151Y295103D01*
X318147Y295103D01*
X318019Y295189D01*
X317995Y295194D01*
X317913Y295276D01*
X312136D01*
X311973Y295308D01*
X311809Y295276D01*
X311023D01*
X310990Y295243D01*
X310722Y295189D01*
X310461Y295015D01*
X292603Y277157D01*
X291741Y276496D01*
X290788Y276101D01*
X289711Y275959D01*
X278867D01*
X277790Y276101D01*
X276836Y276496D01*
X276017Y277124D01*
X275389Y277944D01*
X274993Y278898D01*
X274859Y279921D01*
X274993Y280945D01*
X275420Y281976D01*
X275470Y282051D01*
X275481Y282103D01*
X275504Y282150D01*
X275511Y282255D01*
X275532Y282358D01*
X275521Y282410D01*
X275525Y282463D01*
X275491Y282562D01*
X275470Y282665D01*
X275441Y282709D01*
X275424Y282759D01*
X275355Y282838D01*
X275296Y282926D01*
X273205Y285016D01*
X273622Y285433D01*
X288386D01*
X288567Y285614D01*
X289370D01*
X289370Y285614D01*
X289677Y285676D01*
X289938Y285850D01*
X289938Y285850D01*
X304285Y300197D01*
X323917D01*
X324421Y299810D01*
X324895Y299614D01*
X325132Y299455D01*
X325412Y299399D01*
X325570Y299334D01*
X326803Y299172D01*
X356496D01*
X357642Y299323D01*
X357814Y299109D01*
X357903Y298872D01*
X357130Y297865D01*
X356612Y296616D01*
X356501Y295768D01*
X361614D01*
X366727D01*
X366616Y296616D01*
X366098Y297865D01*
X365275Y298937D01*
X364285Y299697D01*
X364357Y300197D01*
X371469D01*
X371541Y299697D01*
D02*
G37*
G36*
X267717Y301181D02*
X269685Y299213D01*
Y293307D01*
Y287402D01*
X274729Y282358D01*
X274687Y282304D01*
X274211Y281155D01*
X274049Y279921D01*
X274211Y278688D01*
X274687Y277539D01*
X275445Y276552D01*
X276431Y275795D01*
X277581Y275318D01*
X278814Y275156D01*
X289764D01*
X290997Y275318D01*
X292146Y275795D01*
X293133Y276552D01*
X307087Y290505D01*
X310942Y294361D01*
X311029Y294447D01*
X317711D01*
X317798Y294361D01*
X317844D01*
X320451Y291754D01*
X321239Y291149D01*
X322389Y290673D01*
X323622Y290510D01*
X324803D01*
Y275590D01*
X319882Y270669D01*
X304134Y270669D01*
X303007Y269542D01*
X302234Y269026D01*
X301712Y268245D01*
X301529Y267323D01*
X301712Y266401D01*
X301953Y266040D01*
Y251198D01*
X308593Y244558D01*
X308402Y244096D01*
X308450D01*
X308628Y243596D01*
X308589Y243536D01*
X308450Y243379D01*
X307931Y242480D01*
X307864Y242282D01*
X307771Y242093D01*
X307503Y241092D01*
X307489Y240882D01*
X307448Y240676D01*
Y239639D01*
X307489Y239433D01*
X307503Y239223D01*
X307771Y238222D01*
X307864Y238033D01*
X307931Y237835D01*
X308450Y236936D01*
X308589Y236778D01*
X308705Y236604D01*
X309322Y235987D01*
Y226111D01*
X330709Y204724D01*
X381890D01*
X385827Y200787D01*
Y163386D01*
X382456Y160015D01*
X381949Y159948D01*
X381087Y159591D01*
X380347Y159023D01*
X379779Y158283D01*
X379422Y157421D01*
X379355Y156914D01*
X372047Y149606D01*
X348127D01*
X281198Y216535D01*
Y219532D01*
X281798Y219714D01*
X282824Y220263D01*
X283724Y221001D01*
X284462Y221900D01*
X285010Y222926D01*
X285348Y224039D01*
X285462Y225197D01*
X285348Y226355D01*
X285010Y227468D01*
X284462Y228494D01*
X283724Y229393D01*
X282824Y230131D01*
X281798Y230679D01*
X281198Y230861D01*
Y235958D01*
X281205Y235963D01*
X281754Y236511D01*
X281841Y236643D01*
X281953Y236755D01*
X282384Y237400D01*
X282445Y237546D01*
X282533Y237677D01*
X282830Y238394D01*
X282860Y238549D01*
X282921Y238695D01*
X283072Y239456D01*
Y239615D01*
X283103Y239770D01*
Y240545D01*
X283072Y240701D01*
Y240859D01*
X282921Y241619D01*
X282860Y241766D01*
X282830Y241921D01*
X282533Y242637D01*
X282445Y242769D01*
X282384Y242915D01*
X281953Y243560D01*
X281918Y243596D01*
X281973Y243854D01*
X282147Y244096D01*
X282273D01*
X282112Y244569D01*
X283524Y245655D01*
X284283Y245806D01*
X285065Y246328D01*
X285587Y247110D01*
X285770Y248031D01*
X285587Y248953D01*
X285435Y249181D01*
Y263779D01*
X251020Y263779D01*
X250787Y263826D01*
X250555Y263779D01*
X244071D01*
X229852Y249560D01*
X229393Y249469D01*
X228612Y248947D01*
X228090Y248166D01*
X227999Y247707D01*
X226354Y246063D01*
X179134D01*
X175197Y250000D01*
Y257874D01*
X179134Y261811D01*
X181542D01*
X181761Y261631D01*
X183026Y260955D01*
X184399Y260539D01*
X185827Y260398D01*
X212598D01*
X214026Y260539D01*
X215399Y260955D01*
X216665Y261631D01*
X217774Y262541D01*
X218684Y263650D01*
X219098Y264425D01*
X240106Y285433D01*
X248031Y285433D01*
X251969Y289370D01*
X251969Y297296D01*
X255854Y301181D01*
X267717Y301181D01*
D02*
G37*
G36*
X250863Y262992D02*
X250942D01*
X251020Y262977D01*
X284632Y262977D01*
Y249181D01*
X284647Y249103D01*
Y249024D01*
X284677Y248951D01*
X284693Y248874D01*
X284737Y248808D01*
X284767Y248735D01*
X284830Y248640D01*
X284952Y248031D01*
X284830Y247423D01*
X284486Y246907D01*
X283970Y246563D01*
X283367Y246443D01*
X283342Y246432D01*
X283315Y246430D01*
X283198Y246373D01*
X283078Y246323D01*
X283059Y246304D01*
X283034Y246292D01*
X281622Y245206D01*
X281605Y245186D01*
X281582Y245173D01*
X281502Y245069D01*
X281416Y244970D01*
X281407Y244945D01*
X281391Y244924D01*
X281371Y244849D01*
X281239Y244753D01*
X280948Y244654D01*
X280819Y244647D01*
X280317Y244983D01*
X280171Y245043D01*
X280039Y245131D01*
X279322Y245428D01*
X279167Y245459D01*
X279021Y245519D01*
X278260Y245671D01*
X278102D01*
X277947Y245702D01*
X227782D01*
X227590Y246164D01*
X228566Y247140D01*
X228610Y247205D01*
X228666Y247261D01*
X228696Y247334D01*
X228740Y247400D01*
X228756Y247478D01*
X228786Y247551D01*
X228846Y247852D01*
X229191Y248368D01*
X229707Y248713D01*
X230008Y248773D01*
X230082Y248803D01*
X230159Y248819D01*
X230225Y248863D01*
X230298Y248893D01*
X230354Y248949D01*
X230419Y248993D01*
X244403Y262977D01*
X250555D01*
X250632Y262992D01*
X250711D01*
X250787Y263007D01*
X250863Y262992D01*
D02*
G37*
%LPC*%
G36*
X373720Y308563D02*
X369035D01*
Y306161D01*
X369209Y305287D01*
X369704Y304546D01*
X370445Y304051D01*
X371319Y303877D01*
X373720D01*
Y308563D01*
D02*
G37*
G36*
X366792Y308563D02*
X362106D01*
Y303877D01*
X364508D01*
X365382Y304051D01*
X366123Y304546D01*
X366618Y305287D01*
X366792Y306161D01*
Y308563D01*
D02*
G37*
G36*
X361122D02*
X356436D01*
Y306161D01*
X356610Y305287D01*
X357105Y304546D01*
X357846Y304051D01*
X358720Y303877D01*
X361122D01*
Y308563D01*
D02*
G37*
G36*
X238008Y268520D02*
X234744D01*
Y265256D01*
X238008D01*
Y268520D01*
D02*
G37*
G36*
X233760D02*
X230496D01*
Y265256D01*
X233760D01*
Y268520D01*
D02*
G37*
G36*
X238008Y264272D02*
X234744D01*
Y261008D01*
X238008D01*
Y264272D01*
D02*
G37*
G36*
X233760D02*
X230496D01*
Y261008D01*
X233760D01*
Y264272D01*
D02*
G37*
G36*
X201319Y259115D02*
X198918D01*
Y254429D01*
X203603D01*
Y256831D01*
X203429Y257705D01*
X202934Y258446D01*
X202193Y258941D01*
X201319Y259115D01*
D02*
G37*
G36*
X197933D02*
X195532D01*
X194658Y258941D01*
X193917Y258446D01*
X193422Y257705D01*
X193248Y256831D01*
Y254429D01*
X197933D01*
Y259115D01*
D02*
G37*
G36*
X188721D02*
X186319D01*
Y254429D01*
X191005D01*
Y256831D01*
X190831Y257705D01*
X190336Y258446D01*
X189595Y258941D01*
X188721Y259115D01*
D02*
G37*
G36*
X185335D02*
X182933D01*
X182059Y258941D01*
X181318Y258446D01*
X180823Y257705D01*
X180649Y256831D01*
Y254429D01*
X185335D01*
Y259115D01*
D02*
G37*
G36*
X203603Y253445D02*
X198918D01*
Y248759D01*
X201319D01*
X202193Y248933D01*
X202934Y249428D01*
X203429Y250169D01*
X203603Y251043D01*
Y253445D01*
D02*
G37*
G36*
X197933D02*
X193248D01*
Y251043D01*
X193422Y250169D01*
X193917Y249428D01*
X194658Y248933D01*
X195532Y248759D01*
X197933D01*
Y253445D01*
D02*
G37*
G36*
X191005Y253445D02*
X186319D01*
Y248759D01*
X188721D01*
X189595Y248933D01*
X190336Y249428D01*
X190831Y250169D01*
X191005Y251043D01*
Y253445D01*
D02*
G37*
G36*
X185335D02*
X180649D01*
Y251043D01*
X180823Y250169D01*
X181318Y249428D01*
X182059Y248933D01*
X182933Y248759D01*
X185335D01*
Y253445D01*
D02*
G37*
G36*
X381536Y198518D02*
X378248D01*
Y193248D01*
X383519D01*
Y196535D01*
X383367Y197294D01*
X382938Y197938D01*
X382294Y198368D01*
X381536Y198518D01*
D02*
G37*
G36*
X377264D02*
X373976D01*
X373218Y198368D01*
X372574Y197938D01*
X372144Y197294D01*
X371993Y196535D01*
Y193248D01*
X377264D01*
Y198518D01*
D02*
G37*
G36*
X383519Y192264D02*
X378248D01*
Y186993D01*
X381536D01*
X382294Y187144D01*
X382938Y187574D01*
X383367Y188217D01*
X383519Y188976D01*
Y192264D01*
D02*
G37*
G36*
X377264D02*
X371993D01*
Y188976D01*
X372144Y188217D01*
X372574Y187574D01*
X373218Y187144D01*
X373976Y186993D01*
X377264D01*
Y192264D01*
D02*
G37*
G36*
X343150Y178628D02*
X335984D01*
X335078Y178448D01*
X334310Y177935D01*
X333796Y177166D01*
X333616Y176260D01*
Y169095D01*
X333796Y168188D01*
X334310Y167420D01*
X335078Y166906D01*
X335984Y166726D01*
X343150D01*
X344056Y166906D01*
X344824Y167420D01*
X345338Y168188D01*
X345518Y169095D01*
Y176260D01*
X345338Y177166D01*
X344824Y177935D01*
X344056Y178448D01*
X343150Y178628D01*
D02*
G37*
G36*
X366945Y160252D02*
X363681D01*
Y156988D01*
X366945D01*
Y160252D01*
D02*
G37*
G36*
X362697D02*
X359433D01*
Y156988D01*
X362697D01*
Y160252D01*
D02*
G37*
G36*
X366945Y156004D02*
X363681D01*
Y152740D01*
X366945D01*
Y156004D01*
D02*
G37*
G36*
X362697D02*
X359433D01*
Y152740D01*
X362697D01*
Y156004D01*
D02*
G37*
G36*
X280023Y255952D02*
X279101Y255768D01*
X278320Y255246D01*
X277931Y254665D01*
X242619D01*
X242319Y255114D01*
X241537Y255636D01*
X240616Y255819D01*
X239694Y255636D01*
X238913Y255114D01*
X238390Y254332D01*
X238207Y253411D01*
X238390Y252489D01*
X238913Y251708D01*
X239694Y251186D01*
X240616Y251002D01*
X241537Y251186D01*
X242238Y251654D01*
X278598D01*
X279101Y251318D01*
X280023Y251135D01*
X280945Y251318D01*
X281726Y251840D01*
X282248Y252622D01*
X282431Y253543D01*
X282248Y254465D01*
X281726Y255246D01*
X280945Y255768D01*
X280023Y255952D01*
D02*
G37*
%LPD*%
G36*
X59811Y154693D02*
X59811Y154693D01*
X60371Y154234D01*
X60831Y153857D01*
X61993Y153235D01*
X63255Y152853D01*
X64567Y152724D01*
X112962D01*
X116109Y149576D01*
Y141381D01*
X104707Y129978D01*
X103797Y128869D01*
X103120Y127604D01*
X102704Y126231D01*
X102563Y124803D01*
X102704Y123375D01*
X103120Y122002D01*
X103526Y121243D01*
X82677Y100394D01*
X43307D01*
X9843Y133858D01*
Y147638D01*
X15902Y153698D01*
X16915Y153157D01*
X18176Y152774D01*
X19488Y152645D01*
X42165D01*
X43477Y152774D01*
X44739Y153157D01*
X45902Y153778D01*
X46921Y154615D01*
X49787Y157480D01*
X57024D01*
X59811Y154693D01*
D02*
G37*
%LPC*%
G36*
X55216Y156470D02*
X53642D01*
Y152972D01*
X57139D01*
Y154547D01*
X56993Y155283D01*
X56576Y155907D01*
X55952Y156324D01*
X55216Y156470D01*
D02*
G37*
G36*
X52658D02*
X51083D01*
X50347Y156324D01*
X49723Y155907D01*
X49306Y155283D01*
X49160Y154547D01*
Y152972D01*
X52658D01*
Y156470D01*
D02*
G37*
G36*
X57139Y151988D02*
X53642D01*
Y148491D01*
X55216D01*
X55952Y148637D01*
X56576Y149054D01*
X56993Y149678D01*
X57139Y150413D01*
Y151988D01*
D02*
G37*
G36*
X52658D02*
X49160D01*
Y150413D01*
X49306Y149678D01*
X49723Y149054D01*
X50347Y148637D01*
X51083Y148491D01*
X52658D01*
Y151988D01*
D02*
G37*
G36*
X34981Y150847D02*
X32579D01*
Y146161D01*
X37265D01*
Y148563D01*
X37091Y149437D01*
X36596Y150178D01*
X35855Y150673D01*
X34981Y150847D01*
D02*
G37*
G36*
X31595D02*
X29193D01*
X28319Y150673D01*
X27578Y150178D01*
X27083Y149437D01*
X26909Y148563D01*
Y146161D01*
X31595D01*
Y150847D01*
D02*
G37*
G36*
X78362Y149228D02*
X75295D01*
Y146161D01*
X78362D01*
Y149228D01*
D02*
G37*
G36*
X74311D02*
X71244D01*
Y146161D01*
X74311D01*
Y149228D01*
D02*
G37*
G36*
X110843D02*
X107776D01*
Y146161D01*
X110843D01*
Y149228D01*
D02*
G37*
G36*
X106791D02*
X103724D01*
Y146161D01*
X106791D01*
Y149228D01*
D02*
G37*
G36*
X22382Y150768D02*
X19980D01*
Y146083D01*
X24666D01*
Y148484D01*
X24492Y149358D01*
X23997Y150099D01*
X23256Y150594D01*
X22382Y150768D01*
D02*
G37*
G36*
X18996D02*
X16595D01*
X15721Y150594D01*
X14979Y150099D01*
X14484Y149358D01*
X14311Y148484D01*
Y146083D01*
X18996D01*
Y150768D01*
D02*
G37*
G36*
X110843Y145177D02*
X107776D01*
Y142110D01*
X110843D01*
Y145177D01*
D02*
G37*
G36*
X106791D02*
X103724D01*
Y142110D01*
X106791D01*
Y145177D01*
D02*
G37*
G36*
X78362Y145177D02*
X75295D01*
Y142110D01*
X78362D01*
Y145177D01*
D02*
G37*
G36*
X74311D02*
X71244D01*
Y142110D01*
X74311D01*
Y145177D01*
D02*
G37*
G36*
X37265Y145177D02*
X32579D01*
Y140492D01*
X34981D01*
X35855Y140665D01*
X36596Y141161D01*
X37091Y141902D01*
X37265Y142776D01*
Y145177D01*
D02*
G37*
G36*
X31595D02*
X26909D01*
Y142776D01*
X27083Y141902D01*
X27578Y141161D01*
X28319Y140665D01*
X29193Y140492D01*
X31595D01*
Y145177D01*
D02*
G37*
G36*
X24666Y145098D02*
X19980D01*
Y140413D01*
X22382D01*
X23256Y140587D01*
X23997Y141082D01*
X24492Y141823D01*
X24666Y142697D01*
Y145098D01*
D02*
G37*
G36*
X18996D02*
X14311D01*
Y142697D01*
X14484Y141823D01*
X14979Y141082D01*
X15721Y140587D01*
X16595Y140413D01*
X18996D01*
Y145098D01*
D02*
G37*
G36*
X30374Y130902D02*
Y125295D01*
X35981D01*
X35912Y126003D01*
X35562Y127156D01*
X34993Y128219D01*
X34229Y129150D01*
X33297Y129915D01*
X32234Y130483D01*
X31081Y130833D01*
X30374Y130902D01*
D02*
G37*
G36*
X29390D02*
X28683Y130833D01*
X27529Y130483D01*
X26466Y129915D01*
X25535Y129150D01*
X24770Y128219D01*
X24202Y127156D01*
X23852Y126003D01*
X23783Y125295D01*
X29390D01*
Y130902D01*
D02*
G37*
G36*
X69882Y130737D02*
X68724Y130623D01*
X67611Y130286D01*
X66585Y129737D01*
X65686Y128999D01*
X64948Y128100D01*
X64399Y127074D01*
X64062Y125961D01*
X63948Y124803D01*
X64062Y123645D01*
X64399Y122532D01*
X64948Y121506D01*
X65686Y120607D01*
X66585Y119869D01*
X67611Y119321D01*
X68724Y118983D01*
X69882Y118869D01*
X71040Y118983D01*
X72153Y119321D01*
X73179Y119869D01*
X74078Y120607D01*
X74816Y121506D01*
X75364Y122532D01*
X75702Y123645D01*
X75816Y124803D01*
X75702Y125961D01*
X75364Y127074D01*
X74816Y128100D01*
X74078Y128999D01*
X73179Y129737D01*
X72153Y130286D01*
X71040Y130623D01*
X69882Y130737D01*
D02*
G37*
G36*
X35981Y124311D02*
X30374D01*
Y118704D01*
X31081Y118774D01*
X32234Y119123D01*
X33297Y119692D01*
X34229Y120456D01*
X34993Y121388D01*
X35562Y122450D01*
X35912Y123604D01*
X35981Y124311D01*
D02*
G37*
G36*
X29390D02*
X23783D01*
X23852Y123604D01*
X24202Y122450D01*
X24770Y121388D01*
X25535Y120456D01*
X26466Y119692D01*
X27529Y119123D01*
X28683Y118774D01*
X29390Y118704D01*
Y124311D01*
D02*
G37*
%LPD*%
G36*
X340551Y118110D02*
X346457Y112205D01*
X346457Y90551D01*
X342520Y86614D01*
X308762D01*
X305118Y90258D01*
X305118Y111220D01*
X312008Y118110D01*
X340551Y118110D01*
D02*
G37*
G36*
X161714Y29386D02*
X162907Y28892D01*
X163974Y28073D01*
X167679Y24368D01*
X168498Y23301D01*
X168992Y22107D01*
X169168Y20774D01*
Y16711D01*
X168697Y16542D01*
X168560Y16709D01*
X167628Y17474D01*
X166565Y18042D01*
X165412Y18392D01*
X164705Y18461D01*
Y12362D01*
X163721D01*
Y18461D01*
X163013Y18392D01*
X161860Y18042D01*
X160797Y17474D01*
X159865Y16709D01*
X159728Y16542D01*
X159257Y16711D01*
Y18442D01*
X159196Y18749D01*
X159022Y19010D01*
X159022Y19010D01*
X158616Y19416D01*
X158616Y19416D01*
X158355Y19590D01*
X158048Y19651D01*
X145629D01*
X145533Y19632D01*
X145434Y19627D01*
X145380Y19602D01*
X145322Y19590D01*
X145298Y19574D01*
X144213Y19681D01*
X129528D01*
X129226Y19651D01*
X108714D01*
X107381Y19827D01*
X106187Y20321D01*
X105766Y20645D01*
X106018Y21081D01*
X106354Y20942D01*
X106791Y20885D01*
Y24409D01*
Y27934D01*
X106354Y27877D01*
X105489Y27518D01*
X105133Y27246D01*
X104777Y27602D01*
X105163Y28105D01*
X106187Y28892D01*
X107381Y29386D01*
X108714Y29561D01*
X160380D01*
X161714Y29386D01*
D02*
G37*
G36*
X182283Y36220D02*
X245669D01*
X274409Y36220D01*
X280468Y42279D01*
X280967Y42246D01*
X281078Y42101D01*
X281777Y41565D01*
X282591Y41228D01*
X283465Y41113D01*
X284338Y41228D01*
X285152Y41565D01*
X285851Y42101D01*
X286388Y42801D01*
X286725Y43615D01*
X286840Y44488D01*
X286725Y45362D01*
X286388Y46176D01*
X285851Y46875D01*
X285707Y46986D01*
X285674Y47485D01*
X293307Y55118D01*
X319685Y55118D01*
X321260Y53543D01*
Y39370D01*
X319291Y37402D01*
X303150D01*
X299443Y33904D01*
X297736D01*
X296814Y33721D01*
X296033Y33199D01*
X284714Y21880D01*
X284471Y21516D01*
X284071Y21276D01*
X281004D01*
Y17717D01*
X280512D01*
Y17224D01*
X276953D01*
Y16732D01*
X276368D01*
X275949Y17232D01*
X276013Y17717D01*
X275898Y18590D01*
X275561Y19404D01*
X275025Y20103D01*
X274325Y20640D01*
X273511Y20977D01*
X272638Y21092D01*
X271764Y20977D01*
X270950Y20640D01*
X270251Y20103D01*
X269715Y19404D01*
X269377Y18590D01*
X269263Y17717D01*
X269377Y16843D01*
X269500Y16547D01*
X266732Y13780D01*
X226008Y13780D01*
X217701D01*
X217701Y13780D01*
X217701Y13780D01*
X217323D01*
X210271Y6728D01*
X207259D01*
X207134Y7228D01*
X207509Y7428D01*
X208409Y8166D01*
X209147Y9065D01*
X209695Y10091D01*
X210033Y11204D01*
X210147Y12362D01*
X210033Y13520D01*
X209695Y14633D01*
X209147Y15659D01*
X208409Y16558D01*
X207509Y17296D01*
X206484Y17845D01*
X205370Y18182D01*
X204213Y18296D01*
X203055Y18182D01*
X201942Y17845D01*
X200916Y17296D01*
X200017Y16558D01*
X199279Y15659D01*
X198730Y14633D01*
X198392Y13520D01*
X198278Y12362D01*
X198392Y11204D01*
X198730Y10091D01*
X199279Y9065D01*
X200017Y8166D01*
X200916Y7428D01*
X201291Y7228D01*
X201166Y6728D01*
X167259D01*
X167134Y7228D01*
X167509Y7428D01*
X168409Y8166D01*
X169147Y9065D01*
X169695Y10091D01*
X170033Y11204D01*
X170147Y12362D01*
X170033Y13520D01*
X169971Y13725D01*
Y20827D01*
X169774Y22317D01*
X169199Y23706D01*
X168284Y24898D01*
X164505Y28678D01*
X163312Y29593D01*
X161923Y30168D01*
X160433Y30364D01*
X108661D01*
X107171Y30168D01*
X105782Y29593D01*
X104590Y28678D01*
X103675Y27485D01*
X103100Y26097D01*
X102903Y24606D01*
X103100Y23116D01*
X103675Y21727D01*
X104590Y20535D01*
X105782Y19620D01*
X107171Y19045D01*
X108661Y18848D01*
X142796D01*
X142870Y18348D01*
X141860Y18042D01*
X140797Y17474D01*
X139866Y16709D01*
X139101Y15778D01*
X138533Y14715D01*
X138183Y13562D01*
X138113Y12854D01*
X144213D01*
X150312D01*
X150242Y13562D01*
X149892Y14715D01*
X149324Y15778D01*
X148560Y16709D01*
X147628Y17474D01*
X146565Y18042D01*
X145555Y18348D01*
X145629Y18848D01*
X158048D01*
X158455Y18442D01*
Y13725D01*
X158393Y13520D01*
X158279Y12362D01*
X158393Y11204D01*
X158730Y10091D01*
X159279Y9065D01*
X160017Y8166D01*
X160916Y7428D01*
X161291Y7228D01*
X161166Y6728D01*
X148057D01*
X147505Y6618D01*
X147334Y7094D01*
X147628Y7251D01*
X148560Y8015D01*
X149324Y8947D01*
X149892Y10010D01*
X150242Y11163D01*
X150312Y11870D01*
X144213D01*
X138113D01*
X138183Y11163D01*
X138533Y10010D01*
X139101Y8947D01*
X139866Y8015D01*
X140797Y7251D01*
X141860Y6683D01*
X141767Y6188D01*
X116339D01*
X116329Y6199D01*
X116025Y6401D01*
X115876Y6624D01*
X115095Y7146D01*
X114173Y7330D01*
X113251Y7146D01*
X112470Y6624D01*
X111948Y5843D01*
X111765Y4921D01*
X111861Y4437D01*
X111451Y3937D01*
X35433D01*
X28346Y11024D01*
Y39370D01*
X54724Y65748D01*
X152756D01*
X182283Y36220D01*
D02*
G37*
%LPC*%
G36*
X107776Y27934D02*
Y24902D01*
X110808D01*
X110751Y25339D01*
X110392Y26204D01*
X109822Y26948D01*
X109078Y27518D01*
X108213Y27877D01*
X107776Y27934D01*
D02*
G37*
G36*
X110808Y23917D02*
X107776D01*
Y20885D01*
X108213Y20942D01*
X109078Y21301D01*
X109822Y21871D01*
X110392Y22615D01*
X110751Y23480D01*
X110808Y23917D01*
D02*
G37*
G36*
X300803Y48047D02*
X297736D01*
Y44980D01*
X300803D01*
Y48047D01*
D02*
G37*
G36*
X296752D02*
X293685D01*
Y44980D01*
X296752D01*
Y48047D01*
D02*
G37*
G36*
X60374Y50587D02*
Y44980D01*
X65981D01*
X65912Y45687D01*
X65562Y46841D01*
X64994Y47904D01*
X64229Y48835D01*
X63297Y49600D01*
X62234Y50168D01*
X61081Y50518D01*
X60374Y50587D01*
D02*
G37*
G36*
X59390D02*
X58683Y50518D01*
X57529Y50168D01*
X56466Y49600D01*
X55535Y48835D01*
X54770Y47904D01*
X54202Y46841D01*
X53852Y45687D01*
X53783Y44980D01*
X59390D01*
Y50587D01*
D02*
G37*
G36*
X300803Y43996D02*
X297736D01*
Y40929D01*
X300803D01*
Y43996D01*
D02*
G37*
G36*
X296752D02*
X293685D01*
Y40929D01*
X296752D01*
Y43996D01*
D02*
G37*
G36*
X110039Y50422D02*
X108882Y50308D01*
X107768Y49971D01*
X106743Y49422D01*
X105843Y48684D01*
X105105Y47785D01*
X104557Y46759D01*
X104219Y45646D01*
X104105Y44488D01*
X104219Y43330D01*
X104557Y42217D01*
X105105Y41191D01*
X105843Y40292D01*
X106743Y39554D01*
X107768Y39006D01*
X108882Y38668D01*
X110039Y38554D01*
X111197Y38668D01*
X112310Y39006D01*
X113336Y39554D01*
X114235Y40292D01*
X114973Y41191D01*
X115522Y42217D01*
X115859Y43330D01*
X115973Y44488D01*
X115859Y45646D01*
X115522Y46759D01*
X114973Y47785D01*
X114235Y48684D01*
X113336Y49422D01*
X112310Y49971D01*
X111197Y50308D01*
X110039Y50422D01*
D02*
G37*
G36*
X65981Y43996D02*
X60374D01*
Y38389D01*
X61081Y38459D01*
X62234Y38808D01*
X63297Y39377D01*
X64229Y40141D01*
X64994Y41073D01*
X65562Y42136D01*
X65912Y43289D01*
X65981Y43996D01*
D02*
G37*
G36*
X59390D02*
X53783D01*
X53852Y43289D01*
X54202Y42136D01*
X54770Y41073D01*
X55535Y40141D01*
X56466Y39377D01*
X57529Y38808D01*
X58683Y38459D01*
X59390Y38389D01*
Y43996D01*
D02*
G37*
G36*
X280020Y21276D02*
X276953D01*
Y18209D01*
X280020D01*
Y21276D01*
D02*
G37*
G36*
X79882Y51807D02*
X78454Y51666D01*
X77081Y51250D01*
X75816Y50573D01*
X74707Y49663D01*
X56968Y31925D01*
X47244D01*
X45816Y31784D01*
X44443Y31368D01*
X43178Y30692D01*
X42069Y29781D01*
X41159Y28672D01*
X40483Y27407D01*
X40066Y26034D01*
X39925Y24606D01*
X40066Y23178D01*
X40483Y21806D01*
X41159Y20540D01*
X42069Y19431D01*
X43178Y18521D01*
X44443Y17845D01*
X45816Y17428D01*
X47244Y17288D01*
X60000D01*
X61428Y17428D01*
X62801Y17845D01*
X64066Y18521D01*
X65175Y19431D01*
X85057Y39313D01*
X85967Y40422D01*
X86643Y41687D01*
X87060Y43060D01*
X87201Y44488D01*
X87060Y45916D01*
X86643Y47289D01*
X85967Y48554D01*
X85057Y49663D01*
X83948Y50573D01*
X82683Y51250D01*
X81310Y51666D01*
X79882Y51807D01*
D02*
G37*
G36*
X50803Y14386D02*
X47736D01*
Y11319D01*
X50803D01*
Y14386D01*
D02*
G37*
G36*
X46752D02*
X43685D01*
Y11319D01*
X46752D01*
Y14386D01*
D02*
G37*
G36*
X110843Y14189D02*
X107776D01*
Y11122D01*
X110843D01*
Y14189D01*
D02*
G37*
G36*
X106791D02*
X103724D01*
Y11122D01*
X106791D01*
Y14189D01*
D02*
G37*
G36*
X50803Y10335D02*
X47736D01*
Y7268D01*
X50803D01*
Y10335D01*
D02*
G37*
G36*
X46752D02*
X43685D01*
Y7268D01*
X46752D01*
Y10335D01*
D02*
G37*
G36*
X110843Y10138D02*
X107776D01*
Y7071D01*
X110843D01*
Y10138D01*
D02*
G37*
G36*
X106791D02*
X103724D01*
Y7071D01*
X106791D01*
Y10138D01*
D02*
G37*
%LPD*%
G36*
X74770Y47904D02*
X74202Y46841D01*
X73852Y45687D01*
X73783Y44980D01*
X79882D01*
Y44488D01*
X80374D01*
Y38389D01*
X81081Y38459D01*
X82235Y38808D01*
X83297Y39377D01*
X83592Y38983D01*
X64635Y20027D01*
X63618Y19192D01*
X62492Y18590D01*
X61270Y18219D01*
X59961Y18090D01*
X47284D01*
X45974Y18219D01*
X44752Y18590D01*
X43626Y19192D01*
X42639Y20002D01*
X41830Y20988D01*
X41228Y22114D01*
X40857Y23336D01*
X40732Y24606D01*
X40857Y25877D01*
X41228Y27098D01*
X41830Y28224D01*
X42639Y29211D01*
X43626Y30021D01*
X44752Y30623D01*
X45974Y30993D01*
X47284Y31122D01*
X56968D01*
X56968Y31122D01*
X57276Y31183D01*
X57536Y31357D01*
X74377Y48198D01*
X74770Y47904D01*
D02*
G37*
%LPC*%
G36*
X79390Y43996D02*
X73783D01*
X73852Y43289D01*
X74202Y42136D01*
X74770Y41073D01*
X75535Y40141D01*
X76466Y39377D01*
X77529Y38808D01*
X78683Y38459D01*
X79390Y38389D01*
Y43996D01*
D02*
G37*
G36*
X47736Y28131D02*
Y25098D01*
X50769D01*
X50712Y25535D01*
X50353Y26401D01*
X49782Y27145D01*
X49039Y27715D01*
X48173Y28074D01*
X47736Y28131D01*
D02*
G37*
G36*
X46752D02*
X46315Y28074D01*
X45449Y27715D01*
X44706Y27145D01*
X44135Y26401D01*
X43777Y25535D01*
X43719Y25098D01*
X46752D01*
Y28131D01*
D02*
G37*
G36*
X50769Y24114D02*
X47736D01*
Y21081D01*
X48173Y21139D01*
X49039Y21497D01*
X49782Y22068D01*
X50353Y22811D01*
X50712Y23677D01*
X50769Y24114D01*
D02*
G37*
G36*
X46752D02*
X43719D01*
X43777Y23677D01*
X44135Y22811D01*
X44706Y22068D01*
X45449Y21497D01*
X46315Y21139D01*
X46752Y21081D01*
Y24114D01*
D02*
G37*
G36*
X21161Y226989D02*
Y220512D01*
X24704D01*
Y223020D01*
X24566Y224064D01*
X24163Y225037D01*
X23522Y225872D01*
X22686Y226514D01*
X21713Y226917D01*
X21161Y226989D01*
D02*
G37*
G36*
X20177D02*
X19625Y226917D01*
X18652Y226514D01*
X17816Y225872D01*
X17175Y225037D01*
X16772Y224064D01*
X16635Y223020D01*
Y220512D01*
X20177D01*
Y226989D01*
D02*
G37*
G36*
X57139Y219705D02*
X53642D01*
Y216207D01*
X55216D01*
X55952Y216354D01*
X56576Y216770D01*
X56993Y217394D01*
X57139Y218130D01*
Y219705D01*
D02*
G37*
G36*
X52658D02*
X49160D01*
Y218130D01*
X49306Y217394D01*
X49723Y216770D01*
X50347Y216354D01*
X51083Y216207D01*
X52658D01*
Y219705D01*
D02*
G37*
G36*
X195488Y216158D02*
X192421D01*
Y213091D01*
X195488D01*
Y216158D01*
D02*
G37*
G36*
X191437D02*
X188370D01*
Y213091D01*
X191437D01*
Y216158D01*
D02*
G37*
G36*
X163008Y216158D02*
X159941D01*
Y213090D01*
X163008D01*
Y216158D01*
D02*
G37*
G36*
X158957D02*
X155890D01*
Y213090D01*
X158957D01*
Y216158D01*
D02*
G37*
G36*
X127066Y219528D02*
X123524D01*
Y213050D01*
X124076Y213123D01*
X125049Y213526D01*
X125884Y214167D01*
X126525Y215002D01*
X126928Y215975D01*
X127066Y217020D01*
Y219528D01*
D02*
G37*
G36*
X122539D02*
X118997D01*
Y217020D01*
X119134Y215975D01*
X119537Y215002D01*
X120179Y214167D01*
X121014Y213526D01*
X121987Y213123D01*
X122539Y213050D01*
Y219528D01*
D02*
G37*
G36*
X84743D02*
X81201D01*
Y213050D01*
X81753Y213123D01*
X82726Y213526D01*
X83561Y214167D01*
X84203Y215002D01*
X84606Y215975D01*
X84743Y217020D01*
Y219528D01*
D02*
G37*
G36*
X80216D02*
X76674D01*
Y217020D01*
X76812Y215975D01*
X77215Y215002D01*
X77856Y214167D01*
X78691Y213526D01*
X79664Y213123D01*
X80216Y213050D01*
Y219528D01*
D02*
G37*
G36*
X24704Y219528D02*
X21161D01*
Y213050D01*
X21713Y213123D01*
X22686Y213526D01*
X23522Y214167D01*
X24163Y215002D01*
X24566Y215975D01*
X24704Y217020D01*
Y219528D01*
D02*
G37*
G36*
X20177D02*
X16635D01*
Y217020D01*
X16772Y215975D01*
X17175Y215002D01*
X17816Y214167D01*
X18652Y213526D01*
X19625Y213123D01*
X20177Y213050D01*
Y219528D01*
D02*
G37*
G36*
X195488Y212106D02*
X192421D01*
Y209039D01*
X195488D01*
Y212106D01*
D02*
G37*
G36*
X191437D02*
X188370D01*
Y209039D01*
X191437D01*
Y212106D01*
D02*
G37*
G36*
X163008Y212106D02*
X159941D01*
Y209039D01*
X163008D01*
Y212106D01*
D02*
G37*
G36*
X158957D02*
X155890D01*
Y209039D01*
X158957D01*
Y212106D01*
D02*
G37*
G36*
X134705Y198461D02*
Y192854D01*
X140312D01*
X140242Y193562D01*
X139892Y194715D01*
X139324Y195778D01*
X138560Y196709D01*
X137628Y197474D01*
X136565Y198042D01*
X135412Y198392D01*
X134705Y198461D01*
D02*
G37*
G36*
X133721D02*
X133013Y198392D01*
X131860Y198042D01*
X130797Y197474D01*
X129866Y196709D01*
X129101Y195778D01*
X128533Y194715D01*
X128183Y193562D01*
X128113Y192854D01*
X133721D01*
Y198461D01*
D02*
G37*
G36*
X245627Y224705D02*
X240020D01*
Y219098D01*
X240727Y219167D01*
X241880Y219517D01*
X242943Y220085D01*
X243875Y220850D01*
X244639Y221781D01*
X245207Y222844D01*
X245557Y223997D01*
X245627Y224705D01*
D02*
G37*
G36*
X239035D02*
X233428D01*
X233498Y223997D01*
X233848Y222844D01*
X234416Y221781D01*
X235180Y220850D01*
X236112Y220085D01*
X237175Y219517D01*
X238328Y219167D01*
X239035Y219098D01*
Y224705D01*
D02*
G37*
G36*
X55216Y191352D02*
X53642D01*
Y187854D01*
X57139D01*
Y189429D01*
X56993Y190165D01*
X56576Y190789D01*
X55952Y191206D01*
X55216Y191352D01*
D02*
G37*
G36*
X52658D02*
X51083D01*
X50347Y191206D01*
X49723Y190789D01*
X49306Y190165D01*
X49160Y189429D01*
Y187854D01*
X52658D01*
Y191352D01*
D02*
G37*
G36*
X214213Y198296D02*
X213055Y198182D01*
X211942Y197845D01*
X210916Y197296D01*
X210017Y196558D01*
X209279Y195659D01*
X208730Y194633D01*
X208393Y193520D01*
X208278Y192362D01*
X208393Y191205D01*
X208730Y190091D01*
X209279Y189065D01*
X210017Y188166D01*
X210916Y187428D01*
X211942Y186880D01*
X213055Y186542D01*
X214213Y186428D01*
X215370Y186542D01*
X216483Y186880D01*
X217509Y187428D01*
X218409Y188166D01*
X219147Y189065D01*
X219695Y190091D01*
X220033Y191205D01*
X220147Y192362D01*
X220033Y193520D01*
X219695Y194633D01*
X219147Y195659D01*
X218409Y196558D01*
X217509Y197296D01*
X216483Y197845D01*
X215370Y198182D01*
X214213Y198296D01*
D02*
G37*
G36*
X57139Y186870D02*
X53642D01*
Y183372D01*
X55216D01*
X55952Y183519D01*
X56576Y183936D01*
X56993Y184560D01*
X57139Y185295D01*
Y186870D01*
D02*
G37*
G36*
X52658D02*
X49160D01*
Y185295D01*
X49306Y184560D01*
X49723Y183936D01*
X50347Y183519D01*
X51083Y183372D01*
X52658D01*
Y186870D01*
D02*
G37*
G36*
X34981Y187264D02*
X32579D01*
Y182579D01*
X37265D01*
Y184980D01*
X37091Y185854D01*
X36596Y186595D01*
X35855Y187091D01*
X34981Y187264D01*
D02*
G37*
G36*
X22382D02*
X19980D01*
Y182579D01*
X24666D01*
Y184980D01*
X24492Y185854D01*
X23997Y186595D01*
X23256Y187091D01*
X22382Y187264D01*
D02*
G37*
G36*
X31595D02*
X29193D01*
X28319Y187091D01*
X27578Y186595D01*
X27083Y185854D01*
X26909Y184980D01*
Y182579D01*
X31595D01*
Y187264D01*
D02*
G37*
G36*
X18996D02*
X16595D01*
X15721Y187091D01*
X14979Y186595D01*
X14484Y185854D01*
X14311Y184980D01*
Y182579D01*
X18996D01*
Y187264D01*
D02*
G37*
G36*
X78362Y183047D02*
X75295D01*
Y179980D01*
X78362D01*
Y183047D01*
D02*
G37*
G36*
X74311D02*
X71244D01*
Y179980D01*
X74311D01*
Y183047D01*
D02*
G37*
G36*
X110843D02*
X107776D01*
Y179980D01*
X110843D01*
Y183047D01*
D02*
G37*
G36*
X106791D02*
X103724D01*
Y179980D01*
X106791D01*
Y183047D01*
D02*
G37*
G36*
X37265Y181595D02*
X32579D01*
Y176909D01*
X34981D01*
X35855Y177083D01*
X36596Y177578D01*
X37091Y178319D01*
X37265Y179193D01*
Y181595D01*
D02*
G37*
G36*
X31595D02*
X26909D01*
Y179193D01*
X27083Y178319D01*
X27578Y177578D01*
X28319Y177083D01*
X29193Y176909D01*
X31595D01*
Y181595D01*
D02*
G37*
G36*
X24666D02*
X19980D01*
Y176909D01*
X22382D01*
X23256Y177083D01*
X23997Y177578D01*
X24492Y178319D01*
X24666Y179193D01*
Y181595D01*
D02*
G37*
G36*
X18996D02*
X14311D01*
Y179193D01*
X14484Y178319D01*
X14979Y177578D01*
X15721Y177083D01*
X16595Y176909D01*
X18996D01*
Y181595D01*
D02*
G37*
G36*
X110843Y178996D02*
X107776D01*
Y175929D01*
X110843D01*
Y178996D01*
D02*
G37*
G36*
X106791D02*
X103724D01*
Y175929D01*
X106791D01*
Y178996D01*
D02*
G37*
G36*
X78362Y178996D02*
X75295D01*
Y175929D01*
X78362D01*
Y178996D01*
D02*
G37*
G36*
X74311D02*
X71244D01*
Y175929D01*
X74311D01*
Y178996D01*
D02*
G37*
%LPD*%
D35*
X297982Y310882D02*
X301631Y314532D01*
X222205Y278119D02*
X254976Y310891D01*
X159449Y226378D02*
X196359D01*
X116220Y250000D02*
X132873D01*
X128633Y231101D02*
Y249696D01*
X279134Y310891D02*
X283003D01*
X254976D02*
X279134D01*
X224016Y10630D02*
X265748D01*
X220079D02*
X224016D01*
X189747Y198425D02*
X202298Y210977D01*
X180276Y198425D02*
X189747D01*
X46050Y316155D02*
X47244Y314961D01*
X42913Y319291D02*
X46050Y316155D01*
X39325Y309431D02*
X46050Y316155D01*
X39325Y297289D02*
Y309431D01*
Y297289D02*
X43012Y293602D01*
X39396Y289987D02*
X43012Y293602D01*
X39396Y267690D02*
Y289987D01*
Y267690D02*
X42913Y264173D01*
X47146Y280315D02*
X51083Y276378D01*
Y254626D02*
Y276378D01*
X47146Y306693D02*
X50197Y303642D01*
Y283366D02*
Y303642D01*
X47146Y280315D02*
X50197Y283366D01*
X203150Y226378D02*
X203150D01*
X87437Y254634D02*
X90102Y251969D01*
X51091Y254634D02*
X87437D01*
X51083Y254626D02*
X51091Y254634D01*
X85630Y314961D02*
X91017Y320348D01*
X93504Y285433D02*
X106299D01*
X114173Y277559D01*
Y264055D02*
Y277559D01*
X46850Y250394D02*
X51083Y254626D01*
X90102Y251969D02*
X97737D01*
X100394Y254626D01*
X47244Y314961D02*
X85630D01*
X100394Y254626D02*
Y262008D01*
X102165Y263779D01*
X106299D01*
X121260Y269488D02*
X126969Y263779D01*
X106220Y250000D02*
X106299Y250079D01*
Y263779D01*
X198031Y231496D02*
X203150Y226378D01*
X91017Y320348D02*
X98550D01*
X121260Y297638D01*
Y269488D02*
Y297638D01*
X297736Y31496D02*
X329724D01*
X340551Y42323D01*
X286417Y20177D02*
X297736Y31496D01*
X282890Y10630D02*
X286417Y14157D01*
Y20177D01*
X196359Y226378D02*
X202298Y220439D01*
Y210977D02*
Y220439D01*
X303937Y267323D02*
X325197D01*
X332677Y259842D01*
X283003Y310891D02*
X283012Y310882D01*
X297982D01*
X301631Y314532D02*
X335143D01*
X338976Y310699D01*
X272638Y10630D02*
Y17717D01*
X265748Y10630D02*
X272638D01*
X282890D01*
X280512Y17717D02*
Y24606D01*
X279754Y48199D02*
X283465Y44488D01*
X138581Y227362D02*
X142715Y231496D01*
X198031D01*
X133031Y220020D02*
X140217D01*
X146575Y226378D01*
X159449D01*
X114173Y264055D02*
X121339Y256890D01*
X132874D01*
X139764Y263779D01*
X147638D01*
X144764Y256890D02*
X151654Y250000D01*
X139763Y256890D02*
X144764D01*
X132873Y250000D02*
X139763Y256890D01*
X377756Y212756D02*
Y237992D01*
X379921Y240158D01*
X147638Y277559D02*
X161417Y291339D01*
X147638Y271654D02*
Y277559D01*
D36*
X179134Y339567D02*
X195866D01*
X102362Y323819D02*
X126969Y299213D01*
X20866Y59193D02*
Y88189D01*
X9843Y113189D02*
X11405D01*
X4331Y42658D02*
X7520Y39469D01*
X4331Y42658D02*
X20866Y59193D01*
Y88189D02*
Y91142D01*
X4331Y107677D02*
X20866Y91142D01*
X4331Y107677D02*
X9843Y113189D01*
X11405D02*
X19154D01*
X10624Y113970D02*
X11405Y113189D01*
X10624Y113970D02*
Y126464D01*
X148057Y4921D02*
X229331D01*
X248819Y46457D02*
X252756Y42520D01*
X236221Y46457D02*
X248819D01*
X235039Y45276D02*
X236221Y46457D01*
X252756Y40354D02*
Y42520D01*
X208858Y40551D02*
X246269D01*
X208661Y40354D02*
X208858Y40551D01*
X197835Y51181D02*
X208661Y40354D01*
X115591Y4382D02*
X147518D01*
X115051Y4921D02*
X115591Y4382D01*
X147518D02*
X148057Y4921D01*
X314762Y340353D02*
X318898Y344488D01*
X301379Y340353D02*
X314762D01*
X291339Y350394D02*
X301379Y340353D01*
X94063Y372047D02*
X98425D01*
X90126Y368110D02*
X94063Y372047D01*
X45276Y368110D02*
X90126D01*
X132434Y339567D02*
X149606Y356739D01*
X129921Y339567D02*
X132434D01*
X254062Y340551D02*
X281496D01*
X253937Y340427D02*
X254062Y340551D01*
X75787Y339567D02*
X129921D01*
X68898Y346457D02*
X75787Y339567D01*
X197835Y74508D02*
X268012D01*
X210236Y57087D02*
X263779D01*
X182244Y120905D02*
X199114Y104035D01*
X268012D01*
X134213Y104331D02*
X149272Y89272D01*
X267717D01*
X257776Y47244D02*
X270669D01*
X254823Y50197D02*
X257776Y47244D01*
X270669D02*
X306102Y82677D01*
X263779Y57087D02*
X266732Y54134D01*
X306102Y82677D02*
X324803D01*
X301181Y66634D02*
X334350D01*
Y66535D02*
Y66634D01*
X212598Y295276D02*
Y317402D01*
X208661Y321339D02*
X212598Y317402D01*
X93504Y285433D02*
Y312992D01*
Y257874D02*
Y285433D01*
Y257874D02*
X93504Y257874D01*
X362405Y340353D02*
X364175Y338583D01*
X323033Y340353D02*
X362405D01*
X318898Y344488D02*
X323033Y340353D01*
X281496Y340551D02*
X291339Y350394D01*
X202598Y387795D02*
X218347Y372047D01*
X228346D01*
X45276Y368110D02*
Y378110D01*
X54961Y387795D01*
X182244Y120905D02*
Y178395D01*
X197835Y51181D02*
Y74508D01*
X77559Y109843D02*
X105709Y81693D01*
X190650D01*
X197835Y74508D01*
X43307Y72835D02*
X151654D01*
X20669Y50197D02*
X43307Y72835D01*
X134213Y104331D02*
X147638Y117756D01*
Y152480D01*
X147716Y152559D01*
X75630Y229331D02*
X94899D01*
X70709Y224410D02*
X75630Y229331D01*
X25591Y228346D02*
X46930D01*
X49516Y225760D01*
X67163D01*
X70709Y222215D01*
Y224410D01*
X209646Y227786D02*
Y230315D01*
X202298Y220439D02*
X209646Y227786D01*
X106299Y271654D02*
X110343Y267610D01*
Y255878D02*
Y267610D01*
Y255878D02*
X116220Y250000D01*
X81693Y320607D02*
X84905Y323819D01*
X102362D01*
X126969Y271654D02*
Y299213D01*
X78481Y323819D02*
X81693Y320607D01*
X28898Y323819D02*
X78481D01*
X15748Y310669D02*
X28898Y323819D01*
X15748Y300669D02*
Y310669D01*
Y289961D02*
Y300669D01*
Y259842D02*
Y269961D01*
Y259842D02*
X28936Y246655D01*
X77683D01*
X82012Y250984D01*
X53150Y375984D02*
X64961Y387795D01*
X51181Y375984D02*
X53150D01*
X51181Y372047D02*
X72835D01*
X88583Y387795D01*
X102362D01*
X108268Y381890D01*
Y361221D02*
Y381890D01*
X103347Y356299D02*
X108268Y361221D01*
X98425Y356299D02*
X103347D01*
X222598Y387795D02*
X238347Y372047D01*
X108268Y361221D02*
X130905D01*
X5906Y349331D02*
X8779Y346457D01*
X50197D01*
X66929Y363189D01*
X79882D01*
X179134Y339567D02*
Y349410D01*
X164370Y364173D02*
X179134Y349410D01*
X133858Y364173D02*
X164370D01*
X223425Y354331D02*
Y357126D01*
X238347Y372047D01*
X195866Y339567D02*
X210630Y354331D01*
X223425D01*
X275590Y364173D02*
X291339D01*
X299213Y372047D01*
X311024D01*
X350610D02*
X358484Y364173D01*
X311024Y372047D02*
X350610D01*
X358484Y364173D02*
X368110D01*
X375984Y372047D01*
X381890D01*
D37*
X212598Y268513D02*
X222205Y278119D01*
X293307Y221457D02*
X319882Y194882D01*
X346457D01*
X363189Y156496D02*
Y178150D01*
X44488Y44488D02*
X59882D01*
X32087Y145669D02*
X49606D01*
X222205Y207874D02*
X239528Y225197D01*
X19488Y182087D02*
X32087D01*
X109882Y124803D02*
X122835Y137756D01*
X56693Y145669D02*
X74803D01*
X19567Y145669D02*
X32087D01*
X19488Y145591D02*
X19567Y145669D01*
X74803Y145669D02*
X107283D01*
X90945Y123228D02*
Y145276D01*
X77559Y109843D02*
X90945Y123228D01*
X44842Y109843D02*
X77559D01*
X29882Y124803D02*
X44842Y109843D01*
X234252Y264764D02*
X248031Y278543D01*
X198425Y253937D02*
X223425D01*
X185827D02*
X198425D01*
Y267717D02*
X212598D01*
X60000Y24606D02*
X79882Y44488D01*
X47244Y24606D02*
X60000D01*
X129528Y12362D02*
X144213D01*
X49606Y145669D02*
X53150Y149213D01*
X56693Y145669D01*
X56299Y179921D02*
X106850D01*
X32087Y182087D02*
X53150D01*
X365986Y192756D02*
X377756D01*
X346457Y194882D02*
X363189Y178150D01*
X248031Y278543D02*
X266732D01*
X182244Y178395D02*
X211723Y207874D01*
X222205D01*
X212598Y267717D02*
Y268513D01*
X185827Y267717D02*
X198425D01*
X289528Y144882D02*
Y162244D01*
X282480Y169291D02*
X289528Y162244D01*
X223425Y253937D02*
X234252Y264764D01*
D38*
X193898Y272244D02*
Y315531D01*
D39*
X106457Y231101D02*
X128633D01*
X174213Y192362D02*
X180276Y198425D01*
X95376Y220020D02*
X106457Y231101D01*
X128633D02*
X132675Y227059D01*
Y220376D02*
X133031Y220020D01*
X132675Y220376D02*
Y227059D01*
D40*
X63119Y193413D02*
X106850D01*
X47110Y198819D02*
X57713D01*
X32087Y195866D02*
X32480D01*
X44157D01*
X179134Y29528D02*
X285433D01*
X150394Y58268D02*
X179134Y29528D01*
X285433D02*
X297244Y41339D01*
X164213Y12362D02*
Y20827D01*
X33465Y33465D02*
X44488Y44488D01*
X33465Y15748D02*
Y33465D01*
Y15748D02*
X38386Y10827D01*
X47244D01*
X108661Y24606D02*
X160433D01*
X164213Y20827D01*
X102756Y58268D02*
X150394D01*
X94488Y50000D02*
X102756Y58268D01*
X94488Y11811D02*
Y50000D01*
X93307Y10630D02*
X94488Y11811D01*
X47244Y10630D02*
X93307Y10630D01*
X107283D01*
X297244Y41339D02*
Y44488D01*
X109016Y12362D02*
X129528D01*
X107283Y10630D02*
X109016Y12362D01*
X44157Y195866D02*
X47110Y198819D01*
X53150Y183071D02*
Y187362D01*
X123031Y210827D02*
Y220020D01*
X57713Y198819D02*
X63119Y193413D01*
X364173Y51535D02*
X376772Y64134D01*
X364173Y29528D02*
Y51535D01*
Y29528D02*
X379921Y13780D01*
D41*
X19488Y195866D02*
X32480D01*
D42*
X47362Y164567D02*
X59449D01*
X19488Y159370D02*
X42165D01*
X154421Y212598D02*
X191929D01*
X134213Y192390D02*
X154421Y212598D01*
X123031Y210827D02*
X134213Y199646D01*
X80709Y212992D02*
Y220020D01*
X74410Y206693D02*
X80622Y212906D01*
X74803Y159449D02*
X107283D01*
X64567D02*
X74803D01*
X107283D02*
X115748D01*
X122835Y152362D01*
Y137756D02*
Y152362D01*
X42165Y159370D02*
X47362Y164567D01*
X59449D02*
X64567Y159449D01*
X118610Y206405D02*
X123031Y210827D01*
X80622Y212842D02*
X87058Y206405D01*
X118610D01*
X66654Y206693D02*
X74410D01*
D43*
X359255Y285009D02*
X361385D01*
X353346Y279101D02*
X359255Y285009D01*
X353346Y257874D02*
Y279101D01*
X279363Y253159D02*
X279747Y253543D01*
X244094Y320866D02*
X300197D01*
X237205Y318081D02*
X292710D01*
X296260Y314532D01*
X306232Y260819D02*
X314895Y252155D01*
X341598D01*
X281127Y256890D02*
X283362Y254656D01*
X281127Y256890D02*
X282480Y258243D01*
Y260827D01*
X226024Y298456D02*
Y322580D01*
Y298456D02*
X229331Y295149D01*
X303468Y266854D02*
X303937Y267323D01*
X303468Y255774D02*
Y266854D01*
Y255774D02*
X307087Y252155D01*
X245571Y256890D02*
X281127D01*
X239779Y253159D02*
X240030Y253411D01*
X240616D01*
X239779Y253159D02*
X279363D01*
X283362Y248031D02*
Y254656D01*
X279747Y253543D02*
X280023D01*
D44*
X53150Y230197D02*
X56575D01*
X49092Y231890D02*
X50785Y230197D01*
X53150D01*
X19893Y240158D02*
X26979Y233071D01*
X13780Y240158D02*
X19893D01*
D45*
X134213Y192390D02*
Y199646D01*
D46*
X20669Y212008D02*
X24957Y207720D01*
X20669Y212008D02*
Y220020D01*
X24957Y207720D02*
X40277D01*
X54902Y218445D02*
X66654Y206693D01*
X40277Y207720D02*
X51002Y218445D01*
X54902D01*
D47*
X107283Y179488D02*
X182244D01*
D48*
X323622Y295276D02*
X361614D01*
X319685Y299213D02*
X323622Y295276D01*
X304634Y307587D02*
X323154D01*
X288386Y291339D02*
X304634Y307587D01*
X356496Y303937D02*
X361614Y309055D01*
X326803Y303937D02*
X356496D01*
X323154Y307587D02*
X326803Y303937D01*
X309055Y299213D02*
X319685D01*
X289764Y279921D02*
X309055Y299213D01*
X288779Y279921D02*
X289764D01*
X278814D02*
X284744D01*
X288779D01*
X276075Y291339D02*
X288386D01*
D49*
X361614Y309055D02*
X374213D01*
X361614Y295276D02*
X374213D01*
D50*
X90709Y220020D02*
X95376D01*
D51*
X25748Y310669D02*
D03*
X15748Y310669D02*
D03*
X25748Y289961D02*
D03*
X15748D02*
D03*
X25748Y269961D02*
D03*
X15748Y269961D02*
D03*
X25748Y259842D02*
D03*
X15748D02*
D03*
X151654Y250000D02*
D03*
X53150Y230197D02*
D03*
X5906Y349331D02*
D03*
Y359331D02*
D03*
X74961Y387795D02*
D03*
X64961D02*
D03*
X53150Y197362D02*
D03*
Y162480D02*
D03*
X116220Y250000D02*
D03*
X15748Y279961D02*
D03*
X25748D02*
D03*
X15748Y300669D02*
D03*
X25748Y300669D02*
D03*
X5906Y369331D02*
D03*
X212598Y387795D02*
D03*
X222598D02*
D03*
D52*
X5748Y310669D02*
D03*
Y289961D02*
D03*
Y269961D02*
D03*
Y259842D02*
D03*
X141654Y250000D02*
D03*
X54961Y387795D02*
D03*
X106220Y250000D02*
D03*
X5748Y279961D02*
D03*
Y300669D02*
D03*
X202598Y387795D02*
D03*
D53*
X214567Y264764D02*
D03*
X381890Y372047D02*
D03*
Y364173D02*
D03*
X311024Y372047D02*
D03*
Y364173D02*
D03*
X353740Y127953D02*
D03*
X372638D02*
D03*
X98425Y372047D02*
D03*
Y364173D02*
D03*
X382874Y99410D02*
D03*
Y156496D02*
D03*
X240158Y364173D02*
D03*
Y372047D02*
D03*
D54*
X234252Y264764D02*
D03*
X363189Y99410D02*
D03*
Y156496D02*
D03*
D55*
X185827Y253937D02*
D03*
X198425D02*
D03*
X374213Y275590D02*
D03*
X361614D02*
D03*
Y309055D02*
D03*
X32087Y145669D02*
D03*
Y182087D02*
D03*
X374213Y309055D02*
D03*
X19488Y145591D02*
D03*
Y182087D02*
D03*
D56*
X185827Y267717D02*
D03*
X198425D02*
D03*
X374213Y261811D02*
D03*
X361614D02*
D03*
Y295276D02*
D03*
X32087Y159449D02*
D03*
Y195866D02*
D03*
X374213Y295276D02*
D03*
X19488Y159370D02*
D03*
Y195866D02*
D03*
D57*
X381890Y380315D02*
D03*
Y348031D02*
D03*
X311024Y380315D02*
D03*
Y348031D02*
D03*
X98425Y380315D02*
D03*
Y348031D02*
D03*
X240158D02*
D03*
Y380315D02*
D03*
D58*
X381890Y356299D02*
D03*
X311024D02*
D03*
X98425D02*
D03*
X240158D02*
D03*
D59*
X159449Y388779D02*
D03*
Y339567D02*
D03*
X179134Y388779D02*
D03*
Y339567D02*
D03*
D60*
X106299Y271654D02*
D03*
X126969D02*
D03*
X147638D02*
D03*
X107283Y24409D02*
D03*
X47244Y24606D02*
D03*
X107283Y159449D02*
D03*
X107283Y193268D02*
D03*
X159449Y226378D02*
D03*
X191929Y226378D02*
D03*
X295433Y117126D02*
D03*
X272638Y17717D02*
D03*
X283465Y44488D02*
D03*
X74803Y159449D02*
D03*
X74803Y193268D02*
D03*
D61*
X106299Y263779D02*
D03*
X126969D02*
D03*
X147638D02*
D03*
X107283Y10630D02*
D03*
X47244Y10827D02*
D03*
X107283Y145669D02*
D03*
X107283Y179488D02*
D03*
X159449Y212598D02*
D03*
X191929Y212598D02*
D03*
X74803Y145669D02*
D03*
X74803Y179488D02*
D03*
D62*
X110039Y44488D02*
D03*
X29882Y124803D02*
D03*
X69882D02*
D03*
X109882D02*
D03*
X59882Y44488D02*
D03*
X79882D02*
D03*
X214213Y192362D02*
D03*
X174213D02*
D03*
X134213D02*
D03*
X204213Y12362D02*
D03*
X164213D02*
D03*
X144213D02*
D03*
X289528Y144882D02*
D03*
X269528D02*
D03*
X319528Y225197D02*
D03*
X279528D02*
D03*
X239528D02*
D03*
X319685Y144882D02*
D03*
X339567Y212047D02*
D03*
D63*
X53150Y220197D02*
D03*
Y187362D02*
D03*
Y152480D02*
D03*
X5906Y379331D02*
D03*
D64*
X90709Y220020D02*
D03*
X80709D02*
D03*
X30669Y220020D02*
D03*
X20669D02*
D03*
X133031Y220020D02*
D03*
X123031D02*
D03*
D65*
X70709D02*
D03*
X10669Y220020D02*
D03*
X113031Y220020D02*
D03*
D66*
X339567Y172677D02*
D03*
D67*
X377756Y212756D02*
D03*
X376772Y64134D02*
D03*
D68*
X377756Y192756D02*
D03*
X376772Y44134D02*
D03*
D69*
X281653Y117126D02*
D03*
X280512Y17717D02*
D03*
X297244Y44488D02*
D03*
D70*
X161417Y291339D02*
D03*
X275590Y364173D02*
D03*
X133858D02*
D03*
X13780Y330709D02*
D03*
X379921D02*
D03*
Y240158D02*
D03*
X13780D02*
D03*
Y13780D02*
D03*
X379921D02*
D03*
X27559Y364173D02*
D03*
D71*
X353287Y8071D02*
D03*
X300256Y21457D02*
D03*
X353287D02*
D03*
X300256Y8071D02*
D03*
D72*
X127953Y301181D02*
D03*
X99410Y290354D02*
D03*
X99472Y311024D02*
D03*
X20472Y40551D02*
D03*
X20866Y88189D02*
D03*
X20669Y63976D02*
D03*
X19154Y113189D02*
D03*
X286614Y374410D02*
D03*
X317878Y381496D02*
D03*
X347638Y381888D02*
D03*
X376378Y368388D02*
D03*
X371654Y344980D02*
D03*
X321654Y349213D02*
D03*
X316535Y360336D02*
D03*
X302362Y349606D02*
D03*
X293564Y354370D02*
D03*
X293799Y376969D02*
D03*
X268504Y381102D02*
D03*
X247047Y381548D02*
D03*
X246161Y351964D02*
D03*
X214961Y342126D02*
D03*
X218504Y378346D02*
D03*
X201772Y361417D02*
D03*
X232283Y354331D02*
D03*
X228346Y376945D02*
D03*
X205118Y374456D02*
D03*
X179528Y365748D02*
D03*
X164567Y367323D02*
D03*
X154331Y374016D02*
D03*
X191732Y338583D02*
D03*
X169546Y339165D02*
D03*
X161417Y350000D02*
D03*
X389764Y350787D02*
D03*
Y368898D02*
D03*
Y381548D02*
D03*
X373425Y390748D02*
D03*
X347244Y389370D02*
D03*
X330709Y389764D02*
D03*
X254331D02*
D03*
X231890Y389789D02*
D03*
X191732Y389910D02*
D03*
X169685Y389764D02*
D03*
X150787D02*
D03*
X145308Y374016D02*
D03*
X120079Y370079D02*
D03*
X114173Y342520D02*
D03*
X146080Y339165D02*
D03*
X91732Y343701D02*
D03*
X57953Y348425D02*
D03*
X86756Y360236D02*
D03*
X103937Y368144D02*
D03*
X87008Y372835D02*
D03*
X111221Y389764D02*
D03*
X81890D02*
D03*
X29724Y390065D02*
D03*
X44882Y390158D02*
D03*
X5748Y386811D02*
D03*
X39380Y377687D02*
D03*
X40157Y350787D02*
D03*
X29134Y342913D02*
D03*
X150394Y305117D02*
D03*
X55905Y92520D02*
D03*
X220276Y138189D02*
D03*
X261024Y199213D02*
D03*
X4724Y196063D02*
D03*
X387402Y57874D02*
D03*
X387795Y79724D02*
D03*
X171260Y249711D02*
D03*
X171653Y263386D02*
D03*
X314843Y317717D02*
D03*
X300197Y312992D02*
D03*
X290945Y304724D02*
D03*
X279134Y310891D02*
D03*
X216535Y279528D02*
D03*
X229528D02*
D03*
X248031Y294882D02*
D03*
X245669Y310236D02*
D03*
X228346Y309842D02*
D03*
X210236Y289764D02*
D03*
X192913Y304331D02*
D03*
X170866Y322012D02*
D03*
X170472Y304724D02*
D03*
X171814Y280315D02*
D03*
X250787Y261417D02*
D03*
X230315Y247244D02*
D03*
X234252D02*
D03*
X345472Y248031D02*
D03*
X309188D02*
D03*
X356693Y287795D02*
D03*
X348425Y312992D02*
D03*
X360624Y318898D02*
D03*
X385827Y311024D02*
D03*
Y295276D02*
D03*
Y277559D02*
D03*
Y257874D02*
D03*
X360236Y251969D02*
D03*
X338583Y259842D02*
D03*
X348425Y257874D02*
D03*
X387795Y207047D02*
D03*
X250689Y143683D02*
D03*
X172244Y85630D02*
D03*
X259842Y52854D02*
D03*
X235433Y82042D02*
D03*
X269826Y57776D02*
D03*
X283465Y70332D02*
D03*
X131014Y248907D02*
D03*
X131890Y277869D02*
D03*
X120005Y264745D02*
D03*
X129000Y320866D02*
D03*
X151021D02*
D03*
X228346Y177165D02*
D03*
X330709Y90551D02*
D03*
X324803D02*
D03*
X318898D02*
D03*
X330709Y96457D02*
D03*
X324803D02*
D03*
X318898D02*
D03*
X330709Y102362D02*
D03*
X324803D02*
D03*
X318898D02*
D03*
X330709Y108268D02*
D03*
X324803D02*
D03*
X318898D02*
D03*
X180709Y68110D02*
D03*
X179921Y77559D02*
D03*
X283071Y52362D02*
D03*
X270472Y97244D02*
D03*
X235433D02*
D03*
X194467Y240158D02*
D03*
X118504Y231102D02*
D03*
X92913Y103937D02*
D03*
X31772Y102362D02*
D03*
X27559Y79134D02*
D03*
X39764Y59055D02*
D03*
X359449Y75984D02*
D03*
X338189Y10950D02*
D03*
X350787Y52756D02*
D03*
X384646Y136614D02*
D03*
X352362Y230197D02*
D03*
X266929Y224410D02*
D03*
X313779Y159843D02*
D03*
X285039Y193248D02*
D03*
X240945Y188583D02*
D03*
X210630Y159055D02*
D03*
X139764Y161811D02*
D03*
X177165Y161987D02*
D03*
X142913Y140945D02*
D03*
X154331Y122441D02*
D03*
X175591Y134646D02*
D03*
X191732Y118504D02*
D03*
X220079Y109843D02*
D03*
X218898Y96457D02*
D03*
X176772Y96850D02*
D03*
X144213Y103409D02*
D03*
X120079Y101810D02*
D03*
X129134Y90158D02*
D03*
X94488Y81102D02*
D03*
X187795Y46063D02*
D03*
X212205Y49213D02*
D03*
X216535Y64961D02*
D03*
X211811Y81496D02*
D03*
X224016Y10630D02*
D03*
X216535Y8661D02*
D03*
X229331Y4921D02*
D03*
X252756Y40354D02*
D03*
X246269Y40551D02*
D03*
X114173Y4921D02*
D03*
X253937Y340427D02*
D03*
X149606Y356739D02*
D03*
X129921Y339567D02*
D03*
X210236Y57087D02*
D03*
X297244Y216535D02*
D03*
X268012Y104035D02*
D03*
X134213Y104331D02*
D03*
X267717Y89272D02*
D03*
X235039Y45276D02*
D03*
X268012Y74508D02*
D03*
X266732Y54134D02*
D03*
X324803Y82677D02*
D03*
X254823Y50197D02*
D03*
X334350Y66535D02*
D03*
X301181Y66634D02*
D03*
X203150Y226378D02*
D03*
X212598Y295276D02*
D03*
X208661Y321339D02*
D03*
X244882Y256201D02*
D03*
X300197Y320866D02*
D03*
X244094Y320945D02*
D03*
X237205Y318160D02*
D03*
X296260Y314532D02*
D03*
X341598Y252155D02*
D03*
X353346Y257874D02*
D03*
X116336Y283465D02*
D03*
X81693Y320607D02*
D03*
X93504Y285433D02*
D03*
X93504Y257874D02*
D03*
X93504Y312992D02*
D03*
X43012Y293602D02*
D03*
X42913Y319291D02*
D03*
Y264173D02*
D03*
X47146Y280315D02*
D03*
X46850Y250394D02*
D03*
X47146Y306693D02*
D03*
X291339Y350394D02*
D03*
X318898Y344488D02*
D03*
X364175Y338583D02*
D03*
X228346Y372047D02*
D03*
X68898Y346457D02*
D03*
X45276Y368110D02*
D03*
X258071Y118110D02*
D03*
X220079Y10630D02*
D03*
X317224Y51279D02*
D03*
X308563D02*
D03*
X300295D02*
D03*
X292028D02*
D03*
X311973Y277559D02*
D03*
X319945D02*
D03*
Y282480D02*
D03*
X319882Y287402D02*
D03*
X312034Y282480D02*
D03*
Y287402D02*
D03*
X311973Y292900D02*
D03*
X315945Y289760D02*
D03*
Y284449D02*
D03*
Y279528D02*
D03*
X258858Y278543D02*
D03*
X266526D02*
D03*
Y283465D02*
D03*
X266534Y288386D02*
D03*
X266526Y292900D02*
D03*
X258858D02*
D03*
Y288386D02*
D03*
Y283465D02*
D03*
X263090Y290945D02*
D03*
X262795Y285433D02*
D03*
X262856Y280512D02*
D03*
X278543Y290945D02*
D03*
X288386Y291339D02*
D03*
X283465D02*
D03*
X327947Y279921D02*
D03*
X335236Y280020D02*
D03*
X327658Y288878D02*
D03*
X336333Y288893D02*
D03*
X276472Y260827D02*
D03*
X282480D02*
D03*
X289764Y279921D02*
D03*
X278814D02*
D03*
X283465D02*
D03*
X306232Y260819D02*
D03*
X340551Y42323D02*
D03*
X229331Y295149D02*
D03*
X222205Y278119D02*
D03*
X193898Y315531D02*
D03*
X303937Y267323D02*
D03*
X332677Y259842D02*
D03*
X368110Y287008D02*
D03*
X361385Y285009D02*
D03*
X283003Y310891D02*
D03*
X338976Y310699D02*
D03*
X240945Y297126D02*
D03*
X151654Y72835D02*
D03*
X20669Y50197D02*
D03*
X147716Y152559D02*
D03*
X245079Y61466D02*
D03*
X224606Y49213D02*
D03*
X267717Y84646D02*
D03*
X251969Y69882D02*
D03*
X245079Y107382D02*
D03*
X282480Y169291D02*
D03*
X265748Y10630D02*
D03*
X10624Y126464D02*
D03*
X94899Y229331D02*
D03*
X25591Y228346D02*
D03*
X138581Y227362D02*
D03*
X209646Y230315D02*
D03*
X82012Y250984D02*
D03*
X85630Y271770D02*
D03*
Y299250D02*
D03*
X51181Y375984D02*
D03*
Y372047D02*
D03*
X79882Y363189D02*
D03*
X223425Y354331D02*
D03*
X358484Y364173D02*
D03*
X226024Y322580D02*
D03*
X307087Y252155D02*
D03*
X240616Y253411D02*
D03*
X283362Y248031D02*
D03*
X280023Y253543D02*
D03*
M02*
