G04*
G04 #@! TF.GenerationSoftware,Altium Limited,Altium Designer,18.1.9 (240)*
G04*
G04 Layer_Color=255*
%FSLAX25Y25*%
%MOIN*%
G70*
G01*
G75*
%ADD51C,0.05906*%
G04:AMPARAMS|DCode=52|XSize=59.06mil|YSize=59.06mil|CornerRadius=8.86mil|HoleSize=0mil|Usage=FLASHONLY|Rotation=180.000|XOffset=0mil|YOffset=0mil|HoleType=Round|Shape=RoundedRectangle|*
%AMROUNDEDRECTD52*
21,1,0.05906,0.04134,0,0,180.0*
21,1,0.04134,0.05906,0,0,180.0*
1,1,0.01772,-0.02067,0.02067*
1,1,0.01772,0.02067,0.02067*
1,1,0.01772,0.02067,-0.02067*
1,1,0.01772,-0.02067,-0.02067*
%
%ADD52ROUNDEDRECTD52*%
%ADD53C,0.05512*%
%ADD54R,0.05512X0.05512*%
G04:AMPARAMS|DCode=55|XSize=82.68mil|YSize=82.68mil|CornerRadius=12.4mil|HoleSize=0mil|Usage=FLASHONLY|Rotation=90.000|XOffset=0mil|YOffset=0mil|HoleType=Round|Shape=RoundedRectangle|*
%AMROUNDEDRECTD55*
21,1,0.08268,0.05787,0,0,90.0*
21,1,0.05787,0.08268,0,0,90.0*
1,1,0.02480,0.02894,0.02894*
1,1,0.02480,0.02894,-0.02894*
1,1,0.02480,-0.02894,-0.02894*
1,1,0.02480,-0.02894,0.02894*
%
%ADD55ROUNDEDRECTD55*%
%ADD56C,0.08268*%
%ADD57C,0.07874*%
G04:AMPARAMS|DCode=58|XSize=55.12mil|YSize=55.12mil|CornerRadius=8.27mil|HoleSize=0mil|Usage=FLASHONLY|Rotation=90.000|XOffset=0mil|YOffset=0mil|HoleType=Round|Shape=RoundedRectangle|*
%AMROUNDEDRECTD58*
21,1,0.05512,0.03858,0,0,90.0*
21,1,0.03858,0.05512,0,0,90.0*
1,1,0.01654,0.01929,0.01929*
1,1,0.01654,0.01929,-0.01929*
1,1,0.01654,-0.01929,-0.01929*
1,1,0.01654,-0.01929,0.01929*
%
%ADD58ROUNDEDRECTD58*%
%ADD59C,0.07087*%
%ADD60C,0.05118*%
%ADD61R,0.05118X0.05118*%
%ADD62C,0.10236*%
G04:AMPARAMS|DCode=63|XSize=59.06mil|YSize=59.06mil|CornerRadius=8.86mil|HoleSize=0mil|Usage=FLASHONLY|Rotation=270.000|XOffset=0mil|YOffset=0mil|HoleType=Round|Shape=RoundedRectangle|*
%AMROUNDEDRECTD63*
21,1,0.05906,0.04134,0,0,270.0*
21,1,0.04134,0.05906,0,0,270.0*
1,1,0.01772,-0.02067,-0.02067*
1,1,0.01772,-0.02067,0.02067*
1,1,0.01772,0.02067,0.02067*
1,1,0.01772,0.02067,-0.02067*
%
%ADD63ROUNDEDRECTD63*%
%ADD64O,0.06000X0.12000*%
G04:AMPARAMS|DCode=65|XSize=60mil|YSize=120mil|CornerRadius=15mil|HoleSize=0mil|Usage=FLASHONLY|Rotation=0.000|XOffset=0mil|YOffset=0mil|HoleType=Round|Shape=RoundedRectangle|*
%AMROUNDEDRECTD65*
21,1,0.06000,0.09000,0,0,0.0*
21,1,0.03000,0.12000,0,0,0.0*
1,1,0.03000,0.01500,-0.04500*
1,1,0.03000,-0.01500,-0.04500*
1,1,0.03000,-0.01500,0.04500*
1,1,0.03000,0.01500,0.04500*
%
%ADD65ROUNDEDRECTD65*%
G04:AMPARAMS|DCode=66|XSize=102.36mil|YSize=102.36mil|CornerRadius=15.35mil|HoleSize=0mil|Usage=FLASHONLY|Rotation=270.000|XOffset=0mil|YOffset=0mil|HoleType=Round|Shape=RoundedRectangle|*
%AMROUNDEDRECTD66*
21,1,0.10236,0.07165,0,0,270.0*
21,1,0.07165,0.10236,0,0,270.0*
1,1,0.03071,-0.03583,-0.03583*
1,1,0.03071,-0.03583,0.03583*
1,1,0.03071,0.03583,0.03583*
1,1,0.03071,0.03583,-0.03583*
%
%ADD66ROUNDEDRECTD66*%
%ADD67C,0.09449*%
G04:AMPARAMS|DCode=68|XSize=94.49mil|YSize=94.49mil|CornerRadius=9.45mil|HoleSize=0mil|Usage=FLASHONLY|Rotation=270.000|XOffset=0mil|YOffset=0mil|HoleType=Round|Shape=RoundedRectangle|*
%AMROUNDEDRECTD68*
21,1,0.09449,0.07559,0,0,270.0*
21,1,0.07559,0.09449,0,0,270.0*
1,1,0.01890,-0.03780,-0.03780*
1,1,0.01890,-0.03780,0.03780*
1,1,0.01890,0.03780,0.03780*
1,1,0.01890,0.03780,-0.03780*
%
%ADD68ROUNDEDRECTD68*%
%ADD69R,0.05118X0.05118*%
%ADD70C,0.23622*%
%ADD71C,0.09843*%
D51*
X25748Y310669D02*
D03*
X15748Y310669D02*
D03*
X25748Y289961D02*
D03*
X15748D02*
D03*
X25748Y269961D02*
D03*
X15748Y269961D02*
D03*
X25748Y259842D02*
D03*
X15748D02*
D03*
X151654Y250000D02*
D03*
X53150Y230197D02*
D03*
X5906Y349331D02*
D03*
Y359331D02*
D03*
X74961Y387795D02*
D03*
X64961D02*
D03*
X53150Y197362D02*
D03*
Y162480D02*
D03*
X116220Y250000D02*
D03*
X15748Y279961D02*
D03*
X25748D02*
D03*
X15748Y300669D02*
D03*
X25748Y300669D02*
D03*
X5906Y369331D02*
D03*
X212598Y387795D02*
D03*
X222598D02*
D03*
D52*
X5748Y310669D02*
D03*
Y289961D02*
D03*
Y269961D02*
D03*
Y259842D02*
D03*
X141654Y250000D02*
D03*
X54961Y387795D02*
D03*
X106220Y250000D02*
D03*
X5748Y279961D02*
D03*
Y300669D02*
D03*
X202598Y387795D02*
D03*
D53*
X214567Y264764D02*
D03*
X381890Y372047D02*
D03*
Y364173D02*
D03*
X311024Y372047D02*
D03*
Y364173D02*
D03*
X353740Y127953D02*
D03*
X372638D02*
D03*
X98425Y372047D02*
D03*
Y364173D02*
D03*
X382874Y99410D02*
D03*
Y156496D02*
D03*
X240158Y364173D02*
D03*
Y372047D02*
D03*
D54*
X234252Y264764D02*
D03*
X363189Y99410D02*
D03*
Y156496D02*
D03*
D55*
X185827Y253937D02*
D03*
X198425D02*
D03*
X374213Y275590D02*
D03*
X361614D02*
D03*
Y309055D02*
D03*
X32087Y145669D02*
D03*
Y182087D02*
D03*
X374213Y309055D02*
D03*
X19488Y145591D02*
D03*
Y182087D02*
D03*
D56*
X185827Y267717D02*
D03*
X198425D02*
D03*
X374213Y261811D02*
D03*
X361614D02*
D03*
Y295276D02*
D03*
X32087Y159449D02*
D03*
Y195866D02*
D03*
X374213Y295276D02*
D03*
X19488Y159370D02*
D03*
Y195866D02*
D03*
D57*
X381890Y380315D02*
D03*
Y348031D02*
D03*
X311024Y380315D02*
D03*
Y348031D02*
D03*
X98425Y380315D02*
D03*
Y348031D02*
D03*
X240158D02*
D03*
Y380315D02*
D03*
D58*
X381890Y356299D02*
D03*
X311024D02*
D03*
X98425D02*
D03*
X240158D02*
D03*
D59*
X159449Y388779D02*
D03*
Y339567D02*
D03*
X179134Y388779D02*
D03*
Y339567D02*
D03*
D60*
X106299Y271654D02*
D03*
X126969D02*
D03*
X147638D02*
D03*
X107283Y24409D02*
D03*
X47244Y24606D02*
D03*
X107283Y159449D02*
D03*
X107283Y193268D02*
D03*
X159449Y226378D02*
D03*
X191929Y226378D02*
D03*
X295433Y117126D02*
D03*
X272638Y17717D02*
D03*
X283465Y44488D02*
D03*
X74803Y159449D02*
D03*
X74803Y193268D02*
D03*
D61*
X106299Y263779D02*
D03*
X126969D02*
D03*
X147638D02*
D03*
X107283Y10630D02*
D03*
X47244Y10827D02*
D03*
X107283Y145669D02*
D03*
X107283Y179488D02*
D03*
X159449Y212598D02*
D03*
X191929Y212598D02*
D03*
X74803Y145669D02*
D03*
X74803Y179488D02*
D03*
D62*
X110039Y44488D02*
D03*
X29882Y124803D02*
D03*
X69882D02*
D03*
X109882D02*
D03*
X59882Y44488D02*
D03*
X79882D02*
D03*
X214213Y192362D02*
D03*
X174213D02*
D03*
X134213D02*
D03*
X204213Y12362D02*
D03*
X164213D02*
D03*
X144213D02*
D03*
X289528Y144882D02*
D03*
X269528D02*
D03*
X319528Y225197D02*
D03*
X279528D02*
D03*
X239528D02*
D03*
X319685Y144882D02*
D03*
X339567Y212047D02*
D03*
D63*
X53150Y220197D02*
D03*
Y187362D02*
D03*
Y152480D02*
D03*
X5906Y379331D02*
D03*
D64*
X90709Y220020D02*
D03*
X80709D02*
D03*
X30669Y220020D02*
D03*
X20669D02*
D03*
X133031Y220020D02*
D03*
X123031D02*
D03*
D65*
X70709D02*
D03*
X10669Y220020D02*
D03*
X113031Y220020D02*
D03*
D66*
X339567Y172677D02*
D03*
D67*
X377756Y212756D02*
D03*
X376772Y64134D02*
D03*
D68*
X377756Y192756D02*
D03*
X376772Y44134D02*
D03*
D69*
X281653Y117126D02*
D03*
X280512Y17717D02*
D03*
X297244Y44488D02*
D03*
D70*
X161417Y291339D02*
D03*
X275590Y364173D02*
D03*
X133858D02*
D03*
X13780Y330709D02*
D03*
X379921D02*
D03*
Y240158D02*
D03*
X13780D02*
D03*
Y13780D02*
D03*
X379921D02*
D03*
X27559Y364173D02*
D03*
D71*
X353287Y8071D02*
D03*
X300256Y21457D02*
D03*
X353287D02*
D03*
X300256Y8071D02*
D03*
M02*
