G04*
G04 #@! TF.GenerationSoftware,Altium Limited,Altium Designer,18.1.9 (240)*
G04*
G04 Layer_Color=32896*
%FSLAX25Y25*%
%MOIN*%
G70*
G01*
G75*
%ADD10C,0.01000*%
%ADD36C,0.01968*%
%ADD127C,0.00984*%
%ADD128C,0.02362*%
%ADD129C,0.00500*%
%ADD130C,0.00787*%
%ADD131C,0.00591*%
%ADD132C,0.01200*%
%ADD133C,0.01181*%
%ADD134C,0.00600*%
%ADD135C,0.00800*%
%ADD136C,0.00700*%
G36*
X114189Y374813D02*
X112189Y375813D01*
X114189Y376813D01*
Y374813D01*
D02*
G37*
G36*
X114127Y353823D02*
X112127Y354823D01*
X114127Y355823D01*
Y353823D01*
D02*
G37*
G36*
X128032Y225020D02*
X125531Y227520D01*
X130532D01*
X128032Y225020D01*
D02*
G37*
G36*
X118032D02*
X115532Y227520D01*
X120531D01*
X118032Y225020D01*
D02*
G37*
G36*
X85709D02*
X83209Y227520D01*
X88209D01*
X85709Y225020D01*
D02*
G37*
G36*
X75709D02*
X73209Y227520D01*
X78209D01*
X75709Y225020D01*
D02*
G37*
G36*
X25669Y225020D02*
X23169Y227520D01*
X28169D01*
X25669Y225020D01*
D02*
G37*
G36*
X15669D02*
X13169Y227520D01*
X18169D01*
X15669Y225020D01*
D02*
G37*
G36*
X103532Y221520D02*
X103532Y227520D01*
X109531D01*
X103532Y221520D01*
D02*
G37*
G36*
X61209D02*
Y227520D01*
X67209D01*
X61209Y221520D01*
D02*
G37*
G36*
X1169Y221520D02*
X1169Y227520D01*
X7169D01*
X1169Y221520D01*
D02*
G37*
G36*
X11669Y116126D02*
X9669Y117126D01*
X11669Y118126D01*
Y116126D01*
D02*
G37*
G36*
X11669Y91520D02*
X9669Y92520D01*
X11669Y93520D01*
Y91520D01*
D02*
G37*
G36*
Y66913D02*
X9669Y67913D01*
X11669Y68913D01*
Y66913D01*
D02*
G37*
G36*
X11669Y43291D02*
X9669Y44291D01*
X11669Y45291D01*
X11669Y43291D01*
D02*
G37*
D10*
X183071Y364173D02*
X183035Y365167D01*
X182927Y366157D01*
X182749Y367135D01*
X182500Y368099D01*
X182182Y369042D01*
X181797Y369959D01*
X181347Y370846D01*
X180834Y371699D01*
X180261Y372512D01*
X179631Y373282D01*
X178947Y374004D01*
X178212Y374675D01*
X177431Y375292D01*
X176607Y375850D01*
X175746Y376348D01*
X174850Y376782D01*
X173926Y377150D01*
X172978Y377450D01*
X172010Y377682D01*
X171028Y377843D01*
X170037Y377933D01*
X169043Y377951D01*
X168049Y377897D01*
X167062Y377771D01*
X166087Y377575D01*
X165128Y377309D01*
X164191Y376974D01*
X163281Y376573D01*
X162402Y376107D01*
X161558Y375578D01*
X160756Y374991D01*
X159997Y374347D01*
X159288Y373649D01*
X158630Y372903D01*
X158028Y372111D01*
X157484Y371277D01*
X157002Y370407D01*
X156585Y369504D01*
X156233Y368573D01*
X155950Y367619D01*
X155736Y366648D01*
X155593Y365663D01*
X155521Y364671D01*
Y363676D01*
X155593Y362683D01*
X155736Y361699D01*
X155950Y360727D01*
X156233Y359773D01*
X156585Y358843D01*
X157002Y357940D01*
X157484Y357069D01*
X158028Y356236D01*
X158630Y355444D01*
X159287Y354697D01*
X159997Y354000D01*
X160756Y353356D01*
X161558Y352768D01*
X162401Y352240D01*
X163281Y351774D01*
X164191Y351372D01*
X165128Y351038D01*
X166087Y350771D01*
X167062Y350575D01*
X168049Y350450D01*
X169043Y350396D01*
X170037Y350414D01*
X171028Y350504D01*
X172010Y350665D01*
X172978Y350896D01*
X173926Y351197D01*
X174850Y351565D01*
X175746Y351999D01*
X176607Y352496D01*
X177431Y353055D01*
X178212Y353671D01*
X178947Y354342D01*
X179631Y355064D01*
X180261Y355834D01*
X180834Y356647D01*
X181347Y357500D01*
X181797Y358387D01*
X182182Y359305D01*
X182500Y360248D01*
X182749Y361211D01*
X182927Y362190D01*
X183035Y363179D01*
X183071Y364173D01*
X385984Y185256D02*
X386644Y185980D01*
X387235Y186762D01*
X387750Y187595D01*
X388187Y188472D01*
X388541Y189385D01*
X388809Y190328D01*
X388989Y191290D01*
X389079Y192266D01*
Y193246D01*
X388989Y194221D01*
X388809Y195184D01*
X388541Y196127D01*
X388187Y197040D01*
X387750Y197917D01*
X387235Y198750D01*
X386644Y199532D01*
X385984Y200256D01*
Y205256D02*
X386644Y205980D01*
X387235Y206762D01*
X387750Y207595D01*
X388187Y208472D01*
X388541Y209385D01*
X388809Y210328D01*
X388989Y211291D01*
X389079Y212266D01*
Y213246D01*
X388989Y214221D01*
X388809Y215184D01*
X388541Y216127D01*
X388187Y217040D01*
X387750Y217917D01*
X387235Y218750D01*
X386644Y219532D01*
X385984Y220256D01*
X385000Y56634D02*
X385660Y57358D01*
X386250Y58140D01*
X386766Y58973D01*
X387203Y59850D01*
X387557Y60763D01*
X387825Y61705D01*
X388005Y62669D01*
X388095Y63644D01*
Y64624D01*
X388005Y65599D01*
X387825Y66562D01*
X387557Y67505D01*
X387203Y68418D01*
X386766Y69295D01*
X386250Y70128D01*
X385660Y70910D01*
X385000Y71634D01*
Y36634D02*
X385660Y37358D01*
X386250Y38140D01*
X386766Y38973D01*
X387203Y39850D01*
X387557Y40763D01*
X387825Y41706D01*
X388005Y42669D01*
X388095Y43644D01*
Y44624D01*
X388005Y45599D01*
X387825Y46562D01*
X387557Y47505D01*
X387203Y48418D01*
X386766Y49295D01*
X386250Y50128D01*
X385660Y50910D01*
X385000Y51634D01*
X326772Y14764D02*
X326638Y15783D01*
X326244Y16732D01*
X325619Y17548D01*
X324803Y18173D01*
X323854Y18567D01*
X322835Y18701D01*
X321816Y18567D01*
X320866Y18173D01*
X320051Y17548D01*
X319425Y16732D01*
X319032Y15783D01*
X318898Y14764D01*
X326772D02*
X326906Y13745D01*
X327299Y12795D01*
X327925Y11980D01*
X328740Y11354D01*
X329690Y10961D01*
X330709Y10827D01*
X331728Y10961D01*
X332677Y11354D01*
X333492Y11980D01*
X334118Y12795D01*
X334511Y13745D01*
X334646Y14764D01*
X21748Y315669D02*
X30748Y315669D01*
X20748Y314669D02*
X21748Y315669D01*
X19748Y315669D02*
X20748Y314669D01*
X11748Y315669D02*
X19748D01*
X10748Y314669D02*
X11748Y315669D01*
X9748Y315669D02*
X10748Y314669D01*
X748Y315669D02*
X9748Y315669D01*
X748Y305669D02*
Y315669D01*
Y305669D02*
X9748D01*
X10748Y306669D01*
X11748Y305669D01*
X19748D01*
X20748Y306669D01*
X21748Y305669D01*
X30748D01*
Y315669D01*
X21748Y294961D02*
X30748Y294961D01*
X20748Y293961D02*
X21748Y294961D01*
X19748Y294961D02*
X20748Y293961D01*
X11748Y294961D02*
X19748D01*
X10748Y293961D02*
X11748Y294961D01*
X9748Y294961D02*
X10748Y293961D01*
X748Y294961D02*
X9748Y294961D01*
X748Y284961D02*
Y294961D01*
Y284961D02*
X9748Y284961D01*
X10748Y285961D01*
X11748Y284961D01*
X19748D01*
X20748Y285961D01*
X21748Y284961D01*
X30748Y284961D01*
Y294961D01*
X21748Y274961D02*
X30748Y274961D01*
X20748Y273961D02*
X21748Y274961D01*
X19748D02*
X20748Y273961D01*
X11748Y274961D02*
X19748D01*
X10748Y273961D02*
X11748Y274961D01*
X9748D02*
X10748Y273961D01*
X748Y274961D02*
X9748Y274961D01*
X748Y264961D02*
Y274961D01*
Y264961D02*
X9748Y264961D01*
X10748Y265961D01*
X11748Y264961D01*
X19748D01*
X20748Y265961D01*
X21748Y264961D01*
X30748Y264961D01*
Y274961D01*
X21748Y264843D02*
X30748Y264843D01*
X20748Y263843D02*
X21748Y264843D01*
X19748Y264843D02*
X20748Y263843D01*
X11748Y264843D02*
X19748D01*
X10748Y263843D02*
X11748Y264843D01*
X9748Y264843D02*
X10748Y263843D01*
X748Y264843D02*
X9748Y264843D01*
X748Y254842D02*
Y264843D01*
Y254842D02*
X9748Y254842D01*
X10748Y255842D01*
X11748Y254842D01*
X19748D01*
X20748Y255842D01*
X21748Y254842D01*
X30748Y254842D01*
Y264843D01*
X166929Y277362D02*
X203150D01*
X166929Y244291D02*
Y277362D01*
Y244291D02*
X203150D01*
Y277362D01*
X356890Y252165D02*
X393110Y252165D01*
Y285236D01*
X356890Y285236D02*
X393110Y285236D01*
X356890Y252165D02*
Y285236D01*
Y285630D02*
Y318701D01*
X393110Y318701D01*
Y285630D02*
Y318701D01*
X356890Y285630D02*
X393110Y285630D01*
X136653Y245000D02*
X145653D01*
X146653Y246000D01*
X147653Y245000D01*
X156653D01*
Y255000D01*
X136653Y245000D02*
Y255000D01*
X145653D01*
X146653Y254000D01*
X147653Y255000D01*
X156653D01*
X19882Y34646D02*
X119882D01*
X19882D02*
Y134646D01*
X119882D01*
Y34646D02*
Y134646D01*
X36811Y136024D02*
Y169095D01*
X591Y136024D02*
X36811D01*
X591D02*
Y169095D01*
X36811D01*
X591Y205512D02*
X36811D01*
X591Y172441D02*
Y205512D01*
Y172441D02*
X36811D01*
Y205512D01*
X58150Y215197D02*
Y224197D01*
X57150Y225197D02*
X58150Y224197D01*
X57150Y225197D02*
X58150Y226197D01*
Y235197D01*
X48150D02*
X58150D01*
X48150Y215197D02*
X58150D01*
X48150D02*
Y224197D01*
X49150Y225197D01*
X48150Y226197D02*
X49150Y225197D01*
X48150Y226197D02*
Y235197D01*
X94209Y227520D02*
X100209Y221520D01*
X61209Y227520D02*
X94209D01*
X61209Y208020D02*
Y227520D01*
Y208020D02*
X100209D01*
Y221520D01*
X124213Y202362D02*
X224213D01*
X124213Y2362D02*
Y202362D01*
X224213Y2362D02*
Y202362D01*
X124213Y2412D02*
X224213D01*
X128513D02*
X129163D01*
X329528Y135039D02*
Y235039D01*
X229528D02*
X329528D01*
X229528Y135039D02*
Y235039D01*
Y135039D02*
X329528D01*
X385984Y200256D02*
Y205256D01*
X385000Y51634D02*
Y56634D01*
X905Y355331D02*
Y364331D01*
Y355331D02*
X1905Y354331D01*
X905Y353331D02*
X1905Y354331D01*
X905Y344331D02*
Y353331D01*
Y344331D02*
X10905D01*
X905Y364331D02*
X10905D01*
Y355331D02*
Y364331D01*
X9905Y354331D02*
X10905Y355331D01*
X9905Y354331D02*
X10905Y353331D01*
Y344331D02*
Y353331D01*
X70961Y392795D02*
X79961D01*
X69961Y391795D02*
X70961Y392795D01*
X68961D02*
X69961Y391795D01*
X60961Y392795D02*
X68961D01*
X59961Y391795D02*
X60961Y392795D01*
X58961D02*
X59961Y391795D01*
X49961Y392795D02*
X58961D01*
X49961Y382795D02*
Y392795D01*
Y382795D02*
X58961D01*
X59961Y383795D01*
X60961Y382795D01*
X68961D01*
X69961Y383795D01*
X70961Y382795D01*
X79961D01*
Y392795D01*
X34169Y227520D02*
X40169Y221520D01*
X1169Y227520D02*
X34169D01*
X1169Y208020D02*
X1169Y227520D01*
X1169Y208020D02*
X40169D01*
X40169Y221520D01*
X136531Y227520D02*
X142532Y221520D01*
X103532Y227520D02*
X136531D01*
X103532Y208020D02*
X103532Y227520D01*
X103532Y208020D02*
X142532D01*
Y221520D01*
X48150Y193362D02*
Y202362D01*
Y193362D02*
X49150Y192362D01*
X48150Y191362D02*
X49150Y192362D01*
X48150Y182362D02*
Y191362D01*
Y182362D02*
X58150D01*
X48150Y202362D02*
X58150D01*
Y193362D02*
Y202362D01*
X57150Y192362D02*
X58150Y193362D01*
X57150Y192362D02*
X58150Y191362D01*
Y182362D02*
Y191362D01*
X48150Y158480D02*
Y167480D01*
Y158480D02*
X49150Y157480D01*
X48150Y156480D02*
X49150Y157480D01*
X48150Y147480D02*
Y156480D01*
Y147480D02*
X58150D01*
X48150Y167480D02*
X58150D01*
Y158480D02*
Y167480D01*
X57150Y157480D02*
X58150Y158480D01*
X57150Y157480D02*
X58150Y156480D01*
Y147480D02*
Y156480D01*
X112221Y255000D02*
X121221D01*
X111221Y254000D02*
X112221Y255000D01*
X110221D02*
X111221Y254000D01*
X101221Y255000D02*
X110221D01*
X101221Y245000D02*
Y255000D01*
X121221Y245000D02*
Y255000D01*
X112221Y245000D02*
X121221D01*
X111221Y246000D02*
X112221Y245000D01*
X110221D02*
X111221Y246000D01*
X101221Y245000D02*
X110221D01*
X30748Y274961D02*
Y284961D01*
X21748Y274961D02*
X30748Y274961D01*
X20748Y275961D02*
X21748Y274961D01*
X19748D02*
X20748Y275961D01*
X11748Y274961D02*
X19748D01*
X10748Y275961D02*
X11748Y274961D01*
X9748D02*
X10748Y275961D01*
X748Y274961D02*
X9748Y274961D01*
X748Y274961D02*
Y284961D01*
X9748Y284961D01*
X10748Y283961D01*
X11748Y284961D01*
X19748D01*
X20748Y283961D01*
X21748Y284961D01*
X30748Y284961D01*
Y295669D02*
Y305669D01*
X21748Y295669D02*
X30748Y295669D01*
X20748Y296669D02*
X21748Y295669D01*
X19748Y295669D02*
X20748Y296669D01*
X11748Y295669D02*
X19748D01*
X10748Y296669D02*
X11748Y295669D01*
X9748Y295669D02*
X10748Y296669D01*
X748Y295669D02*
X9748Y295669D01*
X748Y295669D02*
Y305669D01*
X9748Y305669D01*
X10748Y304669D01*
X11748Y305669D01*
X19748D01*
X20748Y304669D01*
X21748Y305669D01*
X30748Y305669D01*
X10905Y364331D02*
Y373331D01*
X9905Y374331D02*
X10905Y373331D01*
X9905Y374331D02*
X10905Y375331D01*
Y384331D01*
X905D02*
X10905D01*
X905Y364331D02*
X10905D01*
X905D02*
Y373331D01*
X1905Y374331D01*
X905Y375331D02*
X1905Y374331D01*
X905Y375331D02*
Y384331D01*
X227598Y382795D02*
Y392795D01*
X218598Y382795D02*
X227598D01*
X217598Y383795D02*
X218598Y382795D01*
X216598D02*
X217598Y383795D01*
X208598Y382795D02*
X216598D01*
X207598Y383795D02*
X208598Y382795D01*
X206598D02*
X207598Y383795D01*
X197598Y382795D02*
X206598D01*
X197598D02*
Y392795D01*
X206598D01*
X207598Y391795D01*
X208598Y392795D01*
X216598D01*
X217598Y391795D01*
X218598Y392795D01*
X227598D01*
X16732Y385827D02*
Y389159D01*
X15066Y390825D01*
X13400Y389159D01*
Y385827D01*
Y388326D01*
X16732D01*
X11734Y390825D02*
Y386660D01*
X10901Y385827D01*
X9235D01*
X8402Y386660D01*
Y390825D01*
X324803Y378937D02*
X319805D01*
X324803Y375605D01*
X319805D01*
X321471Y373939D02*
X323970D01*
X324803Y373106D01*
Y370606D01*
X321471D01*
Y365608D02*
Y368107D01*
X322304Y368940D01*
X323970D01*
X324803Y368107D01*
Y365608D01*
Y363942D02*
Y362276D01*
Y363109D01*
X319805D01*
Y363942D01*
X324803Y357277D02*
Y358944D01*
X323970Y359776D01*
X322304D01*
X321471Y358944D01*
Y357277D01*
X322304Y356444D01*
X323137D01*
Y359776D01*
X324803Y353945D02*
Y352279D01*
X323970Y351446D01*
X322304D01*
X321471Y352279D01*
Y353945D01*
X322304Y354778D01*
X323970D01*
X324803Y353945D01*
X88120Y349789D02*
X88953Y348956D01*
Y347290D01*
X88120Y346457D01*
X84787D01*
X83954Y347290D01*
Y348956D01*
X84787Y349789D01*
X88120Y352288D02*
X87287D01*
Y351455D01*
Y353121D01*
Y352288D01*
X84787D01*
X83954Y353121D01*
X87287Y355620D02*
X83954D01*
X85620D01*
X86454Y356453D01*
X87287Y357287D01*
Y358120D01*
X83954Y360619D02*
Y362285D01*
Y361452D01*
X88953D01*
Y360619D01*
X83954Y369782D02*
X87287D01*
X88953Y371449D01*
X87287Y373115D01*
X83954D01*
X86454D01*
Y369782D01*
X83954Y374781D02*
Y376447D01*
Y375614D01*
X88953D01*
Y374781D01*
X83954Y378946D02*
Y380612D01*
Y379779D01*
X87287D01*
Y378946D01*
X83954Y383112D02*
X87287D01*
Y383945D01*
X86454Y384778D01*
X83954D01*
X86454D01*
X87287Y385611D01*
X86454Y386444D01*
X83954D01*
X132101Y252750D02*
X135433D01*
Y250251D01*
X133767Y251084D01*
X132934D01*
X132101Y250251D01*
Y248585D01*
X132934Y247751D01*
X134600D01*
X135433Y248585D01*
X125436Y252750D02*
Y247751D01*
X122937D01*
X122104Y248585D01*
Y249418D01*
X122937Y250251D01*
X125436D01*
X122937D01*
X122104Y251084D01*
Y251917D01*
X122937Y252750D01*
X125436D01*
X99206Y255000D02*
Y258665D01*
X101039Y256833D02*
X97373D01*
X134639Y255000D02*
Y258665D01*
X136472Y256833D02*
X132806D01*
X117323Y372310D02*
X116490Y373143D01*
X114824D01*
X113991Y372310D01*
Y371477D01*
X114824Y370643D01*
X115657D01*
X114824D01*
X113991Y369810D01*
Y368977D01*
X114824Y368144D01*
X116490D01*
X117323Y368977D01*
X112325Y373143D02*
Y369810D01*
X110658Y368144D01*
X108992Y369810D01*
Y373143D01*
X113794Y351455D02*
X117126D01*
Y348956D01*
X115460Y349789D01*
X114627D01*
X113794Y348956D01*
Y347290D01*
X114627Y346457D01*
X116293D01*
X117126Y347290D01*
X112128Y351455D02*
Y348123D01*
X110461Y346457D01*
X108795Y348123D01*
Y351455D01*
X296260Y354180D02*
Y355846D01*
X297093Y356679D01*
X298759D01*
X299592Y355846D01*
Y354180D01*
X298759Y353346D01*
X297093D01*
X296260Y354180D01*
Y359178D02*
X300425D01*
X298759D01*
Y358345D01*
Y360011D01*
Y359178D01*
X300425D01*
X301258Y360011D01*
X296260Y363343D02*
X300425D01*
X298759D01*
Y362510D01*
Y364176D01*
Y363343D01*
X300425D01*
X301258Y364176D01*
X296260Y372507D02*
Y374173D01*
X297093Y375006D01*
X298759D01*
X299592Y374173D01*
Y372507D01*
X298759Y371674D01*
X297093D01*
X296260Y372507D01*
Y376672D02*
X299592D01*
Y379171D01*
X298759Y380005D01*
X296260D01*
X250984Y354180D02*
Y355846D01*
X251817Y356679D01*
X253483D01*
X254316Y355846D01*
Y354180D01*
X253483Y353346D01*
X251817D01*
X250984Y354180D01*
Y359178D02*
X255150D01*
X253483D01*
Y358345D01*
Y360011D01*
Y359178D01*
X255150D01*
X255983Y360011D01*
X250984Y363343D02*
X255150D01*
X253483D01*
Y362510D01*
Y364176D01*
Y363343D01*
X255150D01*
X255983Y364176D01*
X250984Y372507D02*
Y374173D01*
X251817Y375006D01*
X253483D01*
X254316Y374173D01*
Y372507D01*
X253483Y371674D01*
X251817D01*
X250984Y372507D01*
Y376672D02*
X254316D01*
Y379171D01*
X253483Y380005D01*
X250984D01*
X104936Y390976D02*
X105769Y391809D01*
X107435D01*
X108268Y390976D01*
Y390143D01*
X107435Y389310D01*
X105769D01*
X104936Y388477D01*
Y387644D01*
X105769Y386811D01*
X107435D01*
X108268Y387644D01*
X103269Y391809D02*
Y386811D01*
X101603Y388477D01*
X99937Y386811D01*
Y391809D01*
X98271Y385978D02*
X94939D01*
X93273Y391809D02*
Y386811D01*
X89940D01*
X194882Y354331D02*
X199880D01*
Y356830D01*
X199047Y357663D01*
X197381D01*
X196548Y356830D01*
Y354331D01*
Y355997D02*
X194882Y357663D01*
X199880Y362661D02*
Y359329D01*
X194882D01*
Y362661D01*
X197381Y359329D02*
Y360995D01*
X199047Y367660D02*
X199880Y366827D01*
Y365160D01*
X199047Y364328D01*
X198214D01*
X197381Y365160D01*
Y366827D01*
X196548Y367660D01*
X195715D01*
X194882Y366827D01*
Y365160D01*
X195715Y364328D01*
X199880Y372658D02*
Y369326D01*
X194882D01*
Y372658D01*
X197381Y369326D02*
Y370992D01*
X199880Y374324D02*
Y377657D01*
Y375990D01*
X194882D01*
X245290Y389992D02*
X246123Y390825D01*
X247789D01*
X248622Y389992D01*
Y389159D01*
X247789Y388326D01*
X246123D01*
X245290Y387493D01*
Y386660D01*
X246123Y385827D01*
X247789D01*
X248622Y386660D01*
X243624Y390825D02*
Y385827D01*
X241957Y387493D01*
X240291Y385827D01*
Y390825D01*
X238625Y389992D02*
X237792Y390825D01*
X236126D01*
X235293Y389992D01*
Y389159D01*
X236126Y388326D01*
X236959D01*
X236126D01*
X235293Y387493D01*
Y386660D01*
X236126Y385827D01*
X237792D01*
X238625Y386660D01*
X313597Y389992D02*
X314430Y390825D01*
X316096D01*
X316929Y389992D01*
Y389159D01*
X316096Y388326D01*
X314430D01*
X313597Y387493D01*
Y386660D01*
X314430Y385827D01*
X316096D01*
X316929Y386660D01*
X311931Y390825D02*
Y385827D01*
X310265Y387493D01*
X308598Y385827D01*
Y390825D01*
X303600Y385827D02*
X306932D01*
X303600Y389159D01*
Y389992D01*
X304433Y390825D01*
X306099D01*
X306932Y389992D01*
X383479D02*
X384312Y390825D01*
X385978D01*
X386811Y389992D01*
Y389159D01*
X385978Y388326D01*
X384312D01*
X383479Y387493D01*
Y386660D01*
X384312Y385827D01*
X385978D01*
X386811Y386660D01*
X381813Y390825D02*
Y385827D01*
X380147Y387493D01*
X378480Y385827D01*
Y390825D01*
X376814Y385827D02*
X375148D01*
X375981D01*
Y390825D01*
X376814Y389992D01*
X353550Y281496D02*
Y277831D01*
X351717Y279663D02*
X355383D01*
X353550Y259503D02*
Y255838D01*
Y314961D02*
Y311295D01*
X351717Y313128D02*
X355383D01*
X353550Y292968D02*
Y289302D01*
X388983Y281496D02*
Y277831D01*
X387150Y279663D02*
X390816D01*
X388983Y259503D02*
Y255838D01*
Y315945D02*
Y312279D01*
X387150Y314112D02*
X390816D01*
X388983Y293952D02*
Y290286D01*
X391732Y306102D02*
X386734D01*
X388400Y304436D01*
X386734Y302770D01*
X391732D01*
Y297772D02*
Y301104D01*
X388400Y297772D01*
X387567D01*
X386734Y298605D01*
Y300271D01*
X387567Y301104D01*
X355315Y306102D02*
X350317D01*
X351983Y304436D01*
X350317Y302770D01*
X355315D01*
Y297772D02*
Y301104D01*
X351983Y297772D01*
X351150D01*
X350317Y298605D01*
Y300271D01*
X351150Y301104D01*
X355315Y273622D02*
X350317D01*
X351983Y271956D01*
X350317Y270290D01*
X355315D01*
Y268624D02*
Y266957D01*
Y267791D01*
X350317D01*
X351150Y268624D01*
X391732Y272638D02*
X386734D01*
X388400Y270972D01*
X386734Y269305D01*
X391732D01*
Y267639D02*
Y265973D01*
Y266806D01*
X386734D01*
X387567Y267639D01*
X6967Y152939D02*
Y149606D01*
X4468D01*
X5301Y151272D01*
Y152105D01*
X4468Y152939D01*
X2802D01*
X1969Y152105D01*
Y150439D01*
X2802Y149606D01*
X6967Y154605D02*
X1969D01*
Y157937D01*
X4718Y139764D02*
Y143429D01*
X6550Y141596D02*
X2885D01*
X4718Y161757D02*
Y165422D01*
Y177165D02*
Y180831D01*
X6550Y178998D02*
X2885D01*
X4718Y199158D02*
Y202824D01*
X6967Y189356D02*
Y186024D01*
X4468D01*
X5301Y187690D01*
Y188523D01*
X4468Y189356D01*
X2802D01*
X1969Y188523D01*
Y186857D01*
X2802Y186024D01*
X1969Y191022D02*
X6967D01*
Y193521D01*
X6134Y194354D01*
X4468D01*
X3635Y193521D01*
Y191022D01*
X171056Y271654D02*
Y275319D01*
Y247047D02*
Y250713D01*
X172889Y248880D02*
X169223D01*
X205899Y274606D02*
Y278272D01*
X207473Y247047D02*
Y250713D01*
X209306Y248880D02*
X205641D01*
X168307Y253937D02*
X173805D01*
Y256686D01*
X172889Y257603D01*
X171056D01*
X170140Y256686D01*
Y253937D01*
X173805Y259435D02*
X168307D01*
X170140Y261268D01*
X168307Y263101D01*
X173805D01*
X168307Y264933D02*
X173805D01*
Y267683D01*
X172889Y268599D01*
X171056D01*
X170140Y267683D01*
Y264933D01*
Y266766D02*
X168307Y268599D01*
X108496Y284828D02*
X109329Y283995D01*
Y282329D01*
X108496Y281496D01*
X105164D01*
X104331Y282329D01*
Y283995D01*
X105164Y284828D01*
X107663Y287328D02*
Y288994D01*
X106830Y289827D01*
X104331D01*
Y287328D01*
X105164Y286494D01*
X105997Y287328D01*
Y289827D01*
X102665Y291493D02*
X107663D01*
Y293992D01*
X106830Y294825D01*
X105164D01*
X104331Y293992D01*
Y291493D01*
X108496Y297324D02*
X107663D01*
Y296491D01*
Y298157D01*
Y297324D01*
X105164D01*
X104331Y298157D01*
Y300657D02*
X105164D01*
Y301490D01*
X104331D01*
Y300657D01*
X109329Y312319D02*
Y310653D01*
X108496Y309820D01*
X105164D01*
X104331Y310653D01*
Y312319D01*
X105164Y313153D01*
X108496D01*
X109329Y312319D01*
X107663Y314819D02*
X105164D01*
X104331Y315652D01*
Y318151D01*
X107663D01*
X108496Y320650D02*
X107663D01*
Y319817D01*
Y321483D01*
Y320650D01*
X105164D01*
X104331Y321483D01*
X173457Y305498D02*
X174290Y304664D01*
Y302998D01*
X173457Y302165D01*
X170124D01*
X169291Y302998D01*
Y304664D01*
X170124Y305498D01*
X168458Y307164D02*
Y310496D01*
X169291Y312162D02*
X174290D01*
X172624Y313828D01*
X174290Y315494D01*
X169291D01*
Y317994D02*
Y319660D01*
X170124Y320493D01*
X171791D01*
X172624Y319660D01*
Y317994D01*
X171791Y317161D01*
X170124D01*
X169291Y317994D01*
X173457Y322992D02*
X172624D01*
Y322159D01*
Y323825D01*
Y322992D01*
X170124D01*
X169291Y323825D01*
X270290Y39598D02*
X271123Y40431D01*
X272789D01*
X273622Y39598D01*
Y36266D01*
X272789Y35433D01*
X271123D01*
X270290Y36266D01*
X267791Y39598D02*
Y38765D01*
X268624D01*
X266957D01*
X267791D01*
Y36266D01*
X266957Y35433D01*
X264458Y38765D02*
Y35433D01*
Y37099D01*
X263625Y37932D01*
X262792Y38765D01*
X261959D01*
X259460Y35433D02*
X257794D01*
X258627D01*
Y40431D01*
X259460D01*
X250296Y35433D02*
Y38765D01*
X248630Y40431D01*
X246964Y38765D01*
Y35433D01*
Y37932D01*
X250296D01*
X245298Y35433D02*
X243632D01*
X244465D01*
Y40431D01*
X245298D01*
X241133Y35433D02*
X239466D01*
X240300D01*
Y38765D01*
X241133D01*
X236967Y35433D02*
Y38765D01*
X236134D01*
X235301Y37932D01*
Y35433D01*
Y37932D01*
X234468Y38765D01*
X233635Y37932D01*
Y35433D01*
X42119Y143701D02*
Y147366D01*
X43952Y145534D02*
X40286D01*
X42119Y181102D02*
Y184768D01*
X43952Y182935D02*
X40286D01*
X44088Y212598D02*
Y216264D01*
X45920Y214431D02*
X42255D01*
X347742Y87941D02*
X353740D01*
Y84942D01*
X352741Y83942D01*
X351741D01*
X350741Y84942D01*
Y87941D01*
Y84942D01*
X349742Y83942D01*
X348742D01*
X347742Y84942D01*
Y87941D01*
X353740Y81943D02*
X349742D01*
X347742Y79944D01*
X349742Y77944D01*
X353740D01*
X350741D01*
Y81943D01*
X347742Y75945D02*
Y71946D01*
Y73945D01*
X353740D01*
X347742Y69947D02*
Y65948D01*
Y67947D01*
X353740D01*
X350741Y63949D02*
Y59950D01*
Y45954D02*
Y41956D01*
X348742Y43955D02*
X352741D01*
X356890Y230315D02*
X351392D01*
Y227566D01*
X352308Y226649D01*
X354141D01*
X355057Y227566D01*
Y230315D01*
X351392Y224817D02*
X356890D01*
X355057Y222984D01*
X356890Y221151D01*
X351392D01*
X356890Y219319D02*
X351392D01*
Y216569D01*
X352308Y215653D01*
X354141D01*
X355057Y216569D01*
Y219319D01*
Y217486D02*
X356890Y215653D01*
X354141Y208322D02*
Y204657D01*
Y191827D02*
Y188162D01*
X352308Y189995D02*
X355973D01*
X41339Y220472D02*
Y222305D01*
Y221389D01*
X46837D01*
X45920Y220472D01*
X41339Y228720D02*
Y225054D01*
X45004Y228720D01*
X45920D01*
X46837Y227803D01*
Y225971D01*
X45920Y225054D01*
X46837Y230553D02*
X43171D01*
X41339Y232385D01*
X43171Y234218D01*
X46837D01*
X44868Y194610D02*
Y190945D01*
X42119D01*
X43036Y192778D01*
Y193694D01*
X42119Y194610D01*
X40286D01*
X39370Y193694D01*
Y191861D01*
X40286Y190945D01*
X39370Y196443D02*
X44868D01*
Y199192D01*
X43952Y200109D01*
X42119D01*
X41203Y199192D01*
Y196443D01*
X44868Y157209D02*
Y153543D01*
X42119D01*
X43036Y155376D01*
Y156292D01*
X42119Y157209D01*
X40286D01*
X39370Y156292D01*
Y154460D01*
X40286Y153543D01*
X44868Y159042D02*
X39370D01*
Y162707D01*
X17717Y35433D02*
Y40931D01*
X14967D01*
X14051Y40015D01*
Y38182D01*
X14967Y37266D01*
X17717D01*
X12218Y40931D02*
Y35433D01*
X10386Y37266D01*
X8553Y35433D01*
Y40931D01*
X6720Y35433D02*
Y40931D01*
X3971D01*
X3055Y40015D01*
Y38182D01*
X3971Y37266D01*
X6720D01*
X4887D02*
X3055Y35433D01*
X17717Y58258D02*
X15884D01*
X16800D01*
Y63756D01*
X17717Y62840D01*
X9469Y58258D02*
X13135D01*
X9469Y61923D01*
Y62840D01*
X10386Y63756D01*
X12218D01*
X13135Y62840D01*
X7637Y63756D02*
Y60091D01*
X5804Y58258D01*
X3971Y60091D01*
Y63756D01*
X12083Y87004D02*
X15748D01*
Y84255D01*
X13915Y85171D01*
X12999D01*
X12083Y84255D01*
Y82422D01*
X12999Y81506D01*
X14832D01*
X15748Y82422D01*
X10250Y81506D02*
Y87004D01*
X7501D01*
X6584Y86088D01*
Y84255D01*
X7501Y83339D01*
X10250D01*
X12083Y111797D02*
X15748D01*
Y109048D01*
X13915Y109965D01*
X12999D01*
X12083Y109048D01*
Y107216D01*
X12999Y106299D01*
X14832D01*
X15748Y107216D01*
X10250Y111797D02*
Y106299D01*
X6584D01*
D36*
X390748Y183071D02*
X390256Y183923D01*
X389272D01*
X388779Y183071D01*
X389272Y182219D01*
X390256D01*
X390748Y183071D01*
X389764Y34449D02*
X389272Y35301D01*
X388287D01*
X387795Y34449D01*
X388287Y33596D01*
X389272D01*
X389764Y34449D01*
X179134Y327087D02*
X208661D01*
X177165Y325118D02*
X179134Y327087D01*
X368425Y379921D02*
X370394Y377953D01*
Y348425D02*
Y377953D01*
X112205Y279213D02*
X141732D01*
X143701Y281181D01*
X46024Y352362D02*
Y381890D01*
Y352362D02*
X47992Y350394D01*
X263032Y33661D02*
X265000Y31693D01*
Y2165D02*
Y31693D01*
D127*
X290748Y266929D02*
X290010Y267355D01*
Y266503D01*
X290748Y266929D01*
X343898D02*
X343159Y267355D01*
Y266503D01*
X343898Y266929D01*
X82874Y3701D02*
X82087D01*
X82874D01*
X249213Y122638D02*
X248425D01*
X249213D01*
X226575Y65158D02*
X225787D01*
X226575D01*
X345571Y136024D02*
X344833Y136450D01*
Y135597D01*
X345571Y136024D01*
D128*
X288583Y275984D02*
X288138Y276908D01*
X287139Y277136D01*
X286337Y276497D01*
Y275472D01*
X287139Y274833D01*
X288138Y275061D01*
X288583Y275984D01*
X341732D02*
X341288Y276908D01*
X340288Y277136D01*
X339487Y276497D01*
Y275472D01*
X340288Y274833D01*
X341288Y275061D01*
X341732Y275984D01*
D129*
X244094Y264764D02*
X244069Y265761D01*
X243993Y266755D01*
X243867Y267745D01*
X243691Y268726D01*
X243466Y269698D01*
X243192Y270657D01*
X242869Y271601D01*
X242499Y272527D01*
X242083Y273433D01*
X241621Y274317D01*
X241115Y275177D01*
X240566Y276009D01*
X239976Y276813D01*
X239346Y277586D01*
X238677Y278326D01*
X237972Y279031D01*
X237232Y279700D01*
X236459Y280330D01*
X235655Y280921D01*
X234822Y281469D01*
X233963Y281975D01*
X233079Y282437D01*
X232172Y282854D01*
X231246Y283224D01*
X230302Y283546D01*
X229344Y283820D01*
X228372Y284046D01*
X227390Y284222D01*
X226401Y284348D01*
X225407Y284423D01*
X224409Y284449D01*
X223412Y284423D01*
X222418Y284348D01*
X221429Y284222D01*
X220447Y284046D01*
X219475Y283820D01*
X218516Y283546D01*
X217573Y283224D01*
X216647Y282854D01*
X215740Y282437D01*
X214856Y281975D01*
X213997Y281469D01*
X213164Y280921D01*
X212360Y280330D01*
X211587Y279700D01*
X210847Y279031D01*
X210142Y278326D01*
X209473Y277586D01*
X208843Y276813D01*
X208253Y276009D01*
X207704Y275176D01*
X207198Y274317D01*
X206736Y273433D01*
X206320Y272527D01*
X205950Y271601D01*
X205627Y270657D01*
X205353Y269698D01*
X205127Y268726D01*
X204951Y267745D01*
X204825Y266755D01*
X204750Y265761D01*
X204724Y264764D01*
X204750Y263767D01*
X204825Y262772D01*
X204951Y261783D01*
X205127Y260801D01*
X205353Y259830D01*
X205627Y258871D01*
X205950Y257927D01*
X206320Y257001D01*
X206736Y256095D01*
X207198Y255211D01*
X207704Y254351D01*
X208253Y253518D01*
X208843Y252714D01*
X209473Y251941D01*
X210142Y251201D01*
X210847Y250496D01*
X211587Y249828D01*
X212360Y249197D01*
X213164Y248607D01*
X213997Y248058D01*
X214856Y247552D01*
X215740Y247090D01*
X216647Y246674D01*
X217573Y246304D01*
X218516Y245982D01*
X219475Y245707D01*
X220447Y245482D01*
X221429Y245306D01*
X222418Y245180D01*
X223412Y245104D01*
X224410Y245079D01*
X225407Y245104D01*
X226401Y245180D01*
X227390Y245306D01*
X228372Y245482D01*
X229344Y245707D01*
X230303Y245982D01*
X231246Y246304D01*
X232172Y246674D01*
X233079Y247091D01*
X233963Y247552D01*
X234822Y248058D01*
X235655Y248607D01*
X236459Y249197D01*
X237232Y249828D01*
X237972Y250496D01*
X238677Y251202D01*
X239346Y251942D01*
X239976Y252714D01*
X240566Y253518D01*
X241115Y254351D01*
X241621Y255211D01*
X242083Y256095D01*
X242499Y257001D01*
X242869Y257927D01*
X243192Y258871D01*
X243466Y259830D01*
X243692Y260801D01*
X243867Y261783D01*
X243993Y262772D01*
X244069Y263767D01*
X244094Y264764D01*
X116142Y267717D02*
X116091Y268712D01*
X115940Y269698D01*
X115690Y270663D01*
X115344Y271598D01*
X114905Y272493D01*
X114378Y273339D01*
X113767Y274128D01*
X113080Y274850D01*
X112324Y275500D01*
X111505Y276069D01*
X110634Y276553D01*
X109718Y276946D01*
X108766Y277245D01*
X107790Y277446D01*
X106798Y277546D01*
X105801D01*
X104809Y277446D01*
X103832Y277245D01*
X102881Y276946D01*
X101965Y276553D01*
X101093Y276069D01*
X100275Y275500D01*
X99518Y274850D01*
X98831Y274128D01*
X98221Y273339D01*
X97693Y272493D01*
X97254Y271598D01*
X96908Y270663D01*
X96658Y269698D01*
X96507Y268712D01*
X96457Y267717D01*
X96507Y266721D01*
X96658Y265735D01*
X96908Y264770D01*
X97254Y263835D01*
X97693Y262940D01*
X98221Y262094D01*
X98831Y261305D01*
X99518Y260583D01*
X100275Y259933D01*
X101093Y259364D01*
X101965Y258880D01*
X102881Y258487D01*
X103832Y258188D01*
X104809Y257987D01*
X105801Y257887D01*
X106798D01*
X107790Y257987D01*
X108766Y258188D01*
X109718Y258487D01*
X110634Y258880D01*
X111506Y259364D01*
X112324Y259933D01*
X113080Y260583D01*
X113767Y261305D01*
X114378Y262094D01*
X114905Y262940D01*
X115344Y263835D01*
X115690Y264770D01*
X115940Y265735D01*
X116091Y266721D01*
X116142Y267717D01*
X136811D02*
X136760Y268712D01*
X136609Y269698D01*
X136360Y270663D01*
X136013Y271598D01*
X135574Y272493D01*
X135047Y273339D01*
X134437Y274128D01*
X133750Y274850D01*
X132993Y275500D01*
X132175Y276069D01*
X131303Y276553D01*
X130387Y276946D01*
X129436Y277245D01*
X128459Y277446D01*
X127467Y277546D01*
X126470D01*
X125478Y277446D01*
X124501Y277245D01*
X123550Y276946D01*
X122634Y276553D01*
X121762Y276069D01*
X120944Y275500D01*
X120187Y274850D01*
X119500Y274128D01*
X118890Y273339D01*
X118363Y272493D01*
X117924Y271598D01*
X117577Y270663D01*
X117327Y269698D01*
X117176Y268712D01*
X117126Y267717D01*
X117176Y266721D01*
X117327Y265735D01*
X117577Y264770D01*
X117924Y263835D01*
X118363Y262940D01*
X118890Y262094D01*
X119500Y261305D01*
X120187Y260583D01*
X120944Y259933D01*
X121762Y259364D01*
X122634Y258880D01*
X123550Y258487D01*
X124502Y258188D01*
X125478Y257987D01*
X126470Y257887D01*
X127467D01*
X128459Y257987D01*
X129436Y258188D01*
X130387Y258487D01*
X131303Y258880D01*
X132175Y259364D01*
X132993Y259933D01*
X133750Y260583D01*
X134437Y261305D01*
X135047Y262094D01*
X135574Y262940D01*
X136013Y263835D01*
X136360Y264770D01*
X136609Y265735D01*
X136760Y266721D01*
X136811Y267717D01*
X157480D02*
X157430Y268712D01*
X157279Y269698D01*
X157029Y270663D01*
X156683Y271598D01*
X156244Y272493D01*
X155716Y273339D01*
X155106Y274128D01*
X154419Y274850D01*
X153663Y275500D01*
X152844Y276069D01*
X151972Y276553D01*
X151056Y276946D01*
X150105Y277245D01*
X149128Y277446D01*
X148136Y277546D01*
X147139D01*
X146147Y277446D01*
X145171Y277245D01*
X144219Y276946D01*
X143303Y276553D01*
X142431Y276069D01*
X141613Y275500D01*
X140857Y274850D01*
X140170Y274128D01*
X139559Y273339D01*
X139032Y272493D01*
X138593Y271598D01*
X138247Y270663D01*
X137997Y269698D01*
X137846Y268712D01*
X137795Y267717D01*
X137846Y266721D01*
X137997Y265735D01*
X138247Y264770D01*
X138593Y263835D01*
X139032Y262940D01*
X139559Y262094D01*
X140170Y261305D01*
X140857Y260583D01*
X141613Y259933D01*
X142431Y259364D01*
X143303Y258880D01*
X144220Y258487D01*
X145171Y258188D01*
X146147Y257987D01*
X147139Y257887D01*
X148136D01*
X149128Y257987D01*
X150105Y258188D01*
X151056Y258487D01*
X151972Y258880D01*
X152844Y259364D01*
X153663Y259933D01*
X154419Y260583D01*
X155106Y261305D01*
X155716Y262094D01*
X156244Y262940D01*
X156683Y263835D01*
X157029Y264770D01*
X157279Y265735D01*
X157430Y266721D01*
X157480Y267717D01*
X123031Y17520D02*
X123000Y18519D01*
X122905Y19513D01*
X122747Y20500D01*
X122527Y21475D01*
X122245Y22434D01*
X121903Y23373D01*
X121503Y24288D01*
X121045Y25176D01*
X120531Y26034D01*
X119965Y26857D01*
X119347Y27642D01*
X118681Y28387D01*
X117969Y29088D01*
X117213Y29743D01*
X116418Y30348D01*
X115586Y30901D01*
X114721Y31401D01*
X113825Y31845D01*
X112904Y32231D01*
X111959Y32557D01*
X110996Y32824D01*
X110018Y33029D01*
X109029Y33171D01*
X108033Y33250D01*
X107034Y33266D01*
X106035Y33218D01*
X105042Y33107D01*
X104058Y32934D01*
X103087Y32698D01*
X102133Y32402D01*
X101199Y32045D01*
X100290Y31630D01*
X99410Y31158D01*
X98560Y30631D01*
X97746Y30051D01*
X96971Y29421D01*
X96237Y28743D01*
X95547Y28020D01*
X94905Y27255D01*
X94312Y26450D01*
X93772Y25609D01*
X93286Y24736D01*
X92857Y23833D01*
X92485Y22906D01*
X92173Y21956D01*
X91922Y20989D01*
X91733Y20008D01*
X91607Y19017D01*
X91543Y18019D01*
Y17020D01*
X91607Y16023D01*
X91733Y15032D01*
X91922Y14050D01*
X92173Y13083D01*
X92485Y12133D01*
X92857Y11206D01*
X93286Y10304D01*
X93772Y9430D01*
X94312Y8590D01*
X94905Y7785D01*
X95547Y7019D01*
X96237Y6296D01*
X96971Y5618D01*
X97746Y4988D01*
X98560Y4408D01*
X99410Y3881D01*
X100290Y3410D01*
X101199Y2994D01*
X102133Y2638D01*
X103087Y2341D01*
X104058Y2105D01*
X105042Y1932D01*
X106035Y1821D01*
X107034Y1774D01*
X108033Y1790D01*
X109029Y1869D01*
X110018Y2011D01*
X110996Y2216D01*
X111959Y2482D01*
X112904Y2809D01*
X113825Y3195D01*
X114721Y3638D01*
X115586Y4138D01*
X116418Y4692D01*
X117213Y5297D01*
X117969Y5951D01*
X118681Y6652D01*
X119347Y7397D01*
X119965Y8183D01*
X120531Y9006D01*
X121045Y9863D01*
X121503Y10751D01*
X121903Y11667D01*
X122245Y12606D01*
X122527Y13565D01*
X122747Y14539D01*
X122905Y15526D01*
X123000Y16521D01*
X123031Y17520D01*
X62992Y17717D02*
X62960Y18715D01*
X62865Y19710D01*
X62708Y20697D01*
X62487Y21672D01*
X62206Y22630D01*
X61864Y23570D01*
X61463Y24485D01*
X61006Y25373D01*
X60492Y26231D01*
X59926Y27054D01*
X59308Y27839D01*
X58641Y28584D01*
X57929Y29285D01*
X57174Y29939D01*
X56379Y30544D01*
X55547Y31098D01*
X54681Y31598D01*
X53786Y32041D01*
X52864Y32427D01*
X51920Y32754D01*
X50957Y33021D01*
X49979Y33225D01*
X48990Y33367D01*
X47993Y33447D01*
X46994Y33463D01*
X45996Y33415D01*
X45003Y33304D01*
X44019Y33131D01*
X43048Y32895D01*
X42093Y32599D01*
X41160Y32242D01*
X40251Y31827D01*
X39370Y31355D01*
X38521Y30828D01*
X37707Y30248D01*
X36931Y29618D01*
X36197Y28940D01*
X35508Y28217D01*
X34865Y27451D01*
X34273Y26647D01*
X33733Y25806D01*
X33247Y24933D01*
X32817Y24030D01*
X32446Y23103D01*
X32134Y22153D01*
X31883Y21186D01*
X31694Y20205D01*
X31567Y19214D01*
X31504Y18216D01*
Y17217D01*
X31567Y16220D01*
X31694Y15228D01*
X31883Y14247D01*
X32134Y13280D01*
X32446Y12330D01*
X32817Y11403D01*
X33247Y10500D01*
X33733Y9627D01*
X34273Y8787D01*
X34865Y7982D01*
X35508Y7216D01*
X36197Y6493D01*
X36931Y5815D01*
X37707Y5185D01*
X38521Y4605D01*
X39370Y4078D01*
X40251Y3606D01*
X41160Y3191D01*
X42093Y2835D01*
X43048Y2538D01*
X44019Y2302D01*
X45003Y2129D01*
X45996Y2018D01*
X46994Y1970D01*
X47993Y1986D01*
X48990Y2066D01*
X49979Y2208D01*
X50957Y2412D01*
X51920Y2679D01*
X52864Y3005D01*
X53786Y3392D01*
X54681Y3835D01*
X55547Y4335D01*
X56379Y4889D01*
X57174Y5494D01*
X57929Y6148D01*
X58641Y6849D01*
X59308Y7594D01*
X59926Y8379D01*
X60492Y9202D01*
X61006Y10060D01*
X61463Y10948D01*
X61864Y11863D01*
X62206Y12803D01*
X62487Y13761D01*
X62708Y14736D01*
X62865Y15723D01*
X62960Y16718D01*
X62992Y17717D01*
X123031Y152559D02*
X123000Y153558D01*
X122905Y154553D01*
X122747Y155539D01*
X122527Y156514D01*
X122245Y157473D01*
X121903Y158412D01*
X121503Y159327D01*
X121045Y160216D01*
X120531Y161073D01*
X119965Y161896D01*
X119347Y162682D01*
X118681Y163426D01*
X117969Y164127D01*
X117213Y164782D01*
X116418Y165387D01*
X115586Y165941D01*
X114721Y166440D01*
X113825Y166884D01*
X112904Y167270D01*
X111959Y167597D01*
X110996Y167863D01*
X110018Y168068D01*
X109029Y168210D01*
X108033Y168289D01*
X107034Y168305D01*
X106035Y168257D01*
X105042Y168147D01*
X104058Y167973D01*
X103087Y167738D01*
X102133Y167441D01*
X101199Y167084D01*
X100290Y166669D01*
X99410Y166197D01*
X98560Y165670D01*
X97746Y165091D01*
X96971Y164461D01*
X96237Y163783D01*
X95547Y163059D01*
X94905Y162294D01*
X94312Y161489D01*
X93772Y160649D01*
X93286Y159775D01*
X92857Y158873D01*
X92485Y157945D01*
X92173Y156996D01*
X91922Y156028D01*
X91733Y155047D01*
X91607Y154056D01*
X91543Y153059D01*
Y152059D01*
X91607Y151062D01*
X91733Y150071D01*
X91922Y149090D01*
X92173Y148122D01*
X92485Y147173D01*
X92857Y146245D01*
X93286Y145343D01*
X93772Y144470D01*
X94312Y143629D01*
X94905Y142824D01*
X95547Y142059D01*
X96237Y141335D01*
X96971Y140657D01*
X97746Y140027D01*
X98560Y139448D01*
X99410Y138921D01*
X100290Y138449D01*
X101199Y138034D01*
X102133Y137677D01*
X103087Y137380D01*
X104058Y137145D01*
X105042Y136971D01*
X106035Y136861D01*
X107034Y136813D01*
X108033Y136829D01*
X109029Y136908D01*
X110018Y137050D01*
X110996Y137255D01*
X111959Y137521D01*
X112904Y137848D01*
X113825Y138234D01*
X114721Y138678D01*
X115586Y139178D01*
X116418Y139731D01*
X117213Y140336D01*
X117969Y140991D01*
X118681Y141692D01*
X119347Y142436D01*
X119965Y143222D01*
X120531Y144045D01*
X121045Y144902D01*
X121503Y145791D01*
X121903Y146706D01*
X122245Y147645D01*
X122527Y148604D01*
X122747Y149579D01*
X122905Y150565D01*
X123000Y151560D01*
X123031Y152559D01*
X123031Y186378D02*
X123000Y187377D01*
X122905Y188372D01*
X122747Y189358D01*
X122527Y190333D01*
X122245Y191292D01*
X121903Y192231D01*
X121503Y193146D01*
X121045Y194035D01*
X120531Y194892D01*
X119965Y195715D01*
X119347Y196501D01*
X118681Y197245D01*
X117969Y197946D01*
X117213Y198601D01*
X116418Y199206D01*
X115586Y199759D01*
X114721Y200259D01*
X113825Y200703D01*
X112904Y201089D01*
X111959Y201416D01*
X110996Y201682D01*
X110018Y201887D01*
X109029Y202029D01*
X108033Y202108D01*
X107034Y202124D01*
X106035Y202077D01*
X105042Y201966D01*
X104058Y201792D01*
X103087Y201557D01*
X102133Y201260D01*
X101199Y200903D01*
X100290Y200488D01*
X99410Y200016D01*
X98560Y199489D01*
X97746Y198910D01*
X96971Y198280D01*
X96237Y197601D01*
X95547Y196878D01*
X94905Y196113D01*
X94312Y195308D01*
X93772Y194467D01*
X93286Y193594D01*
X92857Y192692D01*
X92485Y191764D01*
X92173Y190815D01*
X91922Y189847D01*
X91733Y188866D01*
X91607Y187875D01*
X91543Y186878D01*
Y185878D01*
X91607Y184881D01*
X91733Y183890D01*
X91922Y182908D01*
X92173Y181941D01*
X92485Y180992D01*
X92857Y180064D01*
X93286Y179162D01*
X93772Y178289D01*
X94312Y177448D01*
X94905Y176643D01*
X95547Y175878D01*
X96237Y175154D01*
X96971Y174476D01*
X97746Y173846D01*
X98560Y173267D01*
X99410Y172740D01*
X100290Y172268D01*
X101199Y171853D01*
X102133Y171496D01*
X103087Y171199D01*
X104058Y170964D01*
X105042Y170790D01*
X106035Y170679D01*
X107034Y170632D01*
X108033Y170648D01*
X109029Y170727D01*
X110018Y170869D01*
X110996Y171074D01*
X111959Y171340D01*
X112904Y171667D01*
X113825Y172053D01*
X114721Y172497D01*
X115586Y172996D01*
X116418Y173550D01*
X117213Y174155D01*
X117969Y174810D01*
X118681Y175511D01*
X119347Y176255D01*
X119965Y177041D01*
X120531Y177864D01*
X121045Y178721D01*
X121503Y179610D01*
X121903Y180525D01*
X122245Y181464D01*
X122527Y182423D01*
X122747Y183398D01*
X122905Y184384D01*
X123000Y185379D01*
X123031Y186378D01*
X175197Y219488D02*
X175165Y220487D01*
X175070Y221482D01*
X174912Y222468D01*
X174692Y223443D01*
X174411Y224402D01*
X174069Y225341D01*
X173668Y226257D01*
X173210Y227145D01*
X172697Y228002D01*
X172130Y228825D01*
X171512Y229611D01*
X170846Y230356D01*
X170134Y231057D01*
X169379Y231711D01*
X168584Y232316D01*
X167752Y232870D01*
X166886Y233369D01*
X165991Y233813D01*
X165069Y234199D01*
X164125Y234526D01*
X163162Y234792D01*
X162183Y234997D01*
X161194Y235139D01*
X160198Y235218D01*
X159199Y235234D01*
X158201Y235187D01*
X157208Y235076D01*
X156223Y234902D01*
X155252Y234667D01*
X154298Y234370D01*
X153365Y234014D01*
X152456Y233598D01*
X151575Y233126D01*
X150726Y232599D01*
X149912Y232020D01*
X149136Y231390D01*
X148402Y230712D01*
X147712Y229989D01*
X147070Y229223D01*
X146477Y228418D01*
X145937Y227578D01*
X145451Y226704D01*
X145022Y225802D01*
X144650Y224874D01*
X144339Y223925D01*
X144088Y222958D01*
X143899Y221976D01*
X143772Y220985D01*
X143709Y219988D01*
Y218988D01*
X143772Y217991D01*
X143899Y217000D01*
X144088Y216019D01*
X144339Y215052D01*
X144650Y214102D01*
X145022Y213174D01*
X145451Y212272D01*
X145937Y211399D01*
X146477Y210558D01*
X147070Y209753D01*
X147712Y208988D01*
X148402Y208265D01*
X149136Y207587D01*
X149912Y206957D01*
X150726Y206377D01*
X151575Y205850D01*
X152456Y205378D01*
X153365Y204963D01*
X154298Y204606D01*
X155252Y204310D01*
X156224Y204074D01*
X157208Y203901D01*
X158201Y203790D01*
X159199Y203742D01*
X160198Y203758D01*
X161194Y203837D01*
X162183Y203979D01*
X163162Y204184D01*
X164125Y204450D01*
X165069Y204777D01*
X165991Y205163D01*
X166886Y205607D01*
X167752Y206107D01*
X168584Y206660D01*
X169379Y207265D01*
X170134Y207920D01*
X170846Y208621D01*
X171512Y209366D01*
X172130Y210151D01*
X172697Y210974D01*
X173210Y211831D01*
X173668Y212720D01*
X174069Y213635D01*
X174411Y214574D01*
X174692Y215533D01*
X174912Y216508D01*
X175070Y217495D01*
X175165Y218489D01*
X175197Y219488D01*
X207677Y219488D02*
X207646Y220487D01*
X207551Y221482D01*
X207393Y222468D01*
X207172Y223443D01*
X206891Y224402D01*
X206549Y225341D01*
X206149Y226257D01*
X205691Y227145D01*
X205177Y228002D01*
X204611Y228825D01*
X203993Y229611D01*
X203327Y230356D01*
X202614Y231057D01*
X201859Y231711D01*
X201064Y232316D01*
X200232Y232870D01*
X199366Y233369D01*
X198471Y233813D01*
X197549Y234199D01*
X196605Y234526D01*
X195642Y234792D01*
X194664Y234997D01*
X193675Y235139D01*
X192678Y235218D01*
X191679Y235234D01*
X190681Y235187D01*
X189688Y235076D01*
X188704Y234902D01*
X187733Y234667D01*
X186778Y234370D01*
X185845Y234014D01*
X184936Y233598D01*
X184055Y233126D01*
X183206Y232599D01*
X182392Y232020D01*
X181616Y231390D01*
X180882Y230712D01*
X180193Y229989D01*
X179550Y229223D01*
X178958Y228418D01*
X178418Y227578D01*
X177932Y226704D01*
X177502Y225802D01*
X177131Y224874D01*
X176819Y223925D01*
X176568Y222958D01*
X176379Y221976D01*
X176252Y220985D01*
X176189Y219988D01*
Y218988D01*
X176252Y217991D01*
X176379Y217000D01*
X176568Y216019D01*
X176819Y215052D01*
X177131Y214102D01*
X177502Y213174D01*
X177932Y212272D01*
X178418Y211399D01*
X178958Y210558D01*
X179550Y209753D01*
X180193Y208988D01*
X180882Y208265D01*
X181616Y207587D01*
X182392Y206957D01*
X183206Y206377D01*
X184055Y205850D01*
X184936Y205378D01*
X185845Y204963D01*
X186778Y204606D01*
X187733Y204310D01*
X188704Y204074D01*
X189688Y203901D01*
X190681Y203790D01*
X191679Y203742D01*
X192678Y203758D01*
X193675Y203837D01*
X194664Y203979D01*
X195642Y204184D01*
X196605Y204450D01*
X197549Y204777D01*
X198471Y205163D01*
X199366Y205607D01*
X200232Y206107D01*
X201064Y206660D01*
X201859Y207265D01*
X202614Y207920D01*
X203327Y208621D01*
X203993Y209366D01*
X204610Y210151D01*
X205177Y210974D01*
X205691Y211831D01*
X206148Y212720D01*
X206549Y213635D01*
X206891Y214574D01*
X207172Y215533D01*
X207393Y216508D01*
X207551Y217495D01*
X207646Y218489D01*
X207677Y219488D01*
X304291Y117126D02*
X304260Y118125D01*
X304165Y119120D01*
X304007Y120106D01*
X303787Y121081D01*
X303505Y122040D01*
X303163Y122979D01*
X302763Y123894D01*
X302305Y124783D01*
X301791Y125640D01*
X301225Y126463D01*
X300607Y127249D01*
X299941Y127993D01*
X299229Y128694D01*
X298473Y129349D01*
X297678Y129954D01*
X296846Y130508D01*
X295981Y131007D01*
X295085Y131451D01*
X294164Y131837D01*
X293219Y132164D01*
X292256Y132430D01*
X291278Y132635D01*
X290289Y132777D01*
X289293Y132856D01*
X288294Y132872D01*
X287295Y132825D01*
X286302Y132714D01*
X285318Y132540D01*
X284347Y132305D01*
X283393Y132008D01*
X282459Y131651D01*
X281550Y131236D01*
X280669Y130764D01*
X279820Y130237D01*
X279006Y129658D01*
X278231Y129028D01*
X277497Y128349D01*
X276807Y127626D01*
X276165Y126861D01*
X275572Y126056D01*
X275032Y125215D01*
X274546Y124342D01*
X274116Y123440D01*
X273745Y122512D01*
X273433Y121563D01*
X273182Y120595D01*
X272993Y119614D01*
X272867Y118623D01*
X272803Y117626D01*
Y116626D01*
X272867Y115629D01*
X272993Y114638D01*
X273182Y113656D01*
X273433Y112689D01*
X273745Y111740D01*
X274116Y110812D01*
X274546Y109910D01*
X275032Y109037D01*
X275572Y108196D01*
X276165Y107391D01*
X276807Y106626D01*
X277497Y105902D01*
X278231Y105224D01*
X279006Y104594D01*
X279820Y104015D01*
X280669Y103488D01*
X281550Y103016D01*
X282459Y102601D01*
X283393Y102244D01*
X284347Y101947D01*
X285318Y101712D01*
X286302Y101538D01*
X287295Y101427D01*
X288294Y101380D01*
X289293Y101396D01*
X290289Y101475D01*
X291278Y101617D01*
X292256Y101822D01*
X293219Y102088D01*
X294164Y102415D01*
X295085Y102801D01*
X295981Y103245D01*
X296846Y103744D01*
X297678Y104298D01*
X298473Y104903D01*
X299229Y105558D01*
X299941Y106259D01*
X300607Y107003D01*
X301225Y107789D01*
X301791Y108612D01*
X302305Y109469D01*
X302763Y110357D01*
X303163Y111273D01*
X303505Y112212D01*
X303787Y113171D01*
X304007Y114146D01*
X304165Y115132D01*
X304260Y116127D01*
X304291Y117126D01*
X286417Y17717D02*
X286367Y18712D01*
X286216Y19698D01*
X285966Y20663D01*
X285620Y21598D01*
X285181Y22493D01*
X284653Y23339D01*
X284043Y24128D01*
X283356Y24850D01*
X282599Y25500D01*
X281781Y26069D01*
X280909Y26553D01*
X279993Y26946D01*
X279042Y27245D01*
X278065Y27446D01*
X277073Y27546D01*
X276076D01*
X275084Y27446D01*
X274108Y27245D01*
X273156Y26946D01*
X272240Y26553D01*
X271369Y26069D01*
X270550Y25500D01*
X269794Y24850D01*
X269107Y24128D01*
X268496Y23339D01*
X267969Y22493D01*
X267530Y21598D01*
X267184Y20663D01*
X266934Y19698D01*
X266783Y18712D01*
X266732Y17717D01*
X266783Y16721D01*
X266934Y15735D01*
X267184Y14770D01*
X267530Y13835D01*
X267969Y12940D01*
X268496Y12094D01*
X269107Y11305D01*
X269794Y10583D01*
X270550Y9933D01*
X271369Y9364D01*
X272240Y8880D01*
X273156Y8487D01*
X274108Y8188D01*
X275084Y7987D01*
X276076Y7887D01*
X277073D01*
X278065Y7987D01*
X279042Y8188D01*
X279993Y8487D01*
X280909Y8880D01*
X281781Y9364D01*
X282599Y9933D01*
X283356Y10583D01*
X284043Y11305D01*
X284653Y12094D01*
X285181Y12940D01*
X285620Y13835D01*
X285966Y14770D01*
X286216Y15735D01*
X286367Y16721D01*
X286417Y17717D01*
X306102Y44488D02*
X306071Y45487D01*
X305976Y46482D01*
X305818Y47469D01*
X305598Y48443D01*
X305316Y49402D01*
X304974Y50341D01*
X304574Y51257D01*
X304116Y52145D01*
X303602Y53002D01*
X303036Y53825D01*
X302418Y54611D01*
X301752Y55356D01*
X301040Y56057D01*
X300284Y56711D01*
X299489Y57316D01*
X298657Y57870D01*
X297792Y58369D01*
X296896Y58813D01*
X295975Y59199D01*
X295030Y59526D01*
X294067Y59792D01*
X293089Y59997D01*
X292100Y60139D01*
X291104Y60218D01*
X290105Y60234D01*
X289106Y60187D01*
X288113Y60076D01*
X287129Y59902D01*
X286158Y59667D01*
X285204Y59370D01*
X284270Y59013D01*
X283361Y58598D01*
X282480Y58126D01*
X281631Y57600D01*
X280817Y57020D01*
X280042Y56390D01*
X279308Y55712D01*
X278618Y54988D01*
X277976Y54223D01*
X277383Y53418D01*
X276843Y52578D01*
X276357Y51704D01*
X275927Y50802D01*
X275556Y49874D01*
X275244Y48925D01*
X274993Y47958D01*
X274804Y46976D01*
X274678Y45985D01*
X274614Y44988D01*
Y43988D01*
X274678Y42991D01*
X274804Y42000D01*
X274993Y41019D01*
X275244Y40051D01*
X275556Y39102D01*
X275927Y38174D01*
X276357Y37272D01*
X276843Y36399D01*
X277383Y35558D01*
X277976Y34753D01*
X278618Y33988D01*
X279308Y33265D01*
X280042Y32587D01*
X280817Y31956D01*
X281631Y31377D01*
X282480Y30850D01*
X283361Y30378D01*
X284270Y29963D01*
X285204Y29606D01*
X286158Y29310D01*
X287129Y29074D01*
X288113Y28901D01*
X289106Y28790D01*
X290105Y28742D01*
X291104Y28758D01*
X292100Y28837D01*
X293089Y28979D01*
X294067Y29184D01*
X295030Y29450D01*
X295975Y29777D01*
X296896Y30163D01*
X297792Y30607D01*
X298657Y31107D01*
X299489Y31660D01*
X300284Y32265D01*
X301040Y32920D01*
X301752Y33621D01*
X302418Y34365D01*
X303036Y35151D01*
X303602Y35974D01*
X304116Y36832D01*
X304574Y37720D01*
X304974Y38635D01*
X305316Y39574D01*
X305598Y40533D01*
X305818Y41508D01*
X305976Y42494D01*
X306071Y43489D01*
X306102Y44488D01*
X90551Y152559D02*
X90519Y153558D01*
X90425Y154553D01*
X90267Y155539D01*
X90046Y156514D01*
X89765Y157473D01*
X89423Y158412D01*
X89022Y159327D01*
X88565Y160216D01*
X88051Y161073D01*
X87485Y161896D01*
X86867Y162682D01*
X86200Y163426D01*
X85488Y164127D01*
X84733Y164782D01*
X83938Y165387D01*
X83106Y165941D01*
X82240Y166440D01*
X81345Y166884D01*
X80423Y167270D01*
X79479Y167597D01*
X78516Y167863D01*
X77538Y168068D01*
X76549Y168210D01*
X75552Y168289D01*
X74553Y168305D01*
X73555Y168257D01*
X72562Y168147D01*
X71578Y167973D01*
X70607Y167738D01*
X69652Y167441D01*
X68719Y167084D01*
X67810Y166669D01*
X66929Y166197D01*
X66080Y165670D01*
X65266Y165091D01*
X64490Y164461D01*
X63756Y163783D01*
X63067Y163059D01*
X62424Y162294D01*
X61832Y161489D01*
X61292Y160649D01*
X60806Y159775D01*
X60376Y158873D01*
X60005Y157945D01*
X59693Y156996D01*
X59442Y156028D01*
X59253Y155047D01*
X59126Y154056D01*
X59063Y153059D01*
Y152059D01*
X59126Y151062D01*
X59253Y150071D01*
X59442Y149090D01*
X59693Y148122D01*
X60005Y147173D01*
X60376Y146245D01*
X60806Y145343D01*
X61292Y144470D01*
X61832Y143629D01*
X62424Y142824D01*
X63067Y142059D01*
X63756Y141335D01*
X64490Y140657D01*
X65266Y140027D01*
X66080Y139448D01*
X66929Y138921D01*
X67810Y138449D01*
X68719Y138034D01*
X69652Y137677D01*
X70607Y137380D01*
X71578Y137145D01*
X72562Y136971D01*
X73555Y136861D01*
X74553Y136813D01*
X75552Y136829D01*
X76549Y136908D01*
X77538Y137050D01*
X78516Y137255D01*
X79479Y137521D01*
X80423Y137848D01*
X81345Y138234D01*
X82240Y138678D01*
X83106Y139178D01*
X83938Y139731D01*
X84733Y140336D01*
X85488Y140991D01*
X86200Y141692D01*
X86867Y142436D01*
X87485Y143222D01*
X88051Y144045D01*
X88564Y144902D01*
X89022Y145791D01*
X89423Y146706D01*
X89765Y147645D01*
X90046Y148604D01*
X90267Y149579D01*
X90425Y150565D01*
X90519Y151560D01*
X90551Y152559D01*
X392717Y99410D02*
X392691Y100407D01*
X392616Y101401D01*
X392490Y102390D01*
X392314Y103372D01*
X392088Y104344D01*
X391814Y105302D01*
X391491Y106246D01*
X391121Y107172D01*
X390705Y108079D01*
X390243Y108963D01*
X389737Y109822D01*
X389188Y110655D01*
X388598Y111459D01*
X387968Y112232D01*
X387299Y112972D01*
X386594Y113677D01*
X385854Y114346D01*
X385081Y114976D01*
X384277Y115566D01*
X383444Y116115D01*
X382585Y116621D01*
X381701Y117083D01*
X380794Y117499D01*
X379868Y117869D01*
X378924Y118192D01*
X377966Y118466D01*
X376994Y118692D01*
X376012Y118868D01*
X375023Y118993D01*
X374028Y119069D01*
X373031Y119095D01*
X372035Y119069D01*
X371040Y118993D01*
X370051Y118868D01*
X369069Y118692D01*
X368097Y118466D01*
X367139Y118192D01*
X366195Y117869D01*
X365269Y117499D01*
X364362Y117083D01*
X363478Y116621D01*
X362619Y116115D01*
X361786Y115566D01*
X360982Y114976D01*
X360209Y114346D01*
X359469Y113677D01*
X358764Y112972D01*
X358095Y112232D01*
X357465Y111459D01*
X356875Y110655D01*
X356326Y109822D01*
X355820Y108963D01*
X355358Y108079D01*
X354942Y107172D01*
X354572Y106246D01*
X354249Y105302D01*
X353975Y104343D01*
X353749Y103372D01*
X353573Y102390D01*
X353447Y101401D01*
X353372Y100406D01*
X353346Y99409D01*
X353372Y98412D01*
X353448Y97418D01*
X353573Y96429D01*
X353749Y95447D01*
X353975Y94475D01*
X354249Y93516D01*
X354572Y92573D01*
X354942Y91646D01*
X355358Y90740D01*
X355820Y89856D01*
X356326Y88997D01*
X356875Y88164D01*
X357465Y87360D01*
X358095Y86587D01*
X358764Y85847D01*
X359469Y85142D01*
X360209Y84473D01*
X360982Y83843D01*
X361786Y83253D01*
X362619Y82704D01*
X363478Y82198D01*
X364362Y81736D01*
X365269Y81320D01*
X366195Y80950D01*
X367139Y80627D01*
X368097Y80353D01*
X369069Y80127D01*
X370051Y79951D01*
X371040Y79825D01*
X372035Y79750D01*
X373032Y79724D01*
X374029Y79750D01*
X375023Y79825D01*
X376012Y79951D01*
X376994Y80127D01*
X377966Y80353D01*
X378924Y80627D01*
X379868Y80950D01*
X380795Y81320D01*
X381701Y81736D01*
X382585Y82198D01*
X383444Y82704D01*
X384277Y83253D01*
X385081Y83843D01*
X385854Y84473D01*
X386594Y85142D01*
X387299Y85847D01*
X387968Y86587D01*
X388598Y87360D01*
X389188Y88164D01*
X389737Y88997D01*
X390243Y89856D01*
X390705Y90740D01*
X391121Y91647D01*
X391491Y92573D01*
X391814Y93517D01*
X392088Y94475D01*
X392314Y95447D01*
X392490Y96429D01*
X392616Y97418D01*
X392691Y98413D01*
X392717Y99410D01*
Y156496D02*
X392691Y157493D01*
X392616Y158488D01*
X392490Y159477D01*
X392314Y160459D01*
X392088Y161430D01*
X391814Y162389D01*
X391491Y163333D01*
X391121Y164259D01*
X390705Y165165D01*
X390243Y166049D01*
X389737Y166909D01*
X389188Y167742D01*
X388598Y168545D01*
X387968Y169318D01*
X387299Y170058D01*
X386594Y170764D01*
X385854Y171432D01*
X385081Y172063D01*
X384277Y172653D01*
X383444Y173202D01*
X382585Y173708D01*
X381701Y174169D01*
X380794Y174586D01*
X379868Y174956D01*
X378924Y175278D01*
X377966Y175553D01*
X376994Y175778D01*
X376012Y175954D01*
X375023Y176080D01*
X374028Y176156D01*
X373031Y176181D01*
X372035Y176156D01*
X371040Y176080D01*
X370051Y175954D01*
X369069Y175778D01*
X368097Y175553D01*
X367139Y175278D01*
X366195Y174956D01*
X365269Y174586D01*
X364362Y174169D01*
X363478Y173708D01*
X362619Y173202D01*
X361786Y172653D01*
X360982Y172063D01*
X360209Y171432D01*
X359469Y170764D01*
X358764Y170058D01*
X358095Y169318D01*
X357465Y168545D01*
X356875Y167742D01*
X356326Y166909D01*
X355820Y166049D01*
X355358Y165165D01*
X354942Y164259D01*
X354572Y163333D01*
X354249Y162389D01*
X353975Y161430D01*
X353749Y160459D01*
X353573Y159477D01*
X353447Y158487D01*
X353372Y157493D01*
X353346Y156496D01*
X353372Y155499D01*
X353448Y154505D01*
X353573Y153515D01*
X353749Y152533D01*
X353975Y151562D01*
X354249Y150603D01*
X354572Y149659D01*
X354942Y148733D01*
X355358Y147827D01*
X355820Y146943D01*
X356326Y146083D01*
X356875Y145251D01*
X357465Y144447D01*
X358095Y143674D01*
X358764Y142934D01*
X359469Y142228D01*
X360209Y141560D01*
X360982Y140930D01*
X361786Y140339D01*
X362619Y139790D01*
X363478Y139285D01*
X364362Y138823D01*
X365269Y138406D01*
X366195Y138036D01*
X367139Y137714D01*
X368097Y137439D01*
X369069Y137214D01*
X370051Y137038D01*
X371040Y136912D01*
X372035Y136836D01*
X373032Y136811D01*
X374029Y136836D01*
X375023Y136912D01*
X376012Y137038D01*
X376994Y137214D01*
X377966Y137439D01*
X378924Y137714D01*
X379868Y138036D01*
X380795Y138406D01*
X381701Y138823D01*
X382585Y139285D01*
X383444Y139790D01*
X384277Y140339D01*
X385081Y140930D01*
X385854Y141560D01*
X386594Y142228D01*
X387299Y142934D01*
X387968Y143674D01*
X388598Y144447D01*
X389188Y145251D01*
X389737Y146083D01*
X390243Y146943D01*
X390705Y147827D01*
X391121Y148733D01*
X391491Y149659D01*
X391814Y150603D01*
X392088Y151562D01*
X392314Y152534D01*
X392490Y153515D01*
X392616Y154505D01*
X392691Y155499D01*
X392717Y156496D01*
X90551Y186378D02*
X90519Y187377D01*
X90425Y188372D01*
X90267Y189358D01*
X90046Y190333D01*
X89765Y191292D01*
X89423Y192231D01*
X89022Y193146D01*
X88564Y194035D01*
X88051Y194892D01*
X87485Y195715D01*
X86867Y196501D01*
X86200Y197245D01*
X85488Y197946D01*
X84733Y198601D01*
X83938Y199206D01*
X83106Y199759D01*
X82240Y200259D01*
X81345Y200703D01*
X80423Y201089D01*
X79479Y201416D01*
X78516Y201682D01*
X77538Y201887D01*
X76549Y202029D01*
X75552Y202108D01*
X74553Y202124D01*
X73555Y202077D01*
X72562Y201966D01*
X71578Y201792D01*
X70607Y201557D01*
X69652Y201260D01*
X68719Y200903D01*
X67810Y200488D01*
X66929Y200016D01*
X66080Y199489D01*
X65266Y198910D01*
X64490Y198280D01*
X63756Y197601D01*
X63067Y196878D01*
X62424Y196113D01*
X61832Y195308D01*
X61292Y194467D01*
X60806Y193594D01*
X60376Y192692D01*
X60005Y191764D01*
X59693Y190815D01*
X59442Y189847D01*
X59253Y188866D01*
X59126Y187875D01*
X59063Y186878D01*
Y185878D01*
X59126Y184881D01*
X59253Y183890D01*
X59442Y182908D01*
X59693Y181941D01*
X60005Y180992D01*
X60376Y180064D01*
X60806Y179162D01*
X61292Y178289D01*
X61832Y177448D01*
X62424Y176643D01*
X63067Y175878D01*
X63756Y175154D01*
X64490Y174476D01*
X65266Y173846D01*
X66080Y173267D01*
X66929Y172740D01*
X67810Y172268D01*
X68719Y171853D01*
X69652Y171496D01*
X70607Y171199D01*
X71578Y170964D01*
X72562Y170790D01*
X73555Y170679D01*
X74553Y170632D01*
X75552Y170648D01*
X76549Y170727D01*
X77538Y170869D01*
X78516Y171074D01*
X79479Y171340D01*
X80423Y171667D01*
X81345Y172053D01*
X82240Y172497D01*
X83106Y172996D01*
X83938Y173550D01*
X84733Y174155D01*
X85488Y174810D01*
X86200Y175511D01*
X86867Y176255D01*
X87485Y177041D01*
X88051Y177864D01*
X88564Y178721D01*
X89022Y179610D01*
X89423Y180525D01*
X89765Y181464D01*
X90046Y182423D01*
X90267Y183398D01*
X90425Y184384D01*
X90519Y185379D01*
X90551Y186378D01*
X208661Y279213D02*
Y327087D01*
X177165Y279213D02*
Y325118D01*
Y279213D02*
X208661D01*
X387402Y347244D02*
X390354D01*
Y381102D01*
X387402D02*
X390354D01*
X373425D02*
X376378D01*
X373425Y347244D02*
Y381102D01*
Y347244D02*
X376772D01*
X322520Y348425D02*
Y379921D01*
X368425D01*
X322520Y348425D02*
X370394D01*
X316535Y347244D02*
X319488D01*
Y381102D01*
X316535D02*
X319488D01*
X302559D02*
X305512D01*
X302559Y347244D02*
Y381102D01*
Y347244D02*
X305906D01*
X112205Y279213D02*
Y327087D01*
X143701Y281181D02*
Y327087D01*
X112205D02*
X143701D01*
X83898Y350394D02*
Y381890D01*
X46024D02*
X83898D01*
X47992Y350394D02*
X83898D01*
X227126Y33661D02*
X263032D01*
X227126Y2165D02*
X265000D01*
X227126D02*
Y33661D01*
X103937Y347244D02*
X106890D01*
Y381102D01*
X103937D02*
X106890D01*
X89961D02*
X92913D01*
X89961Y347244D02*
Y381102D01*
Y347244D02*
X93307D01*
X231693D02*
X235039D01*
X231693D02*
Y381102D01*
X234646D01*
X245669D02*
X248622D01*
Y347244D02*
Y381102D01*
X245669Y347244D02*
X248622D01*
X245276Y264765D02*
X249211D01*
X247243Y262797D02*
Y266733D01*
X74607Y135630D02*
Y131694D01*
X72639Y133662D02*
X76575D01*
X74607Y169449D02*
Y165513D01*
X72639Y167481D02*
X76575D01*
X307283Y44292D02*
X311219D01*
X309251Y42324D02*
Y46260D01*
X352165Y99409D02*
X348230D01*
X350198Y101376D02*
Y97441D01*
X352165Y156495D02*
X348230D01*
X350198Y158463D02*
Y154527D01*
X107088Y591D02*
Y-3345D01*
X105120Y-1377D02*
X109055D01*
X47048Y787D02*
Y-3148D01*
X45080Y-1180D02*
X49016D01*
X107088Y135630D02*
Y131694D01*
X105120Y133662D02*
X109055D01*
X107088Y169449D02*
Y165513D01*
X105120Y167481D02*
X109055D01*
X159253Y202559D02*
Y198623D01*
X157285Y200591D02*
X161221D01*
X191733Y202559D02*
Y198623D01*
X189765Y200591D02*
X193701D01*
X271614Y117322D02*
X267678D01*
X269646Y119290D02*
Y115354D01*
X287598Y17717D02*
X290222D01*
X288910Y16405D02*
Y19029D01*
D130*
X375689Y345768D02*
X374902D01*
X375689D01*
X304823D02*
X304035D01*
X304823D01*
X382874Y192362D02*
X382862Y193362D01*
X382828Y194362D01*
X382770Y195361D01*
X382689Y196358D01*
X382586Y197353D01*
X382459Y198345D01*
X382309Y199335D01*
X382137Y200320D01*
X381942Y201301D01*
X381724Y202277D01*
X381483Y203249D01*
X381221Y204214D01*
X380936Y205173D01*
X380629Y206125D01*
X380300Y207070D01*
X379950Y208007D01*
X379577Y208935D01*
X379184Y209855D01*
X378769Y210765D01*
X378334Y211666D01*
X377878Y212556D01*
X377401Y213436D01*
X376904Y214304D01*
X376387Y215160D01*
X375851Y216005D01*
X375295Y216837D01*
X374720Y217655D01*
X374127Y218461D01*
X373515Y219252D01*
X372884Y220029D01*
X372237Y220791D01*
X371571Y221538D01*
X370889Y222269D01*
X370190Y222985D01*
X369474Y223684D01*
X368743Y224366D01*
X367996Y225032D01*
X367233Y225680D01*
X366457Y226310D01*
X365665Y226922D01*
X364860Y227516D01*
X364041Y228090D01*
X363210Y228646D01*
X362365Y229183D01*
X361509Y229699D01*
X360640Y230196D01*
X359761Y230673D01*
X358871Y231129D01*
X357970Y231565D01*
X357060Y231979D01*
X356140Y232373D01*
X355211Y232745D01*
X354274Y233095D01*
X353330Y233424D01*
X352377Y233731D01*
X351418Y234016D01*
X350453Y234279D01*
X349482Y234519D01*
X348506Y234737D01*
X347525Y234932D01*
X346539Y235104D01*
X345550Y235254D01*
X344558Y235381D01*
X343563Y235485D01*
X342566Y235565D01*
X341567Y235623D01*
X340567Y235658D01*
X339567Y235669D01*
X338567Y235658D01*
X337567Y235623D01*
X336568Y235565D01*
X335571Y235485D01*
X334576Y235381D01*
X333584Y235254D01*
X332595Y235104D01*
X331609Y234932D01*
X330628Y234737D01*
X329652Y234519D01*
X328681Y234279D01*
X327715Y234016D01*
X326756Y233731D01*
X325804Y233424D01*
X324859Y233095D01*
X323923Y232745D01*
X322994Y232373D01*
X322074Y231979D01*
X321164Y231565D01*
X320263Y231129D01*
X319373Y230673D01*
X318493Y230196D01*
X317625Y229699D01*
X316769Y229183D01*
X315924Y228646D01*
X315092Y228090D01*
X314274Y227516D01*
X313469Y226922D01*
X312677Y226310D01*
X311900Y225680D01*
X311138Y225032D01*
X310391Y224366D01*
X309660Y223684D01*
X308944Y222985D01*
X308245Y222269D01*
X307562Y221538D01*
X306897Y220791D01*
X306249Y220029D01*
X305619Y219252D01*
X305007Y218460D01*
X304414Y217655D01*
X303839Y216837D01*
X303283Y216005D01*
X302746Y215160D01*
X302230Y214304D01*
X301733Y213436D01*
X301256Y212556D01*
X300800Y211666D01*
X300364Y210765D01*
X299950Y209855D01*
X299556Y208935D01*
X299184Y208006D01*
X298834Y207069D01*
X298505Y206125D01*
X298198Y205173D01*
X297913Y204214D01*
X297650Y203248D01*
X297410Y202277D01*
X297192Y201301D01*
X296997Y200320D01*
X296825Y199334D01*
X296675Y198345D01*
X296548Y197353D01*
X296445Y196358D01*
X296364Y195361D01*
X296306Y194362D01*
X296271Y193362D01*
X296260Y192362D01*
X296271Y191362D01*
X296306Y190362D01*
X296364Y189363D01*
X296445Y188366D01*
X296548Y187371D01*
X296675Y186379D01*
X296825Y185390D01*
X296997Y184404D01*
X297192Y183423D01*
X297410Y182447D01*
X297651Y181476D01*
X297913Y180510D01*
X298198Y179551D01*
X298505Y178599D01*
X298834Y177655D01*
X299184Y176718D01*
X299556Y175789D01*
X299950Y174869D01*
X300365Y173959D01*
X300800Y173058D01*
X301256Y172168D01*
X301733Y171289D01*
X302230Y170420D01*
X302747Y169564D01*
X303283Y168719D01*
X303839Y167888D01*
X304414Y167069D01*
X305007Y166264D01*
X305619Y165472D01*
X306249Y164695D01*
X306897Y163933D01*
X307563Y163186D01*
X308245Y162455D01*
X308944Y161739D01*
X309660Y161040D01*
X310391Y160358D01*
X311138Y159692D01*
X311900Y159044D01*
X312678Y158414D01*
X313469Y157802D01*
X314274Y157209D01*
X315093Y156634D01*
X315925Y156078D01*
X316769Y155542D01*
X317625Y155025D01*
X318494Y154528D01*
X319373Y154051D01*
X320264Y153595D01*
X321164Y153160D01*
X322075Y152745D01*
X322994Y152352D01*
X323923Y151979D01*
X324860Y151629D01*
X325805Y151300D01*
X326757Y150993D01*
X327716Y150708D01*
X328681Y150446D01*
X329652Y150205D01*
X330628Y149988D01*
X331610Y149793D01*
X332595Y149620D01*
X333584Y149470D01*
X334576Y149344D01*
X335571Y149240D01*
X336568Y149159D01*
X337567Y149101D01*
X338567Y149067D01*
X339567Y149055D01*
X340567Y149067D01*
X341567Y149101D01*
X342566Y149159D01*
X343563Y149240D01*
X344558Y149344D01*
X345550Y149470D01*
X346539Y149620D01*
X347525Y149793D01*
X348506Y149988D01*
X349482Y150205D01*
X350453Y150446D01*
X351419Y150708D01*
X352378Y150993D01*
X353330Y151300D01*
X354274Y151629D01*
X355211Y151979D01*
X356140Y152352D01*
X357060Y152745D01*
X357970Y153160D01*
X358871Y153595D01*
X359761Y154051D01*
X360640Y154528D01*
X361509Y155025D01*
X362365Y155542D01*
X363210Y156078D01*
X364041Y156634D01*
X364860Y157209D01*
X365665Y157802D01*
X366457Y158414D01*
X367233Y159045D01*
X367996Y159692D01*
X368743Y160358D01*
X369474Y161040D01*
X370190Y161739D01*
X370889Y162455D01*
X371571Y163186D01*
X372236Y163933D01*
X372884Y164696D01*
X373515Y165472D01*
X374127Y166264D01*
X374720Y167069D01*
X375295Y167888D01*
X375851Y168719D01*
X376387Y169564D01*
X376904Y170420D01*
X377401Y171289D01*
X377877Y172168D01*
X378334Y173058D01*
X378769Y173959D01*
X379184Y174869D01*
X379577Y175789D01*
X379949Y176718D01*
X380300Y177655D01*
X380629Y178599D01*
X380936Y179551D01*
X381221Y180510D01*
X381483Y181476D01*
X381724Y182447D01*
X381941Y183423D01*
X382137Y184404D01*
X382309Y185390D01*
X382459Y186379D01*
X382585Y187371D01*
X382689Y188366D01*
X382770Y189363D01*
X382828Y190362D01*
X382862Y191361D01*
X382874Y192362D01*
X367913Y127953D02*
X367759Y128926D01*
X367312Y129804D01*
X366615Y130501D01*
X365737Y130948D01*
X364764Y131102D01*
X363790Y130948D01*
X362913Y130501D01*
X362216Y129804D01*
X361768Y128926D01*
X361614Y127953D01*
X361768Y126979D01*
X362216Y126102D01*
X362913Y125405D01*
X363790Y124957D01*
X364764Y124803D01*
X365737Y124957D01*
X366615Y125405D01*
X367312Y126102D01*
X367759Y126979D01*
X367913Y127953D01*
X92224Y345768D02*
X91437D01*
X92224D01*
X233957D02*
X233169D01*
X233957D01*
X250000Y272047D02*
X291339D01*
X250000Y298819D02*
X291339Y298819D01*
X291339Y272047D02*
X291339Y298819D01*
X250000Y272047D02*
Y298819D01*
X303150Y272047D02*
Y298819D01*
X344488Y272047D02*
Y298819D01*
X303150D02*
X344488D01*
X303150Y272047D02*
X344488D01*
X174803Y277362D02*
X203150D01*
Y244291D02*
Y277362D01*
X174803Y244291D02*
X203150D01*
X174803D02*
Y277362D01*
X356890Y252165D02*
X385236D01*
X356890D02*
Y285236D01*
X385236D01*
Y252165D02*
Y285236D01*
X145669Y340551D02*
X155276D01*
X163661D02*
X174921D01*
X183307D02*
X192913D01*
X183307Y387795D02*
X192913D01*
X163661D02*
X174921D01*
X145669D02*
X155276D01*
X192913Y340551D02*
Y387795D01*
X145669Y340551D02*
Y387795D01*
X107283Y374631D02*
Y376994D01*
X87598Y15118D02*
X88583D01*
X82677Y9213D02*
X88583D01*
X82677Y15118D02*
X83661D01*
X88583Y9213D02*
Y15118D01*
X82677Y9213D02*
Y15118D01*
Y10591D02*
X88583D01*
X4764Y45472D02*
X4764Y43110D01*
Y91339D02*
Y93701D01*
X4764Y115945D02*
Y118307D01*
X359252Y226693D02*
X392717D01*
X359252Y178819D02*
Y226693D01*
Y178819D02*
X392717D01*
Y226693D01*
X241929Y122835D02*
Y128740D01*
X237402Y122835D02*
X243307D01*
X237402Y128740D02*
X243307D01*
X237402Y122835D02*
Y123819D01*
X243307Y122835D02*
Y128740D01*
X237402Y127756D02*
Y128740D01*
X226378Y72047D02*
X232283D01*
X226378Y70669D02*
Y76575D01*
X232283Y70669D02*
Y76575D01*
X226378D02*
X227362D01*
X226378Y70669D02*
X232283D01*
X231299Y76575D02*
X232283D01*
X391733Y30197D02*
Y78071D01*
X358268Y30197D02*
X391733D01*
X358268D02*
Y78071D01*
X391733D01*
X332677Y138583D02*
Y160630D01*
X344488Y138583D02*
Y160630D01*
X367913Y127953D02*
X369094D01*
X357283D02*
X361614D01*
X107222Y353642D02*
Y356004D01*
X4764Y66732D02*
Y69095D01*
X385236Y285630D02*
Y318701D01*
X356890D02*
X385236D01*
X356890Y285630D02*
Y318701D01*
Y285630D02*
X385236D01*
X8465Y135945D02*
Y169016D01*
Y135945D02*
X36811D01*
Y169016D01*
X8465D02*
X36811D01*
X8465Y172441D02*
Y205512D01*
Y172441D02*
X36811D01*
Y205512D01*
X8465D02*
X36811D01*
X203193Y275150D02*
X203849Y275806D01*
Y277117D01*
X203193Y277773D01*
X202537D01*
X201881Y277117D01*
X201225Y277773D01*
X200569D01*
X199913Y277117D01*
Y275806D01*
X200569Y275150D01*
X201225D01*
X201881Y275806D01*
X202537Y275150D01*
X203193D01*
X201881Y275806D02*
Y277117D01*
X180709Y329055D02*
Y330367D01*
Y329711D01*
X184644D01*
X183988Y329055D01*
X372362Y376378D02*
X373674D01*
X373018D01*
Y372442D01*
X372362Y373098D01*
X117673Y331150D02*
X117017Y330494D01*
Y329182D01*
X117673Y328526D01*
X118329D01*
X118985Y329182D01*
X119641Y328526D01*
X120297D01*
X120953Y329182D01*
Y330494D01*
X120297Y331150D01*
X119641D01*
X118985Y330494D01*
X118329Y331150D01*
X117673D01*
X118985Y330494D02*
Y329182D01*
X140157Y277244D02*
Y275932D01*
Y276588D01*
X136222D01*
X136878Y277244D01*
X44055Y353937D02*
X42743D01*
X43399D01*
Y357873D01*
X44055Y357217D01*
X266968Y30118D02*
X268280D01*
X267624D01*
Y26182D01*
X266968Y26838D01*
X226187Y7478D02*
X224875Y8134D01*
X223563Y9445D01*
Y10757D01*
X224219Y11413D01*
X225531D01*
X226187Y10757D01*
Y10102D01*
X225531Y9445D01*
X223563D01*
D131*
X55984Y313976D02*
Y325787D01*
X50472Y313976D02*
X55984D01*
X50472Y325787D02*
X55984D01*
X50472Y313976D02*
Y325787D01*
X62717Y313976D02*
Y325787D01*
X57205Y313976D02*
X62717D01*
X57205Y325787D02*
X62717D01*
X57205Y313976D02*
Y325787D01*
X68228Y314567D02*
Y318701D01*
X63504Y314567D02*
X68228D01*
X63504D02*
Y318701D01*
X68228Y321063D02*
Y325197D01*
X63504D02*
X68228D01*
X63504Y321063D02*
Y325197D01*
X74528Y313976D02*
Y325787D01*
X69016Y313976D02*
X74528D01*
X69016Y325787D02*
X74528D01*
X69016Y313976D02*
Y325787D01*
X74606Y300197D02*
Y312008D01*
X69095Y300197D02*
X74606D01*
X69095Y312008D02*
X74606D01*
X69095Y300197D02*
Y312008D01*
X68307Y300787D02*
Y304921D01*
X63583Y300787D02*
X68307D01*
X63583D02*
Y304921D01*
X68307Y307283D02*
Y311417D01*
X63583D02*
X68307D01*
X63583Y307283D02*
Y311417D01*
X50472Y300197D02*
Y312008D01*
X55984D01*
X50472Y300197D02*
X55984D01*
Y312008D01*
X62874Y286417D02*
Y298228D01*
X57362Y286417D02*
X62874D01*
X57362Y298228D02*
X62874D01*
X57362Y286417D02*
Y298228D01*
X62874Y272638D02*
Y284449D01*
X57362Y272638D02*
X62874D01*
X57362Y284449D02*
X62874D01*
X57362Y272638D02*
Y284449D01*
X50472Y272638D02*
Y284449D01*
X55984D01*
X50472Y272638D02*
X55984D01*
Y284449D01*
X44882Y309842D02*
Y322047D01*
X49606D01*
X44882Y309842D02*
X49606D01*
Y322047D01*
X44685Y302953D02*
Y315158D01*
X39961Y302953D02*
X44685D01*
X39961Y315158D02*
X44685D01*
X39961Y302953D02*
Y315158D01*
X39764Y302756D02*
Y307283D01*
X33071Y302756D02*
X39764D01*
X33071D02*
Y307283D01*
X39764Y310827D02*
Y315354D01*
X33071D02*
X39764D01*
X33071Y310827D02*
Y315354D01*
Y265551D02*
Y270079D01*
X39764D01*
Y265551D02*
Y270079D01*
X33071Y257480D02*
Y262008D01*
Y257480D02*
X39764D01*
Y262008D01*
X62874Y245079D02*
Y256890D01*
X57362Y245079D02*
X62874D01*
X57362Y256890D02*
X62874D01*
X57362Y245079D02*
Y256890D01*
X50472Y245079D02*
Y256890D01*
X55984D01*
X50472Y245079D02*
X55984D01*
Y256890D01*
X68386Y245669D02*
Y249803D01*
X63661Y245669D02*
X68386D01*
X63661D02*
Y249803D01*
X68386Y252165D02*
Y256299D01*
X63661D02*
X68386D01*
X63661Y252165D02*
Y256299D01*
X74685Y245079D02*
Y256890D01*
X69173Y245079D02*
X74685D01*
X69173Y256890D02*
X74685D01*
X69173Y245079D02*
Y256890D01*
X213583Y300847D02*
X225394D01*
X213583D02*
Y306358D01*
X225394Y300847D02*
Y306358D01*
X213583D02*
X225394D01*
X246654Y312402D02*
Y323425D01*
Y312402D02*
X251378D01*
Y323425D01*
X246654D02*
X251378D01*
X230315Y307362D02*
X242126D01*
X230315D02*
Y312874D01*
X242126Y307362D02*
Y312874D01*
X230315D02*
X242126D01*
X213583Y307736D02*
X225394D01*
X213583D02*
Y313248D01*
X225394Y307736D02*
Y313248D01*
X213583D02*
X225394D01*
X257677Y323819D02*
X257677Y312008D01*
X252165Y312008D02*
X257677Y312008D01*
X252165Y323819D02*
X257677D01*
X252165Y312008D02*
Y323819D01*
X263976Y312008D02*
Y323819D01*
X269488Y323819D01*
X263976Y312008D02*
X269488D01*
X269488Y323819D01*
X281693Y312008D02*
Y323819D01*
X287205Y323819D01*
X281693Y312008D02*
X287205Y312008D01*
Y323819D01*
X314729Y311516D02*
X314729Y323327D01*
X309217Y311516D02*
X314729Y311516D01*
X309217Y323327D02*
X314729Y323327D01*
X309217Y311516D02*
Y323327D01*
X320634Y311516D02*
Y323327D01*
X315122Y311516D02*
X320634Y311516D01*
X315122Y323327D02*
X320634Y323327D01*
X315122Y311516D02*
Y323327D01*
X332445Y311575D02*
Y323386D01*
X326933Y311575D02*
X332445Y311575D01*
X326933Y323386D02*
X332445D01*
X326933Y311575D02*
Y323386D01*
X302618Y280118D02*
Y284252D01*
X297894Y280118D02*
X302618Y280118D01*
X297894Y280118D02*
Y284252D01*
X302618Y286614D02*
Y290748D01*
X297894D02*
X302618D01*
X297894Y286614D02*
Y290748D01*
X323095Y246250D02*
Y258061D01*
X328606D01*
X323095Y246250D02*
X328606D01*
Y258061D01*
X322701Y246250D02*
Y258061D01*
X317189Y246250D02*
X322701D01*
X317189Y258061D02*
X322701Y258061D01*
X317189Y246250D02*
Y258061D01*
X279228Y247845D02*
Y259655D01*
X273716Y247845D02*
X279228Y247845D01*
X273716Y259655D02*
X279228D01*
X273716Y247845D02*
Y259655D01*
X266929Y247845D02*
X266929Y259655D01*
X272441D01*
X266929Y247845D02*
X272441Y247845D01*
Y259655D01*
X249213Y247845D02*
Y259655D01*
X254724D01*
X249213Y247845D02*
X254724D01*
Y259655D01*
X362795Y383465D02*
X366929D01*
X362795D02*
Y388189D01*
X366929D01*
X369291Y383465D02*
X373425D01*
Y388189D01*
X369291D02*
X373425D01*
X355906Y341142D02*
X360433D01*
X355906D02*
Y347835D01*
X360433D01*
X363976Y341142D02*
X368504D01*
Y347835D01*
X363976D02*
X368504D01*
X336614Y347244D02*
X348425D01*
Y341732D02*
Y347244D01*
X336614Y341732D02*
Y347244D01*
Y341732D02*
X348425D01*
X322835D02*
X334646D01*
X322835D02*
Y347244D01*
X334646Y341732D02*
Y347244D01*
X322835D02*
X334646D01*
X276772Y388189D02*
X280906D01*
Y383465D02*
Y388189D01*
X276772Y383465D02*
X280906D01*
X270276Y388189D02*
X274410D01*
X270276Y383465D02*
Y388189D01*
Y383465D02*
X274410D01*
X256496D02*
X260630D01*
X256496D02*
Y388189D01*
X260630D01*
X262992Y383465D02*
X267126D01*
Y388189D01*
X262992D02*
X267126D01*
X248031Y341732D02*
X259842D01*
X248031D02*
Y347244D01*
X259842Y341732D02*
Y347244D01*
X248031D02*
X259842D01*
X223622Y346850D02*
X227756D01*
Y342126D02*
Y346850D01*
X223622Y342126D02*
X227756D01*
X217126Y346850D02*
X221260D01*
X217126Y342126D02*
Y346850D01*
Y342126D02*
X221260D01*
X198819Y347244D02*
X210630D01*
Y341732D02*
Y347244D01*
X198819Y341732D02*
Y347244D01*
Y341732D02*
X210630D01*
X121653Y234055D02*
Y246260D01*
X126378D01*
X121653Y234055D02*
X126378D01*
Y246260D01*
X131496Y234055D02*
Y246260D01*
X136221D01*
X131496Y234055D02*
X136221D01*
Y246260D01*
X117717Y382480D02*
X122244D01*
X117717D02*
Y389173D01*
X122244D01*
X125787Y382480D02*
X130315D01*
Y389173D01*
X125787D02*
X130315D01*
X131890Y383071D02*
X143701D01*
X131890D02*
Y388583D01*
X143701Y383071D02*
Y388583D01*
X131890D02*
X143701D01*
X83858Y344882D02*
X87992D01*
Y340158D02*
Y344882D01*
X83858Y340158D02*
X87992D01*
X77362Y344882D02*
X81496D01*
X77362Y340158D02*
Y344882D01*
Y340158D02*
X81496D01*
X60827Y344882D02*
X73032D01*
Y340158D02*
Y344882D01*
X60827Y340158D02*
Y344882D01*
Y340158D02*
X73032D01*
X45079D02*
X57284D01*
X45079D02*
Y344882D01*
X57284Y340158D02*
Y344882D01*
X45079D02*
X57284D01*
X78740Y19252D02*
Y23386D01*
X74016Y19252D02*
X78740D01*
X74016D02*
Y23386D01*
X78740Y25748D02*
Y29882D01*
X74016D02*
X78740D01*
X74016Y25748D02*
Y29882D01*
X79134Y3898D02*
Y15709D01*
X73622Y3898D02*
X79134D01*
X73622Y15709D02*
X79134D01*
X73622Y3898D02*
Y15709D01*
X4764Y76575D02*
X16575D01*
X16575Y71063D01*
X4764D02*
X4764Y76575D01*
X4764Y71063D02*
X16575D01*
X4921Y120276D02*
X16732D01*
X4921D02*
Y125787D01*
X16732Y120276D02*
Y125787D01*
X4921D02*
X16732D01*
X4921Y127165D02*
X16732D01*
X4921D02*
Y132677D01*
X16732Y127165D02*
Y132677D01*
X4921D02*
X16732D01*
X211024Y217618D02*
X225984Y217618D01*
X211024Y217618D02*
Y225295D01*
X225984Y217618D02*
Y225295D01*
X211024Y225295D02*
X225984Y225295D01*
X211614Y227559D02*
X223425D01*
X211614D02*
Y233071D01*
X223425Y227559D02*
Y233071D01*
X211614D02*
X223425D01*
X211024Y205807D02*
X225984D01*
X211024D02*
Y213484D01*
X225984Y205807D02*
Y213484D01*
X211024D02*
X225984D01*
X265551Y101378D02*
Y113189D01*
X260039Y101378D02*
X265551D01*
X260039Y113189D02*
X265551Y113189D01*
X260039Y101378D02*
Y113189D01*
X253150Y101378D02*
Y113189D01*
X258661Y113189D01*
X253150Y101378D02*
X258661D01*
Y113189D01*
X253150Y98425D02*
X253150Y86614D01*
X253150Y98425D02*
X258661Y98425D01*
X253150Y86614D02*
X258661Y86614D01*
Y98425D01*
X253150Y71850D02*
Y83661D01*
X258661D01*
X253150Y71850D02*
X258661D01*
Y83661D01*
X265551Y71850D02*
Y83661D01*
X260039Y71850D02*
X265551D01*
X260039Y83661D02*
X265551Y83661D01*
X260039Y83661D02*
X260039Y71850D01*
X265551Y86614D02*
Y98425D01*
X260039Y86614D02*
X265551D01*
X260039Y98425D02*
X265551Y98425D01*
X260039Y86614D02*
Y98425D01*
X253937Y123031D02*
X265748D01*
X253937D02*
Y128543D01*
X265748Y123031D02*
Y128543D01*
X253937D02*
X265748D01*
X270669Y76968D02*
X282480D01*
X270669Y82480D02*
X270669Y76968D01*
X282480D02*
X282480Y82480D01*
X270669D02*
X282480D01*
X285591Y79626D02*
X297402D01*
X285591D02*
Y85138D01*
X297402Y79626D02*
Y85138D01*
X285591D02*
X297402D01*
X293268Y69980D02*
X297795D01*
Y63287D02*
Y69980D01*
X293268Y63287D02*
X297795D01*
X285197Y69980D02*
X289724D01*
X285197Y63287D02*
Y69980D01*
Y63287D02*
X289724D01*
X226575Y51181D02*
Y62992D01*
X232087D01*
X226575Y51181D02*
X232087D01*
Y62992D01*
X226969Y45669D02*
Y49803D01*
X231693D01*
Y45669D02*
Y49803D01*
X226969Y39173D02*
Y43307D01*
Y39173D02*
X231693D01*
Y43307D01*
X255315Y42421D02*
X270276Y42421D01*
X255315Y42421D02*
Y50098D01*
X270276Y42421D02*
Y50098D01*
X255315Y50098D02*
X270276Y50098D01*
X271260Y1575D02*
X275394D01*
X271260D02*
Y6299D01*
X275394D01*
X277756Y1575D02*
X281890D01*
Y6299D01*
X277756D02*
X281890D01*
X310630Y128543D02*
X314764D01*
X310630D02*
Y133268D01*
X314764D01*
X317126Y128543D02*
X321260D01*
Y133268D01*
X317126D02*
X321260D01*
X242323Y303031D02*
Y305984D01*
X245866D01*
Y303031D02*
Y305984D01*
X242323Y298504D02*
Y301457D01*
Y298504D02*
X245866D01*
Y301457D01*
X261811Y347244D02*
X273622D01*
Y341732D02*
Y347244D01*
X261811Y341732D02*
Y347244D01*
Y341732D02*
X273622D01*
X244685Y286614D02*
Y290748D01*
X249409Y290748D01*
Y286614D02*
Y290748D01*
X244685Y280118D02*
Y284252D01*
Y280118D02*
X249410D01*
Y284252D01*
X210236Y317001D02*
X214764D01*
X210236D02*
Y323694D01*
X214764D01*
X218307Y317001D02*
X222835D01*
Y323694D01*
X218307D02*
X222835D01*
X229134Y298878D02*
Y301831D01*
X225590Y298878D02*
X229134D01*
X225590D02*
Y301831D01*
X229134Y303405D02*
Y306358D01*
X225590D02*
X229134D01*
X225590Y303405D02*
Y306358D01*
X35236Y254331D02*
X39764D01*
Y247638D02*
Y254331D01*
X35236Y247638D02*
X39764D01*
X27165Y254331D02*
X31693D01*
X27165Y247638D02*
Y254331D01*
Y247638D02*
X31693D01*
X33071Y281299D02*
Y285827D01*
X39764D01*
Y281299D02*
Y285827D01*
X33071Y273228D02*
Y277756D01*
Y273228D02*
X39764D01*
Y277756D01*
X63661Y279724D02*
Y283858D01*
X68386D01*
Y279724D02*
Y283858D01*
X63661Y273228D02*
Y277362D01*
Y273228D02*
X68386D01*
Y277362D01*
X39764Y287992D02*
Y292520D01*
X33071Y287992D02*
X39764D01*
X33071D02*
Y292520D01*
X39764Y296063D02*
Y300590D01*
X33071D02*
X39764D01*
X33071Y296063D02*
Y300590D01*
X35236Y323228D02*
X39764D01*
Y316535D02*
Y323228D01*
X35236Y316535D02*
X39764D01*
X27165Y323228D02*
X31693D01*
X27165Y316535D02*
Y323228D01*
Y316535D02*
X31693D01*
X63661Y265945D02*
Y270079D01*
X68386D01*
Y265945D02*
Y270079D01*
X63661Y259449D02*
Y263583D01*
Y259449D02*
X68386D01*
Y263583D01*
X63661Y293504D02*
Y297638D01*
X68386D01*
Y293504D02*
Y297638D01*
X63661Y287008D02*
Y291142D01*
Y287008D02*
X68386D01*
Y291142D01*
X118701Y340158D02*
X122835D01*
X118701D02*
Y344882D01*
X122835D01*
X125197Y340158D02*
X129331D01*
Y344882D01*
X125197D02*
X129331D01*
X289961Y342126D02*
X294094D01*
X289961D02*
Y346850D01*
X294094D01*
X296457Y342126D02*
X300590D01*
Y346850D01*
X296457D02*
X300590D01*
X49606Y254528D02*
Y266732D01*
X44882Y254528D02*
X49606D01*
X44882Y266732D02*
X49606D01*
X44882Y254528D02*
Y266732D01*
X49606Y284252D02*
Y296457D01*
X44882Y284252D02*
X49606D01*
X44882Y296457D02*
X49606D01*
X44882Y284252D02*
Y296457D01*
X39961Y247638D02*
Y259842D01*
X44685D01*
X39961Y247638D02*
X44685D01*
Y259842D01*
X39961Y277362D02*
Y289567D01*
X44685D01*
X39961Y277362D02*
X44685D01*
Y289567D01*
X285591Y77264D02*
X297402D01*
Y71752D02*
Y77264D01*
X285591Y71752D02*
Y77264D01*
Y71752D02*
X297402D01*
X270669Y63189D02*
X282480D01*
X270669Y68701D02*
X270669Y63189D01*
X282480D02*
X282480Y68701D01*
X270669D02*
X282480D01*
X4764Y47441D02*
X16575D01*
X4764Y52953D02*
X4764Y47441D01*
X16575D02*
X16575Y52953D01*
X4764D02*
X16575D01*
X260039Y57087D02*
Y68898D01*
X265551D01*
X260039Y57087D02*
X265551D01*
Y68898D01*
X238189Y47441D02*
X250000D01*
X238189Y52953D02*
X238189Y47441D01*
X250000D02*
Y52953D01*
X238189D02*
X250000D01*
X258661Y57087D02*
Y68898D01*
X253150Y57087D02*
X258661D01*
X253150Y68898D02*
X258661Y68898D01*
X253150Y57087D02*
Y68898D01*
X4764Y101181D02*
X16575D01*
Y95669D02*
Y101181D01*
X4764Y95669D02*
Y101181D01*
Y95669D02*
X16575D01*
X175197Y277461D02*
X187008D01*
X175197D02*
Y282973D01*
X187008Y277461D02*
Y282973D01*
X175197D02*
X187008D01*
X304689Y311909D02*
Y322933D01*
Y311909D02*
X309414D01*
Y322933D01*
X304689D02*
X309414D01*
X269882Y312008D02*
Y323819D01*
X275394Y323819D01*
X269882Y312008D02*
X275394D01*
Y323819D01*
X326540Y311516D02*
Y323327D01*
X321028Y311516D02*
X326540Y311516D01*
X321028Y323327D02*
X326540Y323327D01*
X321028Y311516D02*
Y323327D01*
X261024Y247845D02*
Y259655D01*
X266535D01*
X261024Y247845D02*
X266535Y247845D01*
X266535Y259655D02*
X266535Y247845D01*
X316795Y246250D02*
Y258061D01*
X311283Y246250D02*
X316795D01*
X311283Y258061D02*
X316795Y258061D01*
X311283Y246250D02*
Y258061D01*
X260630Y247845D02*
Y259655D01*
X255118Y247845D02*
X260630Y247845D01*
X255118Y259655D02*
X260630D01*
X255118Y247845D02*
Y259655D01*
X258071Y312008D02*
Y323819D01*
X263583D01*
X258071Y312008D02*
X263583D01*
Y323819D01*
X332839Y311575D02*
Y323386D01*
X338351D01*
X332839Y311575D02*
X338351Y311575D01*
X338351Y323386D02*
X338351Y311575D01*
X275787Y312008D02*
Y323819D01*
X281299Y323819D01*
X275787Y312008D02*
X281299D01*
Y323819D01*
X344256Y311516D02*
Y323327D01*
X338744Y311516D02*
X344256D01*
X338744Y323327D02*
X344256D01*
X338744Y311516D02*
Y323327D01*
X230315Y305984D02*
X242126D01*
Y300472D02*
Y305984D01*
X230315Y300472D02*
Y305984D01*
Y300472D02*
X242126D01*
X329984Y246250D02*
Y258061D01*
X335496D01*
X329984Y246250D02*
X335496Y246250D01*
Y258061D01*
X96339Y245079D02*
Y256890D01*
X90827Y245079D02*
X96339D01*
X90827Y256890D02*
X96339D01*
X90827Y245079D02*
Y256890D01*
X96339Y272638D02*
Y284449D01*
X90827Y272638D02*
X96339D01*
X90827Y284449D02*
X96339D01*
X90827Y272638D02*
Y284449D01*
X96260Y300197D02*
Y312008D01*
X90748Y300197D02*
X96260D01*
X90748Y312008D02*
X96260D01*
X90748Y300197D02*
Y312008D01*
X57284Y300197D02*
Y312008D01*
X62795D01*
X57284Y300197D02*
X62795D01*
Y312008D01*
X69173Y272638D02*
Y284449D01*
X74685D01*
X69173Y272638D02*
X74685D01*
Y284449D01*
X90827Y258858D02*
Y270669D01*
X96339D01*
X90827Y258858D02*
X96339D01*
Y270669D01*
X90827Y286417D02*
Y298228D01*
X96339D01*
X90827Y286417D02*
X96339D01*
Y298228D01*
X90669Y313976D02*
Y325787D01*
X96181D01*
X90669Y313976D02*
X96181D01*
Y325787D01*
X50472Y258858D02*
Y270669D01*
X55984D01*
X50472Y258858D02*
X55984D01*
Y270669D01*
X50472Y286417D02*
Y298228D01*
X55984D01*
X50472Y286417D02*
X55984D01*
Y298228D01*
X57362Y258858D02*
Y270669D01*
X62874D01*
X57362Y258858D02*
X62874D01*
Y270669D01*
X69173Y258858D02*
Y270669D01*
X74685D01*
X69173Y258858D02*
X74685D01*
Y270669D01*
X69173Y286417D02*
Y298228D01*
X74685D01*
X69173Y286417D02*
X74685D01*
Y298228D01*
X348425Y383071D02*
X360236D01*
X348425D02*
Y388583D01*
X360236Y383071D02*
Y388583D01*
X348425D02*
X360236D01*
X275590Y341732D02*
X287402D01*
X275590D02*
Y347244D01*
X287402Y341732D02*
Y347244D01*
X275590D02*
X287402D01*
X332677Y388583D02*
X344488D01*
Y383071D02*
Y388583D01*
X332677Y383071D02*
Y388583D01*
Y383071D02*
X344488D01*
X283465D02*
X295276D01*
X283465D02*
Y388583D01*
X295276Y383071D02*
Y388583D01*
X283465D02*
X295276D01*
X131890Y345276D02*
X143701D01*
Y339764D02*
Y345276D01*
X131890Y339764D02*
Y345276D01*
Y339764D02*
X143701D01*
X206693Y351575D02*
X218504D01*
X206693Y357087D02*
X206693Y351575D01*
X218504D02*
Y357087D01*
X206693Y357087D02*
X218504Y357087D01*
X277756Y75197D02*
X281890D01*
Y70472D02*
Y75197D01*
X277756Y70472D02*
X281890D01*
X271260Y75197D02*
X275394D01*
X271260Y70472D02*
Y75197D01*
Y70472D02*
X275394D01*
X339765Y147480D02*
Y143545D01*
X337797Y145512D02*
X341733D01*
D132*
X85748Y315158D02*
Y316132D01*
X79449Y319488D02*
Y320276D01*
X85748Y323632D02*
Y324606D01*
X82598Y315158D02*
X85748D01*
X82598Y324606D02*
X85748D01*
X85827Y301378D02*
Y302352D01*
X79528Y305709D02*
Y306496D01*
X85827Y309852D02*
Y310827D01*
X82677Y301378D02*
X85827D01*
X82677Y310827D02*
X85827D01*
X85905Y287598D02*
Y288573D01*
X79606Y291929D02*
Y292717D01*
X85905Y296073D02*
Y297047D01*
X82756Y287598D02*
X85905D01*
X82756Y297047D02*
X85905D01*
Y273819D02*
Y274793D01*
X79606Y278150D02*
Y278937D01*
X85905Y282293D02*
Y283268D01*
X82756Y273819D02*
X85905D01*
X82756Y283268D02*
X85905D01*
X85905Y260039D02*
Y261014D01*
X79606Y264370D02*
Y265158D01*
X85905Y268514D02*
Y269488D01*
X82756Y260039D02*
X85905D01*
X82756Y269488D02*
X85905D01*
Y246260D02*
Y247234D01*
X79606Y250590D02*
Y251378D01*
X85905Y254734D02*
Y255709D01*
X82756Y246260D02*
X85905D01*
X82756Y255709D02*
X85905D01*
X223238Y296909D02*
X224213D01*
X219094Y290610D02*
X219882D01*
X214764Y296909D02*
X215738D01*
X224213Y293760D02*
Y296909D01*
X214764Y293760D02*
Y296909D01*
X239970Y296535D02*
X240945D01*
X235827Y290236D02*
X236614D01*
X231496Y296535D02*
X232470D01*
X240945Y293386D02*
Y296535D01*
X231496Y293386D02*
Y296535D01*
X299026Y266132D02*
X300000Y266132D01*
X294882Y259833D02*
X295669D01*
X290551Y266132D02*
X291526D01*
X300000Y262982D02*
Y266132D01*
X290551Y262982D02*
Y266132D01*
X345732Y247825D02*
Y248799D01*
X339433Y252155D02*
Y252943D01*
X345732Y256299D02*
Y257274D01*
X342583Y247825D02*
X345732D01*
X342583Y257274D02*
X345732D01*
X207874Y366142D02*
Y369291D01*
X217323Y366142D02*
Y369291D01*
X207874D02*
X208848D01*
X212205Y362992D02*
X212992D01*
X216348Y369291D02*
X217323D01*
X338287Y102362D02*
X340787D01*
X315287Y71677D02*
X336287D01*
X310787Y102362D02*
X313287D01*
X340787Y79177D02*
Y102362D01*
X310787Y79177D02*
Y102362D01*
X280325Y93701D02*
X281299D01*
X276181Y87402D02*
X276969D01*
X271850Y93701D02*
X272825D01*
X281299Y90551D02*
Y93701D01*
X271850Y90551D02*
Y93701D01*
X240945Y111033D02*
Y112008D01*
X247244Y106890D02*
Y107677D01*
X240945Y102559D02*
Y103533D01*
Y112008D02*
X244094D01*
X240945Y102559D02*
X244094D01*
X240945Y96270D02*
Y97244D01*
X247244Y92913D02*
X247244Y92126D01*
X240945Y87795D02*
Y88770D01*
Y97244D02*
X244094D01*
X240945Y87795D02*
X244094D01*
X240945Y81506D02*
Y82480D01*
X247244Y77362D02*
Y78150D01*
X240945Y74006D02*
X240945Y73032D01*
Y82480D02*
X244094D01*
X240945Y73032D02*
X244094D01*
X240945Y65758D02*
Y66732D01*
X247244Y61614D02*
Y62402D01*
X240945Y57284D02*
Y58258D01*
Y66732D02*
X244094D01*
X240945Y57284D02*
X244094D01*
X307087Y14764D02*
X318898D01*
X334646D02*
X346457D01*
X288583Y2165D02*
X312672D01*
X288583D02*
Y27362D01*
X312672D01*
X340872Y2165D02*
X364961D01*
Y27362D01*
X340872D02*
X364961D01*
D133*
X164291Y364173D02*
X174291Y361673D01*
X159291Y364173D02*
X164291D01*
X174291D02*
X179291D01*
Y344173D02*
Y384173D01*
X159291Y344173D02*
Y384173D01*
D134*
X313268Y30709D02*
X340276D01*
X313268Y53937D02*
X340276D01*
X313268Y30709D02*
Y35236D01*
Y49409D02*
Y53937D01*
X340276Y49409D02*
Y53937D01*
Y30709D02*
Y35236D01*
X318898Y30709D02*
Y53937D01*
D135*
X132710Y332105D02*
X133243Y332638D01*
X134309D01*
X134843Y332105D01*
Y331572D01*
X134309Y331039D01*
X133243D01*
X132710Y330506D01*
Y329973D01*
X133243Y329439D01*
X134309D01*
X134843Y329973D01*
X131644Y329439D02*
Y331572D01*
X130044D01*
X129511Y331039D01*
Y329439D01*
X127911Y331572D02*
X126845D01*
X126312Y331039D01*
Y329439D01*
X127911D01*
X128445Y329973D01*
X127911Y330506D01*
X126312D01*
X125246Y328373D02*
Y331572D01*
X123646D01*
X123113Y331039D01*
Y329973D01*
X123646Y329439D01*
X125246D01*
X197670Y332105D02*
X198204Y332638D01*
X199270D01*
X199803Y332105D01*
Y331572D01*
X199270Y331039D01*
X198204D01*
X197670Y330506D01*
Y329973D01*
X198204Y329439D01*
X199270D01*
X199803Y329973D01*
X196604Y329439D02*
Y331572D01*
X195005D01*
X194472Y331039D01*
Y329439D01*
X192872Y331572D02*
X191806D01*
X191273Y331039D01*
Y329439D01*
X192872D01*
X193405Y329973D01*
X192872Y330506D01*
X191273D01*
X190206Y328373D02*
Y331572D01*
X188607D01*
X188074Y331039D01*
Y329973D01*
X188607Y329439D01*
X190206D01*
X299048Y331854D02*
X299582Y332387D01*
X300648D01*
X301181Y331854D01*
Y331321D01*
X300648Y330788D01*
X299582D01*
X299048Y330255D01*
Y329722D01*
X299582Y329188D01*
X300648D01*
X301181Y329722D01*
X297982Y329188D02*
Y331321D01*
X296383D01*
X295849Y330788D01*
Y329188D01*
X294250Y331321D02*
X293184D01*
X292651Y330788D01*
Y329188D01*
X294250D01*
X294783Y329722D01*
X294250Y330255D01*
X292651D01*
X291584Y328122D02*
Y331321D01*
X289985D01*
X289452Y330788D01*
Y329722D01*
X289985Y329188D01*
X291584D01*
X68734Y349067D02*
X70866D01*
Y347468D01*
X69800D01*
X70866D01*
Y345868D01*
X67667Y349067D02*
Y345868D01*
X66068D01*
X65535Y346402D01*
Y346935D01*
X66068Y347468D01*
X67667D01*
X66068D01*
X65535Y348001D01*
Y348534D01*
X66068Y349067D01*
X67667D01*
X64468Y345868D02*
X63402D01*
X63935D01*
Y349067D01*
X64468Y348534D01*
X61802D02*
X61269Y349067D01*
X60203D01*
X59670Y348534D01*
Y346402D01*
X60203Y345868D01*
X61269D01*
X61802Y346402D01*
Y348534D01*
X54103Y349097D02*
X56235D01*
Y347497D01*
X55169D01*
X56235D01*
Y345898D01*
X53036Y349097D02*
Y345898D01*
X51437D01*
X50904Y346431D01*
Y346964D01*
X51437Y347497D01*
X53036D01*
X51437D01*
X50904Y348030D01*
Y348564D01*
X51437Y349097D01*
X53036D01*
X49837Y346431D02*
X49304Y345898D01*
X48238D01*
X47705Y346431D01*
Y348564D01*
X48238Y349097D01*
X49304D01*
X49837Y348564D01*
Y348030D01*
X49304Y347497D01*
X47705D01*
X135663Y232530D02*
X137795D01*
Y230930D01*
X136729D01*
X137795D01*
Y229331D01*
X134596Y232530D02*
Y229331D01*
X132997D01*
X132464Y229864D01*
Y230397D01*
X132997Y230930D01*
X134596D01*
X132997D01*
X132464Y231463D01*
Y231996D01*
X132997Y232530D01*
X134596D01*
X131397Y231996D02*
X130864Y232530D01*
X129798D01*
X129265Y231996D01*
Y231463D01*
X129798Y230930D01*
X129265Y230397D01*
Y229864D01*
X129798Y229331D01*
X130864D01*
X131397Y229864D01*
Y230397D01*
X130864Y230930D01*
X131397Y231463D01*
Y231996D01*
X130864Y230930D02*
X129798D01*
X121883Y232530D02*
X124016D01*
Y230930D01*
X122949D01*
X124016D01*
Y229331D01*
X120817Y232530D02*
Y229331D01*
X119217D01*
X118684Y229864D01*
Y230397D01*
X119217Y230930D01*
X120817D01*
X119217D01*
X118684Y231463D01*
Y231996D01*
X119217Y232530D01*
X120817D01*
X117618D02*
X115485D01*
Y231996D01*
X117618Y229864D01*
Y229331D01*
X46096Y391979D02*
X47162D01*
X46629D01*
Y389313D01*
X47162Y388779D01*
X47695D01*
X48228Y389313D01*
X45029Y391445D02*
X44496Y391979D01*
X43430D01*
X42897Y391445D01*
Y390912D01*
X43430Y390379D01*
X43963D01*
X43430D01*
X42897Y389846D01*
Y389313D01*
X43430Y388779D01*
X44496D01*
X45029Y389313D01*
X41830Y391445D02*
X41297Y391979D01*
X40231D01*
X39698Y391445D01*
Y389313D01*
X40231Y388779D01*
X41297D01*
X41830Y389313D01*
Y391445D01*
X80545Y348620D02*
X81078Y349153D01*
X82144D01*
X82677Y348620D01*
Y346488D01*
X82144Y345954D01*
X81078D01*
X80545Y346488D01*
X77346Y349153D02*
X79478D01*
Y347554D01*
X78412Y348087D01*
X77879D01*
X77346Y347554D01*
Y346488D01*
X77879Y345954D01*
X78945D01*
X79478Y346488D01*
X76279Y348620D02*
X75746Y349153D01*
X74680D01*
X74147Y348620D01*
Y346488D01*
X74680Y345954D01*
X75746D01*
X76279Y346488D01*
Y348620D01*
X278182Y61327D02*
X278715Y61860D01*
X279782D01*
X280315Y61327D01*
Y59195D01*
X279782Y58661D01*
X278715D01*
X278182Y59195D01*
X275517Y58661D02*
Y61860D01*
X277116Y60261D01*
X274983D01*
X273917Y59195D02*
X273384Y58661D01*
X272318D01*
X271784Y59195D01*
Y61327D01*
X272318Y61860D01*
X273384D01*
X273917Y61327D01*
Y60794D01*
X273384Y60261D01*
X271784D01*
X91822Y373852D02*
X91289Y374385D01*
Y375451D01*
X91822Y375984D01*
X92356D01*
X92889Y375451D01*
Y374385D01*
X93422Y373852D01*
X93955D01*
X94488Y374385D01*
Y375451D01*
X93955Y375984D01*
X91289Y370653D02*
Y372785D01*
X92889D01*
X92356Y371719D01*
Y371186D01*
X92889Y370653D01*
X93955D01*
X94488Y371186D01*
Y372252D01*
X93955Y372785D01*
X188812Y385461D02*
X189345Y385994D01*
X190412D01*
X190945Y385461D01*
Y384928D01*
X190412Y384395D01*
X189345D01*
X188812Y383862D01*
Y383328D01*
X189345Y382795D01*
X190412D01*
X190945Y383328D01*
X186146Y382795D02*
Y385994D01*
X187746Y384395D01*
X185613D01*
X233555Y374836D02*
X233021Y375369D01*
Y376435D01*
X233555Y376969D01*
X234088D01*
X234621Y376435D01*
Y375369D01*
X235154Y374836D01*
X235687D01*
X236221Y375369D01*
Y376435D01*
X235687Y376969D01*
X233555Y373769D02*
X233021Y373236D01*
Y372170D01*
X233555Y371637D01*
X234088D01*
X234621Y372170D01*
Y372703D01*
Y372170D01*
X235154Y371637D01*
X235687D01*
X236221Y372170D01*
Y373236D01*
X235687Y373769D01*
X304421Y374836D02*
X303888Y375369D01*
Y376435D01*
X304421Y376969D01*
X304954D01*
X305487Y376435D01*
Y375369D01*
X306020Y374836D01*
X306554D01*
X307087Y375369D01*
Y376435D01*
X306554Y376969D01*
X307087Y371637D02*
Y373769D01*
X304954Y371637D01*
X304421D01*
X303888Y372170D01*
Y373236D01*
X304421Y373769D01*
X388493Y375164D02*
X389026Y374631D01*
Y373565D01*
X388493Y373031D01*
X387959D01*
X387426Y373565D01*
Y374631D01*
X386893Y375164D01*
X386360D01*
X385827Y374631D01*
Y373565D01*
X386360Y373031D01*
X385827Y376231D02*
Y377297D01*
Y376764D01*
X389026D01*
X388493Y376231D01*
X269685Y348425D02*
Y351624D01*
X268086D01*
X267552Y351091D01*
Y350025D01*
X268086Y349492D01*
X269685D01*
X268619D02*
X267552Y348425D01*
X266486Y348958D02*
X265953Y348425D01*
X264887D01*
X264353Y348958D01*
Y351091D01*
X264887Y351624D01*
X265953D01*
X266486Y351091D01*
Y350558D01*
X265953Y350025D01*
X264353D01*
X263287Y351091D02*
X262754Y351624D01*
X261688D01*
X261155Y351091D01*
Y348958D01*
X261688Y348425D01*
X262754D01*
X263287Y348958D01*
Y351091D01*
X246654Y339567D02*
Y342766D01*
X245054D01*
X244521Y342233D01*
Y341166D01*
X245054Y340633D01*
X246654D01*
X245587D02*
X244521Y339567D01*
X243455Y342233D02*
X242921Y342766D01*
X241855D01*
X241322Y342233D01*
Y341700D01*
X241855Y341166D01*
X241322Y340633D01*
Y340100D01*
X241855Y339567D01*
X242921D01*
X243455Y340100D01*
Y340633D01*
X242921Y341166D01*
X243455Y341700D01*
Y342233D01*
X242921Y341166D02*
X241855D01*
X240256Y340100D02*
X239722Y339567D01*
X238656D01*
X238123Y340100D01*
Y342233D01*
X238656Y342766D01*
X239722D01*
X240256Y342233D01*
Y341700D01*
X239722Y341166D01*
X238123D01*
X220472Y354331D02*
X223671D01*
Y355930D01*
X223138Y356463D01*
X222072D01*
X221539Y355930D01*
Y354331D01*
Y355397D02*
X220472Y356463D01*
X223138Y357530D02*
X223671Y358063D01*
Y359129D01*
X223138Y359662D01*
X222605D01*
X222072Y359129D01*
X221539Y359662D01*
X221006D01*
X220472Y359129D01*
Y358063D01*
X221006Y357530D01*
X221539D01*
X222072Y358063D01*
X222605Y357530D01*
X223138D01*
X222072Y358063D02*
Y359129D01*
X223138Y360729D02*
X223671Y361262D01*
Y362328D01*
X223138Y362861D01*
X222605D01*
X222072Y362328D01*
X221539Y362861D01*
X221006D01*
X220472Y362328D01*
Y361262D01*
X221006Y360729D01*
X221539D01*
X222072Y361262D01*
X222605Y360729D01*
X223138D01*
X222072Y361262D02*
Y362328D01*
X205709Y348425D02*
Y351624D01*
X204109D01*
X203576Y351091D01*
Y350025D01*
X204109Y349492D01*
X205709D01*
X204642D02*
X203576Y348425D01*
X202510Y351091D02*
X201976Y351624D01*
X200910D01*
X200377Y351091D01*
Y350558D01*
X200910Y350025D01*
X200377Y349492D01*
Y348958D01*
X200910Y348425D01*
X201976D01*
X202510Y348958D01*
Y349492D01*
X201976Y350025D01*
X202510Y350558D01*
Y351091D01*
X201976Y350025D02*
X200910D01*
X199311Y351624D02*
X197178D01*
Y351091D01*
X199311Y348958D01*
Y348425D01*
X144685Y346457D02*
Y349656D01*
X143086D01*
X142552Y349123D01*
Y348056D01*
X143086Y347523D01*
X144685D01*
X143619D02*
X142552Y346457D01*
X141486Y349123D02*
X140953Y349656D01*
X139887D01*
X139353Y349123D01*
Y348589D01*
X139887Y348056D01*
X139353Y347523D01*
Y346990D01*
X139887Y346457D01*
X140953D01*
X141486Y346990D01*
Y347523D01*
X140953Y348056D01*
X141486Y348589D01*
Y349123D01*
X140953Y348056D02*
X139887D01*
X136154Y349656D02*
X137221Y349123D01*
X138287Y348056D01*
Y346990D01*
X137754Y346457D01*
X136688D01*
X136154Y346990D01*
Y347523D01*
X136688Y348056D01*
X138287D01*
X143701Y377953D02*
Y381152D01*
X142101D01*
X141568Y380619D01*
Y379552D01*
X142101Y379019D01*
X143701D01*
X142634D02*
X141568Y377953D01*
X140502Y380619D02*
X139969Y381152D01*
X138902D01*
X138369Y380619D01*
Y380085D01*
X138902Y379552D01*
X138369Y379019D01*
Y378486D01*
X138902Y377953D01*
X139969D01*
X140502Y378486D01*
Y379019D01*
X139969Y379552D01*
X140502Y380085D01*
Y380619D01*
X139969Y379552D02*
X138902D01*
X135170Y381152D02*
X137303D01*
Y379552D01*
X136237Y380085D01*
X135703D01*
X135170Y379552D01*
Y378486D01*
X135703Y377953D01*
X136770D01*
X137303Y378486D01*
X293307Y378937D02*
Y382136D01*
X291708D01*
X291174Y381603D01*
Y380537D01*
X291708Y380003D01*
X293307D01*
X292241D02*
X291174Y378937D01*
X290108Y381603D02*
X289575Y382136D01*
X288509D01*
X287976Y381603D01*
Y381070D01*
X288509Y380537D01*
X287976Y380003D01*
Y379470D01*
X288509Y378937D01*
X289575D01*
X290108Y379470D01*
Y380003D01*
X289575Y380537D01*
X290108Y381070D01*
Y381603D01*
X289575Y380537D02*
X288509D01*
X285310Y378937D02*
Y382136D01*
X286909Y380537D01*
X284776D01*
X347441Y337598D02*
Y340797D01*
X345842D01*
X345308Y340264D01*
Y339198D01*
X345842Y338665D01*
X347441D01*
X346375D02*
X345308Y337598D01*
X344242Y340264D02*
X343709Y340797D01*
X342642D01*
X342109Y340264D01*
Y339731D01*
X342642Y339198D01*
X342109Y338665D01*
Y338132D01*
X342642Y337598D01*
X343709D01*
X344242Y338132D01*
Y338665D01*
X343709Y339198D01*
X344242Y339731D01*
Y340264D01*
X343709Y339198D02*
X342642D01*
X341043Y340264D02*
X340510Y340797D01*
X339443D01*
X338910Y340264D01*
Y339731D01*
X339443Y339198D01*
X339977D01*
X339443D01*
X338910Y338665D01*
Y338132D01*
X339443Y337598D01*
X340510D01*
X341043Y338132D01*
X342520Y388779D02*
Y391979D01*
X340920D01*
X340387Y391445D01*
Y390379D01*
X340920Y389846D01*
X342520D01*
X341453D02*
X340387Y388779D01*
X339321Y391445D02*
X338788Y391979D01*
X337721D01*
X337188Y391445D01*
Y390912D01*
X337721Y390379D01*
X337188Y389846D01*
Y389313D01*
X337721Y388779D01*
X338788D01*
X339321Y389313D01*
Y389846D01*
X338788Y390379D01*
X339321Y390912D01*
Y391445D01*
X338788Y390379D02*
X337721D01*
X333989Y388779D02*
X336122D01*
X333989Y390912D01*
Y391445D01*
X334522Y391979D01*
X335589D01*
X336122Y391445D01*
X286417Y348425D02*
Y351624D01*
X284818D01*
X284285Y351091D01*
Y350025D01*
X284818Y349492D01*
X286417D01*
X285351D02*
X284285Y348425D01*
X283218Y351091D02*
X282685Y351624D01*
X281619D01*
X281086Y351091D01*
Y350558D01*
X281619Y350025D01*
X281086Y349492D01*
Y348958D01*
X281619Y348425D01*
X282685D01*
X283218Y348958D01*
Y349492D01*
X282685Y350025D01*
X283218Y350558D01*
Y351091D01*
X282685Y350025D02*
X281619D01*
X280019Y348425D02*
X278953D01*
X279486D01*
Y351624D01*
X280019Y351091D01*
X332839Y337598D02*
Y340797D01*
X331239D01*
X330706Y340264D01*
Y339198D01*
X331239Y338665D01*
X332839D01*
X331773D02*
X330706Y337598D01*
X329640Y340264D02*
X329107Y340797D01*
X328040D01*
X327507Y340264D01*
Y339731D01*
X328040Y339198D01*
X327507Y338665D01*
Y338132D01*
X328040Y337598D01*
X329107D01*
X329640Y338132D01*
Y338665D01*
X329107Y339198D01*
X329640Y339731D01*
Y340264D01*
X329107Y339198D02*
X328040D01*
X326441Y340264D02*
X325908Y340797D01*
X324841D01*
X324308Y340264D01*
Y338132D01*
X324841Y337598D01*
X325908D01*
X326441Y338132D01*
Y340264D01*
X359252Y388779D02*
Y391979D01*
X357652D01*
X357119Y391445D01*
Y390379D01*
X357652Y389846D01*
X359252D01*
X358186D02*
X357119Y388779D01*
X356053Y391979D02*
X353920D01*
Y391445D01*
X356053Y389313D01*
Y388779D01*
X352854Y389313D02*
X352321Y388779D01*
X351255D01*
X350721Y389313D01*
Y391445D01*
X351255Y391979D01*
X352321D01*
X352854Y391445D01*
Y390912D01*
X352321Y390379D01*
X350721D01*
X69685Y315748D02*
X72884D01*
Y317348D01*
X72351Y317881D01*
X71285D01*
X70751Y317348D01*
Y315748D01*
Y316814D02*
X69685Y317881D01*
X72884Y318947D02*
Y321080D01*
X72351D01*
X70218Y318947D01*
X69685D01*
X72351Y322146D02*
X72884Y322679D01*
Y323745D01*
X72351Y324279D01*
X71818D01*
X71285Y323745D01*
X70751Y324279D01*
X70218D01*
X69685Y323745D01*
Y322679D01*
X70218Y322146D01*
X70751D01*
X71285Y322679D01*
X71818Y322146D01*
X72351D01*
X71285Y322679D02*
Y323745D01*
X70472Y288189D02*
X73671D01*
Y289789D01*
X73138Y290322D01*
X72072D01*
X71539Y289789D01*
Y288189D01*
Y289255D02*
X70472Y290322D01*
X73671Y291388D02*
Y293521D01*
X73138D01*
X71006Y291388D01*
X70472D01*
X73671Y294587D02*
Y296720D01*
X73138D01*
X71006Y294587D01*
X70472D01*
X70079Y260630D02*
X73278D01*
Y262229D01*
X72745Y262763D01*
X71678D01*
X71145Y262229D01*
Y260630D01*
Y261696D02*
X70079Y262763D01*
X73278Y263829D02*
Y265962D01*
X72745D01*
X70612Y263829D01*
X70079D01*
X73278Y269161D02*
X72745Y268094D01*
X71678Y267028D01*
X70612D01*
X70079Y267561D01*
Y268627D01*
X70612Y269161D01*
X71145D01*
X71678Y268627D01*
Y267028D01*
X57874Y315748D02*
X61073D01*
Y317348D01*
X60540Y317881D01*
X59474D01*
X58940Y317348D01*
Y315748D01*
Y316814D02*
X57874Y317881D01*
X61073Y318947D02*
Y321080D01*
X60540D01*
X58407Y318947D01*
X57874D01*
X61073Y324279D02*
Y322146D01*
X59474D01*
X60007Y323212D01*
Y323745D01*
X59474Y324279D01*
X58407D01*
X57874Y323745D01*
Y322679D01*
X58407Y322146D01*
X57874Y287992D02*
X61073D01*
Y289592D01*
X60540Y290125D01*
X59474D01*
X58940Y289592D01*
Y287992D01*
Y289058D02*
X57874Y290125D01*
X61073Y291191D02*
Y293324D01*
X60540D01*
X58407Y291191D01*
X57874D01*
Y295990D02*
X61073D01*
X59474Y294390D01*
Y296523D01*
X58268Y260236D02*
X61467D01*
Y261836D01*
X60934Y262369D01*
X59867D01*
X59334Y261836D01*
Y260236D01*
Y261302D02*
X58268Y262369D01*
X61467Y263435D02*
Y265568D01*
X60934D01*
X58801Y263435D01*
X58268D01*
X60934Y266634D02*
X61467Y267167D01*
Y268234D01*
X60934Y268767D01*
X60400D01*
X59867Y268234D01*
Y267701D01*
Y268234D01*
X59334Y268767D01*
X58801D01*
X58268Y268234D01*
Y267167D01*
X58801Y266634D01*
X51181Y315669D02*
X54380D01*
Y317269D01*
X53847Y317802D01*
X52781D01*
X52247Y317269D01*
Y315669D01*
Y316736D02*
X51181Y317802D01*
X54380Y318868D02*
Y321001D01*
X53847D01*
X51714Y318868D01*
X51181D01*
Y324200D02*
Y322067D01*
X53314Y324200D01*
X53847D01*
X54380Y323667D01*
Y322600D01*
X53847Y322067D01*
X51575Y288189D02*
X54774D01*
Y289789D01*
X54241Y290322D01*
X53174D01*
X52641Y289789D01*
Y288189D01*
Y289255D02*
X51575Y290322D01*
X54774Y291388D02*
Y293521D01*
X54241D01*
X52108Y291388D01*
X51575D01*
Y294587D02*
Y295653D01*
Y295120D01*
X54774D01*
X54241Y294587D01*
X51575Y260630D02*
X54774D01*
Y262229D01*
X54241Y262763D01*
X53174D01*
X52641Y262229D01*
Y260630D01*
Y261696D02*
X51575Y262763D01*
X54774Y263829D02*
Y265962D01*
X54241D01*
X52108Y263829D01*
X51575D01*
X54241Y267028D02*
X54774Y267561D01*
Y268627D01*
X54241Y269161D01*
X52108D01*
X51575Y268627D01*
Y267561D01*
X52108Y267028D01*
X54241D01*
X91732Y315275D02*
X94931D01*
Y316874D01*
X94398Y317407D01*
X93332D01*
X92799Y316874D01*
Y315275D01*
Y316341D02*
X91732Y317407D01*
X94931Y320606D02*
X94398Y319540D01*
X93332Y318474D01*
X92265D01*
X91732Y319007D01*
Y320073D01*
X92265Y320606D01*
X92799D01*
X93332Y320073D01*
Y318474D01*
X92265Y321673D02*
X91732Y322206D01*
Y323272D01*
X92265Y323805D01*
X94398D01*
X94931Y323272D01*
Y322206D01*
X94398Y321673D01*
X93865D01*
X93332Y322206D01*
Y323805D01*
X92126Y288189D02*
X95325D01*
Y289789D01*
X94792Y290322D01*
X93726D01*
X93192Y289789D01*
Y288189D01*
Y289255D02*
X92126Y290322D01*
X95325Y293521D02*
X94792Y292454D01*
X93726Y291388D01*
X92659D01*
X92126Y291921D01*
Y292987D01*
X92659Y293521D01*
X93192D01*
X93726Y292987D01*
Y291388D01*
X94792Y294587D02*
X95325Y295120D01*
Y296186D01*
X94792Y296720D01*
X94259D01*
X93726Y296186D01*
X93192Y296720D01*
X92659D01*
X92126Y296186D01*
Y295120D01*
X92659Y294587D01*
X93192D01*
X93726Y295120D01*
X94259Y294587D01*
X94792D01*
X93726Y295120D02*
Y296186D01*
X91732Y261024D02*
X94931D01*
Y262623D01*
X94398Y263156D01*
X93332D01*
X92799Y262623D01*
Y261024D01*
Y262090D02*
X91732Y263156D01*
X94931Y266355D02*
X94398Y265289D01*
X93332Y264223D01*
X92265D01*
X91732Y264756D01*
Y265822D01*
X92265Y266355D01*
X92799D01*
X93332Y265822D01*
Y264223D01*
X94931Y267422D02*
Y269554D01*
X94398D01*
X92265Y267422D01*
X91732D01*
X69685Y301969D02*
X72884D01*
Y303568D01*
X72351Y304101D01*
X71285D01*
X70751Y303568D01*
Y301969D01*
Y303035D02*
X69685Y304101D01*
X72884Y307300D02*
X72351Y306234D01*
X71285Y305168D01*
X70218D01*
X69685Y305701D01*
Y306767D01*
X70218Y307300D01*
X70751D01*
X71285Y306767D01*
Y305168D01*
X72884Y310499D02*
X72351Y309433D01*
X71285Y308366D01*
X70218D01*
X69685Y308900D01*
Y309966D01*
X70218Y310499D01*
X70751D01*
X71285Y309966D01*
Y308366D01*
X70472Y274016D02*
X73671D01*
Y275615D01*
X73138Y276148D01*
X72072D01*
X71539Y275615D01*
Y274016D01*
Y275082D02*
X70472Y276148D01*
X73671Y279347D02*
X73138Y278281D01*
X72072Y277215D01*
X71006D01*
X70472Y277748D01*
Y278814D01*
X71006Y279347D01*
X71539D01*
X72072Y278814D01*
Y277215D01*
X73671Y282546D02*
Y280414D01*
X72072D01*
X72605Y281480D01*
Y282013D01*
X72072Y282546D01*
X71006D01*
X70472Y282013D01*
Y280947D01*
X71006Y280414D01*
X70079Y246850D02*
X73278D01*
Y248450D01*
X72745Y248983D01*
X71678D01*
X71145Y248450D01*
Y246850D01*
Y247917D02*
X70079Y248983D01*
X73278Y252182D02*
X72745Y251116D01*
X71678Y250049D01*
X70612D01*
X70079Y250583D01*
Y251649D01*
X70612Y252182D01*
X71145D01*
X71678Y251649D01*
Y250049D01*
X70079Y254848D02*
X73278D01*
X71678Y253248D01*
Y255381D01*
X58268Y301969D02*
X61467D01*
Y303568D01*
X60934Y304101D01*
X59867D01*
X59334Y303568D01*
Y301969D01*
Y303035D02*
X58268Y304101D01*
X61467Y307300D02*
X60934Y306234D01*
X59867Y305168D01*
X58801D01*
X58268Y305701D01*
Y306767D01*
X58801Y307300D01*
X59334D01*
X59867Y306767D01*
Y305168D01*
X60934Y308366D02*
X61467Y308900D01*
Y309966D01*
X60934Y310499D01*
X60400D01*
X59867Y309966D01*
Y309433D01*
Y309966D01*
X59334Y310499D01*
X58801D01*
X58268Y309966D01*
Y308900D01*
X58801Y308366D01*
X58268Y274410D02*
X61467D01*
Y276009D01*
X60934Y276542D01*
X59867D01*
X59334Y276009D01*
Y274410D01*
Y275476D02*
X58268Y276542D01*
X61467Y279741D02*
X60934Y278675D01*
X59867Y277608D01*
X58801D01*
X58268Y278142D01*
Y279208D01*
X58801Y279741D01*
X59334D01*
X59867Y279208D01*
Y277608D01*
X58268Y282940D02*
Y280807D01*
X60400Y282940D01*
X60934D01*
X61467Y282407D01*
Y281341D01*
X60934Y280807D01*
X58268Y246850D02*
X61467D01*
Y248450D01*
X60934Y248983D01*
X59867D01*
X59334Y248450D01*
Y246850D01*
Y247917D02*
X58268Y248983D01*
X61467Y252182D02*
X60934Y251116D01*
X59867Y250049D01*
X58801D01*
X58268Y250583D01*
Y251649D01*
X58801Y252182D01*
X59334D01*
X59867Y251649D01*
Y250049D01*
X58268Y253248D02*
Y254315D01*
Y253782D01*
X61467D01*
X60934Y253248D01*
X51181Y302362D02*
X54380D01*
Y303962D01*
X53847Y304495D01*
X52781D01*
X52247Y303962D01*
Y302362D01*
Y303429D02*
X51181Y304495D01*
X54380Y307694D02*
X53847Y306627D01*
X52781Y305561D01*
X51714D01*
X51181Y306094D01*
Y307161D01*
X51714Y307694D01*
X52247D01*
X52781Y307161D01*
Y305561D01*
X53847Y308760D02*
X54380Y309293D01*
Y310360D01*
X53847Y310893D01*
X51714D01*
X51181Y310360D01*
Y309293D01*
X51714Y308760D01*
X53847D01*
X51575Y274410D02*
X54774D01*
Y276009D01*
X54241Y276542D01*
X53174D01*
X52641Y276009D01*
Y274410D01*
Y275476D02*
X51575Y276542D01*
X54774Y279741D02*
Y277608D01*
X53174D01*
X53707Y278675D01*
Y279208D01*
X53174Y279741D01*
X52108D01*
X51575Y279208D01*
Y278142D01*
X52108Y277608D01*
Y280807D02*
X51575Y281341D01*
Y282407D01*
X52108Y282940D01*
X54241D01*
X54774Y282407D01*
Y281341D01*
X54241Y280807D01*
X53707D01*
X53174Y281341D01*
Y282940D01*
X51575Y246457D02*
X54774D01*
Y248056D01*
X54241Y248589D01*
X53174D01*
X52641Y248056D01*
Y246457D01*
Y247523D02*
X51575Y248589D01*
X54774Y251788D02*
Y249656D01*
X53174D01*
X53707Y250722D01*
Y251255D01*
X53174Y251788D01*
X52108D01*
X51575Y251255D01*
Y250189D01*
X52108Y249656D01*
X54241Y252855D02*
X54774Y253388D01*
Y254454D01*
X54241Y254987D01*
X53707D01*
X53174Y254454D01*
X52641Y254987D01*
X52108D01*
X51575Y254454D01*
Y253388D01*
X52108Y252855D01*
X52641D01*
X53174Y253388D01*
X53707Y252855D01*
X54241D01*
X53174Y253388D02*
Y254454D01*
X91732Y301969D02*
X94931D01*
Y303568D01*
X94398Y304101D01*
X93332D01*
X92799Y303568D01*
Y301969D01*
Y303035D02*
X91732Y304101D01*
X94931Y307300D02*
Y305168D01*
X93332D01*
X93865Y306234D01*
Y306767D01*
X93332Y307300D01*
X92265D01*
X91732Y306767D01*
Y305701D01*
X92265Y305168D01*
X94931Y308366D02*
Y310499D01*
X94398D01*
X92265Y308366D01*
X91732D01*
Y274410D02*
X94931D01*
Y276009D01*
X94398Y276542D01*
X93332D01*
X92799Y276009D01*
Y274410D01*
Y275476D02*
X91732Y276542D01*
X94931Y279741D02*
Y277608D01*
X93332D01*
X93865Y278675D01*
Y279208D01*
X93332Y279741D01*
X92265D01*
X91732Y279208D01*
Y278142D01*
X92265Y277608D01*
X94931Y282940D02*
X94398Y281874D01*
X93332Y280807D01*
X92265D01*
X91732Y281341D01*
Y282407D01*
X92265Y282940D01*
X92799D01*
X93332Y282407D01*
Y280807D01*
X91732Y246850D02*
X94931D01*
Y248450D01*
X94398Y248983D01*
X93332D01*
X92799Y248450D01*
Y246850D01*
Y247917D02*
X91732Y248983D01*
X94931Y252182D02*
Y250049D01*
X93332D01*
X93865Y251116D01*
Y251649D01*
X93332Y252182D01*
X92265D01*
X91732Y251649D01*
Y250583D01*
X92265Y250049D01*
X94931Y255381D02*
Y253248D01*
X93332D01*
X93865Y254315D01*
Y254848D01*
X93332Y255381D01*
X92265D01*
X91732Y254848D01*
Y253782D01*
X92265Y253248D01*
X274803Y249606D02*
X278002D01*
Y251206D01*
X277469Y251739D01*
X276403D01*
X275869Y251206D01*
Y249606D01*
Y250673D02*
X274803Y251739D01*
X278002Y254938D02*
Y252805D01*
X276403D01*
X276936Y253872D01*
Y254405D01*
X276403Y254938D01*
X275336D01*
X274803Y254405D01*
Y253338D01*
X275336Y252805D01*
X274803Y257604D02*
X278002D01*
X276403Y256004D01*
Y258137D01*
X331102Y247638D02*
X334301D01*
Y249237D01*
X333768Y249770D01*
X332702D01*
X332169Y249237D01*
Y247638D01*
Y248704D02*
X331102Y249770D01*
X334301Y252969D02*
Y250837D01*
X332702D01*
X333235Y251903D01*
Y252436D01*
X332702Y252969D01*
X331635D01*
X331102Y252436D01*
Y251370D01*
X331635Y250837D01*
X333768Y254036D02*
X334301Y254569D01*
Y255635D01*
X333768Y256168D01*
X333235D01*
X332702Y255635D01*
Y255102D01*
Y255635D01*
X332169Y256168D01*
X331635D01*
X331102Y255635D01*
Y254569D01*
X331635Y254036D01*
X240158Y301575D02*
Y304774D01*
X238558D01*
X238025Y304241D01*
Y303174D01*
X238558Y302641D01*
X240158D01*
X239091D02*
X238025Y301575D01*
X234826Y304774D02*
X236959D01*
Y303174D01*
X235892Y303707D01*
X235359D01*
X234826Y303174D01*
Y302108D01*
X235359Y301575D01*
X236425D01*
X236959Y302108D01*
X231627Y301575D02*
X233759D01*
X231627Y303707D01*
Y304241D01*
X232160Y304774D01*
X233226D01*
X233759Y304241D01*
X239764Y308661D02*
Y311860D01*
X238164D01*
X237631Y311327D01*
Y310261D01*
X238164Y309728D01*
X239764D01*
X238698D02*
X237631Y308661D01*
X234432Y311860D02*
X236565D01*
Y310261D01*
X235498Y310794D01*
X234965D01*
X234432Y310261D01*
Y309195D01*
X234965Y308661D01*
X236032D01*
X236565Y309195D01*
X233366Y308661D02*
X232299D01*
X232833D01*
Y311860D01*
X233366Y311327D01*
X282677Y313386D02*
X285876D01*
Y314985D01*
X285343Y315518D01*
X284277D01*
X283744Y314985D01*
Y313386D01*
Y314452D02*
X282677Y315518D01*
X285876Y318717D02*
Y316585D01*
X284277D01*
X284810Y317651D01*
Y318184D01*
X284277Y318717D01*
X283210D01*
X282677Y318184D01*
Y317118D01*
X283210Y316585D01*
X285343Y319784D02*
X285876Y320317D01*
Y321383D01*
X285343Y321916D01*
X283210D01*
X282677Y321383D01*
Y320317D01*
X283210Y319784D01*
X285343D01*
X339764Y313386D02*
X342963D01*
Y314985D01*
X342430Y315518D01*
X341363D01*
X340830Y314985D01*
Y313386D01*
Y314452D02*
X339764Y315518D01*
Y318184D02*
X342963D01*
X341363Y316585D01*
Y318717D01*
X340297Y319784D02*
X339764Y320317D01*
Y321383D01*
X340297Y321916D01*
X342430D01*
X342963Y321383D01*
Y320317D01*
X342430Y319784D01*
X341896D01*
X341363Y320317D01*
Y321916D01*
X276772Y313386D02*
X279971D01*
Y314985D01*
X279437Y315518D01*
X278371D01*
X277838Y314985D01*
Y313386D01*
Y314452D02*
X276772Y315518D01*
Y318184D02*
X279971D01*
X278371Y316585D01*
Y318717D01*
X279437Y319784D02*
X279971Y320317D01*
Y321383D01*
X279437Y321916D01*
X278904D01*
X278371Y321383D01*
X277838Y321916D01*
X277305D01*
X276772Y321383D01*
Y320317D01*
X277305Y319784D01*
X277838D01*
X278371Y320317D01*
X278904Y319784D01*
X279437D01*
X278371Y320317D02*
Y321383D01*
X333858Y313386D02*
X337057D01*
Y314985D01*
X336524Y315518D01*
X335458D01*
X334925Y314985D01*
Y313386D01*
Y314452D02*
X333858Y315518D01*
Y318184D02*
X337057D01*
X335458Y316585D01*
Y318717D01*
X337057Y319784D02*
Y321916D01*
X336524D01*
X334391Y319784D01*
X333858D01*
X223622Y301831D02*
Y305030D01*
X222023D01*
X221489Y304497D01*
Y303430D01*
X222023Y302897D01*
X223622D01*
X222556D02*
X221489Y301831D01*
X218824D02*
Y305030D01*
X220423Y303430D01*
X218290D01*
X215091Y305030D02*
X216158Y304497D01*
X217224Y303430D01*
Y302364D01*
X216691Y301831D01*
X215625D01*
X215091Y302364D01*
Y302897D01*
X215625Y303430D01*
X217224D01*
X223622Y309055D02*
Y312254D01*
X222023D01*
X221489Y311721D01*
Y310655D01*
X222023Y310121D01*
X223622D01*
X222556D02*
X221489Y309055D01*
X218824D02*
Y312254D01*
X220423Y310655D01*
X218290D01*
X215091Y312254D02*
X217224D01*
Y310655D01*
X216158Y311188D01*
X215625D01*
X215091Y310655D01*
Y309588D01*
X215625Y309055D01*
X216691D01*
X217224Y309588D01*
X259055Y313386D02*
X262254D01*
Y314985D01*
X261721Y315518D01*
X260655D01*
X260121Y314985D01*
Y313386D01*
Y314452D02*
X259055Y315518D01*
Y318184D02*
X262254D01*
X260655Y316585D01*
Y318717D01*
X259055Y321383D02*
X262254D01*
X260655Y319784D01*
Y321916D01*
X256299Y249606D02*
X259498D01*
Y251206D01*
X258965Y251739D01*
X257899D01*
X257365Y251206D01*
Y249606D01*
Y250673D02*
X256299Y251739D01*
Y254405D02*
X259498D01*
X257899Y252805D01*
Y254938D01*
X258965Y256004D02*
X259498Y256537D01*
Y257604D01*
X258965Y258137D01*
X258432D01*
X257899Y257604D01*
Y257071D01*
Y257604D01*
X257365Y258137D01*
X256832D01*
X256299Y257604D01*
Y256537D01*
X256832Y256004D01*
X316142Y313386D02*
X319341D01*
Y314985D01*
X318808Y315518D01*
X317741D01*
X317208Y314985D01*
Y313386D01*
Y314452D02*
X316142Y315518D01*
Y318184D02*
X319341D01*
X317741Y316585D01*
Y318717D01*
X316142Y321916D02*
Y319784D01*
X318274Y321916D01*
X318808D01*
X319341Y321383D01*
Y320317D01*
X318808Y319784D01*
X312205Y248425D02*
X315404D01*
Y250025D01*
X314871Y250558D01*
X313804D01*
X313271Y250025D01*
Y248425D01*
Y249492D02*
X312205Y250558D01*
Y253224D02*
X315404D01*
X313804Y251624D01*
Y253757D01*
X312205Y254823D02*
Y255890D01*
Y255356D01*
X315404D01*
X314871Y254823D01*
X264961Y313386D02*
X268160D01*
Y314985D01*
X267626Y315518D01*
X266560D01*
X266027Y314985D01*
Y313386D01*
Y314452D02*
X264961Y315518D01*
Y318184D02*
X268160D01*
X266560Y316585D01*
Y318717D01*
X267626Y319784D02*
X268160Y320317D01*
Y321383D01*
X267626Y321916D01*
X265494D01*
X264961Y321383D01*
Y320317D01*
X265494Y319784D01*
X267626D01*
X262205Y249606D02*
X265404D01*
Y251206D01*
X264871Y251739D01*
X263804D01*
X263271Y251206D01*
Y249606D01*
Y250673D02*
X262205Y251739D01*
X264871Y252805D02*
X265404Y253338D01*
Y254405D01*
X264871Y254938D01*
X264337D01*
X263804Y254405D01*
Y253872D01*
Y254405D01*
X263271Y254938D01*
X262738D01*
X262205Y254405D01*
Y253338D01*
X262738Y252805D01*
Y256004D02*
X262205Y256537D01*
Y257604D01*
X262738Y258137D01*
X264871D01*
X265404Y257604D01*
Y256537D01*
X264871Y256004D01*
X264337D01*
X263804Y256537D01*
Y258137D01*
X322047Y313386D02*
X325246D01*
Y314985D01*
X324713Y315518D01*
X323647D01*
X323114Y314985D01*
Y313386D01*
Y314452D02*
X322047Y315518D01*
X324713Y316585D02*
X325246Y317118D01*
Y318184D01*
X324713Y318717D01*
X324180D01*
X323647Y318184D01*
Y317651D01*
Y318184D01*
X323114Y318717D01*
X322580D01*
X322047Y318184D01*
Y317118D01*
X322580Y316585D01*
X324713Y319784D02*
X325246Y320317D01*
Y321383D01*
X324713Y321916D01*
X324180D01*
X323647Y321383D01*
X323114Y321916D01*
X322580D01*
X322047Y321383D01*
Y320317D01*
X322580Y319784D01*
X323114D01*
X323647Y320317D01*
X324180Y319784D01*
X324713D01*
X323647Y320317D02*
Y321383D01*
X318504Y248031D02*
X321703D01*
Y249631D01*
X321170Y250164D01*
X320103D01*
X319570Y249631D01*
Y248031D01*
Y249098D02*
X318504Y250164D01*
X321170Y251231D02*
X321703Y251764D01*
Y252830D01*
X321170Y253363D01*
X320637D01*
X320103Y252830D01*
Y252297D01*
Y252830D01*
X319570Y253363D01*
X319037D01*
X318504Y252830D01*
Y251764D01*
X319037Y251231D01*
X321703Y254429D02*
Y256562D01*
X321170D01*
X319037Y254429D01*
X318504D01*
X270866Y313386D02*
X274065D01*
Y314985D01*
X273532Y315518D01*
X272466D01*
X271933Y314985D01*
Y313386D01*
Y314452D02*
X270866Y315518D01*
X273532Y316585D02*
X274065Y317118D01*
Y318184D01*
X273532Y318717D01*
X272999D01*
X272466Y318184D01*
Y317651D01*
Y318184D01*
X271933Y318717D01*
X271399D01*
X270866Y318184D01*
Y317118D01*
X271399Y316585D01*
X274065Y321916D02*
X273532Y320850D01*
X272466Y319784D01*
X271399D01*
X270866Y320317D01*
Y321383D01*
X271399Y321916D01*
X271933D01*
X272466Y321383D01*
Y319784D01*
X327953Y313386D02*
X331152D01*
Y314985D01*
X330619Y315518D01*
X329552D01*
X329019Y314985D01*
Y313386D01*
Y314452D02*
X327953Y315518D01*
X330619Y316585D02*
X331152Y317118D01*
Y318184D01*
X330619Y318717D01*
X330085D01*
X329552Y318184D01*
Y317651D01*
Y318184D01*
X329019Y318717D01*
X328486D01*
X327953Y318184D01*
Y317118D01*
X328486Y316585D01*
X331152Y321916D02*
Y319784D01*
X329552D01*
X330085Y320850D01*
Y321383D01*
X329552Y321916D01*
X328486D01*
X327953Y321383D01*
Y320317D01*
X328486Y319784D01*
X268110Y249606D02*
X271309D01*
Y251206D01*
X270776Y251739D01*
X269710D01*
X269177Y251206D01*
Y249606D01*
Y250673D02*
X268110Y251739D01*
X270776Y252805D02*
X271309Y253338D01*
Y254405D01*
X270776Y254938D01*
X270243D01*
X269710Y254405D01*
Y253872D01*
Y254405D01*
X269177Y254938D01*
X268643D01*
X268110Y254405D01*
Y253338D01*
X268643Y252805D01*
X268110Y257604D02*
X271309D01*
X269710Y256004D01*
Y258137D01*
X324410Y248031D02*
X327608D01*
Y249631D01*
X327075Y250164D01*
X326009D01*
X325476Y249631D01*
Y248031D01*
Y249098D02*
X324410Y250164D01*
X327075Y251231D02*
X327608Y251764D01*
Y252830D01*
X327075Y253363D01*
X326542D01*
X326009Y252830D01*
Y252297D01*
Y252830D01*
X325476Y253363D01*
X324943D01*
X324410Y252830D01*
Y251764D01*
X324943Y251231D01*
X327075Y254429D02*
X327608Y254963D01*
Y256029D01*
X327075Y256562D01*
X326542D01*
X326009Y256029D01*
Y255496D01*
Y256029D01*
X325476Y256562D01*
X324943D01*
X324410Y256029D01*
Y254963D01*
X324943Y254429D01*
X242323Y314567D02*
X245522D01*
Y316166D01*
X244989Y316700D01*
X243922D01*
X243389Y316166D01*
Y314567D01*
Y315633D02*
X242323Y316700D01*
X244989Y317766D02*
X245522Y318299D01*
Y319365D01*
X244989Y319899D01*
X244456D01*
X243922Y319365D01*
Y318832D01*
Y319365D01*
X243389Y319899D01*
X242856D01*
X242323Y319365D01*
Y318299D01*
X242856Y317766D01*
X242323Y323097D02*
Y320965D01*
X244456Y323097D01*
X244989D01*
X245522Y322564D01*
Y321498D01*
X244989Y320965D01*
X250394Y250000D02*
X253593D01*
Y251600D01*
X253060Y252133D01*
X251993D01*
X251460Y251600D01*
Y250000D01*
Y251066D02*
X250394Y252133D01*
X253060Y253199D02*
X253593Y253732D01*
Y254799D01*
X253060Y255332D01*
X252526D01*
X251993Y254799D01*
Y254265D01*
Y254799D01*
X251460Y255332D01*
X250927D01*
X250394Y254799D01*
Y253732D01*
X250927Y253199D01*
X250394Y256398D02*
Y257464D01*
Y256931D01*
X253593D01*
X253060Y256398D01*
X300394Y313386D02*
X303593D01*
Y314985D01*
X303060Y315518D01*
X301993D01*
X301460Y314985D01*
Y313386D01*
Y314452D02*
X300394Y315518D01*
X303060Y316585D02*
X303593Y317118D01*
Y318184D01*
X303060Y318717D01*
X302526D01*
X301993Y318184D01*
Y317651D01*
Y318184D01*
X301460Y318717D01*
X300927D01*
X300394Y318184D01*
Y317118D01*
X300927Y316585D01*
X303060Y319784D02*
X303593Y320317D01*
Y321383D01*
X303060Y321916D01*
X300927D01*
X300394Y321383D01*
Y320317D01*
X300927Y319784D01*
X303060D01*
X185433Y278740D02*
Y281939D01*
X183834D01*
X183300Y281406D01*
Y280340D01*
X183834Y279806D01*
X185433D01*
X184367D02*
X183300Y278740D01*
X180102D02*
X182234D01*
X180102Y280873D01*
Y281406D01*
X180635Y281939D01*
X181701D01*
X182234Y281406D01*
X179035Y279273D02*
X178502Y278740D01*
X177436D01*
X176902Y279273D01*
Y281406D01*
X177436Y281939D01*
X178502D01*
X179035Y281406D01*
Y280873D01*
X178502Y280340D01*
X176902D01*
X253150Y313386D02*
X256349D01*
Y314985D01*
X255815Y315518D01*
X254749D01*
X254216Y314985D01*
Y313386D01*
Y314452D02*
X253150Y315518D01*
Y318717D02*
Y316585D01*
X255282Y318717D01*
X255815D01*
X256349Y318184D01*
Y317118D01*
X255815Y316585D01*
Y319784D02*
X256349Y320317D01*
Y321383D01*
X255815Y321916D01*
X255282D01*
X254749Y321383D01*
X254216Y321916D01*
X253683D01*
X253150Y321383D01*
Y320317D01*
X253683Y319784D01*
X254216D01*
X254749Y320317D01*
X255282Y319784D01*
X255815D01*
X254749Y320317D02*
Y321383D01*
X310236Y313386D02*
X313435D01*
Y314985D01*
X312902Y315518D01*
X311836D01*
X311302Y314985D01*
Y313386D01*
Y314452D02*
X310236Y315518D01*
Y318717D02*
Y316585D01*
X312369Y318717D01*
X312902D01*
X313435Y318184D01*
Y317118D01*
X312902Y316585D01*
X313435Y319784D02*
Y321916D01*
X312902D01*
X310769Y319784D01*
X310236D01*
X71850Y13780D02*
X68651D01*
Y12180D01*
X69185Y11647D01*
X70251D01*
X70784Y12180D01*
Y13780D01*
Y12713D02*
X71850Y11647D01*
Y8448D02*
Y10581D01*
X69718Y8448D01*
X69185D01*
X68651Y8981D01*
Y10047D01*
X69185Y10581D01*
X68651Y5249D02*
X69185Y6315D01*
X70251Y7382D01*
X71317D01*
X71850Y6848D01*
Y5782D01*
X71317Y5249D01*
X70784D01*
X70251Y5782D01*
Y7382D01*
X29921Y130315D02*
Y133514D01*
X28322D01*
X27789Y132981D01*
Y131914D01*
X28322Y131381D01*
X29921D01*
X28855D02*
X27789Y130315D01*
X24590D02*
X26722D01*
X24590Y132448D01*
Y132981D01*
X25123Y133514D01*
X26189D01*
X26722Y132981D01*
X21391Y133514D02*
X23523D01*
Y131914D01*
X22457Y132448D01*
X21924D01*
X21391Y131914D01*
Y130848D01*
X21924Y130315D01*
X22990D01*
X23523Y130848D01*
X30315Y115354D02*
Y118553D01*
X28716D01*
X28182Y118020D01*
Y116954D01*
X28716Y116421D01*
X30315D01*
X29249D02*
X28182Y115354D01*
X24983D02*
X27116D01*
X24983Y117487D01*
Y118020D01*
X25517Y118553D01*
X26583D01*
X27116Y118020D01*
X22318Y115354D02*
Y118553D01*
X23917Y116954D01*
X21784D01*
X263779Y129921D02*
Y133120D01*
X262180D01*
X261647Y132587D01*
Y131521D01*
X262180Y130988D01*
X263779D01*
X262713D02*
X261647Y129921D01*
X258448D02*
X260581D01*
X258448Y132054D01*
Y132587D01*
X258981Y133120D01*
X260047D01*
X260581Y132587D01*
X257382D02*
X256848Y133120D01*
X255782D01*
X255249Y132587D01*
Y132054D01*
X255782Y131521D01*
X256315D01*
X255782D01*
X255249Y130988D01*
Y130454D01*
X255782Y129921D01*
X256848D01*
X257382Y130454D01*
X210630Y231299D02*
Y234498D01*
X209030D01*
X208497Y233965D01*
Y232899D01*
X209030Y232365D01*
X210630D01*
X209564D02*
X208497Y231299D01*
X205298D02*
X207431D01*
X205298Y233432D01*
Y233965D01*
X205832Y234498D01*
X206898D01*
X207431Y233965D01*
X202099Y231299D02*
X204232D01*
X202099Y233432D01*
Y233965D01*
X202632Y234498D01*
X203699D01*
X204232Y233965D01*
X28543Y97441D02*
Y100640D01*
X26944D01*
X26411Y100107D01*
Y99040D01*
X26944Y98507D01*
X28543D01*
X27477D02*
X26411Y97441D01*
X23212D02*
X25344D01*
X23212Y99574D01*
Y100107D01*
X23745Y100640D01*
X24811D01*
X25344Y100107D01*
X22145Y97441D02*
X21079D01*
X21612D01*
Y100640D01*
X22145Y100107D01*
X233268Y53150D02*
X236467D01*
Y54749D01*
X235933Y55282D01*
X234867D01*
X234334Y54749D01*
Y53150D01*
Y54216D02*
X233268Y55282D01*
Y58481D02*
Y56349D01*
X235400Y58481D01*
X235933D01*
X236467Y57948D01*
Y56882D01*
X235933Y56349D01*
Y59548D02*
X236467Y60081D01*
Y61147D01*
X235933Y61680D01*
X233801D01*
X233268Y61147D01*
Y60081D01*
X233801Y59548D01*
X235933D01*
X225394Y226378D02*
X228593D01*
Y227977D01*
X228060Y228511D01*
X226993D01*
X226460Y227977D01*
Y226378D01*
Y227444D02*
X225394Y228511D01*
Y229577D02*
Y230643D01*
Y230110D01*
X228593D01*
X228060Y229577D01*
X225927Y232243D02*
X225394Y232776D01*
Y233842D01*
X225927Y234375D01*
X228060D01*
X228593Y233842D01*
Y232776D01*
X228060Y232243D01*
X227526D01*
X226993Y232776D01*
Y234375D01*
X209646Y203740D02*
Y206939D01*
X208046D01*
X207513Y206406D01*
Y205340D01*
X208046Y204806D01*
X209646D01*
X208579D02*
X207513Y203740D01*
X206447D02*
X205380D01*
X205913D01*
Y206939D01*
X206447Y206406D01*
X203781D02*
X203248Y206939D01*
X202181D01*
X201648Y206406D01*
Y205873D01*
X202181Y205340D01*
X201648Y204806D01*
Y204273D01*
X202181Y203740D01*
X203248D01*
X203781Y204273D01*
Y204806D01*
X203248Y205340D01*
X203781Y205873D01*
Y206406D01*
X203248Y205340D02*
X202181D01*
X29528Y71850D02*
Y75049D01*
X27928D01*
X27395Y74516D01*
Y73450D01*
X27928Y72917D01*
X29528D01*
X28461D02*
X27395Y71850D01*
X26329D02*
X25262D01*
X25795D01*
Y75049D01*
X26329Y74516D01*
X23663Y75049D02*
X21530D01*
Y74516D01*
X23663Y72384D01*
Y71850D01*
X236221Y80709D02*
X239419D01*
Y82308D01*
X238886Y82841D01*
X237820D01*
X237287Y82308D01*
Y80709D01*
Y81775D02*
X236221Y82841D01*
Y83908D02*
Y84974D01*
Y84441D01*
X239419D01*
X238886Y83908D01*
X239419Y88706D02*
X238886Y87640D01*
X237820Y86573D01*
X236754D01*
X236221Y87107D01*
Y88173D01*
X236754Y88706D01*
X237287D01*
X237820Y88173D01*
Y86573D01*
X236221Y95472D02*
X239419D01*
Y97072D01*
X238886Y97605D01*
X237820D01*
X237287Y97072D01*
Y95472D01*
Y96539D02*
X236221Y97605D01*
Y98671D02*
Y99738D01*
Y99205D01*
X239419D01*
X238886Y98671D01*
X239419Y103470D02*
Y101337D01*
X237820D01*
X238353Y102403D01*
Y102937D01*
X237820Y103470D01*
X236754D01*
X236221Y102937D01*
Y101870D01*
X236754Y101337D01*
X236221Y111221D02*
X239419D01*
Y112820D01*
X238886Y113353D01*
X237820D01*
X237287Y112820D01*
Y111221D01*
Y112287D02*
X236221Y113353D01*
Y114419D02*
Y115486D01*
Y114953D01*
X239419D01*
X238886Y114419D01*
X236221Y118685D02*
X239419D01*
X237820Y117085D01*
Y119218D01*
X259449Y52362D02*
Y55561D01*
X257849D01*
X257316Y55028D01*
Y53962D01*
X257849Y53429D01*
X259449D01*
X258383D02*
X257316Y52362D01*
X256250D02*
X255184D01*
X255717D01*
Y55561D01*
X256250Y55028D01*
X253584D02*
X253051Y55561D01*
X251985D01*
X251451Y55028D01*
Y54495D01*
X251985Y53962D01*
X252518D01*
X251985D01*
X251451Y53429D01*
Y52895D01*
X251985Y52362D01*
X253051D01*
X253584Y52895D01*
X266535Y76968D02*
X269734D01*
Y78568D01*
X269201Y79101D01*
X268135D01*
X267602Y78568D01*
Y76968D01*
Y78035D02*
X266535Y79101D01*
Y80168D02*
Y81234D01*
Y80701D01*
X269734D01*
X269201Y80168D01*
X266535Y84966D02*
Y82833D01*
X268668Y84966D01*
X269201D01*
X269734Y84433D01*
Y83366D01*
X269201Y82833D01*
X266929Y90551D02*
X270128D01*
Y92151D01*
X269595Y92684D01*
X268529D01*
X267995Y92151D01*
Y90551D01*
Y91618D02*
X266929Y92684D01*
Y93750D02*
Y94816D01*
Y94283D01*
X270128D01*
X269595Y93750D01*
X266929Y96416D02*
Y97482D01*
Y96949D01*
X270128D01*
X269595Y96416D01*
X266732Y104331D02*
X269931D01*
Y105930D01*
X269398Y106463D01*
X268332D01*
X267799Y105930D01*
Y104331D01*
Y105397D02*
X266732Y106463D01*
Y107530D02*
Y108596D01*
Y108063D01*
X269931D01*
X269398Y107530D01*
Y110196D02*
X269931Y110729D01*
Y111795D01*
X269398Y112328D01*
X267265D01*
X266732Y111795D01*
Y110729D01*
X267265Y110196D01*
X269398D01*
X246063Y43307D02*
Y46506D01*
X244463D01*
X243930Y45973D01*
Y44907D01*
X244463Y44373D01*
X246063D01*
X244997D02*
X243930Y43307D01*
X242864Y43840D02*
X242331Y43307D01*
X241265D01*
X240731Y43840D01*
Y45973D01*
X241265Y46506D01*
X242331D01*
X242864Y45973D01*
Y45440D01*
X242331Y44907D01*
X240731D01*
X266968Y52362D02*
Y55561D01*
X265369D01*
X264836Y55028D01*
Y53962D01*
X265369Y53429D01*
X266968D01*
X265902D02*
X264836Y52362D01*
X263770Y55028D02*
X263236Y55561D01*
X262170D01*
X261637Y55028D01*
Y54495D01*
X262170Y53962D01*
X261637Y53429D01*
Y52895D01*
X262170Y52362D01*
X263236D01*
X263770Y52895D01*
Y53429D01*
X263236Y53962D01*
X263770Y54495D01*
Y55028D01*
X263236Y53962D02*
X262170D01*
X27559Y48228D02*
Y51427D01*
X25960D01*
X25426Y50894D01*
Y49828D01*
X25960Y49295D01*
X27559D01*
X26493D02*
X25426Y48228D01*
X24360Y51427D02*
X22227D01*
Y50894D01*
X24360Y48761D01*
Y48228D01*
X253937Y49213D02*
X250738D01*
Y47613D01*
X251271Y47080D01*
X252338D01*
X252871Y47613D01*
Y49213D01*
Y48146D02*
X253937Y47080D01*
X250738Y43881D02*
X251271Y44947D01*
X252338Y46014D01*
X253404D01*
X253937Y45480D01*
Y44414D01*
X253404Y43881D01*
X252871D01*
X252338Y44414D01*
Y46014D01*
X289724Y87598D02*
Y90797D01*
X288125D01*
X287592Y90264D01*
Y89198D01*
X288125Y88665D01*
X289724D01*
X288658D02*
X287592Y87598D01*
X284393Y90797D02*
X286526D01*
Y89198D01*
X285459Y89731D01*
X284926D01*
X284393Y89198D01*
Y88132D01*
X284926Y87598D01*
X285992D01*
X286526Y88132D01*
X304134Y79724D02*
Y82923D01*
X302534D01*
X302001Y82390D01*
Y81324D01*
X302534Y80791D01*
X304134D01*
X303067D02*
X302001Y79724D01*
X299335D02*
Y82923D01*
X300935Y81324D01*
X298802D01*
X276772Y53543D02*
Y56742D01*
X275172D01*
X274639Y56209D01*
Y55143D01*
X275172Y54610D01*
X276772D01*
X275705D02*
X274639Y53543D01*
X273573Y56209D02*
X273040Y56742D01*
X271973D01*
X271440Y56209D01*
Y55676D01*
X271973Y55143D01*
X272506D01*
X271973D01*
X271440Y54610D01*
Y54076D01*
X271973Y53543D01*
X273040D01*
X273573Y54076D01*
X362205Y131890D02*
Y135089D01*
X360605D01*
X360072Y134556D01*
Y133489D01*
X360605Y132956D01*
X362205D01*
X361138D02*
X360072Y131890D01*
X356873D02*
X359006D01*
X356873Y134022D01*
Y134556D01*
X357406Y135089D01*
X358473D01*
X359006Y134556D01*
X303150Y72835D02*
Y76034D01*
X301550D01*
X301017Y75501D01*
Y74434D01*
X301550Y73901D01*
X303150D01*
X302083D02*
X301017Y72835D01*
X299951D02*
X298884D01*
X299417D01*
Y76034D01*
X299951Y75501D01*
X220021Y369259D02*
X222154D01*
X222687Y368725D01*
Y367659D01*
X222154Y367126D01*
X220021D01*
X219488Y367659D01*
Y368725D01*
X220554Y368192D02*
X219488Y369259D01*
Y368725D02*
X220021Y369259D01*
X219488Y370325D02*
Y371391D01*
Y370858D01*
X222687D01*
X222154Y370325D01*
X222687Y372991D02*
Y375123D01*
X222154D01*
X220021Y372991D01*
X219488D01*
X81635Y317093D02*
X83768D01*
X84301Y316560D01*
Y315494D01*
X83768Y314961D01*
X81635D01*
X81102Y315494D01*
Y316560D01*
X82169Y316027D02*
X81102Y317093D01*
Y316560D02*
X81635Y317093D01*
X81102Y318160D02*
Y319226D01*
Y318693D01*
X84301D01*
X83768Y318160D01*
X84301Y322958D02*
X83768Y321892D01*
X82702Y320825D01*
X81635D01*
X81102Y321359D01*
Y322425D01*
X81635Y322958D01*
X82169D01*
X82702Y322425D01*
Y320825D01*
X82029Y289907D02*
X84162D01*
X84695Y289374D01*
Y288308D01*
X84162Y287775D01*
X82029D01*
X81496Y288308D01*
Y289374D01*
X82562Y288841D02*
X81496Y289907D01*
Y289374D02*
X82029Y289907D01*
X81496Y290974D02*
Y292040D01*
Y291507D01*
X84695D01*
X84162Y290974D01*
X84695Y295772D02*
Y293640D01*
X83096D01*
X83629Y294706D01*
Y295239D01*
X83096Y295772D01*
X82029D01*
X81496Y295239D01*
Y294173D01*
X82029Y293640D01*
Y262369D02*
X84162D01*
X84695Y261836D01*
Y260769D01*
X84162Y260236D01*
X82029D01*
X81496Y260769D01*
Y261836D01*
X82562Y261302D02*
X81496Y262369D01*
Y261836D02*
X82029Y262369D01*
X81496Y263435D02*
Y264502D01*
Y263968D01*
X84695D01*
X84162Y263435D01*
X81496Y267701D02*
X84695D01*
X83096Y266101D01*
Y268234D01*
X82029Y303607D02*
X84162D01*
X84695Y303074D01*
Y302008D01*
X84162Y301475D01*
X82029D01*
X81496Y302008D01*
Y303074D01*
X82562Y302541D02*
X81496Y303607D01*
Y303074D02*
X82029Y303607D01*
X81496Y304674D02*
Y305740D01*
Y305207D01*
X84695D01*
X84162Y304674D01*
Y307340D02*
X84695Y307873D01*
Y308939D01*
X84162Y309472D01*
X83629D01*
X83096Y308939D01*
Y308406D01*
Y308939D01*
X82562Y309472D01*
X82029D01*
X81496Y308939D01*
Y307873D01*
X82029Y307340D01*
X82423Y275755D02*
X84556D01*
X85089Y275221D01*
Y274155D01*
X84556Y273622D01*
X82423D01*
X81890Y274155D01*
Y275221D01*
X82956Y274688D02*
X81890Y275755D01*
Y275221D02*
X82423Y275755D01*
X81890Y276821D02*
Y277887D01*
Y277354D01*
X85089D01*
X84556Y276821D01*
X81890Y281620D02*
Y279487D01*
X84022Y281620D01*
X84556D01*
X85089Y281086D01*
Y280020D01*
X84556Y279487D01*
X81635Y249770D02*
X83768D01*
X84301Y249237D01*
Y248171D01*
X83768Y247638D01*
X81635D01*
X81102Y248171D01*
Y249237D01*
X82169Y248704D02*
X81102Y249770D01*
Y249237D02*
X81635Y249770D01*
X81102Y250837D02*
Y251903D01*
Y251370D01*
X84301D01*
X83768Y250837D01*
X81102Y253503D02*
Y254569D01*
Y254036D01*
X84301D01*
X83768Y253503D01*
X299048Y271006D02*
Y273138D01*
X299582Y273671D01*
X300648D01*
X301181Y273138D01*
Y271006D01*
X300648Y270472D01*
X299582D01*
X300115Y271539D02*
X299048Y270472D01*
X299582D02*
X299048Y271006D01*
X297982Y270472D02*
X296916D01*
X297449D01*
Y273671D01*
X297982Y273138D01*
X295316D02*
X294783Y273671D01*
X293717D01*
X293184Y273138D01*
Y271006D01*
X293717Y270472D01*
X294783D01*
X295316Y271006D01*
Y273138D01*
X343143Y259588D02*
Y261721D01*
X343676Y262254D01*
X344742D01*
X345276Y261721D01*
Y259588D01*
X344742Y259055D01*
X343676D01*
X344209Y260121D02*
X343143Y259055D01*
X343676D02*
X343143Y259588D01*
X342077D02*
X341544Y259055D01*
X340477D01*
X339944Y259588D01*
Y261721D01*
X340477Y262254D01*
X341544D01*
X342077Y261721D01*
Y261188D01*
X341544Y260655D01*
X339944D01*
X293446Y295046D02*
X295579D01*
X296112Y294513D01*
Y293446D01*
X295579Y292913D01*
X293446D01*
X292913Y293446D01*
Y294513D01*
X293980Y293980D02*
X292913Y295046D01*
Y294513D02*
X293446Y295046D01*
X295579Y296112D02*
X296112Y296645D01*
Y297712D01*
X295579Y298245D01*
X295046D01*
X294513Y297712D01*
X293980Y298245D01*
X293446D01*
X292913Y297712D01*
Y296645D01*
X293446Y296112D01*
X293980D01*
X294513Y296645D01*
X295046Y296112D01*
X295579D01*
X294513Y296645D02*
Y297712D01*
X346202Y295440D02*
X348335D01*
X348868Y294907D01*
Y293840D01*
X348335Y293307D01*
X346202D01*
X345669Y293840D01*
Y294907D01*
X346736Y294373D02*
X345669Y295440D01*
Y294907D02*
X346202Y295440D01*
X348868Y296506D02*
Y298639D01*
X348335D01*
X346202Y296506D01*
X345669D01*
X237041Y66478D02*
Y68611D01*
X237574Y69144D01*
X238640D01*
X239173Y68611D01*
Y66478D01*
X238640Y65945D01*
X237574D01*
X238107Y67011D02*
X237041Y65945D01*
X237574D02*
X237041Y66478D01*
X233842Y69144D02*
X234908Y68611D01*
X235974Y67544D01*
Y66478D01*
X235441Y65945D01*
X234375D01*
X233842Y66478D01*
Y67011D01*
X234375Y67544D01*
X235974D01*
X231832Y84810D02*
X233965D01*
X234498Y84277D01*
Y83210D01*
X233965Y82677D01*
X231832D01*
X231299Y83210D01*
Y84277D01*
X232365Y83744D02*
X231299Y84810D01*
Y84277D02*
X231832Y84810D01*
X234498Y88009D02*
Y85876D01*
X232899D01*
X233432Y86942D01*
Y87476D01*
X232899Y88009D01*
X231832D01*
X231299Y87476D01*
Y86409D01*
X231832Y85876D01*
Y99574D02*
X233965D01*
X234498Y99040D01*
Y97974D01*
X233965Y97441D01*
X231832D01*
X231299Y97974D01*
Y99040D01*
X232365Y98507D02*
X231299Y99574D01*
Y99040D02*
X231832Y99574D01*
X231299Y102239D02*
X234498D01*
X232899Y100640D01*
Y102773D01*
X231832Y115322D02*
X233965D01*
X234498Y114788D01*
Y113722D01*
X233965Y113189D01*
X231832D01*
X231299Y113722D01*
Y114788D01*
X232365Y114255D02*
X231299Y115322D01*
Y114788D02*
X231832Y115322D01*
X233965Y116388D02*
X234498Y116921D01*
Y117987D01*
X233965Y118521D01*
X233432D01*
X232899Y117987D01*
Y117454D01*
Y117987D01*
X232365Y118521D01*
X231832D01*
X231299Y117987D01*
Y116921D01*
X231832Y116388D01*
X286253Y96006D02*
Y98138D01*
X286786Y98671D01*
X287853D01*
X288386Y98138D01*
Y96006D01*
X287853Y95472D01*
X286786D01*
X287319Y96539D02*
X286253Y95472D01*
X286786D02*
X286253Y96006D01*
X283054Y95472D02*
X285187D01*
X283054Y97605D01*
Y98138D01*
X283587Y98671D01*
X284654D01*
X285187Y98138D01*
X342355Y105848D02*
Y107981D01*
X342889Y108514D01*
X343955D01*
X344488Y107981D01*
Y105848D01*
X343955Y105315D01*
X342889D01*
X343422Y106381D02*
X342355Y105315D01*
X342889D02*
X342355Y105848D01*
X341289Y105315D02*
X340223D01*
X340756D01*
Y108514D01*
X341289Y107981D01*
X232530Y385007D02*
Y383940D01*
Y384473D01*
X229864D01*
X229331Y383940D01*
Y383407D01*
X229864Y382874D01*
X229331Y388206D02*
Y386073D01*
X231463Y388206D01*
X231996D01*
X232530Y387672D01*
Y386606D01*
X231996Y386073D01*
X229864Y389272D02*
X229331Y389805D01*
Y390871D01*
X229864Y391405D01*
X231996D01*
X232530Y390871D01*
Y389805D01*
X231996Y389272D01*
X231463D01*
X230930Y389805D01*
Y391405D01*
X15994Y347605D02*
Y346539D01*
Y347072D01*
X13328D01*
X12795Y346539D01*
Y346006D01*
X13328Y345472D01*
X12795Y350804D02*
Y348671D01*
X14928Y350804D01*
X15461D01*
X15994Y350271D01*
Y349205D01*
X15461Y348671D01*
Y351870D02*
X15994Y352403D01*
Y353470D01*
X15461Y354003D01*
X14928D01*
X14395Y353470D01*
X13862Y354003D01*
X13328D01*
X12795Y353470D01*
Y352403D01*
X13328Y351870D01*
X13862D01*
X14395Y352403D01*
X14928Y351870D01*
X15461D01*
X14395Y352403D02*
Y353470D01*
X335466Y378199D02*
X336532D01*
X335999D01*
Y375533D01*
X336532Y375000D01*
X337065D01*
X337598Y375533D01*
X332267Y375000D02*
X334400D01*
X332267Y377133D01*
Y377666D01*
X332800Y378199D01*
X333866D01*
X334400Y377666D01*
X331201Y378199D02*
X329068D01*
Y377666D01*
X331201Y375533D01*
Y375000D01*
X41175Y383120D02*
X42241D01*
X41708D01*
Y380454D01*
X42241Y379921D01*
X42774D01*
X43307Y380454D01*
X37975Y379921D02*
X40108D01*
X37975Y382054D01*
Y382587D01*
X38509Y383120D01*
X39575D01*
X40108Y382587D01*
X34776Y383120D02*
X35843Y382587D01*
X36909Y381521D01*
Y380454D01*
X36376Y379921D01*
X35310D01*
X34776Y380454D01*
Y380988D01*
X35310Y381521D01*
X36909D01*
X15994Y377133D02*
Y376066D01*
Y376600D01*
X13328D01*
X12795Y376066D01*
Y375533D01*
X13328Y375000D01*
X12795Y380332D02*
Y378199D01*
X14928Y380332D01*
X15461D01*
X15994Y379799D01*
Y378732D01*
X15461Y378199D01*
X15994Y383531D02*
Y381398D01*
X14395D01*
X14928Y382464D01*
Y382997D01*
X14395Y383531D01*
X13328D01*
X12795Y382997D01*
Y381931D01*
X13328Y381398D01*
X11754Y306751D02*
Y305684D01*
Y306218D01*
X9088D01*
X8555Y305684D01*
Y305151D01*
X9088Y304618D01*
X8555Y309950D02*
Y307817D01*
X10688Y309950D01*
X11221D01*
X11754Y309417D01*
Y308350D01*
X11221Y307817D01*
X8555Y312615D02*
X11754D01*
X10155Y311016D01*
Y313149D01*
X11754Y285885D02*
Y284818D01*
Y285351D01*
X9088D01*
X8555Y284818D01*
Y284285D01*
X9088Y283752D01*
X8555Y289084D02*
Y286951D01*
X10688Y289084D01*
X11221D01*
X11754Y288550D01*
Y287484D01*
X11221Y286951D01*
Y290150D02*
X11754Y290683D01*
Y291749D01*
X11221Y292283D01*
X10688D01*
X10155Y291749D01*
Y291216D01*
Y291749D01*
X9621Y292283D01*
X9088D01*
X8555Y291749D01*
Y290683D01*
X9088Y290150D01*
X12148Y266475D02*
Y265409D01*
Y265942D01*
X9482D01*
X8949Y265409D01*
Y264876D01*
X9482Y264342D01*
X8949Y269674D02*
Y267542D01*
X11082Y269674D01*
X11615D01*
X12148Y269141D01*
Y268075D01*
X11615Y267542D01*
X8949Y272873D02*
Y270741D01*
X11082Y272873D01*
X11615D01*
X12148Y272340D01*
Y271274D01*
X11615Y270741D01*
X22490Y298589D02*
Y297523D01*
Y298056D01*
X19825D01*
X19291Y297523D01*
Y296990D01*
X19825Y296457D01*
X19291Y301788D02*
Y299656D01*
X21424Y301788D01*
X21957D01*
X22490Y301255D01*
Y300189D01*
X21957Y299656D01*
X19291Y302855D02*
Y303921D01*
Y303388D01*
X22490D01*
X21957Y302855D01*
X22097Y276542D02*
Y275476D01*
Y276009D01*
X19431D01*
X18898Y275476D01*
Y274943D01*
X19431Y274410D01*
X18898Y279741D02*
Y277608D01*
X21030Y279741D01*
X21563D01*
X22097Y279208D01*
Y278142D01*
X21563Y277608D01*
Y280807D02*
X22097Y281341D01*
Y282407D01*
X21563Y282940D01*
X19431D01*
X18898Y282407D01*
Y281341D01*
X19431Y280807D01*
X21563D01*
X22490Y256975D02*
Y255909D01*
Y256442D01*
X19825D01*
X19291Y255909D01*
Y255376D01*
X19825Y254842D01*
X19291Y258042D02*
Y259108D01*
Y258575D01*
X22490D01*
X21957Y258042D01*
X19825Y260707D02*
X19291Y261241D01*
Y262307D01*
X19825Y262840D01*
X21957D01*
X22490Y262307D01*
Y261241D01*
X21957Y260707D01*
X21424D01*
X20891Y261241D01*
Y262840D01*
X151329Y268537D02*
Y269603D01*
Y269070D01*
X153994D01*
X154528Y269603D01*
Y270136D01*
X153994Y270669D01*
X154528Y267470D02*
Y266404D01*
Y266937D01*
X151329D01*
X151862Y267470D01*
Y264805D02*
X151329Y264271D01*
Y263205D01*
X151862Y262672D01*
X152395D01*
X152928Y263205D01*
X153461Y262672D01*
X153994D01*
X154528Y263205D01*
Y264271D01*
X153994Y264805D01*
X153461D01*
X152928Y264271D01*
X152395Y264805D01*
X151862D01*
X152928Y264271D02*
Y263205D01*
X109990Y266568D02*
Y267635D01*
Y267101D01*
X112656D01*
X113189Y267635D01*
Y268168D01*
X112656Y268701D01*
X113189Y265502D02*
Y264436D01*
Y264969D01*
X109990D01*
X110523Y265502D01*
X109990Y262836D02*
Y260703D01*
X110523D01*
X112656Y262836D01*
X113189D01*
X135663Y326034D02*
X136729D01*
X136196D01*
Y323368D01*
X136729Y322835D01*
X137262D01*
X137795Y323368D01*
X134596Y322835D02*
X133530D01*
X134063D01*
Y326034D01*
X134596Y325500D01*
X129798Y326034D02*
X130864Y325500D01*
X131930Y324434D01*
Y323368D01*
X131397Y322835D01*
X130331D01*
X129798Y323368D01*
Y323901D01*
X130331Y324434D01*
X131930D01*
X199639Y325049D02*
X200705D01*
X200172D01*
Y322384D01*
X200705Y321850D01*
X201238D01*
X201772Y322384D01*
X198573Y321850D02*
X197506D01*
X198039D01*
Y325049D01*
X198573Y324516D01*
X193774Y325049D02*
X195907D01*
Y323450D01*
X194841Y323983D01*
X194307D01*
X193774Y323450D01*
Y322384D01*
X194307Y321850D01*
X195374D01*
X195907Y322384D01*
X380659Y305938D02*
Y307005D01*
Y306471D01*
X383325D01*
X383858Y307005D01*
Y307538D01*
X383325Y308071D01*
X383858Y304872D02*
Y303806D01*
Y304339D01*
X380659D01*
X381192Y304872D01*
X383858Y300607D02*
X380659D01*
X382259Y302206D01*
Y300074D01*
X380659Y271489D02*
Y272556D01*
Y272023D01*
X383325D01*
X383858Y272556D01*
Y273089D01*
X383325Y273622D01*
X383858Y270423D02*
Y269357D01*
Y269890D01*
X380659D01*
X381192Y270423D01*
Y267757D02*
X380659Y267224D01*
Y266158D01*
X381192Y265625D01*
X381726D01*
X382259Y266158D01*
Y266691D01*
Y266158D01*
X382792Y265625D01*
X383325D01*
X383858Y266158D01*
Y267224D01*
X383325Y267757D01*
X179380Y253117D02*
Y252051D01*
Y252584D01*
X176714D01*
X176181Y252051D01*
Y251517D01*
X176714Y250984D01*
X176181Y254183D02*
Y255250D01*
Y254716D01*
X179380D01*
X178847Y254183D01*
X176181Y258982D02*
Y256849D01*
X178314Y258982D01*
X178847D01*
X179380Y258449D01*
Y257382D01*
X178847Y256849D01*
X64223Y151739D02*
Y150673D01*
Y151206D01*
X61557D01*
X61024Y150673D01*
Y150139D01*
X61557Y149606D01*
X61024Y152805D02*
Y153872D01*
Y153338D01*
X64223D01*
X63689Y152805D01*
X61024Y155471D02*
Y156537D01*
Y156004D01*
X64223D01*
X63689Y155471D01*
X13041Y161582D02*
Y160515D01*
Y161048D01*
X10376D01*
X9843Y160515D01*
Y159982D01*
X10376Y159449D01*
X9843Y162648D02*
Y163714D01*
Y163181D01*
X13041D01*
X12508Y162648D01*
Y165314D02*
X13041Y165847D01*
Y166913D01*
X12508Y167446D01*
X10376D01*
X9843Y166913D01*
Y165847D01*
X10376Y165314D01*
X12508D01*
X64223Y186188D02*
Y185121D01*
Y185655D01*
X61557D01*
X61024Y185121D01*
Y184588D01*
X61557Y184055D01*
Y187254D02*
X61024Y187787D01*
Y188854D01*
X61557Y189387D01*
X63689D01*
X64223Y188854D01*
Y187787D01*
X63689Y187254D01*
X63156D01*
X62623Y187787D01*
Y189387D01*
X13041Y198983D02*
Y197917D01*
Y198450D01*
X10376D01*
X9843Y197917D01*
Y197383D01*
X10376Y196850D01*
X12508Y200049D02*
X13041Y200583D01*
Y201649D01*
X12508Y202182D01*
X11975D01*
X11442Y201649D01*
X10909Y202182D01*
X10376D01*
X9843Y201649D01*
Y200583D01*
X10376Y200049D01*
X10909D01*
X11442Y200583D01*
X11975Y200049D01*
X12508D01*
X11442Y200583D02*
Y201649D01*
X87434Y212845D02*
X88501D01*
X87967D01*
Y210179D01*
X88501Y209646D01*
X89034D01*
X89567Y210179D01*
X86368Y212845D02*
X84235D01*
Y212312D01*
X86368Y210179D01*
Y209646D01*
X129757Y212845D02*
X130823D01*
X130290D01*
Y210179D01*
X130823Y209646D01*
X131357D01*
X131890Y210179D01*
X126558Y212845D02*
X127624Y212312D01*
X128691Y211245D01*
Y210179D01*
X128158Y209646D01*
X127091D01*
X126558Y210179D01*
Y210712D01*
X127091Y211245D01*
X128691D01*
X27395Y212845D02*
X28461D01*
X27928D01*
Y210179D01*
X28461Y209646D01*
X28994D01*
X29528Y210179D01*
X24196Y212845D02*
X26329D01*
Y211245D01*
X25262Y211778D01*
X24729D01*
X24196Y211245D01*
Y210179D01*
X24729Y209646D01*
X25795D01*
X26329Y210179D01*
X66191Y217330D02*
Y216263D01*
Y216796D01*
X63525D01*
X62992Y216263D01*
Y215730D01*
X63525Y215197D01*
X62992Y219995D02*
X66191D01*
X64592Y218396D01*
Y220529D01*
X269931Y5085D02*
Y4019D01*
Y4552D01*
X267265D01*
X266732Y4019D01*
Y3486D01*
X267265Y2953D01*
X269398Y6152D02*
X269931Y6685D01*
Y7751D01*
X269398Y8284D01*
X268865D01*
X268332Y7751D01*
Y7218D01*
Y7751D01*
X267799Y8284D01*
X267265D01*
X266732Y7751D01*
Y6685D01*
X267265Y6152D01*
X390584Y176427D02*
X391650D01*
X391117D01*
Y173761D01*
X391650Y173228D01*
X392183D01*
X392717Y173761D01*
X387385Y173228D02*
X389518D01*
X387385Y175361D01*
Y175894D01*
X387918Y176427D01*
X388984D01*
X389518Y175894D01*
X389600Y82923D02*
X390666D01*
X390133D01*
Y80258D01*
X390666Y79724D01*
X391199D01*
X391732Y80258D01*
X388533Y79724D02*
X387467D01*
X388000D01*
Y82923D01*
X388533Y82390D01*
X49262Y300952D02*
Y298819D01*
X47662D01*
Y299885D01*
Y298819D01*
X46063D01*
X49262Y302018D02*
X46063D01*
Y303617D01*
X46596Y304151D01*
X47129D01*
X47662Y303617D01*
Y302018D01*
Y303617D01*
X48196Y304151D01*
X48729D01*
X49262Y303617D01*
Y302018D01*
Y307349D02*
X48729Y306283D01*
X47662Y305217D01*
X46596D01*
X46063Y305750D01*
Y306816D01*
X46596Y307349D01*
X47129D01*
X47662Y306816D01*
Y305217D01*
X48868Y274967D02*
Y272835D01*
X47269D01*
Y273901D01*
Y272835D01*
X45669D01*
X48868Y276034D02*
X45669D01*
Y277633D01*
X46202Y278166D01*
X46736D01*
X47269Y277633D01*
Y276034D01*
Y277633D01*
X47802Y278166D01*
X48335D01*
X48868Y277633D01*
Y276034D01*
Y281365D02*
Y279233D01*
X47269D01*
X47802Y280299D01*
Y280832D01*
X47269Y281365D01*
X46202D01*
X45669Y280832D01*
Y279766D01*
X46202Y279233D01*
X48868Y247211D02*
Y245079D01*
X47269D01*
Y246145D01*
Y245079D01*
X45669D01*
X48868Y248278D02*
X45669D01*
Y249877D01*
X46202Y250410D01*
X46736D01*
X47269Y249877D01*
Y248278D01*
Y249877D01*
X47802Y250410D01*
X48335D01*
X48868Y249877D01*
Y248278D01*
X45669Y253076D02*
X48868D01*
X47269Y251477D01*
Y253609D01*
X40896Y322671D02*
Y324803D01*
X42495D01*
Y323737D01*
Y324803D01*
X44094D01*
X40896Y321604D02*
X44094D01*
Y320005D01*
X43561Y319472D01*
X43028D01*
X42495Y320005D01*
Y321604D01*
Y320005D01*
X41962Y319472D01*
X41429D01*
X40896Y320005D01*
Y321604D01*
X41429Y318405D02*
X40896Y317872D01*
Y316806D01*
X41429Y316273D01*
X41962D01*
X42495Y316806D01*
Y317339D01*
Y316806D01*
X43028Y316273D01*
X43561D01*
X44094Y316806D01*
Y317872D01*
X43561Y318405D01*
X40776Y298458D02*
Y300590D01*
X42375D01*
Y299524D01*
Y300590D01*
X43975D01*
X40776Y297392D02*
X43975D01*
Y295792D01*
X43442Y295259D01*
X42908D01*
X42375Y295792D01*
Y297392D01*
Y295792D01*
X41842Y295259D01*
X41309D01*
X40776Y295792D01*
Y297392D01*
X43975Y292060D02*
Y294193D01*
X41842Y292060D01*
X41309D01*
X40776Y292593D01*
Y293659D01*
X41309Y294193D01*
X40896Y265978D02*
Y268110D01*
X42495D01*
Y267044D01*
Y268110D01*
X44094D01*
X40896Y264911D02*
X44094D01*
Y263312D01*
X43561Y262779D01*
X43028D01*
X42495Y263312D01*
Y264911D01*
Y263312D01*
X41962Y262779D01*
X41429D01*
X40896Y263312D01*
Y264911D01*
X44094Y261712D02*
Y260646D01*
Y261179D01*
X40896D01*
X41429Y261712D01*
X345308Y33396D02*
X347441D01*
Y31796D01*
X346375D01*
X347441D01*
Y30197D01*
X344242D02*
X343176D01*
X343709D01*
Y33396D01*
X344242Y32863D01*
X329724Y59301D02*
Y56102D01*
X328125D01*
X327592Y56635D01*
Y58768D01*
X328125Y59301D01*
X329724D01*
X326525D02*
X324393D01*
X325459D01*
Y56102D01*
X321194D02*
X323326D01*
X321194Y58235D01*
Y58768D01*
X321727Y59301D01*
X322793D01*
X323326Y58768D01*
X62008Y139026D02*
Y135827D01*
X60408D01*
X59875Y136360D01*
Y138493D01*
X60408Y139026D01*
X62008D01*
X56676Y138493D02*
X57209Y139026D01*
X58276D01*
X58809Y138493D01*
Y136360D01*
X58276Y135827D01*
X57209D01*
X56676Y136360D01*
X55610Y138493D02*
X55077Y139026D01*
X54010D01*
X53477Y138493D01*
Y137959D01*
X54010Y137426D01*
X54544D01*
X54010D01*
X53477Y136893D01*
Y136360D01*
X54010Y135827D01*
X55077D01*
X55610Y136360D01*
X277559Y133120D02*
Y129921D01*
X275960D01*
X275426Y130454D01*
Y132587D01*
X275960Y133120D01*
X277559D01*
X272227Y132587D02*
X272761Y133120D01*
X273827D01*
X274360Y132587D01*
Y130454D01*
X273827Y129921D01*
X272761D01*
X272227Y130454D01*
X269028Y129921D02*
X271161D01*
X269028Y132054D01*
Y132587D01*
X269562Y133120D01*
X270628D01*
X271161Y132587D01*
X229577Y105315D02*
X226378D01*
Y106914D01*
X226911Y107448D01*
X229044D01*
X229577Y106914D01*
Y105315D01*
X229044Y110647D02*
X229577Y110113D01*
Y109047D01*
X229044Y108514D01*
X226911D01*
X226378Y109047D01*
Y110113D01*
X226911Y110647D01*
X226378Y111713D02*
Y112779D01*
Y112246D01*
X229577D01*
X229044Y111713D01*
X102476Y358760D02*
X105675D01*
Y357160D01*
X105141Y356627D01*
X103009D01*
X102476Y357160D01*
Y358760D01*
X105675Y355561D02*
Y354495D01*
Y355028D01*
X102476D01*
X103009Y355561D01*
X105675Y352895D02*
Y351829D01*
Y352362D01*
X102476D01*
X103009Y352895D01*
X102116Y378765D02*
X105315D01*
Y377166D01*
X104782Y376633D01*
X102649D01*
X102116Y377166D01*
Y378765D01*
X105315Y375566D02*
Y374500D01*
Y375033D01*
X102116D01*
X102649Y375566D01*
Y372901D02*
X102116Y372367D01*
Y371301D01*
X102649Y370768D01*
X104782D01*
X105315Y371301D01*
Y372367D01*
X104782Y372901D01*
X102649D01*
X238189Y286664D02*
Y283465D01*
X236590D01*
X236056Y283998D01*
Y286130D01*
X236590Y286664D01*
X238189D01*
X234990Y283998D02*
X234457Y283465D01*
X233390D01*
X232857Y283998D01*
Y286130D01*
X233390Y286664D01*
X234457D01*
X234990Y286130D01*
Y285597D01*
X234457Y285064D01*
X232857D01*
X215354Y286270D02*
Y283071D01*
X213755D01*
X213222Y283604D01*
Y285737D01*
X213755Y286270D01*
X215354D01*
X212155Y285737D02*
X211622Y286270D01*
X210556D01*
X210023Y285737D01*
Y285204D01*
X210556Y284670D01*
X210023Y284137D01*
Y283604D01*
X210556Y283071D01*
X211622D01*
X212155Y283604D01*
Y284137D01*
X211622Y284670D01*
X212155Y285204D01*
Y285737D01*
X211622Y284670D02*
X210556D01*
X26772Y114223D02*
Y111024D01*
X25172D01*
X24639Y111557D01*
Y113689D01*
X25172Y114223D01*
X26772D01*
X23573D02*
X21440D01*
Y113689D01*
X23573Y111557D01*
Y111024D01*
X88583Y26821D02*
Y23622D01*
X86983D01*
X86450Y24155D01*
Y26288D01*
X86983Y26821D01*
X88583D01*
X83251D02*
X84317Y26288D01*
X85384Y25221D01*
Y24155D01*
X84851Y23622D01*
X83784D01*
X83251Y24155D01*
Y24688D01*
X83784Y25221D01*
X85384D01*
X27559Y93750D02*
Y90551D01*
X25960D01*
X25426Y91084D01*
Y93217D01*
X25960Y93750D01*
X27559D01*
X22227D02*
X24360D01*
Y92151D01*
X23294Y92684D01*
X22761D01*
X22227Y92151D01*
Y91084D01*
X22761Y90551D01*
X23827D01*
X24360Y91084D01*
X241929Y133120D02*
Y129921D01*
X240330D01*
X239796Y130454D01*
Y132587D01*
X240330Y133120D01*
X241929D01*
X237131Y129921D02*
Y133120D01*
X238730Y131521D01*
X236597D01*
X27559Y69144D02*
Y65945D01*
X25960D01*
X25426Y66478D01*
Y68611D01*
X25960Y69144D01*
X27559D01*
X24360Y68611D02*
X23827Y69144D01*
X22761D01*
X22227Y68611D01*
Y68077D01*
X22761Y67544D01*
X23294D01*
X22761D01*
X22227Y67011D01*
Y66478D01*
X22761Y65945D01*
X23827D01*
X24360Y66478D01*
X237451Y72047D02*
X234252D01*
Y73647D01*
X234785Y74180D01*
X236918D01*
X237451Y73647D01*
Y72047D01*
X234252Y77379D02*
Y75246D01*
X236385Y77379D01*
X236918D01*
X237451Y76846D01*
Y75779D01*
X236918Y75246D01*
X26575Y45522D02*
Y42323D01*
X24975D01*
X24442Y42856D01*
Y44989D01*
X24975Y45522D01*
X26575D01*
X23376Y42323D02*
X22309D01*
X22843D01*
Y45522D01*
X23376Y44989D01*
X227198Y351091D02*
X227731Y351624D01*
X228798D01*
X229331Y351091D01*
Y348958D01*
X228798Y348425D01*
X227731D01*
X227198Y348958D01*
X224532Y348425D02*
Y351624D01*
X226132Y350025D01*
X223999D01*
X222933Y351091D02*
X222400Y351624D01*
X221333D01*
X220800Y351091D01*
Y350558D01*
X221333Y350025D01*
X220800Y349492D01*
Y348958D01*
X221333Y348425D01*
X222400D01*
X222933Y348958D01*
Y349492D01*
X222400Y350025D01*
X222933Y350558D01*
Y351091D01*
X222400Y350025D02*
X221333D01*
X264600Y381603D02*
X265133Y382136D01*
X266199D01*
X266732Y381603D01*
Y379470D01*
X266199Y378937D01*
X265133D01*
X264600Y379470D01*
X261934Y378937D02*
Y382136D01*
X263533Y380537D01*
X261401D01*
X260334Y382136D02*
X258202D01*
Y381603D01*
X260334Y379470D01*
Y378937D01*
X278773Y381603D02*
X279306Y382136D01*
X280372D01*
X280906Y381603D01*
Y379470D01*
X280372Y378937D01*
X279306D01*
X278773Y379470D01*
X276107Y378937D02*
Y382136D01*
X277707Y380537D01*
X275574D01*
X272375Y382136D02*
X273441Y381603D01*
X274508Y380537D01*
Y379470D01*
X273974Y378937D01*
X272908D01*
X272375Y379470D01*
Y380003D01*
X272908Y380537D01*
X274508D01*
X297080Y351091D02*
X297613Y351624D01*
X298679D01*
X299213Y351091D01*
Y348958D01*
X298679Y348425D01*
X297613D01*
X297080Y348958D01*
X294414Y348425D02*
Y351624D01*
X296014Y350025D01*
X293881D01*
X290682Y351624D02*
X292815D01*
Y350025D01*
X291748Y350558D01*
X291215D01*
X290682Y350025D01*
Y348958D01*
X291215Y348425D01*
X292282D01*
X292815Y348958D01*
X370230Y391445D02*
X370763Y391979D01*
X371829D01*
X372362Y391445D01*
Y389313D01*
X371829Y388779D01*
X370763D01*
X370230Y389313D01*
X367564Y388779D02*
Y391979D01*
X369163Y390379D01*
X367031D01*
X364365Y388779D02*
Y391979D01*
X365964Y390379D01*
X363832D01*
X130741Y349123D02*
X131274Y349656D01*
X132341D01*
X132874Y349123D01*
Y346990D01*
X132341Y346457D01*
X131274D01*
X130741Y346990D01*
X128076Y346457D02*
Y349656D01*
X129675Y348056D01*
X127542D01*
X126476Y349123D02*
X125943Y349656D01*
X124877D01*
X124343Y349123D01*
Y348589D01*
X124877Y348056D01*
X125410D01*
X124877D01*
X124343Y347523D01*
Y346990D01*
X124877Y346457D01*
X125943D01*
X126476Y346990D01*
X364009Y339280D02*
X364542Y339813D01*
X365609D01*
X366142Y339280D01*
Y337147D01*
X365609Y336614D01*
X364542D01*
X364009Y337147D01*
X361343Y336614D02*
Y339813D01*
X362943Y338214D01*
X360810D01*
X359744Y336614D02*
X358678D01*
X359211D01*
Y339813D01*
X359744Y339280D01*
X66839Y317881D02*
X67372Y317348D01*
Y316281D01*
X66839Y315748D01*
X64706D01*
X64173Y316281D01*
Y317348D01*
X64706Y317881D01*
X64173Y320547D02*
X67372D01*
X65773Y318947D01*
Y321080D01*
X66839Y322146D02*
X67372Y322679D01*
Y323745D01*
X66839Y324279D01*
X64706D01*
X64173Y323745D01*
Y322679D01*
X64706Y322146D01*
X66839D01*
Y289928D02*
X67372Y289395D01*
Y288328D01*
X66839Y287795D01*
X64706D01*
X64173Y288328D01*
Y289395D01*
X64706Y289928D01*
X66839Y290994D02*
X67372Y291527D01*
Y292594D01*
X66839Y293127D01*
X66306D01*
X65773Y292594D01*
Y292061D01*
Y292594D01*
X65240Y293127D01*
X64706D01*
X64173Y292594D01*
Y291527D01*
X64706Y290994D01*
Y294193D02*
X64173Y294726D01*
Y295793D01*
X64706Y296326D01*
X66839D01*
X67372Y295793D01*
Y294726D01*
X66839Y294193D01*
X66306D01*
X65773Y294726D01*
Y296326D01*
X66874Y262763D02*
X67408Y262229D01*
Y261163D01*
X66874Y260630D01*
X64742D01*
X64209Y261163D01*
Y262229D01*
X64742Y262763D01*
X66874Y263829D02*
X67408Y264362D01*
Y265428D01*
X66874Y265962D01*
X66341D01*
X65808Y265428D01*
Y264895D01*
Y265428D01*
X65275Y265962D01*
X64742D01*
X64209Y265428D01*
Y264362D01*
X64742Y263829D01*
X66874Y267028D02*
X67408Y267561D01*
Y268627D01*
X66874Y269161D01*
X66341D01*
X65808Y268627D01*
X65275Y269161D01*
X64742D01*
X64209Y268627D01*
Y267561D01*
X64742Y267028D01*
X65275D01*
X65808Y267561D01*
X66341Y267028D01*
X66874D01*
X65808Y267561D02*
Y268627D01*
X34875Y320776D02*
X35408Y321309D01*
X36475D01*
X37008Y320776D01*
Y318643D01*
X36475Y318110D01*
X35408D01*
X34875Y318643D01*
X33809Y320776D02*
X33276Y321309D01*
X32209D01*
X31676Y320776D01*
Y320243D01*
X32209Y319710D01*
X32743D01*
X32209D01*
X31676Y319177D01*
Y318643D01*
X32209Y318110D01*
X33276D01*
X33809Y318643D01*
X30610Y321309D02*
X28477D01*
Y320776D01*
X30610Y318643D01*
Y318110D01*
X37312Y292290D02*
X37845Y291757D01*
Y290691D01*
X37312Y290158D01*
X35179D01*
X34646Y290691D01*
Y291757D01*
X35179Y292290D01*
X37312Y293356D02*
X37845Y293890D01*
Y294956D01*
X37312Y295489D01*
X36778D01*
X36245Y294956D01*
Y294423D01*
Y294956D01*
X35712Y295489D01*
X35179D01*
X34646Y294956D01*
Y293890D01*
X35179Y293356D01*
X37845Y298688D02*
X37312Y297622D01*
X36245Y296555D01*
X35179D01*
X34646Y297089D01*
Y298155D01*
X35179Y298688D01*
X35712D01*
X36245Y298155D01*
Y296555D01*
X37705Y261975D02*
X38238Y261442D01*
Y260376D01*
X37705Y259842D01*
X35572D01*
X35039Y260376D01*
Y261442D01*
X35572Y261975D01*
X37705Y263041D02*
X38238Y263575D01*
Y264641D01*
X37705Y265174D01*
X37172D01*
X36639Y264641D01*
Y264108D01*
Y264641D01*
X36106Y265174D01*
X35572D01*
X35039Y264641D01*
Y263575D01*
X35572Y263041D01*
X38238Y268373D02*
Y266241D01*
X36639D01*
X37172Y267307D01*
Y267840D01*
X36639Y268373D01*
X35572D01*
X35039Y267840D01*
Y266774D01*
X35572Y266241D01*
X66839Y304101D02*
X67372Y303568D01*
Y302502D01*
X66839Y301969D01*
X64706D01*
X64173Y302502D01*
Y303568D01*
X64706Y304101D01*
X66839Y305168D02*
X67372Y305701D01*
Y306767D01*
X66839Y307300D01*
X66306D01*
X65773Y306767D01*
Y306234D01*
Y306767D01*
X65240Y307300D01*
X64706D01*
X64173Y306767D01*
Y305701D01*
X64706Y305168D01*
X64173Y309966D02*
X67372D01*
X65773Y308366D01*
Y310499D01*
X66874Y276542D02*
X67408Y276009D01*
Y274943D01*
X66874Y274410D01*
X64742D01*
X64209Y274943D01*
Y276009D01*
X64742Y276542D01*
X66874Y277608D02*
X67408Y278142D01*
Y279208D01*
X66874Y279741D01*
X66341D01*
X65808Y279208D01*
Y278675D01*
Y279208D01*
X65275Y279741D01*
X64742D01*
X64209Y279208D01*
Y278142D01*
X64742Y277608D01*
X66874Y280807D02*
X67408Y281341D01*
Y282407D01*
X66874Y282940D01*
X66341D01*
X65808Y282407D01*
Y281874D01*
Y282407D01*
X65275Y282940D01*
X64742D01*
X64209Y282407D01*
Y281341D01*
X64742Y280807D01*
X66874Y248983D02*
X67408Y248450D01*
Y247384D01*
X66874Y246850D01*
X64742D01*
X64209Y247384D01*
Y248450D01*
X64742Y248983D01*
X66874Y250049D02*
X67408Y250583D01*
Y251649D01*
X66874Y252182D01*
X66341D01*
X65808Y251649D01*
Y251116D01*
Y251649D01*
X65275Y252182D01*
X64742D01*
X64209Y251649D01*
Y250583D01*
X64742Y250049D01*
X64209Y255381D02*
Y253248D01*
X66341Y255381D01*
X66874D01*
X67408Y254848D01*
Y253782D01*
X66874Y253248D01*
X37705Y307645D02*
X38238Y307111D01*
Y306045D01*
X37705Y305512D01*
X35572D01*
X35039Y306045D01*
Y307111D01*
X35572Y307645D01*
X37705Y308711D02*
X38238Y309244D01*
Y310310D01*
X37705Y310843D01*
X37172D01*
X36639Y310310D01*
Y309777D01*
Y310310D01*
X36106Y310843D01*
X35572D01*
X35039Y310310D01*
Y309244D01*
X35572Y308711D01*
X35039Y311910D02*
Y312976D01*
Y312443D01*
X38238D01*
X37705Y311910D01*
X37312Y277329D02*
X37845Y276796D01*
Y275730D01*
X37312Y275197D01*
X35179D01*
X34646Y275730D01*
Y276796D01*
X35179Y277329D01*
X37312Y278396D02*
X37845Y278929D01*
Y279995D01*
X37312Y280528D01*
X36778D01*
X36245Y279995D01*
Y279462D01*
Y279995D01*
X35712Y280528D01*
X35179D01*
X34646Y279995D01*
Y278929D01*
X35179Y278396D01*
X37312Y281595D02*
X37845Y282128D01*
Y283194D01*
X37312Y283727D01*
X35179D01*
X34646Y283194D01*
Y282128D01*
X35179Y281595D01*
X37312D01*
X36450Y251878D02*
X36983Y252412D01*
X38050D01*
X38583Y251878D01*
Y249746D01*
X38050Y249213D01*
X36983D01*
X36450Y249746D01*
X33251Y249213D02*
X35384D01*
X33251Y251345D01*
Y251878D01*
X33784Y252412D01*
X34850D01*
X35384Y251878D01*
X32185Y249746D02*
X31652Y249213D01*
X30585D01*
X30052Y249746D01*
Y251878D01*
X30585Y252412D01*
X31652D01*
X32185Y251878D01*
Y251345D01*
X31652Y250812D01*
X30052D01*
X120366Y269521D02*
X119833Y270054D01*
Y271120D01*
X120366Y271654D01*
X122498D01*
X123031Y271120D01*
Y270054D01*
X122498Y269521D01*
X123031Y266322D02*
Y268455D01*
X120899Y266322D01*
X120366D01*
X119833Y266855D01*
Y267921D01*
X120366Y268455D01*
Y265256D02*
X119833Y264722D01*
Y263656D01*
X120366Y263123D01*
X120899D01*
X121432Y263656D01*
X121965Y263123D01*
X122498D01*
X123031Y263656D01*
Y264722D01*
X122498Y265256D01*
X121965D01*
X121432Y264722D01*
X120899Y265256D01*
X120366D01*
X121432Y264722D02*
Y263656D01*
X99696Y269521D02*
X99163Y270054D01*
Y271120D01*
X99696Y271654D01*
X101829D01*
X102362Y271120D01*
Y270054D01*
X101829Y269521D01*
X102362Y266322D02*
Y268455D01*
X100230Y266322D01*
X99696D01*
X99163Y266855D01*
Y267921D01*
X99696Y268455D01*
X99163Y265256D02*
Y263123D01*
X99696D01*
X101829Y265256D01*
X102362D01*
X141035Y269521D02*
X140502Y270054D01*
Y271120D01*
X141035Y271654D01*
X143168D01*
X143701Y271120D01*
Y270054D01*
X143168Y269521D01*
X143701Y266322D02*
Y268455D01*
X141568Y266322D01*
X141035D01*
X140502Y266855D01*
Y267921D01*
X141035Y268455D01*
X140502Y263123D02*
X141035Y264189D01*
X142101Y265256D01*
X143168D01*
X143701Y264722D01*
Y263656D01*
X143168Y263123D01*
X142634D01*
X142101Y263656D01*
Y265256D01*
X249516Y303589D02*
X250049Y303056D01*
Y301990D01*
X249516Y301457D01*
X247384D01*
X246850Y301990D01*
Y303056D01*
X247384Y303589D01*
X246850Y306788D02*
Y304656D01*
X248983Y306788D01*
X249516D01*
X250049Y306255D01*
Y305189D01*
X249516Y304656D01*
X250049Y309987D02*
Y307855D01*
X248450D01*
X248983Y308921D01*
Y309454D01*
X248450Y309987D01*
X247384D01*
X246850Y309454D01*
Y308388D01*
X247384Y307855D01*
X229044Y309869D02*
X229577Y309336D01*
Y308269D01*
X229044Y307736D01*
X226911D01*
X226378Y308269D01*
Y309336D01*
X226911Y309869D01*
X226378Y313068D02*
Y310935D01*
X228511Y313068D01*
X229044D01*
X229577Y312535D01*
Y311468D01*
X229044Y310935D01*
X226378Y315734D02*
X229577D01*
X227977Y314134D01*
Y316267D01*
X230544Y323532D02*
X231078Y324065D01*
X232144D01*
X232677Y323532D01*
Y321399D01*
X232144Y320866D01*
X231078D01*
X230544Y321399D01*
X227346Y320866D02*
X229478D01*
X227346Y322999D01*
Y323532D01*
X227879Y324065D01*
X228945D01*
X229478Y323532D01*
X226279D02*
X225746Y324065D01*
X224680D01*
X224147Y323532D01*
Y322999D01*
X224680Y322466D01*
X225213D01*
X224680D01*
X224147Y321933D01*
Y321399D01*
X224680Y320866D01*
X225746D01*
X226279Y321399D01*
X240641Y285269D02*
X240108Y285802D01*
Y286868D01*
X240641Y287402D01*
X242774D01*
X243307Y286868D01*
Y285802D01*
X242774Y285269D01*
X243307Y282070D02*
Y284203D01*
X241174Y282070D01*
X240641D01*
X240108Y282603D01*
Y283669D01*
X240641Y284203D01*
X243307Y278871D02*
Y281004D01*
X241174Y278871D01*
X240641D01*
X240108Y279404D01*
Y280470D01*
X240641Y281004D01*
X293791Y286450D02*
X293258Y286983D01*
Y288050D01*
X293791Y288583D01*
X295923D01*
X296457Y288050D01*
Y286983D01*
X295923Y286450D01*
X296457Y283251D02*
Y285384D01*
X294324Y283251D01*
X293791D01*
X293258Y283784D01*
Y284851D01*
X293791Y285384D01*
X296457Y282185D02*
Y281118D01*
Y281652D01*
X293258D01*
X293791Y282185D01*
X244915Y248729D02*
X245448Y249262D01*
X246514D01*
X247047Y248729D01*
Y246596D01*
X246514Y246063D01*
X245448D01*
X244915Y246596D01*
X241716Y246063D02*
X243848D01*
X241716Y248196D01*
Y248729D01*
X242249Y249262D01*
X243315D01*
X243848Y248729D01*
X240649D02*
X240116Y249262D01*
X239050D01*
X238517Y248729D01*
Y246596D01*
X239050Y246063D01*
X240116D01*
X240649Y246596D01*
Y248729D01*
X69185Y26411D02*
X68651Y26944D01*
Y28010D01*
X69185Y28543D01*
X71317D01*
X71850Y28010D01*
Y26944D01*
X71317Y26411D01*
X71850Y25344D02*
Y24278D01*
Y24811D01*
X68651D01*
X69185Y25344D01*
X71317Y22679D02*
X71850Y22145D01*
Y21079D01*
X71317Y20546D01*
X69185D01*
X68651Y21079D01*
Y22145D01*
X69185Y22679D01*
X69718D01*
X70251Y22145D01*
Y20546D01*
X89403Y169004D02*
X89936Y169538D01*
X91002D01*
X91535Y169004D01*
Y166872D01*
X91002Y166339D01*
X89936D01*
X89403Y166872D01*
X88336Y166339D02*
X87270D01*
X87803D01*
Y169538D01*
X88336Y169004D01*
X85671D02*
X85137Y169538D01*
X84071D01*
X83538Y169004D01*
Y168471D01*
X84071Y167938D01*
X83538Y167405D01*
Y166872D01*
X84071Y166339D01*
X85137D01*
X85671Y166872D01*
Y167405D01*
X85137Y167938D01*
X85671Y168471D01*
Y169004D01*
X85137Y167938D02*
X84071D01*
X119915Y169004D02*
X120448Y169538D01*
X121514D01*
X122047Y169004D01*
Y166872D01*
X121514Y166339D01*
X120448D01*
X119915Y166872D01*
X118848Y166339D02*
X117782D01*
X118315D01*
Y169538D01*
X118848Y169004D01*
X116182Y169538D02*
X114050D01*
Y169004D01*
X116182Y166872D01*
Y166339D01*
X32316Y32193D02*
X32849Y32726D01*
X33916D01*
X34449Y32193D01*
Y30061D01*
X33916Y29528D01*
X32849D01*
X32316Y30061D01*
X31250Y29528D02*
X30184D01*
X30717D01*
Y32726D01*
X31250Y32193D01*
X26451Y32726D02*
X27518Y32193D01*
X28584Y31127D01*
Y30061D01*
X28051Y29528D01*
X26985D01*
X26451Y30061D01*
Y30594D01*
X26985Y31127D01*
X28584D01*
X318734Y126681D02*
X319267Y127215D01*
X320333D01*
X320866Y126681D01*
Y124549D01*
X320333Y124016D01*
X319267D01*
X318734Y124549D01*
X317667Y124016D02*
X316601D01*
X317134D01*
Y127215D01*
X317667Y126681D01*
X312869Y127215D02*
X315001D01*
Y125615D01*
X313935Y126148D01*
X313402D01*
X312869Y125615D01*
Y124549D01*
X313402Y124016D01*
X314468D01*
X315001Y124549D01*
X119915Y204437D02*
X120448Y204971D01*
X121514D01*
X122047Y204437D01*
Y202305D01*
X121514Y201772D01*
X120448D01*
X119915Y202305D01*
X118848Y201772D02*
X117782D01*
X118315D01*
Y204971D01*
X118848Y204437D01*
X114583Y201772D02*
Y204971D01*
X116182Y203371D01*
X114050D01*
X88419Y204437D02*
X88952Y204971D01*
X90018D01*
X90551Y204437D01*
Y202305D01*
X90018Y201772D01*
X88952D01*
X88419Y202305D01*
X87352Y201772D02*
X86286D01*
X86819D01*
Y204971D01*
X87352Y204437D01*
X84686D02*
X84153Y204971D01*
X83087D01*
X82554Y204437D01*
Y203904D01*
X83087Y203371D01*
X83620D01*
X83087D01*
X82554Y202838D01*
Y202305D01*
X83087Y201772D01*
X84153D01*
X84686Y202305D01*
X302986Y102075D02*
X303519Y102608D01*
X304585D01*
X305118Y102075D01*
Y99943D01*
X304585Y99410D01*
X303519D01*
X302986Y99943D01*
X301919Y99410D02*
X300853D01*
X301386D01*
Y102608D01*
X301919Y102075D01*
X297121Y99410D02*
X299253D01*
X297121Y101542D01*
Y102075D01*
X297654Y102608D01*
X298720D01*
X299253Y102075D01*
X235933Y44554D02*
X236467Y44021D01*
Y42954D01*
X235933Y42421D01*
X233801D01*
X233268Y42954D01*
Y44021D01*
X233801Y44554D01*
X233268Y45620D02*
Y46687D01*
Y46153D01*
X236467D01*
X235933Y45620D01*
X233268Y48286D02*
Y49352D01*
Y48819D01*
X236467D01*
X235933Y48286D01*
X177986Y233965D02*
X178519Y234498D01*
X179585D01*
X180118Y233965D01*
Y231832D01*
X179585Y231299D01*
X178519D01*
X177986Y231832D01*
X176919Y231299D02*
X175853D01*
X176386D01*
Y234498D01*
X176919Y233965D01*
X174253D02*
X173720Y234498D01*
X172654D01*
X172121Y233965D01*
Y231832D01*
X172654Y231299D01*
X173720D01*
X174253Y231832D01*
Y233965D01*
X145505D02*
X146038Y234498D01*
X147105D01*
X147638Y233965D01*
Y231832D01*
X147105Y231299D01*
X146038D01*
X145505Y231832D01*
X144439D02*
X143906Y231299D01*
X142839D01*
X142306Y231832D01*
Y233965D01*
X142839Y234498D01*
X143906D01*
X144439Y233965D01*
Y233432D01*
X143906Y232899D01*
X142306D01*
X93340Y32193D02*
X93873Y32726D01*
X94939D01*
X95472Y32193D01*
Y30061D01*
X94939Y29528D01*
X93873D01*
X93340Y30061D01*
X92273Y32193D02*
X91740Y32726D01*
X90674D01*
X90141Y32193D01*
Y31660D01*
X90674Y31127D01*
X90141Y30594D01*
Y30061D01*
X90674Y29528D01*
X91740D01*
X92273Y30061D01*
Y30594D01*
X91740Y31127D01*
X92273Y31660D01*
Y32193D01*
X91740Y31127D02*
X90674D01*
X389600Y139477D02*
X390133Y140010D01*
X391199D01*
X391732Y139477D01*
Y137344D01*
X391199Y136811D01*
X390133D01*
X389600Y137344D01*
X388533Y140010D02*
X386401D01*
Y139477D01*
X388533Y137344D01*
Y136811D01*
X388615Y118807D02*
X389148Y119341D01*
X390215D01*
X390748Y118807D01*
Y116675D01*
X390215Y116142D01*
X389148D01*
X388615Y116675D01*
X385416Y119341D02*
X386483Y118807D01*
X387549Y117741D01*
Y116675D01*
X387016Y116142D01*
X385950D01*
X385416Y116675D01*
Y117208D01*
X385950Y117741D01*
X387549D01*
X365978Y232981D02*
X366511Y233514D01*
X367577D01*
X368110Y232981D01*
Y230848D01*
X367577Y230315D01*
X366511D01*
X365978Y230848D01*
X362779Y233514D02*
X364911D01*
Y231914D01*
X363845Y232448D01*
X363312D01*
X362779Y231914D01*
Y230848D01*
X363312Y230315D01*
X364378D01*
X364911Y230848D01*
X286130Y4298D02*
X286664Y3765D01*
Y2699D01*
X286130Y2165D01*
X283998D01*
X283465Y2699D01*
Y3765D01*
X283998Y4298D01*
X283465Y6964D02*
X286664D01*
X285064Y5364D01*
Y7497D01*
X276411Y31209D02*
X276944Y31742D01*
X278010D01*
X278543Y31209D01*
Y29076D01*
X278010Y28543D01*
X276944D01*
X276411Y29076D01*
X275344Y31209D02*
X274811Y31742D01*
X273745D01*
X273212Y31209D01*
Y30676D01*
X273745Y30143D01*
X274278D01*
X273745D01*
X273212Y29610D01*
Y29076D01*
X273745Y28543D01*
X274811D01*
X275344Y29076D01*
X306923Y57784D02*
X307456Y58317D01*
X308522D01*
X309055Y57784D01*
Y55651D01*
X308522Y55118D01*
X307456D01*
X306923Y55651D01*
X303724Y55118D02*
X305856D01*
X303724Y57251D01*
Y57784D01*
X304257Y58317D01*
X305323D01*
X305856Y57784D01*
X301017Y66642D02*
X301550Y67175D01*
X302616D01*
X303150Y66642D01*
Y64509D01*
X302616Y63976D01*
X301550D01*
X301017Y64509D01*
X299951Y63976D02*
X298884D01*
X299417D01*
Y67175D01*
X299951Y66642D01*
X349656Y139764D02*
X346457D01*
Y141363D01*
X346990Y141896D01*
X349123D01*
X349656Y141363D01*
Y139764D01*
X346457Y142963D02*
Y144029D01*
Y143496D01*
X349656D01*
X349123Y142963D01*
X346457Y147761D02*
Y145628D01*
X348589Y147761D01*
X349123D01*
X349656Y147228D01*
Y146162D01*
X349123Y145628D01*
X13041Y187172D02*
Y186106D01*
Y186639D01*
X10376D01*
X9843Y186106D01*
Y185573D01*
X10376Y185039D01*
X12508Y188238D02*
X13041Y188771D01*
Y189838D01*
X12508Y190371D01*
X11975D01*
X11442Y189838D01*
Y189305D01*
Y189838D01*
X10909Y190371D01*
X10376D01*
X9843Y189838D01*
Y188771D01*
X10376Y188238D01*
X9843Y191437D02*
Y192504D01*
Y191971D01*
X13041D01*
X12508Y191437D01*
X13041Y149770D02*
Y148704D01*
Y149237D01*
X10376D01*
X9843Y148704D01*
Y148171D01*
X10376Y147638D01*
X12508Y150837D02*
X13041Y151370D01*
Y152436D01*
X12508Y152969D01*
X11975D01*
X11442Y152436D01*
Y151903D01*
Y152436D01*
X10909Y152969D01*
X10376D01*
X9843Y152436D01*
Y151370D01*
X10376Y150837D01*
X9843Y156168D02*
Y154036D01*
X11975Y156168D01*
X12508D01*
X13041Y155635D01*
Y154569D01*
X12508Y154036D01*
X179380Y265912D02*
Y264846D01*
Y265379D01*
X176714D01*
X176181Y264846D01*
Y264313D01*
X176714Y263779D01*
X178847Y266979D02*
X179380Y267512D01*
Y268578D01*
X178847Y269111D01*
X178314D01*
X177781Y268578D01*
Y268045D01*
Y268578D01*
X177247Y269111D01*
X176714D01*
X176181Y268578D01*
Y267512D01*
X176714Y266979D01*
X178847Y270178D02*
X179380Y270711D01*
Y271777D01*
X178847Y272310D01*
X178314D01*
X177781Y271777D01*
Y271244D01*
Y271777D01*
X177247Y272310D01*
X176714D01*
X176181Y271777D01*
Y270711D01*
X176714Y270178D01*
X380659Y260072D02*
Y261138D01*
Y260605D01*
X383325D01*
X383858Y261138D01*
Y261672D01*
X383325Y262205D01*
X381192Y259006D02*
X380659Y258473D01*
Y257406D01*
X381192Y256873D01*
X381726D01*
X382259Y257406D01*
Y257939D01*
Y257406D01*
X382792Y256873D01*
X383325D01*
X383858Y257406D01*
Y258473D01*
X383325Y259006D01*
X383858Y254207D02*
X380659D01*
X382259Y255807D01*
Y253674D01*
X380659Y294127D02*
Y295194D01*
Y294660D01*
X383325D01*
X383858Y295194D01*
Y295727D01*
X383325Y296260D01*
X381192Y293061D02*
X380659Y292528D01*
Y291461D01*
X381192Y290928D01*
X381726D01*
X382259Y291461D01*
Y291995D01*
Y291461D01*
X382792Y290928D01*
X383325D01*
X383858Y291461D01*
Y292528D01*
X383325Y293061D01*
X380659Y287729D02*
Y289862D01*
X382259D01*
X381726Y288796D01*
Y288262D01*
X382259Y287729D01*
X383325D01*
X383858Y288262D01*
Y289329D01*
X383325Y289862D01*
D136*
X130741Y380619D02*
X131274Y381152D01*
X132341D01*
X132874Y380619D01*
Y378486D01*
X132341Y377953D01*
X131274D01*
X130741Y378486D01*
X128076Y377953D02*
Y381152D01*
X129675Y379552D01*
X127542D01*
X124343Y377953D02*
X126476D01*
X124343Y380085D01*
Y380619D01*
X124877Y381152D01*
X125943D01*
X126476Y380619D01*
M02*
