%TF.GenerationSoftware,KiCad,Pcbnew,8.0.9*%
%TF.CreationDate,2025-06-10T00:45:35+02:00*%
%TF.ProjectId,Carte_Mere_PAMI_2025,43617274-655f-44d6-9572-655f50414d49,rev?*%
%TF.SameCoordinates,Original*%
%TF.FileFunction,Profile,NP*%
%FSLAX46Y46*%
G04 Gerber Fmt 4.6, Leading zero omitted, Abs format (unit mm)*
G04 Created by KiCad (PCBNEW 8.0.9) date 2025-06-10 00:45:35*
%MOMM*%
%LPD*%
G01*
G04 APERTURE LIST*
%TA.AperFunction,Profile*%
%ADD10C,0.100000*%
%TD*%
G04 APERTURE END LIST*
D10*
X-46000000Y34000000D02*
X-28000000Y34000000D01*
X28000000Y34000000D02*
G75*
G02*
X26500000Y35500000I0J1500000D01*
G01*
X-21921562Y-460323D02*
G75*
G02*
X-20900000Y-1I1115962J-1112877D01*
G01*
X-50000000Y3000000D02*
X-50000000Y30000000D01*
X-21922734Y-459154D02*
G75*
G02*
X-23100000Y-1000001I-1153466J959054D01*
G01*
X50000000Y3000000D02*
X50000000Y30000000D01*
X46000000Y34000000D02*
X28000000Y34000000D01*
X-26500000Y72000000D02*
G75*
G02*
X-22500000Y76000000I4000000J0D01*
G01*
X22500000Y76000000D02*
X-22500000Y76000000D01*
X-23100000Y-1000000D02*
X-46000000Y-1000000D01*
X22500000Y76000000D02*
G75*
G02*
X26500000Y72000000I0J-4000000D01*
G01*
X-46000000Y-1000000D02*
G75*
G02*
X-50000000Y3000000I0J4000000D01*
G01*
X20900000Y-1D02*
G75*
G02*
X21921422Y-460234I-94500J-1573299D01*
G01*
X23000000Y-1000000D02*
X46000000Y-1000000D01*
X23000000Y-1000000D02*
G75*
G02*
X21921360Y-460286I76200J1500000D01*
G01*
X50000000Y3000000D02*
G75*
G02*
X46000000Y-1000000I-4000000J0D01*
G01*
X-50000000Y30000000D02*
G75*
G02*
X-46000000Y34000000I4000000J0D01*
G01*
X-26500000Y72000000D02*
X-26500000Y35500000D01*
X46000000Y34000000D02*
G75*
G02*
X50000000Y30000000I0J-4000000D01*
G01*
X-26500000Y35500000D02*
G75*
G02*
X-28000000Y34000000I-1500000J0D01*
G01*
X20900000Y0D02*
X-20900000Y0D01*
X26500000Y72000000D02*
X26500000Y35500000D01*
M02*
