%TF.GenerationSoftware,KiCad,Pcbnew,8.0.9*%
%TF.CreationDate,2025-06-10T00:45:35+02:00*%
%TF.ProjectId,Carte_Mere_PAMI_2025,43617274-655f-44d6-9572-655f50414d49,rev?*%
%TF.SameCoordinates,Original*%
%TF.FileFunction,Soldermask,Top*%
%TF.FilePolarity,Negative*%
%FSLAX46Y46*%
G04 Gerber Fmt 4.6, Leading zero omitted, Abs format (unit mm)*
G04 Created by KiCad (PCBNEW 8.0.9) date 2025-06-10 00:45:35*
%MOMM*%
%LPD*%
G01*
G04 APERTURE LIST*
G04 Aperture macros list*
%AMRoundRect*
0 Rectangle with rounded corners*
0 $1 Rounding radius*
0 $2 $3 $4 $5 $6 $7 $8 $9 X,Y pos of 4 corners*
0 Add a 4 corners polygon primitive as box body*
4,1,4,$2,$3,$4,$5,$6,$7,$8,$9,$2,$3,0*
0 Add four circle primitives for the rounded corners*
1,1,$1+$1,$2,$3*
1,1,$1+$1,$4,$5*
1,1,$1+$1,$6,$7*
1,1,$1+$1,$8,$9*
0 Add four rect primitives between the rounded corners*
20,1,$1+$1,$2,$3,$4,$5,0*
20,1,$1+$1,$4,$5,$6,$7,0*
20,1,$1+$1,$6,$7,$8,$9,0*
20,1,$1+$1,$8,$9,$2,$3,0*%
%AMFreePoly0*
4,1,19,0.500000,-0.750000,0.000000,-0.750000,0.000000,-0.744911,-0.071157,-0.744911,-0.207708,-0.704816,-0.327430,-0.627875,-0.420627,-0.520320,-0.479746,-0.390866,-0.500000,-0.250000,-0.500000,0.250000,-0.479746,0.390866,-0.420627,0.520320,-0.327430,0.627875,-0.207708,0.704816,-0.071157,0.744911,0.000000,0.744911,0.000000,0.750000,0.500000,0.750000,0.500000,-0.750000,0.500000,-0.750000,
$1*%
%AMFreePoly1*
4,1,19,0.000000,0.744911,0.071157,0.744911,0.207708,0.704816,0.327430,0.627875,0.420627,0.520320,0.479746,0.390866,0.500000,0.250000,0.500000,-0.250000,0.479746,-0.390866,0.420627,-0.520320,0.327430,-0.627875,0.207708,-0.704816,0.071157,-0.744911,0.000000,-0.744911,0.000000,-0.750000,-0.500000,-0.750000,-0.500000,0.750000,0.000000,0.750000,0.000000,0.744911,0.000000,0.744911,
$1*%
G04 Aperture macros list end*
%ADD10C,0.200000*%
%ADD11RoundRect,0.500000X-0.500000X-0.500000X0.500000X-0.500000X0.500000X0.500000X-0.500000X0.500000X0*%
%ADD12RoundRect,0.500000X0.500000X-0.500000X0.500000X0.500000X-0.500000X0.500000X-0.500000X-0.500000X0*%
%ADD13R,1.700000X1.700000*%
%ADD14O,1.700000X1.700000*%
%ADD15C,6.400000*%
%ADD16FreePoly0,90.000000*%
%ADD17FreePoly1,90.000000*%
%ADD18R,0.500000X2.500000*%
%ADD19R,2.000000X2.500000*%
%ADD20RoundRect,0.237500X-0.237500X0.300000X-0.237500X-0.300000X0.237500X-0.300000X0.237500X0.300000X0*%
%ADD21RoundRect,0.237500X0.300000X0.237500X-0.300000X0.237500X-0.300000X-0.237500X0.300000X-0.237500X0*%
%ADD22RoundRect,0.237500X0.237500X-0.250000X0.237500X0.250000X-0.237500X0.250000X-0.237500X-0.250000X0*%
%ADD23RoundRect,0.250000X-0.250000X-0.475000X0.250000X-0.475000X0.250000X0.475000X-0.250000X0.475000X0*%
%ADD24RoundRect,0.237500X0.237500X-0.300000X0.237500X0.300000X-0.237500X0.300000X-0.237500X-0.300000X0*%
%ADD25RoundRect,0.090000X0.660000X0.360000X-0.660000X0.360000X-0.660000X-0.360000X0.660000X-0.360000X0*%
%ADD26R,1.000000X0.750000*%
%ADD27RoundRect,0.237500X-0.237500X0.250000X-0.237500X-0.250000X0.237500X-0.250000X0.237500X0.250000X0*%
%ADD28RoundRect,0.250000X0.475000X-0.250000X0.475000X0.250000X-0.475000X0.250000X-0.475000X-0.250000X0*%
%ADD29RoundRect,0.102000X-0.900000X-0.900000X0.900000X-0.900000X0.900000X0.900000X-0.900000X0.900000X0*%
%ADD30C,2.004000*%
%ADD31RoundRect,0.237500X-0.250000X-0.237500X0.250000X-0.237500X0.250000X0.237500X-0.250000X0.237500X0*%
%ADD32RoundRect,0.250000X0.300000X-0.300000X0.300000X0.300000X-0.300000X0.300000X-0.300000X-0.300000X0*%
%ADD33RoundRect,0.375000X0.375000X-0.625000X0.375000X0.625000X-0.375000X0.625000X-0.375000X-0.625000X0*%
%ADD34RoundRect,0.500000X1.400000X-0.500000X1.400000X0.500000X-1.400000X0.500000X-1.400000X-0.500000X0*%
%ADD35RoundRect,0.135000X0.135000X0.185000X-0.135000X0.185000X-0.135000X-0.185000X0.135000X-0.185000X0*%
%ADD36R,0.250000X0.150000*%
%ADD37C,1.600000*%
%ADD38RoundRect,0.237500X0.250000X0.237500X-0.250000X0.237500X-0.250000X-0.237500X0.250000X-0.237500X0*%
%ADD39RoundRect,0.250000X-0.300000X0.300000X-0.300000X-0.300000X0.300000X-0.300000X0.300000X0.300000X0*%
%ADD40R,0.750000X1.000000*%
%ADD41C,1.700000*%
%ADD42RoundRect,0.090000X-0.660000X-0.360000X0.660000X-0.360000X0.660000X0.360000X-0.660000X0.360000X0*%
%ADD43RoundRect,0.150000X-0.150000X0.587500X-0.150000X-0.587500X0.150000X-0.587500X0.150000X0.587500X0*%
%ADD44RoundRect,0.135000X-0.135000X-0.185000X0.135000X-0.185000X0.135000X0.185000X-0.135000X0.185000X0*%
%ADD45RoundRect,0.218750X-0.218750X-0.256250X0.218750X-0.256250X0.218750X0.256250X-0.218750X0.256250X0*%
%ADD46RoundRect,0.237500X-0.300000X-0.237500X0.300000X-0.237500X0.300000X0.237500X-0.300000X0.237500X0*%
%ADD47RoundRect,0.102000X-0.450000X0.750000X-0.450000X-0.750000X0.450000X-0.750000X0.450000X0.750000X0*%
%ADD48RoundRect,0.102000X-0.750000X0.450000X-0.750000X-0.450000X0.750000X-0.450000X0.750000X0.450000X0*%
%ADD49RoundRect,0.102000X-0.450000X0.450000X-0.450000X-0.450000X0.450000X-0.450000X0.450000X0.450000X0*%
%ADD50C,5.500000*%
%ADD51RoundRect,0.250000X0.250000X0.475000X-0.250000X0.475000X-0.250000X-0.475000X0.250000X-0.475000X0*%
%ADD52RoundRect,0.150000X-0.587500X-0.150000X0.587500X-0.150000X0.587500X0.150000X-0.587500X0.150000X0*%
%ADD53O,2.200000X3.500000*%
%ADD54R,1.500000X2.500000*%
%ADD55O,1.500000X2.500000*%
%ADD56R,2.000000X2.000000*%
%ADD57C,2.000000*%
%ADD58RoundRect,0.425000X-0.425000X-0.425000X0.425000X-0.425000X0.425000X0.425000X-0.425000X0.425000X0*%
%ADD59RoundRect,0.249999X-1.025001X-1.025001X1.025001X-1.025001X1.025001X1.025001X-1.025001X1.025001X0*%
%ADD60C,2.550000*%
G04 APERTURE END LIST*
D10*
%TO.C,JP9*%
X-21980000Y29718000D02*
X-23000000Y29718000D01*
%TO.C,JP11*%
X20824000Y29972000D02*
X21844000Y29972000D01*
%TD*%
D11*
%TO.C,SW7*%
X-3000000Y72700000D03*
X3000000Y72700000D03*
%TD*%
D12*
%TO.C,SW6*%
X23000000Y35000000D03*
X23000000Y41000000D03*
%TD*%
%TO.C,SW5*%
X-23100000Y41000000D03*
X-23100000Y35000000D03*
%TD*%
D13*
%TO.C,J6*%
X6350000Y36000000D03*
D14*
X3810000Y36000000D03*
X1270000Y36000000D03*
X-1270000Y36000000D03*
X-3810000Y36000000D03*
X-6350000Y36000000D03*
%TD*%
D15*
%TO.C,H4*%
X-22500000Y72000000D03*
%TD*%
D16*
%TO.C,JP7*%
X21500000Y62950000D03*
D17*
X21500000Y64250000D03*
%TD*%
D18*
%TO.C,J4*%
X-10400000Y66400000D03*
X-11200000Y66400000D03*
X-12000000Y66400000D03*
X-12800000Y66400000D03*
X-13600000Y66400000D03*
D19*
X-7600000Y66400000D03*
X-7600000Y71900000D03*
X-16400000Y66400000D03*
X-16400000Y71900000D03*
%TD*%
D20*
%TO.C,C25*%
X12300000Y3362500D03*
X12300000Y1637500D03*
%TD*%
D13*
%TO.C,J5*%
X-7000000Y69000000D03*
D14*
X-9540000Y69000000D03*
X-12080000Y69000000D03*
X-14620000Y69000000D03*
X-17160000Y69000000D03*
%TD*%
D21*
%TO.C,C19*%
X-45137500Y6000000D03*
X-46862500Y6000000D03*
%TD*%
D22*
%TO.C,R18*%
X17500000Y35087500D03*
X17500000Y36912500D03*
%TD*%
D23*
%TO.C,C2*%
X-9450000Y8000000D03*
X-7550000Y8000000D03*
%TD*%
D24*
%TO.C,C29*%
X17500000Y38637500D03*
X17500000Y40362500D03*
%TD*%
D22*
%TO.C,R25*%
X-16256000Y2643500D03*
X-16256000Y4468500D03*
%TD*%
D25*
%TO.C,D7*%
X-42550000Y850000D03*
X-42550000Y4150000D03*
X-47450000Y4150000D03*
X-47450000Y850000D03*
%TD*%
D22*
%TO.C,R20*%
X10800000Y1587500D03*
X10800000Y3412500D03*
%TD*%
D26*
%TO.C,SW4*%
X-3000000Y74575000D03*
X3000000Y74575000D03*
X-3000000Y70825000D03*
X3000000Y70825000D03*
%TD*%
D27*
%TO.C,R12*%
X-11684000Y18438500D03*
X-11684000Y16613500D03*
%TD*%
D24*
%TO.C,C28*%
X-18034000Y2693500D03*
X-18034000Y4418500D03*
%TD*%
D22*
%TO.C,R10*%
X-13500000Y53587500D03*
X-13500000Y55412500D03*
%TD*%
D28*
%TO.C,C24*%
X17018000Y1590000D03*
X17018000Y3490000D03*
%TD*%
D22*
%TO.C,R9*%
X6500000Y70587500D03*
X6500000Y72412500D03*
%TD*%
D13*
%TO.C,J18*%
X23540000Y6000000D03*
D14*
X23540000Y3460000D03*
%TD*%
D22*
%TO.C,R23*%
X-13700000Y2643500D03*
X-13700000Y4468500D03*
%TD*%
D27*
%TO.C,R26*%
X5000000Y32412500D03*
X5000000Y30587500D03*
%TD*%
D22*
%TO.C,R2*%
X3500000Y8087500D03*
X3500000Y9912500D03*
%TD*%
D13*
%TO.C,J13*%
X26080000Y6000000D03*
D14*
X26080000Y3460000D03*
X26080000Y920000D03*
%TD*%
D13*
%TO.C,J11*%
X-28620000Y6000000D03*
D14*
X-28620000Y3460000D03*
X-28620000Y920000D03*
%TD*%
D29*
%TO.C,U4*%
X-47000000Y30000000D03*
D30*
X-47000000Y27460000D03*
X-47000000Y24920000D03*
X-47000000Y22380000D03*
X-47000000Y19840000D03*
X-47000000Y17300000D03*
X-47000000Y14760000D03*
X-47000000Y12220000D03*
X-34300000Y30000000D03*
X-34300000Y27460000D03*
X-34300000Y24920000D03*
X-34300000Y22380000D03*
X-34300000Y19840000D03*
X-34300000Y17300000D03*
X-34300000Y14760000D03*
X-34300000Y12220000D03*
X-36840000Y12220000D03*
X-38150000Y14110000D03*
X-39380000Y12220000D03*
%TD*%
D16*
%TO.C,JP6*%
X21500000Y65950000D03*
D17*
X21500000Y67250000D03*
%TD*%
D31*
%TO.C,R15*%
X4887500Y67700000D03*
X6712500Y67700000D03*
%TD*%
D27*
%TO.C,R21*%
X15300000Y3412500D03*
X15300000Y1587500D03*
%TD*%
D20*
%TO.C,C6*%
X-36500000Y1862500D03*
X-36500000Y137500D03*
%TD*%
D32*
%TO.C,D6*%
X1500000Y30100000D03*
X1500000Y32900000D03*
%TD*%
D15*
%TO.C,H2*%
X-17300000Y22200000D03*
%TD*%
D27*
%TO.C,R14*%
X-13500000Y51912500D03*
X-13500000Y50087500D03*
%TD*%
D23*
%TO.C,C12*%
X17550000Y65500000D03*
X19450000Y65500000D03*
%TD*%
D33*
%TO.C,U1*%
X-17032000Y8026000D03*
X-14732000Y8026000D03*
D34*
X-14732000Y14326000D03*
D33*
X-12432000Y8026000D03*
%TD*%
D29*
%TO.C,U5*%
X34300000Y30000000D03*
D30*
X34300000Y27460000D03*
X34300000Y24920000D03*
X34300000Y22380000D03*
X34300000Y19840000D03*
X34300000Y17300000D03*
X34300000Y14760000D03*
X34300000Y12220000D03*
X47000000Y30000000D03*
X47000000Y27460000D03*
X47000000Y24920000D03*
X47000000Y22380000D03*
X47000000Y19840000D03*
X47000000Y17300000D03*
X47000000Y14760000D03*
X47000000Y12220000D03*
X44460000Y12220000D03*
X43150000Y14110000D03*
X41920000Y12220000D03*
%TD*%
D35*
%TO.C,JP9*%
X-21980000Y29718000D03*
D36*
X-22365000Y29718000D03*
X-22615000Y29718000D03*
D35*
X-23000000Y29718000D03*
%TD*%
D24*
%TO.C,C5*%
X-19500000Y61137500D03*
X-19500000Y62862500D03*
%TD*%
D37*
%TO.C,C11*%
X15500000Y63500000D03*
X15500000Y66000000D03*
%TD*%
D24*
%TO.C,C20*%
X5000000Y2137500D03*
X5000000Y3862500D03*
%TD*%
D31*
%TO.C,R1*%
X-3412500Y29000000D03*
X-1587500Y29000000D03*
%TD*%
D20*
%TO.C,C3*%
X-19500000Y66362500D03*
X-19500000Y64637500D03*
%TD*%
D16*
%TO.C,JP2*%
X-38608815Y28033711D03*
D17*
X-38608815Y29333711D03*
%TD*%
D20*
%TO.C,C1*%
X-5500000Y27362500D03*
X-5500000Y25637500D03*
%TD*%
D38*
%TO.C,R5*%
X-19587500Y55500000D03*
X-21412500Y55500000D03*
%TD*%
D13*
%TO.C,J8*%
X-16500000Y58810000D03*
D14*
X-16500000Y56270000D03*
X-16500000Y53730000D03*
X-16500000Y51190000D03*
%TD*%
D25*
%TO.C,D10*%
X47450000Y850000D03*
X47450000Y4150000D03*
X42550000Y4150000D03*
X42550000Y850000D03*
%TD*%
D20*
%TO.C,C16*%
X-4500000Y65862500D03*
X-4500000Y64137500D03*
%TD*%
D39*
%TO.C,D2*%
X-34300000Y2900000D03*
X-34300000Y100000D03*
%TD*%
D13*
%TO.C,J17*%
X-23540000Y6000000D03*
D14*
X-23540000Y3460000D03*
%TD*%
D20*
%TO.C,C10*%
X5000000Y72362500D03*
X5000000Y70637500D03*
%TD*%
D13*
%TO.C,J12*%
X-26080000Y6000000D03*
D14*
X-26080000Y3460000D03*
X-26080000Y920000D03*
%TD*%
D40*
%TO.C,SW3*%
X21125000Y35000000D03*
X21125000Y41000000D03*
X24875000Y35000000D03*
X24875000Y41000000D03*
%TD*%
D16*
%TO.C,JP1*%
X-12732000Y10526000D03*
D17*
X-12732000Y11826000D03*
%TD*%
D40*
%TO.C,SW2*%
X-21125000Y41000000D03*
X-21125000Y35000000D03*
X-24875000Y41000000D03*
X-24875000Y35000000D03*
%TD*%
D13*
%TO.C,J14*%
X28620000Y6000000D03*
D14*
X28620000Y3460000D03*
X28620000Y920000D03*
%TD*%
D37*
%TO.C,C14*%
X-38900000Y16764000D03*
X-42400000Y16764000D03*
%TD*%
D13*
%TO.C,J20*%
X31160000Y6000000D03*
D14*
X31160000Y3460000D03*
X31160000Y920000D03*
%TD*%
D27*
%TO.C,R8*%
X-17100000Y63912500D03*
X-17100000Y62087500D03*
%TD*%
D13*
%TO.C,U2*%
X-8890000Y27810000D03*
D14*
X-8890000Y25270000D03*
X-8890000Y22730000D03*
X-8890000Y20190000D03*
X-8890000Y17650000D03*
X-8890000Y15110000D03*
D41*
X8920000Y27810000D03*
D14*
X8920000Y25270000D03*
X8920000Y22730000D03*
X8920000Y20190000D03*
X8920000Y17650000D03*
X8920000Y15110000D03*
%TD*%
D22*
%TO.C,R6*%
X2000000Y8087500D03*
X2000000Y9912500D03*
%TD*%
D16*
%TO.C,JP3*%
X-41000000Y28050000D03*
D17*
X-41000000Y29350000D03*
%TD*%
D42*
%TO.C,D5*%
X-2450000Y67650000D03*
X-2450000Y64350000D03*
X2450000Y64350000D03*
X2450000Y67650000D03*
%TD*%
D15*
%TO.C,H1*%
X17300000Y22200000D03*
%TD*%
D27*
%TO.C,R17*%
X-500000Y32412500D03*
X-500000Y30587500D03*
%TD*%
D37*
%TO.C,C23*%
X37000000Y5000000D03*
X37000000Y7500000D03*
%TD*%
D16*
%TO.C,JP4*%
X41400000Y28450000D03*
D17*
X41400000Y29750000D03*
%TD*%
D43*
%TO.C,Q1*%
X-38550000Y2017500D03*
X-40450000Y2017500D03*
X-39500000Y142500D03*
%TD*%
D13*
%TO.C,J1*%
X-24000000Y66025000D03*
D14*
X-24000000Y63485000D03*
X-24000000Y60945000D03*
%TD*%
D13*
%TO.C,J19*%
X-21000000Y6000000D03*
D14*
X-21000000Y3460000D03*
%TD*%
D44*
%TO.C,JP11*%
X20824000Y29972000D03*
D36*
X21209000Y29972000D03*
X21459000Y29972000D03*
D44*
X21844000Y29972000D03*
%TD*%
D37*
%TO.C,C15*%
X42650000Y16764000D03*
X39150000Y16764000D03*
%TD*%
D45*
%TO.C,D3*%
X6212500Y75000000D03*
X7787500Y75000000D03*
%TD*%
D15*
%TO.C,H3*%
X22500000Y72000000D03*
%TD*%
D27*
%TO.C,R11*%
X-11700000Y21812500D03*
X-11700000Y19987500D03*
%TD*%
D24*
%TO.C,C7*%
X-19000000Y38637500D03*
X-19000000Y40362500D03*
%TD*%
D44*
%TO.C,JP10*%
X-24000000Y29718000D03*
X-22980000Y29718000D03*
%TD*%
D24*
%TO.C,C26*%
X-12000000Y2693500D03*
X-12000000Y4418500D03*
%TD*%
D35*
%TO.C,JP8*%
X22844000Y29972000D03*
X21824000Y29972000D03*
%TD*%
D46*
%TO.C,C8*%
X-8662500Y63600000D03*
X-6937500Y63600000D03*
%TD*%
D24*
%TO.C,C21*%
X40200000Y1637500D03*
X40200000Y3362500D03*
%TD*%
D25*
%TO.C,D9*%
X2450000Y1350000D03*
X2450000Y4650000D03*
X-2450000Y4650000D03*
X-2450000Y1350000D03*
%TD*%
D46*
%TO.C,C13*%
X17637500Y63500000D03*
X19362500Y63500000D03*
%TD*%
D27*
%TO.C,R4*%
X-19500000Y59412500D03*
X-19500000Y57587500D03*
%TD*%
%TO.C,R13*%
X19000000Y36912500D03*
X19000000Y35087500D03*
%TD*%
D22*
%TO.C,R16*%
X-6500000Y30587500D03*
X-6500000Y32412500D03*
%TD*%
D37*
%TO.C,C22*%
X-37000000Y5000000D03*
X-37000000Y7500000D03*
%TD*%
D24*
%TO.C,C27*%
X20804000Y1677500D03*
X20804000Y3402500D03*
%TD*%
D31*
%TO.C,R19*%
X-21412500Y53100000D03*
X-19587500Y53100000D03*
%TD*%
D16*
%TO.C,JP5*%
X38600000Y28350000D03*
D17*
X38600000Y29650000D03*
%TD*%
D38*
%TO.C,R24*%
X19454500Y30000000D03*
X17629500Y30000000D03*
%TD*%
D47*
%TO.C,U3*%
X18760000Y60250000D03*
X17490000Y60250000D03*
X16220000Y60250000D03*
X14950000Y60250000D03*
X13680000Y60250000D03*
X12410000Y60250000D03*
X11140000Y60250000D03*
X9870000Y60250000D03*
X8600000Y60250000D03*
X7330000Y60250000D03*
X6060000Y60250000D03*
X4790000Y60250000D03*
X3520000Y60250000D03*
X2250000Y60250000D03*
D48*
X1000000Y58485000D03*
X1000000Y57215000D03*
X1000000Y55945000D03*
X1000000Y54675000D03*
X1000000Y53405000D03*
X1000000Y52135000D03*
X1000000Y50865000D03*
X1000000Y49595000D03*
X1000000Y48325000D03*
X1000000Y47055000D03*
X1000000Y45785000D03*
X1000000Y44515000D03*
D47*
X2250000Y42750000D03*
X3520000Y42750000D03*
X4790000Y42750000D03*
X6060000Y42750000D03*
X7330000Y42750000D03*
X8600000Y42750000D03*
X9870000Y42750000D03*
X11140000Y42750000D03*
X12410000Y42750000D03*
X13680000Y42750000D03*
X14950000Y42750000D03*
X16220000Y42750000D03*
X17490000Y42750000D03*
X18760000Y42750000D03*
D49*
X12440000Y54400000D03*
X11040000Y54400000D03*
X9640000Y54400000D03*
X12440000Y53000000D03*
X11040000Y53000000D03*
D50*
X11000000Y53000000D03*
D49*
X9640000Y53000000D03*
X12440000Y51600000D03*
X11040000Y51600000D03*
X9640000Y51600000D03*
%TD*%
D51*
%TO.C,C4*%
X-14750000Y17100000D03*
X-16650000Y17100000D03*
%TD*%
D45*
%TO.C,D8*%
X-24787500Y53100000D03*
X-23212500Y53100000D03*
%TD*%
D22*
%TO.C,R7*%
X500000Y8087500D03*
X500000Y9912500D03*
%TD*%
%TO.C,R3*%
X5000000Y8087500D03*
X5000000Y9912500D03*
%TD*%
D13*
%TO.C,J3*%
X-31160000Y920000D03*
D14*
X-31160000Y3460000D03*
%TD*%
D24*
%TO.C,C18*%
X3500000Y30637500D03*
X3500000Y32362500D03*
%TD*%
D45*
%TO.C,D1*%
X-24787500Y47000000D03*
X-23212500Y47000000D03*
%TD*%
D13*
%TO.C,J16*%
X13380000Y6000000D03*
D14*
X15920000Y6000000D03*
X18460000Y6000000D03*
X21000000Y6000000D03*
%TD*%
D52*
%TO.C,Q2*%
X-4437500Y32450000D03*
X-4437500Y30550000D03*
X-2562500Y31500000D03*
%TD*%
D24*
%TO.C,C9*%
X19000000Y38637500D03*
X19000000Y40362500D03*
%TD*%
D53*
%TO.C,SW1*%
X8900000Y71000000D03*
X17100000Y71000000D03*
D54*
X11000000Y71000000D03*
D55*
X13000000Y71000000D03*
X15000000Y71000000D03*
%TD*%
D24*
%TO.C,C17*%
X-13500000Y57137500D03*
X-13500000Y58862500D03*
%TD*%
D56*
%TO.C,BZ1*%
X2500000Y20500000D03*
D57*
X-2500000Y20500000D03*
%TD*%
D27*
%TO.C,R22*%
X13810000Y3412500D03*
X13810000Y1587500D03*
%TD*%
D58*
%TO.C,J9*%
X-43650000Y19840000D03*
D14*
X-43650000Y22380000D03*
X-43650000Y24920000D03*
X-43650000Y27460000D03*
%TD*%
D58*
%TO.C,J10*%
X43980000Y19830000D03*
D14*
X43980000Y22370000D03*
X43980000Y24910000D03*
X43980000Y27450000D03*
%TD*%
D13*
%TO.C,J2*%
X-8890000Y12100000D03*
D14*
X-6350000Y12100000D03*
X-3810000Y12100000D03*
X-1270000Y12100000D03*
X1270000Y12100000D03*
X3810000Y12100000D03*
X6350000Y12100000D03*
X8890000Y12100000D03*
%TD*%
D59*
%TO.C,J7*%
X40600000Y9110000D03*
D60*
X45400000Y9110000D03*
%TD*%
D59*
%TO.C,J15*%
X-45050000Y9110000D03*
D60*
X-40250000Y9110000D03*
%TD*%
M02*
