M48
; DRILL file {KiCad 8.0.9} date 2025-06-10T00:45:35+0200
; FORMAT={-:-/ absolute / inch / decimal}
; #@! TF.CreationDate,2025-06-10T00:45:35+02:00
; #@! TF.GenerationSoftware,Kicad,Pcbnew,8.0.9
; #@! TF.FileFunction,Plated,1,2,PTH
FMAT,2
INCH
; #@! TA.AperFunction,Plated,PTH,ViaDrill
T1C0.0118
; #@! TA.AperFunction,Plated,PTH,ComponentDrill
T2C0.0315
; #@! TA.AperFunction,Plated,PTH,ComponentDrill
T3C0.0394
; #@! TA.AperFunction,Plated,PTH,ComponentDrill
T4C0.0591
; #@! TA.AperFunction,Plated,PTH,ComponentDrill
T5C0.0610
; #@! TA.AperFunction,Plated,PTH,ComponentDrill
T6C0.1260
; #@! TA.AperFunction,Plated,PTH,ComponentDrill
T7C0.1496
%
G90
G05
T1
X-1.937Y1.1811
X-1.937Y0.6693
X-1.937Y0.4016
X-1.937Y0.1024
X-1.8819Y0.2795
X-1.8504Y1.2913
X-1.7756Y0.1378
X-1.7559Y-0.0079
X-1.6496Y1.0276
X-1.6024Y0.1654
X-1.6004Y0.8311
X-1.4803Y0.1299
X-1.4803Y0.0394
X-1.4724Y1.0709
X-1.4252Y0.8307
X-1.3976Y1.0315
X-1.3425Y0.2047
X-1.2992Y0.0394
X-1.2835Y0.9449
X-1.2835Y0.7244
X-1.2717Y1.1299
X-1.2677Y0.5236
X-1.2559Y0.6496
X-1.2323Y0.374
X-1.2283Y0.9252
X-1.1969Y0.4961
X-1.1654Y0.9567
X-1.126Y1.2244
X-1.1142Y1.2953
X-1.0315Y0.9488
X-1.0315Y0.6693
X-1.0118Y2.1614
X-1.0118Y1.9055
X-0.9803Y1.4843
X-0.9803Y1.1378
X-0.9793Y1.7795
X-0.9724Y0.4567
X-0.9695Y0.5
X-0.9528Y0.0433
X-0.9449Y1.7165
X-0.9449Y1.1299
X-0.937Y0.4016
X-0.9016Y0.0315
X-0.8976Y1.126
X-0.8937Y0.3701
X-0.8805Y0.5
X-0.878Y1.7165
X-0.878Y1.4764
X-0.878Y0.9488
X-0.874Y0.7283
X-0.8543Y1.9055
X-0.8386Y1.6693
X-0.8386Y0.4449
X-0.8228Y2.437
X-0.815Y2.3622
X-0.8071Y0.4961
X-0.7913Y1.3504
X-0.7835Y1.4843
X-0.7677Y1.4213
X-0.7598Y2.1378
X-0.7244Y2.2205
X-0.7244Y1.9882
X-0.7244Y1.8819
X-0.7232Y2.5682
X-0.7232Y2.4134
X-0.6929Y1.4449
X-0.6614Y1.5394
X-0.6378Y2.4803
X-0.6339Y1.1654
X-0.6302Y0.2362
X-0.6102Y2.9567
X-0.6024Y2.1654
X-0.5984Y1.874
X-0.5945Y2.0709
X-0.5906Y1.9843
X-0.5906Y0.1759
X-0.5906Y0.1339
X-0.5866Y1.5906
X-0.5866Y0.2362
X-0.5807Y0.622
X-0.5394Y0.2854
X-0.5315Y2.378
X-0.5118Y1.0748
X-0.5118Y1.0354
X-0.5079Y1.878
X-0.5079Y1.6457
X-0.5079Y1.2874
X-0.5Y2.5315
X-0.4847Y2.1097
X-0.4843Y1.1693
X-0.4685Y2.0039
X-0.4606Y0.9291
X-0.4488Y2.122
X-0.4331Y1.3504
X-0.4291Y0.4764
X-0.4252Y2.0512
X-0.4252Y0.315
X-0.4213Y2.5315
X-0.4016Y1.3701
X-0.3976Y0.1299
X-0.3976Y0.0669
X-0.3898Y2.3228
X-0.3898Y1.1732
X-0.378Y2.0748
X-0.3524Y1.2992
X-0.3504Y2.9567
X-0.3465Y1.4449
X-0.3465Y1.3898
X-0.315Y1.8346
X-0.315Y0.1811
X-0.3031Y1.2835
X-0.3012Y1.7657
X-0.2913Y2.189
X-0.2835Y0.6024
X-0.2795Y2.0
X-0.2776Y1.7421
X-0.2677Y1.0315
X-0.2598Y0.0394
X-0.252Y0.7559
X-0.248Y1.9764
X-0.2244Y0.1496
X-0.2165Y2.5591
X-0.2126Y1.9173
X-0.2126Y1.811
X-0.1969Y2.7598
X-0.1811Y2.315
X-0.1772Y0.0531
X-0.1732Y1.2402
X-0.15Y1.5039
X-0.1496Y2.0748
X-0.1496Y1.6496
X-0.1417Y0.5906
X-0.1378Y2.4961
X-0.1339Y1.0984
X-0.1339Y0.8858
X-0.122Y2.0
X-0.122Y1.4764
X-0.1102Y0.7323
X-0.1024Y2.315
X-0.0941Y2.1307
X-0.0866Y1.6181
X-0.0827Y2.7283
X-0.0807Y1.998
X-0.0591Y0.3189
X-0.0551Y2.185
X-0.0394Y1.9252
X-0.0394Y1.6654
X-0.0163Y1.8026
X-0.0118Y2.2402
X-0.011Y2.0276
X-0.0079Y2.4921
X0.0039Y1.1142
X0.0039Y0.1024
X0.0079Y1.5354
X0.0118Y0.5945
X0.0315Y1.6831
X0.0354Y1.5945
X0.0433Y2.3898
X0.0551Y2.9094
X0.0945Y2.2717
X0.0945Y1.622
X0.0984Y1.9173
X0.1004Y2.1831
X0.1024Y2.2283
X0.1024Y2.1102
X0.1024Y1.4646
X0.1063Y1.7441
X0.1063Y1.1378
X0.1063Y0.7283
X0.1299Y1.878
X0.1378Y1.3228
X0.1496Y0.5787
X0.1575Y1.8386
X0.1614Y2.4252
X0.1654Y0.0354
X0.1693Y2.2087
X0.1693Y1.5177
X0.185Y1.0315
X0.1969Y2.9528
X0.1969Y1.5709
X0.2008Y2.0512
X0.2126Y2.311
X0.2126Y0.7283
X0.2362Y0.5709
X0.2559Y2.7283
X0.2776Y0.1594
X0.2896Y1.7569
X0.2913Y2.8976
X0.2913Y0.0669
X0.3031Y1.2559
X0.313Y2.313
X0.315Y1.3543
X0.315Y1.2874
X0.3228Y2.5827
X0.3228Y1.3937
X0.3346Y1.3228
X0.3425Y1.5709
X0.3425Y1.4606
X0.3661Y1.7815
X0.3671Y2.5699
X0.374Y0.3228
X0.374Y0.1299
X0.3898Y1.1575
X0.3937Y1.4882
X0.4016Y2.6624
X0.4016Y2.4488
X0.4114Y1.4508
X0.4134Y1.815
X0.4173Y0.7874
X0.4331Y2.6378
X0.436Y1.4223
X0.437Y1.5315
X0.4488Y0.6811
X0.4516Y2.9465
X0.4528Y0.7559
X0.4764Y0.4764
X0.478Y1.6276
X0.5079Y1.1142
X0.5157Y1.9213
X0.5197Y2.311
X0.5236Y1.2244
X0.5344Y1.624
X0.5394Y1.0748
X0.5433Y1.0315
X0.5551Y1.3031
X0.5551Y1.2638
X0.5787Y2.252
X0.5787Y0.6102
X0.5787Y0.4764
X0.5787Y2.2874
X0.5787Y1.8465
X0.5787Y1.815
X0.5827Y0.3228
X0.5945Y1.752
X0.6024Y1.6024
X0.6339Y2.2913
X0.6339Y1.0472
X0.6457Y2.2087
X0.6457Y1.752
X0.6457Y1.1811
X0.6575Y1.5527
X0.6614Y2.2638
X0.6732Y1.3031
X0.6732Y1.2638
X0.6811Y1.752
X0.7008Y1.1378
X0.7047Y1.3307
X0.7185Y1.5561
X0.7205Y2.9606
X0.7205Y2.5354
X0.7323Y2.8898
X0.7362Y2.1772
X0.7386Y2.4315
X0.7402Y2.2913
X0.7402Y1.7677
X0.748Y1.3386
X0.7638Y0.0945
X0.7677Y1.1417
X0.7677Y1.0236
X0.7913Y1.4882
X0.7933Y1.6161
X0.8071Y1.0236
X0.8071Y0.3976
X0.8386Y1.0709
X0.8465Y0.3976
X0.8543Y1.1378
X0.8661Y0.8543
X0.8819Y1.2283
X0.9213Y0.4764
X0.9252Y0.626
X0.9449Y1.1417
X0.9567Y0.0512
X0.9793Y1.563
X1.0Y1.2244
X1.0079Y2.4173
X1.0118Y2.6969
X1.0276Y0.626
X1.0276Y0.4764
X1.0276Y0.3228
X1.0354Y1.3307
X1.1299Y0.3228
X1.1339Y0.626
X1.1339Y0.4764
X1.2205Y0.4764
X1.2244Y0.8701
X1.2244Y0.626
X1.2283Y1.1378
X1.2283Y0.3228
X1.3272Y-0.0114
X1.4094Y1.0394
X1.4213Y0.0157
X1.4567Y0.0984
X1.6063Y0.7205
X1.6378Y1.2205
X1.7402Y0.0039
X1.7874Y0.9331
X1.8346Y1.2953
X1.8425Y0.0827
X1.9291Y0.8307
X1.9331Y0.3858
T2
X-1.6693Y0.66
X-1.5315Y0.66
X-1.4567Y0.2953
X-1.4567Y0.1969
X0.4331Y2.7953
X0.5118Y2.7953
X0.5906Y2.7953
X0.6102Y2.5984
X0.6102Y2.5
X1.4567Y0.2953
X1.4567Y0.1969
X1.5413Y0.66
X1.6791Y0.66
T3
X-1.8504Y1.1811
X-1.8504Y1.0811
X-1.8504Y0.9811
X-1.8504Y0.8811
X-1.8504Y0.7811
X-1.8504Y0.6811
X-1.8504Y0.5811
X-1.8504Y0.4811
X-1.7185Y1.0811
X-1.7185Y0.9811
X-1.7185Y0.8811
X-1.7185Y0.7811
X-1.5504Y0.4811
X-1.502Y0.5555
X-1.4504Y0.4811
X-1.3504Y1.1811
X-1.3504Y1.0811
X-1.3504Y0.9811
X-1.3504Y0.8811
X-1.3504Y0.7811
X-1.3504Y0.6811
X-1.3504Y0.5811
X-1.3504Y0.4811
X-1.2268Y0.1362
X-1.2268Y0.0362
X-1.1268Y0.2362
X-1.1268Y0.1362
X-1.1268Y0.0362
X-1.0268Y0.2362
X-1.0268Y0.1362
X-1.0268Y0.0362
X-0.9449Y2.5994
X-0.9449Y2.4994
X-0.9449Y2.3994
X-0.9268Y0.2362
X-0.9268Y0.1362
X-0.8268Y0.2362
X-0.8268Y0.1362
X-0.6756Y2.7165
X-0.6496Y2.3154
X-0.6496Y2.2154
X-0.6496Y2.1154
X-0.6496Y2.0154
X-0.5756Y2.7165
X-0.4756Y2.7165
X-0.3756Y2.7165
X-0.35Y1.0949
X-0.35Y0.9949
X-0.35Y0.8949
X-0.35Y0.7949
X-0.35Y0.6949
X-0.35Y0.5949
X-0.35Y0.4764
X-0.2756Y2.7165
X-0.25Y1.4173
X-0.25Y0.4764
X-0.15Y1.4173
X-0.15Y0.4764
X-0.0984Y0.8071
X-0.05Y1.4173
X-0.05Y0.4764
X0.05Y1.4173
X0.05Y0.4764
X0.0984Y0.8071
X0.15Y1.4173
X0.15Y0.4764
X0.25Y1.4173
X0.25Y0.4764
X0.35Y0.4764
X0.3512Y1.0949
X0.3512Y0.9949
X0.3512Y0.8949
X0.3512Y0.7949
X0.3512Y0.6949
X0.3512Y0.5949
X0.5268Y0.2362
X0.6268Y0.2362
X0.7268Y0.2362
X0.8268Y0.2362
X0.9268Y0.2362
X0.9268Y0.1362
X1.0268Y0.2362
X1.0268Y0.1362
X1.0268Y0.0362
X1.1268Y0.2362
X1.1268Y0.1362
X1.1268Y0.0362
X1.2268Y0.2362
X1.2268Y0.1362
X1.2268Y0.0362
X1.3504Y1.1811
X1.3504Y1.0811
X1.3504Y0.9811
X1.3504Y0.8811
X1.3504Y0.7811
X1.3504Y0.6811
X1.3504Y0.5811
X1.3504Y0.4811
X1.6504Y0.4811
X1.6988Y0.5555
X1.7315Y1.0807
X1.7315Y0.9807
X1.7315Y0.8807
X1.7315Y0.7807
X1.7504Y0.4811
X1.8504Y1.1811
X1.8504Y1.0811
X1.8504Y0.9811
X1.8504Y0.8811
X1.8504Y0.7811
X1.8504Y0.6811
X1.8504Y0.5811
X1.8504Y0.4811
T4
X0.3504Y2.7953
X0.6732Y2.7953
T5
X-1.7736Y0.3587
X-1.5846Y0.3587
X1.5984Y0.3587
X1.7874Y0.3587
T6
X-0.8858Y2.8346
X-0.6811Y0.874
X0.6811Y0.874
X0.8858Y2.8346
T7
X0.4331Y2.0866
M30
