G04*
G04 #@! TF.GenerationSoftware,Altium Limited,Altium Designer,21.1.1 (26)*
G04*
G04 Layer_Color=65535*
%FSLAX24Y24*%
%MOIN*%
G70*
G04*
G04 #@! TF.SameCoordinates,808F0F06-89F3-4DF4-9748-8FD306F7A54E*
G04*
G04*
G04 #@! TF.FilePolarity,Positive*
G04*
G01*
G75*
%ADD10C,0.0098*%
%ADD11C,0.0591*%
%ADD12C,0.0197*%
%ADD13C,0.0079*%
%ADD14C,0.0118*%
%ADD15C,0.0059*%
G36*
X11968Y1380D02*
X12069Y1180D01*
X11868D01*
X11968Y1380D01*
D02*
G37*
G36*
Y2639D02*
X12069Y2439D01*
X11869D01*
X11968Y2639D01*
D02*
G37*
G36*
X14874Y2996D02*
Y2996D01*
Y2995D01*
Y2994D01*
Y2992D01*
X14874Y2990D01*
Y2988D01*
X14874Y2985D01*
X14873Y2982D01*
X14873Y2976D01*
X14871Y2969D01*
X14870Y2963D01*
X14869Y2960D01*
X14868Y2957D01*
Y2957D01*
X14868Y2956D01*
X14867Y2956D01*
X14867Y2955D01*
X14865Y2952D01*
X14863Y2949D01*
X14860Y2946D01*
X14857Y2942D01*
X14853Y2939D01*
X14848Y2936D01*
X14848D01*
X14848Y2936D01*
X14847Y2935D01*
X14846Y2935D01*
X14845Y2934D01*
X14843Y2934D01*
X14842Y2933D01*
X14840Y2933D01*
X14835Y2931D01*
X14830Y2930D01*
X14824Y2929D01*
X14817Y2929D01*
X14815D01*
X14813Y2929D01*
X14811Y2929D01*
X14808Y2930D01*
X14805Y2930D01*
X14802Y2931D01*
X14799Y2932D01*
X14796Y2933D01*
X14792Y2934D01*
X14789Y2935D01*
X14786Y2937D01*
X14782Y2939D01*
X14779Y2941D01*
X14777Y2944D01*
X14776Y2944D01*
X14776Y2945D01*
X14775Y2946D01*
X14774Y2947D01*
X14773Y2948D01*
X14772Y2950D01*
X14771Y2953D01*
X14770Y2955D01*
X14769Y2958D01*
X14767Y2962D01*
X14766Y2965D01*
X14765Y2969D01*
X14764Y2974D01*
X14764Y2979D01*
X14763Y2984D01*
Y2989D01*
X14787Y2993D01*
Y2992D01*
Y2991D01*
X14787Y2990D01*
Y2989D01*
X14788Y2987D01*
X14788Y2985D01*
X14789Y2980D01*
X14790Y2975D01*
X14791Y2969D01*
X14792Y2967D01*
X14793Y2965D01*
X14794Y2963D01*
X14796Y2961D01*
X14796Y2961D01*
X14797Y2960D01*
X14799Y2958D01*
X14801Y2957D01*
X14805Y2955D01*
X14808Y2954D01*
X14812Y2953D01*
X14817Y2953D01*
X14819D01*
X14821Y2953D01*
X14823Y2953D01*
X14826Y2954D01*
X14829Y2955D01*
X14832Y2956D01*
X14834Y2957D01*
X14835Y2957D01*
X14836Y2958D01*
X14837Y2959D01*
X14839Y2961D01*
X14840Y2962D01*
X14842Y2964D01*
X14843Y2967D01*
X14845Y2970D01*
X14845Y2970D01*
X14845Y2971D01*
X14845Y2973D01*
X14846Y2976D01*
X14847Y2979D01*
X14847Y2984D01*
X14847Y2989D01*
X14847Y2992D01*
Y2995D01*
Y3133D01*
X14874D01*
Y2996D01*
D02*
G37*
G36*
X15000Y2932D02*
X14976D01*
Y3089D01*
X14975Y3089D01*
X14974Y3088D01*
X14972Y3086D01*
X14970Y3084D01*
X14966Y3082D01*
X14962Y3079D01*
X14958Y3076D01*
X14952Y3072D01*
X14952D01*
X14952Y3072D01*
X14951Y3072D01*
X14950Y3071D01*
X14949Y3070D01*
X14947Y3070D01*
X14944Y3068D01*
X14940Y3066D01*
X14935Y3063D01*
X14931Y3061D01*
X14926Y3060D01*
Y3083D01*
X14927Y3084D01*
X14927Y3084D01*
X14928Y3085D01*
X14930Y3085D01*
X14932Y3086D01*
X14934Y3087D01*
X14936Y3089D01*
X14939Y3090D01*
X14944Y3094D01*
X14950Y3098D01*
X14957Y3102D01*
X14963Y3107D01*
X14963Y3107D01*
X14963Y3108D01*
X14964Y3108D01*
X14965Y3109D01*
X14966Y3111D01*
X14968Y3112D01*
X14971Y3116D01*
X14975Y3120D01*
X14978Y3124D01*
X14982Y3129D01*
X14985Y3134D01*
X15000D01*
Y2932D01*
D02*
G37*
G36*
X9525Y3647D02*
Y3647D01*
Y3646D01*
Y3644D01*
Y3642D01*
X9524Y3640D01*
X9524Y3637D01*
X9524Y3633D01*
X9524Y3630D01*
X9523Y3622D01*
X9522Y3614D01*
X9520Y3606D01*
X9519Y3602D01*
X9518Y3599D01*
Y3599D01*
X9517Y3598D01*
X9517Y3597D01*
X9516Y3596D01*
X9515Y3594D01*
X9515Y3593D01*
X9512Y3589D01*
X9510Y3586D01*
X9509Y3584D01*
X9507Y3582D01*
X9504Y3579D01*
X9502Y3577D01*
X9499Y3574D01*
X9496Y3572D01*
X9493Y3570D01*
X9493Y3570D01*
X9492Y3570D01*
X9491Y3569D01*
X9490Y3568D01*
X9488Y3567D01*
X9486Y3566D01*
X9483Y3565D01*
X9480Y3565D01*
X9477Y3563D01*
X9474Y3562D01*
X9470Y3561D01*
X9466Y3561D01*
X9461Y3560D01*
X9456Y3559D01*
X9451Y3559D01*
X9446Y3559D01*
X9443D01*
X9441Y3559D01*
X9439D01*
X9436Y3559D01*
X9433Y3560D01*
X9430Y3560D01*
X9422Y3561D01*
X9414Y3563D01*
X9407Y3565D01*
X9403Y3567D01*
X9399Y3568D01*
X9399Y3569D01*
X9399Y3569D01*
X9398Y3570D01*
X9397Y3570D01*
X9395Y3571D01*
X9393Y3573D01*
X9392Y3574D01*
X9390Y3576D01*
X9385Y3580D01*
X9381Y3584D01*
X9377Y3590D01*
X9376Y3593D01*
X9374Y3597D01*
Y3597D01*
X9374Y3597D01*
X9373Y3599D01*
X9373Y3600D01*
X9372Y3602D01*
X9372Y3604D01*
X9371Y3607D01*
X9370Y3610D01*
X9369Y3613D01*
X9369Y3617D01*
X9368Y3621D01*
X9368Y3626D01*
X9367Y3631D01*
X9367Y3636D01*
X9366Y3641D01*
Y3647D01*
Y3763D01*
X9393D01*
Y3647D01*
Y3647D01*
Y3646D01*
Y3645D01*
Y3643D01*
X9393Y3641D01*
Y3638D01*
X9393Y3635D01*
X9394Y3633D01*
X9394Y3626D01*
X9395Y3620D01*
X9396Y3614D01*
X9397Y3611D01*
X9398Y3609D01*
Y3608D01*
X9398Y3608D01*
X9398Y3607D01*
X9399Y3607D01*
X9400Y3604D01*
X9402Y3602D01*
X9404Y3598D01*
X9407Y3595D01*
X9410Y3592D01*
X9414Y3589D01*
X9415D01*
X9415Y3589D01*
X9416Y3589D01*
X9416Y3588D01*
X9418Y3588D01*
X9419Y3587D01*
X9421Y3587D01*
X9422Y3586D01*
X9427Y3585D01*
X9432Y3584D01*
X9437Y3583D01*
X9444Y3583D01*
X9446D01*
X9448Y3583D01*
X9451Y3583D01*
X9454Y3583D01*
X9457Y3584D01*
X9460Y3585D01*
X9467Y3586D01*
X9470Y3587D01*
X9474Y3589D01*
X9477Y3590D01*
X9480Y3592D01*
X9483Y3594D01*
X9485Y3596D01*
X9486Y3596D01*
X9486Y3597D01*
X9486Y3598D01*
X9487Y3599D01*
X9488Y3600D01*
X9489Y3602D01*
X9491Y3605D01*
X9492Y3607D01*
X9493Y3611D01*
X9494Y3614D01*
X9495Y3619D01*
X9496Y3623D01*
X9497Y3628D01*
X9498Y3634D01*
X9498Y3640D01*
X9498Y3647D01*
Y3763D01*
X9525D01*
Y3647D01*
D02*
G37*
G36*
X9630Y3764D02*
X9633Y3764D01*
X9636Y3763D01*
X9639Y3763D01*
X9642Y3762D01*
X9646Y3761D01*
X9650Y3760D01*
X9653Y3759D01*
X9657Y3757D01*
X9661Y3755D01*
X9665Y3753D01*
X9668Y3751D01*
X9672Y3748D01*
X9672Y3748D01*
X9672Y3747D01*
X9673Y3746D01*
X9674Y3745D01*
X9675Y3743D01*
X9677Y3742D01*
X9679Y3739D01*
X9680Y3737D01*
X9682Y3734D01*
X9683Y3731D01*
X9685Y3728D01*
X9686Y3724D01*
X9687Y3720D01*
X9688Y3716D01*
X9688Y3712D01*
X9689Y3708D01*
Y3708D01*
Y3708D01*
Y3707D01*
Y3706D01*
X9688Y3704D01*
X9688Y3701D01*
X9687Y3697D01*
X9686Y3693D01*
X9685Y3689D01*
X9684Y3684D01*
Y3684D01*
X9683Y3684D01*
X9683Y3683D01*
X9683Y3682D01*
X9681Y3680D01*
X9680Y3677D01*
X9677Y3673D01*
X9674Y3669D01*
X9671Y3665D01*
X9667Y3660D01*
X9667Y3660D01*
X9667Y3659D01*
X9666Y3658D01*
X9665Y3657D01*
X9663Y3656D01*
X9662Y3655D01*
X9660Y3653D01*
X9658Y3651D01*
X9655Y3648D01*
X9653Y3646D01*
X9650Y3643D01*
X9646Y3640D01*
X9642Y3636D01*
X9638Y3633D01*
X9634Y3629D01*
X9629Y3624D01*
X9629Y3624D01*
X9628Y3624D01*
X9627Y3623D01*
X9625Y3621D01*
X9623Y3620D01*
X9621Y3618D01*
X9617Y3614D01*
X9612Y3610D01*
X9607Y3606D01*
X9605Y3604D01*
X9603Y3602D01*
X9602Y3600D01*
X9600Y3599D01*
X9600Y3599D01*
X9599Y3598D01*
X9598Y3597D01*
X9597Y3595D01*
X9595Y3593D01*
X9593Y3591D01*
X9590Y3586D01*
X9689D01*
Y3562D01*
X9556D01*
Y3563D01*
Y3564D01*
Y3565D01*
X9556Y3568D01*
X9556Y3570D01*
X9557Y3573D01*
X9557Y3576D01*
X9558Y3579D01*
Y3579D01*
X9559Y3580D01*
X9559Y3580D01*
X9559Y3582D01*
X9560Y3583D01*
X9561Y3584D01*
X9562Y3588D01*
X9565Y3592D01*
X9567Y3596D01*
X9571Y3601D01*
X9575Y3606D01*
X9575Y3606D01*
X9575Y3607D01*
X9576Y3607D01*
X9577Y3608D01*
X9578Y3609D01*
X9579Y3611D01*
X9581Y3613D01*
X9583Y3615D01*
X9585Y3617D01*
X9587Y3619D01*
X9590Y3622D01*
X9593Y3624D01*
X9596Y3627D01*
X9600Y3630D01*
X9603Y3633D01*
X9607Y3636D01*
X9607Y3636D01*
X9609Y3638D01*
X9610Y3639D01*
X9612Y3641D01*
X9615Y3643D01*
X9618Y3646D01*
X9621Y3648D01*
X9625Y3652D01*
X9632Y3658D01*
X9639Y3666D01*
X9643Y3669D01*
X9646Y3673D01*
X9649Y3676D01*
X9651Y3679D01*
X9652Y3679D01*
X9652Y3680D01*
X9653Y3680D01*
X9653Y3682D01*
X9654Y3683D01*
X9655Y3685D01*
X9657Y3689D01*
X9660Y3693D01*
X9662Y3698D01*
X9663Y3703D01*
X9663Y3706D01*
X9663Y3709D01*
Y3709D01*
Y3709D01*
Y3710D01*
X9663Y3711D01*
Y3712D01*
X9663Y3714D01*
X9662Y3717D01*
X9661Y3721D01*
X9659Y3725D01*
X9658Y3727D01*
X9656Y3729D01*
X9655Y3731D01*
X9653Y3733D01*
X9652Y3733D01*
X9652Y3734D01*
X9651Y3734D01*
X9651Y3735D01*
X9650Y3736D01*
X9648Y3737D01*
X9645Y3738D01*
X9641Y3740D01*
X9636Y3742D01*
X9631Y3743D01*
X9628Y3743D01*
X9623D01*
X9622Y3743D01*
X9620D01*
X9619Y3743D01*
X9615Y3742D01*
X9610Y3741D01*
X9605Y3739D01*
X9603Y3738D01*
X9600Y3736D01*
X9598Y3735D01*
X9596Y3733D01*
X9596Y3732D01*
X9596Y3732D01*
X9595Y3731D01*
X9594Y3731D01*
X9594Y3730D01*
X9593Y3728D01*
X9592Y3727D01*
X9591Y3725D01*
X9590Y3723D01*
X9589Y3721D01*
X9587Y3716D01*
X9586Y3710D01*
X9586Y3707D01*
X9585Y3703D01*
X9560Y3706D01*
Y3706D01*
X9560Y3707D01*
X9561Y3708D01*
X9561Y3710D01*
X9561Y3713D01*
X9562Y3716D01*
X9563Y3719D01*
X9564Y3722D01*
X9565Y3725D01*
X9566Y3729D01*
X9568Y3732D01*
X9570Y3736D01*
X9572Y3740D01*
X9574Y3743D01*
X9577Y3746D01*
X9580Y3749D01*
X9580Y3749D01*
X9581Y3750D01*
X9582Y3750D01*
X9583Y3751D01*
X9585Y3752D01*
X9587Y3754D01*
X9589Y3755D01*
X9592Y3757D01*
X9595Y3758D01*
X9599Y3759D01*
X9602Y3760D01*
X9606Y3762D01*
X9611Y3763D01*
X9615Y3763D01*
X9620Y3764D01*
X9626Y3764D01*
X9628D01*
X9630Y3764D01*
D02*
G37*
G36*
X11631Y2710D02*
X11636Y2710D01*
X11642Y2709D01*
X11648Y2709D01*
X11655Y2708D01*
X11662Y2708D01*
X11676Y2706D01*
X11690Y2703D01*
X11697Y2701D01*
X11703Y2699D01*
X11704D01*
X11705Y2698D01*
X11707Y2698D01*
X11709Y2697D01*
X11712Y2696D01*
X11715Y2694D01*
X11718Y2693D01*
X11722Y2691D01*
X11730Y2686D01*
X11739Y2681D01*
X11747Y2674D01*
X11750Y2670D01*
X11754Y2666D01*
X11754Y2666D01*
X11755Y2665D01*
X11756Y2664D01*
X11757Y2662D01*
X11758Y2660D01*
X11760Y2658D01*
X11761Y2655D01*
X11763Y2651D01*
X11764Y2648D01*
X11766Y2643D01*
X11767Y2639D01*
X11769Y2634D01*
X11770Y2629D01*
X11771Y2623D01*
X11771Y2618D01*
X11772Y2611D01*
Y2609D01*
X11771Y2607D01*
X11771Y2604D01*
X11771Y2601D01*
X11770Y2596D01*
X11769Y2592D01*
X11768Y2587D01*
X11766Y2581D01*
X11764Y2576D01*
X11761Y2570D01*
X11759Y2564D01*
X11755Y2559D01*
X11751Y2553D01*
X11746Y2548D01*
X11740Y2543D01*
X11740Y2543D01*
X11739Y2542D01*
X11737Y2540D01*
X11733Y2538D01*
X11729Y2536D01*
X11724Y2533D01*
X11718Y2531D01*
X11711Y2528D01*
X11703Y2525D01*
X11694Y2523D01*
X11684Y2520D01*
X11673Y2518D01*
X11660Y2516D01*
X11647Y2514D01*
X11633Y2513D01*
X11617Y2513D01*
X11617D01*
X11615D01*
X11612D01*
X11609Y2513D01*
X11604D01*
X11599Y2514D01*
X11593Y2514D01*
X11587Y2514D01*
X11580Y2515D01*
X11573Y2516D01*
X11558Y2518D01*
X11544Y2520D01*
X11537Y2522D01*
X11531Y2524D01*
X11531D01*
X11530Y2525D01*
X11528Y2525D01*
X11526Y2526D01*
X11523Y2527D01*
X11520Y2528D01*
X11516Y2530D01*
X11513Y2532D01*
X11504Y2537D01*
X11496Y2543D01*
X11488Y2549D01*
X11484Y2553D01*
X11481Y2557D01*
X11480Y2557D01*
X11480Y2558D01*
X11479Y2559D01*
X11478Y2561D01*
X11476Y2563D01*
X11475Y2565D01*
X11473Y2568D01*
X11472Y2572D01*
X11470Y2575D01*
X11469Y2580D01*
X11467Y2584D01*
X11466Y2589D01*
X11465Y2594D01*
X11464Y2600D01*
X11463Y2606D01*
X11463Y2611D01*
Y2615D01*
X11463Y2618D01*
X11464Y2620D01*
X11464Y2626D01*
X11465Y2632D01*
X11467Y2640D01*
X11470Y2647D01*
X11473Y2654D01*
Y2654D01*
X11473Y2655D01*
X11474Y2656D01*
X11475Y2657D01*
X11477Y2661D01*
X11480Y2665D01*
X11484Y2670D01*
X11489Y2675D01*
X11495Y2680D01*
X11501Y2685D01*
X11502D01*
X11502Y2685D01*
X11503Y2686D01*
X11505Y2687D01*
X11506Y2688D01*
X11509Y2689D01*
X11511Y2690D01*
X11514Y2691D01*
X11520Y2694D01*
X11528Y2697D01*
X11537Y2701D01*
X11546Y2703D01*
X11547D01*
X11548Y2704D01*
X11549Y2704D01*
X11551Y2704D01*
X11554Y2705D01*
X11557Y2706D01*
X11561Y2706D01*
X11565Y2707D01*
X11570Y2707D01*
X11575Y2708D01*
X11581Y2709D01*
X11587Y2709D01*
X11594Y2710D01*
X11601Y2710D01*
X11609Y2710D01*
X11617D01*
X11618D01*
X11620D01*
X11623D01*
X11626D01*
X11631Y2710D01*
D02*
G37*
G36*
X11685Y2472D02*
X11687D01*
X11692Y2472D01*
X11698Y2470D01*
X11705Y2469D01*
X11712Y2466D01*
X11719Y2464D01*
X11719D01*
X11719Y2463D01*
X11720Y2463D01*
X11722Y2462D01*
X11725Y2460D01*
X11729Y2457D01*
X11734Y2454D01*
X11738Y2450D01*
X11743Y2446D01*
X11747Y2441D01*
X11747Y2441D01*
X11749Y2439D01*
X11750Y2436D01*
X11753Y2432D01*
X11755Y2427D01*
X11758Y2422D01*
X11760Y2415D01*
X11762Y2408D01*
Y2408D01*
X11762Y2407D01*
Y2406D01*
X11762Y2404D01*
X11763Y2403D01*
X11763Y2400D01*
X11764Y2398D01*
X11764Y2395D01*
X11765Y2391D01*
X11765Y2387D01*
X11766Y2379D01*
X11766Y2370D01*
X11767Y2359D01*
Y2244D01*
X11464D01*
Y2363D01*
X11464Y2366D01*
Y2370D01*
X11465Y2373D01*
X11465Y2378D01*
X11466Y2386D01*
X11468Y2396D01*
X11470Y2404D01*
X11473Y2413D01*
Y2413D01*
X11474Y2414D01*
X11474Y2415D01*
X11475Y2417D01*
X11477Y2420D01*
X11480Y2425D01*
X11484Y2430D01*
X11489Y2436D01*
X11495Y2441D01*
X11502Y2446D01*
X11502D01*
X11503Y2446D01*
X11504Y2447D01*
X11505Y2448D01*
X11507Y2449D01*
X11509Y2450D01*
X11514Y2452D01*
X11520Y2454D01*
X11527Y2456D01*
X11534Y2457D01*
X11542Y2458D01*
X11542D01*
X11543D01*
X11544D01*
X11545D01*
X11549Y2457D01*
X11554Y2457D01*
X11559Y2455D01*
X11565Y2453D01*
X11572Y2451D01*
X11578Y2447D01*
X11578D01*
X11579Y2447D01*
X11580Y2446D01*
X11581Y2445D01*
X11584Y2443D01*
X11588Y2439D01*
X11592Y2435D01*
X11597Y2429D01*
X11601Y2423D01*
X11606Y2416D01*
Y2416D01*
X11606Y2417D01*
X11607Y2418D01*
X11607Y2420D01*
X11608Y2423D01*
X11609Y2425D01*
X11612Y2431D01*
X11616Y2438D01*
X11621Y2445D01*
X11626Y2452D01*
X11633Y2458D01*
X11634Y2458D01*
X11634Y2458D01*
X11635Y2459D01*
X11637Y2460D01*
X11638Y2461D01*
X11641Y2463D01*
X11643Y2464D01*
X11646Y2465D01*
X11653Y2468D01*
X11661Y2470D01*
X11670Y2472D01*
X11674Y2473D01*
X11679D01*
X11679D01*
X11680D01*
X11681D01*
X11683D01*
X11685Y2472D01*
D02*
G37*
G36*
X11772Y1435D02*
X11535D01*
X11536Y1434D01*
X11537Y1432D01*
X11540Y1429D01*
X11543Y1425D01*
X11547Y1420D01*
X11551Y1414D01*
X11556Y1407D01*
X11561Y1399D01*
Y1399D01*
X11561Y1398D01*
X11562Y1397D01*
X11563Y1396D01*
X11564Y1394D01*
X11565Y1391D01*
X11568Y1386D01*
X11571Y1380D01*
X11574Y1374D01*
X11577Y1367D01*
X11580Y1360D01*
X11544D01*
X11544Y1360D01*
X11543Y1361D01*
X11542Y1363D01*
X11541Y1365D01*
X11540Y1368D01*
X11538Y1371D01*
X11536Y1375D01*
X11534Y1379D01*
X11529Y1387D01*
X11523Y1396D01*
X11516Y1406D01*
X11509Y1415D01*
X11508Y1415D01*
X11508Y1416D01*
X11507Y1417D01*
X11505Y1419D01*
X11503Y1420D01*
X11501Y1422D01*
X11495Y1427D01*
X11490Y1433D01*
X11483Y1439D01*
X11475Y1443D01*
X11468Y1448D01*
Y1472D01*
X11772D01*
Y1435D01*
D02*
G37*
G36*
X11690Y1291D02*
X11692D01*
X11697Y1291D01*
X11703Y1289D01*
X11710Y1288D01*
X11717Y1285D01*
X11724Y1282D01*
X11724D01*
X11724Y1282D01*
X11725Y1281D01*
X11727Y1281D01*
X11730Y1279D01*
X11734Y1276D01*
X11739Y1273D01*
X11743Y1269D01*
X11748Y1265D01*
X11752Y1260D01*
X11752Y1259D01*
X11754Y1258D01*
X11755Y1255D01*
X11758Y1251D01*
X11760Y1246D01*
X11762Y1241D01*
X11765Y1234D01*
X11767Y1227D01*
Y1227D01*
X11767Y1226D01*
Y1225D01*
X11767Y1223D01*
X11768Y1221D01*
X11768Y1219D01*
X11769Y1217D01*
X11769Y1214D01*
X11770Y1210D01*
X11770Y1206D01*
X11771Y1198D01*
X11771Y1189D01*
X11772Y1178D01*
Y1063D01*
X11469D01*
Y1182D01*
X11469Y1185D01*
Y1189D01*
X11470Y1192D01*
X11470Y1196D01*
X11471Y1205D01*
X11473Y1215D01*
X11475Y1223D01*
X11478Y1232D01*
Y1232D01*
X11479Y1233D01*
X11479Y1234D01*
X11480Y1236D01*
X11482Y1239D01*
X11485Y1244D01*
X11489Y1249D01*
X11494Y1255D01*
X11500Y1260D01*
X11507Y1265D01*
X11507D01*
X11508Y1265D01*
X11509Y1266D01*
X11510Y1267D01*
X11512Y1268D01*
X11514Y1269D01*
X11519Y1271D01*
X11525Y1273D01*
X11532Y1275D01*
X11539Y1276D01*
X11547Y1277D01*
X11547D01*
X11548D01*
X11549D01*
X11550D01*
X11554Y1276D01*
X11558Y1276D01*
X11564Y1274D01*
X11570Y1272D01*
X11576Y1270D01*
X11583Y1266D01*
X11583D01*
X11584Y1266D01*
X11585Y1265D01*
X11586Y1264D01*
X11589Y1262D01*
X11593Y1258D01*
X11597Y1254D01*
X11602Y1248D01*
X11606Y1242D01*
X11611Y1235D01*
Y1235D01*
X11611Y1236D01*
X11612Y1237D01*
X11612Y1239D01*
X11613Y1241D01*
X11614Y1244D01*
X11617Y1250D01*
X11621Y1257D01*
X11626Y1264D01*
X11631Y1271D01*
X11638Y1277D01*
X11638Y1277D01*
X11639Y1277D01*
X11640Y1278D01*
X11641Y1279D01*
X11643Y1280D01*
X11646Y1281D01*
X11648Y1283D01*
X11651Y1284D01*
X11658Y1287D01*
X11666Y1289D01*
X11675Y1291D01*
X11679Y1292D01*
X11684D01*
X11684D01*
X11685D01*
X11686D01*
X11688D01*
X11690Y1291D01*
D02*
G37*
G36*
X6078Y3647D02*
Y3647D01*
Y3646D01*
Y3644D01*
Y3642D01*
X6078Y3640D01*
X6078Y3637D01*
X6078Y3633D01*
X6078Y3630D01*
X6077Y3622D01*
X6076Y3614D01*
X6074Y3606D01*
X6073Y3602D01*
X6071Y3599D01*
Y3599D01*
X6071Y3598D01*
X6071Y3597D01*
X6070Y3596D01*
X6069Y3594D01*
X6068Y3593D01*
X6066Y3589D01*
X6064Y3586D01*
X6063Y3584D01*
X6060Y3582D01*
X6058Y3579D01*
X6056Y3577D01*
X6053Y3574D01*
X6050Y3572D01*
X6047Y3570D01*
X6046Y3570D01*
X6046Y3570D01*
X6045Y3569D01*
X6043Y3568D01*
X6042Y3567D01*
X6039Y3566D01*
X6037Y3565D01*
X6034Y3565D01*
X6031Y3563D01*
X6027Y3562D01*
X6024Y3561D01*
X6019Y3561D01*
X6015Y3560D01*
X6010Y3559D01*
X6005Y3559D01*
X6000Y3559D01*
X5997D01*
X5995Y3559D01*
X5993D01*
X5990Y3559D01*
X5987Y3560D01*
X5983Y3560D01*
X5976Y3561D01*
X5968Y3563D01*
X5961Y3565D01*
X5957Y3567D01*
X5953Y3568D01*
X5953Y3569D01*
X5952Y3569D01*
X5952Y3570D01*
X5950Y3570D01*
X5949Y3571D01*
X5947Y3573D01*
X5945Y3574D01*
X5944Y3576D01*
X5939Y3580D01*
X5935Y3584D01*
X5931Y3590D01*
X5929Y3593D01*
X5928Y3597D01*
Y3597D01*
X5928Y3597D01*
X5927Y3599D01*
X5927Y3600D01*
X5926Y3602D01*
X5925Y3604D01*
X5925Y3607D01*
X5924Y3610D01*
X5923Y3613D01*
X5923Y3617D01*
X5922Y3621D01*
X5922Y3626D01*
X5921Y3631D01*
X5921Y3636D01*
X5920Y3641D01*
Y3647D01*
Y3763D01*
X5947D01*
Y3647D01*
Y3647D01*
Y3646D01*
Y3645D01*
Y3643D01*
X5947Y3641D01*
Y3638D01*
X5947Y3635D01*
X5947Y3633D01*
X5948Y3626D01*
X5949Y3620D01*
X5950Y3614D01*
X5951Y3611D01*
X5952Y3609D01*
Y3608D01*
X5952Y3608D01*
X5952Y3607D01*
X5952Y3607D01*
X5954Y3604D01*
X5956Y3602D01*
X5958Y3598D01*
X5961Y3595D01*
X5964Y3592D01*
X5968Y3589D01*
X5968D01*
X5969Y3589D01*
X5969Y3589D01*
X5970Y3588D01*
X5971Y3588D01*
X5973Y3587D01*
X5974Y3587D01*
X5976Y3586D01*
X5981Y3585D01*
X5986Y3584D01*
X5991Y3583D01*
X5997Y3583D01*
X6000D01*
X6002Y3583D01*
X6005Y3583D01*
X6007Y3583D01*
X6010Y3584D01*
X6014Y3585D01*
X6020Y3586D01*
X6024Y3587D01*
X6027Y3589D01*
X6031Y3590D01*
X6034Y3592D01*
X6037Y3594D01*
X6039Y3596D01*
X6039Y3596D01*
X6040Y3597D01*
X6040Y3598D01*
X6041Y3599D01*
X6042Y3600D01*
X6043Y3602D01*
X6044Y3605D01*
X6046Y3607D01*
X6047Y3611D01*
X6048Y3614D01*
X6049Y3619D01*
X6050Y3623D01*
X6051Y3628D01*
X6051Y3634D01*
X6052Y3640D01*
X6052Y3647D01*
Y3763D01*
X6078D01*
Y3647D01*
D02*
G37*
G36*
X6206Y3562D02*
X6181D01*
Y3719D01*
X6181Y3719D01*
X6180Y3718D01*
X6178Y3716D01*
X6175Y3714D01*
X6172Y3711D01*
X6167Y3709D01*
X6163Y3706D01*
X6158Y3702D01*
X6157D01*
X6157Y3702D01*
X6156Y3701D01*
X6155Y3701D01*
X6154Y3700D01*
X6152Y3699D01*
X6149Y3697D01*
X6145Y3696D01*
X6141Y3693D01*
X6136Y3691D01*
X6132Y3690D01*
Y3713D01*
X6132Y3714D01*
X6133Y3714D01*
X6134Y3715D01*
X6135Y3715D01*
X6137Y3716D01*
X6139Y3717D01*
X6141Y3719D01*
X6144Y3720D01*
X6150Y3723D01*
X6156Y3728D01*
X6162Y3732D01*
X6168Y3737D01*
X6168Y3737D01*
X6169Y3738D01*
X6169Y3738D01*
X6170Y3739D01*
X6172Y3741D01*
X6173Y3742D01*
X6176Y3746D01*
X6180Y3750D01*
X6184Y3754D01*
X6187Y3759D01*
X6190Y3764D01*
X6206D01*
Y3562D01*
D02*
G37*
%LPC*%
G36*
X11617Y2672D02*
X11617D01*
X11617D01*
X11616D01*
X11614D01*
X11613D01*
X11611D01*
X11605Y2672D01*
X11599Y2671D01*
X11593Y2671D01*
X11585Y2671D01*
X11577Y2670D01*
X11560Y2668D01*
X11552Y2666D01*
X11544Y2665D01*
X11537Y2663D01*
X11530Y2660D01*
X11524Y2658D01*
X11518Y2654D01*
X11518Y2654D01*
X11517Y2654D01*
X11516Y2653D01*
X11515Y2651D01*
X11513Y2650D01*
X11511Y2648D01*
X11508Y2645D01*
X11506Y2643D01*
X11502Y2636D01*
X11498Y2629D01*
X11496Y2625D01*
X11495Y2620D01*
X11494Y2616D01*
X11494Y2611D01*
Y2609D01*
X11494Y2607D01*
X11494Y2605D01*
X11495Y2602D01*
X11496Y2596D01*
X11499Y2590D01*
X11501Y2587D01*
X11503Y2583D01*
X11505Y2580D01*
X11508Y2576D01*
X11512Y2573D01*
X11515Y2570D01*
X11516Y2570D01*
X11517Y2569D01*
X11518Y2568D01*
X11521Y2567D01*
X11524Y2566D01*
X11528Y2564D01*
X11533Y2562D01*
X11539Y2561D01*
X11545Y2559D01*
X11553Y2557D01*
X11561Y2555D01*
X11570Y2554D01*
X11580Y2553D01*
X11592Y2552D01*
X11604Y2551D01*
X11617Y2551D01*
X11618D01*
X11618D01*
X11619D01*
X11621D01*
X11622D01*
X11625D01*
X11630Y2551D01*
X11636Y2552D01*
X11642Y2552D01*
X11650Y2552D01*
X11658Y2553D01*
X11675Y2555D01*
X11683Y2557D01*
X11691Y2558D01*
X11699Y2560D01*
X11705Y2563D01*
X11712Y2566D01*
X11717Y2568D01*
X11717Y2569D01*
X11718Y2569D01*
X11719Y2570D01*
X11721Y2572D01*
X11722Y2573D01*
X11724Y2575D01*
X11729Y2580D01*
X11734Y2587D01*
X11737Y2594D01*
X11739Y2598D01*
X11740Y2602D01*
X11741Y2607D01*
X11741Y2611D01*
Y2612D01*
X11741Y2614D01*
Y2616D01*
X11740Y2618D01*
X11740Y2621D01*
X11738Y2627D01*
X11737Y2630D01*
X11735Y2633D01*
X11733Y2637D01*
X11731Y2640D01*
X11728Y2644D01*
X11725Y2648D01*
X11721Y2651D01*
X11717Y2654D01*
X11716Y2655D01*
X11715Y2655D01*
X11714Y2656D01*
X11712Y2657D01*
X11709Y2659D01*
X11705Y2660D01*
X11700Y2662D01*
X11695Y2663D01*
X11689Y2665D01*
X11681Y2667D01*
X11674Y2668D01*
X11664Y2670D01*
X11654Y2670D01*
X11643Y2671D01*
X11631Y2672D01*
X11617Y2672D01*
D02*
G37*
G36*
X11679Y2431D02*
X11679D01*
X11679D01*
X11678D01*
X11676D01*
X11673Y2431D01*
X11669Y2430D01*
X11664Y2429D01*
X11659Y2428D01*
X11655Y2425D01*
X11650Y2423D01*
X11649Y2422D01*
X11648Y2421D01*
X11645Y2419D01*
X11643Y2416D01*
X11640Y2413D01*
X11637Y2408D01*
X11635Y2404D01*
X11632Y2398D01*
Y2398D01*
X11632Y2398D01*
X11632Y2397D01*
X11631Y2395D01*
X11631Y2394D01*
X11631Y2392D01*
X11630Y2390D01*
X11630Y2387D01*
X11629Y2384D01*
X11629Y2381D01*
X11628Y2377D01*
X11628Y2373D01*
X11627Y2364D01*
X11627Y2354D01*
Y2284D01*
X11731D01*
Y2366D01*
X11731Y2370D01*
Y2375D01*
X11730Y2379D01*
X11730Y2383D01*
X11730Y2387D01*
Y2387D01*
X11729Y2389D01*
X11729Y2392D01*
X11728Y2395D01*
X11727Y2399D01*
X11725Y2402D01*
X11723Y2406D01*
X11721Y2410D01*
X11721Y2410D01*
X11720Y2411D01*
X11719Y2413D01*
X11717Y2415D01*
X11715Y2418D01*
X11712Y2420D01*
X11709Y2423D01*
X11705Y2425D01*
X11704Y2425D01*
X11703Y2426D01*
X11700Y2427D01*
X11697Y2428D01*
X11694Y2429D01*
X11689Y2430D01*
X11684Y2431D01*
X11679Y2431D01*
D02*
G37*
G36*
X11546Y2419D02*
X11546D01*
X11546D01*
X11544D01*
X11541Y2418D01*
X11537Y2418D01*
X11533Y2417D01*
X11529Y2415D01*
X11524Y2414D01*
X11520Y2411D01*
X11519Y2411D01*
X11518Y2410D01*
X11516Y2408D01*
X11514Y2406D01*
X11511Y2403D01*
X11508Y2399D01*
X11506Y2395D01*
X11504Y2390D01*
X11504Y2390D01*
Y2389D01*
X11503Y2388D01*
X11503Y2386D01*
X11503Y2384D01*
X11502Y2382D01*
X11502Y2380D01*
X11501Y2377D01*
X11501Y2373D01*
X11501Y2370D01*
X11500Y2365D01*
X11500Y2361D01*
Y2356D01*
X11500Y2350D01*
Y2284D01*
X11591D01*
Y2356D01*
X11591Y2359D01*
Y2364D01*
X11591Y2370D01*
X11590Y2377D01*
X11589Y2383D01*
X11589Y2385D01*
X11588Y2388D01*
Y2388D01*
X11588Y2388D01*
X11587Y2390D01*
X11586Y2393D01*
X11584Y2396D01*
X11582Y2400D01*
X11580Y2404D01*
X11576Y2407D01*
X11573Y2411D01*
X11572Y2411D01*
X11571Y2412D01*
X11569Y2413D01*
X11566Y2415D01*
X11562Y2416D01*
X11557Y2417D01*
X11552Y2418D01*
X11546Y2419D01*
D02*
G37*
G36*
X11684Y1250D02*
X11684D01*
X11683D01*
X11682D01*
X11681D01*
X11678Y1250D01*
X11674Y1249D01*
X11669Y1248D01*
X11664Y1247D01*
X11659Y1244D01*
X11655Y1241D01*
X11654Y1241D01*
X11653Y1240D01*
X11650Y1238D01*
X11648Y1235D01*
X11645Y1232D01*
X11642Y1227D01*
X11639Y1223D01*
X11637Y1217D01*
Y1217D01*
X11637Y1217D01*
X11637Y1216D01*
X11636Y1214D01*
X11636Y1213D01*
X11636Y1211D01*
X11635Y1209D01*
X11635Y1206D01*
X11634Y1203D01*
X11634Y1199D01*
X11633Y1196D01*
X11633Y1192D01*
X11632Y1183D01*
X11632Y1173D01*
Y1103D01*
X11736D01*
Y1185D01*
X11736Y1189D01*
Y1194D01*
X11735Y1198D01*
X11735Y1202D01*
X11735Y1206D01*
Y1206D01*
X11734Y1208D01*
X11734Y1211D01*
X11733Y1214D01*
X11732Y1217D01*
X11730Y1221D01*
X11728Y1225D01*
X11726Y1229D01*
X11726Y1229D01*
X11725Y1230D01*
X11724Y1232D01*
X11722Y1234D01*
X11720Y1236D01*
X11717Y1239D01*
X11714Y1242D01*
X11710Y1244D01*
X11709Y1244D01*
X11708Y1245D01*
X11705Y1246D01*
X11702Y1247D01*
X11699Y1248D01*
X11694Y1249D01*
X11689Y1250D01*
X11684Y1250D01*
D02*
G37*
G36*
X11551Y1237D02*
X11551D01*
X11551D01*
X11549D01*
X11546Y1237D01*
X11542Y1236D01*
X11538Y1236D01*
X11534Y1234D01*
X11529Y1233D01*
X11525Y1230D01*
X11524Y1230D01*
X11523Y1229D01*
X11521Y1227D01*
X11518Y1225D01*
X11516Y1222D01*
X11513Y1218D01*
X11511Y1214D01*
X11509Y1209D01*
X11509Y1209D01*
Y1208D01*
X11508Y1207D01*
X11508Y1205D01*
X11508Y1203D01*
X11507Y1201D01*
X11507Y1199D01*
X11506Y1196D01*
X11506Y1192D01*
X11506Y1189D01*
X11505Y1184D01*
X11505Y1180D01*
Y1175D01*
X11505Y1169D01*
Y1103D01*
X11596D01*
Y1175D01*
X11596Y1177D01*
Y1183D01*
X11596Y1189D01*
X11595Y1196D01*
X11594Y1202D01*
X11594Y1204D01*
X11593Y1207D01*
Y1207D01*
X11593Y1207D01*
X11592Y1209D01*
X11591Y1212D01*
X11589Y1215D01*
X11587Y1219D01*
X11585Y1223D01*
X11581Y1226D01*
X11578Y1230D01*
X11577Y1230D01*
X11576Y1231D01*
X11574Y1232D01*
X11571Y1234D01*
X11567Y1235D01*
X11562Y1236D01*
X11557Y1237D01*
X11551Y1237D01*
D02*
G37*
%LPD*%
D10*
X14488Y2047D02*
G03*
X14488Y2047I-39J0D01*
G01*
X8465Y4394D02*
G03*
X8465Y4394I-49J0D01*
G01*
X3031Y4252D02*
G03*
X3031Y4252I-39J0D01*
G01*
X14488Y1358D02*
G03*
X14488Y1358I-39J0D01*
G01*
X5079Y4394D02*
G03*
X5079Y4394I-49J0D01*
G01*
D11*
X15902Y2447D02*
G03*
X15902Y702I-154J-872D01*
G01*
X2208D02*
G03*
X2208Y2447I154J872D01*
G01*
D12*
X9213Y4018D02*
G03*
X9213Y4018I-79J0D01*
G01*
X5827D02*
G03*
X5827Y4018I-79J0D01*
G01*
D13*
X13760Y2028D02*
X13760Y1437D01*
X13307Y2028D02*
X13898D01*
X13307Y1437D02*
X13898Y1437D01*
X13307Y1929D02*
Y2028D01*
X13898Y1437D02*
Y2028D01*
X13307Y1437D02*
Y1535D01*
X8858Y825D02*
Y4293D01*
X10118Y825D02*
Y4293D01*
X8858D02*
X10118D01*
X8858Y825D02*
X10118D01*
X13780Y2638D02*
X14173D01*
X7598Y3701D02*
X7992D01*
X3012Y3563D02*
X3602D01*
X3012Y3110D02*
Y3701D01*
X3602Y3110D02*
Y3701D01*
X3012Y3110D02*
X3110D01*
X3012Y3701D02*
X3602D01*
X3504Y3110D02*
X3602D01*
X4213Y3622D02*
X4606D01*
X4213Y1339D02*
X4606D01*
X4213Y2480D02*
X4606D01*
X3701Y2480D02*
X4094D01*
X3701Y1339D02*
X4094D01*
X12795Y2638D02*
X13189D01*
X13307Y748D02*
Y846D01*
X13898Y748D02*
Y1339D01*
X13307Y1240D02*
Y1339D01*
Y748D02*
X13898D01*
X13307Y1339D02*
X13898D01*
X13760Y748D02*
Y1339D01*
X12303Y2539D02*
X12697D01*
X12303Y1280D02*
X12697D01*
X11850Y1870D02*
X12087D01*
X11850Y3130D02*
X12087D01*
X7598Y1339D02*
X7992D01*
X5472Y825D02*
Y4293D01*
X6732Y825D02*
Y4293D01*
X5472D02*
X6732D01*
X5472Y825D02*
X6732D01*
D14*
X13171Y4280D02*
X13971Y4280D01*
X14071Y4180D01*
X14171Y4280D01*
X15071D01*
Y3280D02*
Y4280D01*
X13971Y3280D02*
X14071Y3380D01*
X14171Y3280D01*
X15071D01*
X12071Y3380D02*
X12171Y3280D01*
X11971Y3280D02*
X12071Y3380D01*
X11071Y3280D02*
X11971D01*
X11071D02*
Y4280D01*
X12071Y4180D02*
X12171Y4280D01*
X11971Y4280D02*
X12071Y4180D01*
X11071Y4280D02*
X11971D01*
X13071Y3380D02*
X13171Y3280D01*
X12971D02*
X13071Y3380D01*
X12971Y4280D02*
X13071Y4180D01*
X13171Y4280D01*
X12171Y4280D02*
X12971Y4280D01*
X13171Y3280D02*
X13971Y3280D01*
X12171D02*
X12971Y3280D01*
D15*
X14311Y2608D02*
Y2707D01*
X14626Y2608D02*
Y2707D01*
X13642Y2589D02*
Y2687D01*
X13327Y2589D02*
Y2687D01*
X4055Y3573D02*
Y3671D01*
X3740Y3573D02*
Y3671D01*
X11378Y2608D02*
Y2707D01*
X11063Y2608D02*
Y2707D01*
Y1526D02*
Y1624D01*
X11378Y1526D02*
Y1624D01*
X7953Y2589D02*
Y2687D01*
X7638Y2589D02*
Y2687D01*
M02*
