G04*
G04 #@! TF.GenerationSoftware,Altium Limited,Altium Designer,21.1.1 (26)*
G04*
G04 Layer_Physical_Order=1*
G04 Layer_Color=255*
%FSLAX24Y24*%
%MOIN*%
G70*
G04*
G04 #@! TF.SameCoordinates,808F0F06-89F3-4DF4-9748-8FD306F7A54E*
G04*
G04*
G04 #@! TF.FilePolarity,Positive*
G04*
G01*
G75*
%ADD10C,0.0098*%
G04:AMPARAMS|DCode=16|XSize=35.4mil|YSize=51.2mil|CornerRadius=2.7mil|HoleSize=0mil|Usage=FLASHONLY|Rotation=0.000|XOffset=0mil|YOffset=0mil|HoleType=Round|Shape=RoundedRectangle|*
%AMROUNDEDRECTD16*
21,1,0.0354,0.0459,0,0,0.0*
21,1,0.0301,0.0512,0,0,0.0*
1,1,0.0053,0.0151,-0.0229*
1,1,0.0053,-0.0151,-0.0229*
1,1,0.0053,-0.0151,0.0229*
1,1,0.0053,0.0151,0.0229*
%
%ADD16ROUNDEDRECTD16*%
G04:AMPARAMS|DCode=17|XSize=35.4mil|YSize=51.2mil|CornerRadius=8.9mil|HoleSize=0mil|Usage=FLASHONLY|Rotation=0.000|XOffset=0mil|YOffset=0mil|HoleType=Round|Shape=RoundedRectangle|*
%AMROUNDEDRECTD17*
21,1,0.0354,0.0335,0,0,0.0*
21,1,0.0177,0.0512,0,0,0.0*
1,1,0.0177,0.0089,-0.0167*
1,1,0.0177,-0.0089,-0.0167*
1,1,0.0177,-0.0089,0.0167*
1,1,0.0177,0.0089,0.0167*
%
%ADD17ROUNDEDRECTD17*%
G04:AMPARAMS|DCode=18|XSize=23.6mil|YSize=57.1mil|CornerRadius=1.8mil|HoleSize=0mil|Usage=FLASHONLY|Rotation=90.000|XOffset=0mil|YOffset=0mil|HoleType=Round|Shape=RoundedRectangle|*
%AMROUNDEDRECTD18*
21,1,0.0236,0.0535,0,0,90.0*
21,1,0.0201,0.0571,0,0,90.0*
1,1,0.0035,0.0268,0.0100*
1,1,0.0035,0.0268,-0.0100*
1,1,0.0035,-0.0268,-0.0100*
1,1,0.0035,-0.0268,0.0100*
%
%ADD18ROUNDEDRECTD18*%
G04:AMPARAMS|DCode=19|XSize=23.6mil|YSize=57.1mil|CornerRadius=5.9mil|HoleSize=0mil|Usage=FLASHONLY|Rotation=90.000|XOffset=0mil|YOffset=0mil|HoleType=Round|Shape=RoundedRectangle|*
%AMROUNDEDRECTD19*
21,1,0.0236,0.0453,0,0,90.0*
21,1,0.0118,0.0571,0,0,90.0*
1,1,0.0118,0.0226,0.0059*
1,1,0.0118,0.0226,-0.0059*
1,1,0.0118,-0.0226,-0.0059*
1,1,0.0118,-0.0226,0.0059*
%
%ADD19ROUNDEDRECTD19*%
G04:AMPARAMS|DCode=20|XSize=31.5mil|YSize=31.5mil|CornerRadius=4.7mil|HoleSize=0mil|Usage=FLASHONLY|Rotation=90.000|XOffset=0mil|YOffset=0mil|HoleType=Round|Shape=RoundedRectangle|*
%AMROUNDEDRECTD20*
21,1,0.0315,0.0220,0,0,90.0*
21,1,0.0220,0.0315,0,0,90.0*
1,1,0.0094,0.0110,0.0110*
1,1,0.0094,0.0110,-0.0110*
1,1,0.0094,-0.0110,-0.0110*
1,1,0.0094,-0.0110,0.0110*
%
%ADD20ROUNDEDRECTD20*%
G04:AMPARAMS|DCode=21|XSize=37.4mil|YSize=33.5mil|CornerRadius=5mil|HoleSize=0mil|Usage=FLASHONLY|Rotation=0.000|XOffset=0mil|YOffset=0mil|HoleType=Round|Shape=RoundedRectangle|*
%AMROUNDEDRECTD21*
21,1,0.0374,0.0234,0,0,0.0*
21,1,0.0274,0.0335,0,0,0.0*
1,1,0.0100,0.0137,-0.0117*
1,1,0.0100,-0.0137,-0.0117*
1,1,0.0100,-0.0137,0.0117*
1,1,0.0100,0.0137,0.0117*
%
%ADD21ROUNDEDRECTD21*%
G04:AMPARAMS|DCode=22|XSize=35.4mil|YSize=51.2mil|CornerRadius=2.7mil|HoleSize=0mil|Usage=FLASHONLY|Rotation=90.000|XOffset=0mil|YOffset=0mil|HoleType=Round|Shape=RoundedRectangle|*
%AMROUNDEDRECTD22*
21,1,0.0354,0.0459,0,0,90.0*
21,1,0.0301,0.0512,0,0,90.0*
1,1,0.0053,0.0229,0.0151*
1,1,0.0053,0.0229,-0.0151*
1,1,0.0053,-0.0229,-0.0151*
1,1,0.0053,-0.0229,0.0151*
%
%ADD22ROUNDEDRECTD22*%
G04:AMPARAMS|DCode=23|XSize=35.4mil|YSize=51.2mil|CornerRadius=8.9mil|HoleSize=0mil|Usage=FLASHONLY|Rotation=90.000|XOffset=0mil|YOffset=0mil|HoleType=Round|Shape=RoundedRectangle|*
%AMROUNDEDRECTD23*
21,1,0.0354,0.0335,0,0,90.0*
21,1,0.0177,0.0512,0,0,90.0*
1,1,0.0177,0.0167,0.0089*
1,1,0.0177,0.0167,-0.0089*
1,1,0.0177,-0.0167,-0.0089*
1,1,0.0177,-0.0167,0.0089*
%
%ADD23ROUNDEDRECTD23*%
G04:AMPARAMS|DCode=24|XSize=31.5mil|YSize=31.5mil|CornerRadius=4.7mil|HoleSize=0mil|Usage=FLASHONLY|Rotation=0.000|XOffset=0mil|YOffset=0mil|HoleType=Round|Shape=RoundedRectangle|*
%AMROUNDEDRECTD24*
21,1,0.0315,0.0220,0,0,0.0*
21,1,0.0220,0.0315,0,0,0.0*
1,1,0.0094,0.0110,-0.0110*
1,1,0.0094,-0.0110,-0.0110*
1,1,0.0094,-0.0110,0.0110*
1,1,0.0094,0.0110,0.0110*
%
%ADD24ROUNDEDRECTD24*%
%ADD25R,0.0984X0.1772*%
%ADD38O,0.0591X0.0709*%
G04:AMPARAMS|DCode=39|XSize=59.1mil|YSize=70.9mil|CornerRadius=14.8mil|HoleSize=0mil|Usage=FLASHONLY|Rotation=180.000|XOffset=0mil|YOffset=0mil|HoleType=Round|Shape=RoundedRectangle|*
%AMROUNDEDRECTD39*
21,1,0.0591,0.0413,0,0,180.0*
21,1,0.0295,0.0709,0,0,180.0*
1,1,0.0295,-0.0148,0.0207*
1,1,0.0295,0.0148,0.0207*
1,1,0.0295,0.0148,-0.0207*
1,1,0.0295,-0.0148,-0.0207*
%
%ADD39ROUNDEDRECTD39*%
G04:AMPARAMS|DCode=40|XSize=78.7mil|YSize=98.4mil|CornerRadius=19.7mil|HoleSize=0mil|Usage=FLASHONLY|Rotation=180.000|XOffset=0mil|YOffset=0mil|HoleType=Round|Shape=RoundedRectangle|*
%AMROUNDEDRECTD40*
21,1,0.0787,0.0591,0,0,180.0*
21,1,0.0394,0.0984,0,0,180.0*
1,1,0.0394,-0.0197,0.0295*
1,1,0.0394,0.0197,0.0295*
1,1,0.0394,0.0197,-0.0295*
1,1,0.0394,-0.0197,-0.0295*
%
%ADD40ROUNDEDRECTD40*%
%ADD41C,0.0276*%
G36*
X5539Y3450D02*
Y2771D01*
X5458Y2690D01*
X5374D01*
X5355Y2717D01*
X5310Y2748D01*
X5256Y2759D01*
X4812D01*
X4797Y2779D01*
X4789Y2807D01*
X4842Y2860D01*
X5256D01*
X5310Y2870D01*
X5355Y2901D01*
X5386Y2946D01*
X5396Y3000D01*
Y3118D01*
X5386Y3172D01*
X5355Y3217D01*
X5310Y3248D01*
X5256Y3259D01*
X4803D01*
X4749Y3248D01*
X4728Y3233D01*
X4678Y3260D01*
Y3358D01*
X4728Y3385D01*
X4749Y3370D01*
X4803Y3359D01*
X5256D01*
X5310Y3370D01*
X5355Y3401D01*
X5386Y3446D01*
X5396Y3500D01*
Y3527D01*
X5443Y3546D01*
X5539Y3450D01*
D02*
G37*
G36*
X15077Y3322D02*
X14904D01*
X14854Y3312D01*
X14812Y3284D01*
X14681Y3153D01*
X14670Y3154D01*
X14628Y3182D01*
X14579Y3191D01*
X14358D01*
X14309Y3182D01*
X14267Y3154D01*
X14213Y3162D01*
X14206Y3173D01*
X14164Y3201D01*
X14113Y3211D01*
X13840D01*
X13789Y3201D01*
X13747Y3173D01*
X13733Y3153D01*
X13693Y3137D01*
X13671Y3143D01*
X13644Y3162D01*
X13594Y3172D01*
X13446D01*
X13228Y3389D01*
X13185Y3418D01*
X13136Y3428D01*
X12907D01*
X12883Y3478D01*
X12916Y3521D01*
X12956Y3617D01*
X12970Y3720D01*
Y3730D01*
X12571D01*
X12172D01*
Y3720D01*
X12186Y3617D01*
X12226Y3521D01*
X12259Y3478D01*
X12234Y3428D01*
X11971D01*
X11951Y3424D01*
X11921Y3469D01*
X11932Y3485D01*
X11949Y3573D01*
Y3986D01*
X11932Y4075D01*
X11882Y4149D01*
X11807Y4199D01*
X11718Y4217D01*
X11423D01*
X11335Y4199D01*
X11260Y4149D01*
X11210Y4075D01*
X11192Y3986D01*
Y3573D01*
X11210Y3485D01*
X11260Y3410D01*
X11335Y3360D01*
X11356Y3355D01*
Y3234D01*
X11331Y3213D01*
X11270D01*
Y2953D01*
X11171D01*
Y3213D01*
X11110D01*
X11085Y3234D01*
Y3833D01*
X11075Y3883D01*
X11047Y3925D01*
X10928Y4044D01*
Y4118D01*
X10917Y4172D01*
X10887Y4217D01*
X10841Y4248D01*
X10787Y4259D01*
X10335D01*
X10281Y4248D01*
X10235Y4217D01*
X10205Y4172D01*
X10194Y4118D01*
Y4000D01*
X10205Y3946D01*
X10235Y3901D01*
X10281Y3870D01*
X10335Y3859D01*
X10743D01*
X10796Y3807D01*
X10793Y3793D01*
X10774Y3759D01*
X10335D01*
X10281Y3748D01*
X10235Y3717D01*
X10174Y3715D01*
X10162Y3727D01*
X10082Y3760D01*
X9996D01*
X9917Y3727D01*
X9856Y3666D01*
X9823Y3586D01*
Y3500D01*
X9856Y3421D01*
X9917Y3360D01*
X9996Y3327D01*
X10082D01*
X10162Y3360D01*
X10206Y3404D01*
X10235Y3401D01*
X10281Y3370D01*
X10335Y3359D01*
X10787D01*
X10817Y3335D01*
Y3296D01*
X10777Y3259D01*
X10335D01*
X10281Y3248D01*
X10235Y3217D01*
X10205Y3172D01*
X10194Y3118D01*
Y3000D01*
X10205Y2946D01*
X10235Y2901D01*
X10281Y2870D01*
X10335Y2860D01*
X10431D01*
Y2759D01*
X10335D01*
X10281Y2748D01*
X10235Y2717D01*
X10205Y2672D01*
X10194Y2618D01*
Y2500D01*
X10205Y2446D01*
X10235Y2401D01*
X10281Y2370D01*
X10335Y2360D01*
X10431D01*
Y2259D01*
X10335D01*
X10281Y2248D01*
X10235Y2217D01*
X10205Y2172D01*
X10194Y2118D01*
Y2000D01*
X10164Y1963D01*
X10029D01*
X9137Y2855D01*
X9132Y2920D01*
X9140Y2929D01*
X9173Y3008D01*
Y3094D01*
X9140Y3174D01*
X9079Y3235D01*
X9000Y3268D01*
X8914D01*
X8834Y3235D01*
X8804Y3205D01*
X8747Y3209D01*
X8741Y3217D01*
X8695Y3248D01*
X8642Y3259D01*
X8189D01*
X8164Y3254D01*
X8115Y3303D01*
X8118Y3326D01*
X8172Y3363D01*
X8189Y3359D01*
X8642D01*
X8695Y3370D01*
X8741Y3401D01*
X8745Y3406D01*
X8758Y3410D01*
X8803Y3410D01*
X8854Y3360D01*
X8933Y3327D01*
X9019D01*
X9099Y3360D01*
X9160Y3421D01*
X9193Y3500D01*
Y3586D01*
X9167Y3648D01*
X9210Y3677D01*
X9476Y3411D01*
Y3089D01*
X9423Y3036D01*
X9390Y2956D01*
Y2870D01*
X9423Y2791D01*
X9484Y2730D01*
X9563Y2697D01*
X9649D01*
X9729Y2730D01*
X9790Y2791D01*
X9823Y2870D01*
Y2956D01*
X9790Y3036D01*
X9737Y3089D01*
Y3465D01*
X9727Y3514D01*
X9699Y3557D01*
X9104Y4151D01*
X9062Y4180D01*
X9012Y4190D01*
X8775D01*
X8774Y4197D01*
X8753Y4229D01*
X8721Y4250D01*
X8683Y4258D01*
X8148D01*
X8110Y4250D01*
X8078Y4229D01*
X8026Y4236D01*
X8023Y4237D01*
X7982Y4264D01*
X7932Y4274D01*
X7658D01*
X7608Y4264D01*
X7566Y4236D01*
X7557Y4223D01*
X7501Y4217D01*
X7455Y4248D01*
X7402Y4259D01*
X6949D01*
X6895Y4248D01*
X6849Y4217D01*
X6819Y4172D01*
X6808Y4118D01*
Y4000D01*
X6819Y3946D01*
X6849Y3901D01*
X6895Y3870D01*
X6949Y3859D01*
X7388D01*
X7407Y3825D01*
X7410Y3811D01*
X7358Y3759D01*
X6949D01*
X6895Y3748D01*
X6849Y3717D01*
X6831Y3690D01*
X6748D01*
X6698Y3680D01*
X6656Y3651D01*
X6207Y3202D01*
X6179Y3160D01*
X6169Y3110D01*
Y2735D01*
X6116Y2682D01*
X6083Y2602D01*
Y2558D01*
X6033Y2538D01*
X5800Y2771D01*
Y3504D01*
X5797Y3516D01*
X5792Y3555D01*
X5832Y3580D01*
X5871Y3596D01*
X5932Y3657D01*
X5965Y3736D01*
Y3823D01*
X5932Y3902D01*
X5871Y3963D01*
X5791Y3996D01*
X5716D01*
X5559Y4153D01*
X5517Y4181D01*
X5467Y4191D01*
X5389D01*
X5388Y4197D01*
X5367Y4229D01*
X5335Y4250D01*
X5297Y4258D01*
X4762D01*
X4724Y4250D01*
X4692Y4229D01*
X4671Y4197D01*
X4670Y4194D01*
X4615Y4173D01*
X4597Y4185D01*
X4546Y4195D01*
X4325D01*
X4245Y4275D01*
X4203Y4304D01*
X4153Y4314D01*
X3571D01*
X3522Y4304D01*
X3479Y4275D01*
X3449Y4245D01*
X3140D01*
X3083Y4234D01*
X3033Y4260D01*
Y4367D01*
X15077D01*
Y3322D01*
D02*
G37*
G36*
X6815Y3388D02*
X6794Y3346D01*
X6791D01*
X6693Y3248D01*
Y2953D01*
X6808Y2838D01*
X7535D01*
Y2823D01*
X7545Y2773D01*
X7525Y2753D01*
X7504Y2741D01*
X7464Y2768D01*
X7402Y2780D01*
X7224D01*
Y2559D01*
X7175D01*
Y2510D01*
X6787D01*
Y2500D01*
X6793Y2466D01*
X6758Y2416D01*
X6528D01*
X6495Y2466D01*
X6516Y2516D01*
Y2602D01*
X6483Y2682D01*
X6430Y2735D01*
Y3056D01*
X6766Y3392D01*
X6815Y3388D01*
D02*
G37*
G36*
X15077Y2756D02*
X15083Y2725D01*
X15101Y2699D01*
X15127Y2682D01*
X15157Y2676D01*
X15981D01*
Y2559D01*
X15981Y2536D01*
X15972Y2491D01*
X15955Y2449D01*
X15929Y2410D01*
X15897Y2378D01*
X15858Y2352D01*
X15816Y2335D01*
X15771Y2326D01*
X15748D01*
X15744Y2325D01*
X15740Y2326D01*
X15682Y2323D01*
X15671Y2320D01*
X15659D01*
X15545Y2297D01*
X15531Y2291D01*
X15515Y2288D01*
X15408Y2244D01*
X15395Y2235D01*
X15380Y2229D01*
X15284Y2165D01*
X15273Y2154D01*
X15260Y2145D01*
X15178Y2063D01*
X15169Y2050D01*
X15158Y2039D01*
X15094Y1942D01*
X15088Y1928D01*
X15079Y1915D01*
X15035Y1808D01*
X15031Y1792D01*
X15025Y1778D01*
X15003Y1664D01*
Y1648D01*
X15000Y1633D01*
Y1517D01*
X15003Y1501D01*
Y1486D01*
X15025Y1372D01*
X15031Y1357D01*
X15035Y1342D01*
X15079Y1235D01*
X15088Y1222D01*
X15094Y1207D01*
X15158Y1111D01*
X15169Y1100D01*
X15178Y1087D01*
X15260Y1005D01*
X15273Y996D01*
X15284Y985D01*
X15380Y920D01*
X15395Y914D01*
X15408Y906D01*
X15515Y861D01*
X15531Y858D01*
X15545Y852D01*
X15659Y830D01*
X15671D01*
X15682Y827D01*
X15740Y824D01*
X15744Y824D01*
X15748Y824D01*
X15945D01*
X15955Y810D01*
X15959Y795D01*
X15923Y751D01*
X14450Y751D01*
X14423Y801D01*
X14429Y811D01*
X14442Y876D01*
Y1211D01*
X14429Y1276D01*
X14392Y1331D01*
X14349Y1360D01*
X14346Y1372D01*
Y1404D01*
X14349Y1416D01*
X14392Y1444D01*
X14429Y1500D01*
X14442Y1565D01*
Y1900D01*
X14429Y1965D01*
X14392Y2020D01*
X14337Y2057D01*
X14351Y2103D01*
X14358Y2102D01*
X14419D01*
Y2362D01*
X14469D01*
Y2411D01*
X14729D01*
Y2472D01*
X14717Y2530D01*
X14685Y2579D01*
X14636Y2611D01*
X14579Y2623D01*
X14443D01*
X14424Y2669D01*
X14469Y2714D01*
X14579D01*
X14628Y2724D01*
X14670Y2752D01*
X14697Y2793D01*
X14707Y2843D01*
Y2873D01*
X14716D01*
X14766Y2883D01*
X14808Y2911D01*
X14958Y3061D01*
X15077D01*
Y2756D01*
D02*
G37*
G36*
X13533Y2082D02*
X13594D01*
X13652Y2094D01*
X13683Y2115D01*
X13701Y2126D01*
X13746Y2104D01*
X13747Y2103D01*
X13789Y2074D01*
X13840Y2064D01*
X13950D01*
X13963Y2040D01*
X13970Y2014D01*
X13937Y1965D01*
X13924Y1900D01*
X13874Y1869D01*
X13823Y1890D01*
X13736D01*
X13657Y1857D01*
X13596Y1796D01*
X13563Y1716D01*
Y1630D01*
X13596Y1551D01*
X13641Y1506D01*
X13596Y1461D01*
X13563Y1382D01*
Y1296D01*
X13596Y1216D01*
X13657Y1155D01*
X13736Y1122D01*
X13823D01*
X13890Y1150D01*
X13924Y1116D01*
Y876D01*
X13937Y811D01*
X13943Y801D01*
X13917Y751D01*
X13273D01*
X13238Y801D01*
X13240Y814D01*
Y1273D01*
X13232Y1314D01*
X13209Y1349D01*
X13192Y1360D01*
X13191Y1360D01*
Y1415D01*
X13192Y1416D01*
X13209Y1427D01*
X13232Y1462D01*
X13240Y1503D01*
Y1962D01*
X13232Y2003D01*
X13209Y2038D01*
X13231Y2083D01*
X13237Y2088D01*
X13263Y2126D01*
X13268D01*
X13317Y2094D01*
X13374Y2082D01*
X13435D01*
Y2343D01*
X13533D01*
Y2082D01*
D02*
G37*
G36*
X6008Y2193D02*
X6050Y2165D01*
X6073Y2160D01*
X6105Y2109D01*
X6094Y2082D01*
Y2027D01*
X5531Y1463D01*
X5427D01*
X5396Y1500D01*
Y1618D01*
X5386Y1672D01*
X5355Y1717D01*
X5310Y1748D01*
X5256Y1759D01*
X4833D01*
X4817Y1769D01*
X4767Y1779D01*
X4678D01*
Y1781D01*
X4668Y1831D01*
X4639Y1873D01*
X4653Y1901D01*
X4704Y1901D01*
X4749Y1870D01*
X4803Y1860D01*
X5256D01*
X5310Y1870D01*
X5355Y1901D01*
X5386Y1946D01*
X5396Y2000D01*
Y2118D01*
X5386Y2172D01*
X5355Y2217D01*
X5310Y2248D01*
X5256Y2259D01*
X4894D01*
Y2283D01*
X4889Y2309D01*
X4914Y2351D01*
X4922Y2360D01*
X5256D01*
X5310Y2370D01*
X5355Y2401D01*
X5374Y2429D01*
X5512D01*
X5562Y2439D01*
X5604Y2467D01*
X5669Y2532D01*
X6008Y2193D01*
D02*
G37*
G36*
X9500Y1240D02*
X9543Y1212D01*
X9593Y1202D01*
X9788D01*
X9816Y1161D01*
X9802Y1127D01*
Y1041D01*
X9835Y961D01*
X9896Y900D01*
X9976Y867D01*
X10062D01*
X10141Y900D01*
X10163Y921D01*
X10226Y914D01*
X10235Y901D01*
X10281Y870D01*
X10335Y860D01*
X10787D01*
X10841Y870D01*
X10887Y901D01*
X10917Y946D01*
X10928Y1000D01*
Y1094D01*
X10930Y1095D01*
X10978Y1102D01*
X11004Y1063D01*
X11053Y1031D01*
X11110Y1019D01*
X11171D01*
Y1280D01*
X11270D01*
Y1019D01*
X11331D01*
X11388Y1031D01*
X11437Y1063D01*
X11490Y1052D01*
X11494Y1033D01*
X11522Y990D01*
X11620Y892D01*
X11663Y864D01*
X11713Y854D01*
X11730D01*
X11740Y805D01*
X11742Y801D01*
X11716Y751D01*
X8071Y751D01*
X8065Y758D01*
X8049Y801D01*
X8074Y838D01*
X8111Y853D01*
X8127Y850D01*
X8189Y838D01*
X8366D01*
Y1059D01*
Y1280D01*
X8232D01*
X8213Y1325D01*
X8240Y1360D01*
X8642D01*
X8695Y1370D01*
X8741Y1401D01*
X8747Y1409D01*
X8797Y1414D01*
X8820Y1391D01*
X8899Y1358D01*
X8986D01*
X9065Y1391D01*
X9126Y1452D01*
X9153Y1517D01*
X9205Y1535D01*
X9500Y1240D01*
D02*
G37*
G36*
X2970Y2661D02*
Y2635D01*
X2979Y2594D01*
X3002Y2559D01*
X3037Y2536D01*
X3078Y2527D01*
X3536D01*
X3578Y2536D01*
X3612Y2559D01*
X3622Y2574D01*
X3632Y2578D01*
X3677Y2585D01*
X3685Y2584D01*
X3711Y2567D01*
X3761Y2557D01*
X4034D01*
X4070Y2564D01*
X4095Y2518D01*
X3981Y2404D01*
X3761D01*
X3711Y2394D01*
X3668Y2366D01*
X3639Y2323D01*
X3629Y2273D01*
Y2038D01*
X3639Y1988D01*
X3668Y1945D01*
X3677Y1940D01*
Y1879D01*
X3668Y1873D01*
X3639Y1831D01*
X3629Y1781D01*
Y1546D01*
X3639Y1496D01*
X3668Y1453D01*
X3711Y1425D01*
X3761Y1415D01*
X4034D01*
X4085Y1425D01*
X4127Y1453D01*
X4129Y1455D01*
X4179D01*
X4180Y1453D01*
X4222Y1425D01*
X4273Y1415D01*
X4546D01*
X4582Y1422D01*
X4607Y1376D01*
X4493Y1262D01*
X4273D01*
X4222Y1252D01*
X4180Y1224D01*
X4179Y1222D01*
X4129D01*
X4127Y1224D01*
X4085Y1252D01*
X4034Y1262D01*
X3761D01*
X3711Y1252D01*
X3668Y1224D01*
X3639Y1181D01*
X3631Y1141D01*
X3606Y1120D01*
X3579Y1109D01*
X3547Y1122D01*
X3461D01*
X3381Y1089D01*
X3320Y1028D01*
X3287Y949D01*
Y862D01*
X3313Y801D01*
X3287Y751D01*
X2181D01*
X2154Y796D01*
X2178Y824D01*
X2362D01*
X2366Y824D01*
X2370Y824D01*
X2428Y827D01*
X2440Y830D01*
X2451D01*
X2565Y852D01*
X2580Y858D01*
X2595Y861D01*
X2702Y906D01*
X2715Y914D01*
X2730Y920D01*
X2826Y985D01*
X2837Y996D01*
X2850Y1005D01*
X2932Y1087D01*
X2941Y1100D01*
X2952Y1111D01*
X3017Y1207D01*
X3023Y1222D01*
X3031Y1235D01*
X3076Y1342D01*
X3079Y1357D01*
X3085Y1372D01*
X3107Y1486D01*
Y1501D01*
X3110Y1517D01*
Y1633D01*
X3107Y1648D01*
Y1664D01*
X3085Y1778D01*
X3079Y1792D01*
X3076Y1808D01*
X3031Y1915D01*
X3023Y1928D01*
X3017Y1942D01*
X2952Y2039D01*
X2941Y2050D01*
X2932Y2063D01*
X2850Y2145D01*
X2837Y2154D01*
X2826Y2165D01*
X2730Y2229D01*
X2715Y2235D01*
X2702Y2244D01*
X2595Y2288D01*
X2580Y2291D01*
X2565Y2297D01*
X2451Y2320D01*
X2440D01*
X2428Y2323D01*
X2370Y2326D01*
X2366Y2325D01*
X2362Y2326D01*
X2339D01*
X2294Y2335D01*
X2252Y2352D01*
X2214Y2378D01*
X2181Y2410D01*
X2156Y2449D01*
X2138Y2491D01*
X2129Y2536D01*
Y2676D01*
X2953D01*
X2970Y2661D01*
D02*
G37*
G36*
X6849Y1401D02*
X6895Y1370D01*
X6949Y1360D01*
X7388D01*
X7407Y1325D01*
X7410Y1311D01*
X7358Y1259D01*
X6949D01*
X6895Y1248D01*
X6849Y1217D01*
X6819Y1172D01*
X6808Y1118D01*
Y1000D01*
X6819Y946D01*
X6849Y901D01*
X6895Y870D01*
X6949Y860D01*
X7402D01*
X7455Y870D01*
X7459Y873D01*
X7515Y850D01*
X7517Y838D01*
X7542Y801D01*
X7526Y758D01*
X7520Y751D01*
X6169D01*
X6159Y801D01*
X6205Y820D01*
X6266Y881D01*
X6299Y961D01*
Y1036D01*
X6692Y1429D01*
X6831D01*
X6849Y1401D01*
D02*
G37*
%LPC*%
G36*
X12620Y4231D02*
Y3829D01*
X12970D01*
Y3839D01*
X12956Y3942D01*
X12916Y4038D01*
X12853Y4121D01*
X12770Y4184D01*
X12674Y4224D01*
X12620Y4231D01*
D02*
G37*
G36*
X12522D02*
X12468Y4224D01*
X12372Y4184D01*
X12289Y4121D01*
X12226Y4038D01*
X12186Y3942D01*
X12172Y3839D01*
Y3829D01*
X12522D01*
Y4231D01*
D02*
G37*
G36*
X14571Y4216D02*
X14473Y4203D01*
X14382Y4165D01*
X14304Y4105D01*
X14244Y4027D01*
X14206Y3936D01*
X14194Y3839D01*
Y3720D01*
X14206Y3623D01*
X14244Y3532D01*
X14304Y3454D01*
X14382Y3394D01*
X14473Y3356D01*
X14571Y3343D01*
X14669Y3356D01*
X14759Y3394D01*
X14838Y3454D01*
X14898Y3532D01*
X14935Y3623D01*
X14948Y3720D01*
Y3839D01*
X14935Y3936D01*
X14898Y4027D01*
X14838Y4105D01*
X14759Y4165D01*
X14669Y4203D01*
X14571Y4216D01*
D02*
G37*
G36*
X13571D02*
X13473Y4203D01*
X13382Y4165D01*
X13304Y4105D01*
X13244Y4027D01*
X13206Y3936D01*
X13194Y3839D01*
Y3720D01*
X13206Y3623D01*
X13244Y3532D01*
X13304Y3454D01*
X13382Y3394D01*
X13473Y3356D01*
X13571Y3343D01*
X13669Y3356D01*
X13759Y3394D01*
X13838Y3454D01*
X13898Y3532D01*
X13935Y3623D01*
X13948Y3720D01*
Y3839D01*
X13935Y3936D01*
X13898Y4027D01*
X13838Y4105D01*
X13759Y4165D01*
X13669Y4203D01*
X13571Y4216D01*
D02*
G37*
G36*
X7126Y2780D02*
X6949D01*
X6887Y2768D01*
X6834Y2733D01*
X6799Y2680D01*
X6787Y2618D01*
Y2608D01*
X7126D01*
Y2780D01*
D02*
G37*
G36*
X14729Y2313D02*
X14518D01*
Y2102D01*
X14579D01*
X14636Y2113D01*
X14685Y2146D01*
X14717Y2195D01*
X14729Y2252D01*
Y2313D01*
D02*
G37*
G36*
X8642Y1280D02*
X8465D01*
Y1108D01*
X8804D01*
Y1118D01*
X8792Y1180D01*
X8756Y1233D01*
X8704Y1268D01*
X8642Y1280D01*
D02*
G37*
G36*
X8804Y1010D02*
X8465D01*
Y838D01*
X8642D01*
X8704Y850D01*
X8756Y885D01*
X8792Y938D01*
X8804Y1000D01*
Y1010D01*
D02*
G37*
%LPD*%
D10*
X12262Y2538D02*
X12288Y2565D01*
X12254Y2510D02*
Y2554D01*
X12288Y2672D02*
X12481Y2864D01*
X11968Y2224D02*
X12254Y2510D01*
X12481Y2864D02*
X12500D01*
X12288Y2565D02*
Y2672D01*
X11427Y2457D02*
X11654Y2683D01*
Y2980D02*
X11971Y3297D01*
X11654Y2683D02*
Y2980D01*
X12077Y2963D02*
X12077D01*
X12254Y3140D02*
X12795D01*
X12077Y2963D02*
X12254Y3140D01*
X11914Y2799D02*
X12077Y2963D01*
X11703Y2399D02*
X11914Y2610D01*
Y2799D01*
X11703Y1900D02*
Y2399D01*
X12982Y1673D02*
Y1752D01*
X12776Y1880D02*
X12854D01*
X12982Y1752D01*
X13780Y1673D02*
X14183D01*
X12637Y2019D02*
X12776Y1880D01*
X12637Y2019D02*
Y2097D01*
X12519Y2215D02*
X12637Y2097D01*
X12500Y2215D02*
X12519D01*
X13484Y2933D02*
X13499Y2948D01*
X13962D01*
X13976Y2963D01*
X12992Y2313D02*
X13007Y2328D01*
X13420D01*
X13484Y2264D01*
Y2343D01*
X13474Y1900D02*
Y2249D01*
X12972Y2963D02*
X12992D01*
X12795Y3140D02*
X12972Y2963D01*
X13136Y3297D02*
X13376Y3057D01*
X11971Y3297D02*
X13136D01*
X11220Y1870D02*
Y1969D01*
X14114Y2431D02*
Y2543D01*
X13996Y2313D02*
X14114Y2431D01*
X13976Y2313D02*
X13996D01*
X14468Y2898D02*
Y2953D01*
X14114Y2543D02*
X14468Y2898D01*
X13376Y3041D02*
X13484Y2933D01*
X13376Y3041D02*
Y3057D01*
X11315Y2457D02*
X11427D01*
X11295Y2437D02*
X11315Y2457D01*
X11220Y1870D02*
Y1969D01*
X13465Y1890D02*
X13474Y1900D01*
X11703Y1900D02*
X12008Y1594D01*
X3365Y3976D02*
X3444Y4056D01*
X3571Y4183D01*
X3307Y3986D02*
X3331Y4010D01*
X3411Y4090D01*
X11486Y3695D02*
X11571Y3780D01*
X11486Y2778D02*
Y3695D01*
X11295Y2587D02*
X11486Y2778D01*
X11295Y2437D02*
Y2587D01*
X3538Y939D02*
X3823D01*
X3898Y1014D01*
X3504Y906D02*
X3538Y939D01*
X7722Y1717D02*
X7795Y1644D01*
X6083Y1004D02*
X6638Y1559D01*
X7175D01*
X7568Y807D02*
X7775Y1014D01*
X6652Y1024D02*
X6869Y807D01*
X7568D01*
X9606Y2913D02*
Y3465D01*
X8415Y4059D02*
X9012D01*
X9606Y3465D01*
X9301Y3297D02*
X9316Y3282D01*
X7795Y3337D02*
Y3376D01*
X7874Y3297D02*
X9301D01*
X7795Y3376D02*
X7874Y3297D01*
X7795Y2972D02*
Y3337D01*
X14468Y2953D02*
X14519Y3003D01*
X14716D01*
X14904Y3192D01*
X15257D01*
X15551Y3485D01*
Y3543D01*
X14468Y2362D02*
X14764Y2657D01*
X14862D01*
X4409Y1663D02*
X4409Y1663D01*
Y2156D01*
X4424Y1649D02*
X4767D01*
X4409Y1663D02*
X4424Y1649D01*
X4869Y1547D02*
X5017D01*
X4767Y1649D02*
X4869Y1547D01*
X4748Y1333D02*
X5585D01*
X4429Y1014D02*
X4748Y1333D01*
X4409Y1014D02*
X4429D01*
X5585Y1333D02*
X6301Y2049D01*
X3307Y3976D02*
X3365D01*
X3571Y4183D02*
X4153D01*
X7775Y1014D02*
X7795D01*
X3597Y3617D02*
X3898Y3917D01*
X3538Y3617D02*
X3597D01*
X3504Y3583D02*
X3538Y3617D01*
X2736Y3327D02*
X3898D01*
X2520Y3543D02*
X2736Y3327D01*
X6654Y3071D02*
X6665Y3059D01*
X7175D01*
X7795Y2343D02*
X8022Y2569D01*
Y2687D01*
X8120Y2785D02*
X9022D01*
X8022Y2687D02*
X8120Y2785D01*
X7658Y3875D02*
Y3908D01*
X7776Y4026D01*
X7795D01*
X7343Y3559D02*
X7658Y3875D01*
X7175Y3559D02*
X7343D01*
X7434Y2972D02*
X7756D01*
X7795Y2933D01*
X7348Y3059D02*
X7434Y2972D01*
X7175Y3059D02*
X7348D01*
X10894Y1870D02*
X11220D01*
X10857Y1833D02*
X10894Y1870D01*
X9975Y1833D02*
X10857D01*
X9022Y2785D02*
X9975Y1833D01*
X7520Y2382D02*
X7756D01*
X7795Y2343D01*
X7424Y2285D02*
X7520Y2382D01*
X6100Y2285D02*
X7424D01*
X5669Y2717D02*
X6100Y2285D01*
X5031Y4061D02*
X5467D01*
X5748Y3780D01*
X5030Y4059D02*
X5031Y4061D01*
X4208Y3574D02*
X5014D01*
X4069Y3435D02*
X4208Y3574D01*
X3898Y3327D02*
X4006Y3435D01*
X4069D01*
X3307Y2785D02*
X3327Y2805D01*
X3898D01*
X4389Y3947D02*
X4409D01*
X4153Y4183D02*
X4389Y3947D01*
X13920Y1305D02*
X14183Y1042D01*
X13780Y1339D02*
X13813Y1305D01*
X14183Y984D02*
Y1042D01*
X13813Y1305D02*
X13920D01*
X11220Y945D02*
Y1280D01*
X10974Y945D02*
X11220D01*
X10862Y833D02*
X10974Y945D01*
X9867Y833D02*
X10862D01*
X9641Y1059D02*
X9867Y833D01*
X10561Y2059D02*
Y2559D01*
X11220Y2362D02*
X11295Y2437D01*
X10955Y2931D02*
Y3833D01*
X10561Y4059D02*
X10728D01*
X10955Y3833D01*
X10955Y2628D02*
Y2931D01*
Y2628D02*
X11220Y2362D01*
X10955Y2931D02*
X10955Y2931D01*
X11220Y2953D02*
Y3248D01*
Y1978D02*
Y2362D01*
Y1978D02*
X11230Y1969D01*
X11233D01*
X11220Y1870D02*
Y1969D01*
X8415Y1059D02*
X9641D01*
X11486Y1604D02*
X11614Y1476D01*
X11012Y1604D02*
X11486D01*
X10955Y1547D02*
X11012Y1604D01*
X10955Y1390D02*
Y1547D01*
X11614Y1083D02*
X11713Y984D01*
X11614Y1083D02*
Y1476D01*
X10897Y1333D02*
X10955Y1390D01*
X9593Y1333D02*
X10897D01*
X10039Y3543D02*
X10047Y3551D01*
X10553D02*
X10561Y3559D01*
X10047Y3551D02*
X10553D01*
X11988Y984D02*
X12008Y965D01*
X11713Y984D02*
X11988D01*
X8866Y2059D02*
X9593Y1333D01*
X9850Y1567D02*
X10569D01*
X8858Y2559D02*
X9850Y1567D01*
X8415Y2559D02*
X8858D01*
X8415Y2059D02*
X8866D01*
X8949Y3059D02*
X8957Y3051D01*
X8415Y3059D02*
X8949D01*
X8431Y1575D02*
X8943D01*
X8415Y1559D02*
X8431Y1575D01*
X6311Y2059D02*
X7175D01*
X7697D02*
X8415D01*
X7471Y1833D02*
X7697Y2059D01*
X6459Y1833D02*
X7471D01*
X5685Y1059D02*
X6459Y1833D01*
X5030Y1059D02*
X5685D01*
X12363Y1320D02*
Y1486D01*
X12481Y1604D01*
X12008Y965D02*
X12363Y1320D01*
X12481Y1604D02*
X12500D01*
X12953Y955D02*
X12982Y984D01*
X12500Y955D02*
X12953D01*
X10536Y1084D02*
X10561Y1059D01*
X10019Y1084D02*
X10536D01*
X7795Y1014D02*
X7818Y1036D01*
X8393D01*
X8415Y1059D01*
X8248Y1559D02*
X8415D01*
X8028Y1339D02*
X8248Y1559D01*
X7622Y1339D02*
X8028D01*
X7343Y1059D02*
X7622Y1339D01*
X7175Y1059D02*
X7343D01*
X7227Y1611D02*
X7763D01*
X7175Y1559D02*
X7227Y1611D01*
X7763D02*
X7795Y1644D01*
X8961Y3559D02*
X8976Y3543D01*
X8415Y3559D02*
X8961D01*
X10561Y2559D02*
Y3059D01*
X6299Y2559D02*
Y3110D01*
X6748Y3559D01*
X7175D01*
Y2559D02*
Y3059D01*
X5341Y3833D02*
X5669Y3504D01*
X5512Y2559D02*
X5669Y2717D01*
Y3504D01*
X4409Y3947D02*
X4524Y3833D01*
X5341D01*
X4764Y2163D02*
X4868Y2059D01*
X5030D01*
X4764Y2163D02*
Y2283D01*
X4567Y2480D02*
X4764Y2283D01*
X3898Y2156D02*
X3917D01*
X4242Y2480D01*
X4567D01*
X5014Y3574D02*
X5030Y3559D01*
X4409Y2805D02*
Y2874D01*
Y3297D01*
X4857Y3059D02*
X5030D01*
X4672Y2874D02*
X4857Y3059D01*
X4419Y2874D02*
X4672D01*
X4409Y3297D02*
X4409Y3297D01*
X3898Y2805D02*
Y3327D01*
X3898Y1663D02*
X3898Y1663D01*
Y2156D01*
X5030Y2559D02*
X5512D01*
D16*
X12982Y1732D02*
D03*
Y1043D02*
D03*
D17*
X14183Y1732D02*
D03*
Y1043D02*
D03*
D18*
X8415Y4059D02*
D03*
X5030D02*
D03*
D19*
X8415Y3559D02*
D03*
Y3059D02*
D03*
Y2559D02*
D03*
X10561Y4059D02*
D03*
Y3559D02*
D03*
Y3059D02*
D03*
Y2559D02*
D03*
X8415Y1559D02*
D03*
Y1059D02*
D03*
X10561Y2059D02*
D03*
Y1559D02*
D03*
Y1059D02*
D03*
X8415Y2059D02*
D03*
X5030Y3559D02*
D03*
Y3059D02*
D03*
Y2559D02*
D03*
X7175Y4059D02*
D03*
Y3559D02*
D03*
Y3059D02*
D03*
Y2559D02*
D03*
X5030Y1559D02*
D03*
Y1059D02*
D03*
X7175Y2059D02*
D03*
Y1559D02*
D03*
Y1059D02*
D03*
X5030Y2059D02*
D03*
D20*
X14468Y2953D02*
D03*
Y2362D02*
D03*
X13484Y2343D02*
D03*
Y2933D02*
D03*
X3898Y3327D02*
D03*
Y3917D02*
D03*
X11220Y2362D02*
D03*
Y2953D02*
D03*
Y1870D02*
D03*
Y1280D02*
D03*
X7795Y2343D02*
D03*
Y2933D02*
D03*
D21*
X13976Y2963D02*
D03*
Y2313D02*
D03*
X7795Y3376D02*
D03*
Y4026D02*
D03*
X4409Y3947D02*
D03*
Y3297D02*
D03*
Y1663D02*
D03*
Y1014D02*
D03*
X4409Y2805D02*
D03*
Y2156D02*
D03*
X3898Y2805D02*
D03*
Y2156D02*
D03*
Y1663D02*
D03*
Y1014D02*
D03*
X12992Y2963D02*
D03*
Y2313D02*
D03*
X12500Y2215D02*
D03*
Y2864D02*
D03*
Y955D02*
D03*
Y1604D02*
D03*
X7795Y1014D02*
D03*
Y1663D02*
D03*
D22*
X3307Y2785D02*
D03*
D23*
Y3986D02*
D03*
D24*
X11968Y1594D02*
D03*
Y965D02*
D03*
Y2854D02*
D03*
Y2224D02*
D03*
D25*
X15650Y3642D02*
D03*
X2461D02*
D03*
D38*
X14571Y3780D02*
D03*
X13571D02*
D03*
X12571D02*
D03*
D39*
X11571D02*
D03*
D40*
X15591Y3543D02*
D03*
X2520D02*
D03*
D41*
X3465Y2362D02*
D03*
X12254Y2554D02*
D03*
X3504Y906D02*
D03*
X6083Y1004D02*
D03*
X9606Y2913D02*
D03*
X9316Y3282D02*
D03*
X9252Y1063D02*
D03*
X10039Y2165D02*
D03*
X9528Y4094D02*
D03*
X6535Y4055D02*
D03*
X5984Y2795D02*
D03*
X5669Y2047D02*
D03*
X14961Y4213D02*
D03*
X14606Y906D02*
D03*
X13465Y945D02*
D03*
X14862Y2657D02*
D03*
X6654Y1063D02*
D03*
X3504Y3583D02*
D03*
X6654Y3071D02*
D03*
X5748Y3780D02*
D03*
X11201Y3297D02*
D03*
X13780Y1339D02*
D03*
X13465Y1890D02*
D03*
X11220Y945D02*
D03*
X10039Y3543D02*
D03*
X8957Y3051D02*
D03*
X8943Y1575D02*
D03*
X6311Y2039D02*
D03*
X6299Y2559D02*
D03*
X13780Y1673D02*
D03*
X10019Y1084D02*
D03*
X8976Y3543D02*
D03*
M02*
