G04*
G04 #@! TF.GenerationSoftware,Altium Limited,Altium Designer,20.1.11 (218)*
G04*
G04 Layer_Physical_Order=1*
G04 Layer_Color=255*
%FSLAX25Y25*%
%MOIN*%
G70*
G04*
G04 #@! TF.SameCoordinates,12770DE6-1CAA-4FEE-BE88-2AEBEB1706B4*
G04*
G04*
G04 #@! TF.FilePolarity,Positive*
G04*
G01*
G75*
G04:AMPARAMS|DCode=15|XSize=165.35mil|YSize=57.09mil|CornerRadius=4.28mil|HoleSize=0mil|Usage=FLASHONLY|Rotation=270.000|XOffset=0mil|YOffset=0mil|HoleType=Round|Shape=RoundedRectangle|*
%AMROUNDEDRECTD15*
21,1,0.16535,0.04852,0,0,270.0*
21,1,0.15679,0.05709,0,0,270.0*
1,1,0.00856,-0.02426,-0.07840*
1,1,0.00856,-0.02426,0.07840*
1,1,0.00856,0.02426,0.07840*
1,1,0.00856,0.02426,-0.07840*
%
%ADD15ROUNDEDRECTD15*%
G04:AMPARAMS|DCode=16|XSize=165.35mil|YSize=57.09mil|CornerRadius=14.27mil|HoleSize=0mil|Usage=FLASHONLY|Rotation=270.000|XOffset=0mil|YOffset=0mil|HoleType=Round|Shape=RoundedRectangle|*
%AMROUNDEDRECTD16*
21,1,0.16535,0.02854,0,0,270.0*
21,1,0.13681,0.05709,0,0,270.0*
1,1,0.02854,-0.01427,-0.06841*
1,1,0.02854,-0.01427,0.06841*
1,1,0.02854,0.01427,0.06841*
1,1,0.02854,0.01427,-0.06841*
%
%ADD16ROUNDEDRECTD16*%
%ADD27C,0.05906*%
%ADD28O,0.09843X0.12598*%
%ADD29C,0.09843*%
%ADD30O,0.06693X0.07874*%
G04:AMPARAMS|DCode=31|XSize=66.93mil|YSize=78.74mil|CornerRadius=16.73mil|HoleSize=0mil|Usage=FLASHONLY|Rotation=0.000|XOffset=0mil|YOffset=0mil|HoleType=Round|Shape=RoundedRectangle|*
%AMROUNDEDRECTD31*
21,1,0.06693,0.04528,0,0,0.0*
21,1,0.03347,0.07874,0,0,0.0*
1,1,0.03346,0.01673,-0.02264*
1,1,0.03346,-0.01673,-0.02264*
1,1,0.03346,-0.01673,0.02264*
1,1,0.03346,0.01673,0.02264*
%
%ADD31ROUNDEDRECTD31*%
G04:AMPARAMS|DCode=32|XSize=125.98mil|YSize=125.98mil|CornerRadius=62.99mil|HoleSize=0mil|Usage=FLASHONLY|Rotation=0.000|XOffset=0mil|YOffset=0mil|HoleType=Round|Shape=RoundedRectangle|*
%AMROUNDEDRECTD32*
21,1,0.12598,0.00000,0,0,0.0*
21,1,0.00000,0.12598,0,0,0.0*
1,1,0.12598,0.00000,0.00000*
1,1,0.12598,0.00000,0.00000*
1,1,0.12598,0.00000,0.00000*
1,1,0.12598,0.00000,0.00000*
%
%ADD32ROUNDEDRECTD32*%
%ADD33O,0.07087X0.07874*%
G04:AMPARAMS|DCode=34|XSize=70.87mil|YSize=78.74mil|CornerRadius=17.72mil|HoleSize=0mil|Usage=FLASHONLY|Rotation=180.000|XOffset=0mil|YOffset=0mil|HoleType=Round|Shape=RoundedRectangle|*
%AMROUNDEDRECTD34*
21,1,0.07087,0.04331,0,0,180.0*
21,1,0.03543,0.07874,0,0,180.0*
1,1,0.03543,-0.01772,0.02165*
1,1,0.03543,0.01772,0.02165*
1,1,0.03543,0.01772,-0.02165*
1,1,0.03543,-0.01772,-0.02165*
%
%ADD34ROUNDEDRECTD34*%
%ADD35O,0.23622X0.31496*%
G36*
X188976Y140127D02*
X191017D01*
X191150Y140071D01*
X191253Y139969D01*
X191308Y139836D01*
Y135827D01*
X191316Y135788D01*
X191310Y135748D01*
X191338Y135169D01*
X191367Y135054D01*
Y134935D01*
X191593Y133799D01*
X191653Y133653D01*
X191684Y133498D01*
X192127Y132429D01*
X192215Y132297D01*
X192276Y132151D01*
X192919Y131188D01*
X193031Y131077D01*
X193119Y130945D01*
X193937Y130126D01*
X194069Y130039D01*
X194181Y129927D01*
X195143Y129284D01*
X195289Y129223D01*
X195421Y129135D01*
X196490Y128692D01*
X196645Y128661D01*
X196791Y128601D01*
X197927Y128375D01*
X198085D01*
X198240Y128344D01*
X199398D01*
X199553Y128375D01*
X199711D01*
X200846Y128601D01*
X200992Y128661D01*
X201148Y128692D01*
X202217Y129135D01*
X202349Y129223D01*
X202495Y129284D01*
X203457Y129927D01*
X203569Y130038D01*
X203701Y130126D01*
X204519Y130945D01*
X204607Y131077D01*
X204719Y131188D01*
X205362Y132151D01*
X205423Y132297D01*
X205510Y132429D01*
X205954Y133498D01*
X205984Y133653D01*
X206045Y133799D01*
X206271Y134935D01*
Y135054D01*
X206300Y135169D01*
X206328Y135748D01*
X206322Y135788D01*
X206330Y135827D01*
Y139836D01*
X206385Y139969D01*
X206487Y140071D01*
X206621Y140127D01*
X208661D01*
X208891Y140127D01*
X209342Y140037D01*
X209766Y139861D01*
X210148Y139606D01*
X210472Y139281D01*
X210728Y138900D01*
X210903Y138475D01*
X210993Y138025D01*
X210993Y137795D01*
X210993Y137795D01*
X210993Y137795D01*
Y115074D01*
X210493Y114974D01*
X210079Y115973D01*
X209043Y117664D01*
X207755Y119172D01*
X206247Y120460D01*
X204556Y121496D01*
X202724Y122255D01*
X200796Y122718D01*
X198819Y122874D01*
X196842Y122718D01*
X194914Y122255D01*
X193082Y121496D01*
X191391Y120460D01*
X189883Y119172D01*
X188595Y117664D01*
X187559Y115973D01*
X187145Y114974D01*
X186645Y115074D01*
Y137795D01*
X186645Y138025D01*
X186735Y138475D01*
X186910Y138900D01*
X187165Y139281D01*
X187490Y139606D01*
X187872Y139861D01*
X188296Y140037D01*
X188747Y140127D01*
X188976Y140127D01*
D02*
G37*
G36*
X153543D02*
X155584D01*
X155717Y140071D01*
X155819Y139969D01*
X155875Y139836D01*
Y135827D01*
X155883Y135788D01*
X155877Y135748D01*
X155905Y135169D01*
X155934Y135054D01*
Y134935D01*
X156160Y133799D01*
X156220Y133653D01*
X156251Y133498D01*
X156694Y132429D01*
X156782Y132297D01*
X156843Y132151D01*
X157486Y131188D01*
X157598Y131077D01*
X157685Y130945D01*
X158504Y130126D01*
X158636Y130039D01*
X158747Y129927D01*
X159710Y129284D01*
X159856Y129223D01*
X159988Y129135D01*
X161057Y128692D01*
X161212Y128661D01*
X161358Y128601D01*
X162494Y128375D01*
X162652D01*
X162807Y128344D01*
X163965D01*
X164120Y128375D01*
X164278D01*
X165413Y128601D01*
X165559Y128661D01*
X165715Y128692D01*
X166784Y129135D01*
X166916Y129223D01*
X167062Y129284D01*
X168024Y129927D01*
X168136Y130038D01*
X168268Y130126D01*
X169086Y130945D01*
X169174Y131077D01*
X169286Y131188D01*
X169929Y132151D01*
X169990Y132297D01*
X170077Y132429D01*
X170520Y133498D01*
X170551Y133653D01*
X170612Y133799D01*
X170838Y134935D01*
Y135054D01*
X170867Y135169D01*
X170895Y135748D01*
X170889Y135788D01*
X170897Y135827D01*
Y139836D01*
X170952Y139969D01*
X171054Y140071D01*
X171188Y140127D01*
X173228D01*
X173458Y140127D01*
X173908Y140037D01*
X174333Y139861D01*
X174715Y139606D01*
X175039Y139281D01*
X175294Y138900D01*
X175470Y138475D01*
X175560Y138025D01*
X175560Y137795D01*
Y115074D01*
X175060Y114974D01*
X174646Y115973D01*
X173610Y117664D01*
X172322Y119172D01*
X170814Y120460D01*
X169123Y121496D01*
X167291Y122255D01*
X165363Y122718D01*
X163386Y122874D01*
X161409Y122718D01*
X159481Y122255D01*
X157649Y121496D01*
X155958Y120460D01*
X154450Y119172D01*
X153162Y117664D01*
X152126Y115973D01*
X151712Y114974D01*
X151212Y115074D01*
Y138025D01*
X151302Y138475D01*
X151477Y138900D01*
X151732Y139281D01*
X152057Y139606D01*
X152439Y139861D01*
X152863Y140037D01*
X153314Y140127D01*
X153543Y140127D01*
D02*
G37*
G36*
X39370D02*
X41411D01*
X41544Y140071D01*
X41646Y139969D01*
X41701Y139836D01*
Y135827D01*
X41709Y135788D01*
X41703Y135748D01*
X41732Y135169D01*
X41761Y135054D01*
Y134935D01*
X41987Y133799D01*
X42047Y133653D01*
X42078Y133498D01*
X42521Y132429D01*
X42609Y132297D01*
X42669Y132151D01*
X43313Y131188D01*
X43424Y131077D01*
X43512Y130945D01*
X44331Y130126D01*
X44462Y130039D01*
X44574Y129927D01*
X45537Y129284D01*
X45683Y129223D01*
X45814Y129135D01*
X46884Y128692D01*
X47039Y128661D01*
X47185Y128601D01*
X48320Y128375D01*
X48479D01*
X48634Y128344D01*
X49791D01*
X49946Y128375D01*
X50105D01*
X51240Y128601D01*
X51386Y128661D01*
X51541Y128692D01*
X52611Y129135D01*
X52742Y129223D01*
X52889Y129284D01*
X53851Y129927D01*
X53963Y130038D01*
X54094Y130126D01*
X54913Y130945D01*
X55001Y131077D01*
X55113Y131188D01*
X55756Y132151D01*
X55816Y132297D01*
X55904Y132429D01*
X56347Y133498D01*
X56378Y133653D01*
X56439Y133799D01*
X56664Y134935D01*
Y135054D01*
X56693Y135169D01*
X56722Y135748D01*
X56716Y135788D01*
X56724Y135827D01*
Y139836D01*
X56779Y139969D01*
X56881Y140071D01*
X57014Y140127D01*
X59055D01*
X59285Y140127D01*
X59735Y140037D01*
X60159Y139861D01*
X60541Y139606D01*
X60866Y139281D01*
X61121Y138900D01*
X61297Y138475D01*
X61387Y138025D01*
X61387Y137795D01*
Y115074D01*
X60887Y114974D01*
X60473Y115973D01*
X59437Y117664D01*
X58149Y119172D01*
X56641Y120460D01*
X54950Y121496D01*
X53118Y122255D01*
X51190Y122718D01*
X49213Y122874D01*
X47236Y122718D01*
X45307Y122255D01*
X43475Y121496D01*
X41785Y120460D01*
X40277Y119172D01*
X38989Y117664D01*
X37953Y115973D01*
X37539Y114974D01*
X37039Y115074D01*
Y137795D01*
X37039Y138025D01*
X37128Y138475D01*
X37304Y138900D01*
X37559Y139281D01*
X37884Y139606D01*
X38266Y139861D01*
X38690Y140037D01*
X39140Y140127D01*
X39370Y140127D01*
D02*
G37*
G36*
X3937D02*
X5978D01*
X6111Y140071D01*
X6213Y139969D01*
X6268Y139836D01*
Y135827D01*
X6276Y135788D01*
X6270Y135748D01*
X6299Y135169D01*
X6328Y135054D01*
Y134935D01*
X6554Y133799D01*
X6614Y133653D01*
X6645Y133498D01*
X7088Y132429D01*
X7176Y132297D01*
X7236Y132151D01*
X7880Y131188D01*
X7991Y131077D01*
X8079Y130945D01*
X8898Y130126D01*
X9029Y130039D01*
X9141Y129927D01*
X10104Y129284D01*
X10250Y129223D01*
X10381Y129135D01*
X11451Y128692D01*
X11606Y128661D01*
X11752Y128601D01*
X12887Y128375D01*
X13046D01*
X13201Y128344D01*
X14358D01*
X14514Y128375D01*
X14672D01*
X15807Y128601D01*
X15953Y128661D01*
X16108Y128692D01*
X17178Y129135D01*
X17309Y129223D01*
X17455Y129284D01*
X18418Y129927D01*
X18530Y130038D01*
X18661Y130126D01*
X19480Y130945D01*
X19568Y131077D01*
X19680Y131188D01*
X20323Y132151D01*
X20383Y132297D01*
X20471Y132429D01*
X20914Y133498D01*
X20945Y133653D01*
X21005Y133799D01*
X21231Y134935D01*
Y135054D01*
X21260Y135169D01*
X21289Y135748D01*
X21283Y135788D01*
X21291Y135827D01*
Y139836D01*
X21346Y139969D01*
X21448Y140071D01*
X21581Y140127D01*
X23622D01*
X23852Y140127D01*
X24302Y140037D01*
X24726Y139861D01*
X25108Y139606D01*
X25433Y139281D01*
X25688Y138900D01*
X25864Y138475D01*
X25954Y138025D01*
X25954Y137795D01*
Y115074D01*
X25453Y114974D01*
X25039Y115973D01*
X24003Y117664D01*
X22715Y119172D01*
X21208Y120460D01*
X19517Y121496D01*
X17685Y122255D01*
X15756Y122718D01*
X13780Y122874D01*
X11803Y122718D01*
X9874Y122255D01*
X8042Y121496D01*
X6352Y120460D01*
X4843Y119172D01*
X3556Y117664D01*
X2520Y115973D01*
X2106Y114974D01*
X1606Y115074D01*
Y138025D01*
X1695Y138475D01*
X1871Y138900D01*
X2126Y139281D01*
X2451Y139606D01*
X2833Y139861D01*
X3257Y140037D01*
X3707Y140127D01*
X3937Y140127D01*
D02*
G37*
G36*
X275872Y148001D02*
X275997Y147501D01*
X275178Y147063D01*
X274098Y146177D01*
X273213Y145098D01*
X272555Y143867D01*
X272150Y142531D01*
X272013Y141142D01*
X272150Y139752D01*
X272555Y138417D01*
X273213Y137186D01*
X274098Y136107D01*
X275178Y135221D01*
X276409Y134563D01*
X277745Y134158D01*
X279134Y134021D01*
X280523Y134158D01*
X281859Y134563D01*
X283090Y135221D01*
X284169Y136107D01*
X285055Y137186D01*
X285713Y138417D01*
X286118Y139752D01*
X286255Y141142D01*
X286118Y142531D01*
X285713Y143867D01*
X285055Y145098D01*
X284169Y146177D01*
X283090Y147063D01*
X282270Y147501D01*
X282395Y148001D01*
X355400Y148001D01*
X355525Y147501D01*
X354705Y147063D01*
X353626Y146177D01*
X352741Y145098D01*
X352082Y143867D01*
X351677Y142531D01*
X351540Y141142D01*
X351677Y139752D01*
X352082Y138417D01*
X352741Y137186D01*
X353626Y136107D01*
X354705Y135221D01*
X355936Y134563D01*
X357272Y134158D01*
X358661Y134021D01*
X360051Y134158D01*
X361386Y134563D01*
X362617Y135221D01*
X363697Y136107D01*
X364582Y137186D01*
X365240Y138417D01*
X365645Y139752D01*
X365782Y141142D01*
X365645Y142531D01*
X365240Y143867D01*
X364582Y145098D01*
X363697Y146177D01*
X362617Y147063D01*
X361798Y147501D01*
X361923Y148001D01*
X374245D01*
X374696Y147911D01*
X375120Y147735D01*
X375502Y147480D01*
X375827Y147155D01*
X376082Y146774D01*
X376257Y146349D01*
X376347Y145899D01*
Y125017D01*
X376233Y124886D01*
X375986Y124638D01*
X375984Y124637D01*
X370079Y124637D01*
X370040Y124629D01*
X370000Y124635D01*
X369421Y124607D01*
X369306Y124578D01*
X369187D01*
X368051Y124352D01*
X367905Y124292D01*
X367750Y124261D01*
X366681Y123818D01*
X366549Y123730D01*
X366403Y123669D01*
X365440Y123026D01*
X365329Y122914D01*
X365197Y122826D01*
X364378Y122008D01*
X364290Y121876D01*
X364179Y121764D01*
X363535Y120802D01*
X363475Y120656D01*
X363387Y120524D01*
X362944Y119455D01*
X362913Y119300D01*
X362853Y119153D01*
X362627Y118018D01*
Y117860D01*
X362596Y117705D01*
Y116547D01*
X362627Y116392D01*
Y116234D01*
X362853Y115099D01*
X362913Y114952D01*
X362944Y114797D01*
X363387Y113728D01*
X363475Y113596D01*
X363535Y113450D01*
X364179Y112488D01*
X364290Y112376D01*
X364378Y112244D01*
X365197Y111426D01*
X365329Y111338D01*
X365440Y111226D01*
X366403Y110583D01*
X366549Y110522D01*
X366681Y110434D01*
X367750Y109991D01*
X367905Y109960D01*
X368051Y109900D01*
X369187Y109674D01*
X369306D01*
X369421Y109645D01*
X370000Y109617D01*
X370040Y109623D01*
X370079Y109615D01*
X375984Y109615D01*
X376347Y109302D01*
Y82448D01*
X376257Y81997D01*
X376082Y81573D01*
X375827Y81191D01*
X375502Y80866D01*
X375120Y80611D01*
X374696Y80435D01*
X374245Y80346D01*
X374016Y80346D01*
X370079D01*
X370026Y80335D01*
X369974Y80342D01*
X369460Y80309D01*
X369307Y80268D01*
X369149Y80257D01*
X368157Y79991D01*
X367968Y79899D01*
X367769Y79831D01*
X366879Y79317D01*
X366721Y79179D01*
X366547Y79062D01*
X365820Y78335D01*
X365703Y78161D01*
X365565Y78003D01*
X365051Y77113D01*
X364983Y76914D01*
X364891Y76725D01*
X364625Y75733D01*
X364611Y75523D01*
X364570Y75317D01*
Y74289D01*
X364611Y74083D01*
X364625Y73874D01*
X364891Y72881D01*
X364983Y72693D01*
X365051Y72494D01*
X365565Y71604D01*
X365703Y71446D01*
X365820Y71271D01*
X366547Y70544D01*
X366721Y70428D01*
X366879Y70289D01*
X367769Y69775D01*
X367968Y69708D01*
X368157Y69615D01*
X369149Y69349D01*
X369307Y69339D01*
X369460Y69298D01*
X369974Y69264D01*
X370026Y69271D01*
X370079Y69261D01*
X374245Y69261D01*
X374696Y69171D01*
X375120Y68995D01*
X375502Y68740D01*
X375827Y68415D01*
X376082Y68033D01*
X376258Y67609D01*
X376347Y67159D01*
Y64888D01*
X376292Y64755D01*
X376190Y64653D01*
X376056Y64598D01*
X370079D01*
X370040Y64590D01*
X370000Y64596D01*
X369421Y64567D01*
X369306Y64538D01*
X369187D01*
X368051Y64313D01*
X367905Y64252D01*
X367750Y64221D01*
X366681Y63778D01*
X366549Y63690D01*
X366403Y63630D01*
X365440Y62987D01*
X365329Y62875D01*
X365197Y62787D01*
X364378Y61968D01*
X364290Y61837D01*
X364179Y61725D01*
X363535Y60763D01*
X363475Y60616D01*
X363387Y60485D01*
X362944Y59415D01*
X362913Y59260D01*
X362853Y59114D01*
X362627Y57979D01*
Y57821D01*
X362596Y57665D01*
Y56508D01*
X362627Y56353D01*
Y56195D01*
X362853Y55059D01*
X362913Y54913D01*
X362944Y54758D01*
X363387Y53688D01*
X363475Y53557D01*
X363535Y53411D01*
X364179Y52448D01*
X364290Y52336D01*
X364378Y52205D01*
X365197Y51386D01*
X365329Y51298D01*
X365440Y51187D01*
X366403Y50543D01*
X366549Y50483D01*
X366681Y50395D01*
X367750Y49952D01*
X367905Y49921D01*
X368051Y49861D01*
X369187Y49635D01*
X369306D01*
X369421Y49606D01*
X370000Y49577D01*
X370040Y49583D01*
X370079Y49575D01*
X375984D01*
X375985Y49575D01*
X376233Y49327D01*
X376347Y49196D01*
Y3937D01*
Y3707D01*
X376258Y3257D01*
X376082Y2833D01*
X375827Y2451D01*
X375502Y2126D01*
X375120Y1871D01*
X374696Y1695D01*
X374245Y1606D01*
X374016D01*
X263779Y1606D01*
X263550D01*
X263100Y1695D01*
X262675Y1871D01*
X262293Y2126D01*
X261969Y2451D01*
X261714Y2833D01*
X261538Y3257D01*
X261448Y3707D01*
X261448Y3937D01*
X261448Y11811D01*
X261438Y11863D01*
X261445Y11916D01*
X261411Y12430D01*
X261370Y12583D01*
X261360Y12741D01*
X261094Y13733D01*
X261001Y13922D01*
X260933Y14120D01*
X260419Y15010D01*
X260281Y15168D01*
X260164Y15343D01*
X259437Y16070D01*
X259263Y16186D01*
X259105Y16325D01*
X258215Y16839D01*
X258016Y16906D01*
X257828Y16999D01*
X256835Y17265D01*
X256625Y17279D01*
X256419Y17320D01*
X255392D01*
X255186Y17279D01*
X254976Y17265D01*
X253983Y16999D01*
X253795Y16906D01*
X253596Y16839D01*
X252706Y16325D01*
X252548Y16186D01*
X252374Y16070D01*
X251647Y15343D01*
X251530Y15168D01*
X251392Y15010D01*
X250878Y14120D01*
X250810Y13922D01*
X250717Y13733D01*
X250451Y12741D01*
X250441Y12583D01*
X250400Y12430D01*
X250366Y11916D01*
X250373Y11863D01*
X250363Y11811D01*
Y3707D01*
X250273Y3257D01*
X250098Y2833D01*
X249842Y2451D01*
X249518Y2126D01*
X249136Y1871D01*
X248711Y1695D01*
X248261Y1606D01*
X244022D01*
X243889Y1661D01*
X243787Y1763D01*
X243732Y1896D01*
Y5906D01*
X243724Y5945D01*
X243730Y5984D01*
X243701Y6563D01*
X243672Y6679D01*
Y6798D01*
X243446Y7933D01*
X243386Y8079D01*
X243355Y8234D01*
X242912Y9304D01*
X242824Y9435D01*
X242764Y9581D01*
X242121Y10544D01*
X242009Y10656D01*
X241921Y10787D01*
X241102Y11606D01*
X240971Y11694D01*
X240859Y11806D01*
X239896Y12449D01*
X239750Y12509D01*
X239619Y12597D01*
X238549Y13040D01*
X238394Y13071D01*
X238248Y13131D01*
X237113Y13357D01*
X236954D01*
X236799Y13388D01*
X235642D01*
X235487Y13357D01*
X235328D01*
X234193Y13131D01*
X234047Y13071D01*
X233892Y13040D01*
X232822Y12597D01*
X232691Y12509D01*
X232545Y12449D01*
X231582Y11806D01*
X231470Y11694D01*
X231339Y11606D01*
X230520Y10787D01*
X230432Y10656D01*
X230320Y10544D01*
X229677Y9581D01*
X229617Y9435D01*
X229529Y9304D01*
X229086Y8234D01*
X229055Y8079D01*
X228994Y7933D01*
X228769Y6798D01*
Y6679D01*
X228740Y6563D01*
X228711Y5984D01*
X228717Y5945D01*
X228709Y5906D01*
Y1969D01*
X228709Y1968D01*
X228330Y1606D01*
X224180D01*
X223729Y1695D01*
X223305Y1871D01*
X222923Y2126D01*
X222599Y2451D01*
X222343Y2833D01*
X222168Y3257D01*
X222078Y3707D01*
X222078Y3937D01*
Y11811D01*
X222068Y11863D01*
X222075Y11916D01*
X222041Y12430D01*
X222000Y12583D01*
X221990Y12741D01*
X221724Y13733D01*
X221631Y13922D01*
X221563Y14120D01*
X221049Y15010D01*
X220911Y15168D01*
X220794Y15343D01*
X220067Y16070D01*
X219893Y16186D01*
X219735Y16325D01*
X218845Y16839D01*
X218646Y16906D01*
X218458Y16999D01*
X217465Y17265D01*
X217255Y17279D01*
X217049Y17320D01*
X216021D01*
X215816Y17279D01*
X215606Y17265D01*
X214613Y16999D01*
X214425Y16906D01*
X214226Y16839D01*
X213336Y16325D01*
X213178Y16186D01*
X213003Y16070D01*
X212277Y15343D01*
X212160Y15168D01*
X212021Y15010D01*
X211508Y14120D01*
X211440Y13922D01*
X211347Y13733D01*
X211081Y12741D01*
X211071Y12583D01*
X211030Y12430D01*
X210996Y11916D01*
X211003Y11863D01*
X210993Y11811D01*
X210993Y3707D01*
X210903Y3257D01*
X210728Y2833D01*
X210472Y2451D01*
X210148Y2126D01*
X209766Y1871D01*
X209342Y1695D01*
X208891Y1606D01*
X206621D01*
X206487Y1661D01*
X206385Y1763D01*
X206330Y1896D01*
Y5906D01*
X206322Y5945D01*
X206328Y5984D01*
X206300Y6563D01*
X206271Y6679D01*
Y6798D01*
X206045Y7933D01*
X205984Y8079D01*
X205954Y8234D01*
X205510Y9304D01*
X205423Y9435D01*
X205362Y9581D01*
X204719Y10544D01*
X204607Y10656D01*
X204519Y10787D01*
X203701Y11606D01*
X203569Y11694D01*
X203457Y11806D01*
X202495Y12449D01*
X202349Y12509D01*
X202217Y12597D01*
X201148Y13040D01*
X200992Y13071D01*
X200846Y13131D01*
X199711Y13357D01*
X199553D01*
X199398Y13388D01*
X198240D01*
X198085Y13357D01*
X197927D01*
X196791Y13131D01*
X196645Y13071D01*
X196490Y13040D01*
X195421Y12597D01*
X195289Y12509D01*
X195143Y12449D01*
X194181Y11806D01*
X194069Y11694D01*
X193937Y11606D01*
X193119Y10787D01*
X193031Y10656D01*
X192919Y10544D01*
X192276Y9581D01*
X192215Y9435D01*
X192127Y9304D01*
X191684Y8234D01*
X191653Y8079D01*
X191593Y7933D01*
X191367Y6798D01*
Y6679D01*
X191338Y6563D01*
X191310Y5984D01*
X191316Y5945D01*
X191308Y5906D01*
Y1969D01*
X191308Y1968D01*
X190928Y1606D01*
X188747D01*
X188296Y1695D01*
X187872Y1871D01*
X187490Y2126D01*
X187165Y2451D01*
X186910Y2833D01*
X186735Y3257D01*
X186645Y3707D01*
X186645Y3937D01*
Y11811D01*
X186635Y11863D01*
X186642Y11916D01*
X186608Y12430D01*
X186567Y12583D01*
X186557Y12741D01*
X186291Y13733D01*
X186198Y13922D01*
X186130Y14120D01*
X185616Y15010D01*
X185478Y15168D01*
X185361Y15343D01*
X184634Y16070D01*
X184460Y16186D01*
X184302Y16325D01*
X183412Y16839D01*
X183213Y16906D01*
X183025Y16999D01*
X182032Y17265D01*
X181822Y17279D01*
X181616Y17320D01*
X180588D01*
X180383Y17279D01*
X180173Y17265D01*
X179180Y16999D01*
X178992Y16906D01*
X178793Y16839D01*
X177903Y16325D01*
X177745Y16186D01*
X177570Y16070D01*
X176844Y15343D01*
X176727Y15168D01*
X176588Y15010D01*
X176075Y14120D01*
X176007Y13922D01*
X175914Y13733D01*
X175648Y12741D01*
X175638Y12583D01*
X175597Y12430D01*
X175563Y11916D01*
X175570Y11863D01*
X175560Y11811D01*
X175560Y3707D01*
X175470Y3257D01*
X175294Y2833D01*
X175039Y2451D01*
X174715Y2126D01*
X174333Y1871D01*
X173908Y1695D01*
X173458Y1606D01*
X171188D01*
X171054Y1661D01*
X170952Y1763D01*
X170897Y1896D01*
Y5906D01*
X170889Y5945D01*
X170895Y5984D01*
X170867Y6563D01*
X170838Y6679D01*
Y6798D01*
X170612Y7933D01*
X170551Y8079D01*
X170520Y8234D01*
X170077Y9304D01*
X169990Y9435D01*
X169929Y9581D01*
X169286Y10544D01*
X169174Y10656D01*
X169086Y10787D01*
X168268Y11606D01*
X168136Y11694D01*
X168024Y11806D01*
X167062Y12449D01*
X166916Y12509D01*
X166784Y12597D01*
X165715Y13040D01*
X165559Y13071D01*
X165413Y13131D01*
X164278Y13357D01*
X164120D01*
X163965Y13388D01*
X162807D01*
X162652Y13357D01*
X162494D01*
X161358Y13131D01*
X161212Y13071D01*
X161057Y13040D01*
X159988Y12597D01*
X159856Y12509D01*
X159710Y12449D01*
X158747Y11806D01*
X158636Y11694D01*
X158504Y11606D01*
X157685Y10787D01*
X157598Y10656D01*
X157486Y10544D01*
X156843Y9581D01*
X156782Y9435D01*
X156694Y9304D01*
X156251Y8234D01*
X156220Y8079D01*
X156160Y7933D01*
X155934Y6798D01*
Y6679D01*
X155905Y6563D01*
X155877Y5984D01*
X155883Y5945D01*
X155875Y5906D01*
Y1969D01*
X155875Y1968D01*
X155495Y1606D01*
X153314D01*
X152863Y1695D01*
X152439Y1871D01*
X152057Y2126D01*
X151732Y2451D01*
X151477Y2833D01*
X151302Y3257D01*
X151212Y3707D01*
X151212Y3937D01*
Y11811D01*
X151201Y11863D01*
X151208Y11916D01*
X151175Y12430D01*
X151134Y12583D01*
X151123Y12741D01*
X150857Y13733D01*
X150765Y13922D01*
X150697Y14120D01*
X150183Y15010D01*
X150045Y15168D01*
X149928Y15343D01*
X149201Y16070D01*
X149027Y16186D01*
X148869Y16325D01*
X147979Y16839D01*
X147780Y16906D01*
X147591Y16999D01*
X146599Y17265D01*
X146389Y17279D01*
X146183Y17320D01*
X145155D01*
X144949Y17279D01*
X144740Y17265D01*
X143747Y16999D01*
X143559Y16906D01*
X143360Y16839D01*
X142470Y16325D01*
X142312Y16186D01*
X142137Y16070D01*
X141411Y15343D01*
X141294Y15168D01*
X141155Y15010D01*
X140641Y14120D01*
X140574Y13922D01*
X140481Y13733D01*
X140215Y12741D01*
X140205Y12583D01*
X140164Y12430D01*
X140130Y11916D01*
X140137Y11863D01*
X140127Y11811D01*
X140127Y3707D01*
X140037Y3257D01*
X139861Y2833D01*
X139606Y2451D01*
X139281Y2126D01*
X138900Y1871D01*
X138475Y1695D01*
X138025Y1606D01*
X133786D01*
X133653Y1661D01*
X133551Y1763D01*
X133495Y1896D01*
Y5906D01*
X133488Y5945D01*
X133493Y5984D01*
X133465Y6563D01*
X133436Y6679D01*
Y6798D01*
X133210Y7933D01*
X133150Y8079D01*
X133119Y8234D01*
X132676Y9304D01*
X132588Y9435D01*
X132527Y9581D01*
X131884Y10544D01*
X131772Y10656D01*
X131685Y10787D01*
X130866Y11606D01*
X130735Y11694D01*
X130623Y11806D01*
X129660Y12449D01*
X129514Y12509D01*
X129383Y12597D01*
X128313Y13040D01*
X128158Y13071D01*
X128012Y13131D01*
X126876Y13357D01*
X126718D01*
X126563Y13388D01*
X125405D01*
X125250Y13357D01*
X125092D01*
X123957Y13131D01*
X123811Y13071D01*
X123655Y13040D01*
X122586Y12597D01*
X122455Y12509D01*
X122308Y12449D01*
X121346Y11806D01*
X121234Y11694D01*
X121102Y11606D01*
X120284Y10787D01*
X120196Y10656D01*
X120084Y10544D01*
X119441Y9581D01*
X119380Y9435D01*
X119293Y9304D01*
X118850Y8234D01*
X118819Y8079D01*
X118758Y7933D01*
X118532Y6798D01*
Y6679D01*
X118503Y6563D01*
X118475Y5984D01*
X118481Y5945D01*
X118473Y5906D01*
Y1969D01*
X118473Y1968D01*
X118094Y1606D01*
X113944D01*
X113493Y1695D01*
X113069Y1871D01*
X112687Y2126D01*
X112362Y2451D01*
X112107Y2833D01*
X111931Y3257D01*
X111842Y3707D01*
X111842Y3937D01*
Y11811D01*
X111831Y11863D01*
X111838Y11916D01*
X111805Y12430D01*
X111764Y12583D01*
X111753Y12741D01*
X111487Y13733D01*
X111395Y13922D01*
X111327Y14120D01*
X110813Y15010D01*
X110675Y15168D01*
X110558Y15343D01*
X109831Y16070D01*
X109657Y16186D01*
X109499Y16325D01*
X108609Y16839D01*
X108410Y16906D01*
X108221Y16999D01*
X107229Y17265D01*
X107019Y17279D01*
X106813Y17320D01*
X105785D01*
X105579Y17279D01*
X105370Y17265D01*
X104377Y16999D01*
X104189Y16906D01*
X103990Y16839D01*
X103100Y16325D01*
X102942Y16186D01*
X102767Y16070D01*
X102040Y15343D01*
X101924Y15168D01*
X101785Y15010D01*
X101271Y14120D01*
X101204Y13922D01*
X101111Y13733D01*
X100845Y12741D01*
X100835Y12583D01*
X100794Y12430D01*
X100760Y11916D01*
X100767Y11863D01*
X100757Y11811D01*
X100757Y3707D01*
X100667Y3257D01*
X100491Y2833D01*
X100236Y2451D01*
X99911Y2126D01*
X99529Y1871D01*
X99105Y1695D01*
X98655Y1606D01*
X94416D01*
X94283Y1661D01*
X94181Y1763D01*
X94125Y1896D01*
Y5906D01*
X94117Y5945D01*
X94123Y5984D01*
X94095Y6563D01*
X94066Y6679D01*
Y6798D01*
X93840Y7933D01*
X93780Y8079D01*
X93749Y8234D01*
X93306Y9304D01*
X93218Y9435D01*
X93157Y9581D01*
X92514Y10544D01*
X92402Y10656D01*
X92314Y10787D01*
X91496Y11606D01*
X91364Y11694D01*
X91253Y11806D01*
X90290Y12449D01*
X90144Y12509D01*
X90012Y12597D01*
X88943Y13040D01*
X88788Y13071D01*
X88642Y13131D01*
X87506Y13357D01*
X87348D01*
X87193Y13388D01*
X86035D01*
X85880Y13357D01*
X85722D01*
X84587Y13131D01*
X84441Y13071D01*
X84285Y13040D01*
X83216Y12597D01*
X83084Y12509D01*
X82938Y12449D01*
X81976Y11806D01*
X81864Y11694D01*
X81732Y11606D01*
X80914Y10787D01*
X80826Y10656D01*
X80714Y10544D01*
X80071Y9581D01*
X80010Y9435D01*
X79923Y9304D01*
X79480Y8234D01*
X79449Y8079D01*
X79388Y7933D01*
X79162Y6798D01*
Y6679D01*
X79133Y6563D01*
X79105Y5984D01*
X79111Y5945D01*
X79103Y5906D01*
Y1969D01*
X79103Y1968D01*
X78724Y1606D01*
X74573D01*
X74123Y1695D01*
X73699Y1871D01*
X73317Y2126D01*
X72992Y2451D01*
X72737Y2833D01*
X72561Y3257D01*
X72472Y3707D01*
X72472Y3937D01*
Y11811D01*
X72461Y11863D01*
X72468Y11916D01*
X72435Y12430D01*
X72394Y12583D01*
X72383Y12741D01*
X72117Y13733D01*
X72025Y13922D01*
X71957Y14120D01*
X71443Y15010D01*
X71305Y15168D01*
X71188Y15343D01*
X70461Y16070D01*
X70287Y16186D01*
X70129Y16325D01*
X69239Y16839D01*
X69040Y16906D01*
X68851Y16999D01*
X67859Y17265D01*
X67649Y17279D01*
X67443Y17320D01*
X66415D01*
X66209Y17279D01*
X66000Y17265D01*
X65007Y16999D01*
X64819Y16906D01*
X64620Y16839D01*
X63730Y16325D01*
X63572Y16186D01*
X63397Y16070D01*
X62670Y15343D01*
X62554Y15168D01*
X62415Y15010D01*
X61901Y14120D01*
X61834Y13922D01*
X61741Y13733D01*
X61475Y12741D01*
X61465Y12583D01*
X61424Y12430D01*
X61390Y11916D01*
X61397Y11863D01*
X61387Y11811D01*
X61387Y3707D01*
X61297Y3257D01*
X61121Y2833D01*
X60866Y2451D01*
X60541Y2126D01*
X60159Y1871D01*
X59735Y1695D01*
X59285Y1606D01*
X57014D01*
X56881Y1661D01*
X56779Y1763D01*
X56724Y1896D01*
Y5906D01*
X56716Y5945D01*
X56722Y5984D01*
X56693Y6563D01*
X56664Y6679D01*
Y6798D01*
X56439Y7933D01*
X56378Y8079D01*
X56347Y8234D01*
X55904Y9304D01*
X55816Y9435D01*
X55756Y9581D01*
X55113Y10544D01*
X55001Y10656D01*
X54913Y10787D01*
X54094Y11606D01*
X53963Y11694D01*
X53851Y11806D01*
X52889Y12449D01*
X52742Y12509D01*
X52611Y12597D01*
X51541Y13040D01*
X51386Y13071D01*
X51240Y13131D01*
X50105Y13357D01*
X49946D01*
X49791Y13388D01*
X48634D01*
X48479Y13357D01*
X48320D01*
X47185Y13131D01*
X47039Y13071D01*
X46884Y13040D01*
X45814Y12597D01*
X45683Y12509D01*
X45537Y12449D01*
X44574Y11806D01*
X44462Y11694D01*
X44331Y11606D01*
X43512Y10787D01*
X43424Y10656D01*
X43313Y10544D01*
X42669Y9581D01*
X42609Y9435D01*
X42521Y9304D01*
X42078Y8234D01*
X42047Y8079D01*
X41987Y7933D01*
X41761Y6798D01*
Y6679D01*
X41732Y6563D01*
X41703Y5984D01*
X41709Y5945D01*
X41701Y5906D01*
Y1969D01*
X41701Y1968D01*
X41322Y1606D01*
X39140D01*
X38690Y1695D01*
X38266Y1871D01*
X37884Y2126D01*
X37559Y2451D01*
X37304Y2833D01*
X37128Y3257D01*
X37039Y3707D01*
X37039Y3937D01*
Y11811D01*
X37028Y11863D01*
X37035Y11916D01*
X37001Y12430D01*
X36961Y12583D01*
X36950Y12741D01*
X36684Y13733D01*
X36591Y13922D01*
X36524Y14120D01*
X36010Y15010D01*
X35871Y15168D01*
X35755Y15343D01*
X35028Y16070D01*
X34853Y16186D01*
X34696Y16325D01*
X33806Y16839D01*
X33607Y16906D01*
X33418Y16999D01*
X32425Y17265D01*
X32216Y17279D01*
X32010Y17320D01*
X30982D01*
X30776Y17279D01*
X30567Y17265D01*
X29574Y16999D01*
X29386Y16906D01*
X29187Y16839D01*
X28297Y16325D01*
X28139Y16186D01*
X27964Y16070D01*
X27237Y15343D01*
X27121Y15168D01*
X26982Y15010D01*
X26468Y14120D01*
X26401Y13922D01*
X26308Y13733D01*
X26042Y12741D01*
X26032Y12583D01*
X25991Y12430D01*
X25957Y11916D01*
X25964Y11863D01*
X25953Y11811D01*
X25954Y3707D01*
X25864Y3257D01*
X25688Y2833D01*
X25433Y2451D01*
X25108Y2126D01*
X24726Y1871D01*
X24302Y1695D01*
X23852Y1606D01*
X21581D01*
X21448Y1661D01*
X21346Y1763D01*
X21291Y1896D01*
Y5906D01*
X21283Y5945D01*
X21289Y5984D01*
X21260Y6563D01*
X21231Y6679D01*
Y6798D01*
X21005Y7933D01*
X20945Y8079D01*
X20914Y8234D01*
X20471Y9304D01*
X20383Y9435D01*
X20323Y9581D01*
X19680Y10544D01*
X19568Y10656D01*
X19480Y10787D01*
X18661Y11606D01*
X18530Y11694D01*
X18418Y11806D01*
X17455Y12449D01*
X17309Y12509D01*
X17178Y12597D01*
X16108Y13040D01*
X15953Y13071D01*
X15807Y13131D01*
X14672Y13357D01*
X14514D01*
X14358Y13388D01*
X13201D01*
X13046Y13357D01*
X12887D01*
X11752Y13131D01*
X11606Y13071D01*
X11451Y13040D01*
X10381Y12597D01*
X10250Y12509D01*
X10104Y12449D01*
X9141Y11806D01*
X9029Y11694D01*
X8898Y11606D01*
X8079Y10787D01*
X7991Y10656D01*
X7880Y10544D01*
X7236Y9581D01*
X7176Y9435D01*
X7088Y9304D01*
X6645Y8234D01*
X6614Y8079D01*
X6554Y7933D01*
X6328Y6798D01*
Y6679D01*
X6299Y6563D01*
X6270Y5984D01*
X6276Y5945D01*
X6268Y5906D01*
Y1969D01*
X6268Y1968D01*
X5889Y1606D01*
X3707D01*
X3257Y1695D01*
X2833Y1871D01*
X2451Y2126D01*
X2126Y2451D01*
X1871Y2833D01*
X1695Y3257D01*
X1606Y3707D01*
Y26659D01*
X2106Y26758D01*
X2520Y25759D01*
X3556Y24068D01*
X4843Y22560D01*
X6352Y21272D01*
X8042Y20236D01*
X9874Y19477D01*
X11803Y19014D01*
X13780Y18859D01*
X15756Y19014D01*
X17685Y19477D01*
X19517Y20236D01*
X21208Y21272D01*
X22715Y22560D01*
X24003Y24068D01*
X25039Y25759D01*
X25798Y27591D01*
X26085Y28784D01*
X26618Y28861D01*
X26955Y28276D01*
X27094Y28118D01*
X27210Y27943D01*
X27943Y27210D01*
X28118Y27094D01*
X28276Y26955D01*
X29174Y26437D01*
X29373Y26369D01*
X29561Y26276D01*
X30562Y26008D01*
X30772Y25994D01*
X30978Y25953D01*
X32014D01*
X32220Y25994D01*
X32430Y26008D01*
X33431Y26276D01*
X33620Y26369D01*
X33819Y26437D01*
X34716Y26955D01*
X34874Y27094D01*
X35049Y27210D01*
X35782Y27943D01*
X35899Y28118D01*
X36037Y28276D01*
X36375Y28861D01*
X36907Y28784D01*
X37194Y27591D01*
X37953Y25759D01*
X38989Y24068D01*
X40277Y22560D01*
X41785Y21272D01*
X43475Y20236D01*
X45307Y19477D01*
X47236Y19014D01*
X49213Y18859D01*
X51190Y19014D01*
X53118Y19477D01*
X54950Y20236D01*
X56641Y21272D01*
X58149Y22560D01*
X59437Y24068D01*
X60473Y25759D01*
X61231Y27591D01*
X61518Y28784D01*
X62050Y28861D01*
X62388Y28276D01*
X62527Y28118D01*
X62643Y27943D01*
X63376Y27210D01*
X63551Y27094D01*
X63709Y26955D01*
X64607Y26437D01*
X64806Y26369D01*
X64994Y26276D01*
X65995Y26008D01*
X66205Y25994D01*
X66411Y25953D01*
X67447D01*
X67653Y25994D01*
X67863Y26008D01*
X68864Y26276D01*
X69053Y26369D01*
X69252Y26437D01*
X70149Y26955D01*
X70307Y27094D01*
X70482Y27210D01*
X71215Y27943D01*
X71332Y28118D01*
X71470Y28276D01*
X71988Y29174D01*
X72056Y29373D01*
X72149Y29561D01*
X72417Y30562D01*
X72431Y30772D01*
X72472Y30978D01*
Y31496D01*
X72472Y31496D01*
Y80709D01*
X72472Y80709D01*
Y81227D01*
X72431Y81433D01*
X72417Y81643D01*
X72149Y82644D01*
X72056Y82832D01*
X71988Y83031D01*
X71470Y83929D01*
X71332Y84087D01*
X71215Y84261D01*
X70482Y84994D01*
X70307Y85111D01*
X70149Y85250D01*
X69252Y85768D01*
X69053Y85835D01*
X68864Y85928D01*
X67863Y86197D01*
X67653Y86210D01*
X67447Y86251D01*
X66411D01*
X66205Y86210D01*
X65995Y86197D01*
X64994Y85928D01*
X64806Y85835D01*
X64607Y85768D01*
X63709Y85250D01*
X63551Y85111D01*
X63376Y84994D01*
X62643Y84261D01*
X62527Y84087D01*
X62388Y83929D01*
X61870Y83031D01*
X61802Y82832D01*
X61709Y82644D01*
X61441Y81643D01*
X61427Y81433D01*
X61387Y81227D01*
X61387Y80709D01*
Y79641D01*
X60887Y79541D01*
X60473Y80540D01*
X59437Y82231D01*
X58149Y83739D01*
X56641Y85027D01*
X54950Y86063D01*
X53118Y86822D01*
X51190Y87285D01*
X49213Y87441D01*
X47236Y87285D01*
X45307Y86822D01*
X43475Y86063D01*
X41785Y85027D01*
X40277Y83739D01*
X38989Y82231D01*
X37953Y80540D01*
X37539Y79541D01*
X37039Y79641D01*
Y80709D01*
X37039Y80709D01*
Y81227D01*
X36998Y81433D01*
X36984Y81643D01*
X36716Y82644D01*
X36623Y82832D01*
X36555Y83031D01*
X36037Y83929D01*
X35899Y84087D01*
X35782Y84261D01*
X35049Y84994D01*
X34874Y85111D01*
X34716Y85250D01*
X33819Y85768D01*
X33620Y85835D01*
X33431Y85928D01*
X32430Y86197D01*
X32220Y86210D01*
X32014Y86251D01*
X30978D01*
X30772Y86210D01*
X30562Y86197D01*
X29561Y85928D01*
X29373Y85835D01*
X29174Y85768D01*
X28276Y85250D01*
X28118Y85111D01*
X27943Y84994D01*
X27210Y84261D01*
X27094Y84087D01*
X26955Y83929D01*
X26437Y83031D01*
X26369Y82832D01*
X26276Y82644D01*
X26008Y81643D01*
X25994Y81433D01*
X25953Y81227D01*
X25953Y80709D01*
Y79641D01*
X25453Y79541D01*
X25039Y80540D01*
X24003Y82231D01*
X22715Y83739D01*
X21208Y85027D01*
X19517Y86063D01*
X17685Y86822D01*
X15756Y87285D01*
X13780Y87441D01*
X11803Y87285D01*
X9874Y86822D01*
X8042Y86063D01*
X6352Y85027D01*
X4843Y83739D01*
X3556Y82231D01*
X2520Y80540D01*
X2106Y79541D01*
X1606Y79641D01*
Y97525D01*
X2106Y97624D01*
X2520Y96625D01*
X3556Y94934D01*
X4843Y93426D01*
X6352Y92138D01*
X8042Y91102D01*
X9874Y90343D01*
X11803Y89880D01*
X13780Y89725D01*
X15756Y89880D01*
X17685Y90343D01*
X19517Y91102D01*
X21208Y92138D01*
X22715Y93426D01*
X24003Y94934D01*
X25039Y96625D01*
X25798Y98457D01*
X26281Y98471D01*
X26313Y98460D01*
X26401Y98283D01*
X26468Y98084D01*
X26982Y97194D01*
X27121Y97036D01*
X27237Y96862D01*
X27964Y96135D01*
X28139Y96018D01*
X28297Y95880D01*
X29187Y95366D01*
X29386Y95298D01*
X29574Y95205D01*
X30567Y94940D01*
X30776Y94926D01*
X30982Y94885D01*
X32010D01*
X32216Y94926D01*
X32425Y94940D01*
X33418Y95205D01*
X33607Y95298D01*
X33806Y95366D01*
X34696Y95880D01*
X34853Y96018D01*
X35028Y96135D01*
X35755Y96862D01*
X35871Y97036D01*
X36010Y97194D01*
X36524Y98084D01*
X36591Y98283D01*
X36679Y98460D01*
X36711Y98471D01*
X37194Y98457D01*
X37953Y96625D01*
X38989Y94934D01*
X40277Y93426D01*
X41785Y92138D01*
X43475Y91102D01*
X45307Y90343D01*
X47236Y89880D01*
X49213Y89725D01*
X51190Y89880D01*
X53118Y90343D01*
X54950Y91102D01*
X56641Y92138D01*
X58149Y93426D01*
X59437Y94934D01*
X60473Y96625D01*
X61231Y98457D01*
X61714Y98471D01*
X61747Y98460D01*
X61834Y98283D01*
X61901Y98084D01*
X62415Y97194D01*
X62554Y97036D01*
X62670Y96862D01*
X63397Y96135D01*
X63572Y96018D01*
X63730Y95880D01*
X64620Y95366D01*
X64819Y95298D01*
X65007Y95205D01*
X66000Y94940D01*
X66209Y94926D01*
X66415Y94885D01*
X67443D01*
X67649Y94926D01*
X67859Y94940D01*
X68851Y95205D01*
X69040Y95298D01*
X69239Y95366D01*
X70129Y95880D01*
X70287Y96018D01*
X70461Y96135D01*
X71188Y96862D01*
X71305Y97036D01*
X71443Y97194D01*
X71957Y98084D01*
X72025Y98283D01*
X72117Y98471D01*
X72383Y99464D01*
X72394Y99622D01*
X72435Y99775D01*
X72468Y100289D01*
X72461Y100341D01*
X72472Y100394D01*
Y137795D01*
Y138025D01*
X72561Y138475D01*
X72737Y138900D01*
X72992Y139281D01*
X73317Y139606D01*
X73699Y139861D01*
X74123Y140037D01*
X74573Y140127D01*
X74803Y140127D01*
X78812D01*
X78946Y140071D01*
X79048Y139969D01*
X79103Y139836D01*
Y135827D01*
X79111Y135788D01*
X79105Y135748D01*
X79133Y135169D01*
X79162Y135054D01*
Y134935D01*
X79388Y133799D01*
X79449Y133653D01*
X79480Y133498D01*
X79923Y132429D01*
X80010Y132297D01*
X80071Y132151D01*
X80714Y131188D01*
X80826Y131077D01*
X80914Y130945D01*
X81732Y130126D01*
X81864Y130039D01*
X81976Y129927D01*
X82938Y129284D01*
X83084Y129223D01*
X83216Y129135D01*
X84285Y128692D01*
X84440Y128661D01*
X84587Y128601D01*
X85722Y128375D01*
X85880D01*
X86035Y128344D01*
X87193D01*
X87348Y128375D01*
X87506D01*
X88642Y128601D01*
X88788Y128661D01*
X88943Y128692D01*
X90012Y129135D01*
X90144Y129223D01*
X90290Y129284D01*
X91253Y129927D01*
X91364Y130038D01*
X91496Y130126D01*
X92314Y130945D01*
X92402Y131077D01*
X92514Y131188D01*
X93157Y132151D01*
X93218Y132297D01*
X93306Y132429D01*
X93749Y133498D01*
X93780Y133653D01*
X93840Y133799D01*
X94066Y134935D01*
Y135054D01*
X94095Y135169D01*
X94123Y135748D01*
X94117Y135788D01*
X94125Y135827D01*
Y139836D01*
X94181Y139969D01*
X94283Y140071D01*
X94416Y140127D01*
X98425D01*
X98655Y140127D01*
X99105Y140037D01*
X99529Y139861D01*
X99911Y139606D01*
X100236Y139281D01*
X100491Y138900D01*
X100667Y138475D01*
X100757Y138025D01*
X100757Y137795D01*
Y100394D01*
X100767Y100341D01*
X100760Y100289D01*
X100794Y99775D01*
X100835Y99622D01*
X100845Y99464D01*
X101111Y98471D01*
X101204Y98283D01*
X101271Y98084D01*
X101785Y97194D01*
X101924Y97036D01*
X102040Y96862D01*
X102767Y96135D01*
X102942Y96018D01*
X103100Y95880D01*
X103990Y95366D01*
X104189Y95298D01*
X104377Y95205D01*
X105370Y94940D01*
X105579Y94926D01*
X105785Y94885D01*
X106813D01*
X107019Y94926D01*
X107229Y94940D01*
X108221Y95205D01*
X108410Y95298D01*
X108609Y95366D01*
X109499Y95880D01*
X109657Y96018D01*
X109831Y96135D01*
X110558Y96862D01*
X110675Y97036D01*
X110813Y97194D01*
X111327Y98084D01*
X111395Y98283D01*
X111487Y98471D01*
X111753Y99464D01*
X111764Y99622D01*
X111805Y99775D01*
X111838Y100289D01*
X111831Y100341D01*
X111842Y100394D01*
Y137795D01*
X111842Y138025D01*
X111931Y138475D01*
X112107Y138900D01*
X112362Y139281D01*
X112687Y139606D01*
X113069Y139861D01*
X113493Y140037D01*
X113944Y140127D01*
X114173Y140127D01*
X118182D01*
X118316Y140071D01*
X118418Y139969D01*
X118473Y139836D01*
Y135827D01*
X118481Y135788D01*
X118475Y135748D01*
X118503Y135169D01*
X118532Y135054D01*
Y134935D01*
X118758Y133799D01*
X118819Y133653D01*
X118850Y133498D01*
X119293Y132429D01*
X119380Y132297D01*
X119441Y132151D01*
X120084Y131188D01*
X120196Y131077D01*
X120284Y130945D01*
X121102Y130126D01*
X121234Y130039D01*
X121346Y129927D01*
X122308Y129284D01*
X122455Y129223D01*
X122586Y129135D01*
X123655Y128692D01*
X123811Y128661D01*
X123957Y128601D01*
X125092Y128375D01*
X125250D01*
X125405Y128344D01*
X126563D01*
X126718Y128375D01*
X126876D01*
X128012Y128601D01*
X128158Y128661D01*
X128313Y128692D01*
X129383Y129135D01*
X129514Y129223D01*
X129660Y129284D01*
X130623Y129927D01*
X130735Y130038D01*
X130866Y130126D01*
X131685Y130945D01*
X131772Y131077D01*
X131884Y131188D01*
X132527Y132151D01*
X132588Y132297D01*
X132676Y132429D01*
X133119Y133498D01*
X133150Y133653D01*
X133210Y133799D01*
X133436Y134935D01*
Y135054D01*
X133465Y135169D01*
X133493Y135748D01*
X133488Y135788D01*
X133495Y135827D01*
Y139836D01*
X133551Y139969D01*
X133653Y140071D01*
X133786Y140127D01*
X137795D01*
X138025Y140127D01*
X138475Y140037D01*
X138900Y139861D01*
X139281Y139606D01*
X139606Y139281D01*
X139861Y138900D01*
X140037Y138475D01*
X140127Y138025D01*
X140127Y137795D01*
Y100394D01*
X140137Y100341D01*
X140130Y100289D01*
X140164Y99775D01*
X140205Y99622D01*
X140215Y99464D01*
X140481Y98471D01*
X140574Y98283D01*
X140641Y98084D01*
X141155Y97194D01*
X141294Y97036D01*
X141411Y96862D01*
X142137Y96135D01*
X142312Y96018D01*
X142470Y95880D01*
X143360Y95366D01*
X143559Y95298D01*
X143747Y95205D01*
X144740Y94940D01*
X144949Y94926D01*
X145155Y94885D01*
X146183D01*
X146389Y94926D01*
X146599Y94940D01*
X147591Y95205D01*
X147780Y95298D01*
X147979Y95366D01*
X148869Y95880D01*
X149027Y96018D01*
X149201Y96135D01*
X149928Y96862D01*
X150045Y97036D01*
X150183Y97194D01*
X150697Y98084D01*
X150765Y98283D01*
X150852Y98460D01*
X150885Y98471D01*
X151367Y98457D01*
X152126Y96625D01*
X153162Y94934D01*
X154450Y93426D01*
X155958Y92138D01*
X157649Y91102D01*
X159481Y90343D01*
X161409Y89880D01*
X163386Y89725D01*
X165363Y89880D01*
X167291Y90343D01*
X169123Y91102D01*
X170814Y92138D01*
X172322Y93426D01*
X173610Y94934D01*
X174646Y96625D01*
X175405Y98457D01*
X175887Y98471D01*
X175920Y98460D01*
X176007Y98283D01*
X176075Y98084D01*
X176588Y97194D01*
X176727Y97036D01*
X176844Y96862D01*
X177570Y96135D01*
X177745Y96018D01*
X177903Y95880D01*
X178793Y95366D01*
X178992Y95298D01*
X179180Y95205D01*
X180173Y94940D01*
X180383Y94926D01*
X180588Y94885D01*
X181616D01*
X181822Y94926D01*
X182032Y94940D01*
X183025Y95205D01*
X183213Y95298D01*
X183412Y95366D01*
X184302Y95880D01*
X184460Y96018D01*
X184634Y96135D01*
X185361Y96862D01*
X185478Y97036D01*
X185616Y97194D01*
X186130Y98084D01*
X186198Y98283D01*
X186285Y98460D01*
X186318Y98471D01*
X186800Y98457D01*
X187559Y96625D01*
X188595Y94934D01*
X189883Y93426D01*
X191391Y92138D01*
X193082Y91102D01*
X194914Y90343D01*
X196842Y89880D01*
X198819Y89725D01*
X200796Y89880D01*
X202724Y90343D01*
X204556Y91102D01*
X206247Y92138D01*
X207755Y93426D01*
X209043Y94934D01*
X210079Y96625D01*
X210838Y98457D01*
X211320Y98471D01*
X211353Y98460D01*
X211440Y98283D01*
X211508Y98084D01*
X212021Y97194D01*
X212160Y97036D01*
X212277Y96862D01*
X213003Y96135D01*
X213178Y96018D01*
X213336Y95880D01*
X214226Y95366D01*
X214425Y95298D01*
X214613Y95205D01*
X215606Y94940D01*
X215816Y94926D01*
X216021Y94885D01*
X217049D01*
X217255Y94926D01*
X217465Y94940D01*
X218458Y95205D01*
X218646Y95298D01*
X218845Y95366D01*
X219735Y95880D01*
X219893Y96018D01*
X220068Y96135D01*
X220794Y96862D01*
X220911Y97036D01*
X221049Y97194D01*
X221563Y98084D01*
X221631Y98283D01*
X221724Y98471D01*
X221990Y99464D01*
X222000Y99622D01*
X222041Y99775D01*
X222075Y100289D01*
X222068Y100341D01*
X222078Y100394D01*
Y137795D01*
Y138025D01*
X222168Y138475D01*
X222343Y138900D01*
X222599Y139281D01*
X222923Y139606D01*
X223305Y139861D01*
X223729Y140037D01*
X224180Y140127D01*
X224409Y140127D01*
X228419D01*
X228552Y140071D01*
X228654Y139969D01*
X228709Y139836D01*
Y135827D01*
X228717Y135788D01*
X228711Y135748D01*
X228740Y135169D01*
X228769Y135054D01*
Y134935D01*
X228994Y133799D01*
X229055Y133653D01*
X229086Y133498D01*
X229529Y132429D01*
X229617Y132297D01*
X229677Y132151D01*
X230320Y131188D01*
X230432Y131077D01*
X230520Y130945D01*
X231339Y130126D01*
X231470Y130039D01*
X231582Y129927D01*
X232545Y129284D01*
X232691Y129223D01*
X232822Y129135D01*
X233892Y128692D01*
X234047Y128661D01*
X234193Y128601D01*
X235328Y128375D01*
X235487D01*
X235642Y128344D01*
X236799D01*
X236954Y128375D01*
X237113D01*
X238248Y128601D01*
X238394Y128661D01*
X238549Y128692D01*
X239619Y129135D01*
X239750Y129223D01*
X239896Y129284D01*
X240859Y129927D01*
X240971Y130038D01*
X241102Y130126D01*
X241921Y130945D01*
X242009Y131077D01*
X242121Y131188D01*
X242764Y132151D01*
X242824Y132297D01*
X242912Y132429D01*
X243355Y133498D01*
X243386Y133653D01*
X243446Y133799D01*
X243672Y134935D01*
Y135054D01*
X243701Y135169D01*
X243730Y135748D01*
X243724Y135788D01*
X243732Y135827D01*
Y139836D01*
X243787Y139969D01*
X243889Y140071D01*
X244022Y140127D01*
X248031D01*
X248261Y140127D01*
X248711Y140037D01*
X249136Y139861D01*
X249518Y139606D01*
X249842Y139281D01*
X250098Y138900D01*
X250273Y138475D01*
X250363Y138025D01*
Y137795D01*
Y106299D01*
X250373Y106247D01*
X250366Y106194D01*
X250400Y105680D01*
X250441Y105528D01*
X250451Y105370D01*
X250717Y104377D01*
X250810Y104189D01*
X250878Y103990D01*
X251392Y103100D01*
X251530Y102942D01*
X251647Y102767D01*
X252374Y102040D01*
X252548Y101924D01*
X252706Y101785D01*
X253596Y101271D01*
X253795Y101204D01*
X253983Y101111D01*
X254976Y100845D01*
X255186Y100831D01*
X255392Y100790D01*
X256419D01*
X256625Y100831D01*
X256835Y100845D01*
X257828Y101111D01*
X258016Y101204D01*
X258215Y101271D01*
X259105Y101785D01*
X259263Y101924D01*
X259437Y102040D01*
X260164Y102767D01*
X260281Y102942D01*
X260420Y103100D01*
X260933Y103990D01*
X261001Y104189D01*
X261094Y104377D01*
X261360Y105370D01*
X261370Y105527D01*
X261411Y105680D01*
X261445Y106194D01*
X261438Y106247D01*
X261448Y106299D01*
X261448Y109284D01*
X261828Y109615D01*
X267717Y109615D01*
X267756Y109623D01*
X267795Y109617D01*
X268374Y109645D01*
X268490Y109674D01*
X268609D01*
X269744Y109900D01*
X269890Y109960D01*
X270045Y109991D01*
X271115Y110434D01*
X271246Y110522D01*
X271392Y110583D01*
X272355Y111226D01*
X272467Y111338D01*
X272598Y111426D01*
X273417Y112244D01*
X273505Y112376D01*
X273617Y112488D01*
X274260Y113450D01*
X274320Y113596D01*
X274408Y113728D01*
X274851Y114797D01*
X274882Y114952D01*
X274942Y115099D01*
X275168Y116234D01*
Y116392D01*
X275199Y116547D01*
Y117705D01*
X275168Y117860D01*
Y118018D01*
X274942Y119153D01*
X274882Y119300D01*
X274851Y119455D01*
X274408Y120524D01*
X274320Y120656D01*
X274260Y120802D01*
X273617Y121764D01*
X273505Y121876D01*
X273417Y122008D01*
X272598Y122826D01*
X272467Y122914D01*
X272355Y123026D01*
X271392Y123669D01*
X271246Y123730D01*
X271115Y123818D01*
X270045Y124261D01*
X269890Y124292D01*
X269744Y124352D01*
X268609Y124578D01*
X268490D01*
X268374Y124607D01*
X267795Y124635D01*
X267756Y124629D01*
X267717Y124637D01*
X261828Y124637D01*
X261697Y124751D01*
X261449Y124999D01*
X261448Y125000D01*
X261448Y145899D01*
X261538Y146349D01*
X261713Y146774D01*
X261969Y147155D01*
X262293Y147480D01*
X262675Y147735D01*
X263100Y147911D01*
X263550Y148001D01*
X263780Y148001D01*
X275872D01*
D02*
G37*
G36*
X37953Y61192D02*
X38989Y59501D01*
X40277Y57993D01*
X41785Y56705D01*
X43475Y55669D01*
X45307Y54910D01*
X47236Y54447D01*
X49213Y54292D01*
X51190Y54447D01*
X53118Y54910D01*
X54950Y55669D01*
X56641Y56705D01*
X58149Y57993D01*
X59437Y59501D01*
X60473Y61192D01*
X60887Y62191D01*
X61387Y62092D01*
Y44208D01*
X60887Y44108D01*
X60473Y45107D01*
X59437Y46798D01*
X58149Y48306D01*
X56641Y49594D01*
X54950Y50630D01*
X53118Y51389D01*
X51190Y51852D01*
X49213Y52008D01*
X47236Y51852D01*
X45307Y51389D01*
X43475Y50630D01*
X41785Y49594D01*
X40277Y48306D01*
X38989Y46798D01*
X37953Y45107D01*
X37539Y44108D01*
X37039Y44208D01*
Y62092D01*
X37539Y62191D01*
X37953Y61192D01*
D02*
G37*
G36*
X2520D02*
X3556Y59501D01*
X4843Y57993D01*
X6352Y56705D01*
X8042Y55669D01*
X9874Y54910D01*
X11803Y54447D01*
X13780Y54292D01*
X15756Y54447D01*
X17685Y54910D01*
X19517Y55669D01*
X21208Y56705D01*
X22715Y57993D01*
X24003Y59501D01*
X25039Y61192D01*
X25453Y62191D01*
X25953Y62092D01*
Y44208D01*
X25453Y44108D01*
X25039Y45107D01*
X24003Y46798D01*
X22715Y48306D01*
X21208Y49594D01*
X19517Y50630D01*
X17685Y51389D01*
X15756Y51852D01*
X13780Y52008D01*
X11803Y51852D01*
X9874Y51389D01*
X8042Y50630D01*
X6352Y49594D01*
X4843Y48306D01*
X3556Y46798D01*
X2520Y45107D01*
X2106Y44108D01*
X1606Y44208D01*
Y62092D01*
X2106Y62191D01*
X2520Y61192D01*
D02*
G37*
%LPC*%
G36*
X293012Y146702D02*
X289665D01*
X288705Y146511D01*
X287891Y145967D01*
X287348Y145153D01*
X287157Y144193D01*
Y139665D01*
X287348Y138705D01*
X287566Y138378D01*
Y130500D01*
X286703Y129636D01*
X286103Y128855D01*
X285726Y127945D01*
X285598Y126969D01*
Y118919D01*
X285363Y118613D01*
X285105Y117991D01*
X285017Y117323D01*
Y115746D01*
X281550Y112279D01*
X280951Y111498D01*
X280574Y110588D01*
X280445Y109612D01*
Y108619D01*
X279393Y107812D01*
X278478Y106619D01*
X277903Y105230D01*
X277707Y103740D01*
Y100984D01*
X277903Y99494D01*
X278478Y98105D01*
X279393Y96913D01*
X280586Y95998D01*
X281974Y95423D01*
X283465Y95226D01*
X284955Y95423D01*
X286344Y95998D01*
X287536Y96913D01*
X288451Y98105D01*
X289026Y99494D01*
X289118Y100190D01*
X289622D01*
X289714Y99494D01*
X290289Y98105D01*
X291204Y96913D01*
X292397Y95998D01*
X293785Y95423D01*
X295275Y95226D01*
X296766Y95423D01*
X298154Y95998D01*
X299347Y96913D01*
X300262Y98105D01*
X300837Y99494D01*
X300929Y100190D01*
X301433D01*
X301525Y99494D01*
X302100Y98105D01*
X303015Y96913D01*
X304207Y95998D01*
X305596Y95423D01*
X307086Y95226D01*
X308577Y95423D01*
X309965Y95998D01*
X311158Y96913D01*
X312073Y98105D01*
X312648Y99494D01*
X312740Y100190D01*
X313244D01*
X313336Y99494D01*
X313911Y98105D01*
X314826Y96913D01*
X316019Y95998D01*
X317407Y95423D01*
X318898Y95226D01*
X320388Y95423D01*
X321777Y95998D01*
X322969Y96913D01*
X323884Y98105D01*
X324459Y99494D01*
X324551Y100190D01*
X325055D01*
X325147Y99494D01*
X325722Y98105D01*
X326637Y96913D01*
X327830Y95998D01*
X329218Y95423D01*
X330709Y95226D01*
X332199Y95423D01*
X333588Y95998D01*
X334780Y96913D01*
X335695Y98105D01*
X336270Y99494D01*
X336362Y100190D01*
X336866D01*
X336958Y99494D01*
X337533Y98105D01*
X338448Y96913D01*
X339641Y95998D01*
X341029Y95423D01*
X342520Y95226D01*
X344010Y95423D01*
X345399Y95998D01*
X346591Y96913D01*
X347506Y98105D01*
X348081Y99494D01*
X348173Y100190D01*
X348677D01*
X348769Y99494D01*
X349344Y98105D01*
X350259Y96913D01*
X351452Y95998D01*
X352840Y95423D01*
X354331Y95226D01*
X355821Y95423D01*
X357210Y95998D01*
X358402Y96913D01*
X359317Y98105D01*
X359892Y99494D01*
X360089Y100984D01*
Y103740D01*
X359892Y105230D01*
X359317Y106619D01*
X358402Y107812D01*
X357350Y108619D01*
Y109292D01*
X357221Y110268D01*
X356844Y111178D01*
X356245Y111960D01*
X352793Y115411D01*
Y115551D01*
X352644Y116682D01*
X352208Y117735D01*
X352198Y117749D01*
Y127953D01*
X352069Y128929D01*
X351692Y129839D01*
X351093Y130620D01*
X350380Y131333D01*
Y140007D01*
X350484Y140259D01*
X350626Y141339D01*
Y142520D01*
X350484Y143599D01*
X350068Y144604D01*
X349405Y145468D01*
X348541Y146131D01*
X347536Y146547D01*
X346457Y146689D01*
X345378Y146547D01*
X344372Y146131D01*
X343508Y145468D01*
X342846Y144604D01*
X342770Y144421D01*
X342270D01*
X342194Y144604D01*
X341531Y145468D01*
X340668Y146131D01*
X339662Y146547D01*
X338583Y146689D01*
X337504Y146547D01*
X336498Y146131D01*
X335634Y145468D01*
X334972Y144604D01*
X334555Y143599D01*
X334413Y142520D01*
Y141339D01*
X334555Y140259D01*
X334810Y139644D01*
Y117749D01*
X334800Y117735D01*
X334364Y116682D01*
X334215Y115551D01*
Y114872D01*
X333950Y114728D01*
X333719Y114696D01*
X333376Y115143D01*
X333108Y115411D01*
Y115551D01*
X332959Y116682D01*
X332523Y117735D01*
X332513Y117749D01*
Y126969D01*
X332384Y127945D01*
X332007Y128855D01*
X331408Y129636D01*
X326758Y134286D01*
X326758Y140007D01*
X326862Y140259D01*
X327004Y141339D01*
Y142520D01*
X326862Y143599D01*
X326446Y144604D01*
X325783Y145468D01*
X324919Y146131D01*
X323914Y146547D01*
X322834Y146689D01*
X321755Y146547D01*
X320750Y146131D01*
X319886Y145468D01*
X319224Y144604D01*
X319148Y144421D01*
X318648D01*
X318571Y144604D01*
X317909Y145468D01*
X317045Y146131D01*
X316040Y146547D01*
X314961Y146689D01*
X313881Y146547D01*
X312876Y146131D01*
X312012Y145468D01*
X311350Y144604D01*
X311274Y144421D01*
X310773D01*
X310698Y144604D01*
X310035Y145468D01*
X309171Y146131D01*
X308166Y146547D01*
X307086Y146689D01*
X306007Y146547D01*
X305002Y146131D01*
X304138Y145468D01*
X303476Y144604D01*
X303399Y144421D01*
X302900D01*
X302823Y144604D01*
X302161Y145468D01*
X301297Y146131D01*
X300292Y146547D01*
X299213Y146689D01*
X298133Y146547D01*
X297128Y146131D01*
X296264Y145468D01*
X295877Y144964D01*
X295342Y145088D01*
X295330Y145153D01*
X294786Y145967D01*
X293972Y146511D01*
X293012Y146702D01*
D02*
G37*
G36*
X236221Y122874D02*
X234244Y122718D01*
X232315Y122255D01*
X230483Y121496D01*
X228792Y120460D01*
X227285Y119172D01*
X225997Y117664D01*
X224960Y115973D01*
X224202Y114141D01*
X223739Y112213D01*
X223583Y110236D01*
Y102362D01*
X223739Y100385D01*
X224202Y98457D01*
X224960Y96625D01*
X225997Y94934D01*
X227285Y93426D01*
X228792Y92138D01*
X230483Y91102D01*
X232315Y90343D01*
X234244Y89880D01*
X236221Y89725D01*
X238197Y89880D01*
X240126Y90343D01*
X241958Y91102D01*
X243649Y92138D01*
X245156Y93426D01*
X246444Y94934D01*
X247481Y96625D01*
X248239Y98457D01*
X248702Y100385D01*
X248858Y102362D01*
Y110236D01*
X248702Y112213D01*
X248239Y114141D01*
X247481Y115973D01*
X246444Y117664D01*
X245156Y119172D01*
X243649Y120460D01*
X241958Y121496D01*
X240126Y122255D01*
X238197Y122718D01*
X236221Y122874D01*
D02*
G37*
G36*
X125984D02*
X124007Y122718D01*
X122079Y122255D01*
X120247Y121496D01*
X118556Y120460D01*
X117048Y119172D01*
X115760Y117664D01*
X114724Y115973D01*
X113965Y114141D01*
X113503Y112213D01*
X113347Y110236D01*
Y102362D01*
X113503Y100385D01*
X113965Y98457D01*
X114724Y96625D01*
X115760Y94934D01*
X117048Y93426D01*
X118556Y92138D01*
X120247Y91102D01*
X122079Y90343D01*
X124007Y89880D01*
X125984Y89725D01*
X127961Y89880D01*
X129889Y90343D01*
X131721Y91102D01*
X133412Y92138D01*
X134920Y93426D01*
X136208Y94934D01*
X137244Y96625D01*
X138003Y98457D01*
X138466Y100385D01*
X138622Y102362D01*
Y110236D01*
X138466Y112213D01*
X138003Y114141D01*
X137244Y115973D01*
X136208Y117664D01*
X134920Y119172D01*
X133412Y120460D01*
X131721Y121496D01*
X129889Y122255D01*
X127961Y122718D01*
X125984Y122874D01*
D02*
G37*
G36*
X86614D02*
X84637Y122718D01*
X82709Y122255D01*
X80877Y121496D01*
X79186Y120460D01*
X77678Y119172D01*
X76390Y117664D01*
X75354Y115973D01*
X74595Y114141D01*
X74132Y112213D01*
X73977Y110236D01*
Y102362D01*
X74132Y100385D01*
X74595Y98457D01*
X75354Y96625D01*
X76390Y94934D01*
X77678Y93426D01*
X79186Y92138D01*
X80877Y91102D01*
X82709Y90343D01*
X84637Y89880D01*
X86614Y89725D01*
X88591Y89880D01*
X90519Y90343D01*
X92351Y91102D01*
X94042Y92138D01*
X95550Y93426D01*
X96838Y94934D01*
X97874Y96625D01*
X98633Y98457D01*
X99096Y100385D01*
X99252Y102362D01*
Y110236D01*
X99096Y112213D01*
X98633Y114141D01*
X97874Y115973D01*
X96838Y117664D01*
X95550Y119172D01*
X94042Y120460D01*
X92351Y121496D01*
X90519Y122255D01*
X88591Y122718D01*
X86614Y122874D01*
D02*
G37*
G36*
X354331Y92372D02*
X352840Y92176D01*
X351452Y91601D01*
X350259Y90686D01*
X349344Y89493D01*
X348769Y88104D01*
X348677Y87409D01*
X348173D01*
X348081Y88104D01*
X347506Y89493D01*
X346591Y90686D01*
X345399Y91601D01*
X344010Y92176D01*
X342520Y92372D01*
X341029Y92176D01*
X339641Y91601D01*
X338448Y90686D01*
X337533Y89493D01*
X336958Y88104D01*
X336866Y87409D01*
X336362D01*
X336270Y88104D01*
X335695Y89493D01*
X334780Y90686D01*
X333588Y91601D01*
X332199Y92176D01*
X330709Y92372D01*
X329218Y92176D01*
X327830Y91601D01*
X326637Y90686D01*
X325722Y89493D01*
X325147Y88104D01*
X325055Y87409D01*
X324551D01*
X324459Y88104D01*
X323884Y89493D01*
X322969Y90686D01*
X321777Y91601D01*
X320388Y92176D01*
X318898Y92372D01*
X317407Y92176D01*
X316019Y91601D01*
X314826Y90686D01*
X313911Y89493D01*
X313336Y88104D01*
X313244Y87408D01*
X312740D01*
X312648Y88104D01*
X312073Y89493D01*
X311158Y90686D01*
X309965Y91601D01*
X308577Y92176D01*
X307086Y92372D01*
X305596Y92176D01*
X304207Y91601D01*
X303015Y90686D01*
X302100Y89493D01*
X301525Y88104D01*
X301433Y87409D01*
X300929D01*
X300837Y88104D01*
X300262Y89493D01*
X299347Y90686D01*
X298154Y91601D01*
X296766Y92176D01*
X295275Y92372D01*
X293785Y92176D01*
X292397Y91601D01*
X291204Y90686D01*
X290289Y89493D01*
X289714Y88104D01*
X289622Y87409D01*
X289118D01*
X289026Y88104D01*
X288451Y89493D01*
X287536Y90686D01*
X286344Y91601D01*
X284955Y92176D01*
X283465Y92372D01*
X281974Y92176D01*
X280586Y91601D01*
X279393Y90686D01*
X278478Y89493D01*
X277903Y88104D01*
X277707Y86614D01*
X277903Y85124D01*
X278478Y83735D01*
X279393Y82543D01*
X280586Y81628D01*
X281974Y81053D01*
X283465Y80856D01*
X284955Y81053D01*
X286344Y81628D01*
X287536Y82543D01*
X288451Y83735D01*
X289026Y85124D01*
X289118Y85820D01*
X289622D01*
X289714Y85124D01*
X290289Y83735D01*
X291204Y82543D01*
X292397Y81628D01*
X293785Y81053D01*
X295275Y80856D01*
X296766Y81053D01*
X298154Y81628D01*
X299347Y82543D01*
X300262Y83735D01*
X300837Y85124D01*
X300929Y85820D01*
X301433D01*
X301525Y85124D01*
X302100Y83735D01*
X303015Y82543D01*
X304207Y81628D01*
X305596Y81053D01*
X307086Y80856D01*
X308577Y81053D01*
X309965Y81628D01*
X311158Y82543D01*
X312073Y83735D01*
X312648Y85124D01*
X312740Y85820D01*
X313244D01*
X313336Y85124D01*
X313911Y83735D01*
X314826Y82543D01*
X316019Y81628D01*
X317407Y81053D01*
X318898Y80856D01*
X320388Y81053D01*
X321777Y81628D01*
X322969Y82543D01*
X323884Y83735D01*
X324459Y85124D01*
X324551Y85820D01*
X325055D01*
X325147Y85124D01*
X325722Y83735D01*
X326637Y82543D01*
X327830Y81628D01*
X329218Y81053D01*
X330709Y80856D01*
X332199Y81053D01*
X333588Y81628D01*
X334780Y82543D01*
X335695Y83735D01*
X336270Y85124D01*
X336362Y85820D01*
X336866D01*
X336958Y85124D01*
X337533Y83735D01*
X338448Y82543D01*
X339641Y81628D01*
X341029Y81053D01*
X342520Y80856D01*
X344010Y81053D01*
X345399Y81628D01*
X346591Y82543D01*
X347506Y83735D01*
X348081Y85124D01*
X348173Y85820D01*
X348677D01*
X348769Y85124D01*
X349344Y83735D01*
X350259Y82543D01*
X351452Y81628D01*
X352840Y81053D01*
X354331Y80856D01*
X355821Y81053D01*
X357210Y81628D01*
X358402Y82543D01*
X359317Y83735D01*
X359892Y85124D01*
X360089Y86614D01*
X359892Y88104D01*
X359317Y89493D01*
X358402Y90686D01*
X357210Y91601D01*
X355821Y92176D01*
X354331Y92372D01*
D02*
G37*
G36*
X198819Y87441D02*
X196842Y87285D01*
X194914Y86822D01*
X193082Y86063D01*
X191391Y85027D01*
X189883Y83739D01*
X188595Y82231D01*
X187559Y80540D01*
X187145Y79541D01*
X186645Y79641D01*
Y80709D01*
X186645Y80709D01*
Y81227D01*
X186604Y81433D01*
X186590Y81643D01*
X186322Y82644D01*
X186229Y82832D01*
X186162Y83031D01*
X185643Y83929D01*
X185505Y84087D01*
X185388Y84261D01*
X184655Y84994D01*
X184480Y85111D01*
X184323Y85250D01*
X183425Y85768D01*
X183226Y85835D01*
X183038Y85928D01*
X182036Y86197D01*
X181827Y86210D01*
X181621Y86251D01*
X180584D01*
X180378Y86210D01*
X180168Y86197D01*
X179167Y85928D01*
X178979Y85835D01*
X178780Y85768D01*
X177882Y85250D01*
X177724Y85111D01*
X177550Y84994D01*
X176817Y84261D01*
X176700Y84087D01*
X176561Y83929D01*
X176043Y83031D01*
X175976Y82832D01*
X175883Y82644D01*
X175614Y81643D01*
X175601Y81433D01*
X175560Y81227D01*
X175560Y80709D01*
Y79641D01*
X175060Y79541D01*
X174646Y80540D01*
X173610Y82231D01*
X172322Y83739D01*
X170814Y85027D01*
X169123Y86063D01*
X167291Y86822D01*
X165363Y87285D01*
X163386Y87441D01*
X161409Y87285D01*
X159481Y86822D01*
X157649Y86063D01*
X155958Y85027D01*
X154450Y83739D01*
X153162Y82231D01*
X152126Y80540D01*
X151712Y79541D01*
X151212Y79641D01*
Y80709D01*
X151212Y80709D01*
Y81227D01*
X151171Y81433D01*
X151157Y81643D01*
X150889Y82644D01*
X150796Y82832D01*
X150728Y83031D01*
X150210Y83929D01*
X150072Y84087D01*
X149955Y84261D01*
X149222Y84994D01*
X149047Y85111D01*
X148890Y85250D01*
X147992Y85768D01*
X147793Y85835D01*
X147605Y85928D01*
X146603Y86197D01*
X146394Y86210D01*
X146188Y86251D01*
X145151D01*
X144945Y86210D01*
X144735Y86197D01*
X143734Y85928D01*
X143546Y85835D01*
X143347Y85768D01*
X142449Y85250D01*
X142291Y85111D01*
X142116Y84994D01*
X141384Y84261D01*
X141267Y84087D01*
X141128Y83929D01*
X140610Y83031D01*
X140542Y82832D01*
X140450Y82644D01*
X140181Y81643D01*
X140168Y81433D01*
X140127Y81227D01*
X140127Y80709D01*
Y31496D01*
X140127Y31496D01*
Y30978D01*
X140168Y30772D01*
X140181Y30562D01*
X140450Y29561D01*
X140542Y29373D01*
X140610Y29174D01*
X141128Y28276D01*
X141267Y28118D01*
X141384Y27943D01*
X142116Y27210D01*
X142291Y27094D01*
X142449Y26955D01*
X143347Y26437D01*
X143546Y26369D01*
X143734Y26276D01*
X144735Y26008D01*
X144945Y25994D01*
X145151Y25953D01*
X146188D01*
X146394Y25994D01*
X146603Y26008D01*
X147605Y26276D01*
X147793Y26369D01*
X147992Y26437D01*
X148890Y26955D01*
X149047Y27094D01*
X149222Y27210D01*
X149955Y27943D01*
X150072Y28118D01*
X150210Y28276D01*
X150548Y28861D01*
X151081Y28784D01*
X151367Y27591D01*
X152126Y25759D01*
X153162Y24068D01*
X154450Y22560D01*
X155958Y21272D01*
X157649Y20236D01*
X159481Y19477D01*
X161409Y19014D01*
X163386Y18859D01*
X165363Y19014D01*
X167291Y19477D01*
X169123Y20236D01*
X170814Y21272D01*
X172322Y22560D01*
X173610Y24068D01*
X174646Y25759D01*
X175405Y27591D01*
X175691Y28784D01*
X176224Y28861D01*
X176561Y28276D01*
X176700Y28118D01*
X176817Y27943D01*
X177550Y27210D01*
X177724Y27094D01*
X177882Y26955D01*
X178780Y26437D01*
X178979Y26369D01*
X179167Y26276D01*
X180168Y26008D01*
X180378Y25994D01*
X180584Y25953D01*
X181621D01*
X181827Y25994D01*
X182036Y26008D01*
X183038Y26276D01*
X183226Y26369D01*
X183425Y26437D01*
X184323Y26955D01*
X184481Y27094D01*
X184655Y27210D01*
X185388Y27943D01*
X185505Y28118D01*
X185643Y28276D01*
X185981Y28861D01*
X186514Y28784D01*
X186800Y27591D01*
X187559Y25759D01*
X188595Y24068D01*
X189883Y22560D01*
X191391Y21272D01*
X193082Y20236D01*
X194914Y19477D01*
X196842Y19014D01*
X198819Y18859D01*
X200796Y19014D01*
X202724Y19477D01*
X204556Y20236D01*
X206247Y21272D01*
X207755Y22560D01*
X209043Y24068D01*
X210079Y25759D01*
X210838Y27591D01*
X211124Y28784D01*
X211657Y28861D01*
X211995Y28276D01*
X212133Y28118D01*
X212250Y27943D01*
X212983Y27210D01*
X213157Y27094D01*
X213315Y26955D01*
X214213Y26437D01*
X214412Y26369D01*
X214600Y26276D01*
X215601Y26008D01*
X215811Y25994D01*
X216017Y25953D01*
X217054D01*
X217260Y25994D01*
X217469Y26008D01*
X218471Y26276D01*
X218659Y26369D01*
X218858Y26437D01*
X219756Y26955D01*
X219914Y27094D01*
X220088Y27210D01*
X220821Y27943D01*
X220938Y28118D01*
X221076Y28276D01*
X221595Y29174D01*
X221662Y29373D01*
X221755Y29561D01*
X222023Y30562D01*
X222037Y30772D01*
X222078Y30978D01*
Y31496D01*
X222078Y31496D01*
Y80709D01*
X222078Y80709D01*
Y81227D01*
X222037Y81433D01*
X222023Y81643D01*
X221755Y82644D01*
X221662Y82832D01*
X221595Y83031D01*
X221076Y83929D01*
X220938Y84087D01*
X220821Y84261D01*
X220088Y84994D01*
X219914Y85111D01*
X219756Y85250D01*
X218858Y85768D01*
X218659Y85835D01*
X218471Y85928D01*
X217469Y86197D01*
X217260Y86210D01*
X217054Y86251D01*
X216017D01*
X215811Y86210D01*
X215601Y86197D01*
X214600Y85928D01*
X214412Y85835D01*
X214213Y85768D01*
X213315Y85250D01*
X213157Y85111D01*
X212983Y84994D01*
X212250Y84261D01*
X212133Y84087D01*
X211995Y83929D01*
X211476Y83031D01*
X211409Y82832D01*
X211316Y82644D01*
X211048Y81643D01*
X211034Y81433D01*
X210993Y81227D01*
X210993Y80709D01*
Y79641D01*
X210493Y79541D01*
X210079Y80540D01*
X209043Y82231D01*
X207755Y83739D01*
X206247Y85027D01*
X204556Y86063D01*
X202724Y86822D01*
X200796Y87285D01*
X198819Y87441D01*
D02*
G37*
G36*
X236221D02*
X234244Y87285D01*
X232315Y86822D01*
X230483Y86063D01*
X228792Y85027D01*
X227285Y83739D01*
X225997Y82231D01*
X224960Y80540D01*
X224202Y78708D01*
X223739Y76780D01*
X223583Y74803D01*
Y66929D01*
X223739Y64952D01*
X224202Y63024D01*
X224960Y61192D01*
X225997Y59501D01*
X227285Y57993D01*
X228792Y56705D01*
X230483Y55669D01*
X232315Y54910D01*
X234244Y54447D01*
X236221Y54292D01*
X238197Y54447D01*
X240126Y54910D01*
X241958Y55669D01*
X243649Y56705D01*
X245156Y57993D01*
X246444Y59501D01*
X247481Y61192D01*
X248239Y63024D01*
X248702Y64952D01*
X248858Y66929D01*
Y74803D01*
X248702Y76780D01*
X248239Y78708D01*
X247481Y80540D01*
X246444Y82231D01*
X245156Y83739D01*
X243649Y85027D01*
X241958Y86063D01*
X240126Y86822D01*
X238197Y87285D01*
X236221Y87441D01*
D02*
G37*
G36*
X125984D02*
X124007Y87285D01*
X122079Y86822D01*
X120247Y86063D01*
X118556Y85027D01*
X117048Y83739D01*
X115760Y82231D01*
X114724Y80540D01*
X113965Y78708D01*
X113503Y76780D01*
X113347Y74803D01*
Y66929D01*
X113503Y64952D01*
X113965Y63024D01*
X114724Y61192D01*
X115760Y59501D01*
X117048Y57993D01*
X118556Y56705D01*
X120247Y55669D01*
X122079Y54910D01*
X124007Y54447D01*
X125984Y54292D01*
X127961Y54447D01*
X129889Y54910D01*
X131721Y55669D01*
X133412Y56705D01*
X134920Y57993D01*
X136208Y59501D01*
X137244Y61192D01*
X138003Y63024D01*
X138466Y64952D01*
X138622Y66929D01*
Y74803D01*
X138466Y76780D01*
X138003Y78708D01*
X137244Y80540D01*
X136208Y82231D01*
X134920Y83739D01*
X133412Y85027D01*
X131721Y86063D01*
X129889Y86822D01*
X127961Y87285D01*
X125984Y87441D01*
D02*
G37*
G36*
X86614D02*
X84637Y87285D01*
X82709Y86822D01*
X80877Y86063D01*
X79186Y85027D01*
X77678Y83739D01*
X76390Y82231D01*
X75354Y80540D01*
X74595Y78708D01*
X74132Y76780D01*
X73977Y74803D01*
Y66929D01*
X74132Y64952D01*
X74595Y63024D01*
X75354Y61192D01*
X76390Y59501D01*
X77678Y57993D01*
X79186Y56705D01*
X80877Y55669D01*
X82709Y54910D01*
X84637Y54447D01*
X86614Y54292D01*
X88591Y54447D01*
X90519Y54910D01*
X92351Y55669D01*
X94042Y56705D01*
X95550Y57993D01*
X96838Y59501D01*
X97874Y61192D01*
X98633Y63024D01*
X99096Y64952D01*
X99252Y66929D01*
Y74803D01*
X99096Y76780D01*
X98633Y78708D01*
X97874Y80540D01*
X96838Y82231D01*
X95550Y83739D01*
X94042Y85027D01*
X92351Y86063D01*
X90519Y86822D01*
X88591Y87285D01*
X86614Y87441D01*
D02*
G37*
G36*
X256424Y92157D02*
X255387D01*
X255181Y92116D01*
X254972Y92102D01*
X253970Y91834D01*
X253782Y91741D01*
X253583Y91673D01*
X252685Y91155D01*
X252527Y91017D01*
X252353Y90900D01*
X251620Y90167D01*
X251503Y89992D01*
X251365Y89834D01*
X250846Y88937D01*
X250779Y88738D01*
X250686Y88549D01*
X250418Y87548D01*
X250404Y87339D01*
X250363Y87133D01*
Y86614D01*
X250363Y86614D01*
X250363Y31496D01*
Y30978D01*
X250404Y30772D01*
X250417Y30562D01*
X250686Y29561D01*
X250779Y29373D01*
X250846Y29174D01*
X251365Y28276D01*
X251503Y28118D01*
X251620Y27943D01*
X252353Y27210D01*
X252527Y27094D01*
X252685Y26955D01*
X253583Y26437D01*
X253782Y26369D01*
X253970Y26276D01*
X254972Y26008D01*
X255181Y25994D01*
X255387Y25953D01*
X256424D01*
X256630Y25994D01*
X256839Y26008D01*
X257841Y26276D01*
X258029Y26369D01*
X258228Y26437D01*
X259126Y26955D01*
X259284Y27094D01*
X259458Y27210D01*
X260191Y27943D01*
X260308Y28118D01*
X260446Y28276D01*
X260965Y29174D01*
X261032Y29373D01*
X261125Y29561D01*
X261393Y30562D01*
X261407Y30772D01*
X261448Y30978D01*
Y31496D01*
X261448Y31496D01*
Y49134D01*
X261455Y49202D01*
X261536Y49397D01*
X261627Y49488D01*
X261821Y49569D01*
X261890Y49575D01*
X268298D01*
X268453Y49606D01*
X268611D01*
X269752Y49833D01*
X269899Y49894D01*
X270054Y49925D01*
X271128Y50370D01*
X271260Y50458D01*
X271406Y50518D01*
X272373Y51165D01*
X272485Y51276D01*
X272616Y51364D01*
X273439Y52187D01*
X273527Y52318D01*
X273639Y52430D01*
X274285Y53397D01*
X274345Y53543D01*
X274433Y53675D01*
X274879Y54750D01*
X274909Y54905D01*
X274970Y55051D01*
X275197Y56192D01*
Y56350D01*
X275228Y56505D01*
Y57668D01*
X275197Y57823D01*
Y57981D01*
X274970Y59122D01*
X274909Y59269D01*
X274879Y59424D01*
X274433Y60498D01*
X274345Y60630D01*
X274285Y60776D01*
X273639Y61743D01*
X273527Y61855D01*
X273439Y61987D01*
X272616Y62809D01*
X272485Y62897D01*
X272373Y63009D01*
X271406Y63655D01*
X271260Y63716D01*
X271128Y63803D01*
X270054Y64249D01*
X269899Y64280D01*
X269752Y64340D01*
X268611Y64567D01*
X268453D01*
X268298Y64598D01*
X261890D01*
X261821Y64605D01*
X261627Y64685D01*
X261536Y64776D01*
X261455Y64971D01*
X261448Y65039D01*
Y66890D01*
X261459Y67118D01*
X261556Y67604D01*
X261730Y68024D01*
X261983Y68403D01*
X262305Y68725D01*
X262684Y68978D01*
X263105Y69153D01*
X263591Y69249D01*
X263818Y69261D01*
X287666D01*
X287908Y68761D01*
X287767Y68550D01*
X287673Y68076D01*
Y61300D01*
X287596Y61114D01*
X287468Y60138D01*
Y50283D01*
X277364Y40180D01*
X276772D01*
X276104Y40092D01*
X275481Y39834D01*
X274946Y39424D01*
X274536Y38889D01*
X274278Y38267D01*
X274190Y37598D01*
Y33268D01*
X274278Y32600D01*
X274536Y31977D01*
X274946Y31443D01*
X275481Y31032D01*
X276104Y30775D01*
X276772Y30687D01*
X280315D01*
X280983Y30775D01*
X281606Y31032D01*
X282140Y31443D01*
X282550Y31977D01*
X282808Y32600D01*
X282896Y33268D01*
Y35041D01*
X283518Y35663D01*
X284018Y35456D01*
Y35039D01*
X284167Y33909D01*
X284603Y32855D01*
X285297Y31951D01*
X286202Y31256D01*
X287255Y30820D01*
X288386Y30671D01*
X289516Y30820D01*
X290570Y31256D01*
X291475Y31951D01*
X292169Y32855D01*
X292605Y33909D01*
X292754Y35039D01*
Y35057D01*
X293360Y35663D01*
X293860Y35456D01*
Y35039D01*
X294009Y33909D01*
X294445Y32855D01*
X295140Y31951D01*
X296044Y31256D01*
X297098Y30820D01*
X298228Y30671D01*
X299359Y30820D01*
X300412Y31256D01*
X301317Y31951D01*
X302011Y32855D01*
X302448Y33909D01*
X302596Y35039D01*
Y35057D01*
X303203Y35663D01*
X303703Y35456D01*
Y35039D01*
X303852Y33909D01*
X304288Y32855D01*
X304982Y31951D01*
X305887Y31256D01*
X306940Y30820D01*
X308071Y30671D01*
X309201Y30820D01*
X310255Y31256D01*
X311159Y31951D01*
X311854Y32855D01*
X312290Y33909D01*
X312439Y35039D01*
Y35057D01*
X317628Y40246D01*
X318228Y41027D01*
X318604Y41937D01*
X318733Y42913D01*
Y52926D01*
X319233Y52976D01*
X319321Y52532D01*
X319811Y51799D01*
X320543Y51310D01*
X321408Y51138D01*
X321480D01*
X332000Y40617D01*
X331767Y40144D01*
X331496Y40180D01*
X327953D01*
X327285Y40092D01*
X326662Y39834D01*
X326128Y39424D01*
X325717Y38889D01*
X325460Y38267D01*
X325372Y37598D01*
Y33268D01*
X325460Y32600D01*
X325717Y31977D01*
X326128Y31443D01*
X326662Y31032D01*
X327285Y30775D01*
X327953Y30687D01*
X331496D01*
X332164Y30775D01*
X332787Y31032D01*
X333321Y31443D01*
X333731Y31977D01*
X333989Y32600D01*
X334077Y33268D01*
Y37598D01*
X334042Y37869D01*
X334515Y38103D01*
X335439Y37179D01*
X335348Y36957D01*
X335199Y35827D01*
Y35039D01*
X335348Y33909D01*
X335784Y32855D01*
X336478Y31951D01*
X337383Y31256D01*
X338436Y30820D01*
X339567Y30671D01*
X340698Y30820D01*
X341751Y31256D01*
X342656Y31951D01*
X343350Y32855D01*
X343786Y33909D01*
X343935Y35039D01*
Y35827D01*
X343786Y36957D01*
X343350Y38011D01*
X343182Y38230D01*
X343227Y38526D01*
X343754Y38707D01*
X345282Y37179D01*
X345190Y36957D01*
X345041Y35827D01*
Y35039D01*
X345190Y33909D01*
X345627Y32855D01*
X346321Y31951D01*
X347225Y31256D01*
X348279Y30820D01*
X349409Y30671D01*
X350540Y30820D01*
X351593Y31256D01*
X352498Y31951D01*
X353192Y32855D01*
X353629Y33909D01*
X353778Y35039D01*
Y35827D01*
X353629Y36957D01*
X353192Y38011D01*
X353025Y38230D01*
X353069Y38526D01*
X353596Y38707D01*
X355124Y37178D01*
X355033Y36957D01*
X354884Y35827D01*
Y35039D01*
X355033Y33909D01*
X355469Y32855D01*
X356163Y31951D01*
X357068Y31256D01*
X358121Y30820D01*
X359252Y30671D01*
X360383Y30820D01*
X361436Y31256D01*
X362341Y31951D01*
X363035Y32855D01*
X363471Y33909D01*
X363620Y35039D01*
Y35827D01*
X363471Y36957D01*
X363035Y38011D01*
X362798Y38319D01*
Y38612D01*
X362670Y39588D01*
X362293Y40498D01*
X361694Y41279D01*
X350229Y52744D01*
X350229Y60236D01*
X350142Y60899D01*
Y67077D01*
X349970Y67941D01*
X349481Y68673D01*
X349350Y68761D01*
X349502Y69261D01*
X350912D01*
X351118Y69301D01*
X351328Y69315D01*
X352329Y69583D01*
X352517Y69676D01*
X352716Y69744D01*
X353614Y70262D01*
X353772Y70401D01*
X353946Y70517D01*
X354679Y71250D01*
X354796Y71425D01*
X354935Y71583D01*
X355453Y72481D01*
X355520Y72680D01*
X355613Y72868D01*
X355882Y73869D01*
X355895Y74079D01*
X355936Y74285D01*
Y75322D01*
X355895Y75528D01*
X355882Y75737D01*
X355613Y76738D01*
X355520Y76927D01*
X355453Y77126D01*
X354935Y78023D01*
X354796Y78181D01*
X354679Y78356D01*
X353946Y79089D01*
X353772Y79206D01*
X353614Y79344D01*
X352716Y79862D01*
X352517Y79930D01*
X352329Y80023D01*
X351328Y80291D01*
X351118Y80305D01*
X350912Y80346D01*
X350394D01*
X263819Y80346D01*
X263591Y80357D01*
X263105Y80454D01*
X262684Y80628D01*
X262305Y80881D01*
X261983Y81203D01*
X261730Y81582D01*
X261556Y82003D01*
X261459Y82488D01*
X261448Y82716D01*
Y86614D01*
X261448Y87133D01*
X261407Y87339D01*
X261393Y87548D01*
X261125Y88549D01*
X261032Y88738D01*
X260965Y88937D01*
X260446Y89834D01*
X260308Y89992D01*
X260191Y90167D01*
X259458Y90900D01*
X259284Y91017D01*
X259126Y91155D01*
X258228Y91673D01*
X258029Y91741D01*
X257841Y91834D01*
X256839Y92102D01*
X256630Y92116D01*
X256424Y92157D01*
D02*
G37*
G36*
X106817Y86251D02*
X105781D01*
X105575Y86210D01*
X105365Y86197D01*
X104364Y85928D01*
X104176Y85835D01*
X103977Y85768D01*
X103079Y85250D01*
X102921Y85111D01*
X102746Y84994D01*
X102013Y84261D01*
X101897Y84087D01*
X101758Y83929D01*
X101240Y83031D01*
X101172Y82832D01*
X101080Y82644D01*
X100811Y81643D01*
X100797Y81433D01*
X100757Y81227D01*
X100757Y80709D01*
Y31496D01*
X100757Y31496D01*
Y30978D01*
X100797Y30772D01*
X100811Y30562D01*
X101080Y29561D01*
X101172Y29373D01*
X101240Y29174D01*
X101758Y28276D01*
X101897Y28118D01*
X102014Y27943D01*
X102746Y27210D01*
X102921Y27094D01*
X103079Y26955D01*
X103977Y26437D01*
X104176Y26369D01*
X104364Y26276D01*
X105365Y26008D01*
X105575Y25994D01*
X105781Y25953D01*
X106817D01*
X107024Y25994D01*
X107233Y26008D01*
X108234Y26276D01*
X108423Y26369D01*
X108622Y26437D01*
X109519Y26955D01*
X109677Y27094D01*
X109852Y27210D01*
X110585Y27943D01*
X110702Y28118D01*
X110840Y28276D01*
X111358Y29174D01*
X111426Y29373D01*
X111519Y29561D01*
X111787Y30562D01*
X111801Y30772D01*
X111842Y30978D01*
Y31496D01*
X111842Y31496D01*
Y80709D01*
X111842Y80709D01*
Y81227D01*
X111801Y81433D01*
X111787Y81643D01*
X111519Y82644D01*
X111426Y82832D01*
X111358Y83031D01*
X110840Y83929D01*
X110702Y84087D01*
X110585Y84261D01*
X109852Y84994D01*
X109677Y85111D01*
X109519Y85250D01*
X108622Y85768D01*
X108423Y85835D01*
X108234Y85928D01*
X107233Y86197D01*
X107024Y86210D01*
X106817Y86251D01*
D02*
G37*
G36*
X236221Y52008D02*
X234244Y51852D01*
X232315Y51389D01*
X230483Y50630D01*
X228792Y49594D01*
X227285Y48306D01*
X225997Y46798D01*
X224960Y45107D01*
X224202Y43275D01*
X223739Y41347D01*
X223583Y39370D01*
Y31496D01*
X223739Y29519D01*
X224202Y27591D01*
X224960Y25759D01*
X225997Y24068D01*
X227285Y22560D01*
X228792Y21272D01*
X230483Y20236D01*
X232315Y19477D01*
X234244Y19014D01*
X236221Y18859D01*
X238197Y19014D01*
X240126Y19477D01*
X241958Y20236D01*
X243649Y21272D01*
X245156Y22560D01*
X246444Y24068D01*
X247481Y25759D01*
X248239Y27591D01*
X248702Y29519D01*
X248858Y31496D01*
Y39370D01*
X248702Y41347D01*
X248239Y43275D01*
X247481Y45107D01*
X246444Y46798D01*
X245156Y48306D01*
X243649Y49594D01*
X241958Y50630D01*
X240126Y51389D01*
X238197Y51852D01*
X236221Y52008D01*
D02*
G37*
G36*
X125984D02*
X124007Y51852D01*
X122079Y51389D01*
X120247Y50630D01*
X118556Y49594D01*
X117048Y48306D01*
X115760Y46798D01*
X114724Y45107D01*
X113965Y43275D01*
X113503Y41347D01*
X113347Y39370D01*
Y31496D01*
X113503Y29519D01*
X113965Y27591D01*
X114724Y25759D01*
X115760Y24068D01*
X117048Y22560D01*
X118556Y21272D01*
X120247Y20236D01*
X122079Y19477D01*
X124007Y19014D01*
X125984Y18859D01*
X127961Y19014D01*
X129889Y19477D01*
X131721Y20236D01*
X133412Y21272D01*
X134920Y22560D01*
X136208Y24068D01*
X137244Y25759D01*
X138003Y27591D01*
X138466Y29519D01*
X138622Y31496D01*
Y39370D01*
X138466Y41347D01*
X138003Y43275D01*
X137244Y45107D01*
X136208Y46798D01*
X134920Y48306D01*
X133412Y49594D01*
X131721Y50630D01*
X129889Y51389D01*
X127961Y51852D01*
X125984Y52008D01*
D02*
G37*
G36*
X86614D02*
X84637Y51852D01*
X82709Y51389D01*
X80877Y50630D01*
X79186Y49594D01*
X77678Y48306D01*
X76390Y46798D01*
X75354Y45107D01*
X74595Y43275D01*
X74132Y41347D01*
X73977Y39370D01*
Y31496D01*
X74132Y29519D01*
X74595Y27591D01*
X75354Y25759D01*
X76390Y24068D01*
X77678Y22560D01*
X79186Y21272D01*
X80877Y20236D01*
X82709Y19477D01*
X84637Y19014D01*
X86614Y18859D01*
X88591Y19014D01*
X90519Y19477D01*
X92351Y20236D01*
X94042Y21272D01*
X95550Y22560D01*
X96838Y24068D01*
X97874Y25759D01*
X98633Y27591D01*
X99096Y29519D01*
X99252Y31496D01*
Y39370D01*
X99096Y41347D01*
X98633Y43275D01*
X97874Y45107D01*
X96838Y46798D01*
X95550Y48306D01*
X94042Y49594D01*
X92351Y50630D01*
X90519Y51389D01*
X88591Y51852D01*
X86614Y52008D01*
D02*
G37*
%LPD*%
G36*
X342964Y128794D02*
X343340Y127884D01*
X343940Y127103D01*
X344653Y126390D01*
Y117749D01*
X344642Y117735D01*
X344206Y116682D01*
X344057Y115551D01*
Y114764D01*
X344206Y113633D01*
X344642Y112580D01*
X345337Y111675D01*
X346241Y110981D01*
X346774Y110760D01*
X349805Y107729D01*
Y107220D01*
X349344Y106619D01*
X348769Y105230D01*
X348677Y104534D01*
X348173D01*
X348081Y105230D01*
X347506Y106619D01*
X346591Y107812D01*
X345399Y108727D01*
X344010Y109302D01*
X343260Y109401D01*
X342581Y110079D01*
Y113100D01*
X342802Y113633D01*
X342951Y114764D01*
Y115551D01*
X342802Y116682D01*
X342366Y117735D01*
X342355Y117749D01*
Y129585D01*
X342855Y129617D01*
X342964Y128794D01*
D02*
G37*
G36*
X295440Y127759D02*
Y117749D01*
X295430Y117735D01*
X294993Y116682D01*
X294845Y115551D01*
Y114764D01*
X294993Y113633D01*
X295214Y113100D01*
Y110079D01*
X294536Y109401D01*
X293785Y109302D01*
X292397Y108727D01*
X291204Y107812D01*
X290289Y106619D01*
X289714Y105230D01*
X289622Y104534D01*
X289118D01*
X289026Y105230D01*
X288451Y106619D01*
X287990Y107220D01*
Y108049D01*
X290352Y110411D01*
X291142D01*
X291810Y110499D01*
X292432Y110757D01*
X292967Y111167D01*
X293377Y111702D01*
X293635Y112324D01*
X293723Y112992D01*
Y117323D01*
X293635Y117991D01*
X293377Y118613D01*
X293143Y118919D01*
Y125406D01*
X294006Y126269D01*
X294606Y127051D01*
X294940Y127858D01*
X295440Y127759D01*
D02*
G37*
G36*
X319341Y131747D02*
X319718Y130837D01*
X320318Y130056D01*
X324968Y125406D01*
Y117749D01*
X324957Y117735D01*
X324521Y116682D01*
X324372Y115551D01*
Y114764D01*
X324521Y113633D01*
X324957Y112580D01*
X325652Y111675D01*
X326556Y110981D01*
X326936Y110824D01*
Y108041D01*
X326637Y107812D01*
X325722Y106619D01*
X325147Y105230D01*
X325055Y104534D01*
X324551D01*
X324459Y105230D01*
X323884Y106619D01*
X322969Y107812D01*
X322670Y108041D01*
Y112566D01*
X322680Y112580D01*
X323117Y113633D01*
X323266Y114764D01*
Y115551D01*
X323117Y116682D01*
X322680Y117735D01*
X322670Y117749D01*
Y125000D01*
X322541Y125976D01*
X322165Y126886D01*
X321565Y127667D01*
X318733Y130500D01*
Y132537D01*
X319233Y132570D01*
X319341Y131747D01*
D02*
G37*
G36*
X311694Y127051D02*
X312293Y126270D01*
X315125Y123437D01*
Y117749D01*
X315115Y117735D01*
X314678Y116682D01*
X314529Y115551D01*
Y114764D01*
X314678Y113633D01*
X315115Y112580D01*
X315125Y112566D01*
Y108041D01*
X314826Y107812D01*
X313911Y106619D01*
X313336Y105230D01*
X313244Y104534D01*
X312740D01*
X312648Y105230D01*
X312073Y106619D01*
X311158Y107812D01*
X310859Y108041D01*
Y110824D01*
X311239Y110981D01*
X312144Y111675D01*
X312838Y112580D01*
X313274Y113633D01*
X313423Y114764D01*
Y115551D01*
X313274Y116682D01*
X312838Y117735D01*
X312827Y117749D01*
X312827Y123031D01*
X312699Y124008D01*
X312322Y124918D01*
X311723Y125699D01*
X310859Y126563D01*
Y127759D01*
X311359Y127859D01*
X311694Y127051D01*
D02*
G37*
G36*
X187559Y61192D02*
X188595Y59501D01*
X189883Y57993D01*
X191391Y56705D01*
X193082Y55669D01*
X194914Y54910D01*
X196842Y54447D01*
X198819Y54292D01*
X200796Y54447D01*
X202724Y54910D01*
X204556Y55669D01*
X206247Y56705D01*
X207755Y57993D01*
X209043Y59501D01*
X210079Y61192D01*
X210493Y62191D01*
X210993Y62092D01*
Y44208D01*
X210493Y44108D01*
X210079Y45107D01*
X209043Y46798D01*
X207755Y48306D01*
X206247Y49594D01*
X204556Y50630D01*
X202724Y51389D01*
X200796Y51852D01*
X198819Y52008D01*
X196842Y51852D01*
X194914Y51389D01*
X193082Y50630D01*
X191391Y49594D01*
X189883Y48306D01*
X188595Y46798D01*
X187559Y45107D01*
X187145Y44108D01*
X186645Y44208D01*
Y62092D01*
X187145Y62191D01*
X187559Y61192D01*
D02*
G37*
G36*
X152126D02*
X153162Y59501D01*
X154450Y57993D01*
X155958Y56705D01*
X157649Y55669D01*
X159481Y54910D01*
X161409Y54447D01*
X163386Y54292D01*
X165363Y54447D01*
X167291Y54910D01*
X169123Y55669D01*
X170814Y56705D01*
X172322Y57993D01*
X173610Y59501D01*
X174646Y61192D01*
X175060Y62191D01*
X175560Y62092D01*
Y44208D01*
X175060Y44108D01*
X174646Y45107D01*
X173610Y46798D01*
X172322Y48306D01*
X170814Y49594D01*
X169123Y50630D01*
X167291Y51389D01*
X165363Y51852D01*
X163386Y52008D01*
X161409Y51852D01*
X159481Y51389D01*
X157649Y50630D01*
X155958Y49594D01*
X154450Y48306D01*
X153162Y46798D01*
X152126Y45107D01*
X151712Y44108D01*
X151212Y44208D01*
Y62092D01*
X151712Y62191D01*
X152126Y61192D01*
D02*
G37*
G36*
X335689Y68761D02*
X335559Y68673D01*
X335069Y67941D01*
X334898Y67077D01*
Y53396D01*
X334909Y53340D01*
X334909Y49114D01*
X334919Y49039D01*
X334470Y48818D01*
X326706Y56582D01*
Y60138D01*
X326577Y61114D01*
X326520Y61252D01*
Y67077D01*
X326348Y67941D01*
X325858Y68673D01*
X325728Y68761D01*
X325880Y69261D01*
X335538D01*
X335689Y68761D01*
D02*
G37*
D15*
X291339Y60236D02*
D03*
D16*
X299213D02*
D03*
X307087D02*
D03*
X314961D02*
D03*
X322835D02*
D03*
X338583D02*
D03*
X346457D02*
D03*
D27*
X318898Y115158D02*
X318898Y115158D01*
X289370D02*
X289370Y115158D01*
X309055Y115158D02*
X309055Y115158D01*
X283465Y102362D02*
X284218Y103116D01*
Y109612D01*
X289370Y114764D01*
Y115158D01*
X295275Y102362D02*
Y104806D01*
X298987Y108517D01*
Y114932D01*
X299213Y115158D01*
X307087Y112476D02*
X309055Y114444D01*
X309055Y115158D01*
X307087Y102362D02*
Y112476D01*
X307086Y102362D02*
X307087Y102362D01*
X318898Y102362D02*
X318898Y102362D01*
X318898Y102362D02*
Y115157D01*
X318898Y115158D02*
X318898Y115157D01*
X330709Y102362D02*
Y112476D01*
X328740Y114444D02*
X330709Y112476D01*
X328740Y114444D02*
Y115158D01*
X342520Y102362D02*
Y104806D01*
X338809Y108517D02*
X342520Y104806D01*
X338809Y108517D02*
Y114932D01*
X338583Y115158D02*
X338809Y114932D01*
X353577Y103116D02*
X354331Y102362D01*
X353577Y103116D02*
Y109292D01*
X348425Y114444D02*
X353577Y109292D01*
X348425Y114444D02*
Y115158D01*
X318898Y115157D02*
X318898Y115158D01*
Y125000D01*
X314961Y128937D02*
X318898Y125000D01*
X289370Y115158D02*
X289370Y115157D01*
X289370Y115158D02*
Y126969D01*
X291338Y128937D01*
X309055Y115158D02*
X309055Y115157D01*
X309055Y115158D02*
X309055Y123031D01*
X307086Y125000D02*
X309055Y123031D01*
X322834Y141929D02*
X322985Y141779D01*
X346457Y141929D02*
X346607Y141779D01*
X338583Y115157D02*
Y141929D01*
X307086Y125000D02*
Y141929D01*
X322985Y132723D02*
X328740Y126969D01*
Y115157D02*
Y126969D01*
X322985Y141779D02*
X322985Y132723D01*
X346607Y129771D02*
X348425Y127953D01*
Y115157D02*
Y127953D01*
X346607Y129771D02*
Y141779D01*
X291338Y128937D02*
Y141929D01*
X299213Y115157D02*
Y141929D01*
X314961Y128937D02*
Y141929D01*
X322834D02*
X322933Y141831D01*
X291240D02*
X291338Y141929D01*
X299114Y141831D02*
X299213Y141929D01*
X308071Y36024D02*
X314961Y42913D01*
X308071Y35433D02*
Y36024D01*
X314961Y42913D02*
Y60236D01*
X329724Y35433D02*
Y36024D01*
X322835Y60236D02*
X322933Y60138D01*
X298228Y36024D02*
X307087Y44882D01*
X298228Y35433D02*
Y36024D01*
X307087Y44882D02*
Y60236D01*
X288386Y36024D02*
X299114Y46752D01*
X288386Y35433D02*
Y36024D01*
X299114Y46752D02*
Y60138D01*
X299213Y60236D01*
X291240Y60138D02*
X291339Y60236D01*
X291240Y48720D02*
Y60138D01*
X278543Y36024D02*
X291240Y48720D01*
X278543Y35433D02*
Y36024D01*
X359026Y35659D02*
X359252Y35433D01*
X359026Y35659D02*
Y38612D01*
X346457Y51181D02*
X359026Y38612D01*
X346457Y60236D02*
X346457Y51181D01*
X349183Y35659D02*
X349409Y35433D01*
X349183Y35659D02*
Y38612D01*
X338681Y49114D02*
X349183Y38612D01*
X338681Y49114D02*
X338681Y53888D01*
X338681Y53888D02*
X338681Y53888D01*
X338681Y53888D02*
Y54921D01*
X339341Y35659D02*
Y38612D01*
Y35659D02*
X339567Y35433D01*
X323031Y54823D02*
X323130D01*
X322933Y54921D02*
X323031Y54823D01*
X323130D02*
X339341Y38612D01*
X322933Y54921D02*
Y60138D01*
D28*
X318898Y102362D02*
D03*
X307086D02*
D03*
X295275D02*
D03*
X283465Y102362D02*
D03*
X330709Y102362D02*
D03*
X342520D02*
D03*
X354331D02*
D03*
D29*
X318898Y86614D02*
D03*
X307086D02*
D03*
X295275D02*
D03*
X283465D02*
D03*
X330709D02*
D03*
X342520D02*
D03*
X354331D02*
D03*
D30*
X346457Y141929D02*
D03*
X338583D02*
D03*
X322834D02*
D03*
X314961D02*
D03*
X307086D02*
D03*
X299213D02*
D03*
D31*
X291339D02*
D03*
D32*
X279134Y141142D02*
D03*
X358661D02*
D03*
D33*
X299213Y115157D02*
D03*
X309055D02*
D03*
X318898D02*
D03*
X328740D02*
D03*
X338583D02*
D03*
X348425D02*
D03*
X308071Y35433D02*
D03*
X298228Y35433D02*
D03*
X288386D02*
D03*
X359252D02*
D03*
X349409D02*
D03*
X339567Y35433D02*
D03*
D34*
X289370Y115157D02*
D03*
X278543Y35433D02*
D03*
X329724Y35433D02*
D03*
D35*
X236221Y70866D02*
D03*
Y35433D02*
D03*
Y106299D02*
D03*
X198819Y70866D02*
D03*
Y35433D02*
D03*
Y106299D02*
D03*
X163386Y70866D02*
D03*
Y35433D02*
D03*
Y106299D02*
D03*
X125984D02*
D03*
Y35433D02*
D03*
Y70866D02*
D03*
X86614D02*
D03*
Y35433D02*
D03*
Y106299D02*
D03*
X49213Y70866D02*
D03*
Y35433D02*
D03*
Y106299D02*
D03*
X13780Y70866D02*
D03*
Y35433D02*
D03*
Y106299D02*
D03*
M02*
