G04*
G04 #@! TF.GenerationSoftware,Altium Limited,Altium Designer,20.1.11 (218)*
G04*
G04 Layer_Color=16711935*
%FSLAX25Y25*%
%MOIN*%
G70*
G04*
G04 #@! TF.SameCoordinates,12770DE6-1CAA-4FEE-BE88-2AEBEB1706B4*
G04*
G04*
G04 #@! TF.FilePolarity,Positive*
G04*
G01*
G75*
%ADD36C,0.00394*%
D36*
X0Y3937D02*
X134Y2918D01*
X527Y1969D01*
X1153Y1153D01*
X1969Y527D01*
X2918Y134D01*
X3937Y0D01*
X23622D02*
X24641Y134D01*
X25591Y527D01*
X26406Y1153D01*
X27032Y1969D01*
X27425Y2918D01*
X27559Y3937D01*
Y137795D02*
X27425Y138814D01*
X27032Y139764D01*
X26406Y140579D01*
X25591Y141205D01*
X24641Y141598D01*
X23622Y141732D01*
X3937D02*
X2918Y141598D01*
X1969Y141205D01*
X1153Y140579D01*
X527Y139764D01*
X134Y138814D01*
X0Y137795D01*
X19685Y5906D02*
X19604Y6877D01*
X19365Y7823D01*
X18973Y8716D01*
X18440Y9533D01*
X17779Y10250D01*
X17009Y10849D01*
X16152Y11314D01*
X15229Y11630D01*
X14267Y11791D01*
X13292D01*
X12330Y11630D01*
X11407Y11314D01*
X10549Y10849D01*
X9780Y10250D01*
X9119Y9533D01*
X8586Y8716D01*
X8194Y7823D01*
X7955Y6877D01*
X7874Y5906D01*
X19685Y1969D02*
X19949Y984D01*
X20669Y264D01*
X21654Y0D01*
X5906D02*
X6890Y264D01*
X7610Y984D01*
X7874Y1969D01*
X21654Y141732D02*
X20669Y141469D01*
X19949Y140748D01*
X19685Y139764D01*
X7874D02*
X7610Y140748D01*
X6890Y141469D01*
X5906Y141732D01*
X7874Y135827D02*
X7955Y134855D01*
X8194Y133909D01*
X8586Y133016D01*
X9119Y132200D01*
X9780Y131482D01*
X10549Y130883D01*
X11407Y130419D01*
X12330Y130102D01*
X13292Y129941D01*
X14267D01*
X15229Y130102D01*
X16152Y130419D01*
X17009Y130883D01*
X17779Y131482D01*
X18440Y132200D01*
X18973Y133016D01*
X19365Y133909D01*
X19604Y134855D01*
X19685Y135827D01*
X35433Y3937D02*
X35567Y2918D01*
X35961Y1969D01*
X36586Y1153D01*
X37402Y527D01*
X38351Y134D01*
X39370Y0D01*
X59055D02*
X60074Y134D01*
X61024Y527D01*
X61839Y1153D01*
X62465Y1969D01*
X62858Y2918D01*
X62992Y3937D01*
Y137795D02*
X62858Y138814D01*
X62465Y139764D01*
X61839Y140579D01*
X61024Y141205D01*
X60074Y141598D01*
X59055Y141732D01*
X39370D02*
X38351Y141598D01*
X37402Y141205D01*
X36586Y140579D01*
X35961Y139764D01*
X35567Y138814D01*
X35433Y137795D01*
X55118Y5906D02*
X55038Y6877D01*
X54798Y7823D01*
X54406Y8716D01*
X53873Y9533D01*
X53212Y10250D01*
X52443Y10849D01*
X51585Y11314D01*
X50662Y11630D01*
X49700Y11791D01*
X48725D01*
X47763Y11630D01*
X46840Y11314D01*
X45983Y10849D01*
X45213Y10250D01*
X44552Y9533D01*
X44019Y8716D01*
X43627Y7823D01*
X43388Y6877D01*
X43307Y5906D01*
X55118Y1969D02*
X55382Y984D01*
X56102Y264D01*
X57087Y0D01*
X41339D02*
X42323Y264D01*
X43043Y984D01*
X43307Y1969D01*
X57087Y141732D02*
X56102Y141469D01*
X55382Y140748D01*
X55118Y139764D01*
X43307D02*
X43043Y140748D01*
X42323Y141469D01*
X41339Y141732D01*
X43307Y135827D02*
X43388Y134855D01*
X43627Y133909D01*
X44019Y133016D01*
X44552Y132200D01*
X45213Y131482D01*
X45983Y130883D01*
X46840Y130419D01*
X47763Y130102D01*
X48725Y129941D01*
X49700D01*
X50662Y130102D01*
X51585Y130419D01*
X52443Y130883D01*
X53212Y131482D01*
X53873Y132200D01*
X54406Y133016D01*
X54798Y133909D01*
X55038Y134855D01*
X55118Y135827D01*
X70866Y3937D02*
X71000Y2918D01*
X71394Y1969D01*
X72019Y1153D01*
X72835Y527D01*
X73784Y134D01*
X74803Y0D01*
X98425D02*
X99444Y134D01*
X100394Y527D01*
X101209Y1153D01*
X101835Y1969D01*
X102228Y2918D01*
X102362Y3937D01*
Y137795D02*
X102228Y138814D01*
X101835Y139764D01*
X101209Y140579D01*
X100394Y141205D01*
X99444Y141598D01*
X98425Y141732D01*
X74803D02*
X73784Y141598D01*
X72835Y141205D01*
X72019Y140579D01*
X71394Y139764D01*
X71000Y138814D01*
X70866Y137795D01*
X92520Y5906D02*
X92439Y6877D01*
X92200Y7823D01*
X91808Y8716D01*
X91274Y9533D01*
X90614Y10250D01*
X89844Y10849D01*
X88986Y11314D01*
X88064Y11630D01*
X87102Y11791D01*
X86127D01*
X85164Y11630D01*
X84242Y11314D01*
X83384Y10849D01*
X82614Y10250D01*
X81954Y9533D01*
X81420Y8716D01*
X81029Y7823D01*
X80789Y6877D01*
X80709Y5906D01*
X92520Y1969D02*
X92783Y984D01*
X93504Y264D01*
X94488Y0D01*
X78740D02*
X79724Y264D01*
X80445Y984D01*
X80709Y1969D01*
X94488Y141732D02*
X93504Y141469D01*
X92783Y140748D01*
X92520Y139764D01*
X80709D02*
X80445Y140748D01*
X79724Y141469D01*
X78740Y141732D01*
X80709Y135827D02*
X80789Y134855D01*
X81029Y133909D01*
X81420Y133016D01*
X81954Y132200D01*
X82614Y131482D01*
X83384Y130883D01*
X84242Y130419D01*
X85164Y130102D01*
X86127Y129941D01*
X87102D01*
X88064Y130102D01*
X88986Y130419D01*
X89844Y130883D01*
X90614Y131482D01*
X91274Y132200D01*
X91808Y133016D01*
X92200Y133909D01*
X92439Y134855D01*
X92520Y135827D01*
X120079D02*
X120159Y134855D01*
X120399Y133909D01*
X120791Y133016D01*
X121324Y132200D01*
X121985Y131482D01*
X122754Y130883D01*
X123612Y130419D01*
X124534Y130102D01*
X125497Y129941D01*
X126472D01*
X127434Y130102D01*
X128357Y130419D01*
X129214Y130883D01*
X129984Y131482D01*
X130645Y132200D01*
X131178Y133016D01*
X131570Y133909D01*
X131809Y134855D01*
X131890Y135827D01*
X120079Y139764D02*
X119815Y140748D01*
X119095Y141469D01*
X118110Y141732D01*
X133858D02*
X132874Y141469D01*
X132153Y140748D01*
X131890Y139764D01*
X118110Y0D02*
X119095Y264D01*
X119815Y984D01*
X120079Y1969D01*
X131890D02*
X132153Y984D01*
X132874Y264D01*
X133858Y0D01*
X131890Y5906D02*
X131809Y6877D01*
X131570Y7823D01*
X131178Y8716D01*
X130645Y9533D01*
X129984Y10250D01*
X129214Y10849D01*
X128357Y11314D01*
X127434Y11630D01*
X126472Y11791D01*
X125497D01*
X124534Y11630D01*
X123612Y11314D01*
X122754Y10849D01*
X121985Y10250D01*
X121324Y9533D01*
X120791Y8716D01*
X120399Y7823D01*
X120159Y6877D01*
X120079Y5906D01*
X114173Y141732D02*
X113154Y141598D01*
X112205Y141205D01*
X111389Y140579D01*
X110764Y139764D01*
X110370Y138814D01*
X110236Y137795D01*
X141732D02*
X141598Y138814D01*
X141205Y139764D01*
X140579Y140579D01*
X139764Y141205D01*
X138814Y141598D01*
X137795Y141732D01*
Y0D02*
X138814Y134D01*
X139764Y527D01*
X140579Y1153D01*
X141205Y1969D01*
X141598Y2918D01*
X141732Y3937D01*
X110236D02*
X110370Y2918D01*
X110764Y1969D01*
X111389Y1153D01*
X112205Y527D01*
X113154Y134D01*
X114173Y0D01*
X149606Y3937D02*
X149741Y2918D01*
X150134Y1969D01*
X150759Y1153D01*
X151575Y527D01*
X152524Y134D01*
X153543Y0D01*
X173228D02*
X174247Y134D01*
X175197Y527D01*
X176012Y1153D01*
X176638Y1969D01*
X177031Y2918D01*
X177165Y3937D01*
Y137795D02*
X177031Y138814D01*
X176638Y139764D01*
X176012Y140579D01*
X175197Y141205D01*
X174247Y141598D01*
X173228Y141732D01*
X153543D02*
X152524Y141598D01*
X151575Y141205D01*
X150759Y140579D01*
X150134Y139764D01*
X149741Y138814D01*
X149606Y137795D01*
X169291Y5906D02*
X169211Y6877D01*
X168971Y7823D01*
X168580Y8716D01*
X168046Y9533D01*
X167385Y10250D01*
X166616Y10849D01*
X165758Y11314D01*
X164836Y11630D01*
X163874Y11791D01*
X162898D01*
X161936Y11630D01*
X161014Y11314D01*
X160156Y10849D01*
X159386Y10250D01*
X158726Y9533D01*
X158192Y8716D01*
X157800Y7823D01*
X157561Y6877D01*
X157480Y5906D01*
X169291Y1969D02*
X169555Y984D01*
X170276Y264D01*
X171260Y0D01*
X155512D02*
X156496Y264D01*
X157217Y984D01*
X157480Y1969D01*
X171260Y141732D02*
X170276Y141469D01*
X169555Y140748D01*
X169291Y139764D01*
X157480D02*
X157217Y140748D01*
X156496Y141469D01*
X155512Y141732D01*
X157480Y135827D02*
X157561Y134855D01*
X157800Y133909D01*
X158192Y133016D01*
X158726Y132200D01*
X159386Y131482D01*
X160156Y130883D01*
X161014Y130419D01*
X161936Y130102D01*
X162898Y129941D01*
X163874D01*
X164836Y130102D01*
X165758Y130419D01*
X166616Y130883D01*
X167385Y131482D01*
X168046Y132200D01*
X168580Y133016D01*
X168971Y133909D01*
X169211Y134855D01*
X169291Y135827D01*
X185039Y3937D02*
X185173Y2918D01*
X185567Y1969D01*
X186193Y1153D01*
X187008Y527D01*
X187957Y134D01*
X188976Y0D01*
X208661D02*
X209680Y134D01*
X210630Y527D01*
X211445Y1153D01*
X212071Y1969D01*
X212464Y2918D01*
X212598Y3937D01*
Y137795D02*
X212464Y138814D01*
X212071Y139764D01*
X211445Y140579D01*
X210630Y141205D01*
X209680Y141598D01*
X208661Y141732D01*
X188976D02*
X187957Y141598D01*
X187008Y141205D01*
X186193Y140579D01*
X185567Y139764D01*
X185173Y138814D01*
X185039Y137795D01*
X204724Y5906D02*
X204644Y6877D01*
X204404Y7823D01*
X204013Y8716D01*
X203479Y9533D01*
X202819Y10250D01*
X202049Y10849D01*
X201191Y11314D01*
X200269Y11630D01*
X199307Y11791D01*
X198331D01*
X197369Y11630D01*
X196447Y11314D01*
X195589Y10849D01*
X194819Y10250D01*
X194159Y9533D01*
X193625Y8716D01*
X193233Y7823D01*
X192994Y6877D01*
X192913Y5906D01*
X204724Y1969D02*
X204988Y984D01*
X205709Y264D01*
X206693Y0D01*
X190945D02*
X191929Y264D01*
X192650Y984D01*
X192913Y1969D01*
X206693Y141732D02*
X205709Y141469D01*
X204988Y140748D01*
X204724Y139764D01*
X192913D02*
X192650Y140748D01*
X191929Y141469D01*
X190945Y141732D01*
X192913Y135827D02*
X192994Y134855D01*
X193233Y133909D01*
X193625Y133016D01*
X194159Y132200D01*
X194819Y131482D01*
X195589Y130883D01*
X196447Y130419D01*
X197369Y130102D01*
X198331Y129941D01*
X199307D01*
X200269Y130102D01*
X201191Y130419D01*
X202049Y130883D01*
X202819Y131482D01*
X203479Y132200D01*
X204013Y133016D01*
X204404Y133909D01*
X204644Y134855D01*
X204724Y135827D01*
X220472Y3937D02*
X220607Y2918D01*
X221000Y1969D01*
X221626Y1153D01*
X222441Y527D01*
X223391Y134D01*
X224410Y0D01*
X248031D02*
X249050Y134D01*
X250000Y527D01*
X250815Y1153D01*
X251441Y1969D01*
X251834Y2918D01*
X251969Y3937D01*
Y137795D02*
X251834Y138814D01*
X251441Y139764D01*
X250815Y140579D01*
X250000Y141205D01*
X249050Y141598D01*
X248031Y141732D01*
X224410D02*
X223391Y141598D01*
X222441Y141205D01*
X221626Y140579D01*
X221000Y139764D01*
X220607Y138814D01*
X220472Y137795D01*
X242126Y5906D02*
X242045Y6877D01*
X241806Y7823D01*
X241414Y8716D01*
X240881Y9533D01*
X240220Y10250D01*
X239451Y10849D01*
X238593Y11314D01*
X237670Y11630D01*
X236708Y11791D01*
X235733D01*
X234771Y11630D01*
X233848Y11314D01*
X232991Y10849D01*
X232221Y10250D01*
X231560Y9533D01*
X231027Y8716D01*
X230635Y7823D01*
X230396Y6877D01*
X230315Y5906D01*
X242126Y1969D02*
X242390Y984D01*
X243110Y264D01*
X244094Y0D01*
X228346D02*
X229331Y264D01*
X230051Y984D01*
X230315Y1969D01*
X244094Y141732D02*
X243110Y141469D01*
X242390Y140748D01*
X242126Y139764D01*
X230315D02*
X230051Y140748D01*
X229331Y141469D01*
X228346Y141732D01*
X230315Y135827D02*
X230396Y134855D01*
X230635Y133909D01*
X231027Y133016D01*
X231560Y132200D01*
X232221Y131482D01*
X232991Y130883D01*
X233848Y130419D01*
X234771Y130102D01*
X235733Y129941D01*
X236708D01*
X237670Y130102D01*
X238593Y130419D01*
X239451Y130883D01*
X240220Y131482D01*
X240881Y132200D01*
X241414Y133016D01*
X241806Y133909D01*
X242045Y134855D01*
X242126Y135827D01*
X374016Y-0D02*
X375035Y134D01*
X375984Y527D01*
X376800Y1153D01*
X377425Y1969D01*
X377819Y2918D01*
X377953Y3937D01*
Y66929D02*
X377819Y67948D01*
X377425Y68898D01*
X376800Y69713D01*
X375984Y70339D01*
X375035Y70732D01*
X374016Y70866D01*
X263779D02*
X262761Y70732D01*
X261811Y70339D01*
X260996Y69713D01*
X260370Y68898D01*
X259977Y67948D01*
X259842Y66929D01*
Y3937D02*
X259977Y2918D01*
X260370Y1969D01*
X260996Y1153D01*
X261811Y527D01*
X262761Y134D01*
X263779Y-0D01*
X370079Y62992D02*
X369107Y62912D01*
X368161Y62672D01*
X367268Y62280D01*
X366452Y61747D01*
X365734Y61086D01*
X365135Y60317D01*
X364671Y59459D01*
X364354Y58536D01*
X364193Y57574D01*
Y56599D01*
X364354Y55637D01*
X364671Y54714D01*
X365135Y53857D01*
X365734Y53087D01*
X366452Y52426D01*
X367268Y51893D01*
X368161Y51501D01*
X369107Y51262D01*
X370079Y51181D01*
X375984Y62992D02*
X376969Y63256D01*
X377689Y63976D01*
X377953Y64961D01*
Y49213D02*
X377689Y50197D01*
X376969Y50917D01*
X375984Y51181D01*
X259842Y64961D02*
X260106Y63976D01*
X260827Y63256D01*
X261811Y62992D01*
Y51181D02*
X260827Y50917D01*
X260106Y50197D01*
X259842Y49213D01*
X267717Y51181D02*
X268689Y51262D01*
X269634Y51501D01*
X270527Y51893D01*
X271344Y52426D01*
X272061Y53087D01*
X272660Y53857D01*
X273125Y54714D01*
X273441Y55637D01*
X273602Y56599D01*
Y57574D01*
X273441Y58536D01*
X273125Y59459D01*
X272660Y60317D01*
X272061Y61086D01*
X271344Y61747D01*
X270527Y62280D01*
X269634Y62672D01*
X268689Y62912D01*
X267717Y62992D01*
X374016Y78740D02*
X375035Y78874D01*
X375984Y79268D01*
X376800Y79893D01*
X377425Y80709D01*
X377819Y81658D01*
X377953Y82677D01*
Y145669D02*
X377819Y146688D01*
X377425Y147638D01*
X376800Y148453D01*
X375984Y149079D01*
X375035Y149472D01*
X374016Y149606D01*
X263779D02*
X262761Y149472D01*
X261811Y149079D01*
X260996Y148453D01*
X260370Y147638D01*
X259977Y146688D01*
X259842Y145669D01*
X259842Y82677D02*
X259977Y81658D01*
X260370Y80709D01*
X260996Y79893D01*
X261811Y79268D01*
X262760Y78874D01*
X263779Y78740D01*
X370079Y123031D02*
X369107Y122951D01*
X368161Y122712D01*
X367268Y122320D01*
X366452Y121786D01*
X365734Y121126D01*
X365135Y120356D01*
X364671Y119498D01*
X364354Y118576D01*
X364193Y117614D01*
Y116638D01*
X364354Y115676D01*
X364671Y114754D01*
X365135Y113896D01*
X365734Y113126D01*
X366452Y112466D01*
X367268Y111932D01*
X368161Y111540D01*
X369107Y111301D01*
X370079Y111221D01*
X375984Y123031D02*
X376969Y123295D01*
X377689Y124016D01*
X377953Y125000D01*
Y109252D02*
X377689Y110236D01*
X376969Y110957D01*
X375984Y111221D01*
X259842Y125000D02*
X260106Y124016D01*
X260827Y123295D01*
X261811Y123031D01*
Y111221D02*
X260827Y110957D01*
X260106Y110236D01*
X259842Y109252D01*
X267717Y111221D02*
X268689Y111301D01*
X269634Y111540D01*
X270527Y111932D01*
X271344Y112466D01*
X272061Y113126D01*
X272660Y113896D01*
X273125Y114754D01*
X273441Y115676D01*
X273602Y116638D01*
Y117614D01*
X273441Y118576D01*
X273125Y119498D01*
X272660Y120356D01*
X272061Y121126D01*
X271344Y121786D01*
X270527Y122320D01*
X269634Y122712D01*
X268689Y122951D01*
X267717Y123031D01*
X27559Y100394D02*
X27693Y99375D01*
X28087Y98425D01*
X28712Y97610D01*
X29528Y96984D01*
X30477Y96591D01*
X31496Y96457D01*
X32515Y96591D01*
X33465Y96984D01*
X34280Y97610D01*
X34906Y98425D01*
X35299Y99375D01*
X35433Y100394D01*
Y11811D02*
X35299Y12830D01*
X34906Y13780D01*
X34280Y14595D01*
X33465Y15221D01*
X32515Y15614D01*
X31496Y15748D01*
X30477Y15614D01*
X29528Y15221D01*
X28712Y14595D01*
X28087Y13780D01*
X27693Y12830D01*
X27559Y11811D01*
X35433Y80709D02*
X35299Y81728D01*
X34906Y82677D01*
X34280Y83493D01*
X33465Y84118D01*
X32515Y84512D01*
X31496Y84646D01*
X30477Y84512D01*
X29528Y84118D01*
X28712Y83493D01*
X28087Y82677D01*
X27693Y81728D01*
X27559Y80709D01*
X70866D02*
X70732Y81728D01*
X70339Y82677D01*
X69713Y83493D01*
X68898Y84118D01*
X67948Y84512D01*
X66929Y84646D01*
X65910Y84512D01*
X64961Y84118D01*
X64145Y83493D01*
X63520Y82677D01*
X63126Y81728D01*
X62992Y80709D01*
X70866Y11811D02*
X70732Y12830D01*
X70339Y13780D01*
X69713Y14595D01*
X68898Y15221D01*
X67948Y15614D01*
X66929Y15748D01*
X65910Y15614D01*
X64961Y15221D01*
X64145Y14595D01*
X63520Y13780D01*
X63126Y12830D01*
X62992Y11811D01*
Y100394D02*
X63126Y99375D01*
X63520Y98425D01*
X64145Y97610D01*
X64961Y96984D01*
X65910Y96591D01*
X66929Y96457D01*
X67948Y96591D01*
X68898Y96984D01*
X69713Y97610D01*
X70339Y98425D01*
X70732Y99375D01*
X70866Y100394D01*
X110236Y80709D02*
X110102Y81728D01*
X109709Y82677D01*
X109083Y83493D01*
X108268Y84118D01*
X107318Y84512D01*
X106299Y84646D01*
X105280Y84512D01*
X104331Y84118D01*
X103515Y83493D01*
X102890Y82677D01*
X102496Y81728D01*
X102362Y80709D01*
X110236Y11811D02*
X110102Y12830D01*
X109709Y13780D01*
X109083Y14595D01*
X108268Y15221D01*
X107318Y15614D01*
X106299Y15748D01*
X105280Y15614D01*
X104331Y15221D01*
X103515Y14595D01*
X102890Y13780D01*
X102496Y12830D01*
X102362Y11811D01*
Y100394D02*
X102496Y99375D01*
X102890Y98425D01*
X103515Y97610D01*
X104331Y96984D01*
X105280Y96591D01*
X106299Y96457D01*
X107318Y96591D01*
X108268Y96984D01*
X109083Y97610D01*
X109709Y98425D01*
X110102Y99375D01*
X110236Y100394D01*
X149606Y80709D02*
X149472Y81728D01*
X149079Y82677D01*
X148453Y83493D01*
X147638Y84118D01*
X146688Y84512D01*
X145669Y84646D01*
X144650Y84512D01*
X143701Y84118D01*
X142885Y83493D01*
X142260Y82677D01*
X141866Y81728D01*
X141732Y80709D01*
X149606Y11811D02*
X149472Y12830D01*
X149079Y13780D01*
X148453Y14595D01*
X147638Y15221D01*
X146688Y15614D01*
X145669Y15748D01*
X144650Y15614D01*
X143701Y15221D01*
X142885Y14595D01*
X142260Y13780D01*
X141866Y12830D01*
X141732Y11811D01*
Y100394D02*
X141866Y99375D01*
X142260Y98425D01*
X142885Y97610D01*
X143701Y96984D01*
X144650Y96591D01*
X145669Y96457D01*
X146688Y96591D01*
X147638Y96984D01*
X148453Y97610D01*
X149079Y98425D01*
X149472Y99375D01*
X149606Y100394D01*
X185039Y80709D02*
X184905Y81728D01*
X184512Y82677D01*
X183886Y83493D01*
X183071Y84118D01*
X182121Y84512D01*
X181102Y84646D01*
X180083Y84512D01*
X179134Y84118D01*
X178319Y83493D01*
X177693Y82677D01*
X177299Y81728D01*
X177165Y80709D01*
X185039Y11811D02*
X184905Y12830D01*
X184512Y13780D01*
X183886Y14595D01*
X183071Y15221D01*
X182121Y15614D01*
X181102Y15748D01*
X180083Y15614D01*
X179134Y15221D01*
X178319Y14595D01*
X177693Y13780D01*
X177299Y12830D01*
X177165Y11811D01*
Y100394D02*
X177299Y99375D01*
X177693Y98425D01*
X178319Y97610D01*
X179134Y96984D01*
X180083Y96591D01*
X181102Y96457D01*
X182121Y96591D01*
X183071Y96984D01*
X183886Y97610D01*
X184512Y98425D01*
X184905Y99375D01*
X185039Y100394D01*
X220472Y80709D02*
X220338Y81728D01*
X219945Y82677D01*
X219319Y83493D01*
X218504Y84118D01*
X217554Y84512D01*
X216535Y84646D01*
X215516Y84512D01*
X214567Y84118D01*
X213752Y83493D01*
X213126Y82677D01*
X212733Y81728D01*
X212598Y80709D01*
X220472Y11811D02*
X220338Y12830D01*
X219945Y13780D01*
X219319Y14595D01*
X218504Y15221D01*
X217554Y15614D01*
X216535Y15748D01*
X215516Y15614D01*
X214567Y15221D01*
X213752Y14595D01*
X213126Y13780D01*
X212733Y12830D01*
X212598Y11811D01*
Y100394D02*
X212733Y99375D01*
X213126Y98425D01*
X213752Y97610D01*
X214567Y96984D01*
X215516Y96591D01*
X216535Y96457D01*
X217554Y96591D01*
X218504Y96984D01*
X219319Y97610D01*
X219945Y98425D01*
X220338Y99375D01*
X220472Y100394D01*
X259842Y86614D02*
X259708Y87633D01*
X259315Y88583D01*
X258689Y89398D01*
X257874Y90024D01*
X256925Y90417D01*
X255906Y90551D01*
X254887Y90417D01*
X253937Y90024D01*
X253122Y89398D01*
X252496Y88583D01*
X252103Y87633D01*
X251969Y86614D01*
X259842Y11811D02*
X259708Y12830D01*
X259315Y13780D01*
X258689Y14595D01*
X257874Y15221D01*
X256925Y15614D01*
X255906Y15748D01*
X254887Y15614D01*
X253937Y15221D01*
X253122Y14595D01*
X252496Y13780D01*
X252103Y12830D01*
X251969Y11811D01*
X251969Y106299D02*
X252103Y105280D01*
X252496Y104331D01*
X253122Y103515D01*
X253937Y102890D01*
X254887Y102496D01*
X255906Y102362D01*
X256925Y102496D01*
X257874Y102890D01*
X258689Y103515D01*
X259315Y104331D01*
X259708Y105280D01*
X259842Y106299D01*
X350394Y70866D02*
X351413Y71000D01*
X352362Y71394D01*
X353178Y72019D01*
X353803Y72835D01*
X354197Y73784D01*
X354331Y74803D01*
X354197Y75822D01*
X353803Y76772D01*
X353178Y77587D01*
X352362Y78213D01*
X351413Y78606D01*
X350394Y78740D01*
X370079D02*
X369060Y78606D01*
X368110Y78213D01*
X367295Y77587D01*
X366669Y76772D01*
X366276Y75822D01*
X366142Y74803D01*
X366276Y73784D01*
X366669Y72835D01*
X367295Y72019D01*
X368110Y71394D01*
X369060Y71000D01*
X370079Y70866D01*
X212598Y31496D02*
X212733Y30477D01*
X213126Y29528D01*
X213752Y28712D01*
X214567Y28087D01*
X215516Y27693D01*
X216535Y27559D01*
X217554Y27693D01*
X218504Y28087D01*
X219319Y28712D01*
X219945Y29528D01*
X220338Y30477D01*
X220472Y31496D01*
X177165D02*
X177299Y30477D01*
X177693Y29528D01*
X178319Y28712D01*
X179134Y28087D01*
X180083Y27693D01*
X181102Y27559D01*
X182121Y27693D01*
X183071Y28087D01*
X183886Y28712D01*
X184512Y29528D01*
X184905Y30477D01*
X185039Y31496D01*
X251969D02*
X252103Y30477D01*
X252496Y29528D01*
X253122Y28712D01*
X253937Y28087D01*
X254887Y27693D01*
X255906Y27559D01*
X256925Y27693D01*
X257874Y28087D01*
X258689Y28712D01*
X259315Y29528D01*
X259708Y30477D01*
X259842Y31496D01*
X141732D02*
X141866Y30477D01*
X142260Y29528D01*
X142885Y28712D01*
X143701Y28087D01*
X144650Y27693D01*
X145669Y27559D01*
X146688Y27693D01*
X147638Y28087D01*
X148453Y28712D01*
X149079Y29528D01*
X149472Y30477D01*
X149606Y31496D01*
X102362D02*
X102496Y30477D01*
X102890Y29528D01*
X103515Y28712D01*
X104331Y28087D01*
X105280Y27693D01*
X106299Y27559D01*
X107318Y27693D01*
X108268Y28087D01*
X109083Y28712D01*
X109709Y29528D01*
X110102Y30477D01*
X110236Y31496D01*
X62992D02*
X63126Y30477D01*
X63520Y29528D01*
X64145Y28712D01*
X64961Y28087D01*
X65910Y27693D01*
X66929Y27559D01*
X67948Y27693D01*
X68898Y28087D01*
X69713Y28712D01*
X70339Y29528D01*
X70732Y30477D01*
X70866Y31496D01*
X27559D02*
X27693Y30477D01*
X28087Y29528D01*
X28712Y28712D01*
X29528Y28087D01*
X30477Y27693D01*
X31496Y27559D01*
X32515Y27693D01*
X33465Y28087D01*
X34280Y28712D01*
X34906Y29528D01*
X35299Y30477D01*
X35433Y31496D01*
X0Y3937D02*
Y137795D01*
X3937Y141732D02*
X5906D01*
X27559Y100394D02*
Y137795D01*
X21654Y141732D02*
X23622D01*
X21654Y0D02*
X23622D01*
X3937D02*
X5906D01*
X19685Y1969D02*
Y5906D01*
X7874Y1969D02*
Y5906D01*
X19685Y135827D02*
Y139764D01*
X7874Y135827D02*
Y139764D01*
X39370Y141732D02*
X41339D01*
X57087D02*
X59055D01*
X57087Y0D02*
X59055D01*
X39370D02*
X41339D01*
X55118Y1969D02*
Y5906D01*
X43307Y1969D02*
Y5906D01*
X55118Y135827D02*
Y139764D01*
X43307Y135827D02*
Y139764D01*
X74803Y141732D02*
X78740D01*
X94488D02*
X98425D01*
X94488Y0D02*
X98425D01*
X74803D02*
X78740D01*
X92520Y1969D02*
Y5906D01*
X80709Y1969D02*
Y5906D01*
X92520Y135827D02*
Y139764D01*
X80709Y135827D02*
Y139764D01*
X120079Y135827D02*
Y139764D01*
X131890Y135827D02*
Y139764D01*
X120079Y1969D02*
Y5906D01*
X131890Y1969D02*
Y5906D01*
X114173Y0D02*
X118110D01*
X133858D02*
X137795D01*
X133858Y141732D02*
X137795D01*
X114173D02*
X118110D01*
X153543D02*
X155512D01*
X171260D02*
X173228D01*
X171260Y0D02*
X173228D01*
X153543D02*
X155512D01*
X169291Y1969D02*
Y5906D01*
X157480Y1969D02*
Y5906D01*
X169291Y135827D02*
Y139764D01*
X157480Y135827D02*
Y139764D01*
X188976Y141732D02*
X190945D01*
X206693D02*
X208661D01*
X206693Y0D02*
X208661D01*
X188976D02*
X190945D01*
X204724Y1969D02*
Y5906D01*
X192913Y1969D02*
Y5906D01*
X204724Y135827D02*
Y139764D01*
X192913Y135827D02*
Y139764D01*
X224410Y141732D02*
X228346D01*
X244094D02*
X248031D01*
X244094Y0D02*
X248031D01*
X224410D02*
X228346D01*
X242126Y1969D02*
Y5906D01*
X230315Y1969D02*
Y5906D01*
X242126Y135827D02*
Y139764D01*
X230315Y135827D02*
Y139764D01*
X259842Y3937D02*
Y11811D01*
Y64961D02*
Y66929D01*
X377953Y64961D02*
Y66929D01*
Y3937D02*
Y49213D01*
X370079Y62992D02*
X375984D01*
X370079Y51181D02*
X375984D01*
X261811Y62992D02*
X267717D01*
X261811Y51181D02*
X267717D01*
X259842Y106299D02*
Y109252D01*
X263780Y149606D02*
X374025D01*
X259842Y125000D02*
Y145669D01*
X377953Y125000D02*
Y145669D01*
Y82677D02*
Y109252D01*
X370079Y123032D02*
X375984D01*
X370079Y111221D02*
X375984Y111221D01*
X261811Y123032D02*
X267717D01*
X261811Y111221D02*
X267717D01*
X27559Y31496D02*
Y80709D01*
X27559Y3937D02*
Y11811D01*
X35433Y3937D02*
Y11811D01*
X35433Y31496D02*
Y80709D01*
X70866Y31496D02*
Y80709D01*
X70866Y3937D02*
Y11811D01*
X62992Y3937D02*
Y11811D01*
X62992Y31496D02*
Y80709D01*
X110236Y31496D02*
Y80709D01*
X110236Y3937D02*
Y11811D01*
X102362Y3937D02*
Y11811D01*
X102362Y31496D02*
Y80709D01*
X149606Y31496D02*
Y80709D01*
X149606Y3937D02*
Y11811D01*
X141732Y3937D02*
Y11811D01*
X141732Y31496D02*
Y80709D01*
X185039Y31496D02*
Y80709D01*
X185039Y3937D02*
Y11811D01*
X177165Y3937D02*
Y11811D01*
X177165Y31496D02*
Y80709D01*
X220472Y31496D02*
Y80709D01*
X220472Y3937D02*
Y11811D01*
X212598Y3937D02*
Y11811D01*
X212598Y31496D02*
Y80709D01*
X263779Y0D02*
X374016Y-0D01*
X263779Y78740D02*
X350394Y78740D01*
X370079Y78740D02*
X374016D01*
X370079Y70866D02*
X374016D01*
X263779Y70866D02*
X350394Y70866D01*
X259842Y31496D02*
Y49213D01*
Y82677D02*
Y86614D01*
X251969Y3937D02*
Y11811D01*
Y31496D02*
Y86614D01*
Y106299D02*
Y137795D01*
X35433Y100394D02*
Y137795D01*
X62992Y100394D02*
Y137795D01*
X70866Y100394D02*
Y137795D01*
X102362Y100394D02*
Y137795D01*
X110236Y100394D02*
Y137795D01*
X141732Y100394D02*
Y137795D01*
X149606Y100394D02*
Y137795D01*
X177165Y100394D02*
Y137795D01*
X185039Y100394D02*
Y137795D01*
X212598Y100394D02*
Y137795D01*
X220472Y100394D02*
Y137795D01*
M02*
