M48
;Layer_Color=9474304
;FILE_FORMAT=2:5
INCH,TZ
;TYPE=PLATED
T1F00S00C0.03937
T2F00S00C0.04331
T3F00S00C0.05906
T4F00S00C0.07874
T5F00S00C0.19685
%
T01
X278543Y35433
X288386Y35433
X298228
X308071Y35433
X329724Y35433
X339567Y35433
X349409Y35433
X359252
X348425Y115157
X338583
X328740
X318898
X309055
X299213
X289370
T02
X291339Y141929
X299213
X307086
X314961
X322834
X338583
X346457
T03
X283465Y102362
X295275Y102362
X307086
X318898
X330709
X342520
X354331
T04
X283465Y86614
X295275
X307086
X318898
X330709
X342520
X354331
X358661Y141142
X279134
T05
X13780Y35433
X49213
X86614
X125984
X163386
X198819
X236221
Y70866
Y106299
X198819
Y70866
X163386
Y106299
X125984
Y70866
X86614
Y106299
X49213
Y70866
X13780
Y106299
M30
