  0
SECTION
  2
HEADER
  9
$ACADVER
  1
AC1006
  9
$EXTMIN
 10
0.000000
 20
0.000000
 30
0.000000
  9
$EXTMAX
 10
638.000000
 20
469.000000
 30
0.000000
  0
ENDSEC
  0
SECTION
  2
ENTITIES
  0
POLYLINE
  8
0
 66
1
 70
1
  0
VERTEX
  8
0
 10
317.610590
 20
460.966226
 42
-0.073320
  0
VERTEX
  8
0
 10
314.939809
 20
452.481092
 42
-0.039237
  0
VERTEX
  8
0
 10
309.375071
 20
442.978253
 42
-0.037338
  0
VERTEX
  8
0
 10
301.891113
 20
433.776847
 42
-0.041518
  0
VERTEX
  8
0
 10
293.364311
 20
426.140841
 42
-0.040557
  0
VERTEX
  8
0
 10
281.606947
 20
418.666276
 42
-0.021725
  0
VERTEX
  8
0
 10
266.043772
 20
411.305809
 42
-0.020528
  0
VERTEX
  8
0
 10
250.736594
 20
405.591747
 42
-0.079236
  0
VERTEX
  8
0
 10
240.750000
 20
403.999772
 42
0.014488
  0
VERTEX
  8
0
 10
239.312375
 20
403.958195
 42
0.023759
  0
VERTEX
  8
0
 10
238.101562
 20
403.830107
 42
0.020427
  0
VERTEX
  8
0
 10
237.179368
 20
403.649158
 42
0.347054
  0
VERTEX
  8
0
 10
237.000000
 20
403.421868
 42
0.103311
  0
VERTEX
  8
0
 10
237.085892
 20
403.010610
 42
0.001774
  0
VERTEX
  8
0
 10
238.017228
 20
400.898659
 42
0.004433
  0
VERTEX
  8
0
 10
239.135804
 20
398.445072
 42
0.002927
  0
VERTEX
  8
0
 10
240.462904
 20
395.644063
 42
-0.022810
  0
VERTEX
  8
0
 10
243.064781
 20
389.536149
 42
-0.029229
  0
VERTEX
  8
0
 10
244.862534
 20
383.696581
 42
-0.032811
  0
VERTEX
  8
0
 10
245.779992
 20
378.495722
 42
-0.067574
  0
VERTEX
  8
0
 10
245.673047
 20
374.372649
 42
0.025153
  0
VERTEX
  8
0
 10
245.523910
 20
373.029459
 42
0.048897
  0
VERTEX
  8
0
 10
245.564254
 20
371.952187
 42
0.071860
  0
VERTEX
  8
0
 10
245.769620
 20
371.234278
 42
0.295339
  0
VERTEX
  8
0
 10
246.131650
 20
371.000000
 42
0.071455
  0
VERTEX
  8
0
 10
252.113001
 20
371.859178
 42
0.004970
  0
VERTEX
  8
0
 10
268.418067
 20
376.818626
 42
0.007797
  0
VERTEX
  8
0
 10
285.018863
 20
382.334879
 42
0.017087
  0
VERTEX
  8
0
 10
297.500000
 20
387.184110
 42
0.028704
  0
VERTEX
  8
0
 10
310.503947
 20
393.661553
 42
0.034731
  0
VERTEX
  8
0
 10
321.837081
 20
401.232725
 42
0.038626
  0
VERTEX
  8
0
 10
330.734673
 20
409.285711
 42
0.072520
  0
VERTEX
  8
0
 10
336.304415
 20
417.200975
 42
0.063942
  0
VERTEX
  8
0
 10
338.417446
 20
423.161358
 42
0.051982
  0
VERTEX
  8
0
 10
339.155935
 20
429.902818
 42
0.051399
  0
VERTEX
  8
0
 10
338.488042
 20
436.733540
 42
0.058937
  0
VERTEX
  8
0
 10
336.439367
 20
442.959080
 42
0.042944
  0
VERTEX
  8
0
 10
333.044826
 20
448.867374
 42
0.016036
  0
VERTEX
  8
0
 10
327.331621
 20
456.550554
 42
0.008822
  0
VERTEX
  8
0
 10
321.256248
 20
463.925063
 42
0.219435
  0
VERTEX
  8
0
 10
318.924860
 20
465.000000
 42
0.302140
  0
VERTEX
  8
0
 10
318.630633
 20
464.804343
 42
0.020541
  0
VERTEX
  8
0
 10
318.262730
 20
463.815079
 42
0.023927
  0
VERTEX
  8
0
 10
317.906196
 20
462.512265
 42
0.015180
  0
SEQEND
  0
POLYLINE
  8
0
 66
1
 70
1
  0
VERTEX
  8
0
 10
184.082917
 20
427.751241
 42
0.028057
  0
VERTEX
  8
0
 10
183.660171
 20
426.179039
 42
0.026133
  0
VERTEX
  8
0
 10
183.403911
 20
424.531680
 42
0.027077
  0
VERTEX
  8
0
 10
183.332576
 20
423.044424
 42
0.075422
  0
VERTEX
  8
0
 10
183.495354
 20
422.014639
 42
0.105874
  0
VERTEX
  8
0
 10
184.428472
 20
420.378446
 42
0.074599
  0
VERTEX
  8
0
 10
186.063539
 20
419.021754
 42
0.078472
  0
VERTEX
  8
0
 10
187.927267
 20
418.262029
 42
0.150332
  0
VERTEX
  8
0
 10
189.523697
 20
418.370720
 42
0.159931
  0
VERTEX
  8
0
 10
190.096385
 20
418.837235
 42
0.173341
  0
VERTEX
  8
0
 10
190.257619
 20
419.536032
 42
0.072877
  0
VERTEX
  8
0
 10
189.953070
 20
420.671686
 42
0.012597
  0
VERTEX
  8
0
 10
189.017269
 20
422.697723
 42
-0.005574
  0
VERTEX
  8
0
 10
188.232683
 20
424.335548
 42
-0.004486
  0
VERTEX
  8
0
 10
187.424668
 20
426.113209
 42
-0.004535
  0
VERTEX
  8
0
 10
186.707769
 20
427.769072
 42
-0.011569
  0
VERTEX
  8
0
 10
186.227001
 20
428.985541
 42
0.012949
  0
VERTEX
  8
0
 10
185.604366
 20
430.548342
 42
0.449006
  0
VERTEX
  8
0
 10
185.269886
 20
430.659820
 42
0.180377
  0
VERTEX
  8
0
 10
184.928906
 20
430.247970
 42
0.003961
  0
SEQEND
  0
POLYLINE
  8
0
 66
1
 70
1
  0
VERTEX
  8
0
 10
13.170161
 20
422.333543
 42
0.016140
  0
VERTEX
  8
0
 10
9.194206
 20
413.876376
 42
0.040369
  0
VERTEX
  8
0
 10
7.007347
 20
407.418068
 42
0.041819
  0
VERTEX
  8
0
 10
5.928855
 20
400.827699
 42
0.018450
  0
VERTEX
  8
0
 10
5.560328
 20
392.000000
 42
0.005230
  0
VERTEX
  8
0
 10
5.603819
 20
384.278955
 42
0.034580
  0
VERTEX
  8
0
 10
5.932090
 20
380.436454
 42
0.053048
  0
VERTEX
  8
0
 10
6.743236
 20
377.391614
 42
0.022281
  0
VERTEX
  8
0
 10
8.438842
 20
373.500000
 42
0.063216
  0
VERTEX
  8
0
 10
13.980324
 20
365.073626
 42
0.043904
  0
VERTEX
  8
0
 10
22.130159
 20
357.090638
 42
0.041702
  0
VERTEX
  8
0
 10
32.078727
 20
350.226630
 42
0.042069
  0
VERTEX
  8
0
 10
43.000000
 20
345.131680
 42
0.016421
  0
VERTEX
  8
0
 10
53.805741
 20
341.555874
 42
0.034798
  0
VERTEX
  8
0
 10
62.411538
 20
339.657032
 42
0.028678
  0
VERTEX
  8
0
 10
72.180654
 20
338.772879
 42
0.008055
  0
VERTEX
  8
0
 10
87.500000
 20
338.515364
 42
0.002671
  0
VERTEX
  8
0
 10
100.634360
 20
338.576351
 42
0.016897
  0
VERTEX
  8
0
 10
107.313669
 20
338.868933
 42
0.029848
  0
VERTEX
  8
0
 10
112.201779
 20
339.544047
 42
0.022117
  0
VERTEX
  8
0
 10
117.500000
 20
340.847067
 42
0.016359
  0
VERTEX
  8
0
 10
125.923392
 20
343.620642
 42
0.031301
  0
VERTEX
  8
0
 10
132.441164
 20
346.479742
 42
0.037732
  0
VERTEX
  8
0
 10
136.984416
 20
349.273965
 42
0.169294
  0
VERTEX
  8
0
 10
138.742921
 20
351.797703
 42
0.091551
  0
VERTEX
  8
0
 10
139.555725
 20
360.747961
 42
0.063960
  0
VERTEX
  8
0
 10
137.341067
 20
370.662163
 42
0.065972
  0
VERTEX
  8
0
 10
132.836039
 20
379.330885
 42
0.120564
  0
VERTEX
  8
0
 10
126.877656
 20
384.554681
 42
0.093463
  0
VERTEX
  8
0
 10
124.604125
 20
385.241669
 42
0.013969
  0
VERTEX
  8
0
 10
119.821722
 20
385.620860
 42
0.010458
  0
VERTEX
  8
0
 10
112.580894
 20
385.840126
 42
0.002688
  0
VERTEX
  8
0
 10
100.877656
 20
385.886720
 42
-0.022540
  0
VERTEX
  8
0
 10
66.559620
 20
387.386585
 42
-0.073797
  0
VERTEX
  8
0
 10
44.537616
 20
392.684241
 42
-0.107043
  0
VERTEX
  8
0
 10
29.643734
 20
402.801201
 42
-0.083706
  0
VERTEX
  8
0
 10
18.678936
 20
419.042748
 42
0.000000
  0
VERTEX
  8
0
 10
15.291487
 20
426.491685
 42
0.000000
  0
SEQEND
  0
POLYLINE
  8
0
 66
1
 70
1
  0
VERTEX
  8
0
 10
178.606989
 20
424.418213
 42
0.067793
  0
VERTEX
  8
0
 10
177.928676
 20
421.534586
 42
0.069819
  0
VERTEX
  8
0
 10
178.056983
 20
418.604459
 42
0.077345
  0
VERTEX
  8
0
 10
178.937708
 20
416.095196
 42
0.125355
  0
VERTEX
  8
0
 10
180.456024
 20
414.436857
 42
0.050125
  0
VERTEX
  8
0
 10
182.710438
 20
413.263550
 42
0.339580
  0
VERTEX
  8
0
 10
183.844054
 20
413.583420
 42
0.248102
  0
VERTEX
  8
0
 10
184.059351
 20
414.964268
 42
0.034956
  0
VERTEX
  8
0
 10
182.895150
 20
417.705658
 42
-0.021853
  0
VERTEX
  8
0
 10
182.169704
 20
419.296767
 42
-0.019606
  0
VERTEX
  8
0
 10
181.556700
 20
421.003213
 42
-0.020055
  0
VERTEX
  8
0
 10
181.128263
 20
422.578446
 42
-0.056423
  0
VERTEX
  8
0
 10
181.000000
 20
423.711442
 42
0.066313
  0
VERTEX
  8
0
 10
180.793225
 20
425.263673
 42
0.260341
  0
VERTEX
  8
0
 10
180.142081
 20
425.929515
 42
0.304118
  0
VERTEX
  8
0
 10
179.329627
 20
425.675272
 42
0.077819
  0
SEQEND
  0
POLYLINE
  8
0
 66
1
 70
1
  0
VERTEX
  8
0
 10
214.465282
 20
420.048476
 42
0.034582
  0
VERTEX
  8
0
 10
213.595545
 20
419.623790
 42
0.023218
  0
VERTEX
  8
0
 10
212.663776
 20
419.026816
 42
0.023423
  0
VERTEX
  8
0
 10
211.811502
 20
418.361163
 42
0.042067
  0
VERTEX
  8
0
 10
211.189759
 20
417.728645
 42
0.031825
  0
VERTEX
  8
0
 10
210.604752
 20
416.924768
 42
0.177422
  0
VERTEX
  8
0
 10
210.493221
 20
416.412260
 42
0.219846
  0
VERTEX
  8
0
 10
210.747540
 20
416.015242
 42
0.050509
  0
VERTEX
  8
0
 10
211.476502
 20
415.647391
 42
-0.152224
  0
VERTEX
  8
0
 10
213.815764
 20
413.799666
 42
-0.018904
  0
VERTEX
  8
0
 10
217.315457
 20
408.246331
 42
-0.023402
  0
VERTEX
  8
0
 10
220.550225
 20
401.998310
 42
-0.041669
  0
VERTEX
  8
0
 10
222.521974
 20
396.556888
 42
0.011548
  0
VERTEX
  8
0
 10
223.249475
 20
394.096081
 42
0.020152
  0
VERTEX
  8
0
 10
223.980392
 20
392.098938
 42
0.016112
  0
VERTEX
  8
0
 10
224.648813
 20
390.615565
 42
0.443215
  0
VERTEX
  8
0
 10
225.015739
 20
390.509727
 42
0.220185
  0
VERTEX
  8
0
 10
226.012124
 20
392.018102
 42
0.006887
  0
VERTEX
  8
0
 10
227.044120
 20
399.529188
 42
0.013070
  0
VERTEX
  8
0
 10
227.753944
 20
406.852242
 42
0.056191
  0
VERTEX
  8
0
 10
227.571311
 20
411.221505
 42
0.078468
  0
VERTEX
  8
0
 10
225.956762
 20
416.250468
 42
0.128400
  0
VERTEX
  8
0
 10
223.013913
 20
419.587761
 42
0.141465
  0
VERTEX
  8
0
 10
219.040024
 20
420.867970
 42
0.104299
  0
SEQEND
  0
POLYLINE
  8
0
 66
1
 70
1
  0
VERTEX
  8
0
 10
197.000000
 20
414.333658
 42
0.147197
  0
VERTEX
  8
0
 10
197.101082
 20
413.997740
 42
0.008181
  0
VERTEX
  8
0
 10
197.726649
 20
413.085216
 42
0.012057
  0
VERTEX
  8
0
 10
198.526020
 20
412.014769
 42
0.008492
  0
VERTEX
  8
0
 10
199.473699
 20
410.848887
 42
-0.073831
  0
VERTEX
  8
0
 10
202.237178
 20
406.362818
 42
-0.081200
  0
VERTEX
  8
0
 10
203.462966
 20
401.411149
 42
-0.083993
  0
VERTEX
  8
0
 10
203.031974
 20
396.467731
 42
-0.086661
  0
VERTEX
  8
0
 10
200.996757
 20
392.000000
 42
0.037808
  0
VERTEX
  8
0
 10
200.378843
 20
390.932603
 42
0.038843
  0
VERTEX
  8
0
 10
199.935116
 20
389.793750
 42
0.041858
  0
VERTEX
  8
0
 10
199.712476
 20
388.750297
 42
0.112698
  0
VERTEX
  8
0
 10
199.786166
 20
388.000000
 42
0.003591
  0
VERTEX
  8
0
 10
200.039517
 20
387.259205
 42
0.001392
  0
VERTEX
  8
0
 10
200.400555
 20
386.236926
 42
0.001378
  0
VERTEX
  8
0
 10
200.797864
 20
385.131492
 42
0.001706
  0
VERTEX
  8
0
 10
201.174176
 20
384.104429
 42
0.000000
  0
VERTEX
  8
0
 10
202.061191
 20
381.708857
 42
0.000000
  0
VERTEX
  8
0
 10
204.627913
 20
384.104429
 42
0.089626
  0
VERTEX
  8
0
 10
208.680144
 20
389.534501
 42
0.076179
  0
VERTEX
  8
0
 10
210.866800
 20
396.354613
 42
0.080327
  0
VERTEX
  8
0
 10
210.852438
 20
403.160206
 42
0.122909
  0
VERTEX
  8
0
 10
208.528114
 20
408.552028
 42
0.086541
  0
VERTEX
  8
0
 10
206.161967
 20
410.741083
 42
0.027262
  0
VERTEX
  8
0
 10
201.962865
 20
413.141860
 42
0.023550
  0
VERTEX
  8
0
 10
197.896398
 20
414.946991
 42
0.527455
  0
SEQEND
  0
POLYLINE
  8
0
 66
1
 70
1
  0
VERTEX
  8
0
 10
164.902573
 20
409.210178
 42
0.007639
  0
VERTEX
  8
0
 10
162.359895
 20
407.728677
 42
0.011344
  0
VERTEX
  8
0
 10
160.183829
 20
406.347560
 42
0.006626
  0
VERTEX
  8
0
 10
158.416115
 20
405.134374
 42
0.180939
  0
VERTEX
  8
0
 10
158.103234
 20
404.675134
 42
0.312816
  0
VERTEX
  8
0
 10
158.419169
 20
403.851511
 42
0.000421
  0
VERTEX
  8
0
 10
173.237216
 20
393.771993
 42
0.002865
  0
VERTEX
  8
0
 10
186.570157
 20
384.830285
 42
0.023411
  0
VERTEX
  8
0
 10
192.865344
 20
381.072066
 42
0.019730
  0
VERTEX
  8
0
 10
194.047949
 20
380.497967
 42
0.177634
  0
VERTEX
  8
0
 10
194.613219
 20
380.463506
 42
0.278340
  0
VERTEX
  8
0
 10
194.921298
 20
380.802849
 42
0.046674
  0
VERTEX
  8
0
 10
195.013655
 20
381.714816
 42
-0.023379
  0
VERTEX
  8
0
 10
195.059138
 20
382.550118
 42
-0.011745
  0
VERTEX
  8
0
 10
195.190490
 20
383.598558
 42
-0.011636
  0
VERTEX
  8
0
 10
195.377418
 20
384.678498
 42
-0.016887
  0
VERTEX
  8
0
 10
195.596474
 20
385.620702
 42
0.107346
  0
VERTEX
  8
0
 10
195.653789
 20
386.805630
 42
0.146322
  0
VERTEX
  8
0
 10
195.185377
 20
387.760348
 42
0.078128
  0
VERTEX
  8
0
 10
193.997195
 20
388.698123
 42
0.015344
  0
VERTEX
  8
0
 10
191.579020
 20
389.961747
 42
-0.096023
  0
VERTEX
  8
0
 10
187.920506
 20
392.698763
 42
-0.138832
  0
VERTEX
  8
0
 10
186.134011
 20
396.294274
 42
-0.114269
  0
VERTEX
  8
0
 10
186.326245
 20
400.834682
 42
-0.052817
  0
VERTEX
  8
0
 10
188.505406
 20
406.364307
 42
0.003613
  0
VERTEX
  8
0
 10
189.078144
 20
407.481540
 42
0.005401
  0
VERTEX
  8
0
 10
189.560963
 20
408.466728
 42
0.002443
  0
VERTEX
  8
0
 10
189.958351
 20
409.310853
 42
0.109207
  0
VERTEX
  8
0
 10
190.000000
 20
409.499266
 42
0.361880
  0
VERTEX
  8
0
 10
189.895467
 20
409.624782
 42
0.001044
  0
VERTEX
  8
0
 10
187.621148
 20
410.038248
 42
0.005073
  0
VERTEX
  8
0
 10
185.006875
 20
410.480546
 42
0.003066
  0
VERTEX
  8
0
 10
181.901780
 20
410.954034
 42
-0.002492
  0
VERTEX
  8
0
 10
178.715902
 20
411.436100
 42
-0.003380
  0
VERTEX
  8
0
 10
175.844077
 20
411.905203
 42
-0.002269
  0
VERTEX
  8
0
 10
173.440097
 20
412.325821
 42
-0.037416
  0
VERTEX
  8
0
 10
172.651780
 20
412.529253
 42
0.172891
  0
VERTEX
  8
0
 10
171.903076
 20
412.517985
 42
0.011807
  0
VERTEX
  8
0
 10
169.900341
 20
411.715605
 42
0.015775
  0
VERTEX
  8
0
 10
167.513774
 20
410.603057
 42
0.011131
  0
SEQEND
  0
POLYLINE
  8
0
 66
1
 70
1
  0
VERTEX
  8
0
 10
141.200483
 20
403.384152
 42
0.062919
  0
VERTEX
  8
0
 10
138.455990
 20
401.518254
 42
0.020313
  0
VERTEX
  8
0
 10
134.897073
 20
398.112708
 42
0.014850
  0
VERTEX
  8
0
 10
131.636563
 20
394.520986
 42
0.178717
  0
VERTEX
  8
0
 10
131.000000
 20
392.796948
 42
0.430368
  0
VERTEX
  8
0
 10
131.201306
 20
392.606389
 42
0.069132
  0
VERTEX
  8
0
 10
131.795164
 20
392.722376
 42
0.041641
  0
VERTEX
  8
0
 10
132.667782
 20
393.105966
 42
0.020626
  0
VERTEX
  8
0
 10
133.706943
 20
393.726947
 42
-0.058393
  0
VERTEX
  8
0
 10
135.332111
 20
394.538683
 42
-0.041327
  0
VERTEX
  8
0
 10
137.302842
 20
395.071326
 42
-0.032520
  0
VERTEX
  8
0
 10
139.774424
 20
395.360190
 42
-0.015768
  0
VERTEX
  8
0
 10
142.956943
 20
395.423199
 42
-0.047871
  0
VERTEX
  8
0
 10
148.138141
 20
394.864554
 42
-0.043527
  0
VERTEX
  8
0
 10
153.293724
 20
393.325635
 42
-0.039793
  0
VERTEX
  8
0
 10
158.513425
 20
390.761483
 42
-0.028771
  0
VERTEX
  8
0
 10
163.888614
 20
387.133709
 42
0.000000
  0
VERTEX
  8
0
 10
167.277229
 20
384.551170
 42
0.000000
  0
VERTEX
  8
0
 10
166.499572
 20
387.025585
 42
0.054566
  0
VERTEX
  8
0
 10
164.902506
 20
390.664943
 42
0.022179
  0
VERTEX
  8
0
 10
161.992854
 20
395.235516
 42
0.021902
  0
VERTEX
  8
0
 10
158.730559
 20
399.482186
 42
0.063379
  0
VERTEX
  8
0
 10
156.011473
 20
401.991830
 42
0.070785
  0
VERTEX
  8
0
 10
152.598520
 20
403.757570
 42
0.060669
  0
VERTEX
  8
0
 10
148.643092
 20
404.621004
 42
0.061738
  0
VERTEX
  8
0
 10
144.668638
 20
404.503370
 42
0.079795
  0
SEQEND
  0
POLYLINE
  8
0
 66
1
 70
1
  0
VERTEX
  8
0
 10
197.473523
 20
400.478149
 42
0.014632
  0
VERTEX
  8
0
 10
197.552578
 20
398.227941
 42
0.070418
  0
VERTEX
  8
0
 10
197.812828
 20
396.976166
 42
0.164830
  0
VERTEX
  8
0
 10
198.289659
 20
396.377147
 42
0.191708
  0
VERTEX
  8
0
 10
199.000000
 20
396.238364
 42
0.211055
  0
VERTEX
  8
0
 10
200.138482
 20
397.020385
 42
0.100574
  0
VERTEX
  8
0
 10
200.764346
 20
398.722052
 42
0.081667
  0
VERTEX
  8
0
 10
200.740531
 20
400.885156
 42
0.079521
  0
VERTEX
  8
0
 10
200.027607
 20
402.948415
 42
0.044490
  0
VERTEX
  8
0
 10
198.872349
 20
404.710490
 42
0.443659
  0
VERTEX
  8
0
 10
198.089416
 20
404.762568
 42
0.186764
  0
VERTEX
  8
0
 10
197.564328
 20
403.626066
 42
0.017349
  0
SEQEND
  0
POLYLINE
  8
0
 66
1
 70
1
  0
VERTEX
  8
0
 10
189.973533
 20
401.950547
 42
0.083371
  0
VERTEX
  8
0
 10
189.135056
 20
399.462420
 42
0.096156
  0
VERTEX
  8
0
 10
189.217656
 20
396.963474
 42
0.119047
  0
VERTEX
  8
0
 10
190.164870
 20
395.059995
 42
0.184811
  0
VERTEX
  8
0
 10
191.750000
 20
394.180449
 42
0.083512
  0
VERTEX
  8
0
 10
193.161495
 20
394.216531
 42
0.235930
  0
VERTEX
  8
0
 10
193.921394
 20
394.800932
 42
0.274319
  0
VERTEX
  8
0
 10
193.848093
 20
395.675285
 42
0.099859
  0
VERTEX
  8
0
 10
192.904383
 20
396.559095
 42
-0.168721
  0
VERTEX
  8
0
 10
192.508363
 20
397.045895
 42
-0.044446
  0
VERTEX
  8
0
 10
192.246581
 20
398.030746
 42
-0.039941
  0
VERTEX
  8
0
 10
192.132989
 20
399.273804
 42
-0.031888
  0
VERTEX
  8
0
 10
192.203582
 20
400.618112
 42
0.027194
  0
VERTEX
  8
0
 10
192.351970
 20
403.014484
 42
0.265939
  0
VERTEX
  8
0
 10
191.873375
 20
403.865342
 42
0.384276
  0
VERTEX
  8
0
 10
191.093692
 20
403.711197
 42
0.037632
  0
SEQEND
  0
POLYLINE
  8
0
 66
1
 70
1
  0
VERTEX
  8
0
 10
232.076595
 20
397.286586
 42
-0.173972
  0
VERTEX
  8
0
 10
231.094583
 20
395.011852
 42
-0.007316
  0
VERTEX
  8
0
 10
224.890816
 20
388.571138
 42
-0.013229
  0
VERTEX
  8
0
 10
217.831811
 20
381.820837
 42
-0.015851
  0
VERTEX
  8
0
 10
210.828310
 20
375.863084
 42
0.000000
  0
VERTEX
  8
0
 10
201.907027
 20
368.748719
 42
0.000000
  0
VERTEX
  8
0
 10
190.703514
 20
369.403218
 42
0.002994
  0
VERTEX
  8
0
 10
182.484261
 20
369.834006
 42
0.178620
  0
VERTEX
  8
0
 10
181.088336
 20
369.391256
 42
0.527389
  0
VERTEX
  8
0
 10
181.138915
 20
368.556105
 42
0.008345
  0
VERTEX
  8
0
 10
186.004171
 20
365.751145
 42
0.000000
  0
VERTEX
  8
0
 10
189.158088
 20
364.002290
 42
0.000000
  0
VERTEX
  8
0
 10
188.829044
 20
356.498818
 42
0.009950
  0
VERTEX
  8
0
 10
188.760202
 20
353.621938
 42
0.016587
  0
VERTEX
  8
0
 10
188.830806
 20
351.200174
 42
0.010571
  0
VERTEX
  8
0
 10
188.992145
 20
349.271487
 42
0.384737
  0
VERTEX
  8
0
 10
189.297104
 20
348.997672
 42
0.111468
  0
VERTEX
  8
0
 10
189.841028
 20
349.122129
 42
0.003173
  0
VERTEX
  8
0
 10
192.000969
 20
350.174316
 42
0.006300
  0
VERTEX
  8
0
 10
194.531917
 20
351.467119
 42
0.004275
  0
VERTEX
  8
0
 10
197.382415
 20
353.000000
 42
-0.012560
  0
VERTEX
  8
0
 10
201.486193
 20
355.119951
 42
-0.038687
  0
VERTEX
  8
0
 10
204.392200
 20
356.261730
 42
-0.047279
  0
VERTEX
  8
0
 10
207.106469
 20
356.819151
 42
-0.027022
  0
VERTEX
  8
0
 10
210.450320
 20
357.000000
 42
0.006818
  0
VERTEX
  8
0
 10
214.809861
 20
357.059452
 42
0.358585
  0
VERTEX
  8
0
 10
215.399885
 20
357.572655
 42
0.184904
  0
VERTEX
  8
0
 10
215.203558
 20
358.544338
 42
0.002196
  0
VERTEX
  8
0
 10
211.643166
 20
364.105973
 42
-0.077522
  0
VERTEX
  8
0
 10
210.855405
 20
365.874310
 42
-0.185197
  0
VERTEX
  8
0
 10
210.999225
 20
367.280934
 42
-0.065607
  0
VERTEX
  8
0
 10
212.236992
 20
369.093424
 42
-0.004181
  0
VERTEX
  8
0
 10
216.572994
 20
373.855973
 42
0.000000
  0
VERTEX
  8
0
 10
223.187268
 20
381.000000
 42
0.000000
  0
VERTEX
  8
0
 10
229.011846
 20
381.000000
 42
0.014146
  0
VERTEX
  8
0
 10
233.729031
 20
381.133487
 42
0.076066
  0
VERTEX
  8
0
 10
236.234789
 20
381.663436
 42
0.167244
  0
VERTEX
  8
0
 10
237.490641
 20
382.703489
 42
0.146899
  0
VERTEX
  8
0
 10
237.923405
 20
384.356989
 42
0.087585
  0
VERTEX
  8
0
 10
237.373756
 20
386.930099
 42
0.009878
  0
VERTEX
  8
0
 10
235.013638
 20
392.436475
 42
0.010569
  0
VERTEX
  8
0
 10
232.640524
 20
397.402052
 42
0.764788
  0
SEQEND
  0
POLYLINE
  8
0
 66
1
 70
1
  0
VERTEX
  8
0
 10
322.500000
 20
392.306329
 42
-0.025652
  0
VERTEX
  8
0
 10
306.949357
 20
383.983905
 42
-0.019469
  0
VERTEX
  8
0
 10
289.141234
 20
376.430215
 42
-0.019832
  0
VERTEX
  8
0
 10
271.486069
 20
370.528952
 42
-0.035212
  0
VERTEX
  8
0
 10
256.500000
 20
367.295217
 42
0.001387
  0
VERTEX
  8
0
 10
252.264337
 20
366.677120
 42
0.002226
  0
VERTEX
  8
0
 10
248.654976
 20
366.123749
 42
0.000399
  0
VERTEX
  8
0
 10
245.471720
 20
365.618588
 42
0.127369
  0
VERTEX
  8
0
 10
245.240344
 20
365.517598
 42
0.275617
  0
VERTEX
  8
0
 10
245.160260
 20
365.309888
 42
0.000926
  0
VERTEX
  8
0
 10
245.644216
 20
362.519716
 42
0.004545
  0
VERTEX
  8
0
 10
246.232080
 20
359.337670
 42
0.002788
  0
VERTEX
  8
0
 10
246.979853
 20
355.597917
 42
-0.010396
  0
VERTEX
  8
0
 10
247.779806
 20
351.254477
 42
-0.006812
  0
VERTEX
  8
0
 10
248.528905
 20
346.220260
 42
-0.006853
  0
VERTEX
  8
0
 10
249.124793
 20
341.294423
 42
-0.013056
  0
VERTEX
  8
0
 10
249.445882
 20
337.317868
 42
0.003655
  0
VERTEX
  8
0
 10
249.650492
 20
334.009676
 42
0.005708
  0
VERTEX
  8
0
 10
249.879958
 20
331.165227
 42
0.001932
  0
VERTEX
  8
0
 10
250.114656
 20
328.722262
 42
0.173139
  0
VERTEX
  8
0
 10
250.267991
 20
328.398676
 42
0.253464
  0
VERTEX
  8
0
 10
250.590106
 20
328.302929
 42
0.002271
  0
VERTEX
  8
0
 10
253.144533
 20
328.852961
 42
0.007038
  0
VERTEX
  8
0
 10
256.109495
 20
329.549387
 42
0.004401
  0
VERTEX
  8
0
 10
259.561618
 20
330.444033
 42
0.035373
  0
VERTEX
  8
0
 10
285.952988
 20
339.575148
 42
0.061235
  0
VERTEX
  8
0
 10
305.997557
 20
351.215658
 42
0.074295
  0
VERTEX
  8
0
 10
319.914908
 20
365.453101
 42
0.089080
  0
VERTEX
  8
0
 10
328.021509
 20
382.320176
 42
0.017405
  0
VERTEX
  8
0
 10
329.249160
 20
387.435854
 42
0.027735
  0
VERTEX
  8
0
 10
329.900179
 20
391.885942
 42
0.027604
  0
VERTEX
  8
0
 10
330.016606
 20
395.248144
 42
0.422870
  0
VERTEX
  8
0
 10
329.250000
 20
395.962437
 42
0.108259
  0
VERTEX
  8
0
 10
328.749977
 20
395.826352
 42
0.003752
  0
VERTEX
  8
0
 10
326.957812
 20
394.872960
 42
0.006853
  0
VERTEX
  8
0
 10
324.853355
 20
393.695503
 42
0.004718
  0
SEQEND
  0
POLYLINE
  8
0
 66
1
 70
1
  0
VERTEX
  8
0
 10
140.092535
 20
389.497016
 42
0.000000
  0
VERTEX
  8
0
 10
136.685070
 20
387.964130
 42
0.000000
  0
VERTEX
  8
0
 10
138.826793
 20
385.684370
 42
-0.083372
  0
VERTEX
  8
0
 10
141.498252
 20
381.675677
 42
-0.041067
  0
VERTEX
  8
0
 10
143.543411
 20
375.882698
 42
-0.033631
  0
VERTEX
  8
0
 10
144.967108
 20
368.482145
 42
-0.019789
  0
VERTEX
  8
0
 10
145.716551
 20
359.500000
 42
0.007058
  0
VERTEX
  8
0
 10
146.026315
 20
354.145450
 42
0.016267
  0
VERTEX
  8
0
 10
146.446668
 20
350.135016
 42
0.017696
  0
VERTEX
  8
0
 10
146.953388
 20
347.224190
 42
0.128178
  0
VERTEX
  8
0
 10
147.582272
 20
345.963464
 42
-0.044013
  0
VERTEX
  8
0
 10
148.239368
 20
345.061683
 42
-0.010002
  0
VERTEX
  8
0
 10
149.182961
 20
343.420268
 42
-0.010280
  0
VERTEX
  8
0
 10
150.197869
 20
341.476372
 42
-0.009830
  0
VERTEX
  8
0
 10
151.147847
 20
339.463464
 42
-0.030916
  0
VERTEX
  8
0
 10
152.285290
 20
336.436795
 42
-0.038382
  0
VERTEX
  8
0
 10
152.944298
 20
333.502721
 42
-0.028049
  0
VERTEX
  8
0
 10
153.267021
 20
329.850226
 42
-0.008554
  0
VERTEX
  8
0
 10
153.349935
 20
324.299624
 42
0.000000
  0
VERTEX
  8
0
 10
153.327787
 20
314.099248
 42
0.000000
  0
VERTEX
  8
0
 10
158.913893
 20
311.961735
 42
-0.000460
  0
VERTEX
  8
0
 10
161.221015
 20
311.076485
 42
-0.000456
  0
VERTEX
  8
0
 10
163.533841
 20
310.184184
 42
-0.000447
  0
VERTEX
  8
0
 10
165.556218
 20
309.399744
 42
-0.001769
  0
VERTEX
  8
0
 10
166.797053
 20
308.912111
 42
0.014706
  0
VERTEX
  8
0
 10
168.913211
 20
308.143065
 42
0.256697
  0
VERTEX
  8
0
 10
169.608295
 20
308.271975
 42
0.214078
  0
VERTEX
  8
0
 10
169.946634
 20
308.949605
 42
0.010325
  0
VERTEX
  8
0
 10
170.000000
 20
311.533725
 42
-0.039401
  0
VERTEX
  8
0
 10
170.154368
 20
313.489629
 42
-0.102024
  0
VERTEX
  8
0
 10
170.651445
 20
314.806764
 42
-0.091201
  0
VERTEX
  8
0
 10
171.667114
 20
315.905546
 42
-0.027442
  0
VERTEX
  8
0
 10
173.568766
 20
317.173074
 42
0.000000
  0
VERTEX
  8
0
 10
177.137532
 20
319.278698
 42
0.000000
  0
VERTEX
  8
0
 10
176.434471
 20
331.889349
 42
0.003973
  0
VERTEX
  8
0
 10
175.471810
 20
346.995534
 42
0.079352
  0
VERTEX
  8
0
 10
174.421288
 20
351.483019
 42
0.152836
  0
VERTEX
  8
0
 10
172.046956
 20
354.350136
 42
0.025178
  0
VERTEX
  8
0
 10
165.752432
 20
358.000000
 42
-0.005658
  0
VERTEX
  8
0
 10
162.399064
 20
359.773343
 42
-0.008983
  0
VERTEX
  8
0
 10
159.573748
 20
361.375007
 42
-0.003577
  0
VERTEX
  8
0
 10
157.216236
 20
362.790872
 42
-0.260453
  0
VERTEX
  8
0
 10
157.002432
 20
363.170235
 42
-0.218119
  0
VERTEX
  8
0
 10
157.185756
 20
363.574347
 42
-0.004526
  0
VERTEX
  8
0
 10
158.910089
 20
365.045550
 42
-0.009710
  0
VERTEX
  8
0
 10
161.008917
 20
366.735432
 42
-0.006278
  0
VERTEX
  8
0
 10
163.500000
 20
368.613103
 42
0.005367
  0
VERTEX
  8
0
 10
165.991420
 20
370.483921
 42
0.008390
  0
VERTEX
  8
0
 10
168.090625
 20
372.152478
 42
0.003424
  0
VERTEX
  8
0
 10
169.837410
 20
373.609568
 42
0.220661
  0
VERTEX
  8
0
 10
170.000000
 20
373.960044
 42
0.189533
  0
VERTEX
  8
0
 10
169.327492
 20
375.670433
 42
0.007849
  0
VERTEX
  8
0
 10
164.686969
 20
380.504802
 42
0.013770
  0
VERTEX
  8
0
 10
159.924853
 20
385.054752
 42
0.051292
  0
VERTEX
  8
0
 10
156.585577
 20
387.502717
 42
0.049415
  0
VERTEX
  8
0
 10
152.370959
 20
389.442478
 42
0.053115
  0
VERTEX
  8
0
 10
147.958322
 20
390.459218
 42
0.056991
  0
VERTEX
  8
0
 10
143.737876
 20
390.486541
 42
0.079002
  0
SEQEND
  0
POLYLINE
  8
0
 66
1
 70
1
  0
VERTEX
  8
0
 10
501.500000
 20
380.036758
 42
0.121846
  0
VERTEX
  8
0
 10
497.018987
 20
376.710022
 42
0.059801
  0
VERTEX
  8
0
 10
493.158971
 20
370.690709
 42
0.058952
  0
VERTEX
  8
0
 10
490.764667
 20
363.768088
 42
0.101180
  0
VERTEX
  8
0
 10
490.682264
 20
357.685449
 42
0.043629
  0
VERTEX
  8
0
 10
491.715951
 20
354.026466
 42
0.037844
  0
VERTEX
  8
0
 10
493.408062
 20
350.415226
 42
0.039479
  0
VERTEX
  8
0
 10
495.501285
 20
347.307498
 42
0.070202
  0
VERTEX
  8
0
 10
497.735939
 20
345.188028
 42
0.090536
  0
VERTEX
  8
0
 10
502.054437
 20
343.164470
 42
0.001252
  0
VERTEX
  8
0
 10
530.207756
 20
335.822193
 42
0.001732
  0
VERTEX
  8
0
 10
557.772131
 20
328.808923
 42
0.061498
  0
VERTEX
  8
0
 10
564.324107
 20
328.000000
 42
0.096669
  0
VERTEX
  8
0
 10
569.548755
 20
329.019654
 42
0.086875
  0
VERTEX
  8
0
 10
574.230742
 20
331.947168
 42
0.078532
  0
VERTEX
  8
0
 10
578.003774
 20
336.594448
 42
0.060646
  0
VERTEX
  8
0
 10
580.573070
 20
342.603354
 42
0.064582
  0
VERTEX
  8
0
 10
581.560375
 20
348.966760
 42
0.082011
  0
VERTEX
  8
0
 10
580.739471
 20
354.846770
 42
0.084490
  0
VERTEX
  8
0
 10
578.106280
 20
360.018409
 42
0.073570
  0
VERTEX
  8
0
 10
573.800244
 20
364.315791
 42
0.095723
  0
VERTEX
  8
0
 10
568.743535
 20
366.737621
 42
0.002054
  0
VERTEX
  8
0
 10
541.993039
 20
373.616089
 42
0.002853
  0
VERTEX
  8
0
 10
515.849208
 20
380.065694
 42
0.062610
  0
VERTEX
  8
0
 10
508.042734
 20
380.936614
 42
0.015740
  0
VERTEX
  8
0
 10
506.156835
 20
380.850878
 42
0.014943
  0
VERTEX
  8
0
 10
504.246928
 20
380.646134
 42
0.015080
  0
VERTEX
  8
0
 10
502.570148
 20
380.363764
 42
0.049825
  0
SEQEND
  0
POLYLINE
  8
0
 66
1
 70
1
  0
VERTEX
  8
0
 10
232.345159
 20
372.255940
 42
0.000000
  0
VERTEX
  8
0
 10
225.190319
 20
367.500000
 42
0.000000
  0
VERTEX
  8
0
 10
224.024019
 20
361.009568
 42
0.007520
  0
VERTEX
  8
0
 10
223.332092
 20
356.795909
 42
0.079467
  0
VERTEX
  8
0
 10
223.351001
 20
355.058392
 42
0.136844
  0
VERTEX
  8
0
 10
223.946074
 20
353.799222
 42
0.036754
  0
VERTEX
  8
0
 10
225.527692
 20
352.222521
 42
-0.053343
  0
VERTEX
  8
0
 10
227.069666
 20
350.580039
 42
-0.112162
  0
VERTEX
  8
0
 10
227.785524
 20
348.993553
 42
-0.054310
  0
VERTEX
  8
0
 10
228.007342
 20
346.588386
 42
-0.005414
  0
VERTEX
  8
0
 10
227.848833
 20
340.800104
 42
0.000000
  0
VERTEX
  8
0
 10
227.500000
 20
331.674301
 42
0.000000
  0
VERTEX
  8
0
 10
232.498581
 20
330.001306
 42
-0.016915
  0
VERTEX
  8
0
 10
235.676860
 20
328.816582
 42
-0.123728
  0
VERTEX
  8
0
 10
236.972600
 20
327.858207
 42
-0.119428
  0
VERTEX
  8
0
 10
237.683203
 20
326.387253
 42
-0.015316
  0
VERTEX
  8
0
 10
238.321193
 20
322.914156
 42
-0.019520
  0
VERTEX
  8
0
 10
238.604878
 20
320.391972
 42
-0.010389
  0
VERTEX
  8
0
 10
238.768786
 20
317.254471
 42
-0.010326
  0
VERTEX
  8
0
 10
238.803425
 20
314.037162
 42
-0.015796
  0
VERTEX
  8
0
 10
238.687764
 20
311.250000
 42
0.000000
  0
VERTEX
  8
0
 10
238.230306
 20
305.000000
 42
0.000000
  0
VERTEX
  8
0
 10
241.415153
 20
305.000000
 42
0.033815
  0
VERTEX
  8
0
 10
242.722449
 20
305.088515
 42
0.032992
  0
VERTEX
  8
0
 10
244.016951
 20
305.352500
 42
0.034819
  0
VERTEX
  8
0
 10
245.119238
 20
305.738379
 42
0.095047
  0
VERTEX
  8
0
 10
245.800000
 20
306.200000
 42
0.165202
  0
VERTEX
  8
0
 10
246.745207
 20
308.117642
 42
0.037586
  0
VERTEX
  8
0
 10
246.948552
 20
311.786397
 42
0.037465
  0
VERTEX
  8
0
 10
246.549002
 20
315.994570
 42
0.042432
  0
VERTEX
  8
0
 10
245.528795
 20
319.918387
 42
-0.048238
  0
VERTEX
  8
0
 10
244.867307
 20
322.589227
 42
-0.010501
  0
VERTEX
  8
0
 10
244.273281
 20
327.302048
 42
-0.009829
  0
VERTEX
  8
0
 10
243.767256
 20
333.260226
 42
-0.006039
  0
VERTEX
  8
0
 10
243.394168
 20
340.294114
 42
0.005577
  0
VERTEX
  8
0
 10
243.053309
 20
346.834468
 42
0.009371
  0
VERTEX
  8
0
 10
242.603037
 20
352.315654
 42
0.005936
  0
VERTEX
  8
0
 10
242.102611
 20
356.742037
 42
0.138132
  0
VERTEX
  8
0
 10
241.615373
 20
357.897763
 42
-0.118238
  0
VERTEX
  8
0
 10
241.152850
 20
358.885036
 42
-0.011629
  0
VERTEX
  8
0
 10
240.680766
 20
361.487022
 42
-0.014180
  0
VERTEX
  8
0
 10
240.272940
 20
364.659134
 42
-0.010781
  0
VERTEX
  8
0
 10
240.000000
 20
368.153703
 42
0.000000
  0
VERTEX
  8
0
 10
239.500000
 20
377.011880
 42
0.000000
  0
SEQEND
  0
POLYLINE
  8
0
 66
1
 70
1
  0
VERTEX
  8
0
 10
167.750000
 20
366.245655
 42
0.025027
  0
VERTEX
  8
0
 10
166.698261
 20
365.516726
 42
0.032006
  0
VERTEX
  8
0
 10
165.812380
 20
364.739602
 42
0.033471
  0
VERTEX
  8
0
 10
165.180883
 20
364.019296
 42
0.168608
  0
VERTEX
  8
0
 10
165.015549
 20
363.518383
 42
0.220941
  0
VERTEX
  8
0
 10
165.266721
 20
362.998634
 42
0.019348
  0
VERTEX
  8
0
 10
166.465130
 20
362.093168
 42
0.022511
  0
VERTEX
  8
0
 10
168.051109
 20
361.091440
 42
0.015529
  0
VERTEX
  8
0
 10
169.928458
 20
360.096656
 42
0.000000
  0
VERTEX
  8
0
 10
174.825818
 20
357.693313
 42
0.000000
  0
VERTEX
  8
0
 10
178.060162
 20
359.741155
 42
0.000000
  0
VERTEX
  8
0
 10
181.294507
 20
361.788997
 42
0.000000
  0
VERTEX
  8
0
 10
177.071143
 20
364.455090
 42
0.009622
  0
VERTEX
  8
0
 10
173.258454
 20
366.760549
 42
0.083903
  0
VERTEX
  8
0
 10
171.411217
 20
367.449952
 42
0.142409
  0
VERTEX
  8
0
 10
169.855398
 20
367.304637
 42
0.045023
  0
SEQEND
  0
POLYLINE
  8
0
 66
1
 70
1
  0
VERTEX
  8
0
 10
473.548138
 20
362.346599
 42
0.032969
  0
VERTEX
  8
0
 10
470.802613
 20
359.119017
 42
0.167359
  0
VERTEX
  8
0
 10
470.098808
 20
356.901363
 42
0.250275
  0
VERTEX
  8
0
 10
471.025356
 20
355.263453
 42
0.073790
  0
VERTEX
  8
0
 10
473.750000
 20
354.052581
 42
0.015946
  0
VERTEX
  8
0
 10
475.388642
 20
353.653318
 42
0.011990
  0
VERTEX
  8
0
 10
477.213022
 20
353.315435
 42
0.012153
  0
VERTEX
  8
0
 10
478.945831
 20
353.080346
 42
0.027139
  0
VERTEX
  8
0
 10
480.273053
 20
353.005577
 42
0.013429
  0
VERTEX
  8
0
 10
481.996643
 20
353.048409
 42
0.253723
  0
VERTEX
  8
0
 10
482.442270
 20
353.320805
 42
0.267593
  0
VERTEX
  8
0
 10
482.443415
 20
353.831589
 42
0.014702
  0
VERTEX
  8
0
 10
481.573595
 20
355.250000
 42
-0.046357
  0
VERTEX
  8
0
 10
480.960460
 20
356.408282
 42
-0.018663
  0
VERTEX
  8
0
 10
480.334368
 20
358.087500
 42
-0.018277
  0
VERTEX
  8
0
 10
479.790437
 20
359.957863
 42
-0.022049
  0
VERTEX
  8
0
 10
479.422734
 20
361.750000
 42
0.017754
  0
VERTEX
  8
0
 10
479.103105
 20
363.378730
 42
0.027634
  0
VERTEX
  8
0
 10
478.701583
 20
364.751562
 42
0.026253
  0
VERTEX
  8
0
 10
478.278620
 20
365.773867
 42
0.289182
  0
VERTEX
  8
0
 10
477.920330
 20
366.000000
 42
0.164121
  0
VERTEX
  8
0
 10
477.436902
 20
365.836927
 42
0.011349
  0
VERTEX
  8
0
 10
476.296076
 20
364.926813
 42
0.015193
  0
VERTEX
  8
0
 10
474.967329
 20
363.746143
 42
0.010793
  0
SEQEND
  0
POLYLINE
  8
0
 66
1
 70
1
  0
VERTEX
  8
0
 10
586.000000
 20
357.657308
 42
0.086871
  0
VERTEX
  8
0
 10
586.049672
 20
357.373568
 42
0.002976
  0
VERTEX
  8
0
 10
586.440625
 20
356.311020
 42
0.005507
  0
VERTEX
  8
0
 10
586.925284
 20
355.059728
 42
0.003808
  0
VERTEX
  8
0
 10
587.500000
 20
353.654243
 42
-0.065355
  0
VERTEX
  8
0
 10
588.686425
 20
349.286854
 42
-0.040840
  0
VERTEX
  8
0
 10
588.968114
 20
343.986413
 42
-0.040819
  0
VERTEX
  8
0
 10
588.384168
 20
338.705699
 42
-0.064869
  0
VERTEX
  8
0
 10
586.950247
 20
334.397223
 42
-0.035772
  0
VERTEX
  8
0
 10
585.845846
 20
332.478837
 42
-0.017352
  0
VERTEX
  8
0
 10
584.181005
 20
330.188590
 42
-0.017112
  0
VERTEX
  8
0
 10
582.274132
 20
327.913113
 42
-0.023597
  0
VERTEX
  8
0
 10
580.401419
 20
326.015896
 42
0.000000
  0
VERTEX
  8
0
 10
575.902344
 20
321.868793
 42
0.000000
  0
VERTEX
  8
0
 10
578.583134
 20
317.184397
 42
-0.069715
  0
VERTEX
  8
0
 10
580.588950
 20
312.170974
 42
-0.035113
  0
VERTEX
  8
0
 10
581.751834
 20
305.444190
 42
-0.034936
  0
VERTEX
  8
0
 10
581.968395
 20
298.492306
 42
-0.059146
  0
VERTEX
  8
0
 10
581.059516
 20
292.745633
 42
-0.045282
  0
VERTEX
  8
0
 10
579.484432
 20
288.630044
 42
-0.036273
  0
VERTEX
  8
0
 10
577.090453
 20
284.530368
 42
-0.037433
  0
VERTEX
  8
0
 10
574.360928
 20
281.126382
 42
-0.092963
  0
VERTEX
  8
0
 10
571.799163
 20
279.240071
 42
0.000000
  0
VERTEX
  8
0
 10
569.186263
 20
277.980142
 42
0.000000
  0
VERTEX
  8
0
 10
570.581263
 20
272.740071
 42
-0.055375
  0
VERTEX
  8
0
 10
572.105720
 20
262.622329
 42
-0.067100
  0
VERTEX
  8
0
 10
571.195296
 20
253.076818
 42
-0.070929
  0
VERTEX
  8
0
 10
567.878265
 20
244.542729
 42
-0.073390
  0
VERTEX
  8
0
 10
562.337367
 20
237.386363
 42
0.000000
  0
VERTEX
  8
0
 10
557.000000
 20
232.258009
 42
0.000000
  0
VERTEX
  8
0
 10
557.000000
 20
224.666025
 42
-0.084922
  0
VERTEX
  8
0
 10
554.685444
 20
211.136755
 42
-0.135712
  0
VERTEX
  8
0
 10
548.024101
 20
201.578377
 42
-0.139089
  0
VERTEX
  8
0
 10
537.535763
 20
196.945228
 42
-0.091172
  0
VERTEX
  8
0
 10
524.252059
 20
197.507196
 42
0.000000
  0
VERTEX
  8
0
 10
517.004118
 20
199.159371
 42
0.000000
  0
VERTEX
  8
0
 10
512.827628
 20
195.584451
 42
-0.017860
  0
VERTEX
  8
0
 10
510.918838
 20
194.065268
 42
-0.011844
  0
VERTEX
  8
0
 10
508.628236
 20
192.454673
 42
-0.011928
  0
VERTEX
  8
0
 10
506.326224
 20
190.994431
 42
-0.022651
  0
VERTEX
  8
0
 10
504.396685
 20
189.949986
 42
0.026355
  0
VERTEX
  8
0
 10
501.985992
 20
188.621922
 42
0.090786
  0
VERTEX
  8
0
 10
500.669969
 20
187.426745
 42
0.087272
  0
VERTEX
  8
0
 10
499.835363
 20
185.816958
 42
0.023239
  0
VERTEX
  8
0
 10
499.095994
 20
183.012003
 42
0.033815
  0
VERTEX
  8
0
 10
497.514997
 20
172.082543
 42
0.030628
  0
VERTEX
  8
0
 10
497.345853
 20
160.668706
 42
0.030758
  0
VERTEX
  8
0
 10
498.425545
 20
150.702579
 42
0.117702
  0
VERTEX
  8
0
 10
500.861722
 20
145.000000
 42
0.108302
  0
VERTEX
  8
0
 10
502.915404
 20
143.209760
 42
0.069366
  0
VERTEX
  8
0
 10
505.885171
 20
142.082779
 42
0.028636
  0
VERTEX
  8
0
 10
511.080698
 20
141.207347
 42
0.003330
  0
VERTEX
  8
0
 10
522.814895
 20
139.994271
 42
0.048197
  0
VERTEX
  8
0
 10
545.962235
 20
139.993476
 42
0.072956
  0
VERTEX
  8
0
 10
565.485249
 20
144.811224
 42
0.079299
  0
VERTEX
  8
0
 10
581.633941
 20
154.620304
 42
0.069402
  0
VERTEX
  8
0
 10
594.789704
 20
169.377514
 42
0.047065
  0
VERTEX
  8
0
 10
603.518624
 20
185.530128
 42
0.028989
  0
VERTEX
  8
0
 10
610.800128
 20
205.892767
 42
0.027071
  0
VERTEX
  8
0
 10
616.194580
 20
228.794618
 42
0.025286
  0
VERTEX
  8
0
 10
619.234752
 20
252.672867
 42
0.038142
  0
VERTEX
  8
0
 10
619.229708
 20
282.377618
 42
0.045137
  0
VERTEX
  8
0
 10
614.573633
 20
310.061214
 42
0.049621
  0
VERTEX
  8
0
 10
605.689382
 20
333.953459
 42
0.073611
  0
VERTEX
  8
0
 10
593.060627
 20
352.329162
 42
0.018582
  0
VERTEX
  8
0
 10
590.662965
 20
354.722813
 42
0.025242
  0
VERTEX
  8
0
 10
588.318370
 20
356.685360
 42
0.028170
  0
VERTEX
  8
0
 10
586.468244
 20
357.924472
 42
0.580757
  0
SEQEND
  0
POLYLINE
  8
0
 66
1
 70
1
  0
VERTEX
  8
0
 10
193.500000
 20
345.887648
 42
0.001777
  0
VERTEX
  8
0
 10
189.207727
 20
343.487990
 42
0.002537
  0
VERTEX
  8
0
 10
185.416280
 20
341.325175
 42
0.001392
  0
VERTEX
  8
0
 10
182.226215
 20
339.472037
 42
0.038097
  0
VERTEX
  8
0
 10
181.427761
 20
338.919663
 42
0.236420
  0
VERTEX
  8
0
 10
180.828901
 20
337.596884
 42
0.006660
  0
VERTEX
  8
0
 10
181.166324
 20
331.177287
 42
0.007915
  0
VERTEX
  8
0
 10
181.683897
 20
324.853458
 42
0.173692
  0
VERTEX
  8
0
 10
182.463951
 20
323.202716
 42
0.328399
  0
VERTEX
  8
0
 10
182.797822
 20
323.151986
 42
0.001351
  0
VERTEX
  8
0
 10
186.293153
 20
325.000748
 42
0.005709
  0
VERTEX
  8
0
 10
190.290554
 20
327.187847
 42
0.003477
  0
VERTEX
  8
0
 10
194.965066
 20
329.858143
 42
0.000000
  0
VERTEX
  8
0
 10
207.085575
 20
336.894175
 42
0.000000
  0
VERTEX
  8
0
 10
215.673749
 20
335.017419
 42
0.000000
  0
VERTEX
  8
0
 10
224.261923
 20
333.140662
 42
0.000000
  0
VERTEX
  8
0
 10
223.639653
 20
338.320331
 42
-0.004037
  0
VERTEX
  8
0
 10
223.400804
 20
340.453795
 42
-0.004094
  0
VERTEX
  8
0
 10
223.197622
 20
342.580959
 42
-0.003986
  0
VERTEX
  8
0
 10
223.050776
 20
344.434287
 42
-0.016716
  0
VERTEX
  8
0
 10
223.008692
 20
345.551020
 42
0.175918
  0
VERTEX
  8
0
 10
222.579734
 20
346.717059
 42
0.106117
  0
VERTEX
  8
0
 10
221.401521
 20
347.628777
 42
0.044215
  0
VERTEX
  8
0
 10
219.031862
 20
348.517354
 42
0.006740
  0
VERTEX
  8
0
 10
214.145570
 20
349.801020
 42
0.001046
  0
VERTEX
  8
0
 10
210.723047
 20
350.643402
 42
0.001639
  0
VERTEX
  8
0
 10
207.775930
 20
351.352014
 42
0.000416
  0
VERTEX
  8
0
 10
205.198012
 20
351.960660
 42
0.062216
  0
VERTEX
  8
0
 10
204.895570
 20
351.993069
 42
0.118718
  0
VERTEX
  8
0
 10
204.602063
 20
351.916919
 42
0.000418
  0
VERTEX
  8
0
 10
201.384949
 20
350.196742
 42
0.002210
  0
VERTEX
  8
0
 10
197.745391
 20
348.226014
 42
0.001382
  0
SEQEND
  0
POLYLINE
  8
0
 66
1
 70
1
  0
VERTEX
  8
0
 10
25.273361
 20
340.758274
 42
0.099466
  0
VERTEX
  8
0
 10
29.315577
 20
327.847175
 42
0.093648
  0
VERTEX
  8
0
 10
38.091160
 20
317.180676
 42
0.081852
  0
VERTEX
  8
0
 10
51.278431
 20
309.413931
 42
0.055875
  0
VERTEX
  8
0
 10
68.133080
 20
304.979163
 42
0.032724
  0
VERTEX
  8
0
 10
77.840311
 20
304.198693
 42
0.010636
  0
VERTEX
  8
0
 10
92.238099
 20
304.291803
 42
0.010795
  0
VERTEX
  8
0
 10
106.741935
 20
305.007820
 42
0.028879
  0
VERTEX
  8
0
 10
117.000000
 20
306.334946
 42
0.004027
  0
VERTEX
  8
0
 10
129.186227
 20
308.734956
 42
0.021522
  0
VERTEX
  8
0
 10
135.759496
 20
310.382247
 42
0.039766
  0
VERTEX
  8
0
 10
139.672862
 20
311.891436
 42
0.136639
  0
VERTEX
  8
0
 10
141.702264
 20
313.668349
 42
0.086230
  0
VERTEX
  8
0
 10
143.197303
 20
317.126990
 42
0.053331
  0
VERTEX
  8
0
 10
143.770253
 20
321.529650
 42
0.048303
  0
VERTEX
  8
0
 10
143.407375
 20
326.445516
 42
0.042097
  0
VERTEX
  8
0
 10
142.108418
 20
331.441686
 42
0.007416
  0
VERTEX
  8
0
 10
141.246864
 20
333.777706
 42
0.009752
  0
VERTEX
  8
0
 10
140.387959
 20
335.881134
 42
0.007540
  0
VERTEX
  8
0
 10
139.612922
 20
337.606198
 42
0.087236
  0
VERTEX
  8
0
 10
139.188943
 20
338.211057
 42
0.201171
  0
VERTEX
  8
0
 10
138.617780
 20
338.444739
 42
0.030534
  0
VERTEX
  8
0
 10
137.361130
 20
338.356961
 42
0.030165
  0
VERTEX
  8
0
 10
135.810239
 20
338.056927
 42
0.021947
  0
VERTEX
  8
0
 10
134.128880
 20
337.545472
 42
-0.020157
  0
VERTEX
  8
0
 10
131.816993
 20
336.833165
 42
-0.005074
  0
VERTEX
  8
0
 10
127.997152
 20
335.864220
 42
-0.005171
  0
VERTEX
  8
0
 10
123.604490
 20
334.845279
 42
-0.005194
  0
VERTEX
  8
0
 10
119.198251
 20
333.918993
 42
-0.032836
  0
VERTEX
  8
0
 10
105.950333
 20
332.171264
 42
-0.016241
  0
VERTEX
  8
0
 10
88.984934
 20
331.610538
 42
-0.016236
  0
VERTEX
  8
0
 10
72.049085
 20
332.151127
 42
-0.033432
  0
VERTEX
  8
0
 10
58.909614
 20
333.885216
 42
-0.012931
  0
VERTEX
  8
0
 10
50.043653
 20
335.904311
 42
-0.015821
  0
VERTEX
  8
0
 10
41.877555
 20
338.265033
 42
-0.017395
  0
VERTEX
  8
0
 10
34.788965
 20
340.835249
 42
-0.031768
  0
VERTEX
  8
0
 10
29.240766
 20
343.488997
 42
0.000000
  0
VERTEX
  8
0
 10
24.718486
 20
346.016548
 42
0.000000
  0
SEQEND
  0
POLYLINE
  8
0
 66
1
 70
1
  0
VERTEX
  8
0
 10
489.738115
 20
334.773681
 42
0.086392
  0
VERTEX
  8
0
 10
486.480893
 20
332.043279
 42
0.051907
  0
VERTEX
  8
0
 10
483.636886
 20
327.860038
 42
0.051138
  0
VERTEX
  8
0
 10
481.665799
 20
323.080780
 42
0.073392
  0
VERTEX
  8
0
 10
481.016450
 20
318.553656
 42
0.072043
  0
VERTEX
  8
0
 10
481.586912
 20
314.724653
 42
0.051039
  0
VERTEX
  8
0
 10
483.256115
 20
310.706489
 42
0.050863
  0
VERTEX
  8
0
 10
485.714083
 20
307.093190
 42
0.069816
  0
VERTEX
  8
0
 10
488.633101
 20
304.468270
 42
0.040273
  0
VERTEX
  8
0
 10
490.218153
 20
303.576466
 42
0.016578
  0
VERTEX
  8
0
 10
492.491142
 20
302.618578
 42
0.016276
  0
VERTEX
  8
0
 10
495.010086
 20
301.746944
 42
0.020109
  0
VERTEX
  8
0
 10
497.409950
 20
301.107566
 42
-0.011826
  0
VERTEX
  8
0
 10
499.780952
 20
300.517750
 42
-0.010567
  0
VERTEX
  8
0
 10
502.212808
 20
299.795765
 42
-0.010664
  0
VERTEX
  8
0
 10
504.370045
 20
299.054308
 42
-0.032128
  0
VERTEX
  8
0
 10
505.792076
 20
298.425028
 42
0.019071
  0
VERTEX
  8
0
 10
506.933606
 20
297.883830
 42
0.018526
  0
VERTEX
  8
0
 10
508.124026
 20
297.425494
 42
0.018798
  0
VERTEX
  8
0
 10
509.199022
 20
297.101321
 42
0.062827
  0
VERTEX
  8
0
 10
509.928012
 20
297.006161
 42
-0.062476
  0
VERTEX
  8
0
 10
510.900940
 20
296.879849
 42
-0.002779
  0
VERTEX
  8
0
 10
514.188942
 20
296.007099
 42
-0.004647
  0
VERTEX
  8
0
 10
518.082496
 20
294.911464
 42
-0.003302
  0
VERTEX
  8
0
 10
522.428012
 20
293.613751
 42
0.000705
  0
VERTEX
  8
0
 10
526.814430
 20
292.278974
 42
0.000918
  0
VERTEX
  8
0
 10
530.835103
 20
291.069736
 42
0.000681
  0
VERTEX
  8
0
 10
534.208547
 20
290.066909
 42
0.008414
  0
VERTEX
  8
0
 10
535.500000
 20
289.708432
 42
-0.001577
  0
VERTEX
  8
0
 10
536.795216
 20
289.367914
 42
-0.000129
  0
VERTEX
  8
0
 10
540.181675
 20
288.465236
 42
-0.000173
  0
VERTEX
  8
0
 10
544.220823
 20
287.385969
 42
-0.000133
  0
VERTEX
  8
0
 10
548.629107
 20
286.205179
 42
0.000000
  0
VERTEX
  8
0
 10
559.758213
 20
283.220995
 42
0.000000
  0
VERTEX
  8
0
 10
563.587515
 20
285.368983
 42
0.039846
  0
VERTEX
  8
0
 10
565.271392
 20
286.498502
 42
0.021045
  0
VERTEX
  8
0
 10
567.176540
 20
288.144603
 42
0.020808
  0
VERTEX
  8
0
 10
568.995823
 20
290.003900
 42
0.030082
  0
VERTEX
  8
0
 10
570.428155
 20
291.801581
 42
0.028320
  0
VERTEX
  8
0
 10
571.989448
 20
294.314185
 42
0.050912
  0
VERTEX
  8
0
 10
572.928335
 20
296.549592
 42
0.044514
  0
VERTEX
  8
0
 10
573.469143
 20
299.125671
 42
0.016851
  0
VERTEX
  8
0
 10
573.778899
 20
302.793096
 42
0.039589
  0
VERTEX
  8
0
 10
573.613007
 20
308.597368
 42
0.088767
  0
VERTEX
  8
0
 10
572.378606
 20
312.814149
 42
0.112171
  0
VERTEX
  8
0
 10
569.996596
 20
315.728301
 42
0.091088
  0
VERTEX
  8
0
 10
566.409878
 20
317.597664
 42
0.001078
  0
VERTEX
  8
0
 10
564.349911
 20
318.227280
 42
0.000308
  0
VERTEX
  8
0
 10
561.151652
 20
319.195127
 42
0.000310
  0
VERTEX
  8
0
 10
557.541028
 20
320.282896
 42
0.000329
  0
VERTEX
  8
0
 10
554.000000
 20
321.344764
 42
-0.000440
  0
VERTEX
  8
0
 10
549.836391
 20
322.594336
 42
-0.000179
  0
VERTEX
  8
0
 10
544.178125
 20
324.300121
 42
-0.000178
  0
VERTEX
  8
0
 10
538.099594
 20
326.137338
 42
-0.000227
  0
VERTEX
  8
0
 10
532.500000
 20
327.834741
 42
0.003584
  0
VERTEX
  8
0
 10
511.038871
 20
334.183248
 42
0.029903
  0
VERTEX
  8
0
 10
501.157894
 20
336.399635
 42
0.070800
  0
VERTEX
  8
0
 10
494.947717
 20
336.520765
 42
0.101198
  0
SEQEND
  0
POLYLINE
  8
0
 66
1
 70
1
  0
VERTEX
  8
0
 10
213.977669
 20
330.680146
 42
0.046845
  0
VERTEX
  8
0
 10
214.214380
 20
327.517284
 42
0.001142
  0
VERTEX
  8
0
 10
216.699914
 20
313.090072
 42
0.000445
  0
VERTEX
  8
0
 10
219.364057
 20
297.914050
 42
0.135695
  0
VERTEX
  8
0
 10
219.894088
 20
296.800960
 42
0.369876
  0
VERTEX
  8
0
 10
220.383105
 20
296.728001
 42
0.008912
  0
VERTEX
  8
0
 10
222.451701
 20
298.078154
 42
0.015196
  0
VERTEX
  8
0
 10
224.926682
 20
299.869383
 42
0.009201
  0
VERTEX
  8
0
 10
227.750000
 20
302.130486
 42
0.006669
  0
VERTEX
  8
0
 10
232.342115
 20
306.053718
 42
0.063987
  0
VERTEX
  8
0
 10
234.040240
 20
307.979539
 42
0.112295
  0
VERTEX
  8
0
 10
234.773244
 20
309.862704
 42
0.037492
  0
VERTEX
  8
0
 10
234.988994
 20
312.829526
 42
0.017622
  0
VERTEX
  8
0
 10
234.800598
 20
317.838224
 42
0.038123
  0
VERTEX
  8
0
 10
234.228586
 20
321.647640
 42
0.051031
  0
VERTEX
  8
0
 10
233.344278
 20
324.252931
 42
0.219470
  0
VERTEX
  8
0
 10
232.133124
 20
325.292917
 42
-0.014753
  0
VERTEX
  8
0
 10
231.100004
 20
325.620352
 42
-0.001347
  0
VERTEX
  8
0
 10
228.556293
 20
326.517639
 42
-0.001742
  0
VERTEX
  8
0
 10
225.528760
 20
327.606674
 42
-0.001363
  0
VERTEX
  8
0
 10
222.250000
 20
328.809131
 42
0.008803
  0
VERTEX
  8
0
 10
218.691829
 20
330.054321
 42
0.024153
  0
VERTEX
  8
0
 10
216.128039
 20
330.765889
 42
0.030274
  0
VERTEX
  8
0
 10
214.393941
 20
331.049129
 42
0.438576
  0
SEQEND
  0
POLYLINE
  8
0
 66
1
 70
1
  0
VERTEX
  8
0
 10
190.000000
 20
321.605966
 42
0.000000
  0
VERTEX
  8
0
 10
176.500000
 20
313.349053
 42
0.000000
  0
VERTEX
  8
0
 10
176.659219
 20
306.598641
 42
0.005308
  0
VERTEX
  8
0
 10
176.748698
 20
303.983134
 42
0.008092
  0
VERTEX
  8
0
 10
176.887180
 20
301.715650
 42
0.003681
  0
VERTEX
  8
0
 10
177.049456
 20
299.800773
 42
0.175132
  0
VERTEX
  8
0
 10
177.211673
 20
299.454994
 42
0.124046
  0
VERTEX
  8
0
 10
177.913299
 20
299.035783
 42
0.000278
  0
VERTEX
  8
0
 10
189.710754
 20
295.500091
 42
0.001419
  0
VERTEX
  8
0
 10
200.433321
 20
292.326178
 42
0.018107
  0
VERTEX
  8
0
 10
204.500000
 20
291.293249
 42
0.246793
  0
VERTEX
  8
0
 10
205.591983
 20
291.597094
 42
0.171972
  0
VERTEX
  8
0
 10
206.188546
 20
292.757443
 42
0.036167
  0
VERTEX
  8
0
 10
206.367971
 20
295.649152
 42
0.002279
  0
VERTEX
  8
0
 10
206.240906
 20
304.180837
 42
0.004837
  0
VERTEX
  8
0
 10
205.932206
 20
314.777641
 42
0.010360
  0
VERTEX
  8
0
 10
205.445602
 20
322.944183
 42
0.004946
  0
VERTEX
  8
0
 10
204.865420
 20
329.364293
 42
0.414769
  0
VERTEX
  8
0
 10
204.170406
 20
329.931439
 42
0.107047
  0
VERTEX
  8
0
 10
203.684770
 20
329.773090
 42
0.000679
  0
VERTEX
  8
0
 10
199.731307
 20
327.457550
 42
0.002710
  0
VERTEX
  8
0
 10
195.223170
 20
324.775926
 42
0.001721
  0
SEQEND
  0
POLYLINE
  8
0
 66
1
 70
1
  0
VERTEX
  8
0
 10
147.015602
 20
306.943982
 42
-0.041481
  0
VERTEX
  8
0
 10
145.274141
 20
306.153766
 42
-0.027921
  0
VERTEX
  8
0
 10
143.178758
 20
305.534769
 42
-0.027105
  0
VERTEX
  8
0
 10
140.940789
 20
305.133962
 42
-0.030764
  0
VERTEX
  8
0
 10
138.765602
 20
305.000000
 42
0.010669
  0
VERTEX
  8
0
 10
135.712920
 20
304.934857
 42
0.135483
  0
VERTEX
  8
0
 10
134.630480
 20
304.585734
 42
0.217321
  0
VERTEX
  8
0
 10
134.128253
 20
303.787303
 42
0.033386
  0
VERTEX
  8
0
 10
134.000000
 20
301.868687
 42
-0.078519
  0
VERTEX
  8
0
 10
132.989282
 20
295.472198
 42
-0.016669
  0
VERTEX
  8
0
 10
129.144082
 20
284.831547
 42
-0.018244
  0
VERTEX
  8
0
 10
124.185309
 20
273.624877
 42
-0.028033
  0
VERTEX
  8
0
 10
119.015370
 20
264.363183
 42
0.067422
  0
VERTEX
  8
0
 10
116.295055
 20
258.440030
 42
0.140137
  0
VERTEX
  8
0
 10
116.207180
 20
253.400247
 42
0.162418
  0
VERTEX
  8
0
 10
118.739526
 20
249.560662
 42
0.099406
  0
VERTEX
  8
0
 10
123.628838
 20
247.092037
 42
0.013375
  0
VERTEX
  8
0
 10
126.753057
 20
246.318701
 42
0.252620
  0
VERTEX
  8
0
 10
127.690780
 20
246.587315
 42
0.427830
  0
VERTEX
  8
0
 10
127.682295
 20
247.318576
 42
0.021039
  0
VERTEX
  8
0
 10
125.646341
 20
249.063548
 42
-0.022881
  0
VERTEX
  8
0
 10
124.550361
 20
250.009912
 42
-0.018248
  0
VERTEX
  8
0
 10
123.456092
 20
251.124328
 42
-0.018611
  0
VERTEX
  8
0
 10
122.517536
 20
252.232833
 42
-0.043515
  0
VERTEX
  8
0
 10
121.924063
 20
253.141890
 42
-0.232844
  0
VERTEX
  8
0
 10
121.842067
 20
255.562481
 42
-0.058623
  0
VERTEX
  8
0
 10
123.931941
 20
259.042712
 42
-0.022183
  0
VERTEX
  8
0
 10
128.844795
 20
264.848825
 42
-0.002251
  0
VERTEX
  8
0
 10
141.177078
 20
278.057070
 42
0.000000
  0
VERTEX
  8
0
 10
156.028186
 20
293.820214
 42
0.000000
  0
VERTEX
  8
0
 10
165.514093
 20
295.528191
 42
0.006098
  0
VERTEX
  8
0
 10
169.148887
 20
296.228518
 42
0.010010
  0
VERTEX
  8
0
 10
172.204756
 20
296.920075
 42
0.003994
  0
VERTEX
  8
0
 10
174.753433
 20
297.572390
 42
0.353566
  0
VERTEX
  8
0
 10
174.970184
 20
297.868084
 42
0.279647
  0
VERTEX
  8
0
 10
174.584707
 20
298.440689
 42
0.000640
  0
VERTEX
  8
0
 10
164.918953
 20
302.892816
 42
0.003490
  0
VERTEX
  8
0
 10
156.169769
 20
306.835482
 42
0.027398
  0
VERTEX
  8
0
 10
152.000000
 20
308.412701
 42
0.118312
  0
VERTEX
  8
0
 10
151.194621
 20
308.470228
 42
0.030593
  0
VERTEX
  8
0
 10
149.917083
 20
308.177311
 42
0.029376
  0
VERTEX
  8
0
 10
148.459643
 20
307.653073
 42
0.026225
  0
SEQEND
  0
POLYLINE
  8
0
 66
1
 70
1
  0
VERTEX
  8
0
 10
248.391800
 20
302.260519
 42
0.368213
  0
VERTEX
  8
0
 10
248.176567
 20
301.463425
 42
0.013383
  0
VERTEX
  8
0
 10
249.706369
 20
298.441675
 42
0.015958
  0
VERTEX
  8
0
 10
252.097669
 20
294.335224
 42
0.005826
  0
VERTEX
  8
0
 10
255.733060
 20
288.674594
 42
0.003070
  0
VERTEX
  8
0
 10
258.999271
 20
283.782479
 42
0.005170
  0
VERTEX
  8
0
 10
261.807166
 20
279.723324
 42
0.001097
  0
VERTEX
  8
0
 10
264.286220
 20
276.233852
 42
0.463564
  0
VERTEX
  8
0
 10
264.545666
 20
276.212333
 42
0.281390
  0
VERTEX
  8
0
 10
264.625938
 20
276.544951
 42
0.001170
  0
VERTEX
  8
0
 10
263.413616
 20
280.276469
 42
0.005143
  0
VERTEX
  8
0
 10
261.968018
 20
284.541989
 42
0.003160
  0
VERTEX
  8
0
 10
260.181928
 20
289.537739
 42
0.003400
  0
VERTEX
  8
0
 10
257.141911
 20
297.701288
 42
0.041096
  0
VERTEX
  8
0
 10
255.699995
 20
300.721471
 42
0.120472
  0
VERTEX
  8
0
 10
254.339179
 20
302.132284
 42
0.119660
  0
VERTEX
  8
0
 10
252.477522
 20
302.760519
 42
0.025753
  0
VERTEX
  8
0
 10
251.256325
 20
302.804229
 42
0.026520
  0
VERTEX
  8
0
 10
250.049113
 20
302.721108
 42
0.027450
  0
VERTEX
  8
0
 10
249.016106
 20
302.536697
 42
0.092741
  0
SEQEND
  0
POLYLINE
  8
0
 66
1
 70
1
  0
VERTEX
  8
0
 10
319.155061
 20
300.973519
 42
0.048600
  0
VERTEX
  8
0
 10
304.868262
 20
295.464546
 42
0.048682
  0
VERTEX
  8
0
 10
291.922214
 20
287.303956
 42
0.043662
  0
VERTEX
  8
0
 10
279.669666
 20
275.958080
 42
0.027852
  0
VERTEX
  8
0
 10
267.438104
 20
260.858374
 42
0.020568
  0
VERTEX
  8
0
 10
251.922339
 20
237.382696
 42
0.026456
  0
VERTEX
  8
0
 10
239.749383
 20
214.560215
 42
0.026070
  0
VERTEX
  8
0
 10
229.922477
 20
190.306951
 42
0.019069
  0
VERTEX
  8
0
 10
221.481940
 20
162.500000
 42
0.014481
  0
VERTEX
  8
0
 10
214.899163
 20
134.079778
 42
0.013760
  0
VERTEX
  8
0
 10
209.845869
 20
104.839640
 42
0.011177
  0
VERTEX
  8
0
 10
205.644810
 20
70.364067
 42
0.005125
  0
VERTEX
  8
0
 10
201.634704
 20
25.250000
 42
0.020850
  0
VERTEX
  8
0
 10
201.497540
 20
21.515378
 42
0.738450
  0
VERTEX
  8
0
 10
202.046463
 20
21.349372
 42
0.087432
  0
VERTEX
  8
0
 10
202.961090
 20
23.408983
 42
0.006930
  0
VERTEX
  8
0
 10
204.326492
 20
29.250000
 42
-0.003845
  0
VERTEX
  8
0
 10
212.886396
 20
66.915326
 42
-0.003662
  0
VERTEX
  8
0
 10
222.160405
 20
105.063483
 42
-0.003458
  0
VERTEX
  8
0
 10
230.772057
 20
138.410964
 42
-0.015970
  0
VERTEX
  8
0
 10
236.501188
 20
157.500000
 42
-0.040617
  0
VERTEX
  8
0
 10
246.640693
 20
181.171405
 42
-0.034448
  0
VERTEX
  8
0
 10
260.975139
 20
204.303749
 42
-0.034831
  0
VERTEX
  8
0
 10
278.137232
 20
224.960222
 42
-0.044704
  0
VERTEX
  8
0
 10
296.727826
 20
241.217923
 42
-0.031394
  0
VERTEX
  8
0
 10
306.791109
 20
247.617717
 42
-0.023712
  0
VERTEX
  8
0
 10
318.552959
 20
253.390370
 42
-0.023664
  0
VERTEX
  8
0
 10
330.842454
 20
258.037552
 42
-0.030734
  0
VERTEX
  8
0
 10
342.497084
 20
261.047688
 42
0.000000
  0
VERTEX
  8
0
 10
346.494169
 20
261.821817
 42
0.000000
  0
VERTEX
  8
0
 10
343.869800
 20
259.660908
 42
0.004078
  0
VERTEX
  8
0
 10
334.468523
 20
251.790338
 42
0.011368
  0
VERTEX
  8
0
 10
328.043578
 20
246.064838
 42
0.015508
  0
VERTEX
  8
0
 10
323.168866
 20
241.226584
 42
0.018262
  0
VERTEX
  8
0
 10
318.872781
 20
236.344310
 42
0.025486
  0
VERTEX
  8
0
 10
310.704032
 20
225.237488
 42
0.029632
  0
VERTEX
  8
0
 10
304.145488
 20
213.886453
 42
0.030226
  0
VERTEX
  8
0
 10
299.079664
 20
202.045253
 42
0.028689
  0
VERTEX
  8
0
 10
295.376484
 20
189.473264
 42
0.039511
  0
VERTEX
  8
0
 10
294.052941
 20
180.722668
 42
0.015012
  0
VERTEX
  8
0
 10
293.545130
 20
168.377420
 42
0.014940
  0
VERTEX
  8
0
 10
293.776407
 20
156.069294
 42
0.041510
  0
VERTEX
  8
0
 10
294.911011
 20
147.500000
 42
0.034432
  0
VERTEX
  8
0
 10
300.380141
 20
128.724467
 42
0.036729
  0
VERTEX
  8
0
 10
308.283382
 20
111.294886
 42
0.036726
  0
VERTEX
  8
0
 10
318.652450
 20
95.208279
 42
0.034418
  0
VERTEX
  8
0
 10
331.472671
 20
80.436401
 42
0.027925
  0
VERTEX
  8
0
 10
343.240482
 20
69.876157
 42
0.032482
  0
VERTEX
  8
0
 10
355.555933
 20
61.257815
 42
0.033430
  0
VERTEX
  8
0
 10
368.554341
 20
54.510275
 42
0.033229
  0
VERTEX
  8
0
 10
382.361867
 20
49.539734
 42
0.005353
  0
VERTEX
  8
0
 10
390.621383
 20
47.268030
 42
0.106252
  0
VERTEX
  8
0
 10
393.227642
 20
47.148090
 42
0.704024
  0
VERTEX
  8
0
 10
393.370287
 20
47.939935
 42
0.015521
  0
VERTEX
  8
0
 10
388.469344
 20
50.561254
 42
-0.052706
  0
VERTEX
  8
0
 10
372.354386
 20
60.786610
 42
-0.035108
  0
VERTEX
  8
0
 10
356.203021
 20
75.561582
 42
-0.034582
  0
VERTEX
  8
0
 10
341.951266
 20
92.810084
 42
-0.044614
  0
VERTEX
  8
0
 10
331.527866
 20
110.508827
 42
-0.023972
  0
VERTEX
  8
0
 10
326.765707
 20
121.926848
 42
-0.029881
  0
VERTEX
  8
0
 10
323.507591
 20
132.947127
 42
-0.030434
  0
VERTEX
  8
0
 10
321.628198
 20
144.105257
 42
-0.026543
  0
VERTEX
  8
0
 10
321.001367
 20
155.933659
 42
-0.027961
  0
VERTEX
  8
0
 10
321.764232
 20
169.533028
 42
-0.036234
  0
VERTEX
  8
0
 10
324.053575
 20
181.808452
 42
-0.034071
  0
VERTEX
  8
0
 10
328.227215
 20
194.197903
 42
-0.020856
  0
VERTEX
  8
0
 10
334.724214
 20
208.188435
 42
-0.050573
  0
VERTEX
  8
0
 10
347.467351
 20
227.744259
 42
-0.064825
  0
VERTEX
  8
0
 10
362.984295
 20
242.573692
 42
-0.066757
  0
VERTEX
  8
0
 10
381.388000
 20
252.626730
 42
-0.058254
  0
VERTEX
  8
0
 10
402.662510
 20
258.065050
 42
-0.020406
  0
VERTEX
  8
0
 10
406.983794
 20
258.468459
 42
-0.005765
  0
VERTEX
  8
0
 10
413.740780
 20
258.743942
 42
-0.005800
  0
VERTEX
  8
0
 10
421.389586
 20
258.878709
 42
-0.006096
  0
VERTEX
  8
0
 10
428.913519
 20
258.832254
 42
0.003649
  0
VERTEX
  8
0
 10
435.849451
 20
258.755476
 42
0.006087
  0
VERTEX
  8
0
 10
441.688225
 20
258.804530
 42
0.001486
  0
VERTEX
  8
0
 10
446.727522
 20
258.923204
 42
0.406886
  0
VERTEX
  8
0
 10
447.001009
 20
259.204443
 42
0.288806
  0
VERTEX
  8
0
 10
446.376770
 20
260.191884
 42
0.003645
  0
VERTEX
  8
0
 10
439.352622
 20
263.476849
 42
0.010870
  0
VERTEX
  8
0
 10
432.180841
 20
266.580461
 42
0.018106
  0
VERTEX
  8
0
 10
426.000000
 20
268.839957
 42
0.013232
  0
VERTEX
  8
0
 10
417.580080
 20
271.332421
 42
0.014509
  0
VERTEX
  8
0
 10
409.293479
 20
273.292984
 42
0.015539
  0
VERTEX
  8
0
 10
401.856760
 20
274.586629
 42
0.035027
  0
VERTEX
  8
0
 10
396.153318
 20
274.992994
 42
0.000000
  0
VERTEX
  8
0
 10
389.806636
 20
275.000000
 42
0.000000
  0
VERTEX
  8
0
 10
383.153318
 20
281.116595
 42
0.030026
  0
VERTEX
  8
0
 10
371.502041
 20
290.603423
 42
0.048046
  0
VERTEX
  8
0
 10
360.423711
 20
297.054362
 42
0.052282
  0
VERTEX
  8
0
 10
349.039021
 20
300.913462
 42
0.044924
  0
VERTEX
  8
0
 10
336.500000
 20
302.585461
 42
0.010420
  0
VERTEX
  8
0
 10
331.114506
 20
302.703611
 42
0.023445
  0
VERTEX
  8
0
 10
327.034461
 20
302.516670
 42
0.026619
  0
VERTEX
  8
0
 10
323.321282
 20
301.971067
 42
0.017949
  0
SEQEND
  0
POLYLINE
  8
0
 66
1
 70
1
  0
VERTEX
  8
0
 10
235.000000
 20
297.028495
 42
0.087484
  0
VERTEX
  8
0
 10
235.195016
 20
295.922450
 42
0.000354
  0
VERTEX
  8
0
 10
239.503450
 20
284.110501
 42
0.002065
  0
VERTEX
  8
0
 10
243.684121
 20
272.818831
 42
0.003858
  0
VERTEX
  8
0
 10
247.176815
 20
263.717935
 42
0.145889
  0
VERTEX
  8
0
 10
248.005990
 20
262.658098
 42
0.646040
  0
VERTEX
  8
0
 10
248.481658
 20
262.936801
 42
0.020884
  0
VERTEX
  8
0
 10
247.715885
 20
268.068177
 42
0.002609
  0
VERTEX
  8
0
 10
245.532702
 20
279.114807
 42
-0.000780
  0
VERTEX
  8
0
 10
244.179443
 20
285.832845
 42
-0.001223
  0
VERTEX
  8
0
 10
243.039105
 20
291.613412
 42
-0.000303
  0
VERTEX
  8
0
 10
242.056985
 20
296.673242
 42
-0.047404
  0
VERTEX
  8
0
 10
242.001228
 20
297.250000
 42
0.314377
  0
VERTEX
  8
0
 10
241.796979
 20
297.541723
 42
0.034955
  0
VERTEX
  8
0
 10
240.972236
 20
297.779688
 42
0.032581
  0
VERTEX
  8
0
 10
239.841603
 20
297.945807
 42
0.020189
  0
VERTEX
  8
0
 10
238.500000
 20
298.000000
 42
0.026243
  0
VERTEX
  8
0
 10
237.158838
 20
297.929561
 42
0.041476
  0
VERTEX
  8
0
 10
236.028125
 20
297.714620
 42
0.050420
  0
VERTEX
  8
0
 10
235.229529
 20
297.403485
 42
0.281752
  0
SEQEND
  0
POLYLINE
  8
0
 66
1
 70
1
  0
VERTEX
  8
0
 10
488.000000
 20
295.879272
 42
0.063420
  0
VERTEX
  8
0
 10
485.434112
 20
294.460513
 42
0.033245
  0
VERTEX
  8
0
 10
482.635261
 20
292.111541
 42
0.032711
  0
VERTEX
  8
0
 10
480.076193
 20
289.312855
 42
0.046541
  0
VERTEX
  8
0
 10
478.224075
 20
286.500000
 42
0.056002
  0
VERTEX
  8
0
 10
477.547962
 20
284.794312
 42
0.025238
  0
VERTEX
  8
0
 10
477.033557
 20
282.439119
 42
0.022361
  0
VERTEX
  8
0
 10
476.695153
 20
279.629203
 42
0.016524
  0
VERTEX
  8
0
 10
476.563352
 20
276.500000
 42
0.040639
  0
VERTEX
  8
0
 10
476.948229
 20
271.177299
 42
0.065362
  0
VERTEX
  8
0
 10
478.220757
 20
266.816932
 42
0.073789
  0
VERTEX
  8
0
 10
480.427650
 20
263.310943
 42
0.070527
  0
VERTEX
  8
0
 10
483.587941
 20
260.534336
 42
0.074917
  0
VERTEX
  8
0
 10
488.766005
 20
258.156525
 42
0.001568
  0
VERTEX
  8
0
 10
516.035612
 20
250.380119
 42
0.001719
  0
VERTEX
  8
0
 10
543.173470
 20
242.833858
 42
0.067046
  0
VERTEX
  8
0
 10
549.364115
 20
242.000000
 42
0.078423
  0
VERTEX
  8
0
 10
553.631849
 20
242.673522
 42
0.063956
  0
VERTEX
  8
0
 10
557.819572
 20
244.649063
 42
0.063470
  0
VERTEX
  8
0
 10
561.402244
 20
247.638013
 42
0.074611
  0
VERTEX
  8
0
 10
563.895404
 20
251.283933
 42
0.056817
  0
VERTEX
  8
0
 10
566.246635
 20
257.987698
 42
0.077167
  0
VERTEX
  8
0
 10
566.693109
 20
264.375019
 42
0.082568
  0
VERTEX
  8
0
 10
565.195210
 20
270.265719
 42
0.076842
  0
VERTEX
  8
0
 10
561.848921
 20
275.519288
 42
0.074029
  0
VERTEX
  8
0
 10
558.913180
 20
278.004476
 42
0.045811
  0
VERTEX
  8
0
 10
554.861914
 20
280.027489
 42
0.021599
  0
VERTEX
  8
0
 10
548.096017
 20
282.332743
 42
0.003080
  0
VERTEX
  8
0
 10
534.000000
 20
286.371288
 42
0.000008
  0
VERTEX
  8
0
 10
528.292780
 20
287.968343
 42
0.000005
  0
VERTEX
  8
0
 10
521.427997
 20
289.889131
 42
0.000005
  0
VERTEX
  8
0
 10
514.539931
 20
291.816294
 42
0.000008
  0
VERTEX
  8
0
 10
508.754883
 20
293.434695
 42
0.006878
  0
VERTEX
  8
0
 10
500.062168
 20
295.737943
 42
0.032014
  0
VERTEX
  8
0
 10
494.961860
 20
296.672628
 42
0.055636
  0
VERTEX
  8
0
 10
491.307800
 20
296.694868
 42
0.068444
  0
SEQEND
  0
POLYLINE
  8
0
 66
1
 70
1
  0
VERTEX
  8
0
 10
223.491681
 20
289.434158
 42
0.000000
  0
VERTEX
  8
0
 10
217.500000
 20
284.018345
 42
0.000000
  0
VERTEX
  8
0
 10
209.750000
 20
284.638298
 42
0.005006
  0
VERTEX
  8
0
 10
205.071286
 20
284.965457
 42
0.055126
  0
VERTEX
  8
0
 10
203.196492
 20
284.870996
 42
0.185512
  0
VERTEX
  8
0
 10
202.326424
 20
284.364316
 42
0.166862
  0
VERTEX
  8
0
 10
201.971339
 20
283.379125
 42
0.026236
  0
VERTEX
  8
0
 10
202.250851
 20
275.870695
 42
0.003070
  0
VERTEX
  8
0
 10
203.855753
 20
259.170932
 42
0.000469
  0
VERTEX
  8
0
 10
205.776263
 20
240.570370
 42
0.384121
  0
VERTEX
  8
0
 10
206.409152
 20
240.000000
 42
0.069095
  0
VERTEX
  8
0
 10
207.127036
 20
240.099681
 42
0.000855
  0
VERTEX
  8
0
 10
211.608557
 20
241.376983
 42
0.002512
  0
VERTEX
  8
0
 10
216.788169
 20
242.891043
 42
0.001640
  0
VERTEX
  8
0
 10
222.749908
 20
244.687601
 42
0.002884
  0
VERTEX
  8
0
 10
231.911682
 20
247.539164
 42
0.029733
  0
VERTEX
  8
0
 10
235.606897
 20
248.959488
 42
0.093626
  0
VERTEX
  8
0
 10
237.252653
 20
250.117384
 42
0.259405
  0
VERTEX
  8
0
 10
237.608604
 20
251.437601
 42
-0.016245
  0
VERTEX
  8
0
 10
237.290609
 20
252.916620
 42
-0.000531
  0
VERTEX
  8
0
 10
236.216621
 20
258.878493
 42
-0.001017
  0
VERTEX
  8
0
 10
234.971166
 20
265.917029
 42
-0.000707
  0
VERTEX
  8
0
 10
233.591784
 20
273.872164
 42
0.001119
  0
VERTEX
  8
0
 10
232.227050
 20
281.704437
 42
0.001820
  0
VERTEX
  8
0
 10
231.028993
 20
288.348958
 42
0.000231
  0
VERTEX
  8
0
 10
229.938634
 20
294.257282
 42
0.151760
  0
VERTEX
  8
0
 10
229.786184
 20
294.547149
 42
0.381202
  0
VERTEX
  8
0
 10
229.543562
 20
294.560995
 42
0.002701
  0
VERTEX
  8
0
 10
227.812259
 20
293.170122
 42
0.008229
  0
VERTEX
  8
0
 10
225.810852
 20
291.488973
 42
0.004963
  0
SEQEND
  0
POLYLINE
  8
0
 66
1
 70
1
  0
VERTEX
  8
0
 10
246.112068
 20
290.250000
 42
-0.003880
  0
VERTEX
  8
0
 10
246.757913
 20
288.539135
 42
-0.000435
  0
VERTEX
  8
0
 10
248.192999
 20
284.635938
 42
-0.000528
  0
VERTEX
  8
0
 10
249.891849
 20
279.987724
 42
-0.000429
  0
VERTEX
  8
0
 10
251.703974
 20
275.000000
 42
0.000998
  0
VERTEX
  8
0
 10
253.458740
 20
270.187241
 42
0.001599
  0
VERTEX
  8
0
 10
254.977877
 20
266.087029
 42
0.000280
  0
VERTEX
  8
0
 10
256.334119
 20
262.468264
 42
0.091534
  0
VERTEX
  8
0
 10
256.488826
 20
262.211164
 42
0.380991
  0
VERTEX
  8
0
 10
257.470142
 20
262.094316
 42
0.016406
  0
VERTEX
  8
0
 10
260.484349
 20
264.349410
 42
0.018910
  0
VERTEX
  8
0
 10
263.341019
 20
266.819457
 42
0.201412
  0
VERTEX
  8
0
 10
263.957674
 20
268.190983
 42
0.086102
  0
VERTEX
  8
0
 10
263.745646
 20
269.625372
 42
0.213102
  0
VERTEX
  8
0
 10
263.045860
 20
270.394146
 42
0.229763
  0
VERTEX
  8
0
 10
262.052075
 20
270.355102
 42
0.097083
  0
VERTEX
  8
0
 10
260.990862
 20
269.488990
 42
-0.030134
  0
VERTEX
  8
0
 10
260.456807
 20
268.919128
 42
-0.033239
  0
VERTEX
  8
0
 10
259.874451
 20
268.437391
 42
-0.035319
  0
VERTEX
  8
0
 10
259.327739
 20
268.099139
 42
-0.121454
  0
VERTEX
  8
0
 10
258.925623
 20
268.000000
 42
-0.271523
  0
VERTEX
  8
0
 10
258.460274
 20
268.272819
 42
-0.002875
  0
VERTEX
  8
0
 10
256.583342
 20
271.671875
 42
-0.008094
  0
VERTEX
  8
0
 10
254.468734
 20
275.708133
 42
-0.005054
  0
VERTEX
  8
0
 10
252.116712
 20
280.500000
 42
0.003315
  0
VERTEX
  8
0
 10
249.785117
 20
285.292316
 42
0.005386
  0
VERTEX
  8
0
 10
247.733975
 20
289.328125
 42
0.001288
  0
VERTEX
  8
0
 10
245.903990
 20
292.812836
 42
0.278012
  0
VERTEX
  8
0
 10
245.593395
 20
293.000000
 42
0.430076
  0
VERTEX
  8
0
 10
245.443038
 20
292.841320
 42
0.033154
  0
VERTEX
  8
0
 10
245.521399
 20
292.192187
 42
0.029354
  0
VERTEX
  8
0
 10
245.743342
 20
291.304909
 42
0.016230
  0
SEQEND
  0
POLYLINE
  8
0
 66
1
 70
1
  0
VERTEX
  8
0
 10
158.000000
 20
253.500000
 42
0.002279
  0
VERTEX
  8
0
 10
158.058561
 20
240.654466
 42
0.003801
  0
VERTEX
  8
0
 10
158.239375
 20
229.840625
 42
0.000581
  0
VERTEX
  8
0
 10
158.481939
 20
220.324200
 42
0.406430
  0
VERTEX
  8
0
 10
158.814895
 20
220.000000
 42
0.098148
  0
VERTEX
  8
0
 10
161.019016
 20
220.436869
 42
0.001120
  0
VERTEX
  8
0
 10
174.939333
 20
226.217215
 42
0.001079
  0
VERTEX
  8
0
 10
188.864260
 20
232.071411
 42
0.102446
  0
VERTEX
  8
0
 10
190.644913
 20
233.300937
 42
0.174561
  0
VERTEX
  8
0
 10
191.500446
 20
235.234029
 42
0.000681
  0
VERTEX
  8
0
 10
193.197097
 20
259.551601
 42
0.000839
  0
VERTEX
  8
0
 10
194.805147
 20
283.654500
 42
0.135560
  0
VERTEX
  8
0
 10
194.266737
 20
286.250000
 42
0.268360
  0
VERTEX
  8
0
 10
193.794909
 20
286.554037
 42
0.001787
  0
VERTEX
  8
0
 10
188.724829
 20
286.779688
 42
0.006313
  0
VERTEX
  8
0
 10
182.846711
 20
286.945953
 42
0.003913
  0
VERTEX
  8
0
 10
175.940983
 20
287.000000
 42
0.000000
  0
VERTEX
  8
0
 10
158.000000
 20
287.000000
 42
0.000000
  0
SEQEND
  0
POLYLINE
  8
0
 66
1
 70
1
  0
VERTEX
  8
0
 10
144.110115
 20
273.610855
 42
0.000000
  0
VERTEX
  8
0
 10
136.828396
 20
266.280211
 42
0.000000
  0
VERTEX
  8
0
 10
132.946206
 20
242.390105
 42
-0.000032
  0
VERTEX
  8
0
 10
131.396580
 20
232.857925
 42
-0.000040
  0
VERTEX
  8
0
 10
129.951281
 20
223.975531
 42
-0.000032
  0
VERTEX
  8
0
 10
128.735925
 20
216.513089
 42
-0.000294
  0
VERTEX
  8
0
 10
128.202303
 20
213.250000
 42
0.021027
  0
VERTEX
  8
0
 10
127.736415
 20
209.406871
 42
0.317326
  0
VERTEX
  8
0
 10
128.386990
 20
208.311537
 42
0.148706
  0
VERTEX
  8
0
 10
130.049937
 20
208.102516
 42
0.004569
  0
VERTEX
  8
0
 10
136.929361
 20
209.349743
 42
0.048777
  0
VERTEX
  8
0
 10
141.670273
 20
210.743686
 42
0.193565
  0
VERTEX
  8
0
 10
143.815826
 20
212.806931
 42
0.076433
  0
VERTEX
  8
0
 10
144.937768
 20
216.861110
 42
0.003882
  0
VERTEX
  8
0
 10
146.439254
 20
230.500000
 42
-0.001122
  0
VERTEX
  8
0
 10
147.170045
 20
237.492877
 42
-0.000584
  0
VERTEX
  8
0
 10
148.111354
 20
246.212367
 42
-0.000580
  0
VERTEX
  8
0
 10
149.098550
 20
255.161589
 42
-0.000886
  0
VERTEX
  8
0
 10
149.977997
 20
262.925078
 42
0.001748
  0
VERTEX
  8
0
 10
150.725488
 20
269.627067
 42
0.002851
  0
VERTEX
  8
0
 10
151.307302
 20
275.318393
 42
0.000418
  0
VERTEX
  8
0
 10
151.789611
 20
280.362108
 42
0.223593
  0
VERTEX
  8
0
 10
151.687506
 20
280.645827
 42
0.401528
  0
VERTEX
  8
0
 10
151.453192
 20
280.650925
 42
0.001601
  0
VERTEX
  8
0
 10
149.339683
 20
278.701269
 42
0.006320
  0
VERTEX
  8
0
 10
146.923508
 20
276.400507
 42
0.003793
  0
SEQEND
  0
POLYLINE
  8
0
 66
1
 70
1
  0
VERTEX
  8
0
 10
466.536816
 20
266.627725
 42
0.105578
  0
VERTEX
  8
0
 10
463.674432
 20
262.210979
 42
0.090048
  0
VERTEX
  8
0
 10
462.651567
 20
256.746153
 42
0.087474
  0
VERTEX
  8
0
 10
463.610201
 20
251.130747
 42
0.091952
  0
VERTEX
  8
0
 10
466.426605
 20
246.290431
 42
0.000000
  0
VERTEX
  8
0
 10
468.784709
 20
243.548972
 42
0.000000
  0
VERTEX
  8
0
 10
470.365898
 20
247.333290
 42
-0.020279
  0
VERTEX
  8
0
 10
471.146069
 20
249.006380
 42
-0.012481
  0
VERTEX
  8
0
 10
472.191650
 20
250.911947
 42
-0.012509
  0
VERTEX
  8
0
 10
473.321775
 20
252.747722
 42
-0.021807
  0
VERTEX
  8
0
 10
474.360832
 20
254.201803
 42
0.000000
  0
VERTEX
  8
0
 10
476.774577
 20
257.285998
 42
0.000000
  0
VERTEX
  8
0
 10
473.887289
 20
261.838780
 42
-0.011915
  0
VERTEX
  8
0
 10
472.781708
 20
263.677553
 42
-0.014879
  0
VERTEX
  8
0
 10
471.848141
 20
265.437296
 42
-0.013128
  0
VERTEX
  8
0
 10
471.155029
 20
266.941644
 42
-0.101722
  0
VERTEX
  8
0
 10
471.000000
 20
267.695781
 42
0.194199
  0
VERTEX
  8
0
 10
470.617648
 20
268.643090
 42
0.265603
  0
VERTEX
  8
0
 10
469.753226
 20
268.895718
 42
0.106518
  0
VERTEX
  8
0
 10
468.343023
 20
268.219510
 42
0.031520
  0
SEQEND
  0
POLYLINE
  8
0
 66
1
 70
1
  0
VERTEX
  8
0
 10
483.450423
 20
252.593404
 42
0.100002
  0
VERTEX
  8
0
 10
478.997553
 20
249.480322
 42
0.072537
  0
VERTEX
  8
0
 10
475.490508
 20
244.531325
 42
0.071666
  0
VERTEX
  8
0
 10
473.508959
 20
238.719506
 42
0.092444
  0
VERTEX
  8
0
 10
473.502543
 20
233.090772
 42
0.049610
  0
VERTEX
  8
0
 10
474.461054
 20
229.786876
 42
0.037968
  0
VERTEX
  8
0
 10
476.123269
 20
226.409881
 42
0.039019
  0
VERTEX
  8
0
 10
478.119396
 20
223.561749
 42
0.097836
  0
VERTEX
  8
0
 10
480.073243
 20
221.960802
 42
0.048371
  0
VERTEX
  8
0
 10
481.526770
 20
221.355269
 42
0.000981
  0
VERTEX
  8
0
 10
489.126902
 20
219.036688
 42
0.002306
  0
VERTEX
  8
0
 10
498.031313
 20
216.384067
 42
0.001547
  0
VERTEX
  8
0
 10
508.233865
 20
213.430145
 42
0.002881
  0
VERTEX
  8
0
 10
520.742810
 20
209.928220
 42
0.009064
  0
VERTEX
  8
0
 10
529.191008
 20
207.779346
 42
0.010024
  0
VERTEX
  8
0
 10
535.111703
 20
206.511802
 42
0.092757
  0
VERTEX
  8
0
 10
537.720563
 20
206.496485
 42
0.113766
  0
VERTEX
  8
0
 10
542.518351
 20
208.557110
 42
0.072912
  0
VERTEX
  8
0
 10
546.856547
 20
212.829844
 42
0.070648
  0
VERTEX
  8
0
 10
549.909647
 20
218.334846
 42
0.091582
  0
VERTEX
  8
0
 10
550.956076
 20
224.000000
 42
0.066807
  0
VERTEX
  8
0
 10
550.462764
 20
227.675574
 42
0.042763
  0
VERTEX
  8
0
 10
548.974114
 20
231.724728
 42
0.043404
  0
VERTEX
  8
0
 10
546.901388
 20
235.307057
 42
0.095153
  0
VERTEX
  8
0
 10
544.635666
 20
237.503065
 42
0.072733
  0
VERTEX
  8
0
 10
540.637329
 20
239.360205
 42
0.001174
  0
VERTEX
  8
0
 10
516.764367
 20
246.413246
 42
0.001170
  0
VERTEX
  8
0
 10
492.852754
 20
253.355980
 42
0.073046
  0
VERTEX
  8
0
 10
488.500000
 20
253.944569
 42
0.045105
  0
VERTEX
  8
0
 10
487.521585
 20
253.844844
 42
0.017435
  0
VERTEX
  8
0
 10
486.191687
 20
253.538238
 42
0.017094
  0
VERTEX
  8
0
 10
484.764659
 20
253.103614
 42
0.020244
  0
SEQEND
  0
POLYLINE
  8
0
 66
1
 70
1
  0
VERTEX
  8
0
 10
402.500000
 20
250.953811
 42
0.052284
  0
VERTEX
  8
0
 10
384.318411
 20
246.585142
 42
0.060417
  0
VERTEX
  8
0
 10
368.367828
 20
238.663168
 42
0.061114
  0
VERTEX
  8
0
 10
354.918248
 20
227.248633
 42
0.055485
  0
VERTEX
  8
0
 10
344.120528
 20
212.567020
 42
0.025346
  0
VERTEX
  8
0
 10
341.167550
 20
206.790799
 42
0.007791
  0
VERTEX
  8
0
 10
337.297426
 20
197.796230
 42
0.007912
  0
VERTEX
  8
0
 10
333.687137
 20
188.622308
 42
0.022709
  0
VERTEX
  8
0
 10
331.575145
 20
182.111856
 42
0.044796
  0
VERTEX
  8
0
 10
329.338665
 20
169.733446
 42
0.026112
  0
VERTEX
  8
0
 10
328.780114
 20
154.645895
 42
0.025743
  0
VERTEX
  8
0
 10
329.815155
 20
139.147064
 42
0.035508
  0
VERTEX
  8
0
 10
332.436893
 20
125.451673
 42
0.030373
  0
VERTEX
  8
0
 10
336.932994
 20
111.923138
 42
0.035728
  0
VERTEX
  8
0
 10
342.842347
 20
99.783346
 42
0.035726
  0
VERTEX
  8
0
 10
350.420189
 20
88.607805
 42
0.030362
  0
VERTEX
  8
0
 10
359.907267
 20
77.963638
 42
0.034806
  0
VERTEX
  8
0
 10
370.818414
 20
68.537203
 42
0.036519
  0
VERTEX
  8
0
 10
382.764640
 20
60.881137
 42
0.035500
  0
VERTEX
  8
0
 10
396.009905
 20
54.871228
 42
0.029555
  0
VERTEX
  8
0
 10
410.803484
 20
50.361467
 42
0.004496
  0
VERTEX
  8
0
 10
421.757934
 20
47.821822
 42
0.334768
  0
VERTEX
  8
0
 10
423.321927
 20
48.533923
 42
0.361573
  0
VERTEX
  8
0
 10
422.999863
 20
50.152277
 42
0.004794
  0
VERTEX
  8
0
 10
414.397309
 20
56.979906
 42
-0.018157
  0
VERTEX
  8
0
 10
403.150653
 20
66.406671
 42
-0.014240
  0
VERTEX
  8
0
 10
391.639654
 20
77.399608
 42
-0.014471
  0
VERTEX
  8
0
 10
381.509553
 20
88.251806
 42
-0.033925
  0
VERTEX
  8
0
 10
374.761172
 20
97.051319
 42
-0.041293
  0
VERTEX
  8
0
 10
366.465084
 20
112.098554
 42
-0.055371
  0
VERTEX
  8
0
 10
361.706372
 20
126.918565
 42
-0.052268
  0
VERTEX
  8
0
 10
360.156445
 20
143.076530
 42
-0.031866
  0
VERTEX
  8
0
 10
361.546845
 20
162.215618
 42
-0.031812
  0
VERTEX
  8
0
 10
365.667460
 20
182.560745
 42
-0.055544
  0
VERTEX
  8
0
 10
371.951773
 20
198.553620
 42
-0.059469
  0
VERTEX
  8
0
 10
381.252674
 20
212.027492
 42
-0.042767
  0
VERTEX
  8
0
 10
394.487364
 20
224.665405
 42
-0.026391
  0
VERTEX
  8
0
 10
404.877122
 20
232.147017
 42
-0.025462
  0
VERTEX
  8
0
 10
416.119079
 20
238.589744
 42
-0.024810
  0
VERTEX
  8
0
 10
428.245850
 20
244.003471
 42
-0.022306
  0
VERTEX
  8
0
 10
441.283301
 20
248.406057
 42
0.000000
  0
VERTEX
  8
0
 10
449.221425
 20
250.697802
 42
0.000000
  0
VERTEX
  8
0
 10
444.471141
 20
251.348901
 42
0.031630
  0
VERTEX
  8
0
 10
437.644007
 20
251.848012
 42
0.004788
  0
VERTEX
  8
0
 10
423.945414
 20
251.850235
 42
0.005174
  0
VERTEX
  8
0
 10
410.230253
 20
251.579175
 42
0.025312
  0
SEQEND
  0
POLYLINE
  8
0
 66
1
 70
1
  0
VERTEX
  8
0
 10
435.974582
 20
236.011210
 42
0.056748
  0
VERTEX
  8
0
 10
416.245896
 20
229.343487
 42
0.067041
  0
VERTEX
  8
0
 10
399.707504
 20
218.668691
 42
0.067122
  0
VERTEX
  8
0
 10
386.597866
 20
204.010783
 42
0.057084
  0
VERTEX
  8
0
 10
376.976229
 20
185.601765
 42
0.014555
  0
VERTEX
  8
0
 10
373.142860
 20
174.711617
 42
0.031531
  0
VERTEX
  8
0
 10
370.980023
 20
166.108957
 42
0.031195
  0
VERTEX
  8
0
 10
369.903198
 20
157.245531
 42
0.013954
  0
VERTEX
  8
0
 10
369.543425
 20
145.500000
 42
0.014282
  0
VERTEX
  8
0
 10
369.847888
 20
133.723548
 42
0.037715
  0
VERTEX
  8
0
 10
370.938853
 20
125.366062
 42
0.039482
  0
VERTEX
  8
0
 10
373.239557
 20
117.487503
 42
0.016962
  0
VERTEX
  8
0
 10
377.477610
 20
107.378109
 42
0.073879
  0
VERTEX
  8
0
 10
392.551391
 20
84.288821
 42
0.060515
  0
VERTEX
  8
0
 10
414.653135
 20
64.745148
 42
0.053884
  0
VERTEX
  8
0
 10
443.350678
 20
49.234725
 42
0.038977
  0
VERTEX
  8
0
 10
478.000000
 20
38.138458
 42
0.003515
  0
VERTEX
  8
0
 10
481.577001
 20
37.319844
 42
0.003156
  0
VERTEX
  8
0
 10
485.295764
 20
36.520845
 42
0.003164
  0
VERTEX
  8
0
 10
488.641676
 20
35.846081
 42
0.009927
  0
VERTEX
  8
0
 10
490.900474
 20
35.451784
 42
0.007659
  0
VERTEX
  8
0
 10
493.548134
 20
35.085016
 42
0.108784
  0
VERTEX
  8
0
 10
494.493529
 20
35.174512
 42
0.344332
  0
VERTEX
  8
0
 10
494.806068
 20
35.634834
 42
0.075097
  0
VERTEX
  8
0
 10
494.585522
 20
36.636680
 42
-0.018031
  0
VERTEX
  8
0
 10
485.169643
 20
64.078204
 42
-0.017918
  0
VERTEX
  8
0
 10
477.733638
 20
92.183984
 42
-0.017519
  0
VERTEX
  8
0
 10
472.190219
 20
121.357351
 42
-0.015597
  0
VERTEX
  8
0
 10
468.447089
 20
152.000000
 42
0.012614
  0
VERTEX
  8
0
 10
467.916296
 20
156.571608
 42
0.062120
  0
VERTEX
  8
0
 10
467.237998
 20
159.072046
 42
0.070927
  0
VERTEX
  8
0
 10
466.005075
 20
161.173444
 42
0.019396
  0
VERTEX
  8
0
 10
463.490737
 20
164.092795
 42
-0.049100
  0
VERTEX
  8
0
 10
458.508105
 20
170.624534
 42
-0.042457
  0
VERTEX
  8
0
 10
454.611501
 20
178.320668
 42
-0.038921
  0
VERTEX
  8
0
 10
451.801880
 20
187.213608
 42
-0.029299
  0
VERTEX
  8
0
 10
450.070024
 20
197.325117
 42
-0.027326
  0
VERTEX
  8
0
 10
449.567432
 20
206.225291
 42
-0.022415
  0
VERTEX
  8
0
 10
449.977368
 20
215.741485
 42
-0.023077
  0
VERTEX
  8
0
 10
451.173217
 20
224.610844
 42
-0.045795
  0
VERTEX
  8
0
 10
453.075531
 20
231.439382
 42
0.004556
  0
VERTEX
  8
0
 10
453.812388
 20
233.432554
 42
0.006311
  0
VERTEX
  8
0
 10
454.434123
 20
235.233756
 42
0.004090
  0
VERTEX
  8
0
 10
454.923295
 20
236.752647
 42
0.075824
  0
VERTEX
  8
0
 10
454.999496
 20
237.250000
 42
0.419265
  0
VERTEX
  8
0
 10
454.178396
 20
238.058169
 42
0.012120
  0
VERTEX
  8
0
 10
448.781611
 20
237.837947
 42
0.019528
  0
VERTEX
  8
0
 10
442.470558
 20
237.178753
 42
0.017357
  0
SEQEND
  0
POLYLINE
  8
0
 66
1
 70
1
  0
VERTEX
  8
0
 10
77.000000
 20
223.043390
 42
0.072421
  0
VERTEX
  8
0
 10
63.482428
 20
218.430832
 42
0.075650
  0
VERTEX
  8
0
 10
52.065213
 20
210.203228
 42
0.069866
  0
VERTEX
  8
0
 10
42.933146
 20
198.335118
 42
0.050035
  0
VERTEX
  8
0
 10
36.151908
 20
183.000000
 42
0.014842
  0
VERTEX
  8
0
 10
32.915908
 20
172.023279
 42
0.008336
  0
VERTEX
  8
0
 10
29.606618
 20
158.519757
 42
0.008155
  0
VERTEX
  8
0
 10
26.612490
 20
144.287347
 42
0.010231
  0
VERTEX
  8
0
 10
24.323689
 20
131.000000
 42
0.019645
  0
VERTEX
  8
0
 10
22.347701
 20
113.244972
 42
0.014334
  0
VERTEX
  8
0
 10
21.496525
 20
93.409840
 42
0.014379
  0
VERTEX
  8
0
 10
21.766519
 20
74.835300
 42
0.036921
  0
VERTEX
  8
0
 10
23.335255
 20
61.500000
 42
0.010460
  0
VERTEX
  8
0
 10
24.992954
 20
53.791691
 42
0.009565
  0
VERTEX
  8
0
 10
27.017407
 20
45.924892
 42
0.003984
  0
VERTEX
  8
0
 10
29.087493
 20
38.698064
 42
0.184626
  0
VERTEX
  8
0
 10
30.004183
 20
37.497415
 42
0.560970
  0
VERTEX
  8
0
 10
30.294512
 20
37.644483
 42
0.001805
  0
VERTEX
  8
0
 10
30.667083
 20
42.546655
 42
0.006246
  0
VERTEX
  8
0
 10
31.013072
 20
48.330093
 42
0.003623
  0
VERTEX
  8
0
 10
31.291528
 20
55.285398
 42
-0.021199
  0
VERTEX
  8
0
 10
34.388299
 20
96.410087
 42
-0.044240
  0
VERTEX
  8
0
 10
40.952319
 20
127.826313
 42
-0.055762
  0
VERTEX
  8
0
 10
51.562894
 20
152.522126
 42
-0.065198
  0
VERTEX
  8
0
 10
66.940548
 20
172.858992
 42
-0.030784
  0
VERTEX
  8
0
 10
76.105870
 20
181.087859
 42
-0.017365
  0
VERTEX
  8
0
 10
88.135760
 20
189.957788
 42
-0.016198
  0
VERTEX
  8
0
 10
101.986318
 20
198.800835
 42
-0.014950
  0
VERTEX
  8
0
 10
116.750000
 20
206.980325
 42
0.008125
  0
VERTEX
  8
0
 10
119.145462
 20
208.265066
 42
0.012618
  0
VERTEX
  8
0
 10
121.164062
 20
209.458032
 42
0.006856
  0
VERTEX
  8
0
 10
122.796579
 20
210.510680
 42
0.251185
  0
VERTEX
  8
0
 10
123.000000
 20
210.890055
 42
0.266057
  0
VERTEX
  8
0
 10
122.265754
 20
212.172244
 42
0.008391
  0
VERTEX
  8
0
 10
116.825156
 20
215.243267
 42
0.016459
  0
VERTEX
  8
0
 10
110.893381
 20
218.213126
 42
0.023791
  0
VERTEX
  8
0
 10
105.457184
 20
220.407738
 42
0.037844
  0
VERTEX
  8
0
 10
98.913982
 20
222.151657
 42
0.023120
  0
VERTEX
  8
0
 10
90.994551
 20
223.256256
 42
0.023216
  0
VERTEX
  8
0
 10
83.176817
 20
223.615579
 42
0.045971
  0
SEQEND
  0
POLYLINE
  8
0
 66
1
 70
1
  0
VERTEX
  8
0
 10
469.000000
 20
218.634859
 42
0.109349
  0
VERTEX
  8
0
 10
470.129551
 20
213.531709
 42
0.123851
  0
VERTEX
  8
0
 10
473.284390
 20
209.647196
 42
0.123388
  0
VERTEX
  8
0
 10
477.912178
 20
207.708553
 42
0.108035
  0
VERTEX
  8
0
 10
483.156981
 20
208.045022
 42
0.059540
  0
VERTEX
  8
0
 10
486.596572
 20
209.492124
 42
0.086753
  0
VERTEX
  8
0
 10
489.127337
 20
211.581928
 42
0.263579
  0
VERTEX
  8
0
 10
489.432181
 20
213.149794
 42
0.322244
  0
VERTEX
  8
0
 10
488.250000
 20
214.000789
 42
-0.100582
  0
VERTEX
  8
0
 10
485.647796
 20
214.530828
 42
-0.012624
  0
VERTEX
  8
0
 10
480.384962
 20
216.923328
 42
-0.012964
  0
VERTEX
  8
0
 10
475.254910
 20
219.580069
 42
-0.094198
  0
VERTEX
  8
0
 10
473.127555
 20
221.341636
 42
0.071324
  0
VERTEX
  8
0
 10
471.425236
 20
222.886823
 42
0.302521
  0
VERTEX
  8
0
 10
470.117340
 20
222.896119
 42
0.209093
  0
VERTEX
  8
0
 10
469.242814
 20
221.555820
 42
0.041493
  0
SEQEND
  0
POLYLINE
  8
0
 66
1
 70
1
  0
VERTEX
  8
0
 10
458.673473
 20
217.835151
 42
0.023091
  0
VERTEX
  8
0
 10
458.370686
 20
216.339380
 42
0.003440
  0
VERTEX
  8
0
 10
457.921471
 20
213.298721
 42
0.003865
  0
VERTEX
  8
0
 10
457.442985
 20
209.696696
 42
0.003322
  0
VERTEX
  8
0
 10
456.994206
 20
205.901136
 42
0.036473
  0
VERTEX
  8
0
 10
456.543831
 20
194.096361
 42
0.057218
  0
VERTEX
  8
0
 10
458.050721
 20
184.064233
 42
0.062581
  0
VERTEX
  8
0
 10
461.639101
 20
175.294715
 42
0.055453
  0
VERTEX
  8
0
 10
467.407484
 20
167.285969
 42
0.022771
  0
VERTEX
  8
0
 10
471.599109
 20
163.053272
 42
0.005529
  0
VERTEX
  8
0
 10
478.908681
 20
156.463189
 42
0.001524
  0
VERTEX
  8
0
 10
486.886899
 20
149.471728
 42
0.181011
  0
VERTEX
  8
0
 10
488.146545
 20
148.999915
 42
0.411015
  0
VERTEX
  8
0
 10
488.290368
 20
149.142106
 42
0.000286
  0
VERTEX
  8
0
 10
488.353445
 20
155.091889
 42
0.002664
  0
VERTEX
  8
0
 10
488.384920
 20
161.786361
 42
0.001597
  0
VERTEX
  8
0
 10
488.354544
 20
169.738669
 42
0.000000
  0
VERTEX
  8
0
 10
488.209088
 20
190.477507
 42
0.000000
  0
VERTEX
  8
0
 10
485.354544
 20
191.071461
 42
-0.083205
  0
VERTEX
  8
0
 10
479.254273
 20
193.445777
 42
-0.056651
  0
VERTEX
  8
0
 10
473.315957
 20
197.963717
 42
-0.050117
  0
VERTEX
  8
0
 10
467.869566
 20
204.337757
 42
-0.038515
  0
VERTEX
  8
0
 10
463.239179
 20
212.241686
 42
0.004123
  0
VERTEX
  8
0
 10
460.919011
 20
216.910675
 42
0.053837
  0
VERTEX
  8
0
 10
459.864435
 20
218.530865
 42
0.395312
  0
VERTEX
  8
0
 10
459.207988
 20
218.618894
 42
0.178170
  0
SEQEND
  0
POLYLINE
  8
0
 66
1
 70
1
  0
VERTEX
  8
0
 10
194.000000
 20
195.281338
 42
-0.000027
  0
VERTEX
  8
0
 10
177.766871
 20
185.792729
 42
-0.000024
  0
VERTEX
  8
0
 10
160.828080
 20
175.893977
 42
-0.000024
  0
VERTEX
  8
0
 10
145.548347
 20
166.966725
 42
-0.000073
  0
VERTEX
  8
0
 10
135.138143
 20
160.887226
 42
-0.002814
  0
VERTEX
  8
0
 10
127.232131
 20
156.331166
 42
-0.004346
  0
VERTEX
  8
0
 10
120.343755
 20
152.491873
 42
-0.001481
  0
VERTEX
  8
0
 10
114.368934
 20
149.252432
 42
-0.124096
  0
VERTEX
  8
0
 10
113.367514
 20
149.000000
 42
-0.087792
  0
VERTEX
  8
0
 10
112.364872
 20
149.177415
 42
-0.001837
  0
VERTEX
  8
0
 10
107.605191
 20
150.936128
 42
-0.004218
  0
VERTEX
  8
0
 10
102.050666
 20
153.065326
 42
-0.002821
  0
VERTEX
  8
0
 10
95.729371
 20
155.591075
 42
0.001051
  0
VERTEX
  8
0
 10
78.497811
 20
162.546984
 42
0.033872
  0
VERTEX
  8
0
 10
74.194048
 20
163.943879
 42
0.146699
  0
VERTEX
  8
0
 10
71.615787
 20
163.827289
 42
0.090999
  0
VERTEX
  8
0
 10
68.963004
 20
162.315416
 42
0.089306
  0
VERTEX
  8
0
 10
60.611416
 20
152.261119
 42
0.021138
  0
VERTEX
  8
0
 10
50.642414
 20
132.768464
 42
0.017648
  0
VERTEX
  8
0
 10
42.270662
 20
112.698420
 42
0.161172
  0
VERTEX
  8
0
 10
41.894482
 20
103.367918
 42
0.045968
  0
VERTEX
  8
0
 10
44.035609
 20
97.866713
 42
0.005488
  0
VERTEX
  8
0
 10
50.004219
 20
86.232697
 42
0.006750
  0
VERTEX
  8
0
 10
57.212670
 20
72.990345
 42
0.006637
  0
VERTEX
  8
0
 10
64.815797
 20
59.871911
 42
0.002808
  0
VERTEX
  8
0
 10
74.790224
 20
43.387734
 42
0.002483
  0
VERTEX
  8
0
 10
85.363120
 20
26.324759
 42
0.000426
  0
VERTEX
  8
0
 10
95.810456
 20
9.681490
 42
0.114450
  0
VERTEX
  8
0
 10
97.003279
 20
8.497974
 42
0.357912
  0
VERTEX
  8
0
 10
97.594720
 20
8.577607
 42
0.000249
  0
VERTEX
  8
0
 10
109.276962
 20
21.141555
 42
0.002463
  0
VERTEX
  8
0
 10
122.313225
 20
35.315103
 42
0.001483
  0
VERTEX
  8
0
 10
137.641725
 20
52.247174
 42
-0.000150
  0
VERTEX
  8
0
 10
153.893750
 20
70.295863
 42
-0.000161
  0
VERTEX
  8
0
 10
169.795117
 20
87.933038
 42
-0.000152
  0
VERTEX
  8
0
 10
183.472833
 20
103.084728
 42
-0.000757
  0
VERTEX
  8
0
 10
191.177630
 20
111.588701
 42
0.003651
  0
VERTEX
  8
0
 10
198.848160
 20
120.153997
 42
0.020873
  0
VERTEX
  8
0
 10
202.691737
 20
124.894393
 42
0.039953
  0
VERTEX
  8
0
 10
204.838169
 20
128.320319
 42
0.061819
  0
VERTEX
  8
0
 10
206.054802
 20
131.588701
 42
-0.013916
  0
VERTEX
  8
0
 10
208.149103
 20
139.439203
 42
-0.003134
  0
VERTEX
  8
0
 10
212.165718
 20
152.667049
 42
-0.002858
  0
VERTEX
  8
0
 10
217.495805
 20
169.492609
 42
-0.001614
  0
VERTEX
  8
0
 10
224.140217
 20
189.833383
 42
0.001347
  0
VERTEX
  8
0
 10
227.577182
 20
200.336053
 42
0.002224
  0
VERTEX
  8
0
 10
230.417175
 20
209.228861
 42
0.000220
  0
VERTEX
  8
0
 10
232.912705
 20
217.176892
 42
0.288692
  0
VERTEX
  8
0
 10
232.833284
 20
217.477495
 42
0.328411
  0
VERTEX
  8
0
 10
232.536942
 20
217.511954
 42
0.000098
  0
VERTEX
  8
0
 10
221.288527
 20
211.085550
 42
0.001523
  0
VERTEX
  8
0
 10
208.786385
 20
203.889033
 42
0.000917
  0
SEQEND
  0
POLYLINE
  8
0
 66
1
 70
1
  0
VERTEX
  8
0
 10
496.995005
 20
207.486862
 42
-0.066417
  0
VERTEX
  8
0
 10
496.418204
 20
206.420825
 42
-0.023922
  0
VERTEX
  8
0
 10
495.336507
 20
205.073394
 42
-0.023233
  0
VERTEX
  8
0
 10
493.995625
 20
203.692589
 42
-0.025507
  0
VERTEX
  8
0
 10
492.571855
 20
202.487009
 42
0.018700
  0
VERTEX
  8
0
 10
491.244375
 20
201.393624
 42
0.029478
  0
VERTEX
  8
0
 10
490.200895
 20
200.350281
 42
0.029310
  0
VERTEX
  8
0
 10
489.501358
 20
199.463529
 42
0.299200
  0
VERTEX
  8
0
 10
489.488934
 20
199.017905
 42
0.194418
  0
VERTEX
  8
0
 10
490.729653
 20
198.107228
 42
0.040620
  0
VERTEX
  8
0
 10
493.442906
 20
197.647243
 42
0.040635
  0
VERTEX
  8
0
 10
496.611823
 20
197.629770
 42
0.048460
  0
VERTEX
  8
0
 10
499.554402
 20
198.142633
 42
0.067372
  0
VERTEX
  8
0
 10
502.392340
 20
199.355701
 42
0.033681
  0
VERTEX
  8
0
 10
505.607737
 20
201.583047
 42
0.029623
  0
VERTEX
  8
0
 10
508.323801
 20
204.025385
 42
0.197887
  0
VERTEX
  8
0
 10
508.998123
 20
205.673077
 42
0.279948
  0
VERTEX
  8
0
 10
508.755176
 20
206.070948
 42
0.014944
  0
VERTEX
  8
0
 10
507.362012
 20
206.738429
 42
0.019848
  0
VERTEX
  8
0
 10
505.564041
 20
207.450773
 42
0.012797
  0
VERTEX
  8
0
 10
503.431017
 20
208.138596
 42
0.005652
  0
VERTEX
  8
0
 10
499.736032
 20
209.181287
 42
0.091417
  0
VERTEX
  8
0
 10
498.452693
 20
209.285993
 42
0.224068
  0
VERTEX
  8
0
 10
497.683401
 20
208.822999
 42
0.056271
  0
SEQEND
  0
POLYLINE
  8
0
 66
1
 70
1
  0
VERTEX
  8
0
 10
616.163004
 20
188.000000
 42
-0.027455
  0
VERTEX
  8
0
 10
615.432066
 20
186.161258
 42
-0.007071
  0
VERTEX
  8
0
 10
614.049680
 20
183.280430
 42
-0.007176
  0
VERTEX
  8
0
 10
612.376698
 20
180.034488
 42
-0.007245
  0
VERTEX
  8
0
 10
610.616411
 20
176.848274
 42
0.000000
  0
VERTEX
  8
0
 10
606.243183
 20
169.196548
 42
0.000000
  0
VERTEX
  8
0
 10
608.689789
 20
160.848274
 42
-0.021857
  0
VERTEX
  8
0
 10
614.322389
 20
137.967936
 42
-0.011901
  0
VERTEX
  8
0
 10
619.328724
 20
109.464811
 42
-0.011903
  0
VERTEX
  8
0
 10
622.965927
 20
80.811496
 42
-0.022262
  0
VERTEX
  8
0
 10
624.319239
 20
57.481452
 42
0.005220
  0
VERTEX
  8
0
 10
624.442473
 20
52.318564
 42
0.008669
  0
VERTEX
  8
0
 10
624.667214
 20
47.970423
 42
0.002991
  0
VERTEX
  8
0
 10
624.943196
 20
44.295569
 42
0.387186
  0
VERTEX
  8
0
 10
625.250000
 20
44.009159
 42
0.032046
  0
VERTEX
  8
0
 10
625.537314
 20
44.024072
 42
0.049699
  0
VERTEX
  8
0
 10
625.779688
 20
44.077063
 42
0.064331
  0
VERTEX
  8
0
 10
625.947274
 20
44.156584
 42
0.255146
  0
VERTEX
  8
0
 10
626.000000
 20
44.253182
 42
-0.067411
  0
VERTEX
  8
0
 10
626.026420
 20
44.448254
 42
-0.000295
  0
VERTEX
  8
0
 10
626.590367
 20
46.487308
 42
-0.001425
  0
VERTEX
  8
0
 10
627.239353
 20
48.802801
 42
-0.000898
  0
VERTEX
  8
0
 10
628.009761
 20
51.503182
 42
0.047807
  0
VERTEX
  8
0
 10
631.736930
 20
71.511696
 42
0.022316
  0
VERTEX
  8
0
 10
632.898201
 20
97.885861
 42
0.021718
  0
VERTEX
  8
0
 10
631.652607
 20
126.142480
 42
0.026612
  0
VERTEX
  8
0
 10
627.946949
 20
152.306913
 42
0.008472
  0
VERTEX
  8
0
 10
625.862913
 20
162.044055
 42
0.005953
  0
VERTEX
  8
0
 10
623.202379
 20
172.930158
 42
0.005176
  0
VERTEX
  8
0
 10
620.545681
 20
182.838821
 42
0.029310
  0
VERTEX
  8
0
 10
618.770036
 20
188.007417
 42
0.000000
  0
VERTEX
  8
0
 10
617.336368
 20
191.500000
 42
0.000000
  0
SEQEND
  0
POLYLINE
  8
0
 66
1
 70
1
  0
VERTEX
  8
0
 10
584.988008
 20
150.611224
 42
-0.009552
  0
VERTEX
  8
0
 10
582.670564
 20
149.001577
 42
-0.003213
  0
VERTEX
  8
0
 10
579.230785
 20
146.740323
 42
-0.003195
  0
VERTEX
  8
0
 10
575.392846
 20
144.287192
 42
-0.003655
  0
VERTEX
  8
0
 10
571.691262
 20
141.992033
 42
0.003784
  0
VERTEX
  8
0
 10
568.280543
 20
139.876006
 42
0.005610
  0
VERTEX
  8
0
 10
565.327092
 20
137.965906
 42
0.002678
  0
VERTEX
  8
0
 10
562.849356
 20
136.304578
 42
0.105694
  0
VERTEX
  8
0
 10
562.395719
 20
135.831270
 42
0.210603
  0
VERTEX
  8
0
 10
562.307662
 20
135.199247
 42
0.002487
  0
VERTEX
  8
0
 10
563.498892
 20
131.082640
 42
0.006982
  0
VERTEX
  8
0
 10
564.981815
 20
126.299192
 42
0.004442
  0
VERTEX
  8
0
 10
566.834799
 20
120.771803
 42
-0.011465
  0
VERTEX
  8
0
 10
574.493434
 20
96.814940
 42
-0.010351
  0
VERTEX
  8
0
 10
581.329085
 20
71.704845
 42
-0.010738
  0
VERTEX
  8
0
 10
586.645416
 20
48.327485
 42
-0.022802
  0
VERTEX
  8
0
 10
589.538065
 20
30.000000
 42
0.036503
  0
VERTEX
  8
0
 10
590.286705
 20
25.975487
 42
0.748545
  0
VERTEX
  8
0
 10
591.070350
 20
25.952938
 42
0.046742
  0
VERTEX
  8
0
 10
591.986778
 20
30.031764
 42
0.003067
  0
VERTEX
  8
0
 10
593.451859
 20
42.034554
 42
0.014999
  0
VERTEX
  8
0
 10
594.881319
 20
58.745575
 42
0.008206
  0
VERTEX
  8
0
 10
595.681486
 20
79.292203
 42
0.008201
  0
VERTEX
  8
0
 10
595.805743
 20
99.629219
 42
0.016701
  0
VERTEX
  8
0
 10
595.108004
 20
115.589141
 42
0.009929
  0
VERTEX
  8
0
 10
594.072050
 20
126.241448
 42
0.005704
  0
VERTEX
  8
0
 10
592.422426
 20
139.037163
 42
0.001522
  0
VERTEX
  8
0
 10
590.562164
 20
151.988021
 42
0.161300
  0
VERTEX
  8
0
 10
589.771511
 20
153.561822
 42
0.341821
  0
VERTEX
  8
0
 10
589.531133
 20
153.592432
 42
0.005155
  0
VERTEX
  8
0
 10
588.244465
 20
152.816976
 42
0.011390
  0
VERTEX
  8
0
 10
586.729936
 20
151.834457
 42
0.006980
  0
SEQEND
  0
POLYLINE
  8
0
 66
1
 70
1
  0
VERTEX
  8
0
 10
474.511466
 20
145.083366
 42
0.081227
  0
VERTEX
  8
0
 10
474.969362
 20
127.074819
 42
0.019411
  0
VERTEX
  8
0
 10
481.710740
 20
97.800529
 42
0.020595
  0
VERTEX
  8
0
 10
491.597933
 20
66.541082
 42
0.029431
  0
VERTEX
  8
0
 10
503.094078
 20
39.825617
 42
0.012451
  0
VERTEX
  8
0
 10
505.640965
 20
35.051992
 42
0.035161
  0
VERTEX
  8
0
 10
507.727870
 20
31.903276
 42
0.427999
  0
VERTEX
  8
0
 10
508.400797
 20
31.831418
 42
0.300970
  0
VERTEX
  8
0
 10
508.632083
 20
32.624771
 42
-0.025163
  0
VERTEX
  8
0
 10
507.920669
 20
35.402652
 42
-0.000876
  0
VERTEX
  8
0
 10
505.720664
 20
46.331653
 42
-0.001837
  0
VERTEX
  8
0
 10
503.474661
 20
57.810738
 42
-0.002636
  0
VERTEX
  8
0
 10
501.575501
 20
68.000000
 42
-0.006999
  0
VERTEX
  8
0
 10
499.271674
 20
81.835276
 42
-0.004781
  0
VERTEX
  8
0
 10
497.025035
 20
97.612792
 42
-0.004615
  0
VERTEX
  8
0
 10
495.211133
 20
112.327666
 42
-0.015510
  0
VERTEX
  8
0
 10
494.412302
 20
122.000000
 42
0.002647
  0
VERTEX
  8
0
 10
494.175584
 20
126.172097
 42
0.003357
  0
VERTEX
  8
0
 10
493.910673
 20
130.022909
 42
0.002647
  0
VERTEX
  8
0
 10
493.649889
 20
133.247726
 42
0.027381
  0
VERTEX
  8
0
 10
493.462938
 20
134.567350
 42
0.162254
  0
VERTEX
  8
0
 10
492.393435
 20
136.447525
 42
0.004231
  0
VERTEX
  8
0
 10
485.059782
 20
142.924460
 42
0.003992
  0
VERTEX
  8
0
 10
477.588507
 20
149.307350
 42
0.176555
  0
VERTEX
  8
0
 10
475.688081
 20
150.000000
 42
0.336988
  0
VERTEX
  8
0
 10
475.465340
 20
149.830646
 42
0.008939
  0
VERTEX
  8
0
 10
475.136033
 20
148.555739
 42
0.015192
  0
VERTEX
  8
0
 10
474.806765
 20
146.968239
 42
0.009364
  0
SEQEND
  0
POLYLINE
  8
0
 66
1
 70
1
  0
VERTEX
  8
0
 10
602.846816
 20
128.750978
 42
-0.013957
  0
VERTEX
  8
0
 10
602.639291
 20
102.180832
 42
-0.009899
  0
VERTEX
  8
0
 10
600.985049
 20
72.415340
 42
-0.009785
  0
VERTEX
  8
0
 10
598.350778
 20
44.735952
 42
-0.028219
  0
VERTEX
  8
0
 10
595.074563
 20
25.750000
 42
0.008336
  0
VERTEX
  8
0
 10
594.329056
 20
22.263038
 42
0.026487
  0
VERTEX
  8
0
 10
593.994126
 20
19.903288
 42
0.038133
  0
VERTEX
  8
0
 10
593.976290
 20
18.392117
 42
0.396789
  0
VERTEX
  8
0
 10
594.391008
 20
18.005070
 42
0.142114
  0
VERTEX
  8
0
 10
596.038066
 20
18.491036
 42
0.003313
  0
VERTEX
  8
0
 10
602.893083
 20
22.941910
 42
0.008039
  0
VERTEX
  8
0
 10
609.485364
 20
27.438179
 42
0.021320
  0
VERTEX
  8
0
 10
614.000000
 20
30.922436
 42
0.000000
  0
VERTEX
  8
0
 10
617.500000
 20
33.869978
 42
0.000000
  0
VERTEX
  8
0
 10
617.425061
 20
46.684989
 42
0.011520
  0
VERTEX
  8
0
 10
617.108323
 20
57.646801
 42
0.009348
  0
VERTEX
  8
0
 10
616.278583
 20
69.376544
 42
0.008262
  0
VERTEX
  8
0
 10
614.889881
 20
82.448350
 42
0.005375
  0
VERTEX
  8
0
 10
612.874392
 20
97.500000
 42
0.007239
  0
VERTEX
  8
0
 10
610.197675
 20
114.263269
 42
0.008121
  0
VERTEX
  8
0
 10
607.127355
 20
130.309212
 42
0.002219
  0
VERTEX
  8
0
 10
603.997564
 20
145.011957
 42
0.351785
  0
VERTEX
  8
0
 10
602.774751
 20
146.000978
 42
0.416189
  0
VERTEX
  8
0
 10
602.664356
 20
145.890625
 42
0.000250
  0
VERTEX
  8
0
 10
602.682585
 20
140.934194
 42
0.002489
  0
VERTEX
  8
0
 10
602.733572
 20
135.365820
 42
0.001492
  0
SEQEND
  0
POLYLINE
  8
0
 66
1
 70
1
  0
VERTEX
  8
0
 10
516.007430
 20
129.385844
 42
0.073276
  0
VERTEX
  8
0
 10
516.106647
 20
128.749527
 42
0.001518
  0
VERTEX
  8
0
 10
517.070954
 20
125.675842
 42
0.003516
  0
VERTEX
  8
0
 10
518.236415
 20
122.087846
 42
0.002355
  0
VERTEX
  8
0
 10
519.617504
 20
118.000000
 42
-0.000566
  0
VERTEX
  8
0
 10
521.855857
 20
111.452140
 42
-0.000061
  0
VERTEX
  8
0
 10
527.001562
 20
96.337500
 42
-0.000075
  0
VERTEX
  8
0
 10
533.123213
 20
78.340074
 42
-0.000061
  0
VERTEX
  8
0
 10
539.695689
 20
59.000000
 42
0.000074
  0
VERTEX
  8
0
 10
546.110556
 20
40.125358
 42
0.000109
  0
VERTEX
  8
0
 10
551.743313
 20
23.571875
 42
0.000048
  0
VERTEX
  8
0
 10
556.559391
 20
9.433071
 42
0.002168
  0
VERTEX
  8
0
 10
557.573012
 20
6.500000
 42
0.037389
  0
VERTEX
  8
0
 10
558.327631
 20
4.772357
 42
0.734290
  0
VERTEX
  8
0
 10
558.699680
 20
4.841021
 42
0.038567
  0
VERTEX
  8
0
 10
558.787623
 20
6.817973
 42
0.001433
  0
VERTEX
  8
0
 10
558.522737
 20
14.274866
 42
0.011203
  0
VERTEX
  8
0
 10
557.912082
 20
24.309680
 42
0.007832
  0
VERTEX
  8
0
 10
556.793518
 20
35.588824
 42
0.005463
  0
VERTEX
  8
0
 10
554.936624
 20
50.314409
 42
0.001801
  0
VERTEX
  8
0
 10
551.893125
 20
71.916576
 42
0.006460
  0
VERTEX
  8
0
 10
549.144046
 20
89.340129
 42
0.005176
  0
VERTEX
  8
0
 10
545.748117
 20
108.027545
 42
0.001420
  0
VERTEX
  8
0
 10
542.211515
 20
126.128374
 42
0.146636
  0
VERTEX
  8
0
 10
541.032129
 20
128.355619
 42
0.186623
  0
VERTEX
  8
0
 10
539.169738
 20
129.195387
 42
0.003366
  0
VERTEX
  8
0
 10
528.085868
 20
129.726455
 42
0.002377
  0
VERTEX
  8
0
 10
516.777448
 20
130.138164
 42
0.425986
  0
SEQEND
  0
POLYLINE
  8
0
 66
1
 70
1
  0
VERTEX
  8
0
 10
507.352247
 20
108.000000
 42
0.007471
  0
VERTEX
  8
0
 10
508.592425
 20
86.658504
 42
0.008932
  0
VERTEX
  8
0
 10
510.419620
 20
66.601539
 42
0.009219
  0
VERTEX
  8
0
 10
512.900680
 20
47.193888
 42
0.009100
  0
VERTEX
  8
0
 10
516.104785
 20
27.806433
 42
0.000000
  0
VERTEX
  8
0
 10
518.256660
 20
16.112865
 42
0.000000
  0
VERTEX
  8
0
 10
524.894665
 20
12.624692
 42
0.027867
  0
VERTEX
  8
0
 10
530.612985
 20
10.015234
 42
0.016051
  0
VERTEX
  8
0
 10
537.750817
 20
7.487989
 42
0.014901
  0
VERTEX
  8
0
 10
544.599032
 20
5.530675
 42
0.062228
  0
VERTEX
  8
0
 10
548.846478
 20
5.000000
 42
0.198824
  0
VERTEX
  8
0
 10
550.281830
 20
5.594256
 42
0.238857
  0
VERTEX
  8
0
 10
550.731988
 20
6.967303
 42
0.057214
  0
VERTEX
  8
0
 10
549.926453
 20
9.918954
 42
0.005175
  0
VERTEX
  8
0
 10
547.006847
 20
17.000000
 42
-0.005343
  0
VERTEX
  8
0
 10
544.514802
 20
23.049829
 42
-0.003191
  0
VERTEX
  8
0
 10
541.674036
 20
30.294948
 42
-0.001869
  0
VERTEX
  8
0
 10
537.668774
 20
40.822291
 42
-0.000407
  0
VERTEX
  8
0
 10
530.847411
 20
59.000000
 42
-0.000257
  0
VERTEX
  8
0
 10
525.400213
 20
73.574637
 42
-0.000817
  0
VERTEX
  8
0
 10
521.779852
 20
83.325170
 42
-0.000925
  0
VERTEX
  8
0
 10
518.433505
 20
92.434840
 42
-0.000409
  0
VERTEX
  8
0
 10
514.045716
 20
104.478758
 42
0.001873
  0
VERTEX
  8
0
 10
511.639213
 20
111.024644
 42
0.002952
  0
VERTEX
  8
0
 10
509.519468
 20
116.623121
 42
0.000746
  0
VERTEX
  8
0
 10
507.632916
 20
121.496559
 42
0.116300
  0
VERTEX
  8
0
 10
507.301326
 20
121.978758
 42
0.648867
  0
VERTEX
  8
0
 10
507.082495
 20
121.882522
 42
0.002241
  0
VERTEX
  8
0
 10
507.079307
 20
118.087510
 42
0.006299
  0
VERTEX
  8
0
 10
507.153417
 20
113.524877
 42
0.003566
  0
SEQEND
  0
POLYLINE
  8
0
 66
1
 70
1
  0
VERTEX
  8
0
 10
559.342373
 20
110.000000
 42
-0.003808
  0
VERTEX
  8
0
 10
559.627880
 20
105.027357
 42
-0.000259
  0
VERTEX
  8
0
 10
560.323924
 20
90.896875
 42
-0.000371
  0
VERTEX
  8
0
 10
561.132538
 20
74.048756
 42
-0.000278
  0
VERTEX
  8
0
 10
561.998618
 20
55.500000
 42
0.000717
  0
VERTEX
  8
0
 10
562.863786
 20
37.312886
 42
0.001108
  0
VERTEX
  8
0
 10
563.668583
 20
21.602884
 42
0.000330
  0
VERTEX
  8
0
 10
564.407138
 20
7.954231
 42
0.034976
  0
VERTEX
  8
0
 10
564.638762
 20
6.105562
 42
0.100849
  0
VERTEX
  8
0
 10
565.209481
 20
4.738889
 42
0.198183
  0
VERTEX
  8
0
 10
566.176426
 20
4.101366
 42
0.061744
  0
VERTEX
  8
0
 10
568.113840
 20
3.968890
 42
0.003926
  0
VERTEX
  8
0
 10
573.805304
 20
4.327423
 42
0.006127
  0
VERTEX
  8
0
 10
582.835333
 20
5.078794
 42
0.110947
  0
VERTEX
  8
0
 10
585.571085
 20
5.974053
 42
0.250982
  0
VERTEX
  8
0
 10
586.653787
 20
7.773170
 42
0.043152
  0
VERTEX
  8
0
 10
586.504140
 20
11.892119
 42
0.021465
  0
VERTEX
  8
0
 10
583.668215
 20
28.872063
 42
0.006301
  0
VERTEX
  8
0
 10
577.872547
 20
54.666837
 42
0.006590
  0
VERTEX
  8
0
 10
571.173168
 20
81.258999
 42
0.013278
  0
VERTEX
  8
0
 10
565.062117
 20
102.000000
 42
0.003160
  0
VERTEX
  8
0
 10
561.470784
 20
112.858932
 42
0.073879
  0
VERTEX
  8
0
 10
559.996049
 20
115.739199
 42
0.724914
  0
VERTEX
  8
0
 10
559.196678
 20
115.488058
 42
0.019216
  0
SEQEND
  0
ENDSEC
  0
EOF
