M48
;Layer_Color=9474304
;FILE_FORMAT=2:4
INCH
;TYPE=PLATED
T1F00S00C0.0118
T2F00S00C0.0236
T3F00S00C0.0300
T4F00S00C0.0315
T5F00S00C0.0354
T6F00S00C0.0394
T7F00S00C0.0551
T8F00S00C0.1260
%
T01
X002559Y003346
X002461Y005413
X004331Y004134
Y003740
X004724Y003307
X005512Y001063
X007677Y000984
X008169Y002461
X008957Y003051
X009488Y000827
X011299
X012480
X011614Y002461
X011024Y003937
X015157Y003150
Y004921
X005945Y005630
X005906Y008268
X007087Y007874
X008268Y007480
X009764Y007441
X011220Y005906
X012205Y006693
X012087Y008189
X012008Y009646
X010984Y009252
X008189Y010157
X007283Y009646
X005748Y009685
X004528Y008661
X004685Y007559
X006890Y011122
X009055Y011220
X015157Y006299
X001772Y007283
X002756Y008661
T02
X003346Y000984
Y001772
Y002559
Y003346
Y005118
Y005906
Y006693
Y007480
T03
X009252Y001378
X010039
X010827
X013189
X013976
X014764
T04
X006746Y001165
Y002165
Y003165
X006746Y005299
X009547Y005413
Y004035
X009547Y008957
Y010335
X006118Y010486
X005118Y010486
X004118
X006746Y007299
X006746Y006299
X013045Y008252
Y009252
Y010252
T05
X002677Y003937
X011417Y002047
X015354
X002677Y008071
T06
X011992Y002831
X011992Y003831
Y004831
X012992
X013992Y004831
X013992Y003831
X013992Y002831
X012992
X012992Y003831
Y005831
X013992
X011992
X000807Y005799
X000807Y006799
X000787Y008201
Y009201
T07
X014803Y007382
Y008760
T08
X001181Y001181
X016929
Y011024
X001181
M30
