M48
;Layer_Color=9474304
;FILE_FORMAT=2:4
INCH
;TYPE=PLATED
T1F00S00C0.0079
T2F00S00C0.0118
T3F00S00C0.0394
T4F00S00C0.0591
T5F00S00C0.0630
T6F00S00C0.1260
%
T01
X019882Y-017520
X019488Y-015945
Y-014764
X024606
Y-015157
X025000
X025394
X025787
X025827Y-015748
X025433
X025039
X024646
X024567Y-016142
Y-016732
X024606Y-017126
X025000
X025394
X025787
Y-017520
X025394
X025000
X024606
X026083Y-016732
Y-016339
Y-015945
Y-014764
Y-014370
Y-013976
X025787Y-013583
X025394
X025000
X024606Y-013976
Y-014370
X025984Y-011024
Y-008661
Y-005906
X018307Y-004921
X014370
X013386Y-008268
X018898Y-008858
X016929Y-011614
X007874Y-007087
X006299Y-007874
X006693Y-005118
X005906
X002362Y-009646
X000197Y-010827
Y-007677
Y-016929
X-000984Y-017717
X-001969Y-016535
X-002165Y-015354
X007283Y-017717
X-004134Y-016929
Y-014370
X-003937Y-012402
X-005709Y-012992
Y-010827
X-004134Y-009646
Y-006693
X-005709Y-007480
X-008268Y-006299
X-011024Y-007087
X-012008Y-004921
X-013583Y-006102
X-015748Y-009449
X-014764Y-010433
X-012598Y-014567
X-013386Y-015354
X-012913Y-017205
X-014862Y-017224
X-016142Y-016142
X-011417
X-011024Y-016929
X-006890Y-017717
X-008661Y-013386
Y-012598
X-018898Y-010433
Y-007874
Y-006299
X-024016Y-007087
Y-005118
Y-009055
X-025984Y-010236
Y-007480
Y-013583
Y-013976
Y-014370
Y-014764
Y-015157
X-025591
X-025197
X-024803
X-024409
Y-014764
Y-014370
Y-013976
X-024803Y-013583
X-025197
X-025591
X-024409Y-012598
Y-015748
Y-016142
Y-016732
Y-017126
Y-017520
X-024803
X-025197
X-025591
Y-017126
X-025197
X-024803
X-025984Y-016929
Y-016535
Y-016142
Y-015748
X-025591
X-025197
X-024803
X-025984Y-017323
X-020079Y-017717
Y-016535
Y-003543
X-018898Y-004331
X-022835Y-003543
X-025984Y-003937
X-025394Y-001378
X-020276Y-000394
X-017126
X-018504Y-002559
X-016732Y-004134
X-012795Y-004331
X-012402Y-000394
X-010039Y-001575
X-008071Y-000394
X-005709Y-004331
X-004134Y-003937
X-002165
X-001181Y-002165
X-002165Y-000394
X002165
X001378Y-001181
X001772Y-002362
Y-004134
X003740Y-003346
X005906Y-004331
X007677Y-002756
X008465
X010039Y-003740
X009252Y-004528
X012598Y-004134
X011811Y-000394
X007677
X018110
X021654
X025984Y-002756
T02
X018189Y-016024
X017598Y-012323
X018898Y-010906
X012795Y-008858
X010532Y-007087
X012008Y-005020
X006545Y-008858
X001378Y-016535
X-012835Y-016732
X-017224
X-012352Y-008858
X-014468Y-005610
X-008366Y-007087
X-006890Y-005020
X-006102Y-008957
X-007874Y-003740
X-012795Y-003937
X011024Y-003740
T03
X-007193Y-016732
X-006193
X-006744Y-002677
X-007744
X-010787Y-001673
Y-004232
X008110
Y-001673
X011154Y-002677
X012154
T04
X016299Y-007480
Y-005512
X021496
Y-007480
X002598
Y-005512
X-002598
Y-007480
X-016299
Y-005512
X-021496
Y-007480
X-021695Y-002900
X-018898Y-001741
X-016100Y-002900
X-002798Y-002900
X000000Y-001741
X002798Y-002900
X016100Y-002900
X018898Y-001741
X021695Y-002900
T05
X025374Y-016354
Y-014354
X002652Y-012677
Y-011339
X-002652
Y-012677
X-016246
Y-011339
X-021549
Y-012677
X-025217Y-014354
Y-016354
T06
X013386Y-012205
X024409Y-011024
X000000Y-014764
X-013386Y-012205
X-024409Y-011024
X-023228Y-001378
X-014567
X-004331
X004331
X014567
X023228
M30
