G04*
G04 #@! TF.GenerationSoftware,Altium Limited,Altium Designer,21.1.1 (26)*
G04*
G04 Layer_Color=16711935*
%FSLAX24Y24*%
%MOIN*%
G70*
G04*
G04 #@! TF.SameCoordinates,F00D2E86-8B98-404A-8CF5-AA7CE4D76747*
G04*
G04*
G04 #@! TF.FilePolarity,Negative*
G04*
G01*
G75*
%ADD16C,0.0059*%
%ADD17C,0.0659*%
%ADD18C,0.0531*%
%ADD19C,0.0571*%
G04:AMPARAMS|DCode=20|XSize=57.1mil|YSize=57.1mil|CornerRadius=10.6mil|HoleSize=0mil|Usage=FLASHONLY|Rotation=270.000|XOffset=0mil|YOffset=0mil|HoleType=Round|Shape=RoundedRectangle|*
%AMROUNDEDRECTD20*
21,1,0.0571,0.0358,0,0,270.0*
21,1,0.0358,0.0571,0,0,270.0*
1,1,0.0213,-0.0179,-0.0179*
1,1,0.0213,-0.0179,0.0179*
1,1,0.0213,0.0179,0.0179*
1,1,0.0213,0.0179,-0.0179*
%
%ADD20ROUNDEDRECTD20*%
%ADD21O,0.1259X0.0659*%
G04:AMPARAMS|DCode=22|XSize=65.9mil|YSize=125.9mil|CornerRadius=24mil|HoleSize=0mil|Usage=FLASHONLY|Rotation=90.000|XOffset=0mil|YOffset=0mil|HoleType=Round|Shape=RoundedRectangle|*
%AMROUNDEDRECTD22*
21,1,0.0659,0.0780,0,0,90.0*
21,1,0.0180,0.1259,0,0,90.0*
1,1,0.0479,0.0390,0.0090*
1,1,0.0479,0.0390,-0.0090*
1,1,0.0479,-0.0390,-0.0090*
1,1,0.0479,-0.0390,0.0090*
%
%ADD22ROUNDEDRECTD22*%
G04:AMPARAMS|DCode=23|XSize=65mil|YSize=76.8mil|CornerRadius=17.7mil|HoleSize=0mil|Usage=FLASHONLY|Rotation=270.000|XOffset=0mil|YOffset=0mil|HoleType=Round|Shape=RoundedRectangle|*
%AMROUNDEDRECTD23*
21,1,0.0650,0.0413,0,0,270.0*
21,1,0.0295,0.0768,0,0,270.0*
1,1,0.0354,-0.0207,-0.0148*
1,1,0.0354,-0.0207,0.0148*
1,1,0.0354,0.0207,0.0148*
1,1,0.0354,0.0207,-0.0148*
%
%ADD23ROUNDEDRECTD23*%
%ADD24O,0.0768X0.0650*%
G04:AMPARAMS|DCode=25|XSize=88.6mil|YSize=88.6mil|CornerRadius=15.4mil|HoleSize=0mil|Usage=FLASHONLY|Rotation=90.000|XOffset=0mil|YOffset=0mil|HoleType=Round|Shape=RoundedRectangle|*
%AMROUNDEDRECTD25*
21,1,0.0886,0.0579,0,0,90.0*
21,1,0.0579,0.0886,0,0,90.0*
1,1,0.0307,0.0289,0.0289*
1,1,0.0307,0.0289,-0.0289*
1,1,0.0307,-0.0289,-0.0289*
1,1,0.0307,-0.0289,0.0289*
%
%ADD25ROUNDEDRECTD25*%
%ADD26C,0.0886*%
%ADD27C,0.2421*%
%ADD28O,0.0659X0.1259*%
G04:AMPARAMS|DCode=29|XSize=65.9mil|YSize=125.9mil|CornerRadius=24mil|HoleSize=0mil|Usage=FLASHONLY|Rotation=180.000|XOffset=0mil|YOffset=0mil|HoleType=Round|Shape=RoundedRectangle|*
%AMROUNDEDRECTD29*
21,1,0.0659,0.0780,0,0,180.0*
21,1,0.0180,0.1259,0,0,180.0*
1,1,0.0479,-0.0090,0.0390*
1,1,0.0479,0.0090,0.0390*
1,1,0.0479,0.0090,-0.0390*
1,1,0.0479,-0.0090,-0.0390*
%
%ADD29ROUNDEDRECTD29*%
%ADD30C,0.0650*%
G04:AMPARAMS|DCode=31|XSize=65mil|YSize=65mil|CornerRadius=17.7mil|HoleSize=0mil|Usage=FLASHONLY|Rotation=90.000|XOffset=0mil|YOffset=0mil|HoleType=Round|Shape=RoundedRectangle|*
%AMROUNDEDRECTD31*
21,1,0.0650,0.0295,0,0,90.0*
21,1,0.0295,0.0650,0,0,90.0*
1,1,0.0354,0.0148,0.0148*
1,1,0.0354,0.0148,-0.0148*
1,1,0.0354,-0.0148,-0.0148*
1,1,0.0354,-0.0148,0.0148*
%
%ADD31ROUNDEDRECTD31*%
G04:AMPARAMS|DCode=55|XSize=37.4mil|YSize=37.4mil|CornerRadius=7.7mil|HoleSize=0mil|Usage=FLASHONLY|Rotation=270.000|XOffset=0mil|YOffset=0mil|HoleType=Round|Shape=RoundedRectangle|*
%AMROUNDEDRECTD55*
21,1,0.0374,0.0220,0,0,270.0*
21,1,0.0220,0.0374,0,0,270.0*
1,1,0.0154,-0.0110,-0.0110*
1,1,0.0154,-0.0110,0.0110*
1,1,0.0154,0.0110,0.0110*
1,1,0.0154,0.0110,-0.0110*
%
%ADD55ROUNDEDRECTD55*%
G04:AMPARAMS|DCode=56|XSize=37.9mil|YSize=45.9mil|CornerRadius=11mil|HoleSize=0mil|Usage=FLASHONLY|Rotation=90.000|XOffset=0mil|YOffset=0mil|HoleType=Round|Shape=RoundedRectangle|*
%AMROUNDEDRECTD56*
21,1,0.0379,0.0240,0,0,90.0*
21,1,0.0160,0.0459,0,0,90.0*
1,1,0.0219,0.0120,0.0080*
1,1,0.0219,0.0120,-0.0080*
1,1,0.0219,-0.0120,-0.0080*
1,1,0.0219,-0.0120,0.0080*
%
%ADD56ROUNDEDRECTD56*%
G04:AMPARAMS|DCode=57|XSize=25.6mil|YSize=25.6mil|CornerRadius=5.9mil|HoleSize=0mil|Usage=FLASHONLY|Rotation=270.000|XOffset=0mil|YOffset=0mil|HoleType=Round|Shape=RoundedRectangle|*
%AMROUNDEDRECTD57*
21,1,0.0256,0.0138,0,0,270.0*
21,1,0.0138,0.0256,0,0,270.0*
1,1,0.0118,-0.0069,-0.0069*
1,1,0.0118,-0.0069,0.0069*
1,1,0.0118,0.0069,0.0069*
1,1,0.0118,0.0069,-0.0069*
%
%ADD57ROUNDEDRECTD57*%
G36*
X7913Y10630D02*
X7913D01*
X7913Y10620D01*
X7903Y10605D01*
X7886Y10598D01*
X7868Y10602D01*
X7862Y10608D01*
X7677Y10792D01*
Y10792D01*
X7493Y10608D01*
X7487Y10602D01*
X7468Y10598D01*
X7451Y10605D01*
X7441Y10621D01*
X7441Y10630D01*
X7441D01*
X7441Y10892D01*
X7913D01*
X7913Y10630D01*
D02*
G37*
G36*
X7689Y10667D02*
X7712Y10658D01*
X7721Y10649D01*
X7721Y10649D01*
X7913Y10456D01*
X7913Y10392D01*
X7441Y10392D01*
X7441Y10456D01*
X7634Y10649D01*
X7642Y10658D01*
X7665Y10667D01*
X7689Y10667D01*
D02*
G37*
D16*
X11417Y2047D02*
D03*
X15354D02*
D03*
X2677Y3937D02*
D03*
Y8071D02*
D03*
D17*
X9252Y1378D02*
D03*
X10039D02*
D03*
X10827D02*
D03*
X13189D02*
D03*
X13976D02*
D03*
X14764D02*
D03*
D18*
X3346Y3346D02*
D03*
Y984D02*
D03*
Y2559D02*
D03*
Y1772D02*
D03*
Y7480D02*
D03*
Y5118D02*
D03*
Y6693D02*
D03*
Y5906D02*
D03*
D19*
X9547Y10335D02*
D03*
X9547Y5413D02*
D03*
D20*
X9547Y8957D02*
D03*
X9547Y4035D02*
D03*
D21*
X13045Y10252D02*
D03*
Y9252D02*
D03*
X6746Y3165D02*
D03*
Y2165D02*
D03*
X6746Y7299D02*
D03*
X6746Y6299D02*
D03*
D22*
X13045Y8252D02*
D03*
X6746Y1165D02*
D03*
X6746Y5299D02*
D03*
D23*
X807Y5799D02*
D03*
X787Y8201D02*
D03*
D24*
X807Y6799D02*
D03*
X787Y9201D02*
D03*
D25*
X14803Y7382D02*
D03*
D26*
Y8760D02*
D03*
D27*
X16929Y1181D02*
D03*
X1181Y11024D02*
D03*
X16929D02*
D03*
X1181Y1181D02*
D03*
D28*
X4118Y10486D02*
D03*
X5118D02*
D03*
D29*
X6118Y10486D02*
D03*
D30*
X13992Y5831D02*
D03*
X13992Y3831D02*
D03*
X13992Y4831D02*
D03*
X11992Y5831D02*
D03*
X11992Y3831D02*
D03*
Y4831D02*
D03*
X11992Y2831D02*
D03*
X12992D02*
D03*
X12992Y4831D02*
D03*
Y3831D02*
D03*
Y5831D02*
D03*
D31*
X13992Y2831D02*
D03*
D55*
X8661Y10925D02*
D03*
X8661Y10335D02*
D03*
X2165Y8406D02*
D03*
X2165Y8996D02*
D03*
X2185Y6004D02*
D03*
X2185Y6594D02*
D03*
D56*
X7677Y10292D02*
D03*
Y10967D02*
D03*
D57*
X1575Y8898D02*
D03*
Y8504D02*
D03*
X1594Y6496D02*
D03*
Y6102D02*
D03*
M02*
