G04*
G04 #@! TF.GenerationSoftware,Altium Limited,Altium Designer,21.1.1 (26)*
G04*
G04 Layer_Physical_Order=1*
G04 Layer_Color=255*
%FSLAX24Y24*%
%MOIN*%
G70*
G04*
G04 #@! TF.SameCoordinates,F00D2E86-8B98-404A-8CF5-AA7CE4D76747*
G04*
G04*
G04 #@! TF.FilePolarity,Positive*
G04*
G01*
G75*
%ADD11C,0.0197*%
%ADD32C,0.0787*%
%ADD33C,0.0591*%
%ADD34C,0.0600*%
%ADD35C,0.0472*%
%ADD36C,0.0512*%
G04:AMPARAMS|DCode=37|XSize=51.2mil|YSize=51.2mil|CornerRadius=7.7mil|HoleSize=0mil|Usage=FLASHONLY|Rotation=270.000|XOffset=0mil|YOffset=0mil|HoleType=Round|Shape=RoundedRectangle|*
%AMROUNDEDRECTD37*
21,1,0.0512,0.0358,0,0,270.0*
21,1,0.0358,0.0512,0,0,270.0*
1,1,0.0154,-0.0179,-0.0179*
1,1,0.0154,-0.0179,0.0179*
1,1,0.0154,0.0179,0.0179*
1,1,0.0154,0.0179,-0.0179*
%
%ADD37ROUNDEDRECTD37*%
%ADD38O,0.1200X0.0600*%
G04:AMPARAMS|DCode=39|XSize=60mil|YSize=120mil|CornerRadius=21mil|HoleSize=0mil|Usage=FLASHONLY|Rotation=90.000|XOffset=0mil|YOffset=0mil|HoleType=Round|Shape=RoundedRectangle|*
%AMROUNDEDRECTD39*
21,1,0.0600,0.0780,0,0,90.0*
21,1,0.0180,0.1200,0,0,90.0*
1,1,0.0420,0.0390,0.0090*
1,1,0.0420,0.0390,-0.0090*
1,1,0.0420,-0.0390,-0.0090*
1,1,0.0420,-0.0390,0.0090*
%
%ADD39ROUNDEDRECTD39*%
G04:AMPARAMS|DCode=40|XSize=59.1mil|YSize=70.9mil|CornerRadius=14.8mil|HoleSize=0mil|Usage=FLASHONLY|Rotation=270.000|XOffset=0mil|YOffset=0mil|HoleType=Round|Shape=RoundedRectangle|*
%AMROUNDEDRECTD40*
21,1,0.0591,0.0413,0,0,270.0*
21,1,0.0295,0.0709,0,0,270.0*
1,1,0.0295,-0.0207,-0.0148*
1,1,0.0295,-0.0207,0.0148*
1,1,0.0295,0.0207,0.0148*
1,1,0.0295,0.0207,-0.0148*
%
%ADD40ROUNDEDRECTD40*%
%ADD41O,0.0709X0.0591*%
G04:AMPARAMS|DCode=42|XSize=82.7mil|YSize=82.7mil|CornerRadius=12.4mil|HoleSize=0mil|Usage=FLASHONLY|Rotation=90.000|XOffset=0mil|YOffset=0mil|HoleType=Round|Shape=RoundedRectangle|*
%AMROUNDEDRECTD42*
21,1,0.0827,0.0579,0,0,90.0*
21,1,0.0579,0.0827,0,0,90.0*
1,1,0.0248,0.0289,0.0289*
1,1,0.0248,0.0289,-0.0289*
1,1,0.0248,-0.0289,-0.0289*
1,1,0.0248,-0.0289,0.0289*
%
%ADD42ROUNDEDRECTD42*%
%ADD43C,0.0827*%
%ADD44C,0.2362*%
%ADD45O,0.0600X0.1200*%
G04:AMPARAMS|DCode=46|XSize=60mil|YSize=120mil|CornerRadius=21mil|HoleSize=0mil|Usage=FLASHONLY|Rotation=180.000|XOffset=0mil|YOffset=0mil|HoleType=Round|Shape=RoundedRectangle|*
%AMROUNDEDRECTD46*
21,1,0.0600,0.0780,0,0,180.0*
21,1,0.0180,0.1200,0,0,180.0*
1,1,0.0420,-0.0090,0.0390*
1,1,0.0420,0.0090,0.0390*
1,1,0.0420,0.0090,-0.0390*
1,1,0.0420,-0.0090,-0.0390*
%
%ADD46ROUNDEDRECTD46*%
%ADD47C,0.0591*%
G04:AMPARAMS|DCode=48|XSize=59.1mil|YSize=59.1mil|CornerRadius=14.8mil|HoleSize=0mil|Usage=FLASHONLY|Rotation=90.000|XOffset=0mil|YOffset=0mil|HoleType=Round|Shape=RoundedRectangle|*
%AMROUNDEDRECTD48*
21,1,0.0591,0.0295,0,0,90.0*
21,1,0.0295,0.0591,0,0,90.0*
1,1,0.0295,0.0148,0.0148*
1,1,0.0295,0.0148,-0.0148*
1,1,0.0295,-0.0148,-0.0148*
1,1,0.0295,-0.0148,0.0148*
%
%ADD48ROUNDEDRECTD48*%
%ADD49C,0.0276*%
G36*
X16088Y11994D02*
X15952Y11858D01*
X15833Y11695D01*
X15742Y11515D01*
X15680Y11324D01*
X15648Y11124D01*
Y11073D01*
X16929D01*
Y11024D01*
X16978D01*
Y9743D01*
X17030D01*
X17229Y9774D01*
X17421Y9836D01*
X17601Y9928D01*
X17764Y10046D01*
X17900Y10182D01*
X17950Y10173D01*
Y2032D01*
X17900Y2022D01*
X17764Y2158D01*
X17601Y2277D01*
X17421Y2368D01*
X17229Y2431D01*
X17030Y2462D01*
X16978D01*
Y1181D01*
X16929D01*
Y1132D01*
X15648D01*
Y1080D01*
X15680Y881D01*
X15742Y689D01*
X15833Y510D01*
X15952Y347D01*
X16088Y211D01*
X16079Y161D01*
X2032D01*
X2022Y211D01*
X2158Y347D01*
X2277Y510D01*
X2368Y689D01*
X2431Y881D01*
X2462Y1080D01*
Y1132D01*
X1181D01*
Y1181D01*
X1132D01*
Y2462D01*
X1080D01*
X881Y2431D01*
X689Y2368D01*
X510Y2277D01*
X347Y2158D01*
X211Y2022D01*
X161Y2032D01*
Y10173D01*
X211Y10182D01*
X347Y10046D01*
X510Y9928D01*
X689Y9836D01*
X881Y9774D01*
X1080Y9743D01*
X1132D01*
Y11024D01*
X1181D01*
Y11073D01*
X2462D01*
Y11124D01*
X2431Y11324D01*
X2368Y11515D01*
X2277Y11695D01*
X2158Y11858D01*
X2022Y11994D01*
X2032Y12044D01*
X16079Y12044D01*
X16088Y11994D01*
D02*
G37*
%LPC*%
G36*
X4167Y11183D02*
Y10535D01*
X4522D01*
Y10786D01*
X4508Y10891D01*
X4468Y10988D01*
X4403Y11071D01*
X4320Y11136D01*
X4223Y11176D01*
X4167Y11183D01*
D02*
G37*
G36*
X4069D02*
X4014Y11176D01*
X3916Y11136D01*
X3833Y11071D01*
X3769Y10988D01*
X3728Y10891D01*
X3715Y10786D01*
Y10535D01*
X4069D01*
Y11183D01*
D02*
G37*
G36*
X9596Y10690D02*
Y10384D01*
X9903D01*
X9879Y10472D01*
X9832Y10553D01*
X9766Y10619D01*
X9685Y10666D01*
X9596Y10690D01*
D02*
G37*
G36*
X9498Y10690D02*
X9410Y10666D01*
X9329Y10619D01*
X9262Y10553D01*
X9216Y10472D01*
X9192Y10384D01*
X9498D01*
Y10690D01*
D02*
G37*
G36*
X13345Y10655D02*
X13094D01*
Y10301D01*
X13742D01*
X13735Y10356D01*
X13695Y10454D01*
X13631Y10537D01*
X13547Y10601D01*
X13450Y10642D01*
X13345Y10655D01*
D02*
G37*
G36*
X12996D02*
X12745D01*
X12641Y10642D01*
X12544Y10601D01*
X12460Y10537D01*
X12396Y10454D01*
X12356Y10356D01*
X12348Y10301D01*
X12996D01*
Y10655D01*
D02*
G37*
G36*
X9903Y10285D02*
X9596D01*
Y9979D01*
X9685Y10003D01*
X9766Y10050D01*
X9832Y10116D01*
X9879Y10197D01*
X9903Y10285D01*
D02*
G37*
G36*
X9498D02*
X9192D01*
X9216Y10197D01*
X9262Y10116D01*
X9329Y10050D01*
X9410Y10003D01*
X9498Y9979D01*
Y10285D01*
D02*
G37*
G36*
X13742Y10203D02*
X13094D01*
Y9849D01*
X13345D01*
X13450Y9862D01*
X13547Y9903D01*
X13631Y9967D01*
X13695Y10050D01*
X13735Y10148D01*
X13742Y10203D01*
D02*
G37*
G36*
X12996D02*
X12348D01*
X12356Y10148D01*
X12396Y10050D01*
X12460Y9967D01*
X12544Y9903D01*
X12641Y9862D01*
X12745Y9849D01*
X12996D01*
Y10203D01*
D02*
G37*
G36*
X5118Y11168D02*
X5019Y11155D01*
X4927Y11117D01*
X4848Y11056D01*
X4787Y10977D01*
X4749Y10885D01*
X4736Y10786D01*
Y10186D01*
X4749Y10087D01*
X4787Y9995D01*
X4848Y9916D01*
X4927Y9855D01*
X5019Y9817D01*
X5118Y9804D01*
X5217Y9817D01*
X5309Y9855D01*
X5388Y9916D01*
X5449Y9995D01*
X5487Y10087D01*
X5500Y10186D01*
Y10786D01*
X5487Y10885D01*
X5449Y10977D01*
X5388Y11056D01*
X5309Y11117D01*
X5217Y11155D01*
X5118Y11168D01*
D02*
G37*
G36*
X4522Y10437D02*
X4167D01*
Y9789D01*
X4223Y9797D01*
X4320Y9837D01*
X4403Y9901D01*
X4468Y9984D01*
X4508Y10082D01*
X4522Y10186D01*
Y10437D01*
D02*
G37*
G36*
X4069D02*
X3715D01*
Y10186D01*
X3728Y10082D01*
X3769Y9984D01*
X3833Y9901D01*
X3916Y9837D01*
X4014Y9797D01*
X4069Y9789D01*
Y10437D01*
D02*
G37*
G36*
X16880Y10974D02*
X15648D01*
Y10923D01*
X15680Y10724D01*
X15742Y10532D01*
X15833Y10352D01*
X15952Y10189D01*
X16095Y10046D01*
X16258Y9928D01*
X16437Y9836D01*
X16629Y9774D01*
X16828Y9743D01*
X16880D01*
Y10974D01*
D02*
G37*
G36*
X2462D02*
X1230D01*
Y9743D01*
X1282D01*
X1481Y9774D01*
X1673Y9836D01*
X1853Y9928D01*
X2016Y10046D01*
X2158Y10189D01*
X2277Y10352D01*
X2368Y10532D01*
X2431Y10724D01*
X2462Y10923D01*
Y10974D01*
D02*
G37*
G36*
X13345Y9634D02*
X12745D01*
X12646Y9621D01*
X12554Y9583D01*
X12475Y9522D01*
X12414Y9443D01*
X12376Y9351D01*
X12363Y9252D01*
X12376Y9153D01*
X12414Y9061D01*
X12475Y8982D01*
X12554Y8921D01*
X12646Y8883D01*
X12745Y8870D01*
X13345D01*
X13444Y8883D01*
X13536Y8921D01*
X13615Y8982D01*
X13676Y9061D01*
X13714Y9153D01*
X13727Y9252D01*
X13714Y9351D01*
X13676Y9443D01*
X13615Y9522D01*
X13536Y9583D01*
X13444Y9621D01*
X13345Y9634D01*
D02*
G37*
G36*
X14871Y9273D02*
X14852D01*
Y8809D01*
X15317D01*
Y8827D01*
X15282Y8958D01*
X15214Y9075D01*
X15118Y9171D01*
X15001Y9238D01*
X14871Y9273D01*
D02*
G37*
G36*
X14754D02*
X14736D01*
X14605Y9238D01*
X14488Y9171D01*
X14392Y9075D01*
X14325Y8958D01*
X14290Y8827D01*
Y8809D01*
X14754D01*
Y9273D01*
D02*
G37*
G36*
X9726Y9294D02*
X9368D01*
X9307Y9282D01*
X9256Y9248D01*
X9222Y9197D01*
X9210Y9136D01*
Y8778D01*
X9222Y8717D01*
X9256Y8665D01*
X9307Y8631D01*
X9368Y8619D01*
X9726D01*
X9787Y8631D01*
X9839Y8665D01*
X9873Y8717D01*
X9885Y8778D01*
Y9136D01*
X9873Y9197D01*
X9839Y9248D01*
X9787Y9282D01*
X9726Y9294D01*
D02*
G37*
G36*
X994Y8601D02*
X837D01*
Y8250D01*
X1247D01*
Y8348D01*
X1227Y8445D01*
X1173Y8527D01*
X1091Y8582D01*
X994Y8601D01*
D02*
G37*
G36*
X738D02*
X581D01*
X484Y8582D01*
X402Y8527D01*
X347Y8445D01*
X328Y8348D01*
Y8250D01*
X738D01*
Y8601D01*
D02*
G37*
G36*
X15317Y8711D02*
X14852D01*
Y8246D01*
X14871D01*
X15001Y8281D01*
X15118Y8349D01*
X15214Y8445D01*
X15282Y8562D01*
X15317Y8692D01*
Y8711D01*
D02*
G37*
G36*
X14754D02*
X14290D01*
Y8692D01*
X14325Y8562D01*
X14392Y8445D01*
X14488Y8349D01*
X14605Y8281D01*
X14736Y8246D01*
X14754D01*
Y8711D01*
D02*
G37*
G36*
X5949Y8484D02*
X5862D01*
X5783Y8451D01*
X5780Y8448D01*
X3445D01*
X3376Y8435D01*
X3317Y8395D01*
X2983Y8061D01*
X2933Y8082D01*
Y8105D01*
X2916Y8170D01*
X2882Y8228D01*
X2834Y8276D01*
X2776Y8309D01*
X2711Y8327D01*
X2643D01*
X2578Y8309D01*
X2520Y8276D01*
X2472Y8228D01*
X2439Y8170D01*
X2421Y8105D01*
Y8037D01*
X2439Y7972D01*
X2472Y7914D01*
X2520Y7866D01*
X2578Y7832D01*
X2643Y7815D01*
X2666D01*
X2687Y7765D01*
X1902Y6980D01*
X1196D01*
X1193Y6988D01*
X1133Y7066D01*
X1055Y7126D01*
X964Y7164D01*
X866Y7176D01*
X748D01*
X650Y7164D01*
X559Y7126D01*
X481Y7066D01*
X421Y6988D01*
X384Y6897D01*
X371Y6799D01*
X384Y6702D01*
X421Y6611D01*
X481Y6532D01*
X559Y6473D01*
X650Y6435D01*
X748Y6422D01*
X866D01*
X964Y6435D01*
X1055Y6473D01*
X1133Y6532D01*
X1193Y6611D01*
X1196Y6619D01*
X1976D01*
X2045Y6632D01*
X2104Y6671D01*
X2989Y7556D01*
X3034Y7531D01*
X3031Y7522D01*
Y7439D01*
X3053Y7359D01*
X3094Y7287D01*
X3153Y7228D01*
X3225Y7187D01*
X3305Y7165D01*
X3388D01*
X3468Y7187D01*
X3540Y7228D01*
X3598Y7287D01*
X3640Y7359D01*
X3661Y7439D01*
Y7522D01*
X3640Y7602D01*
X3598Y7674D01*
X3540Y7732D01*
X3468Y7774D01*
X3388Y7795D01*
X3305D01*
X3296Y7793D01*
X3270Y7838D01*
X3520Y8087D01*
X5780D01*
X5783Y8084D01*
X5862Y8051D01*
X5949D01*
X6028Y8084D01*
X6089Y8145D01*
X6122Y8225D01*
Y8311D01*
X6089Y8390D01*
X6028Y8451D01*
X5949Y8484D01*
D02*
G37*
G36*
X13435Y8633D02*
X12655D01*
X12580Y8623D01*
X12510Y8594D01*
X12449Y8548D01*
X12403Y8488D01*
X12374Y8417D01*
X12364Y8342D01*
Y8162D01*
X12374Y8087D01*
X12403Y8016D01*
X12449Y7956D01*
X12510Y7910D01*
X12580Y7881D01*
X12655Y7871D01*
X13435D01*
X13511Y7881D01*
X13581Y7910D01*
X13641Y7956D01*
X13687Y8016D01*
X13717Y8087D01*
X13727Y8162D01*
Y8342D01*
X13717Y8417D01*
X13687Y8488D01*
X13641Y8548D01*
X13581Y8594D01*
X13511Y8623D01*
X13435Y8633D01*
D02*
G37*
G36*
X1247Y8152D02*
X837D01*
Y7801D01*
X994D01*
X1091Y7820D01*
X1173Y7875D01*
X1227Y7957D01*
X1247Y8053D01*
Y8152D01*
D02*
G37*
G36*
X738D02*
X328D01*
Y8053D01*
X347Y7957D01*
X402Y7875D01*
X484Y7820D01*
X581Y7801D01*
X738D01*
Y8152D01*
D02*
G37*
G36*
X846Y9578D02*
X728D01*
X631Y9565D01*
X540Y9527D01*
X462Y9468D01*
X402Y9389D01*
X364Y9298D01*
X351Y9201D01*
X364Y9103D01*
X402Y9012D01*
X462Y8934D01*
X540Y8874D01*
X631Y8836D01*
X728Y8824D01*
X846D01*
X944Y8836D01*
X1035Y8874D01*
X1113Y8934D01*
X1173Y9012D01*
X1176Y9020D01*
X5685D01*
X6870Y7835D01*
Y7831D01*
X6903Y7751D01*
X6906Y7749D01*
X6886Y7703D01*
X6795D01*
Y7348D01*
X7443D01*
X7436Y7404D01*
X7395Y7501D01*
X7331Y7584D01*
X7248Y7649D01*
X7238Y7653D01*
X7229Y7710D01*
X7270Y7751D01*
X7303Y7831D01*
Y7917D01*
X7270Y7997D01*
X7209Y8058D01*
X7130Y8091D01*
X7126D01*
X5888Y9329D01*
X5829Y9368D01*
X5760Y9381D01*
X1176D01*
X1173Y9389D01*
X1113Y9468D01*
X1035Y9527D01*
X944Y9565D01*
X846Y9578D01*
D02*
G37*
G36*
X6697Y7703D02*
X6446D01*
X6342Y7689D01*
X6244Y7649D01*
X6161Y7584D01*
X6097Y7501D01*
X6056Y7404D01*
X6049Y7348D01*
X6697D01*
Y7703D01*
D02*
G37*
G36*
X7443Y7250D02*
X6795D01*
Y6896D01*
X7046D01*
X7150Y6910D01*
X7248Y6950D01*
X7331Y7014D01*
X7395Y7097D01*
X7436Y7195D01*
X7443Y7250D01*
D02*
G37*
G36*
X6697D02*
X6049D01*
X6056Y7195D01*
X6097Y7097D01*
X6161Y7014D01*
X6244Y6950D01*
X6342Y6910D01*
X6446Y6896D01*
X6697D01*
Y7250D01*
D02*
G37*
G36*
X15092Y7878D02*
X14514D01*
X14435Y7862D01*
X14368Y7817D01*
X14323Y7750D01*
X14307Y7671D01*
Y7093D01*
X14323Y7013D01*
X14368Y6946D01*
X14435Y6902D01*
X14514Y6886D01*
X15092D01*
X15172Y6902D01*
X15239Y6946D01*
X15283Y7013D01*
X15299Y7093D01*
Y7671D01*
X15283Y7750D01*
X15239Y7817D01*
X15172Y7862D01*
X15092Y7878D01*
D02*
G37*
G36*
X7046Y6681D02*
X6446D01*
X6347Y6668D01*
X6255Y6630D01*
X6176Y6569D01*
X6115Y6490D01*
X6077Y6398D01*
X6064Y6299D01*
X6077Y6200D01*
X6115Y6108D01*
X6176Y6029D01*
X6255Y5968D01*
X6347Y5930D01*
X6446Y5917D01*
X7046D01*
X7145Y5930D01*
X7237Y5968D01*
X7316Y6029D01*
X7377Y6108D01*
X7415Y6200D01*
X7428Y6299D01*
X7415Y6398D01*
X7377Y6490D01*
X7316Y6569D01*
X7237Y6630D01*
X7145Y6668D01*
X7046Y6681D01*
D02*
G37*
G36*
X14044Y6226D02*
X14041D01*
Y5880D01*
X14387D01*
Y5883D01*
X14360Y5983D01*
X14308Y6073D01*
X14235Y6147D01*
X14145Y6199D01*
X14044Y6226D01*
D02*
G37*
G36*
X13943D02*
X13940D01*
X13840Y6199D01*
X13749Y6147D01*
X13676Y6073D01*
X13624Y5983D01*
X13597Y5883D01*
Y5880D01*
X13943D01*
Y6226D01*
D02*
G37*
G36*
X1014Y6199D02*
X856D01*
Y5848D01*
X1266D01*
Y5947D01*
X1247Y6043D01*
X1192Y6125D01*
X1110Y6180D01*
X1014Y6199D01*
D02*
G37*
G36*
X758D02*
X600D01*
X504Y6180D01*
X422Y6125D01*
X367Y6043D01*
X348Y5947D01*
Y5848D01*
X758D01*
Y6199D01*
D02*
G37*
G36*
X6208Y11167D02*
X6028D01*
X5953Y11158D01*
X5882Y11128D01*
X5822Y11082D01*
X5776Y11022D01*
X5747Y10952D01*
X5737Y10876D01*
Y10096D01*
X5747Y10021D01*
X5776Y9951D01*
X5822Y9890D01*
X5882Y9844D01*
X5937Y9821D01*
Y9630D01*
X5951Y9561D01*
X5990Y9502D01*
X7595Y7898D01*
Y5685D01*
X7440Y5530D01*
X7402Y5534D01*
X7387Y5536D01*
X7342Y5595D01*
X7282Y5641D01*
X7211Y5671D01*
X7136Y5680D01*
X6356D01*
X6281Y5671D01*
X6210Y5641D01*
X6150Y5595D01*
X6104Y5535D01*
X6075Y5465D01*
X6065Y5389D01*
Y5209D01*
X6075Y5134D01*
X6104Y5064D01*
X6110Y5056D01*
X6087Y5011D01*
X5283D01*
X3658Y6637D01*
X3661Y6651D01*
Y6734D01*
X3640Y6814D01*
X3598Y6886D01*
X3540Y6945D01*
X3468Y6986D01*
X3388Y7008D01*
X3305D01*
X3225Y6986D01*
X3153Y6945D01*
X3094Y6886D01*
X3053Y6814D01*
X3031Y6734D01*
Y6651D01*
X3053Y6571D01*
X3094Y6500D01*
X3153Y6441D01*
X3225Y6399D01*
X3305Y6378D01*
X3388D01*
X3402Y6382D01*
X5030Y4754D01*
X5010Y4708D01*
X4799D01*
X3658Y5850D01*
X3661Y5864D01*
Y5947D01*
X3640Y6027D01*
X3598Y6099D01*
X3540Y6158D01*
X3468Y6199D01*
X3388Y6220D01*
X3305D01*
X3225Y6199D01*
X3153Y6158D01*
X3094Y6099D01*
X3053Y6027D01*
X3031Y5947D01*
Y5864D01*
X3053Y5784D01*
X3094Y5712D01*
X3153Y5653D01*
X3225Y5612D01*
X3305Y5591D01*
X3388D01*
X3402Y5594D01*
X3550Y5447D01*
X3519Y5407D01*
X3476Y5431D01*
X3396Y5453D01*
Y5167D01*
X3681D01*
X3660Y5248D01*
X3635Y5291D01*
X3675Y5322D01*
X4537Y4460D01*
X4518Y4414D01*
X4331D01*
X4207Y4397D01*
X4092Y4350D01*
X3994Y4274D01*
X3918Y4175D01*
X3870Y4060D01*
X3854Y3937D01*
X3870Y3814D01*
X3918Y3699D01*
X3994Y3600D01*
X4092Y3524D01*
X4207Y3477D01*
X4331Y3460D01*
X6105D01*
X6130Y3410D01*
X6097Y3367D01*
X6056Y3270D01*
X6049Y3215D01*
X6746D01*
X7443D01*
X7436Y3270D01*
X7395Y3367D01*
X7362Y3410D01*
X7387Y3460D01*
X9547D01*
X9671Y3477D01*
X9786Y3524D01*
X9884Y3600D01*
X9960Y3699D01*
X10008Y3814D01*
X10024Y3937D01*
X10008Y4060D01*
X9960Y4175D01*
X9884Y4274D01*
X9863Y4290D01*
X9858Y4297D01*
X9885Y4347D01*
X11220D01*
X11633Y3935D01*
X11618Y3880D01*
Y3781D01*
X11644Y3686D01*
X11693Y3601D01*
X11717Y3577D01*
X11696Y3527D01*
X10433D01*
X10364Y3513D01*
X10305Y3474D01*
X8685Y1854D01*
X7337D01*
X7323Y1904D01*
X7377Y1974D01*
X7415Y2066D01*
X7428Y2165D01*
X7415Y2264D01*
X7377Y2356D01*
X7316Y2435D01*
X7237Y2496D01*
X7145Y2534D01*
X7046Y2547D01*
X6446D01*
X6347Y2534D01*
X6255Y2496D01*
X6176Y2435D01*
X6115Y2356D01*
X6077Y2264D01*
X6064Y2165D01*
X6077Y2066D01*
X6115Y1974D01*
X6169Y1904D01*
X6155Y1854D01*
X5095D01*
X4262Y2687D01*
X4203Y2726D01*
X4134Y2740D01*
X3606D01*
X3598Y2752D01*
X3540Y2811D01*
X3468Y2853D01*
X3388Y2874D01*
X3305D01*
X3225Y2853D01*
X3153Y2811D01*
X3094Y2752D01*
X3053Y2681D01*
X3031Y2601D01*
Y2518D01*
X3053Y2437D01*
X3094Y2366D01*
X3153Y2307D01*
X3225Y2266D01*
X3305Y2244D01*
X3388D01*
X3468Y2266D01*
X3540Y2307D01*
X3598Y2366D01*
X3606Y2378D01*
X4059D01*
X4892Y1546D01*
X4951Y1506D01*
X5020Y1493D01*
X6112D01*
X6136Y1443D01*
X6104Y1401D01*
X6075Y1331D01*
X6065Y1255D01*
Y1075D01*
X6075Y1000D01*
X6104Y930D01*
X6150Y869D01*
X6210Y823D01*
X6281Y794D01*
X6356Y784D01*
X7136D01*
X7211Y794D01*
X7282Y823D01*
X7342Y869D01*
X7388Y930D01*
X7417Y1000D01*
X7427Y1075D01*
Y1255D01*
X7417Y1331D01*
X7388Y1401D01*
X7356Y1443D01*
X7380Y1493D01*
X8760D01*
X8829Y1506D01*
X8845Y1517D01*
X8889Y1486D01*
X8873Y1428D01*
Y1328D01*
X8899Y1232D01*
X8949Y1145D01*
X9019Y1075D01*
X9106Y1025D01*
X9202Y999D01*
X9302D01*
X9398Y1025D01*
X9485Y1075D01*
X9555Y1145D01*
X9605Y1232D01*
X9609Y1246D01*
X9661D01*
X9667Y1224D01*
X9719Y1132D01*
X9794Y1058D01*
X9885Y1005D01*
X9987Y978D01*
X9990D01*
Y1378D01*
Y1778D01*
X9987D01*
X9975Y1775D01*
X9949Y1820D01*
X10780Y2650D01*
X11665D01*
X11693Y2601D01*
X11762Y2531D01*
X11848Y2482D01*
X11943Y2457D01*
X12041D01*
X12136Y2482D01*
X12222Y2531D01*
X12291Y2601D01*
X12341Y2686D01*
X12366Y2781D01*
Y2880D01*
X12341Y2975D01*
X12291Y3060D01*
X12236Y3116D01*
X12256Y3166D01*
X12303D01*
X12372Y3180D01*
X12431Y3219D01*
X12620Y3408D01*
X12659Y3466D01*
X12673Y3535D01*
Y3550D01*
X12723Y3571D01*
X12762Y3531D01*
X12848Y3482D01*
X12943Y3457D01*
X13041D01*
X13096Y3471D01*
X13304Y3264D01*
Y3144D01*
X13257Y3124D01*
X13235Y3147D01*
X13145Y3199D01*
X13044Y3226D01*
X13041D01*
Y2831D01*
Y2435D01*
X13044D01*
X13145Y2462D01*
X13180Y2483D01*
X13211Y2443D01*
X11441Y673D01*
X5291D01*
X4065Y1899D01*
X4006Y1939D01*
X3937Y1952D01*
X3606D01*
X3598Y1965D01*
X3540Y2024D01*
X3468Y2065D01*
X3388Y2087D01*
X3305D01*
X3225Y2065D01*
X3153Y2024D01*
X3094Y1965D01*
X3053Y1893D01*
X3031Y1813D01*
Y1730D01*
X3053Y1650D01*
X3094Y1578D01*
X3153Y1520D01*
X3225Y1478D01*
X3305Y1457D01*
X3388D01*
X3468Y1478D01*
X3540Y1520D01*
X3598Y1578D01*
X3606Y1591D01*
X3862D01*
X5089Y364D01*
X5147Y325D01*
X5217Y311D01*
X11516D01*
X11585Y325D01*
X11643Y364D01*
X12777Y1498D01*
X12822Y1472D01*
X12810Y1428D01*
Y1328D01*
X12836Y1232D01*
X12886Y1145D01*
X12956Y1075D01*
X13043Y1025D01*
X13139Y999D01*
X13239D01*
X13335Y1025D01*
X13422Y1075D01*
X13492Y1145D01*
X13542Y1232D01*
X13546Y1246D01*
X13598D01*
X13604Y1224D01*
X13656Y1132D01*
X13731Y1058D01*
X13822Y1005D01*
X13924Y978D01*
X13927D01*
Y1378D01*
X14026D01*
Y978D01*
X14029D01*
X14131Y1005D01*
X14222Y1058D01*
X14296Y1132D01*
X14349Y1224D01*
X14355Y1246D01*
X14407D01*
X14411Y1232D01*
X14461Y1145D01*
X14531Y1075D01*
X14618Y1025D01*
X14714Y999D01*
X14814D01*
X14910Y1025D01*
X14996Y1075D01*
X15067Y1145D01*
X15117Y1232D01*
X15143Y1328D01*
Y1428D01*
X15117Y1524D01*
X15067Y1611D01*
X14996Y1681D01*
X14910Y1731D01*
X14814Y1757D01*
X14714D01*
X14618Y1731D01*
X14531Y1681D01*
X14461Y1611D01*
X14411Y1524D01*
X14407Y1510D01*
X14355D01*
X14349Y1532D01*
X14296Y1624D01*
X14222Y1698D01*
X14131Y1751D01*
X14080Y1764D01*
X14071Y1819D01*
X14104Y1841D01*
X14695Y2431D01*
X14734Y2490D01*
X14748Y2559D01*
Y3256D01*
X14734Y3325D01*
X14695Y3384D01*
X14351Y3727D01*
X14366Y3781D01*
Y3880D01*
X14341Y3975D01*
X14291Y4060D01*
X14222Y4130D01*
X14136Y4179D01*
X14041Y4205D01*
X13943D01*
X13848Y4179D01*
X13762Y4130D01*
X13693Y4060D01*
X13644Y3975D01*
X13618Y3880D01*
Y3781D01*
X13644Y3686D01*
X13693Y3601D01*
X13762Y3531D01*
X13848Y3482D01*
X13943Y3457D01*
X14041D01*
X14096Y3471D01*
X14386Y3181D01*
Y3107D01*
X14336Y3092D01*
X14303Y3142D01*
X14228Y3192D01*
X14140Y3209D01*
X13844D01*
X13756Y3192D01*
X13715Y3164D01*
X13665Y3191D01*
Y3339D01*
X13651Y3408D01*
X13612Y3466D01*
X13351Y3727D01*
X13366Y3781D01*
Y3880D01*
X13341Y3975D01*
X13291Y4060D01*
X13222Y4130D01*
X13136Y4179D01*
X13041Y4205D01*
X12943D01*
X12848Y4179D01*
X12762Y4130D01*
X12723Y4090D01*
X12673Y4111D01*
Y4256D01*
X12888Y4471D01*
X12943Y4457D01*
X13041D01*
X13136Y4482D01*
X13222Y4531D01*
X13291Y4601D01*
X13341Y4686D01*
X13366Y4781D01*
Y4880D01*
X13341Y4975D01*
X13291Y5060D01*
X13222Y5130D01*
X13136Y5179D01*
X13041Y5205D01*
X12943D01*
X12848Y5179D01*
X12762Y5130D01*
X12693Y5060D01*
X12644Y4975D01*
X12618Y4880D01*
Y4781D01*
X12633Y4727D01*
X12364Y4458D01*
X12325Y4400D01*
X12311Y4331D01*
Y4111D01*
X12261Y4090D01*
X12222Y4130D01*
X12136Y4179D01*
X12041Y4205D01*
X11943D01*
X11888Y4190D01*
X11474Y4604D01*
X11494Y4650D01*
X11665D01*
X11693Y4601D01*
X11762Y4531D01*
X11848Y4482D01*
X11943Y4457D01*
X12041D01*
X12136Y4482D01*
X12222Y4531D01*
X12291Y4601D01*
X12341Y4686D01*
X12366Y4781D01*
Y4880D01*
X12341Y4975D01*
X12291Y5060D01*
X12222Y5130D01*
X12136Y5179D01*
X12041Y5205D01*
X11943D01*
X11848Y5179D01*
X11762Y5130D01*
X11693Y5060D01*
X11665Y5011D01*
X9615D01*
X9609Y5061D01*
X9685Y5082D01*
X9766Y5129D01*
X9832Y5195D01*
X9879Y5276D01*
X9903Y5364D01*
X9547D01*
X9192D01*
X9216Y5276D01*
X9262Y5195D01*
X9329Y5129D01*
X9410Y5082D01*
X9486Y5061D01*
X9479Y5011D01*
X7405D01*
X7383Y5056D01*
X7388Y5064D01*
X7417Y5134D01*
X7421Y5160D01*
X7506D01*
X7575Y5174D01*
X7633Y5213D01*
X7903Y5483D01*
X7942Y5541D01*
X7956Y5610D01*
Y7972D01*
X7942Y8042D01*
X7903Y8100D01*
X6299Y9705D01*
Y9821D01*
X6354Y9844D01*
X6414Y9890D01*
X6460Y9951D01*
X6489Y10021D01*
X6499Y10096D01*
Y10876D01*
X6489Y10952D01*
X6460Y11022D01*
X6414Y11082D01*
X6354Y11128D01*
X6283Y11158D01*
X6208Y11167D01*
D02*
G37*
G36*
X9596Y5769D02*
Y5463D01*
X9903D01*
X9879Y5551D01*
X9832Y5632D01*
X9766Y5698D01*
X9685Y5745D01*
X9596Y5769D01*
D02*
G37*
G36*
X9498D02*
X9410Y5745D01*
X9329Y5698D01*
X9262Y5632D01*
X9216Y5551D01*
X9192Y5463D01*
X9498D01*
Y5769D01*
D02*
G37*
G36*
X13041Y6205D02*
X12943D01*
X12848Y6179D01*
X12762Y6130D01*
X12693Y6060D01*
X12644Y5975D01*
X12618Y5880D01*
Y5781D01*
X12644Y5686D01*
X12693Y5601D01*
X12762Y5531D01*
X12848Y5482D01*
X12943Y5457D01*
X13041D01*
X13136Y5482D01*
X13222Y5531D01*
X13291Y5601D01*
X13341Y5686D01*
X13366Y5781D01*
Y5880D01*
X13341Y5975D01*
X13291Y6060D01*
X13222Y6130D01*
X13136Y6179D01*
X13041Y6205D01*
D02*
G37*
G36*
X12041D02*
X11943D01*
X11848Y6179D01*
X11762Y6130D01*
X11693Y6060D01*
X11644Y5975D01*
X11618Y5880D01*
Y5781D01*
X11644Y5686D01*
X11693Y5601D01*
X11762Y5531D01*
X11848Y5482D01*
X11943Y5457D01*
X12041D01*
X12136Y5482D01*
X12222Y5531D01*
X12291Y5601D01*
X12341Y5686D01*
X12366Y5781D01*
Y5880D01*
X12341Y5975D01*
X12291Y6060D01*
X12222Y6130D01*
X12136Y6179D01*
X12041Y6205D01*
D02*
G37*
G36*
X14387Y5781D02*
X14041D01*
Y5435D01*
X14044D01*
X14145Y5462D01*
X14235Y5514D01*
X14308Y5588D01*
X14360Y5678D01*
X14387Y5779D01*
Y5781D01*
D02*
G37*
G36*
X13943D02*
X13597D01*
Y5779D01*
X13624Y5678D01*
X13676Y5588D01*
X13749Y5514D01*
X13840Y5462D01*
X13940Y5435D01*
X13943D01*
Y5781D01*
D02*
G37*
G36*
X1266Y5750D02*
X856D01*
Y5399D01*
X1014D01*
X1110Y5418D01*
X1192Y5473D01*
X1247Y5555D01*
X1266Y5652D01*
Y5750D01*
D02*
G37*
G36*
X758D02*
X348D01*
Y5652D01*
X367Y5555D01*
X422Y5473D01*
X504Y5418D01*
X600Y5399D01*
X758D01*
Y5750D01*
D02*
G37*
G36*
X3297Y5453D02*
X3217Y5431D01*
X3140Y5387D01*
X3077Y5325D01*
X3033Y5248D01*
X3012Y5167D01*
X3297D01*
Y5453D01*
D02*
G37*
G36*
X14044Y5226D02*
X14041D01*
Y4880D01*
X14387D01*
Y4883D01*
X14360Y4983D01*
X14308Y5073D01*
X14235Y5147D01*
X14145Y5199D01*
X14044Y5226D01*
D02*
G37*
G36*
X13943D02*
X13940D01*
X13840Y5199D01*
X13749Y5147D01*
X13676Y5073D01*
X13624Y4983D01*
X13597Y4883D01*
Y4880D01*
X13943D01*
Y5226D01*
D02*
G37*
G36*
X3681Y5069D02*
X3396D01*
Y4783D01*
X3476Y4805D01*
X3553Y4849D01*
X3616Y4912D01*
X3660Y4988D01*
X3681Y5069D01*
D02*
G37*
G36*
X3297D02*
X3012D01*
X3033Y4988D01*
X3077Y4912D01*
X3140Y4849D01*
X3217Y4805D01*
X3297Y4783D01*
Y5069D01*
D02*
G37*
G36*
X14387Y4782D02*
X14041D01*
Y4435D01*
X14044D01*
X14145Y4462D01*
X14235Y4514D01*
X14308Y4588D01*
X14360Y4678D01*
X14387Y4779D01*
Y4782D01*
D02*
G37*
G36*
X13943D02*
X13597D01*
Y4779D01*
X13624Y4678D01*
X13676Y4588D01*
X13749Y4514D01*
X13840Y4462D01*
X13940Y4435D01*
X13943D01*
Y4782D01*
D02*
G37*
G36*
X2711Y4193D02*
X2643D01*
X2578Y4175D01*
X2520Y4142D01*
X2472Y4094D01*
X2439Y4036D01*
X2421Y3971D01*
Y3903D01*
X2439Y3838D01*
X2472Y3780D01*
X2520Y3732D01*
X2578Y3699D01*
X2643Y3681D01*
X2711D01*
X2776Y3699D01*
X2834Y3732D01*
X2882Y3780D01*
X2916Y3838D01*
X2933Y3903D01*
Y3971D01*
X2916Y4036D01*
X2882Y4094D01*
X2834Y4142D01*
X2776Y4175D01*
X2711Y4193D01*
D02*
G37*
G36*
X3388Y3661D02*
X3305D01*
X3225Y3640D01*
X3153Y3598D01*
X3094Y3540D01*
X3053Y3468D01*
X3031Y3388D01*
Y3305D01*
X3053Y3225D01*
X3094Y3153D01*
X3153Y3094D01*
X3225Y3053D01*
X3305Y3031D01*
X3388D01*
X3468Y3053D01*
X3540Y3094D01*
X3598Y3153D01*
X3640Y3225D01*
X3661Y3305D01*
Y3388D01*
X3640Y3468D01*
X3598Y3540D01*
X3540Y3598D01*
X3468Y3640D01*
X3388Y3661D01*
D02*
G37*
G36*
X12943Y3226D02*
X12940D01*
X12840Y3199D01*
X12749Y3147D01*
X12676Y3073D01*
X12624Y2983D01*
X12597Y2883D01*
Y2880D01*
X12943D01*
Y3226D01*
D02*
G37*
G36*
X7443Y3116D02*
X6795D01*
Y2762D01*
X7046D01*
X7150Y2776D01*
X7248Y2816D01*
X7331Y2880D01*
X7395Y2964D01*
X7436Y3061D01*
X7443Y3116D01*
D02*
G37*
G36*
X6697D02*
X6049D01*
X6056Y3061D01*
X6097Y2964D01*
X6161Y2880D01*
X6244Y2816D01*
X6342Y2776D01*
X6446Y2762D01*
X6697D01*
Y3116D01*
D02*
G37*
G36*
X12943Y2781D02*
X12597D01*
Y2779D01*
X12624Y2678D01*
X12676Y2588D01*
X12749Y2514D01*
X12840Y2462D01*
X12940Y2435D01*
X12943D01*
Y2781D01*
D02*
G37*
G36*
X15388Y2303D02*
X15321D01*
X15256Y2286D01*
X15197Y2252D01*
X15150Y2204D01*
X15116Y2146D01*
X15098Y2081D01*
Y2014D01*
X15116Y1948D01*
X15150Y1890D01*
X15197Y1842D01*
X15256Y1809D01*
X15321Y1791D01*
X15388D01*
X15453Y1809D01*
X15511Y1842D01*
X15559Y1890D01*
X15593Y1948D01*
X15610Y2014D01*
Y2081D01*
X15593Y2146D01*
X15559Y2204D01*
X15511Y2252D01*
X15453Y2286D01*
X15388Y2303D01*
D02*
G37*
G36*
X11451D02*
X11384D01*
X11319Y2286D01*
X11260Y2252D01*
X11213Y2204D01*
X11179Y2146D01*
X11161Y2081D01*
Y2014D01*
X11179Y1948D01*
X11213Y1890D01*
X11260Y1842D01*
X11319Y1809D01*
X11384Y1791D01*
X11451D01*
X11516Y1809D01*
X11574Y1842D01*
X11622Y1890D01*
X11656Y1948D01*
X11673Y2014D01*
Y2081D01*
X11656Y2146D01*
X11622Y2204D01*
X11574Y2252D01*
X11516Y2286D01*
X11451Y2303D01*
D02*
G37*
G36*
X1282Y2462D02*
X1230D01*
Y1230D01*
X2462D01*
Y1282D01*
X2431Y1481D01*
X2368Y1673D01*
X2277Y1853D01*
X2158Y2016D01*
X2016Y2158D01*
X1853Y2277D01*
X1673Y2368D01*
X1481Y2431D01*
X1282Y2462D01*
D02*
G37*
G36*
X16880D02*
X16828D01*
X16629Y2431D01*
X16437Y2368D01*
X16258Y2277D01*
X16095Y2158D01*
X15952Y2016D01*
X15833Y1853D01*
X15742Y1673D01*
X15680Y1481D01*
X15648Y1282D01*
Y1230D01*
X16880D01*
Y2462D01*
D02*
G37*
G36*
X3396Y1319D02*
Y1033D01*
X3681D01*
X3660Y1114D01*
X3616Y1191D01*
X3553Y1253D01*
X3476Y1298D01*
X3396Y1319D01*
D02*
G37*
G36*
X3297D02*
X3217Y1298D01*
X3140Y1253D01*
X3077Y1191D01*
X3033Y1114D01*
X3012Y1033D01*
X3297D01*
Y1319D01*
D02*
G37*
G36*
X10092Y1778D02*
X10089D01*
Y1378D01*
Y978D01*
X10092D01*
X10194Y1005D01*
X10285Y1058D01*
X10359Y1132D01*
X10412Y1224D01*
X10418Y1246D01*
X10470D01*
X10474Y1232D01*
X10524Y1145D01*
X10594Y1075D01*
X10681Y1025D01*
X10777Y999D01*
X10877D01*
X10973Y1025D01*
X11059Y1075D01*
X11130Y1145D01*
X11180Y1232D01*
X11206Y1328D01*
Y1428D01*
X11180Y1524D01*
X11130Y1611D01*
X11059Y1681D01*
X10973Y1731D01*
X10877Y1757D01*
X10777D01*
X10681Y1731D01*
X10594Y1681D01*
X10524Y1611D01*
X10474Y1524D01*
X10470Y1510D01*
X10418D01*
X10412Y1532D01*
X10359Y1624D01*
X10285Y1698D01*
X10194Y1751D01*
X10092Y1778D01*
D02*
G37*
G36*
X3681Y935D02*
X3396D01*
Y649D01*
X3476Y671D01*
X3553Y715D01*
X3616Y778D01*
X3660Y854D01*
X3681Y935D01*
D02*
G37*
G36*
X3297D02*
X3012D01*
X3033Y854D01*
X3077Y778D01*
X3140Y715D01*
X3217Y671D01*
X3297Y649D01*
Y935D01*
D02*
G37*
%LPD*%
G36*
X13756Y2470D02*
X13844Y2452D01*
X14134D01*
X14152Y2430D01*
X14162Y2410D01*
X13902Y2149D01*
X13780D01*
X13710Y2135D01*
X13652Y2096D01*
X13297Y1741D01*
X13239Y1757D01*
X13139D01*
X13095Y1745D01*
X13069Y1790D01*
X13612Y2333D01*
X13651Y2392D01*
X13665Y2461D01*
Y2471D01*
X13715Y2497D01*
X13756Y2470D01*
D02*
G37*
G36*
X11748Y3116D02*
X11693Y3060D01*
X11665Y3011D01*
X10705D01*
X10636Y2998D01*
X10577Y2958D01*
X9360Y1741D01*
X9302Y1757D01*
X9202D01*
X9158Y1745D01*
X9132Y1790D01*
X10508Y3166D01*
X11728D01*
X11748Y3116D01*
D02*
G37*
D11*
X5020Y1673D02*
X8760D01*
X10433Y3346D02*
X12303D01*
X8760Y1673D02*
X10433Y3346D01*
X3346Y6693D02*
X5209Y4831D01*
X11992D01*
X4724Y4528D02*
X11295D01*
X11992Y3831D01*
X3346Y5906D02*
X4724Y4528D01*
X787Y9201D02*
X5760D01*
X7087Y7874D01*
X6118Y9630D02*
X7776Y7972D01*
Y5610D02*
Y7972D01*
X6118Y9630D02*
Y10486D01*
X807Y6799D02*
X1976D01*
X3445Y8268D02*
X5906D01*
X1976Y6799D02*
X3445Y8268D01*
X11516Y492D02*
X13484Y2461D01*
X3937Y1772D02*
X5217Y492D01*
X11516D01*
X3346Y1772D02*
X3937D01*
X4134Y2559D02*
X5020Y1673D01*
X3346Y2559D02*
X4134D01*
X6787Y5340D02*
X7506D01*
X7776Y5610D01*
X12303Y3346D02*
X12492Y3535D01*
Y4331D01*
X13484Y2461D02*
Y3339D01*
X12992Y3831D02*
X13484Y3339D01*
X6746Y5299D02*
X6787Y5340D01*
X12492Y4331D02*
X12992Y4831D01*
X9252Y1378D02*
X10705Y2831D01*
X11992D01*
X13189Y1378D02*
X13780Y1969D01*
X13976D01*
X14567Y2559D01*
Y3256D01*
X13992Y3831D02*
X14567Y3256D01*
D32*
X4331Y3937D02*
X9547D01*
D33*
X6746Y3165D02*
X8843D01*
X8957Y3051D01*
D34*
X9252Y1378D02*
D03*
X10039D02*
D03*
X10827D02*
D03*
X13189D02*
D03*
X13976D02*
D03*
X14764D02*
D03*
D35*
X3346Y3346D02*
D03*
Y984D02*
D03*
Y2559D02*
D03*
Y1772D02*
D03*
Y7480D02*
D03*
Y5118D02*
D03*
Y6693D02*
D03*
Y5906D02*
D03*
D36*
X9547Y10335D02*
D03*
X9547Y5413D02*
D03*
D37*
X9547Y8957D02*
D03*
X9547Y4035D02*
D03*
D38*
X13045Y10252D02*
D03*
Y9252D02*
D03*
X6746Y3165D02*
D03*
Y2165D02*
D03*
X6746Y7299D02*
D03*
X6746Y6299D02*
D03*
D39*
X13045Y8252D02*
D03*
X6746Y1165D02*
D03*
X6746Y5299D02*
D03*
D40*
X807Y5799D02*
D03*
X787Y8201D02*
D03*
D41*
X807Y6799D02*
D03*
X787Y9201D02*
D03*
D42*
X14803Y7382D02*
D03*
D43*
Y8760D02*
D03*
D44*
X16929Y1181D02*
D03*
X1181Y11024D02*
D03*
X16929D02*
D03*
X1181Y1181D02*
D03*
D45*
X4118Y10486D02*
D03*
X5118D02*
D03*
D46*
X6118Y10486D02*
D03*
D47*
X13992Y5831D02*
D03*
X13992Y3831D02*
D03*
X13992Y4831D02*
D03*
X11992Y5831D02*
D03*
X11992Y3831D02*
D03*
Y4831D02*
D03*
X11992Y2831D02*
D03*
X12992D02*
D03*
X12992Y4831D02*
D03*
Y3831D02*
D03*
Y5831D02*
D03*
D48*
X13992Y2831D02*
D03*
D49*
X7087Y7874D02*
D03*
X5945Y5630D02*
D03*
X2756Y8661D02*
D03*
X4528D02*
D03*
X2461Y5413D02*
D03*
X1772Y7283D02*
D03*
X2559Y3346D02*
D03*
X7677Y984D02*
D03*
X5512Y1063D02*
D03*
X8189Y10157D02*
D03*
X12008Y9646D02*
D03*
X5748Y9685D02*
D03*
X7283Y9646D02*
D03*
X8268Y7480D02*
D03*
X11220Y5906D02*
D03*
X12205Y6693D02*
D03*
X12087Y8189D02*
D03*
X10984Y9252D02*
D03*
X9764Y7441D02*
D03*
X11024Y3937D02*
D03*
X8169Y2461D02*
D03*
X4724Y3307D02*
D03*
X4685Y7559D02*
D03*
X9055Y11220D02*
D03*
X6890Y11122D02*
D03*
X15157Y6299D02*
D03*
Y4921D02*
D03*
Y3150D02*
D03*
X12480Y827D02*
D03*
X11614Y2461D02*
D03*
X9488Y827D02*
D03*
X11299D02*
D03*
X4331Y3740D02*
D03*
Y4134D02*
D03*
X8957Y3051D02*
D03*
X5906Y8268D02*
D03*
M02*
