G04*
G04 #@! TF.GenerationSoftware,Altium Limited,Altium Designer,21.1.1 (26)*
G04*
G04 Layer_Physical_Order=2*
G04 Layer_Color=16711680*
%FSLAX24Y24*%
%MOIN*%
G70*
G04*
G04 #@! TF.SameCoordinates,F00D2E86-8B98-404A-8CF5-AA7CE4D76747*
G04*
G04*
G04 #@! TF.FilePolarity,Positive*
G04*
G01*
G75*
%ADD11C,0.0197*%
%ADD32C,0.0787*%
%ADD33C,0.0591*%
%ADD34C,0.0600*%
%ADD35C,0.0472*%
%ADD36C,0.0512*%
G04:AMPARAMS|DCode=37|XSize=51.2mil|YSize=51.2mil|CornerRadius=7.7mil|HoleSize=0mil|Usage=FLASHONLY|Rotation=270.000|XOffset=0mil|YOffset=0mil|HoleType=Round|Shape=RoundedRectangle|*
%AMROUNDEDRECTD37*
21,1,0.0512,0.0358,0,0,270.0*
21,1,0.0358,0.0512,0,0,270.0*
1,1,0.0154,-0.0179,-0.0179*
1,1,0.0154,-0.0179,0.0179*
1,1,0.0154,0.0179,0.0179*
1,1,0.0154,0.0179,-0.0179*
%
%ADD37ROUNDEDRECTD37*%
%ADD38O,0.1200X0.0600*%
G04:AMPARAMS|DCode=39|XSize=60mil|YSize=120mil|CornerRadius=21mil|HoleSize=0mil|Usage=FLASHONLY|Rotation=90.000|XOffset=0mil|YOffset=0mil|HoleType=Round|Shape=RoundedRectangle|*
%AMROUNDEDRECTD39*
21,1,0.0600,0.0780,0,0,90.0*
21,1,0.0180,0.1200,0,0,90.0*
1,1,0.0420,0.0390,0.0090*
1,1,0.0420,0.0390,-0.0090*
1,1,0.0420,-0.0390,-0.0090*
1,1,0.0420,-0.0390,0.0090*
%
%ADD39ROUNDEDRECTD39*%
G04:AMPARAMS|DCode=40|XSize=59.1mil|YSize=70.9mil|CornerRadius=14.8mil|HoleSize=0mil|Usage=FLASHONLY|Rotation=270.000|XOffset=0mil|YOffset=0mil|HoleType=Round|Shape=RoundedRectangle|*
%AMROUNDEDRECTD40*
21,1,0.0591,0.0413,0,0,270.0*
21,1,0.0295,0.0709,0,0,270.0*
1,1,0.0295,-0.0207,-0.0148*
1,1,0.0295,-0.0207,0.0148*
1,1,0.0295,0.0207,0.0148*
1,1,0.0295,0.0207,-0.0148*
%
%ADD40ROUNDEDRECTD40*%
%ADD41O,0.0709X0.0591*%
G04:AMPARAMS|DCode=42|XSize=82.7mil|YSize=82.7mil|CornerRadius=12.4mil|HoleSize=0mil|Usage=FLASHONLY|Rotation=90.000|XOffset=0mil|YOffset=0mil|HoleType=Round|Shape=RoundedRectangle|*
%AMROUNDEDRECTD42*
21,1,0.0827,0.0579,0,0,90.0*
21,1,0.0579,0.0827,0,0,90.0*
1,1,0.0248,0.0289,0.0289*
1,1,0.0248,0.0289,-0.0289*
1,1,0.0248,-0.0289,-0.0289*
1,1,0.0248,-0.0289,0.0289*
%
%ADD42ROUNDEDRECTD42*%
%ADD43C,0.0827*%
%ADD44C,0.2362*%
%ADD45O,0.0600X0.1200*%
G04:AMPARAMS|DCode=46|XSize=60mil|YSize=120mil|CornerRadius=21mil|HoleSize=0mil|Usage=FLASHONLY|Rotation=180.000|XOffset=0mil|YOffset=0mil|HoleType=Round|Shape=RoundedRectangle|*
%AMROUNDEDRECTD46*
21,1,0.0600,0.0780,0,0,180.0*
21,1,0.0180,0.1200,0,0,180.0*
1,1,0.0420,-0.0090,0.0390*
1,1,0.0420,0.0090,0.0390*
1,1,0.0420,0.0090,-0.0390*
1,1,0.0420,-0.0090,-0.0390*
%
%ADD46ROUNDEDRECTD46*%
%ADD47C,0.0591*%
G04:AMPARAMS|DCode=48|XSize=59.1mil|YSize=59.1mil|CornerRadius=14.8mil|HoleSize=0mil|Usage=FLASHONLY|Rotation=90.000|XOffset=0mil|YOffset=0mil|HoleType=Round|Shape=RoundedRectangle|*
%AMROUNDEDRECTD48*
21,1,0.0591,0.0295,0,0,90.0*
21,1,0.0295,0.0591,0,0,90.0*
1,1,0.0295,0.0148,0.0148*
1,1,0.0295,0.0148,-0.0148*
1,1,0.0295,-0.0148,-0.0148*
1,1,0.0295,-0.0148,0.0148*
%
%ADD48ROUNDEDRECTD48*%
%ADD49C,0.0276*%
G04:AMPARAMS|DCode=50|XSize=31.5mil|YSize=31.5mil|CornerRadius=4.7mil|HoleSize=0mil|Usage=FLASHONLY|Rotation=270.000|XOffset=0mil|YOffset=0mil|HoleType=Round|Shape=RoundedRectangle|*
%AMROUNDEDRECTD50*
21,1,0.0315,0.0220,0,0,270.0*
21,1,0.0220,0.0315,0,0,270.0*
1,1,0.0094,-0.0110,-0.0110*
1,1,0.0094,-0.0110,0.0110*
1,1,0.0094,0.0110,0.0110*
1,1,0.0094,0.0110,-0.0110*
%
%ADD50ROUNDEDRECTD50*%
G04:AMPARAMS|DCode=51|XSize=32mil|YSize=40mil|CornerRadius=8mil|HoleSize=0mil|Usage=FLASHONLY|Rotation=90.000|XOffset=0mil|YOffset=0mil|HoleType=Round|Shape=RoundedRectangle|*
%AMROUNDEDRECTD51*
21,1,0.0320,0.0240,0,0,90.0*
21,1,0.0160,0.0400,0,0,90.0*
1,1,0.0160,0.0120,0.0080*
1,1,0.0160,0.0120,-0.0080*
1,1,0.0160,-0.0120,-0.0080*
1,1,0.0160,-0.0120,0.0080*
%
%ADD51ROUNDEDRECTD51*%
G04:AMPARAMS|DCode=52|XSize=19.7mil|YSize=19.7mil|CornerRadius=3mil|HoleSize=0mil|Usage=FLASHONLY|Rotation=270.000|XOffset=0mil|YOffset=0mil|HoleType=Round|Shape=RoundedRectangle|*
%AMROUNDEDRECTD52*
21,1,0.0197,0.0138,0,0,270.0*
21,1,0.0138,0.0197,0,0,270.0*
1,1,0.0059,-0.0069,-0.0069*
1,1,0.0059,-0.0069,0.0069*
1,1,0.0059,0.0069,0.0069*
1,1,0.0059,0.0069,-0.0069*
%
%ADD52ROUNDEDRECTD52*%
%ADD53C,0.0709*%
%ADD54C,0.0630*%
G36*
X16088Y11994D02*
X15952Y11858D01*
X15833Y11695D01*
X15742Y11515D01*
X15680Y11324D01*
X15648Y11124D01*
Y11073D01*
X16929D01*
Y11024D01*
X16978D01*
Y9743D01*
X17030D01*
X17229Y9774D01*
X17421Y9836D01*
X17601Y9928D01*
X17764Y10046D01*
X17900Y10182D01*
X17950Y10173D01*
Y2032D01*
X17900Y2022D01*
X17764Y2158D01*
X17601Y2277D01*
X17421Y2368D01*
X17229Y2431D01*
X17030Y2462D01*
X16978D01*
Y1181D01*
X16929D01*
Y1132D01*
X15648D01*
Y1080D01*
X15680Y881D01*
X15742Y689D01*
X15833Y510D01*
X15952Y347D01*
X16088Y211D01*
X16079Y161D01*
X2032D01*
X2022Y211D01*
X2158Y347D01*
X2277Y510D01*
X2368Y689D01*
X2431Y881D01*
X2462Y1080D01*
Y1132D01*
X1181D01*
Y1181D01*
X1132D01*
Y2462D01*
X1080D01*
X881Y2431D01*
X689Y2368D01*
X510Y2277D01*
X347Y2158D01*
X211Y2022D01*
X161Y2032D01*
Y10173D01*
X211Y10182D01*
X347Y10046D01*
X510Y9928D01*
X689Y9836D01*
X881Y9774D01*
X1080Y9743D01*
X1132D01*
Y11024D01*
X1181D01*
Y11073D01*
X2462D01*
Y11124D01*
X2431Y11324D01*
X2368Y11515D01*
X2277Y11695D01*
X2158Y11858D01*
X2022Y11994D01*
X2032Y12044D01*
X16079Y12044D01*
X16088Y11994D01*
D02*
G37*
%LPC*%
G36*
X7797Y11209D02*
X7557D01*
X7495Y11197D01*
X7443Y11162D01*
X7433Y11148D01*
X7227D01*
X7158Y11134D01*
X7100Y11095D01*
X6671Y10667D01*
X6499D01*
Y10876D01*
X6489Y10952D01*
X6460Y11022D01*
X6414Y11082D01*
X6354Y11128D01*
X6283Y11158D01*
X6208Y11167D01*
X6028D01*
X5953Y11158D01*
X5882Y11128D01*
X5822Y11082D01*
X5776Y11022D01*
X5747Y10952D01*
X5737Y10876D01*
Y10096D01*
X5747Y10021D01*
X5776Y9951D01*
X5822Y9890D01*
X5882Y9844D01*
X5953Y9815D01*
X6028Y9805D01*
X6208D01*
X6283Y9815D01*
X6354Y9844D01*
X6414Y9890D01*
X6460Y9951D01*
X6489Y10021D01*
X6499Y10096D01*
Y10306D01*
X6746D01*
X6815Y10319D01*
X6874Y10358D01*
X7302Y10787D01*
X7397D01*
X7397Y10649D01*
X7397Y10649D01*
X7397Y10642D01*
X7398Y10634D01*
X7398Y10626D01*
X7401Y10619D01*
X7403Y10611D01*
X7407Y10605D01*
X7410Y10597D01*
X7418Y10586D01*
X7424Y10580D01*
X7428Y10573D01*
X7435Y10569D01*
X7439Y10565D01*
X7426Y10545D01*
X7422Y10538D01*
X7418Y10531D01*
X7408Y10507D01*
X7407Y10499D01*
X7404Y10492D01*
X7398Y10466D01*
X7398Y10458D01*
X7397Y10451D01*
X7397Y10438D01*
X7397Y10380D01*
X7395Y10372D01*
Y10212D01*
X7408Y10150D01*
X7443Y10098D01*
X7495Y10063D01*
X7497Y10063D01*
Y10039D01*
X7510Y9970D01*
X7549Y9912D01*
X7845Y9616D01*
X7903Y9577D01*
X7972Y9563D01*
X11178D01*
X12368Y8374D01*
X12364Y8342D01*
Y8162D01*
X12374Y8087D01*
X12403Y8016D01*
X12449Y7956D01*
X12510Y7910D01*
X12513Y7908D01*
X12503Y7858D01*
X12217D01*
X10781Y9294D01*
X10683Y9369D01*
X10568Y9417D01*
X10444Y9433D01*
X5777D01*
X5595Y9615D01*
Y10486D01*
X5578Y10610D01*
X5531Y10724D01*
X5500Y10764D01*
Y10786D01*
X5487Y10885D01*
X5449Y10977D01*
X5388Y11056D01*
X5309Y11117D01*
X5217Y11155D01*
X5118Y11168D01*
X5019Y11155D01*
X4927Y11117D01*
X4848Y11056D01*
X4787Y10977D01*
X4749Y10885D01*
X4736Y10786D01*
Y10764D01*
X4705Y10724D01*
X4658Y10610D01*
X4642Y10486D01*
Y9418D01*
X4658Y9295D01*
X4705Y9180D01*
X4781Y9081D01*
X4915Y8947D01*
X4902Y8931D01*
X4855Y8816D01*
X4838Y8692D01*
Y6564D01*
X4855Y6440D01*
X4902Y6325D01*
X4922Y6299D01*
X4902Y6273D01*
X4855Y6158D01*
X4838Y6035D01*
Y2627D01*
X4855Y2503D01*
X4902Y2388D01*
X4978Y2290D01*
X5439Y1828D01*
X5538Y1753D01*
X5653Y1705D01*
X5776Y1689D01*
X6746D01*
X6869Y1705D01*
X6984Y1753D01*
X7024Y1783D01*
X7046D01*
X7145Y1796D01*
X7237Y1835D01*
X7316Y1895D01*
X7377Y1974D01*
X7415Y2066D01*
X7428Y2165D01*
X7415Y2264D01*
X7377Y2356D01*
X7316Y2435D01*
X7237Y2496D01*
X7145Y2534D01*
X7046Y2547D01*
X7024D01*
X6984Y2578D01*
X6869Y2626D01*
X6746Y2642D01*
X5974D01*
X5791Y2824D01*
Y5823D01*
X6746D01*
X6869Y5839D01*
X6984Y5887D01*
X7024Y5917D01*
X7046D01*
X7145Y5930D01*
X7237Y5968D01*
X7316Y6029D01*
X7377Y6108D01*
X7415Y6200D01*
X7428Y6299D01*
X7415Y6398D01*
X7377Y6490D01*
X7316Y6569D01*
X7237Y6630D01*
X7145Y6668D01*
X7046Y6681D01*
X7024D01*
X6984Y6712D01*
X6869Y6759D01*
X6746Y6776D01*
X5791D01*
Y8036D01*
X5833Y8063D01*
X5862Y8051D01*
X5949D01*
X6028Y8084D01*
X6031Y8087D01*
X6923D01*
X6943Y8037D01*
X6903Y7997D01*
X6870Y7917D01*
Y7831D01*
X6903Y7751D01*
X6906Y7749D01*
X6886Y7703D01*
X6795D01*
Y7348D01*
X7443D01*
X7436Y7404D01*
X7395Y7501D01*
X7331Y7584D01*
X7255Y7643D01*
X7257Y7668D01*
X7268Y7693D01*
X9874D01*
X11633Y5935D01*
X11618Y5880D01*
Y5781D01*
X11644Y5686D01*
X11693Y5601D01*
X11762Y5531D01*
X11848Y5482D01*
X11943Y5457D01*
X12041D01*
X12136Y5482D01*
X12222Y5531D01*
X12291Y5601D01*
X12341Y5686D01*
X12366Y5781D01*
Y5880D01*
X12341Y5975D01*
X12291Y6060D01*
X12279Y6072D01*
X12299Y6119D01*
X12449D01*
X12633Y5935D01*
X12618Y5880D01*
Y5781D01*
X12644Y5686D01*
X12693Y5601D01*
X12762Y5531D01*
X12848Y5482D01*
X12943Y5457D01*
X13041D01*
X13136Y5482D01*
X13222Y5531D01*
X13291Y5601D01*
X13341Y5686D01*
X13366Y5781D01*
Y5880D01*
X13341Y5975D01*
X13291Y6060D01*
X13222Y6130D01*
X13136Y6179D01*
X13041Y6205D01*
X12943D01*
X12888Y6190D01*
X12651Y6427D01*
X12593Y6466D01*
X12524Y6480D01*
X11984D01*
X10069Y8395D01*
X10017Y8430D01*
X10017Y8457D01*
X10025Y8480D01*
X10247D01*
X11682Y7045D01*
X11781Y6969D01*
X11896Y6922D01*
X12019Y6905D01*
X14075D01*
X14198Y6922D01*
X14206Y6925D01*
X14399D01*
X14435Y6902D01*
X14514Y6886D01*
X15092D01*
X15172Y6902D01*
X15239Y6946D01*
X15283Y7013D01*
X15299Y7093D01*
Y7671D01*
X15283Y7750D01*
X15239Y7817D01*
X15172Y7862D01*
X15092Y7878D01*
X14784D01*
X14783Y7878D01*
X14397D01*
Y8375D01*
X14443Y8394D01*
X14488Y8349D01*
X14605Y8281D01*
X14736Y8246D01*
X14754D01*
Y8760D01*
Y9273D01*
X14736D01*
X14605Y9238D01*
X14488Y9171D01*
X14392Y9075D01*
X14325Y8958D01*
X14303Y8877D01*
X14247Y8862D01*
X13683Y9425D01*
X13676Y9443D01*
X13615Y9522D01*
X13536Y9583D01*
X13525Y9588D01*
X13514Y9596D01*
X13418Y9636D01*
X13315Y9649D01*
X13045D01*
X12943Y9636D01*
X12939Y9634D01*
X12745D01*
X12646Y9621D01*
X12554Y9583D01*
X12475Y9522D01*
X12414Y9443D01*
X12376Y9351D01*
X12363Y9252D01*
X12376Y9153D01*
X12414Y9061D01*
X12475Y8982D01*
X12554Y8921D01*
X12646Y8883D01*
X12745Y8870D01*
X12939D01*
X12943Y8868D01*
X13045Y8855D01*
X13187D01*
X13362Y8679D01*
X13343Y8633D01*
X12655D01*
X12624Y8629D01*
X11381Y9872D01*
X11322Y9911D01*
X11253Y9925D01*
X8047D01*
X7908Y10064D01*
X7912Y10098D01*
X7947Y10150D01*
X7959Y10212D01*
Y10372D01*
X7957Y10380D01*
X7957Y10438D01*
X7957Y10438D01*
X7957Y10438D01*
X7957Y10438D01*
X7957Y10439D01*
X7957Y10451D01*
X7956Y10459D01*
X7956Y10467D01*
X7951Y10492D01*
X7948Y10499D01*
X7946Y10507D01*
X7937Y10531D01*
X7932Y10537D01*
X7929Y10545D01*
X7916Y10564D01*
X7920Y10568D01*
X7926Y10572D01*
X7931Y10579D01*
X7936Y10585D01*
X7944Y10596D01*
X7947Y10603D01*
X7951Y10610D01*
X7953Y10618D01*
X7956Y10625D01*
X7956Y10633D01*
X7957Y10641D01*
X7957Y10648D01*
X7957Y10648D01*
X7957Y10751D01*
X7993Y10787D01*
X8058D01*
X8100Y10758D01*
X8169Y10745D01*
X8447D01*
X8460Y10724D01*
X8502Y10696D01*
X8551Y10687D01*
X8772D01*
X8821Y10696D01*
X8862Y10724D01*
X8890Y10766D01*
X8900Y10815D01*
Y10979D01*
X8901Y10984D01*
X8900Y10989D01*
Y11035D01*
X8890Y11085D01*
X8862Y11126D01*
X8821Y11154D01*
X8772Y11164D01*
X8726D01*
X8720Y11165D01*
X8715Y11164D01*
X8551D01*
X8502Y11154D01*
X8460Y11126D01*
X8447Y11106D01*
X8239D01*
X8196Y11134D01*
X8127Y11148D01*
X7921D01*
X7912Y11162D01*
X7859Y11197D01*
X7797Y11209D01*
D02*
G37*
G36*
X4167Y11183D02*
Y10535D01*
X4522D01*
Y10786D01*
X4508Y10891D01*
X4468Y10988D01*
X4403Y11071D01*
X4320Y11136D01*
X4223Y11176D01*
X4167Y11183D01*
D02*
G37*
G36*
X4069D02*
X4014Y11176D01*
X3916Y11136D01*
X3833Y11071D01*
X3769Y10988D01*
X3728Y10891D01*
X3715Y10786D01*
Y10535D01*
X4069D01*
Y11183D01*
D02*
G37*
G36*
X9596Y10690D02*
Y10384D01*
X9903D01*
X9879Y10472D01*
X9832Y10553D01*
X9766Y10619D01*
X9685Y10666D01*
X9596Y10690D01*
D02*
G37*
G36*
X9498Y10690D02*
X9410Y10666D01*
X9329Y10619D01*
X9262Y10553D01*
X9216Y10472D01*
X9192Y10384D01*
X9498D01*
Y10690D01*
D02*
G37*
G36*
X8772Y10595D02*
X8711D01*
Y10384D01*
X8922D01*
Y10445D01*
X8910Y10502D01*
X8878Y10551D01*
X8829Y10584D01*
X8772Y10595D01*
D02*
G37*
G36*
X8612D02*
X8551D01*
X8494Y10584D01*
X8445Y10551D01*
X8412Y10502D01*
X8401Y10445D01*
Y10384D01*
X8612D01*
Y10595D01*
D02*
G37*
G36*
X13345Y10655D02*
X13094D01*
Y10301D01*
X13742D01*
X13735Y10356D01*
X13695Y10454D01*
X13631Y10537D01*
X13547Y10601D01*
X13450Y10642D01*
X13345Y10655D01*
D02*
G37*
G36*
X12996D02*
X12745D01*
X12641Y10642D01*
X12544Y10601D01*
X12460Y10537D01*
X12396Y10454D01*
X12356Y10356D01*
X12348Y10301D01*
X12996D01*
Y10655D01*
D02*
G37*
G36*
X8922Y10285D02*
X8711D01*
Y10074D01*
X8772D01*
X8829Y10086D01*
X8878Y10118D01*
X8910Y10167D01*
X8922Y10224D01*
Y10285D01*
D02*
G37*
G36*
X8612D02*
X8401D01*
Y10224D01*
X8412Y10167D01*
X8445Y10118D01*
X8494Y10086D01*
X8551Y10074D01*
X8612D01*
Y10285D01*
D02*
G37*
G36*
X9903Y10285D02*
X9596D01*
Y9979D01*
X9685Y10003D01*
X9766Y10050D01*
X9832Y10116D01*
X9879Y10197D01*
X9903Y10285D01*
D02*
G37*
G36*
X9498D02*
X9192D01*
X9216Y10197D01*
X9262Y10116D01*
X9329Y10050D01*
X9410Y10003D01*
X9498Y9979D01*
Y10285D01*
D02*
G37*
G36*
X13742Y10203D02*
X13094D01*
Y9849D01*
X13345D01*
X13450Y9862D01*
X13547Y9903D01*
X13631Y9967D01*
X13695Y10050D01*
X13735Y10148D01*
X13742Y10203D01*
D02*
G37*
G36*
X12996D02*
X12348D01*
X12356Y10148D01*
X12396Y10050D01*
X12460Y9967D01*
X12544Y9903D01*
X12641Y9862D01*
X12745Y9849D01*
X12996D01*
Y10203D01*
D02*
G37*
G36*
X4522Y10437D02*
X4167D01*
Y9789D01*
X4223Y9797D01*
X4320Y9837D01*
X4403Y9901D01*
X4468Y9984D01*
X4508Y10082D01*
X4522Y10186D01*
Y10437D01*
D02*
G37*
G36*
X4069D02*
X3715D01*
Y10186D01*
X3728Y10082D01*
X3769Y9984D01*
X3833Y9901D01*
X3916Y9837D01*
X4014Y9797D01*
X4069Y9789D01*
Y10437D01*
D02*
G37*
G36*
X16880Y10974D02*
X15648D01*
Y10923D01*
X15680Y10724D01*
X15742Y10532D01*
X15833Y10352D01*
X15952Y10189D01*
X16095Y10046D01*
X16258Y9928D01*
X16437Y9836D01*
X16629Y9774D01*
X16828Y9743D01*
X16880D01*
Y10974D01*
D02*
G37*
G36*
X2462D02*
X1230D01*
Y9743D01*
X1282D01*
X1481Y9774D01*
X1673Y9836D01*
X1853Y9928D01*
X2016Y10046D01*
X2158Y10189D01*
X2277Y10352D01*
X2368Y10532D01*
X2431Y10724D01*
X2462Y10923D01*
Y10974D01*
D02*
G37*
G36*
X14871Y9273D02*
X14852D01*
Y8809D01*
X15317D01*
Y8827D01*
X15282Y8958D01*
X15214Y9075D01*
X15118Y9171D01*
X15001Y9238D01*
X14871Y9273D01*
D02*
G37*
G36*
X846Y9578D02*
X728D01*
X631Y9565D01*
X540Y9527D01*
X462Y9468D01*
X402Y9389D01*
X364Y9298D01*
X351Y9201D01*
X364Y9103D01*
X402Y9012D01*
X462Y8934D01*
X540Y8874D01*
X631Y8836D01*
X728Y8824D01*
X846D01*
X944Y8836D01*
X1027Y8871D01*
X1128Y8770D01*
X1187Y8731D01*
X1256Y8717D01*
X1399D01*
X1414Y8667D01*
X1413Y8666D01*
X1384Y8623D01*
X1374Y8573D01*
Y8553D01*
X1575D01*
X1776D01*
Y8573D01*
X1766Y8623D01*
X1737Y8666D01*
X1723Y8676D01*
X1733Y8729D01*
X1742Y8731D01*
X1781Y8756D01*
X2106D01*
X2111Y8757D01*
X2276D01*
X2325Y8767D01*
X2366Y8795D01*
X2394Y8837D01*
X2404Y8886D01*
Y9106D01*
X2394Y9155D01*
X2366Y9197D01*
X2325Y9225D01*
X2276Y9235D01*
X2055D01*
X2006Y9225D01*
X1964Y9197D01*
X1936Y9155D01*
X1929Y9118D01*
X1713D01*
X1643Y9104D01*
X1605Y9078D01*
X1331D01*
X1222Y9187D01*
X1224Y9201D01*
X1211Y9298D01*
X1173Y9389D01*
X1113Y9468D01*
X1035Y9527D01*
X944Y9565D01*
X846Y9578D01*
D02*
G37*
G36*
X2276Y8666D02*
X2215D01*
Y8455D01*
X2426D01*
Y8516D01*
X2414Y8573D01*
X2382Y8622D01*
X2333Y8654D01*
X2276Y8666D01*
D02*
G37*
G36*
X2116D02*
X2055D01*
X1998Y8654D01*
X1949Y8622D01*
X1916Y8573D01*
X1905Y8516D01*
Y8455D01*
X2116D01*
Y8666D01*
D02*
G37*
G36*
X1776Y8455D02*
X1624D01*
Y8303D01*
X1644D01*
X1694Y8313D01*
X1737Y8342D01*
X1766Y8385D01*
X1776Y8435D01*
Y8455D01*
D02*
G37*
G36*
X1526D02*
X1374D01*
Y8435D01*
X1384Y8385D01*
X1413Y8342D01*
X1455Y8313D01*
X1506Y8303D01*
X1526D01*
Y8455D01*
D02*
G37*
G36*
X994Y8601D02*
X837D01*
Y8250D01*
X1247D01*
Y8348D01*
X1227Y8445D01*
X1173Y8527D01*
X1091Y8582D01*
X994Y8601D01*
D02*
G37*
G36*
X738D02*
X581D01*
X484Y8582D01*
X402Y8527D01*
X347Y8445D01*
X328Y8348D01*
Y8250D01*
X738D01*
Y8601D01*
D02*
G37*
G36*
X15317Y8711D02*
X14852D01*
Y8246D01*
X14871D01*
X15001Y8281D01*
X15118Y8349D01*
X15214Y8445D01*
X15282Y8562D01*
X15317Y8692D01*
Y8711D01*
D02*
G37*
G36*
X2426Y8356D02*
X2215D01*
Y8145D01*
X2276D01*
X2333Y8157D01*
X2382Y8189D01*
X2414Y8238D01*
X2426Y8295D01*
Y8356D01*
D02*
G37*
G36*
X2116D02*
X1905D01*
Y8295D01*
X1916Y8238D01*
X1949Y8189D01*
X1998Y8157D01*
X2055Y8145D01*
X2116D01*
Y8356D01*
D02*
G37*
G36*
X2711Y8327D02*
X2643D01*
X2578Y8309D01*
X2520Y8276D01*
X2472Y8228D01*
X2439Y8170D01*
X2421Y8105D01*
Y8037D01*
X2439Y7972D01*
X2472Y7914D01*
X2520Y7866D01*
X2578Y7832D01*
X2643Y7815D01*
X2711D01*
X2776Y7832D01*
X2834Y7866D01*
X2882Y7914D01*
X2916Y7972D01*
X2933Y8037D01*
Y8105D01*
X2916Y8170D01*
X2882Y8228D01*
X2834Y8276D01*
X2776Y8309D01*
X2711Y8327D01*
D02*
G37*
G36*
X1247Y8152D02*
X837D01*
Y7801D01*
X994D01*
X1091Y7820D01*
X1173Y7875D01*
X1227Y7957D01*
X1247Y8053D01*
Y8152D01*
D02*
G37*
G36*
X738D02*
X328D01*
Y8053D01*
X347Y7957D01*
X402Y7875D01*
X484Y7820D01*
X581Y7801D01*
X738D01*
Y8152D01*
D02*
G37*
G36*
X6697Y7703D02*
X6446D01*
X6342Y7689D01*
X6244Y7649D01*
X6161Y7584D01*
X6097Y7501D01*
X6056Y7404D01*
X6049Y7348D01*
X6697D01*
Y7703D01*
D02*
G37*
G36*
X7443Y7250D02*
X6795D01*
Y6896D01*
X7046D01*
X7150Y6910D01*
X7248Y6950D01*
X7331Y7014D01*
X7395Y7097D01*
X7436Y7195D01*
X7443Y7250D01*
D02*
G37*
G36*
X6697D02*
X6049D01*
X6056Y7195D01*
X6097Y7097D01*
X6161Y7014D01*
X6244Y6950D01*
X6342Y6910D01*
X6446Y6896D01*
X6697D01*
Y7250D01*
D02*
G37*
G36*
X866Y7176D02*
X748D01*
X650Y7164D01*
X559Y7126D01*
X481Y7066D01*
X421Y6988D01*
X384Y6897D01*
X371Y6799D01*
X384Y6702D01*
X421Y6611D01*
X481Y6532D01*
X559Y6473D01*
X650Y6435D01*
X748Y6422D01*
X866D01*
X964Y6435D01*
X1047Y6469D01*
X1148Y6368D01*
X1207Y6329D01*
X1276Y6315D01*
X1418D01*
X1433Y6265D01*
X1432Y6265D01*
X1404Y6222D01*
X1394Y6171D01*
Y6152D01*
X1594D01*
X1795D01*
Y6171D01*
X1785Y6222D01*
X1757Y6265D01*
X1742Y6274D01*
X1753Y6327D01*
X1762Y6329D01*
X1800Y6355D01*
X2126D01*
X2131Y6356D01*
X2295D01*
X2344Y6366D01*
X2386Y6393D01*
X2414Y6435D01*
X2424Y6484D01*
Y6705D01*
X2414Y6754D01*
X2386Y6796D01*
X2344Y6823D01*
X2295Y6833D01*
X2075D01*
X2026Y6823D01*
X1984Y6796D01*
X1956Y6754D01*
X1949Y6716D01*
X1732D01*
X1663Y6702D01*
X1625Y6677D01*
X1351D01*
X1242Y6786D01*
X1243Y6799D01*
X1231Y6897D01*
X1193Y6988D01*
X1133Y7066D01*
X1055Y7126D01*
X964Y7164D01*
X866Y7176D01*
D02*
G37*
G36*
X2295Y6264D02*
X2234D01*
Y6053D01*
X2445D01*
Y6114D01*
X2434Y6172D01*
X2401Y6220D01*
X2353Y6253D01*
X2295Y6264D01*
D02*
G37*
G36*
X2136D02*
X2075D01*
X2017Y6253D01*
X1969Y6220D01*
X1936Y6172D01*
X1925Y6114D01*
Y6053D01*
X2136D01*
Y6264D01*
D02*
G37*
G36*
X1795Y6053D02*
X1644D01*
Y5901D01*
X1663D01*
X1714Y5911D01*
X1757Y5940D01*
X1785Y5983D01*
X1795Y6033D01*
Y6053D01*
D02*
G37*
G36*
X1545D02*
X1394D01*
Y6033D01*
X1404Y5983D01*
X1432Y5940D01*
X1475Y5911D01*
X1526Y5901D01*
X1545D01*
Y6053D01*
D02*
G37*
G36*
X14044Y6226D02*
X14041D01*
Y5880D01*
X14387D01*
Y5883D01*
X14360Y5983D01*
X14308Y6073D01*
X14235Y6147D01*
X14145Y6199D01*
X14044Y6226D01*
D02*
G37*
G36*
X13943D02*
X13940D01*
X13840Y6199D01*
X13749Y6147D01*
X13676Y6073D01*
X13624Y5983D01*
X13597Y5883D01*
Y5880D01*
X13943D01*
Y6226D01*
D02*
G37*
G36*
X1014Y6199D02*
X856D01*
Y5848D01*
X1266D01*
Y5947D01*
X1247Y6043D01*
X1192Y6125D01*
X1110Y6180D01*
X1014Y6199D01*
D02*
G37*
G36*
X758D02*
X600D01*
X504Y6180D01*
X422Y6125D01*
X367Y6043D01*
X348Y5947D01*
Y5848D01*
X758D01*
Y6199D01*
D02*
G37*
G36*
X2445Y5955D02*
X2234D01*
Y5744D01*
X2295D01*
X2353Y5755D01*
X2401Y5788D01*
X2434Y5836D01*
X2445Y5894D01*
Y5955D01*
D02*
G37*
G36*
X2136D02*
X1925D01*
Y5894D01*
X1936Y5836D01*
X1969Y5788D01*
X2017Y5755D01*
X2075Y5744D01*
X2136D01*
Y5955D01*
D02*
G37*
G36*
X3388Y6220D02*
X3305D01*
X3225Y6199D01*
X3153Y6158D01*
X3094Y6099D01*
X3053Y6027D01*
X3031Y5947D01*
Y5864D01*
X3053Y5784D01*
X3094Y5712D01*
X3153Y5653D01*
X3225Y5612D01*
X3305Y5591D01*
X3388D01*
X3468Y5612D01*
X3540Y5653D01*
X3598Y5712D01*
X3640Y5784D01*
X3661Y5864D01*
Y5947D01*
X3640Y6027D01*
X3598Y6099D01*
X3540Y6158D01*
X3468Y6199D01*
X3388Y6220D01*
D02*
G37*
G36*
X9596Y5769D02*
Y5463D01*
X9903D01*
X9879Y5551D01*
X9832Y5632D01*
X9766Y5698D01*
X9685Y5745D01*
X9596Y5769D01*
D02*
G37*
G36*
X9498D02*
X9410Y5745D01*
X9329Y5698D01*
X9262Y5632D01*
X9216Y5551D01*
X9192Y5463D01*
X9498D01*
Y5769D01*
D02*
G37*
G36*
X14387Y5781D02*
X14041D01*
Y5435D01*
X14044D01*
X14145Y5462D01*
X14235Y5514D01*
X14308Y5588D01*
X14360Y5678D01*
X14387Y5779D01*
Y5781D01*
D02*
G37*
G36*
X13943D02*
X13597D01*
Y5779D01*
X13624Y5678D01*
X13676Y5588D01*
X13749Y5514D01*
X13840Y5462D01*
X13940Y5435D01*
X13943D01*
Y5781D01*
D02*
G37*
G36*
X1266Y5750D02*
X856D01*
Y5399D01*
X1014D01*
X1110Y5418D01*
X1192Y5473D01*
X1247Y5555D01*
X1266Y5652D01*
Y5750D01*
D02*
G37*
G36*
X758D02*
X348D01*
Y5652D01*
X367Y5555D01*
X422Y5473D01*
X504Y5418D01*
X600Y5399D01*
X758D01*
Y5750D01*
D02*
G37*
G36*
X3396Y5453D02*
Y5167D01*
X3681D01*
X3660Y5248D01*
X3616Y5325D01*
X3553Y5387D01*
X3476Y5431D01*
X3396Y5453D01*
D02*
G37*
G36*
X3297D02*
X3217Y5431D01*
X3140Y5387D01*
X3077Y5325D01*
X3033Y5248D01*
X3012Y5167D01*
X3297D01*
Y5453D01*
D02*
G37*
G36*
X9903Y5364D02*
X9596D01*
Y5058D01*
X9685Y5082D01*
X9766Y5129D01*
X9832Y5195D01*
X9879Y5276D01*
X9903Y5364D01*
D02*
G37*
G36*
X9498D02*
X9192D01*
X9216Y5276D01*
X9262Y5195D01*
X9329Y5129D01*
X9410Y5082D01*
X9498Y5058D01*
Y5364D01*
D02*
G37*
G36*
X14044Y5226D02*
X14041D01*
Y4880D01*
X14387D01*
Y4883D01*
X14360Y4983D01*
X14308Y5073D01*
X14235Y5147D01*
X14145Y5199D01*
X14044Y5226D01*
D02*
G37*
G36*
X13943D02*
X13940D01*
X13840Y5199D01*
X13749Y5147D01*
X13676Y5073D01*
X13624Y4983D01*
X13597Y4883D01*
Y4880D01*
X13943D01*
Y5226D01*
D02*
G37*
G36*
X3681Y5069D02*
X3396D01*
Y4783D01*
X3476Y4805D01*
X3553Y4849D01*
X3616Y4912D01*
X3660Y4988D01*
X3681Y5069D01*
D02*
G37*
G36*
X3297D02*
X3012D01*
X3033Y4988D01*
X3077Y4912D01*
X3140Y4849D01*
X3217Y4805D01*
X3297Y4783D01*
Y5069D01*
D02*
G37*
G36*
X13041Y5205D02*
X12943D01*
X12848Y5179D01*
X12762Y5130D01*
X12693Y5060D01*
X12644Y4975D01*
X12618Y4880D01*
Y4781D01*
X12644Y4686D01*
X12693Y4601D01*
X12762Y4531D01*
X12848Y4482D01*
X12943Y4457D01*
X13041D01*
X13136Y4482D01*
X13222Y4531D01*
X13291Y4601D01*
X13341Y4686D01*
X13366Y4781D01*
Y4880D01*
X13341Y4975D01*
X13291Y5060D01*
X13222Y5130D01*
X13136Y5179D01*
X13041Y5205D01*
D02*
G37*
G36*
X12041D02*
X11943D01*
X11848Y5179D01*
X11762Y5130D01*
X11693Y5060D01*
X11644Y4975D01*
X11618Y4880D01*
Y4781D01*
X11644Y4686D01*
X11693Y4601D01*
X11762Y4531D01*
X11848Y4482D01*
X11943Y4457D01*
X12041D01*
X12136Y4482D01*
X12222Y4531D01*
X12291Y4601D01*
X12341Y4686D01*
X12366Y4781D01*
Y4880D01*
X12341Y4975D01*
X12291Y5060D01*
X12222Y5130D01*
X12136Y5179D01*
X12041Y5205D01*
D02*
G37*
G36*
X14387Y4782D02*
X14041D01*
Y4435D01*
X14044D01*
X14145Y4462D01*
X14235Y4514D01*
X14308Y4588D01*
X14360Y4678D01*
X14387Y4779D01*
Y4782D01*
D02*
G37*
G36*
X13943D02*
X13597D01*
Y4779D01*
X13624Y4678D01*
X13676Y4588D01*
X13749Y4514D01*
X13840Y4462D01*
X13940Y4435D01*
X13943D01*
Y4782D01*
D02*
G37*
G36*
X2711Y4193D02*
X2643D01*
X2578Y4175D01*
X2520Y4142D01*
X2472Y4094D01*
X2439Y4036D01*
X2421Y3971D01*
Y3903D01*
X2439Y3838D01*
X2472Y3780D01*
X2520Y3732D01*
X2578Y3699D01*
X2643Y3681D01*
X2711D01*
X2776Y3699D01*
X2834Y3732D01*
X2882Y3780D01*
X2916Y3838D01*
X2933Y3903D01*
Y3971D01*
X2916Y4036D01*
X2882Y4094D01*
X2834Y4142D01*
X2776Y4175D01*
X2711Y4193D01*
D02*
G37*
G36*
X14041Y4205D02*
X13943D01*
X13848Y4179D01*
X13762Y4130D01*
X13693Y4060D01*
X13644Y3975D01*
X13618Y3880D01*
Y3781D01*
X13644Y3686D01*
X13693Y3601D01*
X13762Y3531D01*
X13848Y3482D01*
X13943Y3457D01*
X14041D01*
X14136Y3482D01*
X14222Y3531D01*
X14291Y3601D01*
X14341Y3686D01*
X14366Y3781D01*
Y3880D01*
X14341Y3975D01*
X14291Y4060D01*
X14222Y4130D01*
X14136Y4179D01*
X14041Y4205D01*
D02*
G37*
G36*
X13041D02*
X12943D01*
X12848Y4179D01*
X12762Y4130D01*
X12693Y4060D01*
X12644Y3975D01*
X12618Y3880D01*
Y3781D01*
X12644Y3686D01*
X12693Y3601D01*
X12762Y3531D01*
X12848Y3482D01*
X12943Y3457D01*
X13041D01*
X13136Y3482D01*
X13222Y3531D01*
X13291Y3601D01*
X13341Y3686D01*
X13366Y3781D01*
Y3880D01*
X13341Y3975D01*
X13291Y4060D01*
X13222Y4130D01*
X13136Y4179D01*
X13041Y4205D01*
D02*
G37*
G36*
X12041D02*
X11943D01*
X11848Y4179D01*
X11762Y4130D01*
X11693Y4060D01*
X11644Y3975D01*
X11618Y3880D01*
Y3781D01*
X11644Y3686D01*
X11693Y3601D01*
X11762Y3531D01*
X11848Y3482D01*
X11943Y3457D01*
X12041D01*
X12136Y3482D01*
X12222Y3531D01*
X12291Y3601D01*
X12341Y3686D01*
X12366Y3781D01*
Y3880D01*
X12341Y3975D01*
X12291Y4060D01*
X12222Y4130D01*
X12136Y4179D01*
X12041Y4205D01*
D02*
G37*
G36*
X7046Y3569D02*
X6795D01*
Y3215D01*
X7443D01*
X7436Y3270D01*
X7395Y3367D01*
X7331Y3451D01*
X7248Y3515D01*
X7150Y3555D01*
X7046Y3569D01*
D02*
G37*
G36*
X6697D02*
X6446D01*
X6342Y3555D01*
X6244Y3515D01*
X6161Y3451D01*
X6097Y3367D01*
X6056Y3270D01*
X6049Y3215D01*
X6697D01*
Y3569D01*
D02*
G37*
G36*
X12943Y3226D02*
X12940D01*
X12840Y3199D01*
X12749Y3147D01*
X12676Y3073D01*
X12624Y2983D01*
X12597Y2883D01*
Y2880D01*
X12943D01*
Y3226D01*
D02*
G37*
G36*
X7443Y3116D02*
X6795D01*
Y2762D01*
X7046D01*
X7150Y2776D01*
X7248Y2816D01*
X7331Y2880D01*
X7395Y2964D01*
X7436Y3061D01*
X7443Y3116D01*
D02*
G37*
G36*
X6697D02*
X6049D01*
X6056Y3061D01*
X6097Y2964D01*
X6161Y2880D01*
X6244Y2816D01*
X6342Y2776D01*
X6446Y2762D01*
X6697D01*
Y3116D01*
D02*
G37*
G36*
X12041Y3205D02*
X11943D01*
X11848Y3179D01*
X11762Y3130D01*
X11693Y3060D01*
X11644Y2975D01*
X11618Y2880D01*
Y2781D01*
X11644Y2686D01*
X11693Y2601D01*
X11762Y2531D01*
X11848Y2482D01*
X11943Y2457D01*
X12041D01*
X12136Y2482D01*
X12222Y2531D01*
X12291Y2601D01*
X12341Y2686D01*
X12366Y2781D01*
Y2880D01*
X12341Y2975D01*
X12291Y3060D01*
X12222Y3130D01*
X12136Y3179D01*
X12041Y3205D01*
D02*
G37*
G36*
X3810Y7957D02*
X3346D01*
X3223Y7941D01*
X3108Y7893D01*
X3010Y7817D01*
X2934Y7719D01*
X2886Y7604D01*
X2870Y7480D01*
X2886Y7357D01*
X2934Y7242D01*
X3010Y7143D01*
X3108Y7068D01*
X3200Y7030D01*
X3203Y6974D01*
X3153Y6945D01*
X3094Y6886D01*
X3053Y6814D01*
X3031Y6734D01*
Y6651D01*
X3053Y6571D01*
X3094Y6500D01*
X3153Y6441D01*
X3225Y6399D01*
X3305Y6378D01*
X3388D01*
X3468Y6399D01*
X3540Y6441D01*
X3598Y6500D01*
X3640Y6571D01*
X3661Y6651D01*
Y6734D01*
X3640Y6814D01*
X3598Y6886D01*
X3540Y6945D01*
X3525Y6954D01*
X3538Y7004D01*
X3613D01*
X3795Y6822D01*
Y4075D01*
X3543Y3823D01*
X3346D01*
X3223Y3807D01*
X3108Y3759D01*
X3010Y3683D01*
X2934Y3585D01*
X2886Y3470D01*
X2870Y3346D01*
X2886Y3223D01*
X2934Y3108D01*
X3010Y3010D01*
X3108Y2934D01*
X3200Y2896D01*
X3203Y2840D01*
X3153Y2811D01*
X3094Y2752D01*
X3053Y2681D01*
X3031Y2601D01*
Y2518D01*
X3053Y2437D01*
X3094Y2366D01*
X3153Y2307D01*
X3225Y2266D01*
X3305Y2244D01*
X3388D01*
X3468Y2266D01*
X3540Y2307D01*
X3598Y2366D01*
X3640Y2437D01*
X3661Y2518D01*
Y2601D01*
X3640Y2681D01*
X3598Y2752D01*
X3540Y2811D01*
X3525Y2820D01*
X3538Y2870D01*
X3740D01*
X3863Y2886D01*
X3978Y2934D01*
X4077Y3010D01*
X4609Y3541D01*
X4684Y3640D01*
X4732Y3755D01*
X4748Y3878D01*
X4744Y3907D01*
X4748Y3937D01*
Y7019D01*
X4732Y7142D01*
X4684Y7257D01*
X4609Y7356D01*
X4147Y7817D01*
X4049Y7893D01*
X3934Y7941D01*
X3810Y7957D01*
D02*
G37*
G36*
X9547Y4472D02*
X9434Y4457D01*
X9329Y4414D01*
X9238Y4344D01*
X9169Y4254D01*
X9125Y4148D01*
X9110Y4035D01*
X9125Y3922D01*
X9169Y3817D01*
X9238Y3727D01*
X9238Y3727D01*
X10390Y2575D01*
Y1664D01*
X10340Y1643D01*
X10285Y1698D01*
X10194Y1751D01*
X10092Y1778D01*
X10089D01*
Y1378D01*
Y978D01*
X10092D01*
X10194Y1005D01*
X10285Y1058D01*
X10359Y1132D01*
X10387Y1180D01*
X10443Y1177D01*
X10448Y1163D01*
X10518Y1073D01*
X10519Y1072D01*
X10520Y1071D01*
X10610Y1001D01*
X10716Y958D01*
X10829Y943D01*
X11813D01*
X11926Y958D01*
X12031Y1001D01*
X12122Y1071D01*
X12705Y1655D01*
X12867D01*
X12882Y1605D01*
X12836Y1524D01*
X12810Y1428D01*
Y1328D01*
X12836Y1232D01*
X12886Y1145D01*
X12956Y1075D01*
X13043Y1025D01*
X13139Y999D01*
X13239D01*
X13335Y1025D01*
X13422Y1075D01*
X13492Y1145D01*
X13542Y1232D01*
X13546Y1246D01*
X13598D01*
X13604Y1224D01*
X13656Y1132D01*
X13731Y1058D01*
X13822Y1005D01*
X13924Y978D01*
X13927D01*
Y1378D01*
Y1778D01*
X13924D01*
X13822Y1751D01*
X13731Y1698D01*
X13656Y1624D01*
X13604Y1532D01*
X13598Y1510D01*
X13546D01*
X13542Y1524D01*
X13492Y1611D01*
X13462Y1640D01*
X13472Y1690D01*
X13529Y1713D01*
X13619Y1782D01*
X14063Y2226D01*
X14385Y1905D01*
Y1571D01*
X14335Y1557D01*
X14296Y1624D01*
X14222Y1698D01*
X14131Y1751D01*
X14029Y1778D01*
X14026D01*
Y1378D01*
Y978D01*
X14029D01*
X14131Y1005D01*
X14222Y1058D01*
X14296Y1132D01*
X14349Y1224D01*
X14355Y1246D01*
X14407D01*
X14411Y1232D01*
X14461Y1145D01*
X14531Y1075D01*
X14618Y1025D01*
X14714Y999D01*
X14814D01*
X14910Y1025D01*
X14996Y1075D01*
X15067Y1145D01*
X15117Y1232D01*
X15143Y1328D01*
Y1428D01*
X15139Y1440D01*
Y1830D01*
X15189Y1850D01*
X15197Y1842D01*
X15256Y1809D01*
X15321Y1791D01*
X15388D01*
X15453Y1809D01*
X15511Y1842D01*
X15559Y1890D01*
X15593Y1948D01*
X15610Y2014D01*
Y2081D01*
X15593Y2146D01*
X15559Y2204D01*
X15511Y2252D01*
X15453Y2286D01*
X15388Y2303D01*
X15321D01*
X15256Y2286D01*
X15197Y2252D01*
X15158Y2213D01*
X15125Y2212D01*
X15101Y2220D01*
X15089Y2249D01*
X15029Y2328D01*
X14369Y2988D01*
X14353Y3067D01*
X14303Y3142D01*
X14228Y3192D01*
X14140Y3209D01*
X13844D01*
X13756Y3192D01*
X13681Y3142D01*
X13631Y3067D01*
X13622Y3021D01*
X13434Y2832D01*
X13387Y2852D01*
Y2883D01*
X13360Y2983D01*
X13308Y3073D01*
X13235Y3147D01*
X13145Y3199D01*
X13044Y3226D01*
X13041D01*
Y2831D01*
X12992D01*
Y2781D01*
X12597D01*
Y2779D01*
X12624Y2678D01*
X12676Y2588D01*
X12689Y2574D01*
X12670Y2528D01*
X12524D01*
X12411Y2513D01*
X12306Y2470D01*
X12216Y2400D01*
X11661Y1846D01*
X11651Y1848D01*
X11641Y1862D01*
X11630Y1903D01*
X11656Y1948D01*
X11673Y2014D01*
Y2081D01*
X11656Y2146D01*
X11622Y2204D01*
X11574Y2252D01*
X11516Y2286D01*
X11451Y2303D01*
X11384D01*
X11319Y2286D01*
X11307Y2279D01*
X11264Y2304D01*
Y2756D01*
X11249Y2869D01*
X11205Y2974D01*
X11136Y3065D01*
X9856Y4344D01*
X9766Y4414D01*
X9660Y4457D01*
X9547Y4472D01*
D02*
G37*
G36*
X7136Y5680D02*
X6356D01*
X6281Y5671D01*
X6210Y5641D01*
X6150Y5595D01*
X6104Y5535D01*
X6075Y5465D01*
X6065Y5389D01*
Y5209D01*
X6075Y5134D01*
X6104Y5064D01*
X6150Y5003D01*
X6210Y4957D01*
X6281Y4928D01*
X6356Y4918D01*
X7136D01*
X7168Y4922D01*
X7595Y4495D01*
Y1970D01*
X7168Y1542D01*
X7136Y1547D01*
X6356D01*
X6281Y1537D01*
X6210Y1508D01*
X6150Y1461D01*
X6104Y1401D01*
X6075Y1331D01*
X6065Y1255D01*
Y1075D01*
X6075Y1000D01*
X6104Y930D01*
X6150Y869D01*
X6210Y823D01*
X6281Y794D01*
X6356Y784D01*
X7136D01*
X7211Y794D01*
X7282Y823D01*
X7342Y869D01*
X7388Y930D01*
X7417Y1000D01*
X7427Y1075D01*
Y1255D01*
X7423Y1287D01*
X7903Y1767D01*
X7942Y1826D01*
X7956Y1895D01*
Y4570D01*
X7942Y4639D01*
X7903Y4697D01*
X7423Y5178D01*
X7427Y5209D01*
Y5389D01*
X7417Y5465D01*
X7388Y5535D01*
X7342Y5595D01*
X7282Y5641D01*
X7211Y5671D01*
X7136Y5680D01*
D02*
G37*
G36*
X9990Y1778D02*
X9987D01*
X9885Y1751D01*
X9794Y1698D01*
X9719Y1624D01*
X9667Y1532D01*
X9661Y1510D01*
X9609D01*
X9605Y1524D01*
X9555Y1611D01*
X9485Y1681D01*
X9398Y1731D01*
X9302Y1757D01*
X9202D01*
X9106Y1731D01*
X9019Y1681D01*
X8949Y1611D01*
X8899Y1524D01*
X8873Y1428D01*
Y1328D01*
X8899Y1232D01*
X8949Y1145D01*
X9019Y1075D01*
X9106Y1025D01*
X9202Y999D01*
X9302D01*
X9398Y1025D01*
X9485Y1075D01*
X9555Y1145D01*
X9605Y1232D01*
X9609Y1246D01*
X9661D01*
X9667Y1224D01*
X9719Y1132D01*
X9794Y1058D01*
X9885Y1005D01*
X9987Y978D01*
X9990D01*
Y1378D01*
Y1778D01*
D02*
G37*
G36*
X3388Y2087D02*
X3305D01*
X3225Y2065D01*
X3153Y2024D01*
X3094Y1965D01*
X3053Y1893D01*
X3031Y1813D01*
Y1730D01*
X3053Y1650D01*
X3094Y1578D01*
X3153Y1520D01*
X3225Y1478D01*
X3305Y1457D01*
X3388D01*
X3468Y1478D01*
X3540Y1520D01*
X3598Y1578D01*
X3640Y1650D01*
X3661Y1730D01*
Y1813D01*
X3640Y1893D01*
X3598Y1965D01*
X3540Y2024D01*
X3468Y2065D01*
X3388Y2087D01*
D02*
G37*
G36*
X1282Y2462D02*
X1230D01*
Y1230D01*
X2462D01*
Y1282D01*
X2431Y1481D01*
X2368Y1673D01*
X2277Y1853D01*
X2158Y2016D01*
X2016Y2158D01*
X1853Y2277D01*
X1673Y2368D01*
X1481Y2431D01*
X1282Y2462D01*
D02*
G37*
G36*
X16880D02*
X16828D01*
X16629Y2431D01*
X16437Y2368D01*
X16258Y2277D01*
X16095Y2158D01*
X15952Y2016D01*
X15833Y1853D01*
X15742Y1673D01*
X15680Y1481D01*
X15648Y1282D01*
Y1230D01*
X16880D01*
Y2462D01*
D02*
G37*
G36*
X3396Y1319D02*
Y1033D01*
X3681D01*
X3660Y1114D01*
X3616Y1191D01*
X3553Y1253D01*
X3476Y1298D01*
X3396Y1319D01*
D02*
G37*
G36*
X3297D02*
X3217Y1298D01*
X3140Y1253D01*
X3077Y1191D01*
X3033Y1114D01*
X3012Y1033D01*
X3297D01*
Y1319D01*
D02*
G37*
G36*
X3681Y935D02*
X3396D01*
Y649D01*
X3476Y671D01*
X3553Y715D01*
X3616Y778D01*
X3660Y854D01*
X3681Y935D01*
D02*
G37*
G36*
X3297D02*
X3012D01*
X3033Y854D01*
X3077Y778D01*
X3140Y715D01*
X3217Y671D01*
X3297Y649D01*
Y935D01*
D02*
G37*
%LPD*%
G36*
X7877Y10892D02*
X7877Y10648D01*
X7877Y10648D01*
X7877Y10641D01*
X7869Y10629D01*
X7857Y10624D01*
X7843Y10626D01*
X7838Y10631D01*
X7736Y10733D01*
Y10633D01*
X7839Y10531D01*
X7848Y10521D01*
X7862Y10500D01*
X7872Y10476D01*
X7877Y10451D01*
X7877Y10438D01*
X7877Y10438D01*
X7877Y10292D01*
X7477D01*
X7477Y10438D01*
X7477Y10451D01*
X7482Y10476D01*
X7492Y10500D01*
X7507Y10522D01*
X7516Y10531D01*
X7516Y10531D01*
X7618Y10633D01*
Y10733D01*
X7517Y10632D01*
X7512Y10627D01*
X7498Y10625D01*
X7485Y10630D01*
X7477Y10642D01*
X7477Y10649D01*
X7477Y10649D01*
X7477Y10892D01*
X7677Y10892D01*
X7677Y10827D01*
X7677D01*
Y10892D01*
X7877Y10892D01*
D02*
G37*
D11*
X7087Y7874D02*
X9949D01*
X9941Y8268D02*
X11909Y6299D01*
X12524D02*
X12992Y5831D01*
X11909Y6299D02*
X12524D01*
X5906Y8268D02*
X9941D01*
X9949Y7874D02*
X11992Y5831D01*
Y5831D02*
Y5831D01*
X11253Y9744D02*
X12745Y8252D01*
X7677Y10039D02*
X7972Y9744D01*
X11253D01*
X7677Y10039D02*
Y10292D01*
X12745Y8252D02*
X13045D01*
X6746Y1165D02*
X7046D01*
X7776Y1895D02*
Y4570D01*
X7046Y1165D02*
X7776Y1895D01*
X6746Y5299D02*
X7046D01*
X7776Y4570D01*
X1575Y8504D02*
X1673D01*
X1713Y8465D01*
X2106D01*
X1713Y8937D02*
X2106D01*
X1673Y8898D02*
X1713Y8937D01*
X1575Y8898D02*
X1673D01*
X1693Y6102D02*
X1732Y6063D01*
X2126D01*
X1594Y6102D02*
X1693D01*
X1732Y6535D02*
X2126D01*
X1594Y6496D02*
X1693D01*
X1732Y6535D01*
X1575Y8316D02*
Y8504D01*
X787Y8201D02*
X1459D01*
X1575Y8316D01*
X1594Y5915D02*
Y6102D01*
X1479Y5799D02*
X1594Y5915D01*
X807Y5799D02*
X1479D01*
X1256Y8898D02*
X1575D01*
X787Y9201D02*
X953D01*
X1256Y8898D01*
X1276Y6496D02*
X1594D01*
X973Y6799D02*
X1276Y6496D01*
X807Y6799D02*
X973D01*
X6118Y10486D02*
X6746D01*
X7227Y10967D01*
X7677D01*
X8127D02*
X8169Y10925D01*
X7677Y10967D02*
X8127D01*
X8169Y10925D02*
X8661D01*
X8720Y10984D01*
D32*
X3740Y3346D02*
X4272Y3878D01*
Y3937D02*
Y7019D01*
X5579Y8957D02*
X9547D01*
X12019Y7382D02*
X14075D01*
X10444Y8957D02*
X12019Y7382D01*
X9547Y8957D02*
X10444D01*
X5315Y6564D02*
X5579Y6299D01*
X5315Y8692D02*
X5579Y8957D01*
X5315Y6564D02*
Y8692D01*
Y6035D02*
X5579Y6299D01*
X5315Y2627D02*
Y6035D01*
Y2627D02*
X5776Y2165D01*
X6746D01*
X14055Y7402D02*
X14783D01*
X14803Y7382D01*
X3346Y3346D02*
X3740D01*
X3810Y7480D02*
X4272Y7019D01*
X3346Y7480D02*
X3810D01*
X5579Y6299D02*
X6746D01*
X5118Y9418D02*
Y10486D01*
Y9418D02*
X5579Y8957D01*
D33*
X10827Y1382D02*
X10829Y1380D01*
X7049Y7296D02*
X8563Y5782D01*
Y3445D02*
Y5782D01*
Y3445D02*
X8957Y3051D01*
X8563Y5413D02*
X9547D01*
X6749Y7296D02*
X7049D01*
X6746Y7299D02*
X6749Y7296D01*
X8661Y10335D02*
X9547D01*
X9630Y10252D01*
X13045D01*
X13992Y2831D02*
X14762Y2061D01*
Y1380D02*
Y2061D01*
Y1380D02*
X14764Y1378D01*
X14019Y7437D02*
Y8556D01*
X13347Y9228D02*
Y9248D01*
X13343Y9252D02*
X13347Y9248D01*
Y9228D02*
X14019Y8556D01*
D34*
X9252Y1378D02*
D03*
X10039D02*
D03*
X10827D02*
D03*
X13189D02*
D03*
X13976D02*
D03*
X14764D02*
D03*
D35*
X3346Y3346D02*
D03*
Y984D02*
D03*
Y2559D02*
D03*
Y1772D02*
D03*
Y7480D02*
D03*
Y5118D02*
D03*
Y6693D02*
D03*
Y5906D02*
D03*
D36*
X9547Y10335D02*
D03*
X9547Y5413D02*
D03*
D37*
X9547Y8957D02*
D03*
X9547Y4035D02*
D03*
D38*
X13045Y10252D02*
D03*
Y9252D02*
D03*
X6746Y3165D02*
D03*
Y2165D02*
D03*
X6746Y7299D02*
D03*
X6746Y6299D02*
D03*
D39*
X13045Y8252D02*
D03*
X6746Y1165D02*
D03*
X6746Y5299D02*
D03*
D40*
X807Y5799D02*
D03*
X787Y8201D02*
D03*
D41*
X807Y6799D02*
D03*
X787Y9201D02*
D03*
D42*
X14803Y7382D02*
D03*
D43*
Y8760D02*
D03*
D44*
X16929Y1181D02*
D03*
X1181Y11024D02*
D03*
X16929D02*
D03*
X1181Y1181D02*
D03*
D45*
X4118Y10486D02*
D03*
X5118D02*
D03*
D46*
X6118Y10486D02*
D03*
D47*
X13992Y5831D02*
D03*
X13992Y3831D02*
D03*
X13992Y4831D02*
D03*
X11992Y5831D02*
D03*
X11992Y3831D02*
D03*
Y4831D02*
D03*
X11992Y2831D02*
D03*
X12992D02*
D03*
X12992Y4831D02*
D03*
Y3831D02*
D03*
Y5831D02*
D03*
D48*
X13992Y2831D02*
D03*
D49*
X7087Y7874D02*
D03*
X5945Y5630D02*
D03*
X2756Y8661D02*
D03*
X4528D02*
D03*
X2461Y5413D02*
D03*
X1772Y7283D02*
D03*
X2559Y3346D02*
D03*
X7677Y984D02*
D03*
X5512Y1063D02*
D03*
X8189Y10157D02*
D03*
X12008Y9646D02*
D03*
X5748Y9685D02*
D03*
X7283Y9646D02*
D03*
X8268Y7480D02*
D03*
X11220Y5906D02*
D03*
X12205Y6693D02*
D03*
X12087Y8189D02*
D03*
X10984Y9252D02*
D03*
X9764Y7441D02*
D03*
X11024Y3937D02*
D03*
X8169Y2461D02*
D03*
X4724Y3307D02*
D03*
X4685Y7559D02*
D03*
X9055Y11220D02*
D03*
X6890Y11122D02*
D03*
X15157Y6299D02*
D03*
Y4921D02*
D03*
Y3150D02*
D03*
X12480Y827D02*
D03*
X11614Y2461D02*
D03*
X9488Y827D02*
D03*
X11299D02*
D03*
X4331Y3740D02*
D03*
Y4134D02*
D03*
X8957Y3051D02*
D03*
X5906Y8268D02*
D03*
D50*
X8661Y10925D02*
D03*
X8661Y10335D02*
D03*
X2165Y8406D02*
D03*
X2165Y8996D02*
D03*
X2185Y6004D02*
D03*
X2185Y6594D02*
D03*
D51*
X7677Y10292D02*
D03*
Y10967D02*
D03*
D52*
X1575Y8898D02*
D03*
Y8504D02*
D03*
X1594Y6496D02*
D03*
Y6102D02*
D03*
D53*
X9547Y4035D02*
X9547D01*
X10827Y1382D02*
Y2756D01*
X9547Y4035D02*
X10827Y2756D01*
X13310Y2091D02*
X13975Y2756D01*
X12524Y2091D02*
X13310D01*
X11813Y1380D02*
X12524Y2091D01*
X10829Y1380D02*
X11813D01*
D54*
X13045Y9252D02*
X13315D01*
M02*
