G04*
G04 #@! TF.GenerationSoftware,Altium Limited,Altium Designer,21.1.1 (26)*
G04*
G04 Layer_Physical_Order=1*
G04 Layer_Color=255*
%FSLAX24Y24*%
%MOIN*%
G70*
G04*
G04 #@! TF.SameCoordinates,9A7940F5-A859-4D89-A9E3-CBBC344FC29F*
G04*
G04*
G04 #@! TF.FilePolarity,Positive*
G04*
G01*
G75*
%ADD11C,0.0197*%
G04:AMPARAMS|DCode=16|XSize=35.4mil|YSize=51.2mil|CornerRadius=2.7mil|HoleSize=0mil|Usage=FLASHONLY|Rotation=270.000|XOffset=0mil|YOffset=0mil|HoleType=Round|Shape=RoundedRectangle|*
%AMROUNDEDRECTD16*
21,1,0.0354,0.0459,0,0,270.0*
21,1,0.0301,0.0512,0,0,270.0*
1,1,0.0053,-0.0229,-0.0151*
1,1,0.0053,-0.0229,0.0151*
1,1,0.0053,0.0229,0.0151*
1,1,0.0053,0.0229,-0.0151*
%
%ADD16ROUNDEDRECTD16*%
G04:AMPARAMS|DCode=17|XSize=35.4mil|YSize=51.2mil|CornerRadius=8.9mil|HoleSize=0mil|Usage=FLASHONLY|Rotation=270.000|XOffset=0mil|YOffset=0mil|HoleType=Round|Shape=RoundedRectangle|*
%AMROUNDEDRECTD17*
21,1,0.0354,0.0335,0,0,270.0*
21,1,0.0177,0.0512,0,0,270.0*
1,1,0.0177,-0.0167,-0.0089*
1,1,0.0177,-0.0167,0.0089*
1,1,0.0177,0.0167,0.0089*
1,1,0.0177,0.0167,-0.0089*
%
%ADD17ROUNDEDRECTD17*%
G04:AMPARAMS|DCode=18|XSize=37.4mil|YSize=33.5mil|CornerRadius=5mil|HoleSize=0mil|Usage=FLASHONLY|Rotation=0.000|XOffset=0mil|YOffset=0mil|HoleType=Round|Shape=RoundedRectangle|*
%AMROUNDEDRECTD18*
21,1,0.0374,0.0234,0,0,0.0*
21,1,0.0274,0.0335,0,0,0.0*
1,1,0.0100,0.0137,-0.0117*
1,1,0.0100,-0.0137,-0.0117*
1,1,0.0100,-0.0137,0.0117*
1,1,0.0100,0.0137,0.0117*
%
%ADD18ROUNDEDRECTD18*%
G04:AMPARAMS|DCode=19|XSize=31.5mil|YSize=35.4mil|CornerRadius=7.9mil|HoleSize=0mil|Usage=FLASHONLY|Rotation=90.000|XOffset=0mil|YOffset=0mil|HoleType=Round|Shape=RoundedRectangle|*
%AMROUNDEDRECTD19*
21,1,0.0315,0.0197,0,0,90.0*
21,1,0.0157,0.0354,0,0,90.0*
1,1,0.0157,0.0098,0.0079*
1,1,0.0157,0.0098,-0.0079*
1,1,0.0157,-0.0098,-0.0079*
1,1,0.0157,-0.0098,0.0079*
%
%ADD19ROUNDEDRECTD19*%
G04:AMPARAMS|DCode=20|XSize=31.5mil|YSize=35.4mil|CornerRadius=2.4mil|HoleSize=0mil|Usage=FLASHONLY|Rotation=90.000|XOffset=0mil|YOffset=0mil|HoleType=Round|Shape=RoundedRectangle|*
%AMROUNDEDRECTD20*
21,1,0.0315,0.0307,0,0,90.0*
21,1,0.0268,0.0354,0,0,90.0*
1,1,0.0047,0.0154,0.0134*
1,1,0.0047,0.0154,-0.0134*
1,1,0.0047,-0.0154,-0.0134*
1,1,0.0047,-0.0154,0.0134*
%
%ADD20ROUNDEDRECTD20*%
G04:AMPARAMS|DCode=21|XSize=31.5mil|YSize=31.5mil|CornerRadius=4.7mil|HoleSize=0mil|Usage=FLASHONLY|Rotation=90.000|XOffset=0mil|YOffset=0mil|HoleType=Round|Shape=RoundedRectangle|*
%AMROUNDEDRECTD21*
21,1,0.0315,0.0220,0,0,90.0*
21,1,0.0220,0.0315,0,0,90.0*
1,1,0.0094,0.0110,0.0110*
1,1,0.0094,0.0110,-0.0110*
1,1,0.0094,-0.0110,-0.0110*
1,1,0.0094,-0.0110,0.0110*
%
%ADD21ROUNDEDRECTD21*%
G04:AMPARAMS|DCode=22|XSize=35.4mil|YSize=51.2mil|CornerRadius=5.3mil|HoleSize=0mil|Usage=FLASHONLY|Rotation=90.000|XOffset=0mil|YOffset=0mil|HoleType=Round|Shape=RoundedRectangle|*
%AMROUNDEDRECTD22*
21,1,0.0354,0.0406,0,0,90.0*
21,1,0.0248,0.0512,0,0,90.0*
1,1,0.0106,0.0203,0.0124*
1,1,0.0106,0.0203,-0.0124*
1,1,0.0106,-0.0203,-0.0124*
1,1,0.0106,-0.0203,0.0124*
%
%ADD22ROUNDEDRECTD22*%
G04:AMPARAMS|DCode=23|XSize=31.5mil|YSize=35.4mil|CornerRadius=7.9mil|HoleSize=0mil|Usage=FLASHONLY|Rotation=180.000|XOffset=0mil|YOffset=0mil|HoleType=Round|Shape=RoundedRectangle|*
%AMROUNDEDRECTD23*
21,1,0.0315,0.0197,0,0,180.0*
21,1,0.0157,0.0354,0,0,180.0*
1,1,0.0157,-0.0079,0.0098*
1,1,0.0157,0.0079,0.0098*
1,1,0.0157,0.0079,-0.0098*
1,1,0.0157,-0.0079,-0.0098*
%
%ADD23ROUNDEDRECTD23*%
G04:AMPARAMS|DCode=24|XSize=31.5mil|YSize=35.4mil|CornerRadius=2.4mil|HoleSize=0mil|Usage=FLASHONLY|Rotation=180.000|XOffset=0mil|YOffset=0mil|HoleType=Round|Shape=RoundedRectangle|*
%AMROUNDEDRECTD24*
21,1,0.0315,0.0307,0,0,180.0*
21,1,0.0268,0.0354,0,0,180.0*
1,1,0.0047,-0.0134,0.0154*
1,1,0.0047,0.0134,0.0154*
1,1,0.0047,0.0134,-0.0154*
1,1,0.0047,-0.0134,-0.0154*
%
%ADD24ROUNDEDRECTD24*%
G04:AMPARAMS|DCode=25|XSize=37.4mil|YSize=33.5mil|CornerRadius=5mil|HoleSize=0mil|Usage=FLASHONLY|Rotation=270.000|XOffset=0mil|YOffset=0mil|HoleType=Round|Shape=RoundedRectangle|*
%AMROUNDEDRECTD25*
21,1,0.0374,0.0234,0,0,270.0*
21,1,0.0274,0.0335,0,0,270.0*
1,1,0.0100,-0.0117,-0.0137*
1,1,0.0100,-0.0117,0.0137*
1,1,0.0100,0.0117,0.0137*
1,1,0.0100,0.0117,-0.0137*
%
%ADD25ROUNDEDRECTD25*%
G04:AMPARAMS|DCode=26|XSize=23.6mil|YSize=57.1mil|CornerRadius=5.9mil|HoleSize=0mil|Usage=FLASHONLY|Rotation=180.000|XOffset=0mil|YOffset=0mil|HoleType=Round|Shape=RoundedRectangle|*
%AMROUNDEDRECTD26*
21,1,0.0236,0.0453,0,0,180.0*
21,1,0.0118,0.0571,0,0,180.0*
1,1,0.0118,-0.0059,0.0226*
1,1,0.0118,0.0059,0.0226*
1,1,0.0118,0.0059,-0.0226*
1,1,0.0118,-0.0059,-0.0226*
%
%ADD26ROUNDEDRECTD26*%
G04:AMPARAMS|DCode=27|XSize=23.6mil|YSize=57.1mil|CornerRadius=1.8mil|HoleSize=0mil|Usage=FLASHONLY|Rotation=180.000|XOffset=0mil|YOffset=0mil|HoleType=Round|Shape=RoundedRectangle|*
%AMROUNDEDRECTD27*
21,1,0.0236,0.0535,0,0,180.0*
21,1,0.0201,0.0571,0,0,180.0*
1,1,0.0035,-0.0100,0.0268*
1,1,0.0035,0.0100,0.0268*
1,1,0.0035,0.0100,-0.0268*
1,1,0.0035,-0.0100,-0.0268*
%
%ADD27ROUNDEDRECTD27*%
G04:AMPARAMS|DCode=28|XSize=421.3mil|YSize=378mil|CornerRadius=28.3mil|HoleSize=0mil|Usage=FLASHONLY|Rotation=270.000|XOffset=0mil|YOffset=0mil|HoleType=Round|Shape=RoundedRectangle|*
%AMROUNDEDRECTD28*
21,1,0.4213,0.3213,0,0,270.0*
21,1,0.3646,0.3780,0,0,270.0*
1,1,0.0567,-0.1606,-0.1823*
1,1,0.0567,-0.1606,0.1823*
1,1,0.0567,0.1606,0.1823*
1,1,0.0567,0.1606,-0.1823*
%
%ADD28ROUNDEDRECTD28*%
G04:AMPARAMS|DCode=29|XSize=63mil|YSize=137.8mil|CornerRadius=15.7mil|HoleSize=0mil|Usage=FLASHONLY|Rotation=270.000|XOffset=0mil|YOffset=0mil|HoleType=Round|Shape=RoundedRectangle|*
%AMROUNDEDRECTD29*
21,1,0.0630,0.1063,0,0,270.0*
21,1,0.0315,0.1378,0,0,270.0*
1,1,0.0315,-0.0531,-0.0157*
1,1,0.0315,-0.0531,0.0157*
1,1,0.0315,0.0531,0.0157*
1,1,0.0315,0.0531,-0.0157*
%
%ADD29ROUNDEDRECTD29*%
G04:AMPARAMS|DCode=30|XSize=63mil|YSize=137.8mil|CornerRadius=4.7mil|HoleSize=0mil|Usage=FLASHONLY|Rotation=270.000|XOffset=0mil|YOffset=0mil|HoleType=Round|Shape=RoundedRectangle|*
%AMROUNDEDRECTD30*
21,1,0.0630,0.1283,0,0,270.0*
21,1,0.0535,0.1378,0,0,270.0*
1,1,0.0094,-0.0642,-0.0268*
1,1,0.0094,-0.0642,0.0268*
1,1,0.0094,0.0642,0.0268*
1,1,0.0094,0.0642,-0.0268*
%
%ADD30ROUNDEDRECTD30*%
G04:AMPARAMS|DCode=31|XSize=90.6mil|YSize=129.9mil|CornerRadius=22.6mil|HoleSize=0mil|Usage=FLASHONLY|Rotation=90.000|XOffset=0mil|YOffset=0mil|HoleType=Round|Shape=RoundedRectangle|*
%AMROUNDEDRECTD31*
21,1,0.0906,0.0846,0,0,90.0*
21,1,0.0453,0.1299,0,0,90.0*
1,1,0.0453,0.0423,0.0226*
1,1,0.0453,0.0423,-0.0226*
1,1,0.0453,-0.0423,-0.0226*
1,1,0.0453,-0.0423,0.0226*
%
%ADD31ROUNDEDRECTD31*%
G04:AMPARAMS|DCode=32|XSize=90.6mil|YSize=129.9mil|CornerRadius=6.8mil|HoleSize=0mil|Usage=FLASHONLY|Rotation=90.000|XOffset=0mil|YOffset=0mil|HoleType=Round|Shape=RoundedRectangle|*
%AMROUNDEDRECTD32*
21,1,0.0906,0.1163,0,0,90.0*
21,1,0.0770,0.1299,0,0,90.0*
1,1,0.0136,0.0582,0.0385*
1,1,0.0136,0.0582,-0.0385*
1,1,0.0136,-0.0582,-0.0385*
1,1,0.0136,-0.0582,0.0385*
%
%ADD32ROUNDEDRECTD32*%
G04:AMPARAMS|DCode=33|XSize=35.4mil|YSize=51.2mil|CornerRadius=5.3mil|HoleSize=0mil|Usage=FLASHONLY|Rotation=0.000|XOffset=0mil|YOffset=0mil|HoleType=Round|Shape=RoundedRectangle|*
%AMROUNDEDRECTD33*
21,1,0.0354,0.0406,0,0,0.0*
21,1,0.0248,0.0512,0,0,0.0*
1,1,0.0106,0.0124,-0.0203*
1,1,0.0106,-0.0124,-0.0203*
1,1,0.0106,-0.0124,0.0203*
1,1,0.0106,0.0124,0.0203*
%
%ADD33ROUNDEDRECTD33*%
G04:AMPARAMS|DCode=34|XSize=24.8mil|YSize=32.7mil|CornerRadius=6.2mil|HoleSize=0mil|Usage=FLASHONLY|Rotation=0.000|XOffset=0mil|YOffset=0mil|HoleType=Round|Shape=RoundedRectangle|*
%AMROUNDEDRECTD34*
21,1,0.0248,0.0203,0,0,0.0*
21,1,0.0124,0.0327,0,0,0.0*
1,1,0.0124,0.0062,-0.0101*
1,1,0.0124,-0.0062,-0.0101*
1,1,0.0124,-0.0062,0.0101*
1,1,0.0124,0.0062,0.0101*
%
%ADD34ROUNDEDRECTD34*%
G04:AMPARAMS|DCode=35|XSize=24.8mil|YSize=32.7mil|CornerRadius=1.9mil|HoleSize=0mil|Usage=FLASHONLY|Rotation=0.000|XOffset=0mil|YOffset=0mil|HoleType=Round|Shape=RoundedRectangle|*
%AMROUNDEDRECTD35*
21,1,0.0248,0.0290,0,0,0.0*
21,1,0.0211,0.0327,0,0,0.0*
1,1,0.0037,0.0105,-0.0145*
1,1,0.0037,-0.0105,-0.0145*
1,1,0.0037,-0.0105,0.0145*
1,1,0.0037,0.0105,0.0145*
%
%ADD35ROUNDEDRECTD35*%
G04:AMPARAMS|DCode=36|XSize=31.5mil|YSize=31.5mil|CornerRadius=4.7mil|HoleSize=0mil|Usage=FLASHONLY|Rotation=180.000|XOffset=0mil|YOffset=0mil|HoleType=Round|Shape=RoundedRectangle|*
%AMROUNDEDRECTD36*
21,1,0.0315,0.0220,0,0,180.0*
21,1,0.0220,0.0315,0,0,180.0*
1,1,0.0094,-0.0110,0.0110*
1,1,0.0094,0.0110,0.0110*
1,1,0.0094,0.0110,-0.0110*
1,1,0.0094,-0.0110,-0.0110*
%
%ADD36ROUNDEDRECTD36*%
G04:AMPARAMS|DCode=37|XSize=35.4mil|YSize=51.2mil|CornerRadius=2.7mil|HoleSize=0mil|Usage=FLASHONLY|Rotation=0.000|XOffset=0mil|YOffset=0mil|HoleType=Round|Shape=RoundedRectangle|*
%AMROUNDEDRECTD37*
21,1,0.0354,0.0459,0,0,0.0*
21,1,0.0301,0.0512,0,0,0.0*
1,1,0.0053,0.0151,-0.0229*
1,1,0.0053,-0.0151,-0.0229*
1,1,0.0053,-0.0151,0.0229*
1,1,0.0053,0.0151,0.0229*
%
%ADD37ROUNDEDRECTD37*%
G04:AMPARAMS|DCode=38|XSize=35.4mil|YSize=51.2mil|CornerRadius=8.9mil|HoleSize=0mil|Usage=FLASHONLY|Rotation=0.000|XOffset=0mil|YOffset=0mil|HoleType=Round|Shape=RoundedRectangle|*
%AMROUNDEDRECTD38*
21,1,0.0354,0.0335,0,0,0.0*
21,1,0.0177,0.0512,0,0,0.0*
1,1,0.0177,0.0089,-0.0167*
1,1,0.0177,-0.0089,-0.0167*
1,1,0.0177,-0.0089,0.0167*
1,1,0.0177,0.0089,0.0167*
%
%ADD38ROUNDEDRECTD38*%
%ADD39C,0.0591*%
%ADD76C,0.2362*%
%ADD77C,0.1181*%
%ADD78C,0.0394*%
%ADD79C,0.0787*%
%ADD80C,0.1575*%
%ADD81O,0.0591X0.0709*%
G04:AMPARAMS|DCode=82|XSize=59.1mil|YSize=70.9mil|CornerRadius=14.8mil|HoleSize=0mil|Usage=FLASHONLY|Rotation=180.000|XOffset=0mil|YOffset=0mil|HoleType=Round|Shape=RoundedRectangle|*
%AMROUNDEDRECTD82*
21,1,0.0591,0.0413,0,0,180.0*
21,1,0.0295,0.0709,0,0,180.0*
1,1,0.0295,-0.0148,0.0207*
1,1,0.0295,0.0148,0.0207*
1,1,0.0295,0.0148,-0.0207*
1,1,0.0295,-0.0148,-0.0207*
%
%ADD82ROUNDEDRECTD82*%
%ADD83C,0.0945*%
G04:AMPARAMS|DCode=84|XSize=94.5mil|YSize=94.5mil|CornerRadius=9.4mil|HoleSize=0mil|Usage=FLASHONLY|Rotation=270.000|XOffset=0mil|YOffset=0mil|HoleType=Round|Shape=RoundedRectangle|*
%AMROUNDEDRECTD84*
21,1,0.0945,0.0756,0,0,270.0*
21,1,0.0756,0.0945,0,0,270.0*
1,1,0.0189,-0.0378,-0.0378*
1,1,0.0189,-0.0378,0.0378*
1,1,0.0189,0.0378,0.0378*
1,1,0.0189,0.0378,-0.0378*
%
%ADD84ROUNDEDRECTD84*%
%ADD85C,0.1654*%
%ADD86C,0.0787*%
G04:AMPARAMS|DCode=87|XSize=78.7mil|YSize=78.7mil|CornerRadius=11.8mil|HoleSize=0mil|Usage=FLASHONLY|Rotation=90.000|XOffset=0mil|YOffset=0mil|HoleType=Round|Shape=RoundedRectangle|*
%AMROUNDEDRECTD87*
21,1,0.0787,0.0551,0,0,90.0*
21,1,0.0551,0.0787,0,0,90.0*
1,1,0.0236,0.0276,0.0276*
1,1,0.0236,0.0276,-0.0276*
1,1,0.0236,-0.0276,-0.0276*
1,1,0.0236,-0.0276,0.0276*
%
%ADD87ROUNDEDRECTD87*%
G04:AMPARAMS|DCode=88|XSize=98.4mil|YSize=177.2mil|CornerRadius=49.2mil|HoleSize=0mil|Usage=FLASHONLY|Rotation=135.000|XOffset=0mil|YOffset=0mil|HoleType=Round|Shape=RoundedRectangle|*
%AMROUNDEDRECTD88*
21,1,0.0984,0.0787,0,0,135.0*
21,1,0.0000,0.1772,0,0,135.0*
1,1,0.0984,0.0278,0.0278*
1,1,0.0984,0.0278,0.0278*
1,1,0.0984,-0.0278,-0.0278*
1,1,0.0984,-0.0278,-0.0278*
%
%ADD88ROUNDEDRECTD88*%
%ADD89O,0.1772X0.0984*%
G04:AMPARAMS|DCode=90|XSize=98.4mil|YSize=177.2mil|CornerRadius=0mil|HoleSize=0mil|Usage=FLASHONLY|Rotation=45.000|XOffset=0mil|YOffset=0mil|HoleType=Round|Shape=Round|*
%AMOVALD90*
21,1,0.0787,0.0984,0.0000,0.0000,135.0*
1,1,0.0984,0.0278,-0.0278*
1,1,0.0984,-0.0278,0.0278*
%
%ADD90OVALD90*%

G04:AMPARAMS|DCode=91|XSize=126mil|YSize=196.9mil|CornerRadius=18.9mil|HoleSize=0mil|Usage=FLASHONLY|Rotation=0.000|XOffset=0mil|YOffset=0mil|HoleType=Round|Shape=RoundedRectangle|*
%AMROUNDEDRECTD91*
21,1,0.1260,0.1591,0,0,0.0*
21,1,0.0882,0.1969,0,0,0.0*
1,1,0.0378,0.0441,-0.0795*
1,1,0.0378,-0.0441,-0.0795*
1,1,0.0378,-0.0441,0.0795*
1,1,0.0378,0.0441,0.0795*
%
%ADD91ROUNDEDRECTD91*%
G04:AMPARAMS|DCode=92|XSize=126mil|YSize=196.9mil|CornerRadius=63mil|HoleSize=0mil|Usage=FLASHONLY|Rotation=0.000|XOffset=0mil|YOffset=0mil|HoleType=Round|Shape=RoundedRectangle|*
%AMROUNDEDRECTD92*
21,1,0.1260,0.0709,0,0,0.0*
21,1,0.0000,0.1969,0,0,0.0*
1,1,0.1260,0.0000,-0.0354*
1,1,0.1260,0.0000,-0.0354*
1,1,0.1260,0.0000,0.0354*
1,1,0.1260,0.0000,0.0354*
%
%ADD92ROUNDEDRECTD92*%
%ADD93C,0.0984*%
%ADD94C,0.0157*%
%ADD95C,0.0276*%
G36*
X2711Y-2010D02*
X2684Y-2055D01*
X2635Y-2040D01*
X2519Y-2028D01*
X2404Y-2040D01*
X2292Y-2073D01*
X2190Y-2128D01*
X2100Y-2202D01*
X2026Y-2292D01*
X1971Y-2395D01*
X1937Y-2506D01*
X1926Y-2622D01*
X1937Y-2737D01*
X1949Y-2776D01*
X1905Y-2802D01*
X1382Y-2279D01*
Y-1575D01*
X1367Y-1498D01*
X1323Y-1433D01*
X924Y-1034D01*
X944Y-988D01*
X1689D01*
X2711Y-2010D01*
D02*
G37*
G36*
X-16187D02*
X-16213Y-2055D01*
X-16262Y-2040D01*
X-16378Y-2028D01*
X-16494Y-2040D01*
X-16605Y-2073D01*
X-16708Y-2128D01*
X-16798Y-2202D01*
X-16872Y-2292D01*
X-16926Y-2395D01*
X-16960Y-2506D01*
X-16972Y-2622D01*
X-16960Y-2737D01*
X-16949Y-2776D01*
X-16993Y-2802D01*
X-17516Y-2279D01*
Y-1575D01*
X-17531Y-1498D01*
X-17575Y-1433D01*
X-17973Y-1034D01*
X-17954Y-988D01*
X-17209D01*
X-16187Y-2010D01*
D02*
G37*
G36*
X23667Y-189D02*
X23956Y-247D01*
X24237Y-332D01*
X24508Y-444D01*
X24767Y-583D01*
X25011Y-746D01*
X25238Y-932D01*
X25446Y-1140D01*
X25632Y-1367D01*
X25795Y-1611D01*
X25934Y-1870D01*
X26046Y-2141D01*
X26131Y-2422D01*
X26189Y-2711D01*
X26217Y-3003D01*
X26217Y-3150D01*
Y-15254D01*
X24137D01*
Y-13925D01*
X24124Y-13826D01*
X24086Y-13733D01*
X24024Y-13653D01*
X23945Y-13592D01*
X23893Y-13570D01*
X23834Y-13512D01*
X23802Y-13490D01*
X23763Y-13482D01*
X23546D01*
Y-13091D01*
X23546Y-13091D01*
X23536Y-13013D01*
X23527Y-12991D01*
Y-12888D01*
X23526Y-12886D01*
Y-12685D01*
X23530Y-12684D01*
X23576Y-12677D01*
X23603Y-12716D01*
X23651Y-12749D01*
X23709Y-12760D01*
X23713D01*
X23740Y-12810D01*
X23728Y-12828D01*
X23716Y-12888D01*
Y-13041D01*
X23996D01*
X24276D01*
Y-12888D01*
X24264Y-12828D01*
X24230Y-12777D01*
X24180Y-12744D01*
X24120Y-12732D01*
X24085D01*
X24059Y-12682D01*
X24068Y-12668D01*
X24079Y-12610D01*
Y-12549D01*
X23819D01*
Y-12500D01*
X23770D01*
Y-12240D01*
X23709D01*
X23651Y-12251D01*
X23603Y-12284D01*
X23570Y-12332D01*
X23559Y-12390D01*
Y-12395D01*
X23509Y-12405D01*
X23486Y-12351D01*
X23477Y-12339D01*
X23476Y-12333D01*
X23444Y-12285D01*
X23395Y-12253D01*
X23389Y-12251D01*
X23377Y-12242D01*
X23305Y-12212D01*
X23228Y-12202D01*
X23151Y-12212D01*
X23079Y-12242D01*
X23067Y-12251D01*
X23061Y-12253D01*
X23013Y-12285D01*
X22981Y-12333D01*
X22980Y-12339D01*
X22970Y-12351D01*
X22941Y-12423D01*
X22931Y-12500D01*
Y-13071D01*
X22941Y-13148D01*
X22950Y-13171D01*
Y-13482D01*
X20276D01*
X20237Y-13490D01*
X20205Y-13512D01*
X20183Y-13544D01*
X20175Y-13583D01*
Y-13806D01*
X20167Y-13826D01*
X20154Y-13925D01*
Y-15021D01*
X19003D01*
X18999Y-15016D01*
Y-14616D01*
X20422Y-13193D01*
X20795D01*
X20814Y-13221D01*
X20853Y-13247D01*
X20899Y-13256D01*
X21109D01*
X21155Y-13247D01*
X21194Y-13221D01*
X21220Y-13183D01*
X21229Y-13137D01*
Y-12847D01*
X21220Y-12802D01*
X21205Y-12779D01*
Y-12464D01*
X21207D01*
X21266Y-12452D01*
X21316Y-12418D01*
X21349Y-12368D01*
X21361Y-12309D01*
Y-11904D01*
X21349Y-11844D01*
X21316Y-11794D01*
X21308Y-11789D01*
Y-11595D01*
X21356Y-11563D01*
X21389Y-11514D01*
X21401Y-11456D01*
Y-11267D01*
X21447Y-11248D01*
X21513Y-11314D01*
Y-11456D01*
X21524Y-11514D01*
X21557Y-11563D01*
X21605Y-11595D01*
Y-11789D01*
X21597Y-11794D01*
X21564Y-11844D01*
X21552Y-11904D01*
Y-12309D01*
X21564Y-12368D01*
X21597Y-12418D01*
X21648Y-12452D01*
X21683Y-12459D01*
Y-12967D01*
X21684Y-12970D01*
Y-13094D01*
X21696Y-13156D01*
X21732Y-13209D01*
X21785Y-13245D01*
X21847Y-13257D01*
X21971D01*
X22034Y-13245D01*
X22087Y-13209D01*
X22123Y-13156D01*
X22135Y-13094D01*
Y-12891D01*
X22123Y-12828D01*
X22087Y-12775D01*
X22085Y-12773D01*
Y-12388D01*
X22097Y-12368D01*
X22109Y-12309D01*
Y-11904D01*
X22097Y-11844D01*
X22064Y-11794D01*
X22014Y-11761D01*
X22007Y-11759D01*
Y-11561D01*
X22039Y-11514D01*
X22050Y-11456D01*
Y-11182D01*
X22039Y-11124D01*
X22006Y-11075D01*
X21957Y-11042D01*
X21899Y-11031D01*
X21797D01*
X21549Y-10783D01*
X21484Y-10740D01*
X21407Y-10724D01*
X19051D01*
X19031Y-10705D01*
X18945Y-10669D01*
X18851D01*
X18764Y-10705D01*
X18745Y-10724D01*
X17963D01*
X17886Y-10740D01*
X17821Y-10783D01*
X17573Y-11031D01*
X17471D01*
X17413Y-11042D01*
X17364Y-11075D01*
X17331Y-11124D01*
X17320Y-11182D01*
Y-11456D01*
X17331Y-11514D01*
X17364Y-11563D01*
X17341Y-11607D01*
X17101Y-11848D01*
X17016D01*
X16959Y-11859D01*
X16911Y-11891D01*
X16879Y-11939D01*
X16867Y-11996D01*
Y-12217D01*
X16879Y-12273D01*
X16911Y-12322D01*
X16959Y-12354D01*
X17016Y-12365D01*
X17236D01*
X17293Y-12354D01*
X17312Y-12341D01*
X17362Y-12368D01*
Y-12370D01*
X17398Y-12457D01*
X17465Y-12523D01*
X17551Y-12559D01*
X17645D01*
X17732Y-12523D01*
X17799Y-12457D01*
X17834Y-12371D01*
X17889Y-12316D01*
X17915Y-12334D01*
X17973Y-12345D01*
X18247D01*
X18305Y-12334D01*
X18354Y-12301D01*
X18386Y-12253D01*
X18482D01*
X18487Y-12261D01*
X18537Y-12294D01*
X18596Y-12306D01*
X19002D01*
X19061Y-12294D01*
X19111Y-12261D01*
X19133Y-12228D01*
X19325D01*
X19339Y-12248D01*
X19379Y-12275D01*
X19427Y-12285D01*
X19734D01*
X19781Y-12275D01*
X19822Y-12248D01*
X19849Y-12208D01*
X19858Y-12160D01*
Y-11893D01*
X19849Y-11845D01*
X19822Y-11805D01*
X19781Y-11778D01*
X19734Y-11768D01*
X19427D01*
X19379Y-11778D01*
X19339Y-11805D01*
X19324Y-11826D01*
X19133D01*
X19111Y-11794D01*
X19061Y-11761D01*
X19002Y-11749D01*
X18596D01*
X18537Y-11761D01*
X18487Y-11794D01*
X18454Y-11844D01*
X18452Y-11851D01*
X18353D01*
X18311Y-11824D01*
Y-11607D01*
X18355D01*
X18413Y-11596D01*
X18462Y-11563D01*
X18495Y-11514D01*
X18507Y-11456D01*
Y-11182D01*
X18503Y-11165D01*
X18535Y-11126D01*
X18812D01*
X18851Y-11142D01*
X18945D01*
X18983Y-11126D01*
X19457D01*
X19489Y-11165D01*
X19485Y-11182D01*
Y-11456D01*
X19497Y-11514D01*
X19530Y-11563D01*
X19579Y-11596D01*
X19637Y-11607D01*
X19739D01*
X20168Y-12037D01*
Y-12191D01*
X20154Y-12200D01*
X20115Y-12259D01*
X20101Y-12328D01*
Y-12485D01*
X20115Y-12554D01*
X20154Y-12613D01*
X20213Y-12652D01*
X20282Y-12666D01*
X20479D01*
X20548Y-12652D01*
X20606Y-12613D01*
X20646Y-12554D01*
X20659Y-12485D01*
Y-12328D01*
X20646Y-12259D01*
X20606Y-12200D01*
X20570Y-12176D01*
Y-11954D01*
X20555Y-11877D01*
X20511Y-11812D01*
X20353Y-11653D01*
X20372Y-11607D01*
X20521D01*
X20579Y-11596D01*
X20628Y-11563D01*
X20657Y-11520D01*
X20879D01*
X20907Y-11561D01*
Y-11759D01*
X20900Y-11761D01*
X20849Y-11794D01*
X20816Y-11844D01*
X20804Y-11904D01*
Y-12181D01*
X20803Y-12185D01*
Y-12779D01*
X20795Y-12791D01*
X20339D01*
X20262Y-12807D01*
X20197Y-12850D01*
X18715Y-14332D01*
X17567D01*
X17510Y-14343D01*
X17462Y-14375D01*
X17430Y-14423D01*
X17418Y-14480D01*
Y-14845D01*
X17372Y-14864D01*
X16352Y-13845D01*
X16291Y-13797D01*
X16219Y-13767D01*
X16142Y-13757D01*
X14728D01*
Y-13690D01*
X14715Y-13625D01*
X14678Y-13570D01*
X14623Y-13533D01*
X14558Y-13520D01*
X13774D01*
X13732Y-13474D01*
X13724Y-13436D01*
X13703Y-13403D01*
X13703Y-13403D01*
X13478Y-13179D01*
X13498Y-13127D01*
X13656Y-13096D01*
X13825Y-13026D01*
X13977Y-12925D01*
X14106Y-12796D01*
X14207Y-12644D01*
X14255Y-12527D01*
X14291Y-12494D01*
X14305Y-12497D01*
X14320Y-12501D01*
X14325Y-12501D01*
X14329Y-12502D01*
X15748D01*
X15786Y-12494D01*
X15819Y-12473D01*
X18772Y-9520D01*
X18793Y-9487D01*
X18801Y-9449D01*
X18801Y-5709D01*
X18793Y-5670D01*
X18772Y-5638D01*
X17000Y-3866D01*
X16968Y-3844D01*
X16929Y-3837D01*
X15748D01*
X15710Y-3844D01*
X15677Y-3866D01*
X14299Y-5244D01*
X14277Y-5277D01*
X14270Y-5315D01*
Y-7636D01*
X13078Y-8828D01*
X13029Y-8806D01*
X12999Y-8733D01*
Y-8695D01*
X13028Y-8676D01*
X13067Y-8617D01*
X13081Y-8548D01*
Y-8391D01*
X13067Y-8322D01*
X13028Y-8263D01*
X12969Y-8224D01*
X12900Y-8210D01*
X12703D01*
X12652Y-8220D01*
X12602Y-8190D01*
Y-7681D01*
X12587Y-7604D01*
X12565Y-7571D01*
X12937Y-7198D01*
X12981Y-7133D01*
X12996Y-7056D01*
Y-5204D01*
X13036Y-5196D01*
X13097Y-5155D01*
X13139Y-5093D01*
X13153Y-5020D01*
Y-4843D01*
X13139Y-4770D01*
X13097Y-4708D01*
X13036Y-4666D01*
X12963Y-4652D01*
X12628D01*
X12555Y-4666D01*
X12493Y-4708D01*
X12452Y-4770D01*
X12437Y-4843D01*
Y-5020D01*
X12452Y-5093D01*
X12460Y-5105D01*
X12433Y-5155D01*
X12291D01*
X12259Y-5161D01*
X12223Y-5118D01*
X12244Y-5067D01*
Y-4973D01*
X12208Y-4886D01*
X12142Y-4819D01*
X12055Y-4783D01*
X11961D01*
X11874Y-4819D01*
X11808Y-4886D01*
X11779Y-4955D01*
X11619Y-5115D01*
X11477D01*
X11419Y-5127D01*
X11370Y-5160D01*
X11347Y-5195D01*
X11339Y-5197D01*
X11298D01*
X11291Y-5195D01*
X11268Y-5160D01*
X11218Y-5127D01*
X11160Y-5115D01*
X10887D01*
X10829Y-5127D01*
X10780Y-5160D01*
X10747Y-5209D01*
X10735Y-5267D01*
Y-5501D01*
X10747Y-5559D01*
X10780Y-5608D01*
X10829Y-5641D01*
X10887Y-5653D01*
X11028D01*
X11094Y-5719D01*
X11075Y-5765D01*
X10887D01*
X10829Y-5776D01*
X10780Y-5809D01*
X10747Y-5858D01*
X10735Y-5916D01*
Y-6151D01*
X10747Y-6209D01*
X10780Y-6258D01*
X10823Y-6287D01*
Y-6434D01*
X10821D01*
X10762Y-6446D01*
X10712Y-6479D01*
X10690Y-6512D01*
X10142D01*
X10059Y-6429D01*
Y-6115D01*
X10066Y-6105D01*
X10078Y-6043D01*
Y-5591D01*
X10066Y-5529D01*
X10031Y-5477D01*
X9979Y-5442D01*
X9917Y-5430D01*
X9799D01*
X9738Y-5442D01*
X9686Y-5477D01*
X9651Y-5529D01*
X9639Y-5591D01*
Y-6043D01*
X9651Y-6105D01*
X9658Y-6115D01*
Y-6311D01*
X9559D01*
Y-6115D01*
X9566Y-6105D01*
X9578Y-6043D01*
Y-5591D01*
X9566Y-5529D01*
X9531Y-5477D01*
X9479Y-5442D01*
X9417Y-5430D01*
X9299D01*
X9238Y-5442D01*
X9186Y-5477D01*
X9151Y-5529D01*
X9139Y-5591D01*
Y-6043D01*
X9151Y-6105D01*
X9158Y-6115D01*
Y-6396D01*
X9169Y-6452D01*
X9122Y-6476D01*
X8941Y-6295D01*
X8879Y-6254D01*
X8879Y-6250D01*
X8909Y-6204D01*
X8917D01*
X8979Y-6192D01*
X9031Y-6157D01*
X9066Y-6105D01*
X9078Y-6043D01*
Y-5591D01*
X9066Y-5529D01*
X9031Y-5477D01*
X8979Y-5442D01*
X8917Y-5430D01*
X8799D01*
X8738Y-5442D01*
X8686Y-5477D01*
X8651Y-5529D01*
X8639Y-5591D01*
Y-6043D01*
X8651Y-6105D01*
X8686Y-6157D01*
X8730Y-6186D01*
X8727Y-6222D01*
X8721Y-6236D01*
X8495D01*
X8490Y-6222D01*
X8487Y-6186D01*
X8531Y-6157D01*
X8566Y-6105D01*
X8578Y-6043D01*
Y-5591D01*
X8566Y-5529D01*
X8531Y-5477D01*
X8479Y-5442D01*
X8417Y-5430D01*
X8299D01*
X8238Y-5442D01*
X8186Y-5477D01*
X8151Y-5529D01*
X8139Y-5591D01*
Y-6043D01*
X8151Y-6105D01*
X8186Y-6157D01*
X8230Y-6186D01*
X8227Y-6222D01*
X8221Y-6236D01*
X7995D01*
X7990Y-6222D01*
X7987Y-6186D01*
X8031Y-6157D01*
X8066Y-6105D01*
X8078Y-6043D01*
Y-5591D01*
X8066Y-5529D01*
X8031Y-5477D01*
X7979Y-5442D01*
X7917Y-5430D01*
X7799D01*
X7738Y-5442D01*
X7686Y-5477D01*
X7651Y-5529D01*
X7639Y-5591D01*
Y-6043D01*
X7651Y-6105D01*
X7686Y-6157D01*
X7730Y-6186D01*
X7727Y-6222D01*
X7721Y-6236D01*
X7495D01*
X7490Y-6222D01*
X7487Y-6186D01*
X7531Y-6157D01*
X7566Y-6105D01*
X7578Y-6043D01*
Y-5591D01*
X7566Y-5529D01*
X7531Y-5477D01*
X7479Y-5442D01*
X7417Y-5430D01*
X7299D01*
X7238Y-5442D01*
X7186Y-5477D01*
X7151Y-5529D01*
X7139Y-5591D01*
Y-6043D01*
X7149Y-6096D01*
X7124Y-6118D01*
X7108Y-6125D01*
X6893Y-5910D01*
Y-5769D01*
X6881Y-5711D01*
X6848Y-5662D01*
X6799Y-5629D01*
X6741Y-5617D01*
X6507D01*
X6500Y-5611D01*
Y-4808D01*
X8110Y-3197D01*
X8499Y-3586D01*
X8564Y-3629D01*
X8641Y-3645D01*
X10763D01*
X10790Y-3686D01*
X10787Y-3693D01*
Y-3787D01*
X10809Y-3840D01*
X10771Y-3879D01*
X10722Y-3869D01*
X10525D01*
X10456Y-3883D01*
X10397Y-3922D01*
X10394Y-3928D01*
X8502D01*
X8412Y-3838D01*
X8300Y-3774D01*
X8175Y-3740D01*
X8045D01*
X7920Y-3774D01*
X7808Y-3838D01*
X7716Y-3930D01*
X7652Y-4042D01*
X7618Y-4167D01*
Y-4297D01*
X7652Y-4422D01*
X7716Y-4534D01*
X7808Y-4626D01*
X7920Y-4691D01*
X8045Y-4724D01*
X8175D01*
X8300Y-4691D01*
X8412Y-4626D01*
X8504Y-4534D01*
X8569Y-4422D01*
X8594Y-4330D01*
X10394D01*
X10397Y-4335D01*
X10456Y-4374D01*
X10525Y-4388D01*
X10617D01*
X10636Y-4434D01*
X10216Y-4854D01*
X10173Y-4919D01*
X10158Y-4996D01*
Y-5519D01*
X10151Y-5529D01*
X10139Y-5591D01*
Y-6043D01*
X10151Y-6105D01*
X10186Y-6157D01*
X10238Y-6192D01*
X10299Y-6204D01*
X10417D01*
X10479Y-6192D01*
X10531Y-6157D01*
X10566Y-6105D01*
X10578Y-6043D01*
Y-5591D01*
X10566Y-5529D01*
X10559Y-5519D01*
Y-5079D01*
X11099Y-4539D01*
X11146Y-4558D01*
Y-4643D01*
X11155Y-4690D01*
X11182Y-4731D01*
X11222Y-4758D01*
X11270Y-4767D01*
X11577D01*
X11625Y-4758D01*
X11665Y-4731D01*
X11692Y-4690D01*
X11693Y-4684D01*
X11766D01*
X11813Y-4716D01*
X11871Y-4727D01*
X12145D01*
X12203Y-4716D01*
X12252Y-4683D01*
X12285Y-4634D01*
X12296Y-4576D01*
Y-4342D01*
X12285Y-4284D01*
X12252Y-4234D01*
X12203Y-4202D01*
X12145Y-4190D01*
X11956D01*
X11937Y-4144D01*
X12003Y-4078D01*
X12145D01*
X12203Y-4066D01*
X12252Y-4033D01*
X12285Y-3984D01*
X12296Y-3926D01*
Y-3692D01*
X12339Y-3667D01*
X12368Y-3666D01*
X12438Y-3736D01*
Y-3881D01*
X12448Y-3930D01*
X12476Y-3971D01*
X12517Y-3999D01*
X12566Y-4008D01*
X13025D01*
X13073Y-3999D01*
X13115Y-3971D01*
X13142Y-3930D01*
X13152Y-3881D01*
Y-3580D01*
X13142Y-3531D01*
X13115Y-3490D01*
X13073Y-3462D01*
X13025Y-3452D01*
X12722D01*
X12572Y-3302D01*
X12507Y-3258D01*
X12430Y-3243D01*
X8724D01*
X8311Y-2830D01*
Y-2170D01*
X8386D01*
X8470Y-2153D01*
X8542Y-2105D01*
X8590Y-2033D01*
X8607Y-1949D01*
Y-1398D01*
X8590Y-1313D01*
X8542Y-1242D01*
X8470Y-1194D01*
X8386Y-1177D01*
X7835D01*
X7750Y-1194D01*
X7679Y-1242D01*
X7631Y-1313D01*
X7614Y-1398D01*
Y-1949D01*
X7631Y-2033D01*
X7679Y-2105D01*
X7750Y-2153D01*
X7835Y-2170D01*
X7910D01*
Y-2830D01*
X6216Y-4524D01*
X5792D01*
X1914Y-645D01*
X1848Y-602D01*
X1772Y-587D01*
X-787D01*
X-864Y-602D01*
X-929Y-645D01*
X-2342Y-2058D01*
X-2404Y-2040D01*
X-2519Y-2028D01*
X-2635Y-2040D01*
X-2747Y-2073D01*
X-2849Y-2128D01*
X-2939Y-2202D01*
X-3496Y-2759D01*
X-3570Y-2849D01*
X-3624Y-2951D01*
X-3658Y-3063D01*
X-3670Y-3178D01*
X-3658Y-3294D01*
X-3624Y-3406D01*
X-3570Y-3508D01*
X-3496Y-3598D01*
X-3406Y-3672D01*
X-3303Y-3727D01*
X-3192Y-3760D01*
X-3076Y-3772D01*
X-2960Y-3760D01*
X-2849Y-3727D01*
X-2838Y-3721D01*
X-2794Y-3754D01*
X-2799Y-3780D01*
Y-4230D01*
X-3346D01*
X-3385Y-4238D01*
X-3417Y-4260D01*
X-4008Y-4850D01*
X-4030Y-4883D01*
X-4037Y-4921D01*
Y-12008D01*
X-4030Y-12046D01*
X-4008Y-12079D01*
X-3841Y-12246D01*
X-3841Y-13287D01*
X-3833Y-13326D01*
X-3811Y-13358D01*
X-3516Y-13654D01*
X-3483Y-13675D01*
X-3445Y-13683D01*
X-2165D01*
X-2127Y-13675D01*
X-2094Y-13654D01*
X-126Y-11685D01*
X-104Y-11653D01*
X-97Y-11614D01*
X-97Y-5906D01*
X-104Y-5867D01*
X-126Y-5835D01*
X-1701Y-4260D01*
X-1733Y-4238D01*
X-1772Y-4230D01*
X-2398D01*
Y-3863D01*
X-1630Y-3095D01*
X-1586Y-3030D01*
X-1571Y-2953D01*
Y-2217D01*
X-1031Y-1677D01*
X-983Y-1699D01*
X-987Y-1741D01*
X-976Y-1857D01*
X-942Y-1968D01*
X-887Y-2071D01*
X-813Y-2161D01*
X-723Y-2235D01*
X-621Y-2289D01*
X-509Y-2323D01*
X-394Y-2335D01*
X394D01*
X498Y-2324D01*
X2354Y-4180D01*
X2333Y-4230D01*
X1575D01*
X1536Y-4238D01*
X1504Y-4260D01*
X520Y-5244D01*
X498Y-5277D01*
X490Y-5315D01*
Y-7480D01*
X498Y-7519D01*
X520Y-7551D01*
X2664Y-9696D01*
X2645Y-9742D01*
X1969D01*
X1955Y-9745D01*
X1941Y-9746D01*
X1936Y-9749D01*
X1930Y-9750D01*
X1918Y-9758D01*
X1906Y-9764D01*
X1315Y-10237D01*
X1312Y-10241D01*
X1307Y-10244D01*
X1299Y-10256D01*
X1290Y-10267D01*
X1288Y-10272D01*
X1285Y-10277D01*
X1282Y-10290D01*
X1278Y-10304D01*
X1279Y-10309D01*
X1278Y-10315D01*
X1278Y-15551D01*
X1285Y-15590D01*
X1307Y-15622D01*
X3275Y-17591D01*
X3308Y-17612D01*
X3346Y-17620D01*
X7993D01*
X8004Y-17669D01*
X7658Y-17842D01*
X7605Y-17868D01*
X7494Y-17909D01*
X7378Y-17936D01*
X7261Y-17950D01*
X-7261D01*
X-7378Y-17936D01*
X-7494Y-17909D01*
X-7605Y-17868D01*
X-7658Y-17842D01*
X-8340Y-17501D01*
X-8343Y-17500D01*
X-8344Y-17499D01*
X-8407Y-17470D01*
X-8413Y-17468D01*
X-8419Y-17465D01*
X-8548Y-17418D01*
X-8557Y-17417D01*
X-8566Y-17413D01*
X-8699Y-17381D01*
X-8708Y-17381D01*
X-8717Y-17378D01*
X-8853Y-17362D01*
X-8860Y-17363D01*
X-8867Y-17361D01*
X-8936Y-17359D01*
X-8938Y-17360D01*
X-8940Y-17359D01*
X-13230D01*
X-13257Y-17309D01*
X-13238Y-17280D01*
X-13225Y-17216D01*
Y-16446D01*
X-13238Y-16381D01*
X-13275Y-16326D01*
X-13330Y-16289D01*
X-13395Y-16276D01*
X-14558D01*
X-14623Y-16289D01*
X-14678Y-16326D01*
X-14715Y-16381D01*
X-14728Y-16446D01*
Y-16533D01*
X-16018D01*
X-16620Y-15931D01*
X-16663Y-15898D01*
X-16646Y-15848D01*
X-14055D01*
X-14017Y-15841D01*
X-13984Y-15819D01*
X-13015Y-14850D01*
X-12993Y-14817D01*
X-12985Y-14779D01*
Y-14276D01*
X-12426D01*
X-12245Y-14456D01*
X-12180Y-14499D01*
X-12104Y-14515D01*
X-11865D01*
X-11861Y-14534D01*
X-11828Y-14584D01*
X-11778Y-14617D01*
X-11771Y-14619D01*
Y-14817D01*
X-11802Y-14864D01*
X-11814Y-14922D01*
Y-15196D01*
X-11802Y-15254D01*
X-11770Y-15303D01*
X-11720Y-15336D01*
X-11662Y-15347D01*
X-11428D01*
X-11370Y-15336D01*
X-11321Y-15303D01*
X-11288Y-15254D01*
X-11277Y-15196D01*
Y-14922D01*
X-11288Y-14864D01*
X-11321Y-14815D01*
X-11369Y-14783D01*
Y-14589D01*
X-11361Y-14584D01*
X-11328Y-14534D01*
X-11316Y-14474D01*
Y-14069D01*
X-11328Y-14010D01*
X-11361Y-13960D01*
X-11411Y-13926D01*
X-11447Y-13919D01*
Y-13510D01*
X-11448Y-13506D01*
Y-13503D01*
X-11194Y-13249D01*
X-11014D01*
X-10987Y-13289D01*
X-10984Y-13299D01*
X-10992Y-13339D01*
Y-13451D01*
X-10994Y-13459D01*
X-10992Y-13467D01*
Y-13502D01*
X-10994Y-13510D01*
Y-13919D01*
X-11030Y-13926D01*
X-11080Y-13960D01*
X-11113Y-14010D01*
X-11125Y-14069D01*
Y-14474D01*
X-11113Y-14534D01*
X-11080Y-14584D01*
X-11072Y-14589D01*
Y-14783D01*
X-11120Y-14815D01*
X-11153Y-14864D01*
X-11164Y-14922D01*
Y-15196D01*
X-11153Y-15254D01*
X-11120Y-15303D01*
X-11096Y-15319D01*
Y-15871D01*
X-11757Y-16532D01*
X-12702D01*
X-12788Y-16496D01*
X-12882D01*
X-12968Y-16532D01*
X-13035Y-16598D01*
X-13071Y-16685D01*
Y-16779D01*
X-13035Y-16866D01*
X-12968Y-16933D01*
X-12882Y-16968D01*
X-12788D01*
X-12702Y-16933D01*
X-11674D01*
X-11597Y-16918D01*
X-11532Y-16874D01*
X-10754Y-16096D01*
X-10710Y-16031D01*
X-10695Y-15954D01*
Y-15319D01*
X-10671Y-15303D01*
X-10642Y-15260D01*
X-10421D01*
X-10392Y-15303D01*
X-10342Y-15336D01*
X-10284Y-15347D01*
X-10050D01*
X-9992Y-15336D01*
X-9943Y-15303D01*
X-9910Y-15254D01*
X-9899Y-15196D01*
Y-15008D01*
X-9852Y-14988D01*
X-9786Y-15055D01*
Y-15196D01*
X-9775Y-15254D01*
X-9742Y-15303D01*
X-9693Y-15336D01*
X-9635Y-15347D01*
X-9401D01*
X-9343Y-15336D01*
X-9293Y-15303D01*
X-9261Y-15254D01*
X-9249Y-15196D01*
Y-14922D01*
X-9261Y-14864D01*
X-9293Y-14815D01*
X-9343Y-14782D01*
X-9401Y-14771D01*
X-9503D01*
X-9943Y-14330D01*
Y-13998D01*
X-9918Y-13981D01*
X-9879Y-13922D01*
X-9865Y-13853D01*
Y-13836D01*
X-9865Y-13834D01*
X-9865Y-13832D01*
Y-13696D01*
X-9879Y-13627D01*
X-9918Y-13568D01*
X-9977Y-13529D01*
X-10046Y-13515D01*
X-10243D01*
X-10312Y-13529D01*
X-10370Y-13568D01*
X-10409Y-13627D01*
X-10423Y-13696D01*
Y-13853D01*
X-10409Y-13922D01*
X-10370Y-13981D01*
X-10345Y-13998D01*
Y-14413D01*
X-10330Y-14490D01*
X-10286Y-14555D01*
X-10116Y-14725D01*
X-10136Y-14771D01*
X-10284D01*
X-10342Y-14782D01*
X-10392Y-14815D01*
X-10421Y-14858D01*
X-10642D01*
X-10670Y-14817D01*
Y-14619D01*
X-10663Y-14617D01*
X-10613Y-14584D01*
X-10580Y-14534D01*
X-10568Y-14474D01*
Y-14069D01*
X-10580Y-14010D01*
X-10593Y-13990D01*
Y-13723D01*
X-10578Y-13713D01*
X-10552Y-13675D01*
X-10543Y-13629D01*
Y-13339D01*
X-10551Y-13299D01*
X-10549Y-13289D01*
X-10522Y-13249D01*
X-9660D01*
X-9619Y-13299D01*
X-9625Y-13326D01*
Y-13355D01*
X-9344D01*
X-9063D01*
Y-13326D01*
X-9069Y-13299D01*
X-9028Y-13249D01*
X-8058D01*
X-8036Y-13276D01*
Y-13337D01*
X-7776D01*
Y-13386D01*
X-7726D01*
Y-13646D01*
X-7665D01*
X-7608Y-13635D01*
X-7559Y-13602D01*
X-7527Y-13554D01*
X-7515Y-13496D01*
Y-13434D01*
X-7465Y-13409D01*
X-7444Y-13426D01*
Y-13496D01*
X-7432Y-13553D01*
X-7400Y-13601D01*
X-7352Y-13633D01*
X-7295Y-13645D01*
X-7287D01*
Y-13792D01*
X-7331Y-13821D01*
X-7363Y-13870D01*
X-7375Y-13928D01*
Y-14162D01*
X-7363Y-14220D01*
X-7331Y-14270D01*
X-7281Y-14302D01*
X-7223Y-14314D01*
X-6950D01*
X-6892Y-14302D01*
X-6843Y-14270D01*
X-6810Y-14220D01*
X-6798Y-14162D01*
Y-13928D01*
X-6810Y-13870D01*
X-6843Y-13821D01*
X-6886Y-13792D01*
Y-13484D01*
X-6901Y-13407D01*
X-6926Y-13370D01*
Y-13276D01*
X-6938Y-13219D01*
X-6970Y-13171D01*
X-7018Y-13138D01*
X-7075Y-13127D01*
X-7160D01*
X-7381Y-12906D01*
X-7446Y-12863D01*
X-7522Y-12848D01*
X-11277D01*
X-11354Y-12863D01*
X-11419Y-12906D01*
X-11731Y-13219D01*
X-11735D01*
X-11798Y-13232D01*
X-11851Y-13267D01*
X-11886Y-13320D01*
X-11899Y-13383D01*
Y-13586D01*
X-11886Y-13648D01*
X-11851Y-13701D01*
X-11848Y-13703D01*
Y-13990D01*
X-11861Y-14010D01*
X-11873Y-14069D01*
Y-14113D01*
X-12020D01*
X-12201Y-13933D01*
X-12266Y-13889D01*
X-12343Y-13874D01*
X-12985D01*
Y-13130D01*
X-12988Y-13119D01*
X-12988Y-13108D01*
X-12991Y-13100D01*
X-12993Y-13091D01*
X-12984Y-13055D01*
X-12977Y-13043D01*
X-12970Y-13035D01*
X-12947Y-13026D01*
X-12795Y-12925D01*
X-12666Y-12796D01*
X-12565Y-12644D01*
X-12495Y-12475D01*
X-12459Y-12296D01*
Y-12254D01*
X-13386D01*
Y-12205D01*
X-13435D01*
Y-11278D01*
X-13477D01*
X-13656Y-11314D01*
X-13825Y-11383D01*
X-13927Y-11452D01*
X-13969Y-11480D01*
X-15036Y-10412D01*
X-14327Y-9703D01*
X-14283Y-9638D01*
X-14268Y-9561D01*
Y-5743D01*
X-14232Y-5657D01*
Y-5563D01*
X-14268Y-5476D01*
X-14335Y-5410D01*
X-14422Y-5374D01*
X-14515D01*
X-14602Y-5410D01*
X-14669Y-5476D01*
X-14705Y-5563D01*
Y-5657D01*
X-14669Y-5743D01*
Y-9478D01*
X-15320Y-10129D01*
X-15677Y-9772D01*
X-15710Y-9750D01*
X-15748Y-9742D01*
X-17913D01*
X-17952Y-9750D01*
X-17984Y-9772D01*
X-18944Y-10731D01*
X-18994Y-10711D01*
X-18994Y-4528D01*
X-19002Y-4489D01*
X-19024Y-4457D01*
X-19614Y-3866D01*
X-19647Y-3844D01*
X-19685Y-3837D01*
X-21204D01*
X-21223Y-3790D01*
X-20527Y-3095D01*
X-20484Y-3030D01*
X-20469Y-2953D01*
Y-2217D01*
X-19929Y-1677D01*
X-19881Y-1699D01*
X-19885Y-1741D01*
X-19873Y-1857D01*
X-19840Y-1968D01*
X-19785Y-2071D01*
X-19711Y-2161D01*
X-19621Y-2235D01*
X-19518Y-2289D01*
X-19407Y-2323D01*
X-19291Y-2335D01*
X-18504D01*
X-18400Y-2324D01*
X-16350Y-4374D01*
X-16285Y-4418D01*
X-16208Y-4433D01*
X-15044D01*
X-13488Y-5989D01*
Y-7096D01*
X-13473Y-7173D01*
X-13429Y-7238D01*
X-13192Y-7476D01*
Y-7617D01*
X-13180Y-7675D01*
X-13147Y-7724D01*
X-13098Y-7757D01*
X-13040Y-7769D01*
X-12806D01*
X-12748Y-7757D01*
X-12699Y-7724D01*
X-12666Y-7675D01*
X-12655Y-7617D01*
Y-7344D01*
X-12666Y-7286D01*
X-12699Y-7236D01*
X-12748Y-7204D01*
X-12806Y-7192D01*
X-12908D01*
X-13075Y-7025D01*
X-13052Y-6983D01*
X-13048Y-6980D01*
X-13040Y-6981D01*
X-12806D01*
X-12748Y-6970D01*
X-12699Y-6937D01*
X-12666Y-6888D01*
X-12655Y-6830D01*
Y-6688D01*
X-12588Y-6622D01*
X-12542Y-6641D01*
Y-6830D01*
X-12531Y-6888D01*
X-12498Y-6937D01*
X-12449Y-6970D01*
X-12391Y-6981D01*
X-12156D01*
X-12099Y-6970D01*
X-12049Y-6937D01*
X-12020Y-6894D01*
X-10319D01*
X-9740Y-7473D01*
Y-7665D01*
X-9747Y-7675D01*
X-9759Y-7736D01*
Y-8189D01*
X-9747Y-8250D01*
X-9740Y-8260D01*
Y-8403D01*
X-9907Y-8570D01*
X-10029D01*
X-10087Y-8581D01*
X-10136Y-8614D01*
X-10169Y-8663D01*
X-10180Y-8721D01*
Y-8995D01*
X-10169Y-9053D01*
X-10136Y-9102D01*
X-10087Y-9135D01*
X-10029Y-9147D01*
X-9794D01*
X-9736Y-9135D01*
X-9687Y-9102D01*
X-9654Y-9053D01*
X-9643Y-8995D01*
Y-8873D01*
X-9397Y-8628D01*
X-9354Y-8563D01*
X-9339Y-8486D01*
Y-8260D01*
X-9332Y-8250D01*
X-9320Y-8189D01*
Y-7736D01*
X-9332Y-7675D01*
X-9339Y-7665D01*
Y-7546D01*
X-9292Y-7527D01*
X-9240Y-7579D01*
Y-7665D01*
X-9247Y-7675D01*
X-9259Y-7736D01*
Y-8189D01*
X-9247Y-8250D01*
X-9220Y-8290D01*
Y-8629D01*
X-9243Y-8663D01*
X-9255Y-8721D01*
Y-8995D01*
X-9243Y-9053D01*
X-9211Y-9102D01*
X-9161Y-9135D01*
X-9103Y-9147D01*
X-8869D01*
X-8811Y-9135D01*
X-8762Y-9102D01*
X-8729Y-9053D01*
X-8718Y-8995D01*
Y-8721D01*
X-8729Y-8663D01*
X-8762Y-8614D01*
X-8811Y-8581D01*
X-8819Y-8580D01*
Y-7982D01*
X-8820Y-7978D01*
Y-7736D01*
X-8832Y-7675D01*
X-8839Y-7665D01*
Y-7496D01*
X-8854Y-7419D01*
X-8897Y-7354D01*
X-9504Y-6748D01*
X-9494Y-6718D01*
X-9479Y-6702D01*
X-9424Y-6713D01*
X-9122D01*
X-8981Y-6855D01*
X-8915Y-6898D01*
X-8839Y-6913D01*
X-8208D01*
X-8186Y-6946D01*
X-8136Y-6979D01*
X-8077Y-6991D01*
X-7671D01*
X-7612Y-6979D01*
X-7562Y-6946D01*
X-7532Y-6900D01*
X-7480D01*
X-7471Y-6913D01*
X-7413Y-6952D01*
X-7344Y-6966D01*
X-7315D01*
X-7296Y-7012D01*
X-7352Y-7068D01*
X-7395Y-7133D01*
X-7410Y-7210D01*
Y-7796D01*
X-7395Y-7872D01*
X-7352Y-7938D01*
X-7174Y-8115D01*
Y-8223D01*
X-7206Y-8259D01*
X-7253Y-8261D01*
X-7389Y-8125D01*
Y-8023D01*
X-7400Y-7965D01*
X-7433Y-7915D01*
X-7482Y-7883D01*
X-7540Y-7871D01*
X-7814D01*
X-7872Y-7883D01*
X-7921Y-7915D01*
X-7954Y-7965D01*
X-7966Y-8023D01*
Y-8257D01*
X-7954Y-8315D01*
X-7921Y-8364D01*
X-7872Y-8397D01*
X-7814Y-8408D01*
X-7673D01*
X-7607Y-8475D01*
X-7626Y-8521D01*
X-7814D01*
X-7872Y-8532D01*
X-7921Y-8565D01*
X-7954Y-8614D01*
X-7966Y-8672D01*
Y-8906D01*
X-7954Y-8964D01*
X-7921Y-9014D01*
X-7872Y-9046D01*
X-7814Y-9058D01*
X-7540D01*
X-7482Y-9046D01*
X-7435Y-9015D01*
X-7143D01*
X-7122Y-9046D01*
X-7064Y-9085D01*
X-6994Y-9099D01*
X-6798D01*
X-6729Y-9085D01*
X-6670Y-9046D01*
X-6631Y-8987D01*
X-6617Y-8918D01*
Y-8761D01*
X-6631Y-8692D01*
X-6632Y-8689D01*
X-6616Y-8650D01*
X-6551Y-8606D01*
X-6423Y-8478D01*
X-6377Y-8498D01*
Y-8548D01*
X-6363Y-8618D01*
X-6323Y-8677D01*
X-6264Y-8717D01*
X-6194Y-8731D01*
X-6145D01*
Y-8470D01*
Y-8209D01*
X-6194D01*
X-6245Y-8219D01*
X-6295Y-8188D01*
Y-7681D01*
X-6311Y-7604D01*
X-6333Y-7571D01*
X-5960Y-7198D01*
X-5917Y-7133D01*
X-5902Y-7056D01*
Y-5204D01*
X-5862Y-5196D01*
X-5800Y-5155D01*
X-5759Y-5093D01*
X-5744Y-5020D01*
Y-4843D01*
X-5759Y-4770D01*
X-5800Y-4708D01*
X-5862Y-4666D01*
X-5935Y-4652D01*
X-6270D01*
X-6343Y-4666D01*
X-6405Y-4708D01*
X-6446Y-4770D01*
X-6460Y-4843D01*
Y-5020D01*
X-6446Y-5093D01*
X-6438Y-5105D01*
X-6465Y-5155D01*
X-6606D01*
X-6663Y-5166D01*
X-6711Y-5198D01*
X-6744Y-5246D01*
X-6755Y-5303D01*
Y-5388D01*
X-6983Y-5617D01*
X-7022Y-5585D01*
X-7005Y-5560D01*
X-6994Y-5501D01*
Y-5433D01*
X-7283D01*
Y-5384D01*
X-7333D01*
Y-5114D01*
X-7420D01*
X-7479Y-5125D01*
X-7529Y-5158D01*
X-7552Y-5193D01*
X-7556Y-5195D01*
X-7602Y-5195D01*
X-7607Y-5193D01*
X-7630Y-5160D01*
X-7679Y-5127D01*
X-7737Y-5115D01*
X-8011D01*
X-8069Y-5127D01*
X-8118Y-5160D01*
X-8151Y-5209D01*
X-8162Y-5267D01*
Y-5501D01*
X-8151Y-5559D01*
X-8118Y-5608D01*
X-8069Y-5641D01*
X-8011Y-5653D01*
X-7870D01*
X-7803Y-5719D01*
X-7823Y-5765D01*
X-8011D01*
X-8069Y-5776D01*
X-8118Y-5809D01*
X-8151Y-5858D01*
X-8162Y-5916D01*
Y-6151D01*
X-8151Y-6209D01*
X-8118Y-6258D01*
X-8075Y-6287D01*
Y-6434D01*
X-8077D01*
X-8136Y-6446D01*
X-8186Y-6479D01*
X-8208Y-6512D01*
X-8755D01*
X-8839Y-6429D01*
Y-6115D01*
X-8832Y-6105D01*
X-8820Y-6043D01*
Y-5591D01*
X-8832Y-5529D01*
X-8867Y-5477D01*
X-8919Y-5442D01*
X-8980Y-5430D01*
X-9098D01*
X-9160Y-5442D01*
X-9212Y-5477D01*
X-9247Y-5529D01*
X-9259Y-5591D01*
Y-6043D01*
X-9247Y-6105D01*
X-9240Y-6115D01*
Y-6311D01*
X-9339D01*
Y-6115D01*
X-9332Y-6105D01*
X-9320Y-6043D01*
Y-5591D01*
X-9332Y-5529D01*
X-9367Y-5477D01*
X-9419Y-5442D01*
X-9480Y-5430D01*
X-9598D01*
X-9660Y-5442D01*
X-9712Y-5477D01*
X-9747Y-5529D01*
X-9759Y-5591D01*
Y-6043D01*
X-9747Y-6105D01*
X-9740Y-6115D01*
Y-6396D01*
X-9729Y-6452D01*
X-9775Y-6476D01*
X-9956Y-6295D01*
X-10018Y-6254D01*
X-10019Y-6250D01*
X-9989Y-6204D01*
X-9980D01*
X-9919Y-6192D01*
X-9867Y-6157D01*
X-9832Y-6105D01*
X-9820Y-6043D01*
Y-5591D01*
X-9832Y-5529D01*
X-9867Y-5477D01*
X-9919Y-5442D01*
X-9980Y-5430D01*
X-10098D01*
X-10160Y-5442D01*
X-10212Y-5477D01*
X-10247Y-5529D01*
X-10259Y-5591D01*
Y-6043D01*
X-10247Y-6105D01*
X-10212Y-6157D01*
X-10168Y-6186D01*
X-10171Y-6222D01*
X-10176Y-6236D01*
X-10403D01*
X-10408Y-6222D01*
X-10411Y-6186D01*
X-10367Y-6157D01*
X-10332Y-6105D01*
X-10320Y-6043D01*
Y-5591D01*
X-10332Y-5529D01*
X-10367Y-5477D01*
X-10419Y-5442D01*
X-10480Y-5430D01*
X-10598D01*
X-10660Y-5442D01*
X-10712Y-5477D01*
X-10747Y-5529D01*
X-10759Y-5591D01*
Y-6043D01*
X-10747Y-6105D01*
X-10712Y-6157D01*
X-10668Y-6186D01*
X-10671Y-6222D01*
X-10676Y-6236D01*
X-10903D01*
X-10908Y-6222D01*
X-10911Y-6186D01*
X-10867Y-6157D01*
X-10832Y-6105D01*
X-10820Y-6043D01*
Y-5591D01*
X-10832Y-5529D01*
X-10867Y-5477D01*
X-10919Y-5442D01*
X-10980Y-5430D01*
X-11098D01*
X-11160Y-5442D01*
X-11212Y-5477D01*
X-11247Y-5529D01*
X-11259Y-5591D01*
Y-6043D01*
X-11247Y-6105D01*
X-11212Y-6157D01*
X-11168Y-6186D01*
X-11171Y-6222D01*
X-11176Y-6236D01*
X-11403D01*
X-11408Y-6222D01*
X-11411Y-6186D01*
X-11367Y-6157D01*
X-11332Y-6105D01*
X-11320Y-6043D01*
Y-5591D01*
X-11332Y-5529D01*
X-11367Y-5477D01*
X-11419Y-5442D01*
X-11480Y-5430D01*
X-11598D01*
X-11660Y-5442D01*
X-11712Y-5477D01*
X-11747Y-5529D01*
X-11759Y-5591D01*
Y-6043D01*
X-11749Y-6096D01*
X-11774Y-6118D01*
X-11790Y-6125D01*
X-12005Y-5910D01*
Y-5769D01*
X-12017Y-5711D01*
X-12049Y-5662D01*
X-12099Y-5629D01*
X-12156Y-5617D01*
X-12391D01*
X-12398Y-5611D01*
Y-4808D01*
X-10787Y-3197D01*
X-10418Y-3567D01*
X-10352Y-3611D01*
X-10276Y-3626D01*
X-7783D01*
X-7752Y-3665D01*
X-7755Y-3680D01*
Y-3710D01*
X-7474D01*
Y-3808D01*
X-7755D01*
Y-3838D01*
X-7741Y-3907D01*
X-7738Y-3911D01*
X-7754Y-3948D01*
X-7819Y-3992D01*
X-7949Y-4122D01*
X-7995Y-4102D01*
Y-4050D01*
X-8009Y-3981D01*
X-8048Y-3922D01*
X-8106Y-3883D01*
X-8176Y-3869D01*
X-8372D01*
X-8442Y-3883D01*
X-8500Y-3922D01*
X-8504Y-3928D01*
X-9444D01*
X-9521Y-3943D01*
X-9586Y-3987D01*
X-9630Y-4032D01*
X-10335D01*
X-10394Y-3930D01*
X-10485Y-3838D01*
X-10597Y-3774D01*
X-10723Y-3740D01*
X-10852D01*
X-10977Y-3774D01*
X-11090Y-3838D01*
X-11181Y-3930D01*
X-11246Y-4042D01*
X-11280Y-4167D01*
Y-4297D01*
X-11246Y-4422D01*
X-11181Y-4534D01*
X-11090Y-4626D01*
X-10977Y-4691D01*
X-10852Y-4724D01*
X-10723D01*
X-10597Y-4691D01*
X-10485Y-4626D01*
X-10394Y-4534D01*
X-10335Y-4433D01*
X-9547D01*
X-9470Y-4418D01*
X-9405Y-4374D01*
X-9361Y-4330D01*
X-8504D01*
X-8500Y-4335D01*
X-8442Y-4374D01*
X-8372Y-4388D01*
X-8281D01*
X-8262Y-4434D01*
X-8681Y-4854D01*
X-8725Y-4919D01*
X-8740Y-4996D01*
Y-5519D01*
X-8747Y-5529D01*
X-8759Y-5591D01*
Y-6043D01*
X-8747Y-6105D01*
X-8712Y-6157D01*
X-8660Y-6192D01*
X-8598Y-6204D01*
X-8480D01*
X-8419Y-6192D01*
X-8367Y-6157D01*
X-8332Y-6105D01*
X-8320Y-6043D01*
Y-5591D01*
X-8332Y-5529D01*
X-8339Y-5519D01*
Y-5079D01*
X-7798Y-4539D01*
X-7752Y-4558D01*
Y-4643D01*
X-7743Y-4690D01*
X-7716Y-4731D01*
X-7675Y-4758D01*
X-7628Y-4767D01*
X-7320D01*
X-7273Y-4758D01*
X-7232Y-4731D01*
X-7206Y-4690D01*
X-7204Y-4684D01*
X-7131D01*
X-7085Y-4716D01*
X-7027Y-4727D01*
X-6753D01*
X-6695Y-4716D01*
X-6646Y-4683D01*
X-6613Y-4634D01*
X-6601Y-4576D01*
Y-4342D01*
X-6613Y-4284D01*
X-6646Y-4234D01*
X-6695Y-4202D01*
X-6753Y-4190D01*
X-6941D01*
X-6960Y-4144D01*
X-6894Y-4078D01*
X-6753D01*
X-6695Y-4066D01*
X-6646Y-4033D01*
X-6613Y-3984D01*
X-6601Y-3926D01*
Y-3692D01*
X-6558Y-3662D01*
X-6535Y-3660D01*
X-6459Y-3736D01*
Y-3881D01*
X-6449Y-3930D01*
X-6422Y-3971D01*
X-6380Y-3999D01*
X-6332Y-4008D01*
X-5873D01*
X-5824Y-3999D01*
X-5783Y-3971D01*
X-5755Y-3930D01*
X-5746Y-3881D01*
Y-3580D01*
X-5755Y-3531D01*
X-5783Y-3490D01*
X-5824Y-3462D01*
X-5873Y-3452D01*
X-6175D01*
X-6344Y-3283D01*
X-6409Y-3240D01*
X-6486Y-3224D01*
X-10192D01*
X-10587Y-2830D01*
Y-2170D01*
X-10512D01*
X-10427Y-2153D01*
X-10356Y-2105D01*
X-10308Y-2033D01*
X-10291Y-1949D01*
Y-1398D01*
X-10308Y-1313D01*
X-10356Y-1242D01*
X-10427Y-1194D01*
X-10512Y-1177D01*
X-11063D01*
X-11147Y-1194D01*
X-11219Y-1242D01*
X-11267Y-1313D01*
X-11284Y-1398D01*
Y-1949D01*
X-11267Y-2033D01*
X-11219Y-2105D01*
X-11147Y-2153D01*
X-11063Y-2170D01*
X-10988D01*
Y-2830D01*
X-12682Y-4524D01*
X-13106D01*
X-16984Y-645D01*
X-17049Y-602D01*
X-17126Y-587D01*
X-19685D01*
X-19762Y-602D01*
X-19827Y-645D01*
X-21240Y-2058D01*
X-21301Y-2040D01*
X-21417Y-2028D01*
X-21533Y-2040D01*
X-21644Y-2073D01*
X-21747Y-2128D01*
X-21837Y-2202D01*
X-22393Y-2759D01*
X-22467Y-2849D01*
X-22522Y-2951D01*
X-22556Y-3063D01*
X-22567Y-3178D01*
X-22556Y-3294D01*
X-22522Y-3406D01*
X-22467Y-3508D01*
X-22393Y-3598D01*
X-22304Y-3672D01*
X-22201Y-3727D01*
X-22090Y-3760D01*
X-21974Y-3772D01*
X-21858Y-3760D01*
X-21747Y-3727D01*
X-21736Y-3721D01*
X-21692Y-3754D01*
X-21697Y-3780D01*
Y-3837D01*
X-22638D01*
X-22676Y-3844D01*
X-22709Y-3866D01*
X-23693Y-4850D01*
X-23715Y-4883D01*
X-23722Y-4921D01*
Y-10335D01*
X-23769Y-10354D01*
X-23819Y-10304D01*
X-23970Y-10202D01*
X-24139Y-10132D01*
X-24318Y-10097D01*
X-24360D01*
Y-11024D01*
Y-11950D01*
X-24318D01*
X-24139Y-11915D01*
X-23970Y-11845D01*
X-23819Y-11743D01*
X-23769Y-11693D01*
X-23722Y-11713D01*
Y-12008D01*
X-23715Y-12046D01*
X-23693Y-12079D01*
X-23461Y-12311D01*
X-23476Y-12333D01*
X-23477Y-12339D01*
X-23486Y-12351D01*
X-23509Y-12405D01*
X-23559Y-12395D01*
Y-12390D01*
X-23570Y-12332D01*
X-23603Y-12284D01*
X-23651Y-12251D01*
X-23709Y-12240D01*
X-23770D01*
Y-12500D01*
X-23819D01*
Y-12549D01*
X-24079D01*
Y-12610D01*
X-24068Y-12668D01*
X-24059Y-12682D01*
X-24085Y-12732D01*
X-24120D01*
X-24180Y-12744D01*
X-24230Y-12777D01*
X-24264Y-12828D01*
X-24276Y-12888D01*
Y-13041D01*
X-23996D01*
Y-13140D01*
X-24276D01*
Y-13293D01*
X-24264Y-13353D01*
X-24230Y-13404D01*
X-24180Y-13438D01*
X-24120Y-13449D01*
X-24084D01*
X-24068Y-13499D01*
X-24087Y-13512D01*
X-24108Y-13544D01*
X-24116Y-13583D01*
Y-13806D01*
X-24124Y-13826D01*
X-24137Y-13925D01*
Y-15254D01*
X-26217D01*
Y-3150D01*
X-26217Y-3003D01*
X-26189Y-2711D01*
X-26131Y-2422D01*
X-26046Y-2141D01*
X-25934Y-1870D01*
X-25795Y-1611D01*
X-25632Y-1367D01*
X-25446Y-1140D01*
X-25238Y-932D01*
X-25011Y-746D01*
X-24767Y-583D01*
X-24508Y-444D01*
X-24237Y-332D01*
X-23956Y-247D01*
X-23667Y-189D01*
X-23375Y-161D01*
X23375D01*
X23667Y-189D01*
D02*
G37*
G36*
X5567Y-4866D02*
X5632Y-4910D01*
X5709Y-4925D01*
X6099D01*
Y-5611D01*
X6092Y-5617D01*
X5987D01*
X4056Y-3686D01*
X3991Y-3643D01*
X3914Y-3627D01*
X3536D01*
X3513Y-3577D01*
X3570Y-3508D01*
X3624Y-3406D01*
X3658Y-3294D01*
X3670Y-3178D01*
X3658Y-3063D01*
X3643Y-3014D01*
X3688Y-2987D01*
X5567Y-4866D01*
D02*
G37*
G36*
X-13331D02*
X-13266Y-4910D01*
X-13189Y-4925D01*
X-12799D01*
Y-5611D01*
X-12806Y-5617D01*
X-12908D01*
X-14730Y-3795D01*
X-14795Y-3752D01*
X-14872Y-3736D01*
X-15506D01*
X-15519Y-3686D01*
X-15492Y-3672D01*
X-15402Y-3598D01*
X-15328Y-3508D01*
X-15273Y-3406D01*
X-15239Y-3294D01*
X-15228Y-3178D01*
X-15239Y-3063D01*
X-15254Y-3014D01*
X-15210Y-2987D01*
X-13331Y-4866D01*
D02*
G37*
G36*
X6355Y-6641D02*
Y-6830D01*
X6367Y-6888D01*
X6400Y-6937D01*
X6449Y-6970D01*
X6507Y-6981D01*
X6741D01*
X6799Y-6970D01*
X6848Y-6937D01*
X6877Y-6894D01*
X8578D01*
X9158Y-7473D01*
Y-7665D01*
X9151Y-7675D01*
X9139Y-7736D01*
Y-8189D01*
X9151Y-8250D01*
X9158Y-8260D01*
Y-8403D01*
X8991Y-8570D01*
X8869D01*
X8811Y-8581D01*
X8762Y-8614D01*
X8729Y-8663D01*
X8718Y-8721D01*
Y-8995D01*
X8686Y-9034D01*
X8637D01*
X8605Y-8995D01*
Y-8721D01*
X8594Y-8663D01*
X8561Y-8614D01*
X8512Y-8581D01*
X8454Y-8570D01*
X8219D01*
X8162Y-8581D01*
X8112Y-8614D01*
X8083Y-8658D01*
X6678D01*
X6611Y-8630D01*
X6599Y-8606D01*
X6630Y-8556D01*
X6741D01*
X6799Y-8545D01*
X6848Y-8512D01*
X6881Y-8463D01*
X6893Y-8405D01*
Y-8131D01*
X6881Y-8073D01*
X6848Y-8024D01*
X6825Y-8008D01*
Y-7740D01*
X6848Y-7724D01*
X6877Y-7681D01*
X7128D01*
X7139Y-7695D01*
Y-8230D01*
X7148Y-8276D01*
X7174Y-8314D01*
X7213Y-8340D01*
X7258Y-8349D01*
X7459D01*
X7504Y-8340D01*
X7542Y-8314D01*
X7568Y-8276D01*
X7577Y-8230D01*
Y-7719D01*
X7592Y-7714D01*
X7610Y-7723D01*
X7639Y-7751D01*
Y-8189D01*
X7651Y-8250D01*
X7686Y-8303D01*
X7738Y-8337D01*
X7799Y-8350D01*
X7917D01*
X7979Y-8337D01*
X8031Y-8303D01*
X8066Y-8250D01*
X8078Y-8189D01*
Y-7736D01*
X8103Y-7726D01*
X8139Y-7768D01*
Y-8189D01*
X8151Y-8250D01*
X8186Y-8303D01*
X8238Y-8337D01*
X8299Y-8350D01*
X8417D01*
X8479Y-8337D01*
X8531Y-8303D01*
X8566Y-8250D01*
X8578Y-8189D01*
Y-7797D01*
X8628Y-7769D01*
X8639Y-7775D01*
X8639Y-7776D01*
Y-8189D01*
X8651Y-8250D01*
X8686Y-8303D01*
X8738Y-8337D01*
X8799Y-8350D01*
X8917D01*
X8979Y-8337D01*
X9031Y-8303D01*
X9066Y-8250D01*
X9078Y-8189D01*
Y-7736D01*
X9066Y-7675D01*
X9055Y-7660D01*
X9044Y-7600D01*
X9000Y-7535D01*
X8803Y-7338D01*
X8738Y-7295D01*
X8661Y-7280D01*
X6877D01*
X6848Y-7236D01*
X6799Y-7204D01*
X6741Y-7192D01*
X6507D01*
X6449Y-7204D01*
X6400Y-7236D01*
X6367Y-7286D01*
X6355Y-7344D01*
Y-7617D01*
X6367Y-7675D01*
X6400Y-7724D01*
X6423Y-7740D01*
Y-8008D01*
X6400Y-8024D01*
X6367Y-8073D01*
X6355Y-8131D01*
Y-8319D01*
X6309Y-8338D01*
X6243Y-8272D01*
Y-8131D01*
X6232Y-8073D01*
X6199Y-8024D01*
X6150Y-7991D01*
X6092Y-7979D01*
X5970D01*
X5798Y-7808D01*
X5823Y-7762D01*
X5857Y-7769D01*
X6092D01*
X6150Y-7757D01*
X6199Y-7724D01*
X6232Y-7675D01*
X6243Y-7617D01*
Y-7344D01*
X6232Y-7286D01*
X6199Y-7236D01*
X6150Y-7204D01*
X6092Y-7192D01*
X5990D01*
X5823Y-7025D01*
X5846Y-6983D01*
X5850Y-6980D01*
X5857Y-6981D01*
X6092D01*
X6150Y-6970D01*
X6199Y-6937D01*
X6232Y-6888D01*
X6243Y-6830D01*
Y-6688D01*
X6309Y-6622D01*
X6355Y-6641D01*
D02*
G37*
G36*
X11426Y-6913D02*
X11485Y-6952D01*
X11554Y-6966D01*
X11583D01*
X11602Y-7012D01*
X11546Y-7068D01*
X11502Y-7133D01*
X11487Y-7210D01*
Y-7796D01*
X11502Y-7872D01*
X11546Y-7938D01*
X11724Y-8115D01*
Y-8223D01*
X11691Y-8259D01*
X11645Y-8261D01*
X11509Y-8125D01*
Y-8023D01*
X11497Y-7965D01*
X11464Y-7915D01*
X11415Y-7883D01*
X11357Y-7871D01*
X11084D01*
X11026Y-7883D01*
X10977Y-7915D01*
X10944Y-7965D01*
X10932Y-8023D01*
Y-8257D01*
X10944Y-8315D01*
X10977Y-8364D01*
X11026Y-8397D01*
X11084Y-8408D01*
X11225D01*
X11291Y-8475D01*
X11272Y-8521D01*
X11084D01*
X11026Y-8532D01*
X10977Y-8565D01*
X10944Y-8614D01*
X10932Y-8672D01*
Y-8906D01*
X10944Y-8964D01*
X10956Y-8984D01*
X10930Y-9034D01*
X10861D01*
X10830Y-8995D01*
Y-8721D01*
X10818Y-8663D01*
X10785Y-8614D01*
X10736Y-8581D01*
X10693Y-8573D01*
Y-8524D01*
X10678Y-8447D01*
X10634Y-8382D01*
X10579Y-8326D01*
Y-7982D01*
X10578Y-7978D01*
Y-7947D01*
X10579Y-7943D01*
Y-7661D01*
X10690D01*
X10712Y-7694D01*
X10762Y-7727D01*
X10821Y-7739D01*
X11226D01*
X11286Y-7727D01*
X11336Y-7694D01*
X11369Y-7644D01*
X11381Y-7585D01*
Y-7337D01*
X11369Y-7277D01*
X11336Y-7227D01*
X11286Y-7194D01*
X11226Y-7182D01*
X11060D01*
X11052Y-7140D01*
X11008Y-7075D01*
X10970Y-7037D01*
X10989Y-6991D01*
X11226D01*
X11286Y-6979D01*
X11336Y-6946D01*
X11366Y-6900D01*
X11418D01*
X11426Y-6913D01*
D02*
G37*
G36*
X9474Y-6713D02*
X9775D01*
X9917Y-6855D01*
X9982Y-6898D01*
X10059Y-6913D01*
X10305D01*
X10327Y-6963D01*
X10295Y-7040D01*
Y-7134D01*
X10331Y-7220D01*
X10362Y-7252D01*
X10358Y-7301D01*
X10332Y-7319D01*
X10236Y-7414D01*
X10193Y-7479D01*
X10177Y-7556D01*
Y-7635D01*
X10151Y-7675D01*
X10139Y-7736D01*
Y-8189D01*
X10151Y-8250D01*
X10177Y-8290D01*
Y-8409D01*
X10193Y-8486D01*
X10236Y-8551D01*
X10291Y-8607D01*
Y-8789D01*
X10292Y-8794D01*
Y-8995D01*
X10261Y-9034D01*
X10212D01*
X10180Y-8995D01*
Y-8721D01*
X10169Y-8663D01*
X10136Y-8614D01*
X10087Y-8581D01*
X10079Y-8580D01*
Y-7982D01*
X10078Y-7978D01*
Y-7736D01*
X10066Y-7675D01*
X10059Y-7665D01*
Y-7496D01*
X10044Y-7419D01*
X10000Y-7354D01*
X9394Y-6748D01*
X9403Y-6718D01*
X9418Y-6702D01*
X9474Y-6713D01*
D02*
G37*
G36*
X18701Y-5709D02*
X18701Y-9449D01*
X15748Y-12402D01*
X14329D01*
X14298Y-12363D01*
X14311Y-12296D01*
Y-12114D01*
X14275Y-11935D01*
X14206Y-11766D01*
X14104Y-11615D01*
X13976Y-11486D01*
X13824Y-11385D01*
X13656Y-11315D01*
X13477Y-11280D01*
X13295D01*
X13116Y-11315D01*
X12948Y-11385D01*
X12796Y-11486D01*
X12667Y-11615D01*
X12566Y-11766D01*
X12496Y-11935D01*
X12461Y-12114D01*
Y-12296D01*
X12474Y-12363D01*
X12442Y-12402D01*
X5512D01*
X3664Y-10554D01*
X3559Y-10431D01*
X3437Y-10326D01*
X591Y-7480D01*
Y-5315D01*
X1575Y-4331D01*
X3740D01*
X5315Y-5906D01*
Y-8071D01*
X6378Y-9134D01*
X8809D01*
X8811Y-9135D01*
X8869Y-9147D01*
X9103D01*
X9161Y-9135D01*
X9163Y-9134D01*
X9734D01*
X9736Y-9135D01*
X9794Y-9147D01*
X10029D01*
X10087Y-9135D01*
X10088Y-9134D01*
X12913D01*
X14370Y-7677D01*
Y-5315D01*
X15748Y-3937D01*
X16929D01*
X18701Y-5709D01*
D02*
G37*
G36*
X-197Y-5906D02*
X-197Y-11614D01*
X-2165Y-13583D01*
X-3445D01*
X-3740Y-13287D01*
X-3740Y-12205D01*
X-3937Y-12008D01*
Y-4921D01*
X-3346Y-4331D01*
X-1772D01*
X-197Y-5906D01*
D02*
G37*
G36*
X-19094Y-4528D02*
X-19094Y-12402D01*
X-20276Y-13583D01*
X-20368D01*
X-20440Y-13553D01*
X-20539Y-13540D01*
X-22090D01*
X-22931Y-12699D01*
Y-12500D01*
X-22941Y-12423D01*
X-22970Y-12351D01*
X-22980Y-12339D01*
X-22981Y-12333D01*
X-23013Y-12285D01*
X-23061Y-12253D01*
X-23067Y-12251D01*
X-23079Y-12242D01*
X-23151Y-12212D01*
X-23228Y-12202D01*
X-23305Y-12212D01*
X-23377Y-12242D01*
X-23383Y-12247D01*
X-23622Y-12008D01*
Y-11510D01*
X-23590Y-11462D01*
X-23520Y-11293D01*
X-23484Y-11115D01*
Y-10933D01*
X-23520Y-10754D01*
X-23590Y-10585D01*
X-23622Y-10537D01*
Y-4921D01*
X-22638Y-3937D01*
X-19685D01*
X-19094Y-4528D01*
D02*
G37*
G36*
X-14040Y-11551D02*
X-14104Y-11615D01*
X-14206Y-11766D01*
X-14275Y-11935D01*
X-14311Y-12114D01*
Y-12296D01*
X-14275Y-12475D01*
X-14206Y-12643D01*
X-14104Y-12795D01*
X-13976Y-12923D01*
X-13824Y-13025D01*
X-13656Y-13094D01*
X-13477Y-13130D01*
X-13295D01*
X-13136Y-13098D01*
X-13086Y-13130D01*
X-13086Y-14779D01*
X-14055Y-15748D01*
X-19685Y-15748D01*
X-20079Y-15354D01*
Y-13583D01*
X-18898Y-12402D01*
Y-10827D01*
X-17913Y-9843D01*
X-15748D01*
X-14040Y-11551D01*
D02*
G37*
G36*
X-16352Y-17041D02*
X-16291Y-17089D01*
X-16219Y-17118D01*
X-16142Y-17129D01*
X-14728D01*
Y-17216D01*
X-14715Y-17280D01*
X-14696Y-17309D01*
X-14722Y-17359D01*
X-18619D01*
X-18621Y-17360D01*
X-18623Y-17359D01*
X-18692Y-17361D01*
X-18699Y-17363D01*
X-18706Y-17362D01*
X-18842Y-17378D01*
X-18851Y-17381D01*
X-18860Y-17381D01*
X-18993Y-17413D01*
X-19002Y-17417D01*
X-19011Y-17418D01*
X-19140Y-17465D01*
X-19146Y-17468D01*
X-19153Y-17470D01*
X-19215Y-17499D01*
X-19217Y-17500D01*
X-19219Y-17501D01*
X-19901Y-17842D01*
X-19954Y-17868D01*
X-20065Y-17909D01*
X-20136Y-17925D01*
X-20175Y-17894D01*
Y-17690D01*
X-20167Y-17671D01*
X-20154Y-17571D01*
Y-16440D01*
X-19030D01*
X-18999Y-16478D01*
X-18999Y-16480D01*
Y-17016D01*
X-18988Y-17073D01*
X-18955Y-17121D01*
X-18907Y-17153D01*
X-18850Y-17164D01*
X-17567D01*
X-17510Y-17153D01*
X-17462Y-17121D01*
X-17430Y-17073D01*
X-17418Y-17016D01*
Y-16949D01*
X-17319D01*
X-17271Y-16968D01*
X-17177D01*
X-17091Y-16933D01*
X-17024Y-16866D01*
X-16988Y-16779D01*
Y-16685D01*
X-17024Y-16598D01*
X-17091Y-16532D01*
X-17177Y-16496D01*
X-17271D01*
X-17358Y-16532D01*
X-17368Y-16542D01*
X-17418Y-16535D01*
Y-16480D01*
X-17419Y-16478D01*
X-17387Y-16440D01*
X-16954D01*
X-16352Y-17041D01*
D02*
G37*
G36*
X3366Y-10397D02*
X3369Y-10400D01*
X3371Y-10403D01*
X3488Y-10502D01*
X3587Y-10619D01*
X3591Y-10621D01*
X3593Y-10625D01*
X5441Y-12473D01*
X5473Y-12494D01*
X5512Y-12502D01*
X12442D01*
X12447Y-12501D01*
X12452Y-12501D01*
X12466Y-12497D01*
X12481Y-12494D01*
X12517Y-12526D01*
X12566Y-12643D01*
X12667Y-12795D01*
X12796Y-12923D01*
X12948Y-13025D01*
X13116Y-13094D01*
X13286Y-13128D01*
X13632Y-13474D01*
X13613Y-13520D01*
X13395D01*
X13330Y-13533D01*
X13275Y-13570D01*
X13238Y-13625D01*
X13225Y-13690D01*
Y-14460D01*
X13238Y-14525D01*
X13275Y-14580D01*
X13330Y-14616D01*
X13395Y-14629D01*
X14558D01*
X14623Y-14616D01*
X14678Y-14580D01*
X14715Y-14525D01*
X14728Y-14460D01*
Y-14353D01*
X16018D01*
X17195Y-15529D01*
X17257Y-15577D01*
X17328Y-15607D01*
X17406Y-15617D01*
X17406Y-15617D01*
X19094D01*
X19094Y-17107D01*
X18846Y-17379D01*
X18842Y-17378D01*
X18706Y-17362D01*
X18699Y-17363D01*
X18692Y-17361D01*
X18623Y-17359D01*
X18621Y-17360D01*
X18619Y-17359D01*
X8940D01*
X8938Y-17360D01*
X8936Y-17359D01*
X8867Y-17361D01*
X8860Y-17363D01*
X8853Y-17362D01*
X8717Y-17378D01*
X8708Y-17381D01*
X8699Y-17381D01*
X8566Y-17413D01*
X8557Y-17417D01*
X8548Y-17418D01*
X8419Y-17465D01*
X8413Y-17468D01*
X8406Y-17470D01*
X8344Y-17499D01*
X8343Y-17500D01*
X8340Y-17501D01*
X8302Y-17520D01*
X3346D01*
X1378Y-15551D01*
X1378Y-10315D01*
X1969Y-9843D01*
X2811D01*
X3366Y-10397D01*
D02*
G37*
G36*
X20154Y-17571D02*
X20167Y-17671D01*
X20175Y-17690D01*
Y-17894D01*
X20136Y-17925D01*
X20065Y-17909D01*
X19954Y-17868D01*
X19901Y-17842D01*
X19219Y-17501D01*
X19217Y-17500D01*
X19215Y-17499D01*
X19153Y-17470D01*
X19146Y-17468D01*
X19140Y-17465D01*
X19011Y-17418D01*
X18998Y-17391D01*
X18994Y-17366D01*
X19169Y-17174D01*
X19178Y-17160D01*
X19187Y-17145D01*
X19188Y-17143D01*
X19189Y-17141D01*
X19191Y-17124D01*
X19195Y-17107D01*
X19195Y-15617D01*
X20154D01*
Y-17571D01*
D02*
G37*
G36*
X23899Y-13718D02*
X23979Y-13779D01*
X23994Y-13808D01*
X24016Y-13835D01*
Y-15354D01*
X26217D01*
Y-16929D01*
X26217Y-16996D01*
X26200Y-17129D01*
X26165Y-17258D01*
X26114Y-17381D01*
X26047Y-17497D01*
X25966Y-17603D01*
X25871Y-17698D01*
X25765Y-17780D01*
X25649Y-17846D01*
X25526Y-17898D01*
X25396Y-17932D01*
X25264Y-17950D01*
X20298D01*
X20276Y-17947D01*
Y-13583D01*
X23763D01*
X23899Y-13718D01*
D02*
G37*
G36*
X-22189Y-13583D02*
X-22161Y-13611D01*
X-22128Y-13633D01*
X-22090Y-13640D01*
X-20546D01*
X-20466Y-13651D01*
X-20407Y-13675D01*
X-20373Y-13682D01*
X-20276Y-13780D01*
Y-17947D01*
X-20298Y-17950D01*
X-25264D01*
X-25396Y-17932D01*
X-25526Y-17898D01*
X-25649Y-17846D01*
X-25765Y-17780D01*
X-25871Y-17698D01*
X-25966Y-17603D01*
X-26047Y-17497D01*
X-26114Y-17381D01*
X-26165Y-17258D01*
X-26200Y-17129D01*
X-26217Y-16996D01*
X-26217Y-16929D01*
Y-15354D01*
X-24016D01*
Y-13583D01*
X-22189Y-13583D01*
D02*
G37*
%LPC*%
G36*
X4422Y-451D02*
X4380D01*
Y-1329D01*
X5257D01*
Y-1287D01*
X5222Y-1108D01*
X5152Y-939D01*
X5051Y-787D01*
X4921Y-658D01*
X4770Y-557D01*
X4601Y-487D01*
X4422Y-451D01*
D02*
G37*
G36*
X23320D02*
X23278D01*
Y-1329D01*
X24155D01*
Y-1287D01*
X24120Y-1108D01*
X24050Y-939D01*
X23948Y-787D01*
X23819Y-658D01*
X23667Y-557D01*
X23499Y-487D01*
X23320Y-451D01*
D02*
G37*
G36*
X-4239D02*
X-4281D01*
Y-1329D01*
X-3404D01*
Y-1287D01*
X-3440Y-1108D01*
X-3509Y-939D01*
X-3611Y-787D01*
X-3740Y-658D01*
X-3892Y-557D01*
X-4060Y-487D01*
X-4239Y-451D01*
D02*
G37*
G36*
X-14476D02*
X-14518D01*
Y-1329D01*
X-13640D01*
Y-1287D01*
X-13676Y-1108D01*
X-13746Y-939D01*
X-13847Y-787D01*
X-13976Y-658D01*
X-14128Y-557D01*
X-14297Y-487D01*
X-14476Y-451D01*
D02*
G37*
G36*
X-23137D02*
X-23179D01*
Y-1329D01*
X-22302D01*
Y-1287D01*
X-22337Y-1108D01*
X-22407Y-939D01*
X-22508Y-787D01*
X-22638Y-658D01*
X-22789Y-557D01*
X-22958Y-487D01*
X-23137Y-451D01*
D02*
G37*
G36*
X14658D02*
X14616D01*
Y-1329D01*
X15494D01*
Y-1287D01*
X15458Y-1108D01*
X15388Y-939D01*
X15287Y-787D01*
X15158Y-658D01*
X15006Y-557D01*
X14837Y-487D01*
X14658Y-451D01*
D02*
G37*
G36*
X14518D02*
X14476D01*
X14297Y-487D01*
X14128Y-557D01*
X13976Y-658D01*
X13847Y-787D01*
X13746Y-939D01*
X13676Y-1108D01*
X13640Y-1287D01*
Y-1329D01*
X14518D01*
Y-451D01*
D02*
G37*
G36*
X-4380D02*
X-4422D01*
X-4601Y-487D01*
X-4770Y-557D01*
X-4921Y-658D01*
X-5051Y-787D01*
X-5152Y-939D01*
X-5222Y-1108D01*
X-5257Y-1287D01*
Y-1329D01*
X-4380D01*
Y-451D01*
D02*
G37*
G36*
X-14616D02*
X-14658D01*
X-14837Y-487D01*
X-15006Y-557D01*
X-15158Y-658D01*
X-15287Y-787D01*
X-15388Y-939D01*
X-15458Y-1108D01*
X-15494Y-1287D01*
Y-1329D01*
X-14616D01*
Y-451D01*
D02*
G37*
G36*
X-23278D02*
X-23320D01*
X-23499Y-487D01*
X-23667Y-557D01*
X-23819Y-658D01*
X-23948Y-787D01*
X-24050Y-939D01*
X-24120Y-1108D01*
X-24155Y-1287D01*
Y-1329D01*
X-23278D01*
Y-451D01*
D02*
G37*
G36*
X23179D02*
X23137D01*
X22958Y-487D01*
X22789Y-557D01*
X22638Y-658D01*
X22508Y-787D01*
X22407Y-939D01*
X22337Y-1108D01*
X22302Y-1287D01*
Y-1329D01*
X23179D01*
Y-451D01*
D02*
G37*
G36*
X4281D02*
X4239D01*
X4060Y-487D01*
X3892Y-557D01*
X3740Y-658D01*
X3611Y-787D01*
X3509Y-939D01*
X3440Y-1108D01*
X3404Y-1287D01*
Y-1329D01*
X4281D01*
Y-451D01*
D02*
G37*
G36*
X-6247Y-430D02*
X-6351D01*
X-6372Y-434D01*
X-6393Y-435D01*
X-6493Y-462D01*
X-6512Y-471D01*
X-6532Y-478D01*
X-6621Y-530D01*
X-6637Y-544D01*
X-6655Y-556D01*
X-6728Y-629D01*
X-6740Y-646D01*
X-6753Y-662D01*
X-6805Y-752D01*
X-6812Y-772D01*
X-6821Y-791D01*
X-6848Y-891D01*
X-6850Y-912D01*
X-6854Y-932D01*
Y-1604D01*
X-6851Y-1615D01*
X-6852Y-1627D01*
X-6844Y-1684D01*
X-6840Y-1695D01*
X-6838Y-1707D01*
X-6822Y-1762D01*
X-6816Y-1772D01*
X-6814Y-1784D01*
X-6789Y-1836D01*
X-6782Y-1845D01*
X-6778Y-1856D01*
X-6536Y-2222D01*
X-6569Y-2263D01*
X-6641Y-2233D01*
X-6695Y-2226D01*
Y-2628D01*
X-6345D01*
Y-2618D01*
X-6348Y-2598D01*
X-6300Y-2580D01*
X-5476Y-3828D01*
Y-5905D01*
Y-5957D01*
X-5472Y-5978D01*
X-5470Y-5999D01*
X-5443Y-6099D01*
X-5434Y-6118D01*
X-5427Y-6138D01*
X-5375Y-6228D01*
X-5362Y-6243D01*
X-5350Y-6261D01*
X-5277Y-6334D01*
X-5259Y-6346D01*
X-5243Y-6360D01*
X-5154Y-6412D01*
X-5134Y-6418D01*
X-5115Y-6428D01*
X-5015Y-6454D01*
X-4994Y-6456D01*
X-4973Y-6460D01*
X-4869D01*
X-4849Y-6456D01*
X-4828Y-6454D01*
X-4728Y-6428D01*
X-4709Y-6418D01*
X-4689Y-6412D01*
X-4599Y-6360D01*
X-4583Y-6346D01*
X-4566Y-6334D01*
X-4493Y-6261D01*
X-4481Y-6243D01*
X-4467Y-6228D01*
X-4415Y-6138D01*
X-4408Y-6118D01*
X-4399Y-6099D01*
X-4372Y-5999D01*
X-4371Y-5978D01*
X-4367Y-5957D01*
Y-5905D01*
Y-3661D01*
Y-3633D01*
X-4369Y-3621D01*
X-4369Y-3609D01*
X-4377Y-3552D01*
X-4381Y-3541D01*
X-4382Y-3529D01*
X-4399Y-3474D01*
X-4404Y-3464D01*
X-4407Y-3452D01*
X-4431Y-3400D01*
X-4438Y-3391D01*
X-4443Y-3380D01*
X-4459Y-3356D01*
X-5745Y-1408D01*
Y-932D01*
X-5749Y-912D01*
X-5750Y-891D01*
X-5777Y-791D01*
X-5786Y-772D01*
X-5793Y-752D01*
X-5845Y-662D01*
X-5859Y-646D01*
X-5871Y-629D01*
X-5944Y-556D01*
X-5961Y-544D01*
X-5977Y-530D01*
X-6067Y-478D01*
X-6087Y-471D01*
X-6106Y-462D01*
X-6206Y-435D01*
X-6227Y-434D01*
X-6247Y-430D01*
D02*
G37*
G36*
X24155Y-1427D02*
X23278D01*
Y-2305D01*
X23320D01*
X23499Y-2269D01*
X23667Y-2199D01*
X23819Y-2098D01*
X23948Y-1969D01*
X24050Y-1817D01*
X24120Y-1648D01*
X24155Y-1469D01*
Y-1427D01*
D02*
G37*
G36*
X23179D02*
X22302D01*
Y-1469D01*
X22337Y-1648D01*
X22407Y-1817D01*
X22508Y-1969D01*
X22638Y-2098D01*
X22789Y-2199D01*
X22958Y-2269D01*
X23137Y-2305D01*
X23179D01*
Y-1427D01*
D02*
G37*
G36*
X15494D02*
X14616D01*
Y-2305D01*
X14658D01*
X14837Y-2269D01*
X15006Y-2199D01*
X15158Y-2098D01*
X15287Y-1969D01*
X15388Y-1817D01*
X15458Y-1648D01*
X15494Y-1469D01*
Y-1427D01*
D02*
G37*
G36*
X14518D02*
X13640D01*
Y-1469D01*
X13676Y-1648D01*
X13746Y-1817D01*
X13847Y-1969D01*
X13976Y-2098D01*
X14128Y-2199D01*
X14297Y-2269D01*
X14476Y-2305D01*
X14518D01*
Y-1427D01*
D02*
G37*
G36*
X5257D02*
X4380D01*
Y-2305D01*
X4422D01*
X4601Y-2269D01*
X4770Y-2199D01*
X4921Y-2098D01*
X5051Y-1969D01*
X5152Y-1817D01*
X5222Y-1648D01*
X5257Y-1469D01*
Y-1427D01*
D02*
G37*
G36*
X4281D02*
X3404D01*
Y-1469D01*
X3440Y-1648D01*
X3509Y-1817D01*
X3611Y-1969D01*
X3740Y-2098D01*
X3892Y-2199D01*
X4060Y-2269D01*
X4239Y-2305D01*
X4281D01*
Y-1427D01*
D02*
G37*
G36*
X-3404D02*
X-4281D01*
Y-2305D01*
X-4239D01*
X-4060Y-2269D01*
X-3892Y-2199D01*
X-3740Y-2098D01*
X-3611Y-1969D01*
X-3509Y-1817D01*
X-3440Y-1648D01*
X-3404Y-1469D01*
Y-1427D01*
D02*
G37*
G36*
X-4380D02*
X-5257D01*
Y-1469D01*
X-5222Y-1648D01*
X-5152Y-1817D01*
X-5051Y-1969D01*
X-4921Y-2098D01*
X-4770Y-2199D01*
X-4601Y-2269D01*
X-4422Y-2305D01*
X-4380D01*
Y-1427D01*
D02*
G37*
G36*
X-13640D02*
X-14518D01*
Y-2305D01*
X-14476D01*
X-14297Y-2269D01*
X-14128Y-2199D01*
X-13976Y-2098D01*
X-13847Y-1969D01*
X-13746Y-1817D01*
X-13676Y-1648D01*
X-13640Y-1469D01*
Y-1427D01*
D02*
G37*
G36*
X-14616D02*
X-15494D01*
Y-1469D01*
X-15458Y-1648D01*
X-15388Y-1817D01*
X-15287Y-1969D01*
X-15158Y-2098D01*
X-15006Y-2199D01*
X-14837Y-2269D01*
X-14658Y-2305D01*
X-14616D01*
Y-1427D01*
D02*
G37*
G36*
X-22302D02*
X-23179D01*
Y-2305D01*
X-23137D01*
X-22958Y-2269D01*
X-22789Y-2199D01*
X-22638Y-2098D01*
X-22508Y-1969D01*
X-22407Y-1817D01*
X-22337Y-1648D01*
X-22302Y-1469D01*
Y-1427D01*
D02*
G37*
G36*
X-23278D02*
X-24155D01*
Y-1469D01*
X-24120Y-1648D01*
X-24050Y-1817D01*
X-23948Y-1969D01*
X-23819Y-2098D01*
X-23667Y-2199D01*
X-23499Y-2269D01*
X-23320Y-2305D01*
X-23278D01*
Y-1427D01*
D02*
G37*
G36*
X19291Y-1148D02*
X18504D01*
X18388Y-1159D01*
X18277Y-1193D01*
X18174Y-1248D01*
X18084Y-1322D01*
X18011Y-1412D01*
X17956Y-1514D01*
X17922Y-1625D01*
X17911Y-1741D01*
X17922Y-1857D01*
X17956Y-1968D01*
X18011Y-2071D01*
X18084Y-2161D01*
X18174Y-2235D01*
X18277Y-2289D01*
X18388Y-2323D01*
X18504Y-2335D01*
X19291D01*
X19407Y-2323D01*
X19518Y-2289D01*
X19621Y-2235D01*
X19711Y-2161D01*
X19785Y-2071D01*
X19840Y-1968D01*
X19873Y-1857D01*
X19885Y-1741D01*
X19873Y-1625D01*
X19840Y-1514D01*
X19785Y-1412D01*
X19711Y-1322D01*
X19621Y-1248D01*
X19518Y-1193D01*
X19407Y-1159D01*
X19291Y-1148D01*
D02*
G37*
G36*
X12203Y-2226D02*
Y-2628D01*
X12552D01*
Y-2618D01*
X12539Y-2515D01*
X12499Y-2419D01*
X12435Y-2336D01*
X12353Y-2273D01*
X12257Y-2233D01*
X12203Y-2226D01*
D02*
G37*
G36*
X12104D02*
X12050Y-2233D01*
X11954Y-2273D01*
X11872Y-2336D01*
X11808Y-2419D01*
X11768Y-2515D01*
X11755Y-2618D01*
Y-2628D01*
X12104D01*
Y-2226D01*
D02*
G37*
G36*
X-6793D02*
X-6847Y-2233D01*
X-6943Y-2273D01*
X-7026Y-2336D01*
X-7089Y-2419D01*
X-7129Y-2515D01*
X-7143Y-2618D01*
Y-2628D01*
X-6793D01*
Y-2226D01*
D02*
G37*
G36*
X-6345Y-2726D02*
X-6695D01*
Y-3128D01*
X-6641Y-3121D01*
X-6545Y-3081D01*
X-6462Y-3018D01*
X-6399Y-2936D01*
X-6359Y-2839D01*
X-6345Y-2736D01*
Y-2726D01*
D02*
G37*
G36*
X12552D02*
X12203D01*
Y-3128D01*
X12257Y-3121D01*
X12353Y-3081D01*
X12435Y-3018D01*
X12499Y-2936D01*
X12539Y-2839D01*
X12552Y-2736D01*
Y-2726D01*
D02*
G37*
G36*
X12104D02*
X11755D01*
Y-2736D01*
X11768Y-2839D01*
X11808Y-2936D01*
X11872Y-3018D01*
X11954Y-3081D01*
X12050Y-3121D01*
X12104Y-3128D01*
Y-2726D01*
D02*
G37*
G36*
X-6793D02*
X-7143D01*
Y-2736D01*
X-7129Y-2839D01*
X-7089Y-2936D01*
X-7026Y-3018D01*
X-6943Y-3081D01*
X-6847Y-3121D01*
X-6793Y-3128D01*
Y-2726D01*
D02*
G37*
G36*
X11301Y-2220D02*
X11006D01*
X10910Y-2239D01*
X10829Y-2293D01*
X10774Y-2374D01*
X10755Y-2470D01*
Y-2884D01*
X10774Y-2980D01*
X10829Y-3061D01*
X10910Y-3116D01*
X11006Y-3135D01*
X11301D01*
X11397Y-3116D01*
X11479Y-3061D01*
X11533Y-2980D01*
X11552Y-2884D01*
Y-2470D01*
X11533Y-2374D01*
X11479Y-2293D01*
X11397Y-2239D01*
X11301Y-2220D01*
D02*
G37*
G36*
X-10236Y-685D02*
X-11220D01*
X-11297Y-700D01*
X-11362Y-744D01*
X-12937Y-2319D01*
X-12981Y-2384D01*
X-12996Y-2461D01*
Y-3804D01*
X-13032Y-3890D01*
Y-3984D01*
X-12996Y-4071D01*
X-12929Y-4137D01*
X-12842Y-4173D01*
X-12748D01*
X-12661Y-4137D01*
X-12595Y-4071D01*
X-12559Y-3984D01*
Y-3890D01*
X-12595Y-3804D01*
Y-2544D01*
X-11137Y-1087D01*
X-10319D01*
X-8587Y-2819D01*
X-8522Y-2863D01*
X-8445Y-2878D01*
X-8143D01*
Y-2884D01*
X-8124Y-2980D01*
X-8069Y-3061D01*
X-7988Y-3116D01*
X-7892Y-3135D01*
X-7596D01*
X-7500Y-3116D01*
X-7419Y-3061D01*
X-7365Y-2980D01*
X-7346Y-2884D01*
Y-2470D01*
X-7365Y-2374D01*
X-7419Y-2293D01*
X-7500Y-2239D01*
X-7596Y-2220D01*
X-7892D01*
X-7988Y-2239D01*
X-8069Y-2293D01*
X-8124Y-2374D01*
X-8143Y-2470D01*
Y-2476D01*
X-8362D01*
X-10094Y-744D01*
X-10159Y-700D01*
X-10236Y-685D01*
D02*
G37*
G36*
X16378Y-2028D02*
X16262Y-2040D01*
X16151Y-2073D01*
X16049Y-2128D01*
X15959Y-2202D01*
X15402Y-2759D01*
X15328Y-2849D01*
X15273Y-2951D01*
X15239Y-3063D01*
X15228Y-3178D01*
X15239Y-3294D01*
X15273Y-3406D01*
X15328Y-3508D01*
X15402Y-3598D01*
X15492Y-3672D01*
X15594Y-3727D01*
X15706Y-3760D01*
X15821Y-3772D01*
X15937Y-3760D01*
X16049Y-3727D01*
X16151Y-3672D01*
X16241Y-3598D01*
X16798Y-3041D01*
X16872Y-2951D01*
X16926Y-2849D01*
X16960Y-2737D01*
X16972Y-2622D01*
X16960Y-2506D01*
X16926Y-2395D01*
X16872Y-2292D01*
X16798Y-2202D01*
X16708Y-2128D01*
X16605Y-2073D01*
X16494Y-2040D01*
X16378Y-2028D01*
D02*
G37*
G36*
X21417Y-2028D02*
X21301Y-2040D01*
X21190Y-2073D01*
X21087Y-2128D01*
X20997Y-2202D01*
X20924Y-2292D01*
X20869Y-2395D01*
X20835Y-2506D01*
X20824Y-2622D01*
X20835Y-2737D01*
X20869Y-2849D01*
X20924Y-2951D01*
X20997Y-3041D01*
X21554Y-3598D01*
X21644Y-3672D01*
X21747Y-3727D01*
X21858Y-3760D01*
X21974Y-3772D01*
X22090Y-3760D01*
X22201Y-3727D01*
X22304Y-3672D01*
X22393Y-3598D01*
X22467Y-3508D01*
X22522Y-3406D01*
X22556Y-3294D01*
X22567Y-3178D01*
X22556Y-3063D01*
X22522Y-2951D01*
X22467Y-2849D01*
X22393Y-2759D01*
X21837Y-2202D01*
X21747Y-2128D01*
X21644Y-2073D01*
X21533Y-2040D01*
X21417Y-2028D01*
D02*
G37*
G36*
X-7147Y-5114D02*
X-7234D01*
Y-5335D01*
X-6994D01*
Y-5267D01*
X-7005Y-5208D01*
X-7038Y-5158D01*
X-7088Y-5125D01*
X-7147Y-5114D01*
D02*
G37*
G36*
X21545Y-5000D02*
Y-6033D01*
X22230D01*
Y-5728D01*
X22215Y-5585D01*
X22174Y-5448D01*
X22106Y-5321D01*
X22015Y-5210D01*
X21904Y-5118D01*
X21777Y-5051D01*
X21639Y-5009D01*
X21545Y-5000D01*
D02*
G37*
G36*
X21447D02*
X21353Y-5009D01*
X21215Y-5051D01*
X21089Y-5118D01*
X20977Y-5210D01*
X20886Y-5321D01*
X20818Y-5448D01*
X20777Y-5585D01*
X20763Y-5728D01*
Y-6033D01*
X21447D01*
Y-5000D01*
D02*
G37*
G36*
X-16250D02*
Y-6033D01*
X-15566D01*
Y-5728D01*
X-15580Y-5585D01*
X-15622Y-5448D01*
X-15689Y-5321D01*
X-15781Y-5210D01*
X-15892Y-5118D01*
X-16019Y-5051D01*
X-16156Y-5009D01*
X-16250Y-5000D01*
D02*
G37*
G36*
X-16348D02*
X-16442Y-5009D01*
X-16580Y-5051D01*
X-16707Y-5118D01*
X-16818Y-5210D01*
X-16909Y-5321D01*
X-16977Y-5448D01*
X-17019Y-5585D01*
X-17033Y-5728D01*
Y-6033D01*
X-16348D01*
Y-5000D01*
D02*
G37*
G36*
X22230Y-6132D02*
X20763D01*
Y-6437D01*
X20768Y-6496D01*
X20763Y-6555D01*
Y-6860D01*
X22230D01*
Y-6555D01*
X22224Y-6496D01*
X22230Y-6437D01*
Y-6132D01*
D02*
G37*
G36*
X-15566D02*
X-17033D01*
Y-6437D01*
X-17027Y-6496D01*
X-17033Y-6555D01*
Y-6860D01*
X-15566D01*
Y-6555D01*
X-15572Y-6496D01*
X-15566Y-6437D01*
Y-6132D01*
D02*
G37*
G36*
X-7671Y-7180D02*
X-7825D01*
Y-7411D01*
X-7515D01*
Y-7337D01*
X-7527Y-7277D01*
X-7561Y-7226D01*
X-7612Y-7192D01*
X-7671Y-7180D01*
D02*
G37*
G36*
X-7923D02*
X-8077D01*
X-8137Y-7192D01*
X-8187Y-7226D01*
X-8221Y-7277D01*
X-8233Y-7337D01*
Y-7411D01*
X-7923D01*
Y-7180D01*
D02*
G37*
G36*
X-7515Y-7510D02*
X-7825D01*
Y-7741D01*
X-7671D01*
X-7612Y-7729D01*
X-7561Y-7695D01*
X-7527Y-7644D01*
X-7515Y-7585D01*
Y-7510D01*
D02*
G37*
G36*
X-7923D02*
X-8233D01*
Y-7585D01*
X-8221Y-7644D01*
X-8187Y-7695D01*
X-8137Y-7729D01*
X-8077Y-7741D01*
X-7923D01*
Y-7510D01*
D02*
G37*
G36*
X-8480Y-7574D02*
X-8490D01*
Y-7913D01*
X-8318D01*
Y-7736D01*
X-8330Y-7674D01*
X-8366Y-7622D01*
X-8418Y-7586D01*
X-8480Y-7574D01*
D02*
G37*
G36*
X-8589D02*
X-8598D01*
X-8660Y-7586D01*
X-8713Y-7622D01*
X-8748Y-7674D01*
X-8761Y-7736D01*
Y-7913D01*
X-8589D01*
Y-7574D01*
D02*
G37*
G36*
X22230Y-6959D02*
X21545D01*
Y-7992D01*
X21639Y-7983D01*
X21777Y-7941D01*
X21904Y-7874D01*
X22015Y-7782D01*
X22106Y-7671D01*
X22174Y-7544D01*
X22215Y-7407D01*
X22230Y-7264D01*
Y-6959D01*
D02*
G37*
G36*
X21447D02*
X20763D01*
Y-7264D01*
X20777Y-7407D01*
X20818Y-7544D01*
X20886Y-7671D01*
X20977Y-7782D01*
X21089Y-7874D01*
X21215Y-7941D01*
X21353Y-7983D01*
X21447Y-7992D01*
Y-6959D01*
D02*
G37*
G36*
X-15566D02*
X-16250D01*
Y-7992D01*
X-16156Y-7983D01*
X-16019Y-7941D01*
X-15892Y-7874D01*
X-15781Y-7782D01*
X-15689Y-7671D01*
X-15622Y-7544D01*
X-15580Y-7407D01*
X-15566Y-7264D01*
Y-6959D01*
D02*
G37*
G36*
X-16348D02*
X-17033D01*
Y-7264D01*
X-17019Y-7407D01*
X-16977Y-7544D01*
X-16909Y-7671D01*
X-16818Y-7782D01*
X-16707Y-7874D01*
X-16580Y-7941D01*
X-16442Y-7983D01*
X-16348Y-7992D01*
Y-6959D01*
D02*
G37*
G36*
X-12806Y-7978D02*
X-12874D01*
Y-8219D01*
X-12653D01*
Y-8131D01*
X-12665Y-8072D01*
X-12698Y-8023D01*
X-12747Y-7989D01*
X-12806Y-7978D01*
D02*
G37*
G36*
X-12972D02*
X-13040D01*
X-13099Y-7989D01*
X-13149Y-8023D01*
X-13182Y-8072D01*
X-13193Y-8131D01*
Y-8219D01*
X-12972D01*
Y-7978D01*
D02*
G37*
G36*
X-12156Y-7192D02*
X-12391D01*
X-12449Y-7204D01*
X-12498Y-7236D01*
X-12531Y-7286D01*
X-12542Y-7344D01*
Y-7617D01*
X-12531Y-7675D01*
X-12498Y-7724D01*
X-12474Y-7740D01*
Y-8008D01*
X-12498Y-8024D01*
X-12531Y-8073D01*
X-12542Y-8131D01*
Y-8405D01*
X-12531Y-8463D01*
X-12498Y-8512D01*
X-12449Y-8545D01*
X-12391Y-8556D01*
X-12156D01*
X-12099Y-8545D01*
X-12049Y-8512D01*
X-12017Y-8463D01*
X-12005Y-8405D01*
Y-8131D01*
X-12017Y-8073D01*
X-12049Y-8024D01*
X-12073Y-8008D01*
Y-7740D01*
X-12049Y-7724D01*
X-12020Y-7681D01*
X-11770D01*
X-11758Y-7695D01*
Y-8230D01*
X-11749Y-8276D01*
X-11724Y-8314D01*
X-11685Y-8340D01*
X-11640Y-8349D01*
X-11439D01*
X-11394Y-8340D01*
X-11355Y-8314D01*
X-11330Y-8276D01*
X-11321Y-8230D01*
Y-7719D01*
X-11306Y-7714D01*
X-11288Y-7723D01*
X-11259Y-7751D01*
Y-8189D01*
X-11247Y-8250D01*
X-11212Y-8303D01*
X-11160Y-8337D01*
X-11098Y-8350D01*
X-10980D01*
X-10919Y-8337D01*
X-10867Y-8303D01*
X-10832Y-8250D01*
X-10820Y-8189D01*
Y-7736D01*
X-10794Y-7726D01*
X-10759Y-7768D01*
Y-8189D01*
X-10747Y-8250D01*
X-10712Y-8303D01*
X-10660Y-8337D01*
X-10598Y-8350D01*
X-10480D01*
X-10419Y-8337D01*
X-10367Y-8303D01*
X-10332Y-8250D01*
X-10320Y-8189D01*
Y-7797D01*
X-10270Y-7769D01*
X-10259Y-7775D01*
X-10259Y-7776D01*
Y-8189D01*
X-10247Y-8250D01*
X-10212Y-8303D01*
X-10160Y-8337D01*
X-10098Y-8350D01*
X-9980D01*
X-9919Y-8337D01*
X-9867Y-8303D01*
X-9832Y-8250D01*
X-9820Y-8189D01*
Y-7736D01*
X-9832Y-7675D01*
X-9842Y-7660D01*
X-9854Y-7600D01*
X-9897Y-7535D01*
X-10094Y-7338D01*
X-10159Y-7295D01*
X-10236Y-7280D01*
X-12020D01*
X-12049Y-7236D01*
X-12099Y-7204D01*
X-12156Y-7192D01*
D02*
G37*
G36*
X-8318Y-8012D02*
X-8490D01*
Y-8351D01*
X-8480D01*
X-8418Y-8339D01*
X-8366Y-8304D01*
X-8330Y-8251D01*
X-8318Y-8189D01*
Y-8012D01*
D02*
G37*
G36*
X-8589D02*
X-8761D01*
Y-8189D01*
X-8748Y-8251D01*
X-8713Y-8304D01*
X-8660Y-8339D01*
X-8598Y-8351D01*
X-8589D01*
Y-8012D01*
D02*
G37*
G36*
X-5998Y-8209D02*
X-6047D01*
Y-8420D01*
X-5815D01*
Y-8391D01*
X-5829Y-8321D01*
X-5869Y-8262D01*
X-5928Y-8222D01*
X-5998Y-8209D01*
D02*
G37*
G36*
X-12653Y-8317D02*
X-12874D01*
Y-8558D01*
X-12806D01*
X-12747Y-8546D01*
X-12698Y-8513D01*
X-12665Y-8463D01*
X-12653Y-8405D01*
Y-8317D01*
D02*
G37*
G36*
X-12972D02*
X-13193D01*
Y-8405D01*
X-13182Y-8463D01*
X-13149Y-8513D01*
X-13099Y-8546D01*
X-13040Y-8558D01*
X-12972D01*
Y-8317D01*
D02*
G37*
G36*
X-5815Y-8519D02*
X-6047D01*
Y-8731D01*
X-5998D01*
X-5928Y-8717D01*
X-5869Y-8677D01*
X-5829Y-8618D01*
X-5815Y-8548D01*
Y-8519D01*
D02*
G37*
G36*
X-8219Y-8568D02*
X-8287D01*
Y-8809D01*
X-8066D01*
Y-8721D01*
X-8078Y-8663D01*
X-8111Y-8613D01*
X-8161Y-8580D01*
X-8219Y-8568D01*
D02*
G37*
G36*
X-8386D02*
X-8454D01*
X-8512Y-8580D01*
X-8562Y-8613D01*
X-8595Y-8663D01*
X-8607Y-8721D01*
Y-8809D01*
X-8386D01*
Y-8568D01*
D02*
G37*
G36*
X-10444D02*
X-10512D01*
Y-8809D01*
X-10291D01*
Y-8721D01*
X-10302Y-8663D01*
X-10336Y-8613D01*
X-10385Y-8580D01*
X-10444Y-8568D01*
D02*
G37*
G36*
X-10610D02*
X-10678D01*
X-10737Y-8580D01*
X-10786Y-8613D01*
X-10820Y-8663D01*
X-10831Y-8721D01*
Y-8809D01*
X-10610D01*
Y-8568D01*
D02*
G37*
G36*
X-8066Y-8907D02*
X-8287D01*
Y-9148D01*
X-8219D01*
X-8161Y-9137D01*
X-8111Y-9103D01*
X-8078Y-9054D01*
X-8066Y-8995D01*
Y-8907D01*
D02*
G37*
G36*
X-8386D02*
X-8607D01*
Y-8995D01*
X-8595Y-9054D01*
X-8562Y-9103D01*
X-8512Y-9137D01*
X-8454Y-9148D01*
X-8386D01*
Y-8907D01*
D02*
G37*
G36*
X-10291Y-8907D02*
X-10512D01*
Y-9148D01*
X-10444D01*
X-10385Y-9137D01*
X-10336Y-9103D01*
X-10302Y-9054D01*
X-10291Y-8995D01*
Y-8907D01*
D02*
G37*
G36*
X-10610D02*
X-10831D01*
Y-8995D01*
X-10820Y-9054D01*
X-10786Y-9103D01*
X-10737Y-9137D01*
X-10678Y-9148D01*
X-10610D01*
Y-8907D01*
D02*
G37*
G36*
X24501Y-10097D02*
X24459D01*
Y-10974D01*
X25336D01*
Y-10932D01*
X25301Y-10753D01*
X25231Y-10585D01*
X25129Y-10433D01*
X25000Y-10304D01*
X24848Y-10202D01*
X24680Y-10132D01*
X24501Y-10097D01*
D02*
G37*
G36*
X24360D02*
X24318D01*
X24139Y-10132D01*
X23970Y-10202D01*
X23819Y-10304D01*
X23690Y-10433D01*
X23588Y-10585D01*
X23518Y-10753D01*
X23483Y-10932D01*
Y-10974D01*
X24360D01*
Y-10097D01*
D02*
G37*
G36*
X-24459D02*
X-24501D01*
X-24680Y-10132D01*
X-24848Y-10202D01*
X-25000Y-10304D01*
X-25129Y-10433D01*
X-25231Y-10585D01*
X-25301Y-10753D01*
X-25336Y-10932D01*
Y-10974D01*
X-24459D01*
Y-10097D01*
D02*
G37*
G36*
X25336Y-11073D02*
X24459D01*
Y-11950D01*
X24501D01*
X24680Y-11915D01*
X24848Y-11845D01*
X25000Y-11743D01*
X25129Y-11614D01*
X25231Y-11463D01*
X25301Y-11294D01*
X25336Y-11115D01*
Y-11073D01*
D02*
G37*
G36*
X24360D02*
X23483D01*
Y-11115D01*
X23518Y-11294D01*
X23588Y-11463D01*
X23690Y-11614D01*
X23819Y-11743D01*
X23970Y-11845D01*
X24139Y-11915D01*
X24318Y-11950D01*
X24360D01*
Y-11073D01*
D02*
G37*
G36*
X-24459D02*
X-25336D01*
Y-11115D01*
X-25301Y-11294D01*
X-25231Y-11463D01*
X-25129Y-11614D01*
X-25000Y-11743D01*
X-24848Y-11845D01*
X-24680Y-11915D01*
X-24501Y-11950D01*
X-24459D01*
Y-11073D01*
D02*
G37*
G36*
X-13295Y-11278D02*
X-13337D01*
Y-12156D01*
X-12459D01*
Y-12113D01*
X-12495Y-11934D01*
X-12565Y-11766D01*
X-12666Y-11614D01*
X-12795Y-11485D01*
X-12947Y-11383D01*
X-13116Y-11314D01*
X-13295Y-11278D01*
D02*
G37*
G36*
X23929Y-12240D02*
X23868D01*
Y-12451D01*
X24079D01*
Y-12390D01*
X24068Y-12332D01*
X24035Y-12284D01*
X23987Y-12251D01*
X23929Y-12240D01*
D02*
G37*
G36*
X-23868D02*
X-23929D01*
X-23987Y-12251D01*
X-24035Y-12284D01*
X-24068Y-12332D01*
X-24079Y-12390D01*
Y-12451D01*
X-23868D01*
Y-12240D01*
D02*
G37*
G36*
X17236Y-12436D02*
X17175D01*
Y-12648D01*
X17386D01*
Y-12587D01*
X17375Y-12529D01*
X17342Y-12480D01*
X17294Y-12448D01*
X17236Y-12436D01*
D02*
G37*
G36*
X17077D02*
X17016D01*
X16958Y-12448D01*
X16910Y-12480D01*
X16877Y-12529D01*
X16866Y-12587D01*
Y-12648D01*
X17077D01*
Y-12436D01*
D02*
G37*
G36*
X18061Y-12456D02*
X17973D01*
X17915Y-12468D01*
X17865Y-12501D01*
X17832Y-12551D01*
X17820Y-12609D01*
Y-12677D01*
X18061D01*
Y-12456D01*
D02*
G37*
G36*
X19002Y-12495D02*
X18848D01*
Y-12726D01*
X19158D01*
Y-12652D01*
X19146Y-12592D01*
X19112Y-12541D01*
X19062Y-12507D01*
X19002Y-12495D01*
D02*
G37*
G36*
X19679Y-12516D02*
X19630D01*
Y-12727D01*
X19861D01*
Y-12698D01*
X19847Y-12628D01*
X19808Y-12569D01*
X19748Y-12529D01*
X19679Y-12516D01*
D02*
G37*
G36*
X19531D02*
X19482D01*
X19412Y-12529D01*
X19353Y-12569D01*
X19314Y-12628D01*
X19300Y-12698D01*
Y-12727D01*
X19531D01*
Y-12516D01*
D02*
G37*
G36*
X17386Y-12746D02*
X17175D01*
Y-12957D01*
X17236D01*
X17294Y-12946D01*
X17342Y-12913D01*
X17375Y-12865D01*
X17386Y-12807D01*
Y-12746D01*
D02*
G37*
G36*
X17077D02*
X16866D01*
Y-12807D01*
X16877Y-12865D01*
X16910Y-12913D01*
X16958Y-12946D01*
X17016Y-12957D01*
X17077D01*
Y-12746D01*
D02*
G37*
G36*
X18061Y-12776D02*
X17820D01*
Y-12844D01*
X17832Y-12902D01*
X17865Y-12952D01*
X17915Y-12985D01*
X17973Y-12997D01*
X18061D01*
Y-12776D01*
D02*
G37*
G36*
X19861Y-12826D02*
X19630D01*
Y-13038D01*
X19679D01*
X19748Y-13024D01*
X19808Y-12984D01*
X19847Y-12925D01*
X19861Y-12855D01*
Y-12826D01*
D02*
G37*
G36*
X19531D02*
X19300D01*
Y-12855D01*
X19314Y-12925D01*
X19353Y-12984D01*
X19412Y-13024D01*
X19482Y-13038D01*
X19531D01*
Y-12826D01*
D02*
G37*
G36*
X19158Y-12825D02*
X18848D01*
Y-13056D01*
X19002D01*
X19062Y-13044D01*
X19112Y-13010D01*
X19146Y-12959D01*
X19158Y-12900D01*
Y-12825D01*
D02*
G37*
G36*
X18247Y-12456D02*
X18159D01*
Y-12726D01*
Y-12997D01*
X18247D01*
X18306Y-12985D01*
X18355Y-12952D01*
X18389Y-12902D01*
X18390Y-12893D01*
X18440Y-12898D01*
Y-12900D01*
X18452Y-12959D01*
X18486Y-13010D01*
X18537Y-13044D01*
X18596Y-13056D01*
X18750D01*
Y-12776D01*
Y-12495D01*
X18596D01*
X18537Y-12507D01*
X18486Y-12541D01*
X18452Y-12592D01*
X18449Y-12607D01*
X18400Y-12609D01*
X18389Y-12551D01*
X18355Y-12501D01*
X18306Y-12468D01*
X18247Y-12456D01*
D02*
G37*
G36*
X24276Y-13140D02*
X24045D01*
Y-13449D01*
X24120D01*
X24180Y-13438D01*
X24230Y-13404D01*
X24264Y-13353D01*
X24276Y-13293D01*
Y-13140D01*
D02*
G37*
G36*
X23947D02*
X23716D01*
Y-13293D01*
X23728Y-13353D01*
X23762Y-13404D01*
X23812Y-13438D01*
X23872Y-13449D01*
X23947D01*
Y-13140D01*
D02*
G37*
G36*
X-7825Y-13435D02*
X-8036D01*
Y-13496D01*
X-8025Y-13554D01*
X-7992Y-13602D01*
X-7943Y-13635D01*
X-7886Y-13646D01*
X-7825D01*
Y-13435D01*
D02*
G37*
G36*
X-9063Y-13454D02*
X-9295D01*
Y-13666D01*
X-9246D01*
X-9176Y-13652D01*
X-9117Y-13612D01*
X-9077Y-13553D01*
X-9063Y-13483D01*
Y-13454D01*
D02*
G37*
G36*
X-9393D02*
X-9625D01*
Y-13483D01*
X-9611Y-13553D01*
X-9571Y-13612D01*
X-9512Y-13652D01*
X-9443Y-13666D01*
X-9393D01*
Y-13454D01*
D02*
G37*
G36*
X-8360Y-13716D02*
X-8514D01*
Y-13947D01*
X-8204D01*
Y-13872D01*
X-8216Y-13812D01*
X-8250Y-13762D01*
X-8300Y-13728D01*
X-8360Y-13716D01*
D02*
G37*
G36*
X-8612D02*
X-8766D01*
X-8826Y-13728D01*
X-8876Y-13762D01*
X-8910Y-13812D01*
X-8922Y-13872D01*
Y-13947D01*
X-8612D01*
Y-13716D01*
D02*
G37*
G36*
X-7639Y-13775D02*
X-7726D01*
Y-13996D01*
X-7486D01*
Y-13928D01*
X-7497Y-13870D01*
X-7530Y-13820D01*
X-7580Y-13787D01*
X-7639Y-13775D01*
D02*
G37*
G36*
X-7825D02*
X-7912D01*
X-7971Y-13787D01*
X-8021Y-13820D01*
X-8054Y-13870D01*
X-8066Y-13928D01*
Y-13996D01*
X-7825D01*
Y-13775D01*
D02*
G37*
G36*
X-8204Y-14045D02*
X-8514D01*
Y-14276D01*
X-8360D01*
X-8300Y-14264D01*
X-8250Y-14230D01*
X-8216Y-14180D01*
X-8204Y-14120D01*
Y-14045D01*
D02*
G37*
G36*
X-8612D02*
X-8922D01*
Y-14120D01*
X-8910Y-14180D01*
X-8876Y-14230D01*
X-8826Y-14264D01*
X-8766Y-14276D01*
X-8612D01*
Y-14045D01*
D02*
G37*
G36*
X25449Y-13782D02*
X25423D01*
Y-14305D01*
X25946D01*
Y-14279D01*
X25907Y-14133D01*
X25832Y-14003D01*
X25726Y-13896D01*
X25595Y-13821D01*
X25449Y-13782D01*
D02*
G37*
G36*
X25325D02*
X25299D01*
X25153Y-13821D01*
X25023Y-13896D01*
X24916Y-14003D01*
X24841Y-14133D01*
X24802Y-14279D01*
Y-14305D01*
X25325D01*
Y-13782D01*
D02*
G37*
G36*
X-25141D02*
X-25167D01*
Y-14305D01*
X-24644D01*
Y-14279D01*
X-24683Y-14133D01*
X-24758Y-14003D01*
X-24865Y-13896D01*
X-24996Y-13821D01*
X-25141Y-13782D01*
D02*
G37*
G36*
X-25266D02*
X-25292D01*
X-25437Y-13821D01*
X-25568Y-13896D01*
X-25675Y-14003D01*
X-25750Y-14133D01*
X-25789Y-14279D01*
Y-14305D01*
X-25266D01*
Y-13782D01*
D02*
G37*
G36*
X-7486Y-14094D02*
X-7726D01*
Y-14316D01*
X-7639D01*
X-7580Y-14304D01*
X-7530Y-14271D01*
X-7497Y-14221D01*
X-7486Y-14162D01*
Y-14094D01*
D02*
G37*
G36*
X-7825D02*
X-8066D01*
Y-14162D01*
X-8054Y-14221D01*
X-8021Y-14271D01*
X-7971Y-14304D01*
X-7912Y-14316D01*
X-7825D01*
Y-14094D01*
D02*
G37*
G36*
X91Y-13837D02*
X49D01*
Y-14715D01*
X927D01*
Y-14672D01*
X891Y-14493D01*
X821Y-14325D01*
X720Y-14173D01*
X591Y-14044D01*
X439Y-13942D01*
X270Y-13873D01*
X91Y-13837D01*
D02*
G37*
G36*
X-49D02*
X-91D01*
X-270Y-13873D01*
X-439Y-13942D01*
X-591Y-14044D01*
X-720Y-14173D01*
X-821Y-14325D01*
X-891Y-14493D01*
X-927Y-14672D01*
Y-14715D01*
X-49D01*
Y-13837D01*
D02*
G37*
G36*
X25946Y-14404D02*
X25423D01*
Y-14927D01*
X25449D01*
X25595Y-14888D01*
X25726Y-14812D01*
X25832Y-14706D01*
X25907Y-14575D01*
X25946Y-14430D01*
Y-14404D01*
D02*
G37*
G36*
X25325D02*
X24802D01*
Y-14430D01*
X24841Y-14575D01*
X24916Y-14706D01*
X25023Y-14812D01*
X25153Y-14888D01*
X25299Y-14927D01*
X25325D01*
Y-14404D01*
D02*
G37*
G36*
X-24644Y-14404D02*
X-25167D01*
Y-14927D01*
X-25141D01*
X-24996Y-14888D01*
X-24865Y-14812D01*
X-24758Y-14706D01*
X-24683Y-14575D01*
X-24644Y-14430D01*
Y-14404D01*
D02*
G37*
G36*
X-25266D02*
X-25789D01*
Y-14430D01*
X-25750Y-14575D01*
X-25675Y-14706D01*
X-25568Y-14812D01*
X-25437Y-14888D01*
X-25292Y-14927D01*
X-25266D01*
Y-14404D01*
D02*
G37*
G36*
X-9191Y-13896D02*
X-9498D01*
X-9545Y-13906D01*
X-9586Y-13933D01*
X-9613Y-13973D01*
X-9622Y-14021D01*
Y-14288D01*
X-9613Y-14336D01*
X-9586Y-14376D01*
X-9545Y-14403D01*
X-9498Y-14413D01*
X-9350D01*
X-8956Y-14807D01*
X-8920Y-14831D01*
Y-14868D01*
X-8909Y-14927D01*
X-8875Y-14977D01*
X-8825Y-15011D01*
X-8766Y-15023D01*
X-8675D01*
Y-15205D01*
X-8715Y-15232D01*
X-8743Y-15273D01*
X-8752Y-15322D01*
Y-15781D01*
X-8743Y-15829D01*
X-8715Y-15871D01*
X-8674Y-15898D01*
X-8625Y-15908D01*
X-8324D01*
X-8275Y-15898D01*
X-8234Y-15871D01*
X-8206Y-15829D01*
X-8196Y-15781D01*
Y-15322D01*
X-8206Y-15273D01*
X-8234Y-15232D01*
X-8274Y-15205D01*
Y-14993D01*
X-8251Y-14977D01*
X-8217Y-14927D01*
X-8216Y-14920D01*
X-8018D01*
X-7970Y-14952D01*
X-7912Y-14964D01*
X-7639D01*
X-7581Y-14952D01*
X-7532Y-14919D01*
X-7516Y-14896D01*
X-7346D01*
X-7331Y-14919D01*
X-7281Y-14952D01*
X-7223Y-14964D01*
X-6950D01*
X-6892Y-14952D01*
X-6843Y-14919D01*
X-6810Y-14870D01*
X-6798Y-14812D01*
Y-14578D01*
X-6810Y-14520D01*
X-6843Y-14471D01*
X-6892Y-14438D01*
X-6950Y-14426D01*
X-7223D01*
X-7281Y-14438D01*
X-7331Y-14471D01*
X-7346Y-14494D01*
X-7516D01*
X-7532Y-14471D01*
X-7581Y-14438D01*
X-7639Y-14426D01*
X-7912D01*
X-7970Y-14438D01*
X-8020Y-14471D01*
X-8052Y-14519D01*
X-8246D01*
X-8251Y-14511D01*
X-8301Y-14477D01*
X-8360Y-14466D01*
X-8627D01*
X-8632Y-14465D01*
X-8730D01*
X-9066Y-14129D01*
Y-14021D01*
X-9076Y-13973D01*
X-9103Y-13933D01*
X-9143Y-13906D01*
X-9191Y-13896D01*
D02*
G37*
G36*
X-6132Y-15085D02*
X-6467D01*
X-6539Y-15099D01*
X-6601Y-15141D01*
X-6643Y-15203D01*
X-6657Y-15276D01*
Y-15350D01*
X-7001D01*
X-7009Y-15311D01*
X-7050Y-15249D01*
X-7112Y-15208D01*
X-7185Y-15193D01*
X-7362D01*
X-7435Y-15208D01*
X-7497Y-15249D01*
X-7538Y-15311D01*
X-7553Y-15384D01*
Y-15718D01*
X-7538Y-15791D01*
X-7497Y-15853D01*
X-7435Y-15895D01*
X-7434Y-15895D01*
Y-16293D01*
X-7437Y-16294D01*
X-7518Y-16348D01*
X-7572Y-16430D01*
X-7591Y-16526D01*
Y-16939D01*
X-7572Y-17035D01*
X-7518Y-17116D01*
X-7437Y-17171D01*
X-7341Y-17190D01*
X-7045D01*
X-6949Y-17171D01*
X-6868Y-17116D01*
X-6813Y-17035D01*
X-6794Y-16939D01*
Y-16526D01*
X-6813Y-16430D01*
X-6868Y-16348D01*
X-6949Y-16294D01*
X-7033Y-16277D01*
Y-15827D01*
X-7009Y-15791D01*
X-7001Y-15752D01*
X-6565D01*
X-6488Y-15737D01*
X-6423Y-15693D01*
X-6373Y-15643D01*
X-6132D01*
X-6059Y-15629D01*
X-5997Y-15588D01*
X-5956Y-15526D01*
X-5941Y-15453D01*
Y-15276D01*
X-5956Y-15203D01*
X-5997Y-15141D01*
X-6059Y-15099D01*
X-6132Y-15085D01*
D02*
G37*
G36*
X927Y-14813D02*
X49D01*
Y-15691D01*
X91D01*
X270Y-15655D01*
X439Y-15585D01*
X591Y-15484D01*
X720Y-15355D01*
X821Y-15203D01*
X891Y-15034D01*
X927Y-14855D01*
Y-14813D01*
D02*
G37*
G36*
X-49D02*
X-927D01*
Y-14855D01*
X-891Y-15034D01*
X-821Y-15203D01*
X-720Y-15355D01*
X-591Y-15484D01*
X-439Y-15585D01*
X-270Y-15655D01*
X-91Y-15691D01*
X-49D01*
Y-14813D01*
D02*
G37*
G36*
X-6144Y-16281D02*
Y-16683D01*
X-5794D01*
Y-16673D01*
X-5808Y-16570D01*
X-5848Y-16474D01*
X-5911Y-16391D01*
X-5994Y-16328D01*
X-6090Y-16288D01*
X-6144Y-16281D01*
D02*
G37*
G36*
X-6242D02*
X-6296Y-16288D01*
X-6392Y-16328D01*
X-6475Y-16391D01*
X-6538Y-16474D01*
X-6578Y-16570D01*
X-6592Y-16673D01*
Y-16683D01*
X-6242D01*
Y-16281D01*
D02*
G37*
G36*
X-4869Y-6827D02*
X-4973D01*
X-4994Y-6832D01*
X-5015Y-6833D01*
X-5115Y-6860D01*
X-5134Y-6869D01*
X-5154Y-6876D01*
X-5243Y-6928D01*
X-5259Y-6942D01*
X-5277Y-6953D01*
X-5350Y-7027D01*
X-5362Y-7044D01*
X-5375Y-7060D01*
X-5427Y-7150D01*
X-5434Y-7169D01*
X-5443Y-7188D01*
X-5470Y-7288D01*
X-5472Y-7309D01*
X-5476Y-7330D01*
Y-7382D01*
Y-11319D01*
Y-11371D01*
X-5472Y-11391D01*
X-5470Y-11412D01*
X-5443Y-11512D01*
X-5434Y-11531D01*
X-5427Y-11551D01*
X-5413Y-11575D01*
Y-11913D01*
X-5451Y-11921D01*
X-5516Y-11964D01*
X-6441Y-12890D01*
X-6485Y-12955D01*
X-6500Y-13032D01*
Y-13885D01*
X-6529D01*
X-6577Y-13895D01*
X-6619Y-13923D01*
X-6646Y-13964D01*
X-6656Y-14013D01*
Y-14314D01*
X-6646Y-14363D01*
X-6619Y-14404D01*
X-6577Y-14432D01*
X-6529Y-14441D01*
X-6070D01*
X-6021Y-14432D01*
X-5980Y-14404D01*
X-5952Y-14363D01*
X-5942Y-14314D01*
Y-14013D01*
X-5952Y-13964D01*
X-5980Y-13923D01*
X-6021Y-13895D01*
X-6070Y-13885D01*
X-6099D01*
Y-13115D01*
X-5469Y-12485D01*
X-5421Y-12503D01*
X-5415Y-12541D01*
X-5427Y-12563D01*
X-5434Y-12583D01*
X-5443Y-12602D01*
X-5470Y-12702D01*
X-5472Y-12723D01*
X-5476Y-12743D01*
Y-12795D01*
Y-17028D01*
Y-17079D01*
X-5472Y-17100D01*
X-5470Y-17121D01*
X-5443Y-17221D01*
X-5434Y-17240D01*
X-5427Y-17260D01*
X-5375Y-17350D01*
X-5362Y-17365D01*
X-5350Y-17383D01*
X-5277Y-17456D01*
X-5259Y-17468D01*
X-5243Y-17482D01*
X-5154Y-17534D01*
X-5134Y-17540D01*
X-5115Y-17550D01*
X-5015Y-17577D01*
X-4994Y-17578D01*
X-4973Y-17582D01*
X-4869D01*
X-4849Y-17578D01*
X-4828Y-17577D01*
X-4728Y-17550D01*
X-4709Y-17540D01*
X-4689Y-17534D01*
X-4599Y-17482D01*
X-4583Y-17468D01*
X-4566Y-17456D01*
X-4493Y-17383D01*
X-4481Y-17365D01*
X-4467Y-17350D01*
X-4415Y-17260D01*
X-4408Y-17240D01*
X-4399Y-17221D01*
X-4372Y-17121D01*
X-4371Y-17100D01*
X-4367Y-17079D01*
Y-17028D01*
Y-13994D01*
X-4321Y-13975D01*
X-1618Y-16677D01*
X-1553Y-16721D01*
X-1476Y-16736D01*
X1245D01*
X1331Y-16772D01*
X1425D01*
X1512Y-16736D01*
X1578Y-16669D01*
X1614Y-16582D01*
Y-16488D01*
X1578Y-16402D01*
X1512Y-16335D01*
X1425Y-16299D01*
X1331D01*
X1245Y-16335D01*
X-1393D01*
X-4032Y-13696D01*
Y-12461D01*
X-4047Y-12384D01*
X-4090Y-12319D01*
X-4429Y-11980D01*
Y-11575D01*
X-4415Y-11551D01*
X-4408Y-11531D01*
X-4399Y-11512D01*
X-4372Y-11412D01*
X-4371Y-11391D01*
X-4367Y-11371D01*
Y-11319D01*
Y-7382D01*
Y-7330D01*
X-4371Y-7309D01*
X-4372Y-7288D01*
X-4399Y-7188D01*
X-4408Y-7169D01*
X-4415Y-7150D01*
X-4467Y-7060D01*
X-4481Y-7044D01*
X-4493Y-7027D01*
X-4566Y-6953D01*
X-4583Y-6942D01*
X-4599Y-6928D01*
X-4689Y-6876D01*
X-4709Y-6869D01*
X-4728Y-6860D01*
X-4828Y-6833D01*
X-4849Y-6832D01*
X-4869Y-6827D01*
D02*
G37*
G36*
X-5794Y-16781D02*
X-6144D01*
Y-17184D01*
X-6090Y-17176D01*
X-5994Y-17137D01*
X-5911Y-17073D01*
X-5848Y-16991D01*
X-5808Y-16895D01*
X-5794Y-16791D01*
Y-16781D01*
D02*
G37*
G36*
X-6242D02*
X-6592D01*
Y-16791D01*
X-6578Y-16895D01*
X-6538Y-16991D01*
X-6475Y-17073D01*
X-6392Y-17137D01*
X-6296Y-17176D01*
X-6242Y-17184D01*
Y-16781D01*
D02*
G37*
%LPD*%
D11*
X-1476Y-16535D02*
X1378D01*
X-4232Y-13780D02*
X-1476Y-16535D01*
X-6299Y-13032D02*
X-5374Y-12106D01*
X-4587D02*
X-4232Y-12461D01*
X-5374Y-12106D02*
X-4587D01*
X-13976Y-14075D02*
X-12343D01*
X-12104Y-14314D01*
X-7185Y-13386D02*
X-7087Y-13484D01*
X-7522Y-13048D02*
X-7185Y-13386D01*
X-12835Y-16732D02*
X-11674D01*
X-10896Y-15954D01*
Y-15059D02*
X-10167D01*
X-10896Y-15954D02*
Y-15059D01*
X-10167D02*
X-10167Y-15059D01*
X-9324Y-14155D02*
X-8814Y-14665D01*
X-8632D01*
X-8474Y-14823D01*
X-11673Y-14314D02*
X-11631Y-14272D01*
X-11594D01*
X-12104Y-14314D02*
X-11673D01*
X-8642Y-13917D02*
X-8538Y-14021D01*
X-8812Y-13917D02*
X-8642D01*
X-9265Y-13464D02*
X-8812Y-13917D01*
X-9285Y-13464D02*
X-9265D01*
X-9344Y-13405D02*
X-9285Y-13464D01*
X-7800Y-14021D02*
X-7776Y-14045D01*
X-11277Y-13048D02*
X-7522D01*
X-11673Y-13445D02*
X-11277Y-13048D01*
X-9344Y-14155D02*
X-9324D01*
X-11673Y-13484D02*
Y-13445D01*
X-10787Y-2913D02*
X-10276Y-3425D01*
X-6486D02*
X-6181Y-3730D01*
X-10276Y-3425D02*
X-6486D01*
X-4232Y-13780D02*
Y-12461D01*
X9858Y-7963D02*
Y-7496D01*
X7136Y-6437D02*
X8799D01*
X6624Y-5925D02*
Y-5906D01*
X8799Y-6437D02*
X9858Y-7496D01*
X8110Y-4232D02*
X8214Y-4129D01*
X10624D01*
X17598Y-12323D02*
X17835Y-12087D01*
X18100D02*
X18110Y-12077D01*
X17835Y-12087D02*
X18100D01*
X17185Y-12047D02*
X17185D01*
X17126Y-12106D02*
X17185Y-12047D01*
X17577Y-11656D02*
Y-11311D01*
X17963Y-10925D01*
X17185Y-12047D02*
X17577Y-11656D01*
X18081Y-12697D02*
X18135Y-12751D01*
X17126Y-12697D02*
X18081D01*
X17963Y-10925D02*
X21407D01*
X18209Y-16748D02*
Y-16043D01*
X18189Y-16024D02*
X18209Y-16043D01*
X11998Y-5020D02*
X12008D01*
X11614Y-5384D02*
X11634D01*
X11998Y-5020D01*
X12795Y-8858D02*
X12798Y-8855D01*
Y-8473D01*
X12802Y-8470D01*
X3914Y-3828D02*
X5903Y-5817D01*
X5610Y-7096D02*
Y-5886D01*
X5906Y-5817D02*
X5974Y-5886D01*
X3808Y-4084D02*
X5610Y-5886D01*
X2541Y-4084D02*
X3808D01*
X2647Y-3828D02*
X3914D01*
X5974Y-5906D02*
Y-5886D01*
X5903Y-5817D02*
X5906D01*
X1181Y-2362D02*
X2647Y-3828D01*
X198Y-1741D02*
X2541Y-4084D01*
X-14468Y-9561D02*
Y-5610D01*
X-16246Y-11339D02*
X-14468Y-9561D01*
X-12795Y-3937D02*
Y-2461D01*
X-11220Y-886D02*
X-10236D01*
X-12795Y-2461D02*
X-11220Y-886D01*
X-10236D02*
X-8445Y-2677D01*
X-7744D01*
X-18209Y-16748D02*
X-17240D01*
X-17224Y-16732D01*
X-6299Y-14163D02*
Y-13032D01*
X-7274Y-15551D02*
X-6565D01*
X-6378Y-15364D01*
X-6299D01*
X-7087Y-14045D02*
Y-13484D01*
X-7800Y-14021D02*
X-7776Y-13996D01*
X-7776Y-13386D02*
X-7776Y-13386D01*
Y-13996D02*
Y-13386D01*
X-7233Y-16692D02*
X-7193Y-16732D01*
X-7274Y-15551D02*
X-7233Y-15592D01*
Y-16692D02*
Y-15592D01*
X-8474Y-15551D02*
Y-14823D01*
X-7776Y-14695D02*
X-7087D01*
X-9518Y-15059D02*
Y-15039D01*
X-10144Y-14413D02*
Y-13775D01*
Y-14413D02*
X-9518Y-15039D01*
X-10793Y-13459D02*
X-10768Y-13484D01*
X-11673Y-13484D02*
X-11648Y-13510D01*
Y-14219D02*
Y-13510D01*
X-11570Y-15034D02*
Y-14296D01*
Y-15034D02*
X-11545Y-15059D01*
X-11594Y-14272D02*
X-11570Y-14296D01*
X-10871Y-15034D02*
Y-14296D01*
X-10896Y-15059D02*
X-10871Y-15034D01*
Y-14296D02*
X-10846Y-14272D01*
X-10793Y-13510D02*
X-10768Y-13484D01*
X-10846Y-14272D02*
X-10793Y-14219D01*
Y-13510D01*
X-10124Y-13775D02*
X-10065Y-13834D01*
X-10144Y-13775D02*
X-10124Y-13775D01*
X-8538Y-14021D02*
X-7800D01*
X-7790Y-13401D02*
X-7776Y-13386D01*
X-7800Y-14719D02*
X-7776Y-14695D01*
X-8538Y-14719D02*
X-7800D01*
X-8563Y-14744D02*
X-8538Y-14719D01*
X20339Y-12992D02*
X21004D01*
X18583Y-14748D02*
X20339Y-12992D01*
X18209Y-14748D02*
X18583D01*
X21781Y-11319D02*
Y-11299D01*
X21407Y-10925D02*
X21781Y-11299D01*
X18799Y-12028D02*
X18800Y-12027D01*
X18775Y-12052D02*
X18799Y-12028D01*
X18800Y-12027D02*
X19580D01*
X18110Y-12077D02*
X18135Y-12052D01*
X18775D01*
X18238Y-11339D02*
Y-11319D01*
X18110Y-12077D02*
Y-11467D01*
X18238Y-11339D01*
X21831Y-12106D02*
X21884Y-12159D01*
X21806Y-12082D02*
X21831Y-12106D01*
X21884Y-12967D02*
Y-12159D01*
X21781Y-11319D02*
X21806Y-11344D01*
Y-12082D02*
Y-11344D01*
X21004Y-12992D02*
Y-12185D01*
X21083Y-12106D01*
X21107Y-12082D01*
Y-11344D01*
X21132Y-11319D01*
X20404D02*
X21132D01*
X19754Y-11339D02*
Y-11319D01*
X20369Y-12395D02*
Y-11954D01*
X19754Y-11339D02*
X20369Y-11954D01*
Y-12395D02*
X20380Y-12407D01*
X18799Y-12776D02*
X18800Y-12776D01*
X18775Y-12751D02*
X18799Y-12776D01*
X18800Y-12776D02*
X19580D01*
X18135Y-12751D02*
X18775D01*
X2598Y-7282D02*
X3089Y-6791D01*
X4498D02*
X5886Y-8179D01*
X2598Y-7480D02*
Y-7282D01*
X3089Y-6791D02*
X4498D01*
X5906Y-8179D02*
X5974Y-8248D01*
Y-8268D02*
Y-8248D01*
X5886Y-8179D02*
X5906D01*
X8337Y-8878D02*
Y-8858D01*
X0Y-1741D02*
X198D01*
X5610Y-7096D02*
X5974Y-7461D01*
X-2598Y-5512D02*
Y-3780D01*
X-1772Y-2953D01*
Y-2134D02*
X-681Y-1043D01*
X-1772Y-2953D02*
Y-2134D01*
X650Y-1043D02*
X1181Y-1575D01*
X-681Y-1043D02*
X650D01*
X1181Y-2362D02*
Y-1575D01*
X12717Y-3730D02*
X12795D01*
X12430Y-3444D02*
X12717Y-3730D01*
X6299Y-6348D02*
Y-4724D01*
X5974Y-6673D02*
X6299Y-6348D01*
X5974Y-6693D02*
Y-6673D01*
X8110Y-2913D02*
Y-1673D01*
X6299Y-4724D02*
X8110Y-2913D01*
X8641Y-3444D01*
X12430D01*
X5709Y-4724D02*
X6299D01*
X1772Y-787D02*
X5709Y-4724D01*
X-2798Y-2900D02*
Y-2798D01*
X-787Y-787D02*
X1772D01*
X-2798Y-2798D02*
X-787Y-787D01*
X10906Y-7461D02*
X11024D01*
X10866Y-7421D02*
Y-7217D01*
X10751Y-7102D02*
X10866Y-7217D01*
Y-7421D02*
X10906Y-7461D01*
X10547Y-7102D02*
X10751D01*
X10532Y-7087D02*
X10547Y-7102D01*
X11024Y-6687D02*
X11037Y-6700D01*
X9858Y-7963D02*
X9878Y-7982D01*
X10474Y-7461D02*
X10906D01*
X10378Y-7556D02*
X10474Y-7461D01*
X10358Y-7963D02*
X10378Y-7982D01*
X10358Y-7963D02*
X10378Y-7943D01*
Y-7556D01*
X10059Y-6713D02*
X11024D01*
X9358Y-6396D02*
X9474Y-6512D01*
X9358Y-6396D02*
Y-5817D01*
X9858Y-6512D02*
Y-5817D01*
Y-6512D02*
X10059Y-6713D01*
X9474Y-6512D02*
X9858D01*
X12392Y-6013D02*
X12402Y-6004D01*
X12392Y-6677D02*
Y-6013D01*
X11037Y-6700D02*
X11620D01*
X11633Y-6687D01*
X12003Y-7506D02*
X12062Y-7565D01*
X11405Y-3740D02*
X11424Y-3759D01*
X11024Y-3740D02*
X11405D01*
X11449Y-4484D02*
X11983D01*
X11424Y-4509D02*
X11449Y-4484D01*
X11988Y-3809D02*
X12008D01*
X11663Y-4134D02*
X11988Y-3809D01*
X11220Y-4134D02*
X11663D01*
X10358Y-4996D02*
X11220Y-4134D01*
X10358Y-5817D02*
Y-4996D01*
X11246Y-8814D02*
X11976D01*
X11220Y-8789D02*
X11246Y-8814D01*
X12286Y-7565D02*
X12795Y-7056D01*
Y-4931D01*
X12062Y-7565D02*
X12286D01*
X12402Y-8268D02*
Y-7681D01*
X12205Y-8465D02*
X12402Y-8268D01*
X12286Y-7565D02*
X12402Y-7681D01*
X12003Y-7506D02*
Y-7487D01*
X11220Y-8140D02*
X11240D01*
X11565Y-8465D01*
X12205D01*
X12008Y-5807D02*
X12402Y-5413D01*
X11688Y-7210D02*
X12008Y-6890D01*
Y-6004D02*
Y-5807D01*
Y-6890D02*
Y-6004D01*
X11982Y-8090D02*
X12002D01*
X11688Y-7796D02*
Y-7210D01*
Y-7796D02*
X11982Y-8090D01*
X11526Y-5965D02*
Y-5866D01*
X11565Y-6004D02*
X12008D01*
X11526Y-5965D02*
X11565Y-6004D01*
X11024Y-6687D02*
Y-6033D01*
X11043Y-5384D02*
X11526Y-5866D01*
X11024Y-5384D02*
X11043D01*
X11594Y-6033D02*
X11614D01*
X9878Y-8825D02*
Y-7982D01*
X10378Y-8409D02*
Y-7982D01*
X10492Y-8789D02*
X10561Y-8858D01*
X10492Y-8789D02*
Y-8524D01*
X10378Y-8409D02*
X10492Y-8524D01*
X9358Y-8486D02*
Y-7963D01*
X9075Y-8770D02*
X9358Y-8486D01*
X9055Y-8770D02*
X9075D01*
X8986Y-8839D02*
X9055Y-8770D01*
X8986Y-8858D02*
Y-8839D01*
X6545Y-8858D02*
X8337D01*
X5974Y-8287D02*
X6545Y-8858D01*
X6624Y-5925D02*
X7136Y-6437D01*
X9358Y-7963D02*
Y-7390D01*
X6624Y-6693D02*
X8661D01*
X9358Y-7390D01*
X5974Y-7480D02*
Y-7461D01*
X8661Y-7480D02*
X8858Y-7677D01*
X6624Y-7480D02*
X8661D01*
X8858Y-7963D02*
Y-7677D01*
X6624Y-8268D02*
Y-7480D01*
X12717Y-3730D02*
X12795D01*
X6299Y-6348D02*
Y-4724D01*
X5709D02*
X6299D01*
X5974Y-6673D02*
X6299Y-6348D01*
X5974Y-6693D02*
Y-6673D01*
X-7874Y-3740D02*
X-7493D01*
X-7474Y-3759D01*
X-6900Y-5020D02*
X-6890D01*
X-7283Y-5384D02*
X-7264D01*
X-6900Y-5020D01*
X-6890Y-6004D02*
Y-5807D01*
Y-6890D02*
Y-6004D01*
X-7333D02*
X-6890D01*
X-7372Y-5965D02*
X-7333Y-6004D01*
X-7874Y-5384D02*
X-7854D01*
X-7372Y-5866D01*
Y-5965D02*
Y-5866D01*
X-8031Y-7421D02*
X-7992Y-7461D01*
X-8031Y-7421D02*
Y-7217D01*
X-8147Y-7102D02*
X-8031Y-7217D01*
X-8351Y-7102D02*
X-8147D01*
X-8366Y-7087D02*
X-8351Y-7102D01*
X-7992Y-7461D02*
X-7874D01*
X-8424D02*
X-7992D01*
X-6102Y-8957D02*
X-6096Y-8950D01*
Y-8470D01*
X-13287Y-7096D02*
X-12923Y-7461D01*
X-13287Y-7096D02*
Y-5906D01*
X-14961Y-4232D02*
X-13287Y-5906D01*
X-16208Y-4232D02*
X-14961D01*
X-18699Y-1741D02*
X-16208Y-4232D01*
X-16142Y-3937D02*
X-14872D01*
X-17717Y-2362D02*
X-16142Y-3937D01*
X-14872D02*
X-12923Y-5886D01*
X-17717Y-2362D02*
Y-1575D01*
X-19579Y-1043D02*
X-18248D01*
X-17717Y-1575D01*
X-20669Y-2953D02*
Y-2134D01*
X-19579Y-1043D01*
X-21496Y-3780D02*
X-20669Y-2953D01*
X-21695Y-2798D02*
X-19685Y-787D01*
X-17126D01*
X-21695Y-2900D02*
Y-2798D01*
X-17126Y-787D02*
X-13189Y-4724D01*
X-18898Y-1741D02*
X-18699D01*
X-12923Y-5906D02*
Y-5886D01*
X-21496Y-5512D02*
Y-3780D01*
X-12923Y-7480D02*
Y-7461D01*
X-13189Y-4724D02*
X-12598D01*
X-10787Y-2913D01*
Y-1673D01*
X-12923Y-6693D02*
Y-6673D01*
X-12598Y-6348D01*
Y-4724D01*
X-6181Y-3730D02*
X-6102D01*
X-8520Y-8409D02*
X-8406Y-8524D01*
Y-8789D02*
Y-8524D01*
Y-8789D02*
X-8337Y-8858D01*
X-8520Y-8409D02*
Y-7982D01*
X-8539Y-7963D02*
X-8520Y-7982D01*
X-8539Y-7963D02*
X-8520Y-7943D01*
Y-7556D02*
X-8424Y-7461D01*
X-8520Y-7943D02*
Y-7556D01*
X-12352Y-8858D02*
X-10561D01*
X-12923Y-8287D02*
Y-8268D01*
Y-8287D02*
X-12352Y-8858D01*
X-9039Y-7963D02*
X-9020Y-7982D01*
X-9039Y-7963D02*
Y-7496D01*
X-10098Y-6437D02*
X-9039Y-7496D01*
X-10236Y-6693D02*
X-9539Y-7390D01*
Y-7963D02*
Y-7390D01*
X-12274Y-6693D02*
X-10236D01*
X-9539Y-8486D02*
Y-7963D01*
X-11762Y-6437D02*
X-10098D01*
X-12274Y-5925D02*
Y-5906D01*
Y-5925D02*
X-11762Y-6437D01*
X-12274Y-7480D02*
X-10236D01*
X-10039Y-7963D02*
Y-7677D01*
X-10236Y-7480D02*
X-10039Y-7677D01*
X-12274Y-8268D02*
Y-7480D01*
X-9911Y-8858D02*
Y-8839D01*
X-9823Y-8770D02*
X-9539Y-8486D01*
X-9843Y-8770D02*
X-9823D01*
X-9911Y-8839D02*
X-9843Y-8770D01*
X-9020Y-8825D02*
Y-7982D01*
X-8539Y-5817D02*
Y-4996D01*
X-7677Y-4134D01*
X-7234D01*
X-6909Y-3809D01*
X-6890D01*
X-10787Y-4232D02*
X-9547D01*
X-9444Y-4129D01*
X-8274D01*
X-7474Y-4509D02*
X-7449Y-4484D01*
X-6915D01*
X-6102Y-7056D02*
Y-4931D01*
X-6611Y-7565D02*
X-6102Y-7056D01*
X-7677Y-8140D02*
X-7657D01*
X-7333Y-8465D01*
X-6693D01*
X-6496Y-8268D01*
Y-7681D01*
X-6836Y-7565D02*
X-6611D01*
X-6496Y-7681D01*
X-6895Y-7506D02*
X-6836Y-7565D01*
X-6895Y-7506D02*
Y-7487D01*
X-6505Y-6013D02*
X-6496Y-6004D01*
X-6505Y-6677D02*
Y-6013D01*
X-9424Y-6512D02*
X-9039D01*
X-9539Y-6396D02*
Y-5817D01*
Y-6396D02*
X-9424Y-6512D01*
X-7874Y-6687D02*
X-7861Y-6700D01*
X-9039Y-6512D02*
Y-5817D01*
Y-6512D02*
X-8839Y-6713D01*
X-7874D01*
Y-6687D02*
Y-6033D01*
X-7861Y-6700D02*
X-7278D01*
X-7265Y-6687D01*
X-6890Y-5807D02*
X-6496Y-5413D01*
X-7303Y-6033D02*
X-7283D01*
X-7210Y-7210D02*
X-6890Y-6890D01*
X-6916Y-8090D02*
X-6896D01*
X-7210Y-7796D02*
X-6916Y-8090D01*
X-7210Y-7796D02*
Y-7210D01*
X-7652Y-8814D02*
X-6921D01*
X-7677Y-8789D02*
X-7652Y-8814D01*
D16*
X12795Y-3730D02*
D03*
X-6299Y-14163D02*
D03*
X-6102Y-3730D02*
D03*
D17*
X12795Y-4931D02*
D03*
X-6299Y-15364D02*
D03*
X-6102Y-4931D02*
D03*
D18*
X12008Y-3809D02*
D03*
Y-4459D02*
D03*
X11024Y-5384D02*
D03*
Y-6033D02*
D03*
X11614D02*
D03*
Y-5384D02*
D03*
X11220Y-8140D02*
D03*
Y-8789D02*
D03*
X18110Y-12726D02*
D03*
Y-12077D02*
D03*
X-7087Y-14695D02*
D03*
Y-14045D02*
D03*
X-7776D02*
D03*
Y-14695D02*
D03*
X-7677Y-8789D02*
D03*
Y-8140D02*
D03*
X-7283Y-5384D02*
D03*
Y-6033D02*
D03*
X-7874D02*
D03*
Y-5384D02*
D03*
X-6890Y-4459D02*
D03*
Y-3809D02*
D03*
D19*
X10624Y-4129D02*
D03*
X11424Y-3759D02*
D03*
X12802Y-8470D02*
D03*
X12002Y-8840D02*
D03*
X20380Y-12407D02*
D03*
X19580Y-12777D02*
D03*
X-10144Y-13775D02*
D03*
X-9344Y-13405D02*
D03*
X-6896Y-8840D02*
D03*
X-6096Y-8470D02*
D03*
X-7474Y-3759D02*
D03*
X-8274Y-4129D02*
D03*
D20*
X11424Y-4509D02*
D03*
X12002Y-8090D02*
D03*
X19580Y-12027D02*
D03*
X-9344Y-14155D02*
D03*
X-6896Y-8090D02*
D03*
X-7474Y-4509D02*
D03*
D21*
X12402Y-5413D02*
D03*
Y-6004D02*
D03*
X17126Y-12106D02*
D03*
X17126Y-12697D02*
D03*
X-6496Y-6004D02*
D03*
Y-5413D02*
D03*
D22*
X11024Y-6713D02*
D03*
Y-7461D02*
D03*
X18799Y-12028D02*
D03*
Y-12776D02*
D03*
X-8563Y-14744D02*
D03*
Y-13996D02*
D03*
X-7874Y-7461D02*
D03*
Y-6713D02*
D03*
D23*
X12003Y-7487D02*
D03*
X11633Y-6687D02*
D03*
X-7265D02*
D03*
X-6895Y-7487D02*
D03*
D24*
X12383Y-6687D02*
D03*
X-6515D02*
D03*
D25*
X10561Y-8858D02*
D03*
X9911D02*
D03*
X8337D02*
D03*
X8986D02*
D03*
X5974Y-8268D02*
D03*
X6624D02*
D03*
Y-7480D02*
D03*
X5974D02*
D03*
X6624Y-6693D02*
D03*
X5974D02*
D03*
X6624Y-5906D02*
D03*
X5974D02*
D03*
X18238Y-11319D02*
D03*
X17589D02*
D03*
X20404D02*
D03*
X19754D02*
D03*
X21132D02*
D03*
X21781Y-11319D02*
D03*
X-10896Y-15059D02*
D03*
X-11545Y-15059D02*
D03*
X-9518D02*
D03*
X-10167D02*
D03*
X-8986Y-8858D02*
D03*
X-8337D02*
D03*
X-9911D02*
D03*
X-10561D02*
D03*
X-12274Y-8268D02*
D03*
X-12923D02*
D03*
Y-7480D02*
D03*
X-12274D02*
D03*
X-12923Y-6693D02*
D03*
X-12274D02*
D03*
X-12923Y-5906D02*
D03*
X-12274D02*
D03*
D26*
X9358Y-7963D02*
D03*
X10358Y-5817D02*
D03*
X9858D02*
D03*
X9358D02*
D03*
X10358Y-7963D02*
D03*
X9858D02*
D03*
X8858Y-5817D02*
D03*
X8358D02*
D03*
X7858D02*
D03*
X7358D02*
D03*
X8858Y-7963D02*
D03*
X8358D02*
D03*
X7858D02*
D03*
X-11039Y-7963D02*
D03*
X-10539Y-7963D02*
D03*
X-10039Y-7963D02*
D03*
X-11539Y-5817D02*
D03*
X-11039D02*
D03*
X-10539Y-5817D02*
D03*
X-10039Y-5817D02*
D03*
X-9039Y-7963D02*
D03*
X-8539D02*
D03*
X-9539Y-5817D02*
D03*
X-9039Y-5817D02*
D03*
X-8539D02*
D03*
X-9539Y-7963D02*
D03*
D27*
X7358Y-7963D02*
D03*
X-11539Y-7963D02*
D03*
D28*
X22146Y-15748D02*
D03*
X-22146D02*
D03*
D29*
X18209Y-16748D02*
D03*
X-18209Y-14748D02*
D03*
D30*
X18209D02*
D03*
X-18209Y-16748D02*
D03*
D31*
X13976Y-16831D02*
D03*
X-13976Y-14075D02*
D03*
D32*
X13976D02*
D03*
X-13976Y-16831D02*
D03*
D33*
X21831Y-12106D02*
D03*
X21083D02*
D03*
X23248Y-13091D02*
D03*
X23996D02*
D03*
X-23996D02*
D03*
X-23248D02*
D03*
X-11594Y-14272D02*
D03*
X-10846D02*
D03*
D34*
X21909Y-12992D02*
D03*
X-11673Y-13484D02*
D03*
D35*
X21004Y-12992D02*
D03*
X-10768Y-13484D02*
D03*
D36*
X23228Y-12500D02*
D03*
X23819D02*
D03*
X-23228D02*
D03*
X-23819D02*
D03*
X-7185Y-13386D02*
D03*
X-7776D02*
D03*
D37*
X-8474Y-15551D02*
D03*
D38*
X-7274D02*
D03*
D39*
X23996Y-13254D02*
X24180Y-13438D01*
X23819Y-12500D02*
X23996Y-12677D01*
Y-13254D02*
Y-12677D01*
D76*
X6102Y-16142D02*
X15945D01*
X-21523Y-11312D02*
Y-5512D01*
X2652Y-12691D02*
X6102Y-16142D01*
X2652Y-12677D02*
Y-11339D01*
Y-12691D02*
Y-12677D01*
X2598Y-7282D02*
Y-6083D01*
X16299Y-6909D02*
Y-6083D01*
X2598D02*
Y-5512D01*
X16299Y-7480D02*
Y-6909D01*
Y-6083D02*
Y-5512D01*
X2598Y-7480D02*
X5433Y-10315D01*
X16299Y-8898D02*
Y-7480D01*
X14882Y-10315D02*
X16299Y-8898D01*
X-21549Y-11339D02*
X-21523Y-11312D01*
D77*
X16535Y-16732D02*
X17638D01*
X15945Y-16142D02*
X16535Y-16732D01*
X17654Y-16748D02*
X18209D01*
X17638Y-16732D02*
X17654Y-16748D01*
X-25217Y-14354D02*
X-24821Y-13959D01*
X25374Y-14354D02*
Y-14228D01*
X24569Y-13423D02*
X25374Y-14228D01*
X5433Y-10315D02*
X14882D01*
D78*
X13976Y-14055D02*
X16142D01*
X17406Y-15319D02*
X21717D01*
X16142Y-14055D02*
X17406Y-15319D01*
X24640Y-16014D02*
X24709Y-16083D01*
X24409Y-15748D02*
X24640Y-15979D01*
X-16831Y-16142D02*
X-16142Y-16831D01*
X-13976D01*
X-21752Y-16142D02*
X-16831D01*
X-24409Y-13504D02*
X-23996Y-13091D01*
X-24409Y-13547D02*
Y-13504D01*
X21717Y-15319D02*
X22146Y-15748D01*
X23248Y-14646D02*
Y-13091D01*
X23228Y-13071D02*
Y-12500D01*
X22146Y-15748D02*
X24409D01*
X22146D02*
X23248Y-14646D01*
X23228Y-13071D02*
X23248Y-13091D01*
X24640Y-16014D02*
Y-15979D01*
X24709Y-16083D02*
X25102D01*
X25177Y-16157D01*
X-23996Y-13091D02*
X-23976Y-13071D01*
Y-12657D02*
X-23819Y-12500D01*
X-23976Y-13071D02*
Y-12657D01*
X-23248Y-14646D02*
X-22146Y-15748D01*
X-23248Y-14646D02*
Y-13091D01*
X-23228Y-13071D01*
Y-12500D01*
X-22146Y-15748D02*
X-21752Y-16142D01*
X-22752Y-16354D02*
X-22146Y-15748D01*
D79*
X-16208Y-14008D02*
Y-12715D01*
X-16831Y-14764D02*
X-16142Y-14075D01*
X-13976D01*
X-16208Y-14008D02*
X-16142Y-14075D01*
X-25020Y-16354D02*
X-22752D01*
X-2652Y-12677D02*
Y-11339D01*
X-2625Y-11312D01*
Y-7500D02*
X-2605Y-7480D01*
X-2625Y-11312D02*
Y-7500D01*
X-2605Y-7480D02*
X-2598D01*
X-18209Y-14748D02*
X-18193Y-14764D01*
X-16831D01*
X-16246Y-12677D02*
X-16208Y-12715D01*
X-16246Y-12677D02*
Y-11339D01*
D80*
X-21549Y-12677D02*
Y-11339D01*
D81*
X12154Y-2677D02*
D03*
X-6193Y-16732D02*
D03*
X-6744Y-2677D02*
D03*
D82*
X11154D02*
D03*
X-7193Y-16732D02*
D03*
X-7744Y-2677D02*
D03*
D83*
X-25217Y-14354D02*
D03*
X25374D02*
D03*
D84*
X-25217Y-16354D02*
D03*
X25374D02*
D03*
D85*
X0Y-14764D02*
D03*
X13386Y-12205D02*
D03*
X24409Y-11024D02*
D03*
X-13386Y-12205D02*
D03*
X-24409Y-11024D02*
D03*
X23228Y-1378D02*
D03*
X14567D02*
D03*
X4331D02*
D03*
X-4331D02*
D03*
X-14567D02*
D03*
X-23228D02*
D03*
D86*
X8110Y-4232D02*
D03*
X-10787D02*
D03*
D87*
X8110Y-1673D02*
D03*
X-10787D02*
D03*
D88*
X-21695Y-2900D02*
D03*
X16100D02*
D03*
X-2798D02*
D03*
D89*
X-18898Y-1741D02*
D03*
X18898D02*
D03*
X0D02*
D03*
D90*
X-16100Y-2900D02*
D03*
X21695D02*
D03*
X2798D02*
D03*
D91*
X-21496Y-6909D02*
D03*
Y-6083D02*
D03*
X16299Y-6909D02*
D03*
Y-6083D02*
D03*
X-2598Y-6909D02*
D03*
Y-6083D02*
D03*
D92*
X-16299Y-6909D02*
D03*
Y-6083D02*
D03*
X21496Y-6909D02*
D03*
Y-6083D02*
D03*
X2598Y-6909D02*
D03*
Y-6083D02*
D03*
D93*
X-21549Y-12677D02*
D03*
X-16246Y-11339D02*
D03*
X-21549D02*
D03*
X-16246Y-12677D02*
D03*
X-2652D02*
D03*
X2652Y-11339D02*
D03*
X-2652D02*
D03*
X2652Y-12677D02*
D03*
D94*
X-1280Y-13189D02*
D03*
X-14862Y-17224D02*
D03*
X-18898Y-10433D02*
D03*
X-12008Y-4921D02*
D03*
X-10039Y-1575D02*
D03*
X-13583Y-6102D02*
D03*
X-16732Y-4134D02*
D03*
X-18504Y-2559D02*
D03*
X-24409Y-12598D02*
D03*
X-14764Y-10433D02*
D03*
X7283Y-17717D02*
D03*
X-984D02*
D03*
X-6890D02*
D03*
X-12913Y-17205D02*
D03*
X-25984Y-10236D02*
D03*
Y-7480D02*
D03*
Y-3937D02*
D03*
X-25394Y-1378D02*
D03*
X-20276Y-394D02*
D03*
X-17126D02*
D03*
X-8071D02*
D03*
X-12402D02*
D03*
X-12795Y-4331D02*
D03*
X-11024Y-7087D02*
D03*
X-8268Y-6299D02*
D03*
X-4134Y-16929D02*
D03*
X-5709Y-10827D02*
D03*
Y-7480D02*
D03*
Y-4331D02*
D03*
X-4134Y-9646D02*
D03*
Y-6693D02*
D03*
Y-3937D02*
D03*
X-2165Y-394D02*
D03*
X2165D02*
D03*
X7677D02*
D03*
X11811D02*
D03*
X18110D02*
D03*
X21654D02*
D03*
X25984Y-11024D02*
D03*
Y-8661D02*
D03*
Y-5906D02*
D03*
Y-2756D02*
D03*
X19882Y-17520D02*
D03*
X19488Y-15945D02*
D03*
Y-14764D02*
D03*
X16929Y-11614D02*
D03*
X18898Y-8858D02*
D03*
X18307Y-4921D02*
D03*
X14370D02*
D03*
X12598Y-4134D02*
D03*
X13386Y-8268D02*
D03*
X6693Y-5118D02*
D03*
X6299Y-7874D02*
D03*
X7874Y-7087D02*
D03*
X9252Y-4528D02*
D03*
X10039Y-3740D02*
D03*
X8465Y-2756D02*
D03*
X7677D02*
D03*
X5906Y-4331D02*
D03*
Y-5118D02*
D03*
X3740Y-3346D02*
D03*
X1378Y-1181D02*
D03*
X1772Y-2362D02*
D03*
X-1181Y-2165D02*
D03*
X-2165Y-3937D02*
D03*
X1772Y-4134D02*
D03*
X197Y-7677D02*
D03*
X2362Y-9646D02*
D03*
X197Y-10827D02*
D03*
Y-16929D02*
D03*
X-1969Y-16535D02*
D03*
X-2165Y-15354D02*
D03*
X-3937Y-12402D02*
D03*
X-4134Y-14370D02*
D03*
X-5709Y-12992D02*
D03*
X-11024Y-16929D02*
D03*
X-8661Y-12598D02*
D03*
Y-13386D02*
D03*
X-12598Y-14567D02*
D03*
X-13386Y-15354D02*
D03*
X-11417Y-16142D02*
D03*
X-16142D02*
D03*
X-20079Y-17717D02*
D03*
Y-16535D02*
D03*
X-15748Y-9449D02*
D03*
X-18898Y-7874D02*
D03*
Y-6299D02*
D03*
Y-4331D02*
D03*
X-20079Y-3543D02*
D03*
X-22835D02*
D03*
X-24016Y-5118D02*
D03*
Y-7087D02*
D03*
Y-9055D02*
D03*
X24567Y-16732D02*
D03*
Y-16142D02*
D03*
X-24409D02*
D03*
Y-16732D02*
D03*
X-25591Y-17126D02*
D03*
X-24803Y-17520D02*
D03*
X-25197D02*
D03*
X-25591D02*
D03*
X-25984Y-16535D02*
D03*
Y-15748D02*
D03*
X-24803D02*
D03*
X-25984Y-16142D02*
D03*
X-25591Y-15748D02*
D03*
X-25197D02*
D03*
X-24409Y-17126D02*
D03*
Y-17520D02*
D03*
X-25984Y-16929D02*
D03*
Y-17323D02*
D03*
X-24409Y-14370D02*
D03*
X-25984D02*
D03*
Y-13976D02*
D03*
X-24409Y-15748D02*
D03*
Y-13976D02*
D03*
Y-15157D02*
D03*
X-24803D02*
D03*
X-25197D02*
D03*
X-25591D02*
D03*
X-25984D02*
D03*
Y-14764D02*
D03*
X-24409D02*
D03*
X-25984Y-13583D02*
D03*
X-25591D02*
D03*
X-24803D02*
D03*
X-25197D02*
D03*
X-24803Y-17126D02*
D03*
X-25197D02*
D03*
X25827Y-15748D02*
D03*
X25433D02*
D03*
X25039D02*
D03*
X24646D02*
D03*
X26083Y-15945D02*
D03*
Y-16339D02*
D03*
Y-16732D02*
D03*
X25787Y-17126D02*
D03*
X25394D02*
D03*
X25000D02*
D03*
X24606D02*
D03*
Y-17520D02*
D03*
X25000D02*
D03*
X25394D02*
D03*
X25787D02*
D03*
X24606Y-15157D02*
D03*
X25000D02*
D03*
X25394D02*
D03*
X25787D02*
D03*
X26083Y-14764D02*
D03*
X24606Y-14370D02*
D03*
X26083D02*
D03*
Y-13976D02*
D03*
X25787Y-13583D02*
D03*
X25394D02*
D03*
X24606Y-14764D02*
D03*
X25000Y-13583D02*
D03*
X24606Y-13976D02*
D03*
D95*
X1378Y-16535D02*
D03*
X-12835Y-16732D02*
D03*
X17598Y-12323D02*
D03*
X18898Y-10906D02*
D03*
X18189Y-16024D02*
D03*
X12008Y-5020D02*
D03*
X12795Y-8858D02*
D03*
X-14468Y-5610D02*
D03*
X-12795Y-3937D02*
D03*
X-17224Y-16732D02*
D03*
X6545Y-8858D02*
D03*
X10532Y-7087D02*
D03*
X11024Y-3740D02*
D03*
X-12352Y-8858D02*
D03*
X-7874Y-3740D02*
D03*
X-6890Y-5020D02*
D03*
X-8366Y-7087D02*
D03*
X-6102Y-8957D02*
D03*
M02*
