G04*
G04 #@! TF.GenerationSoftware,Altium Limited,Altium Designer,21.1.1 (26)*
G04*
G04 Layer_Color=16711935*
%FSLAX24Y24*%
%MOIN*%
G70*
G04*
G04 #@! TF.SameCoordinates,5E4DD114-A7E0-4D59-9A99-9927C2522E00*
G04*
G04*
G04 #@! TF.FilePolarity,Negative*
G04*
G01*
G75*
%ADD39C,0.0591*%
%ADD63O,0.0650X0.0768*%
G04:AMPARAMS|DCode=64|XSize=65mil|YSize=76.8mil|CornerRadius=17.7mil|HoleSize=0mil|Usage=FLASHONLY|Rotation=180.000|XOffset=0mil|YOffset=0mil|HoleType=Round|Shape=RoundedRectangle|*
%AMROUNDEDRECTD64*
21,1,0.0650,0.0413,0,0,180.0*
21,1,0.0295,0.0768,0,0,180.0*
1,1,0.0354,-0.0148,0.0207*
1,1,0.0354,0.0148,0.0207*
1,1,0.0354,0.0148,-0.0207*
1,1,0.0354,-0.0148,-0.0207*
%
%ADD64ROUNDEDRECTD64*%
%ADD65C,0.1004*%
G04:AMPARAMS|DCode=66|XSize=100.4mil|YSize=100.4mil|CornerRadius=12.4mil|HoleSize=0mil|Usage=FLASHONLY|Rotation=270.000|XOffset=0mil|YOffset=0mil|HoleType=Round|Shape=RoundedRectangle|*
%AMROUNDEDRECTD66*
21,1,0.1004,0.0756,0,0,270.0*
21,1,0.0756,0.1004,0,0,270.0*
1,1,0.0248,-0.0378,-0.0378*
1,1,0.0248,-0.0378,0.0378*
1,1,0.0248,0.0378,0.0378*
1,1,0.0248,0.0378,-0.0378*
%
%ADD66ROUNDEDRECTD66*%
%ADD68C,0.0846*%
G04:AMPARAMS|DCode=69|XSize=84.6mil|YSize=84.6mil|CornerRadius=14.8mil|HoleSize=0mil|Usage=FLASHONLY|Rotation=90.000|XOffset=0mil|YOffset=0mil|HoleType=Round|Shape=RoundedRectangle|*
%AMROUNDEDRECTD69*
21,1,0.0846,0.0551,0,0,90.0*
21,1,0.0551,0.0846,0,0,90.0*
1,1,0.0295,0.0276,0.0276*
1,1,0.0295,0.0276,-0.0276*
1,1,0.0295,-0.0276,-0.0276*
1,1,0.0295,-0.0276,0.0276*
%
%ADD69ROUNDEDRECTD69*%
G04:AMPARAMS|DCode=70|XSize=104.3mil|YSize=183.1mil|CornerRadius=52.2mil|HoleSize=0mil|Usage=FLASHONLY|Rotation=135.000|XOffset=0mil|YOffset=0mil|HoleType=Round|Shape=RoundedRectangle|*
%AMROUNDEDRECTD70*
21,1,0.1043,0.0787,0,0,135.0*
21,1,0.0000,0.1831,0,0,135.0*
1,1,0.1043,0.0278,0.0278*
1,1,0.1043,0.0278,0.0278*
1,1,0.1043,-0.0278,-0.0278*
1,1,0.1043,-0.0278,-0.0278*
%
%ADD70ROUNDEDRECTD70*%
%ADD71O,0.1831X0.1043*%
G04:AMPARAMS|DCode=72|XSize=104.3mil|YSize=183.1mil|CornerRadius=0mil|HoleSize=0mil|Usage=FLASHONLY|Rotation=45.000|XOffset=0mil|YOffset=0mil|HoleType=Round|Shape=Round|*
%AMOVALD72*
21,1,0.0787,0.1043,0.0000,0.0000,135.0*
1,1,0.1043,0.0278,-0.0278*
1,1,0.1043,-0.0278,0.0278*
%
%ADD72OVALD72*%

G04:AMPARAMS|DCode=73|XSize=131.9mil|YSize=202.8mil|CornerRadius=21.9mil|HoleSize=0mil|Usage=FLASHONLY|Rotation=0.000|XOffset=0mil|YOffset=0mil|HoleType=Round|Shape=RoundedRectangle|*
%AMROUNDEDRECTD73*
21,1,0.1319,0.1591,0,0,0.0*
21,1,0.0882,0.2028,0,0,0.0*
1,1,0.0437,0.0441,-0.0795*
1,1,0.0437,-0.0441,-0.0795*
1,1,0.0437,-0.0441,0.0795*
1,1,0.0437,0.0441,0.0795*
%
%ADD73ROUNDEDRECTD73*%
G04:AMPARAMS|DCode=74|XSize=131.9mil|YSize=202.8mil|CornerRadius=65.9mil|HoleSize=0mil|Usage=FLASHONLY|Rotation=0.000|XOffset=0mil|YOffset=0mil|HoleType=Round|Shape=RoundedRectangle|*
%AMROUNDEDRECTD74*
21,1,0.1319,0.0709,0,0,0.0*
21,1,0.0000,0.2028,0,0,0.0*
1,1,0.1319,0.0000,-0.0354*
1,1,0.1319,0.0000,-0.0354*
1,1,0.1319,0.0000,0.0354*
1,1,0.1319,0.0000,0.0354*
%
%ADD74ROUNDEDRECTD74*%
%ADD75C,0.1043*%
%ADD98C,0.2421*%
D39*
X23228Y-13583D02*
X24213D01*
X22244Y-12598D02*
X23228Y-13583D01*
X22244Y-12598D02*
Y-8071D01*
X22441Y-14764D02*
X24016D01*
X20669Y-12992D02*
X22441Y-14764D01*
X20669Y-12992D02*
Y-8071D01*
X-23819Y-13976D02*
X-20669D01*
X-19488Y-12795D01*
Y-10433D01*
X-17126Y-8071D01*
X-23622Y-14764D02*
X-20079D01*
X-18110Y-12795D01*
Y-11220D01*
X-15748Y-8858D01*
Y-8268D01*
D63*
X12154Y-2677D02*
D03*
X-6193Y-16732D02*
D03*
X-6744Y-2677D02*
D03*
D64*
X11154D02*
D03*
X-7193Y-16732D02*
D03*
X-7744Y-2677D02*
D03*
D65*
X-25217Y-14354D02*
D03*
X25374D02*
D03*
D66*
X-25217Y-16354D02*
D03*
X25374D02*
D03*
D68*
X8110Y-4232D02*
D03*
X-10787D02*
D03*
D69*
X8110Y-1673D02*
D03*
X-10787D02*
D03*
D70*
X-21695Y-2900D02*
D03*
X16100D02*
D03*
X-2798D02*
D03*
D71*
X-18898Y-1741D02*
D03*
X18898D02*
D03*
X0D02*
D03*
D72*
X-16100Y-2900D02*
D03*
X21695D02*
D03*
X2798D02*
D03*
D73*
X-21496Y-6909D02*
D03*
Y-6083D02*
D03*
X16299Y-6909D02*
D03*
Y-6083D02*
D03*
X-2598Y-6909D02*
D03*
Y-6083D02*
D03*
D74*
X-16299Y-6909D02*
D03*
Y-6083D02*
D03*
X21496Y-6909D02*
D03*
Y-6083D02*
D03*
X2598Y-6909D02*
D03*
Y-6083D02*
D03*
D75*
X-21549Y-12677D02*
D03*
X-16246Y-11339D02*
D03*
X-21549D02*
D03*
X-16246Y-12677D02*
D03*
X-2652D02*
D03*
X2652Y-11339D02*
D03*
X-2652D02*
D03*
X2652Y-12677D02*
D03*
D98*
X0Y-14764D02*
D03*
X13386Y-12205D02*
D03*
X24409Y-11024D02*
D03*
X-13386Y-12205D02*
D03*
X-24409Y-11024D02*
D03*
X23228Y-1378D02*
D03*
X14567D02*
D03*
X4331D02*
D03*
X-4331D02*
D03*
X-14567D02*
D03*
X-23228D02*
D03*
M02*
