G04*
G04 #@! TF.GenerationSoftware,Altium Limited,Altium Designer,21.1.1 (26)*
G04*
G04 Layer_Color=8388736*
%FSLAX24Y24*%
%MOIN*%
G70*
G04*
G04 #@! TF.SameCoordinates,2BC09F4D-9739-4697-A504-2C2FAC58ABFE*
G04*
G04*
G04 #@! TF.FilePolarity,Negative*
G04*
G01*
G75*
%ADD39C,0.0591*%
G04:AMPARAMS|DCode=40|XSize=41.3mil|YSize=57.1mil|CornerRadius=5.6mil|HoleSize=0mil|Usage=FLASHONLY|Rotation=270.000|XOffset=0mil|YOffset=0mil|HoleType=Round|Shape=RoundedRectangle|*
%AMROUNDEDRECTD40*
21,1,0.0413,0.0459,0,0,270.0*
21,1,0.0301,0.0571,0,0,270.0*
1,1,0.0112,-0.0229,-0.0151*
1,1,0.0112,-0.0229,0.0151*
1,1,0.0112,0.0229,0.0151*
1,1,0.0112,0.0229,-0.0151*
%
%ADD40ROUNDEDRECTD40*%
G04:AMPARAMS|DCode=41|XSize=41.3mil|YSize=57.1mil|CornerRadius=11.8mil|HoleSize=0mil|Usage=FLASHONLY|Rotation=270.000|XOffset=0mil|YOffset=0mil|HoleType=Round|Shape=RoundedRectangle|*
%AMROUNDEDRECTD41*
21,1,0.0413,0.0335,0,0,270.0*
21,1,0.0177,0.0571,0,0,270.0*
1,1,0.0236,-0.0167,-0.0089*
1,1,0.0236,-0.0167,0.0089*
1,1,0.0236,0.0167,0.0089*
1,1,0.0236,0.0167,-0.0089*
%
%ADD41ROUNDEDRECTD41*%
G04:AMPARAMS|DCode=42|XSize=43.3mil|YSize=39.4mil|CornerRadius=8mil|HoleSize=0mil|Usage=FLASHONLY|Rotation=0.000|XOffset=0mil|YOffset=0mil|HoleType=Round|Shape=RoundedRectangle|*
%AMROUNDEDRECTD42*
21,1,0.0433,0.0234,0,0,0.0*
21,1,0.0274,0.0394,0,0,0.0*
1,1,0.0159,0.0137,-0.0117*
1,1,0.0159,-0.0137,-0.0117*
1,1,0.0159,-0.0137,0.0117*
1,1,0.0159,0.0137,0.0117*
%
%ADD42ROUNDEDRECTD42*%
G04:AMPARAMS|DCode=43|XSize=37.4mil|YSize=41.3mil|CornerRadius=10.8mil|HoleSize=0mil|Usage=FLASHONLY|Rotation=90.000|XOffset=0mil|YOffset=0mil|HoleType=Round|Shape=RoundedRectangle|*
%AMROUNDEDRECTD43*
21,1,0.0374,0.0197,0,0,90.0*
21,1,0.0157,0.0413,0,0,90.0*
1,1,0.0217,0.0098,0.0079*
1,1,0.0217,0.0098,-0.0079*
1,1,0.0217,-0.0098,-0.0079*
1,1,0.0217,-0.0098,0.0079*
%
%ADD43ROUNDEDRECTD43*%
G04:AMPARAMS|DCode=44|XSize=37.4mil|YSize=41.3mil|CornerRadius=5.3mil|HoleSize=0mil|Usage=FLASHONLY|Rotation=90.000|XOffset=0mil|YOffset=0mil|HoleType=Round|Shape=RoundedRectangle|*
%AMROUNDEDRECTD44*
21,1,0.0374,0.0307,0,0,90.0*
21,1,0.0268,0.0413,0,0,90.0*
1,1,0.0106,0.0154,0.0134*
1,1,0.0106,0.0154,-0.0134*
1,1,0.0106,-0.0154,-0.0134*
1,1,0.0106,-0.0154,0.0134*
%
%ADD44ROUNDEDRECTD44*%
G04:AMPARAMS|DCode=45|XSize=37.4mil|YSize=37.4mil|CornerRadius=7.7mil|HoleSize=0mil|Usage=FLASHONLY|Rotation=90.000|XOffset=0mil|YOffset=0mil|HoleType=Round|Shape=RoundedRectangle|*
%AMROUNDEDRECTD45*
21,1,0.0374,0.0220,0,0,90.0*
21,1,0.0220,0.0374,0,0,90.0*
1,1,0.0154,0.0110,0.0110*
1,1,0.0154,0.0110,-0.0110*
1,1,0.0154,-0.0110,-0.0110*
1,1,0.0154,-0.0110,0.0110*
%
%ADD45ROUNDEDRECTD45*%
G04:AMPARAMS|DCode=46|XSize=41.3mil|YSize=57.1mil|CornerRadius=8.3mil|HoleSize=0mil|Usage=FLASHONLY|Rotation=90.000|XOffset=0mil|YOffset=0mil|HoleType=Round|Shape=RoundedRectangle|*
%AMROUNDEDRECTD46*
21,1,0.0413,0.0406,0,0,90.0*
21,1,0.0248,0.0571,0,0,90.0*
1,1,0.0165,0.0203,0.0124*
1,1,0.0165,0.0203,-0.0124*
1,1,0.0165,-0.0203,-0.0124*
1,1,0.0165,-0.0203,0.0124*
%
%ADD46ROUNDEDRECTD46*%
G04:AMPARAMS|DCode=47|XSize=37.4mil|YSize=41.3mil|CornerRadius=10.8mil|HoleSize=0mil|Usage=FLASHONLY|Rotation=180.000|XOffset=0mil|YOffset=0mil|HoleType=Round|Shape=RoundedRectangle|*
%AMROUNDEDRECTD47*
21,1,0.0374,0.0197,0,0,180.0*
21,1,0.0157,0.0413,0,0,180.0*
1,1,0.0217,-0.0079,0.0098*
1,1,0.0217,0.0079,0.0098*
1,1,0.0217,0.0079,-0.0098*
1,1,0.0217,-0.0079,-0.0098*
%
%ADD47ROUNDEDRECTD47*%
G04:AMPARAMS|DCode=48|XSize=37.4mil|YSize=41.3mil|CornerRadius=5.3mil|HoleSize=0mil|Usage=FLASHONLY|Rotation=180.000|XOffset=0mil|YOffset=0mil|HoleType=Round|Shape=RoundedRectangle|*
%AMROUNDEDRECTD48*
21,1,0.0374,0.0307,0,0,180.0*
21,1,0.0268,0.0413,0,0,180.0*
1,1,0.0106,-0.0134,0.0154*
1,1,0.0106,0.0134,0.0154*
1,1,0.0106,0.0134,-0.0154*
1,1,0.0106,-0.0134,-0.0154*
%
%ADD48ROUNDEDRECTD48*%
G04:AMPARAMS|DCode=49|XSize=43.3mil|YSize=39.4mil|CornerRadius=8mil|HoleSize=0mil|Usage=FLASHONLY|Rotation=270.000|XOffset=0mil|YOffset=0mil|HoleType=Round|Shape=RoundedRectangle|*
%AMROUNDEDRECTD49*
21,1,0.0433,0.0234,0,0,270.0*
21,1,0.0274,0.0394,0,0,270.0*
1,1,0.0159,-0.0117,-0.0137*
1,1,0.0159,-0.0117,0.0137*
1,1,0.0159,0.0117,0.0137*
1,1,0.0159,0.0117,-0.0137*
%
%ADD49ROUNDEDRECTD49*%
G04:AMPARAMS|DCode=50|XSize=29.5mil|YSize=63mil|CornerRadius=8.9mil|HoleSize=0mil|Usage=FLASHONLY|Rotation=180.000|XOffset=0mil|YOffset=0mil|HoleType=Round|Shape=RoundedRectangle|*
%AMROUNDEDRECTD50*
21,1,0.0295,0.0453,0,0,180.0*
21,1,0.0118,0.0630,0,0,180.0*
1,1,0.0177,-0.0059,0.0226*
1,1,0.0177,0.0059,0.0226*
1,1,0.0177,0.0059,-0.0226*
1,1,0.0177,-0.0059,-0.0226*
%
%ADD50ROUNDEDRECTD50*%
G04:AMPARAMS|DCode=51|XSize=29.5mil|YSize=63mil|CornerRadius=4.7mil|HoleSize=0mil|Usage=FLASHONLY|Rotation=180.000|XOffset=0mil|YOffset=0mil|HoleType=Round|Shape=RoundedRectangle|*
%AMROUNDEDRECTD51*
21,1,0.0295,0.0535,0,0,180.0*
21,1,0.0201,0.0630,0,0,180.0*
1,1,0.0094,-0.0100,0.0268*
1,1,0.0094,0.0100,0.0268*
1,1,0.0094,0.0100,-0.0268*
1,1,0.0094,-0.0100,-0.0268*
%
%ADD51ROUNDEDRECTD51*%
G04:AMPARAMS|DCode=52|XSize=427.2mil|YSize=383.9mil|CornerRadius=31.3mil|HoleSize=0mil|Usage=FLASHONLY|Rotation=270.000|XOffset=0mil|YOffset=0mil|HoleType=Round|Shape=RoundedRectangle|*
%AMROUNDEDRECTD52*
21,1,0.4272,0.3213,0,0,270.0*
21,1,0.3646,0.3839,0,0,270.0*
1,1,0.0626,-0.1606,-0.1823*
1,1,0.0626,-0.1606,0.1823*
1,1,0.0626,0.1606,0.1823*
1,1,0.0626,0.1606,-0.1823*
%
%ADD52ROUNDEDRECTD52*%
G04:AMPARAMS|DCode=53|XSize=68.9mil|YSize=143.7mil|CornerRadius=18.7mil|HoleSize=0mil|Usage=FLASHONLY|Rotation=270.000|XOffset=0mil|YOffset=0mil|HoleType=Round|Shape=RoundedRectangle|*
%AMROUNDEDRECTD53*
21,1,0.0689,0.1063,0,0,270.0*
21,1,0.0315,0.1437,0,0,270.0*
1,1,0.0374,-0.0531,-0.0157*
1,1,0.0374,-0.0531,0.0157*
1,1,0.0374,0.0531,0.0157*
1,1,0.0374,0.0531,-0.0157*
%
%ADD53ROUNDEDRECTD53*%
G04:AMPARAMS|DCode=54|XSize=68.9mil|YSize=143.7mil|CornerRadius=7.7mil|HoleSize=0mil|Usage=FLASHONLY|Rotation=270.000|XOffset=0mil|YOffset=0mil|HoleType=Round|Shape=RoundedRectangle|*
%AMROUNDEDRECTD54*
21,1,0.0689,0.1283,0,0,270.0*
21,1,0.0535,0.1437,0,0,270.0*
1,1,0.0154,-0.0642,-0.0268*
1,1,0.0154,-0.0642,0.0268*
1,1,0.0154,0.0642,0.0268*
1,1,0.0154,0.0642,-0.0268*
%
%ADD54ROUNDEDRECTD54*%
G04:AMPARAMS|DCode=55|XSize=96.5mil|YSize=135.8mil|CornerRadius=25.6mil|HoleSize=0mil|Usage=FLASHONLY|Rotation=90.000|XOffset=0mil|YOffset=0mil|HoleType=Round|Shape=RoundedRectangle|*
%AMROUNDEDRECTD55*
21,1,0.0965,0.0846,0,0,90.0*
21,1,0.0453,0.1358,0,0,90.0*
1,1,0.0512,0.0423,0.0226*
1,1,0.0512,0.0423,-0.0226*
1,1,0.0512,-0.0423,-0.0226*
1,1,0.0512,-0.0423,0.0226*
%
%ADD55ROUNDEDRECTD55*%
G04:AMPARAMS|DCode=56|XSize=96.5mil|YSize=135.8mil|CornerRadius=9.7mil|HoleSize=0mil|Usage=FLASHONLY|Rotation=90.000|XOffset=0mil|YOffset=0mil|HoleType=Round|Shape=RoundedRectangle|*
%AMROUNDEDRECTD56*
21,1,0.0965,0.1163,0,0,90.0*
21,1,0.0770,0.1358,0,0,90.0*
1,1,0.0195,0.0582,0.0385*
1,1,0.0195,0.0582,-0.0385*
1,1,0.0195,-0.0582,-0.0385*
1,1,0.0195,-0.0582,0.0385*
%
%ADD56ROUNDEDRECTD56*%
G04:AMPARAMS|DCode=57|XSize=41.3mil|YSize=57.1mil|CornerRadius=8.3mil|HoleSize=0mil|Usage=FLASHONLY|Rotation=0.000|XOffset=0mil|YOffset=0mil|HoleType=Round|Shape=RoundedRectangle|*
%AMROUNDEDRECTD57*
21,1,0.0413,0.0406,0,0,0.0*
21,1,0.0248,0.0571,0,0,0.0*
1,1,0.0165,0.0124,-0.0203*
1,1,0.0165,-0.0124,-0.0203*
1,1,0.0165,-0.0124,0.0203*
1,1,0.0165,0.0124,0.0203*
%
%ADD57ROUNDEDRECTD57*%
G04:AMPARAMS|DCode=58|XSize=30.7mil|YSize=38.6mil|CornerRadius=9.2mil|HoleSize=0mil|Usage=FLASHONLY|Rotation=0.000|XOffset=0mil|YOffset=0mil|HoleType=Round|Shape=RoundedRectangle|*
%AMROUNDEDRECTD58*
21,1,0.0307,0.0203,0,0,0.0*
21,1,0.0124,0.0386,0,0,0.0*
1,1,0.0183,0.0062,-0.0101*
1,1,0.0183,-0.0062,-0.0101*
1,1,0.0183,-0.0062,0.0101*
1,1,0.0183,0.0062,0.0101*
%
%ADD58ROUNDEDRECTD58*%
G04:AMPARAMS|DCode=59|XSize=30.7mil|YSize=38.6mil|CornerRadius=4.8mil|HoleSize=0mil|Usage=FLASHONLY|Rotation=0.000|XOffset=0mil|YOffset=0mil|HoleType=Round|Shape=RoundedRectangle|*
%AMROUNDEDRECTD59*
21,1,0.0307,0.0290,0,0,0.0*
21,1,0.0211,0.0386,0,0,0.0*
1,1,0.0096,0.0105,-0.0145*
1,1,0.0096,-0.0105,-0.0145*
1,1,0.0096,-0.0105,0.0145*
1,1,0.0096,0.0105,0.0145*
%
%ADD59ROUNDEDRECTD59*%
G04:AMPARAMS|DCode=60|XSize=37.4mil|YSize=37.4mil|CornerRadius=7.7mil|HoleSize=0mil|Usage=FLASHONLY|Rotation=180.000|XOffset=0mil|YOffset=0mil|HoleType=Round|Shape=RoundedRectangle|*
%AMROUNDEDRECTD60*
21,1,0.0374,0.0220,0,0,180.0*
21,1,0.0220,0.0374,0,0,180.0*
1,1,0.0154,-0.0110,0.0110*
1,1,0.0154,0.0110,0.0110*
1,1,0.0154,0.0110,-0.0110*
1,1,0.0154,-0.0110,-0.0110*
%
%ADD60ROUNDEDRECTD60*%
G04:AMPARAMS|DCode=61|XSize=41.3mil|YSize=57.1mil|CornerRadius=5.6mil|HoleSize=0mil|Usage=FLASHONLY|Rotation=0.000|XOffset=0mil|YOffset=0mil|HoleType=Round|Shape=RoundedRectangle|*
%AMROUNDEDRECTD61*
21,1,0.0413,0.0459,0,0,0.0*
21,1,0.0301,0.0571,0,0,0.0*
1,1,0.0112,0.0151,-0.0229*
1,1,0.0112,-0.0151,-0.0229*
1,1,0.0112,-0.0151,0.0229*
1,1,0.0112,0.0151,0.0229*
%
%ADD61ROUNDEDRECTD61*%
G04:AMPARAMS|DCode=62|XSize=41.3mil|YSize=57.1mil|CornerRadius=11.8mil|HoleSize=0mil|Usage=FLASHONLY|Rotation=0.000|XOffset=0mil|YOffset=0mil|HoleType=Round|Shape=RoundedRectangle|*
%AMROUNDEDRECTD62*
21,1,0.0413,0.0335,0,0,0.0*
21,1,0.0177,0.0571,0,0,0.0*
1,1,0.0236,0.0089,-0.0167*
1,1,0.0236,-0.0089,-0.0167*
1,1,0.0236,-0.0089,0.0167*
1,1,0.0236,0.0089,0.0167*
%
%ADD62ROUNDEDRECTD62*%
%ADD63O,0.0650X0.0768*%
G04:AMPARAMS|DCode=64|XSize=65mil|YSize=76.8mil|CornerRadius=17.7mil|HoleSize=0mil|Usage=FLASHONLY|Rotation=180.000|XOffset=0mil|YOffset=0mil|HoleType=Round|Shape=RoundedRectangle|*
%AMROUNDEDRECTD64*
21,1,0.0650,0.0413,0,0,180.0*
21,1,0.0295,0.0768,0,0,180.0*
1,1,0.0354,-0.0148,0.0207*
1,1,0.0354,0.0148,0.0207*
1,1,0.0354,0.0148,-0.0207*
1,1,0.0354,-0.0148,-0.0207*
%
%ADD64ROUNDEDRECTD64*%
%ADD65C,0.1004*%
G04:AMPARAMS|DCode=66|XSize=100.4mil|YSize=100.4mil|CornerRadius=12.4mil|HoleSize=0mil|Usage=FLASHONLY|Rotation=270.000|XOffset=0mil|YOffset=0mil|HoleType=Round|Shape=RoundedRectangle|*
%AMROUNDEDRECTD66*
21,1,0.1004,0.0756,0,0,270.0*
21,1,0.0756,0.1004,0,0,270.0*
1,1,0.0248,-0.0378,-0.0378*
1,1,0.0248,-0.0378,0.0378*
1,1,0.0248,0.0378,0.0378*
1,1,0.0248,0.0378,-0.0378*
%
%ADD66ROUNDEDRECTD66*%
%ADD67C,0.1713*%
%ADD68C,0.0846*%
G04:AMPARAMS|DCode=69|XSize=84.6mil|YSize=84.6mil|CornerRadius=14.8mil|HoleSize=0mil|Usage=FLASHONLY|Rotation=90.000|XOffset=0mil|YOffset=0mil|HoleType=Round|Shape=RoundedRectangle|*
%AMROUNDEDRECTD69*
21,1,0.0846,0.0551,0,0,90.0*
21,1,0.0551,0.0846,0,0,90.0*
1,1,0.0295,0.0276,0.0276*
1,1,0.0295,0.0276,-0.0276*
1,1,0.0295,-0.0276,-0.0276*
1,1,0.0295,-0.0276,0.0276*
%
%ADD69ROUNDEDRECTD69*%
G04:AMPARAMS|DCode=70|XSize=104.3mil|YSize=183.1mil|CornerRadius=52.2mil|HoleSize=0mil|Usage=FLASHONLY|Rotation=135.000|XOffset=0mil|YOffset=0mil|HoleType=Round|Shape=RoundedRectangle|*
%AMROUNDEDRECTD70*
21,1,0.1043,0.0787,0,0,135.0*
21,1,0.0000,0.1831,0,0,135.0*
1,1,0.1043,0.0278,0.0278*
1,1,0.1043,0.0278,0.0278*
1,1,0.1043,-0.0278,-0.0278*
1,1,0.1043,-0.0278,-0.0278*
%
%ADD70ROUNDEDRECTD70*%
%ADD71O,0.1831X0.1043*%
G04:AMPARAMS|DCode=72|XSize=104.3mil|YSize=183.1mil|CornerRadius=0mil|HoleSize=0mil|Usage=FLASHONLY|Rotation=45.000|XOffset=0mil|YOffset=0mil|HoleType=Round|Shape=Round|*
%AMOVALD72*
21,1,0.0787,0.1043,0.0000,0.0000,135.0*
1,1,0.1043,0.0278,-0.0278*
1,1,0.1043,-0.0278,0.0278*
%
%ADD72OVALD72*%

G04:AMPARAMS|DCode=73|XSize=131.9mil|YSize=202.8mil|CornerRadius=21.9mil|HoleSize=0mil|Usage=FLASHONLY|Rotation=0.000|XOffset=0mil|YOffset=0mil|HoleType=Round|Shape=RoundedRectangle|*
%AMROUNDEDRECTD73*
21,1,0.1319,0.1591,0,0,0.0*
21,1,0.0882,0.2028,0,0,0.0*
1,1,0.0437,0.0441,-0.0795*
1,1,0.0437,-0.0441,-0.0795*
1,1,0.0437,-0.0441,0.0795*
1,1,0.0437,0.0441,0.0795*
%
%ADD73ROUNDEDRECTD73*%
G04:AMPARAMS|DCode=74|XSize=131.9mil|YSize=202.8mil|CornerRadius=65.9mil|HoleSize=0mil|Usage=FLASHONLY|Rotation=0.000|XOffset=0mil|YOffset=0mil|HoleType=Round|Shape=RoundedRectangle|*
%AMROUNDEDRECTD74*
21,1,0.1319,0.0709,0,0,0.0*
21,1,0.0000,0.2028,0,0,0.0*
1,1,0.1319,0.0000,-0.0354*
1,1,0.1319,0.0000,-0.0354*
1,1,0.1319,0.0000,0.0354*
1,1,0.1319,0.0000,0.0354*
%
%ADD74ROUNDEDRECTD74*%
%ADD75C,0.1043*%
G36*
X-24232Y-15764D02*
X-24429Y-15567D01*
X-26004D01*
X-26201Y-15764D01*
X-26201Y-17339D01*
X-25807Y-17732D01*
X-24429D01*
X-24232Y-17535D01*
X-24232Y-15764D01*
D02*
G37*
G36*
X-24232Y-13795D02*
X-24626Y-13402D01*
X-26004D01*
X-26201Y-13598D01*
X-26201Y-15138D01*
X-26063Y-15276D01*
X-24370Y-15276D01*
X-24232Y-15138D01*
Y-13795D01*
D02*
G37*
G36*
X24409Y-15748D02*
X24606Y-15551D01*
X25984Y-15551D01*
X26217Y-15784D01*
X26217Y-17278D01*
X25779Y-17717D01*
X24606Y-17717D01*
X24409Y-17520D01*
X24409Y-15748D01*
D02*
G37*
G36*
X24409Y-13780D02*
X24803Y-13386D01*
X25984Y-13386D01*
X26220Y-13622D01*
X26220Y-14961D01*
X25906Y-15276D01*
X24528D01*
X24409Y-15157D01*
Y-13780D01*
D02*
G37*
D39*
X-16850Y-14724D02*
X-16378D01*
X-15157Y-13346D01*
X15512Y-15669D02*
X16181D01*
X6417D02*
X12441D01*
X-17323Y-13780D02*
Y-11220D01*
X-15157Y-13346D02*
Y-11220D01*
X-20669Y-10433D02*
Y-8268D01*
X-22244Y-10433D02*
Y-8268D01*
X16181Y-15669D02*
X16968Y-16457D01*
X3937Y-13189D02*
X6417Y-15669D01*
X4921Y-16732D02*
X12677D01*
X1969Y-13780D02*
X4921Y-16732D01*
X-2559Y-10236D02*
Y-8465D01*
X-1181Y-11909D02*
Y-5906D01*
X15157Y-10827D02*
X17323Y-8661D01*
X4921Y-10827D02*
X15157D01*
X2756Y-8661D02*
X4921Y-10827D01*
X13780Y-9843D02*
X15354Y-8268D01*
X6299Y-9843D02*
X13780D01*
X3937Y-7480D02*
X6299Y-9843D01*
D40*
X12795Y-3730D02*
D03*
X-6299Y-14163D02*
D03*
X-6102Y-3730D02*
D03*
D41*
X12795Y-4931D02*
D03*
X-6299Y-15364D02*
D03*
X-6102Y-4931D02*
D03*
D42*
X12008Y-3809D02*
D03*
Y-4459D02*
D03*
X11024Y-5384D02*
D03*
Y-6033D02*
D03*
X11614D02*
D03*
Y-5384D02*
D03*
X11220Y-8140D02*
D03*
Y-8789D02*
D03*
X18110Y-12726D02*
D03*
Y-12077D02*
D03*
X-7087Y-14695D02*
D03*
Y-14045D02*
D03*
X-7776D02*
D03*
Y-14695D02*
D03*
X-7677Y-8789D02*
D03*
Y-8140D02*
D03*
X-7283Y-5384D02*
D03*
Y-6033D02*
D03*
X-7874D02*
D03*
Y-5384D02*
D03*
X-6890Y-4459D02*
D03*
Y-3809D02*
D03*
D43*
X10624Y-4129D02*
D03*
X11424Y-3759D02*
D03*
X12802Y-8470D02*
D03*
X12002Y-8840D02*
D03*
X20380Y-12407D02*
D03*
X19580Y-12777D02*
D03*
X-10144Y-13775D02*
D03*
X-9344Y-13405D02*
D03*
X-6896Y-8840D02*
D03*
X-6096Y-8470D02*
D03*
X-7474Y-3759D02*
D03*
X-8274Y-4129D02*
D03*
D44*
X11424Y-4509D02*
D03*
X12002Y-8090D02*
D03*
X19580Y-12027D02*
D03*
X-9344Y-14155D02*
D03*
X-6896Y-8090D02*
D03*
X-7474Y-4509D02*
D03*
D45*
X12402Y-5413D02*
D03*
Y-6004D02*
D03*
X17126Y-12106D02*
D03*
X17126Y-12697D02*
D03*
X-6496Y-6004D02*
D03*
Y-5413D02*
D03*
D46*
X11024Y-6713D02*
D03*
Y-7461D02*
D03*
X18799Y-12028D02*
D03*
Y-12776D02*
D03*
X-8563Y-14744D02*
D03*
Y-13996D02*
D03*
X-7874Y-7461D02*
D03*
Y-6713D02*
D03*
D47*
X12003Y-7487D02*
D03*
X11633Y-6687D02*
D03*
X-7265D02*
D03*
X-6895Y-7487D02*
D03*
D48*
X12383Y-6687D02*
D03*
X-6515D02*
D03*
D49*
X10561Y-8858D02*
D03*
X9911D02*
D03*
X8337D02*
D03*
X8986D02*
D03*
X5974Y-8268D02*
D03*
X6624D02*
D03*
Y-7480D02*
D03*
X5974D02*
D03*
X6624Y-6693D02*
D03*
X5974D02*
D03*
X6624Y-5906D02*
D03*
X5974D02*
D03*
X18238Y-11319D02*
D03*
X17589D02*
D03*
X20404D02*
D03*
X19754D02*
D03*
X21132D02*
D03*
X21781Y-11319D02*
D03*
X-10896Y-15059D02*
D03*
X-11545Y-15059D02*
D03*
X-9518D02*
D03*
X-10167D02*
D03*
X-8986Y-8858D02*
D03*
X-8337D02*
D03*
X-9911D02*
D03*
X-10561D02*
D03*
X-12274Y-8268D02*
D03*
X-12923D02*
D03*
Y-7480D02*
D03*
X-12274D02*
D03*
X-12923Y-6693D02*
D03*
X-12274D02*
D03*
X-12923Y-5906D02*
D03*
X-12274D02*
D03*
D50*
X9358Y-7963D02*
D03*
X10358Y-5817D02*
D03*
X9858D02*
D03*
X9358D02*
D03*
X10358Y-7963D02*
D03*
X9858D02*
D03*
X8858Y-5817D02*
D03*
X8358D02*
D03*
X7858D02*
D03*
X7358D02*
D03*
X8858Y-7963D02*
D03*
X8358D02*
D03*
X7858D02*
D03*
X-11039Y-7963D02*
D03*
X-10539Y-7963D02*
D03*
X-10039Y-7963D02*
D03*
X-11539Y-5817D02*
D03*
X-11039D02*
D03*
X-10539Y-5817D02*
D03*
X-10039Y-5817D02*
D03*
X-9039Y-7963D02*
D03*
X-8539D02*
D03*
X-9539Y-5817D02*
D03*
X-9039Y-5817D02*
D03*
X-8539D02*
D03*
X-9539Y-7963D02*
D03*
D51*
X7358Y-7963D02*
D03*
X-11539Y-7963D02*
D03*
D52*
X22146Y-15748D02*
D03*
X-22146D02*
D03*
D53*
X18209Y-16748D02*
D03*
X-18209Y-14748D02*
D03*
D54*
X18209D02*
D03*
X-18209Y-16748D02*
D03*
D55*
X13976Y-16831D02*
D03*
X-13976Y-14075D02*
D03*
D56*
X13976D02*
D03*
X-13976Y-16831D02*
D03*
D57*
X21831Y-12106D02*
D03*
X21083D02*
D03*
X23248Y-13091D02*
D03*
X23996D02*
D03*
X-23996D02*
D03*
X-23248D02*
D03*
X-11594Y-14272D02*
D03*
X-10846D02*
D03*
D58*
X21909Y-12992D02*
D03*
X-11673Y-13484D02*
D03*
D59*
X21004Y-12992D02*
D03*
X-10768Y-13484D02*
D03*
D60*
X23228Y-12500D02*
D03*
X23819D02*
D03*
X-23228D02*
D03*
X-23819D02*
D03*
X-7185Y-13386D02*
D03*
X-7776D02*
D03*
D61*
X-8474Y-15551D02*
D03*
D62*
X-7274D02*
D03*
D63*
X12154Y-2677D02*
D03*
X-6193Y-16732D02*
D03*
X-6744Y-2677D02*
D03*
D64*
X11154D02*
D03*
X-7193Y-16732D02*
D03*
X-7744Y-2677D02*
D03*
D65*
X-25217Y-14354D02*
D03*
X25374D02*
D03*
D66*
X-25217Y-16354D02*
D03*
X25374D02*
D03*
D67*
X0Y-14764D02*
D03*
X13386Y-12205D02*
D03*
X24409Y-11024D02*
D03*
X-13386Y-12205D02*
D03*
X-24409Y-11024D02*
D03*
X23228Y-1378D02*
D03*
X14567D02*
D03*
X4331D02*
D03*
X-4331D02*
D03*
X-14567D02*
D03*
X-23228D02*
D03*
D68*
X8110Y-4232D02*
D03*
X-10787D02*
D03*
D69*
X8110Y-1673D02*
D03*
X-10787D02*
D03*
D70*
X-21695Y-2900D02*
D03*
X16100D02*
D03*
X-2798D02*
D03*
D71*
X-18898Y-1741D02*
D03*
X18898D02*
D03*
X0D02*
D03*
D72*
X-16100Y-2900D02*
D03*
X21695D02*
D03*
X2798D02*
D03*
D73*
X-21496Y-6909D02*
D03*
Y-6083D02*
D03*
X16299Y-6909D02*
D03*
Y-6083D02*
D03*
X-2598Y-6909D02*
D03*
Y-6083D02*
D03*
D74*
X-16299Y-6909D02*
D03*
Y-6083D02*
D03*
X21496Y-6909D02*
D03*
Y-6083D02*
D03*
X2598Y-6909D02*
D03*
Y-6083D02*
D03*
D75*
X-21549Y-12677D02*
D03*
X-16246Y-11339D02*
D03*
X-21549D02*
D03*
X-16246Y-12677D02*
D03*
X-2652D02*
D03*
X2652Y-11339D02*
D03*
X-2652D02*
D03*
X2652Y-12677D02*
D03*
M02*
