G04*
G04 #@! TF.GenerationSoftware,Altium Limited,Altium Designer,21.1.1 (26)*
G04*
G04 Layer_Physical_Order=2*
G04 Layer_Color=16711680*
%FSLAX24Y24*%
%MOIN*%
G70*
G04*
G04 #@! TF.SameCoordinates,5E4DD114-A7E0-4D59-9A99-9927C2522E00*
G04*
G04*
G04 #@! TF.FilePolarity,Positive*
G04*
G01*
G75*
%ADD11C,0.0197*%
%ADD76C,0.2362*%
%ADD77C,0.1181*%
%ADD81O,0.0591X0.0709*%
G04:AMPARAMS|DCode=82|XSize=59.1mil|YSize=70.9mil|CornerRadius=14.8mil|HoleSize=0mil|Usage=FLASHONLY|Rotation=180.000|XOffset=0mil|YOffset=0mil|HoleType=Round|Shape=RoundedRectangle|*
%AMROUNDEDRECTD82*
21,1,0.0591,0.0413,0,0,180.0*
21,1,0.0295,0.0709,0,0,180.0*
1,1,0.0295,-0.0148,0.0207*
1,1,0.0295,0.0148,0.0207*
1,1,0.0295,0.0148,-0.0207*
1,1,0.0295,-0.0148,-0.0207*
%
%ADD82ROUNDEDRECTD82*%
%ADD83C,0.0945*%
G04:AMPARAMS|DCode=84|XSize=94.5mil|YSize=94.5mil|CornerRadius=9.4mil|HoleSize=0mil|Usage=FLASHONLY|Rotation=270.000|XOffset=0mil|YOffset=0mil|HoleType=Round|Shape=RoundedRectangle|*
%AMROUNDEDRECTD84*
21,1,0.0945,0.0756,0,0,270.0*
21,1,0.0756,0.0945,0,0,270.0*
1,1,0.0189,-0.0378,-0.0378*
1,1,0.0189,-0.0378,0.0378*
1,1,0.0189,0.0378,0.0378*
1,1,0.0189,0.0378,-0.0378*
%
%ADD84ROUNDEDRECTD84*%
%ADD86C,0.0787*%
G04:AMPARAMS|DCode=87|XSize=78.7mil|YSize=78.7mil|CornerRadius=11.8mil|HoleSize=0mil|Usage=FLASHONLY|Rotation=90.000|XOffset=0mil|YOffset=0mil|HoleType=Round|Shape=RoundedRectangle|*
%AMROUNDEDRECTD87*
21,1,0.0787,0.0551,0,0,90.0*
21,1,0.0551,0.0787,0,0,90.0*
1,1,0.0236,0.0276,0.0276*
1,1,0.0236,0.0276,-0.0276*
1,1,0.0236,-0.0276,-0.0276*
1,1,0.0236,-0.0276,0.0276*
%
%ADD87ROUNDEDRECTD87*%
G04:AMPARAMS|DCode=88|XSize=98.4mil|YSize=177.2mil|CornerRadius=49.2mil|HoleSize=0mil|Usage=FLASHONLY|Rotation=135.000|XOffset=0mil|YOffset=0mil|HoleType=Round|Shape=RoundedRectangle|*
%AMROUNDEDRECTD88*
21,1,0.0984,0.0787,0,0,135.0*
21,1,0.0000,0.1772,0,0,135.0*
1,1,0.0984,0.0278,0.0278*
1,1,0.0984,0.0278,0.0278*
1,1,0.0984,-0.0278,-0.0278*
1,1,0.0984,-0.0278,-0.0278*
%
%ADD88ROUNDEDRECTD88*%
%ADD89O,0.1772X0.0984*%
G04:AMPARAMS|DCode=90|XSize=98.4mil|YSize=177.2mil|CornerRadius=0mil|HoleSize=0mil|Usage=FLASHONLY|Rotation=45.000|XOffset=0mil|YOffset=0mil|HoleType=Round|Shape=Round|*
%AMOVALD90*
21,1,0.0787,0.0984,0.0000,0.0000,135.0*
1,1,0.0984,0.0278,-0.0278*
1,1,0.0984,-0.0278,0.0278*
%
%ADD90OVALD90*%

G04:AMPARAMS|DCode=91|XSize=126mil|YSize=196.9mil|CornerRadius=18.9mil|HoleSize=0mil|Usage=FLASHONLY|Rotation=0.000|XOffset=0mil|YOffset=0mil|HoleType=Round|Shape=RoundedRectangle|*
%AMROUNDEDRECTD91*
21,1,0.1260,0.1591,0,0,0.0*
21,1,0.0882,0.1969,0,0,0.0*
1,1,0.0378,0.0441,-0.0795*
1,1,0.0378,-0.0441,-0.0795*
1,1,0.0378,-0.0441,0.0795*
1,1,0.0378,0.0441,0.0795*
%
%ADD91ROUNDEDRECTD91*%
G04:AMPARAMS|DCode=92|XSize=126mil|YSize=196.9mil|CornerRadius=63mil|HoleSize=0mil|Usage=FLASHONLY|Rotation=0.000|XOffset=0mil|YOffset=0mil|HoleType=Round|Shape=RoundedRectangle|*
%AMROUNDEDRECTD92*
21,1,0.1260,0.0709,0,0,0.0*
21,1,0.0000,0.1969,0,0,0.0*
1,1,0.1260,0.0000,-0.0354*
1,1,0.1260,0.0000,-0.0354*
1,1,0.1260,0.0000,0.0354*
1,1,0.1260,0.0000,0.0354*
%
%ADD92ROUNDEDRECTD92*%
%ADD93C,0.0984*%
%ADD94C,0.0157*%
%ADD95C,0.0276*%
%ADD96C,0.0984*%
%ADD97C,0.2362*%
G36*
X22698Y-211D02*
X22557Y-282D01*
X22394Y-401D01*
X22251Y-543D01*
X22133Y-707D01*
X22041Y-886D01*
X21979Y-1078D01*
X21947Y-1277D01*
Y-1329D01*
X23228D01*
X24509D01*
Y-1277D01*
X24478Y-1078D01*
X24416Y-886D01*
X24324Y-707D01*
X24206Y-543D01*
X24063Y-401D01*
X23942Y-313D01*
X23950Y-257D01*
X23968Y-250D01*
X24237Y-332D01*
X24508Y-444D01*
X24767Y-583D01*
X25011Y-746D01*
X25238Y-932D01*
X25446Y-1140D01*
X25632Y-1367D01*
X25795Y-1611D01*
X25934Y-1870D01*
X26046Y-2141D01*
X26131Y-2422D01*
X26189Y-2711D01*
X26217Y-3003D01*
X26217Y-3150D01*
Y-15238D01*
X24035D01*
X23997Y-15246D01*
X23964Y-15268D01*
X23943Y-15300D01*
X23935Y-15339D01*
Y-17950D01*
X20298D01*
X20181Y-17936D01*
X20065Y-17909D01*
X19954Y-17868D01*
X19901Y-17842D01*
X19219Y-17501D01*
X19217Y-17500D01*
X19215Y-17499D01*
X19153Y-17470D01*
X19146Y-17468D01*
X19140Y-17465D01*
X19011Y-17418D01*
X19002Y-17417D01*
X18993Y-17413D01*
X18860Y-17381D01*
X18851Y-17381D01*
X18842Y-17378D01*
X18706Y-17362D01*
X18699Y-17363D01*
X18692Y-17361D01*
X18623Y-17359D01*
X18621Y-17360D01*
X18619Y-17359D01*
X8940D01*
X8938Y-17360D01*
X8936Y-17359D01*
X8867Y-17361D01*
X8860Y-17363D01*
X8853Y-17362D01*
X8717Y-17378D01*
X8708Y-17381D01*
X8699Y-17381D01*
X8566Y-17413D01*
X8557Y-17417D01*
X8548Y-17418D01*
X8419Y-17465D01*
X8413Y-17468D01*
X8406Y-17470D01*
X8344Y-17499D01*
X8343Y-17500D01*
X8340Y-17501D01*
X7658Y-17842D01*
X7605Y-17868D01*
X7494Y-17909D01*
X7378Y-17936D01*
X7261Y-17950D01*
X-7261D01*
X-7378Y-17936D01*
X-7494Y-17909D01*
X-7605Y-17868D01*
X-7658Y-17842D01*
X-8340Y-17501D01*
X-8343Y-17500D01*
X-8344Y-17499D01*
X-8407Y-17470D01*
X-8413Y-17468D01*
X-8419Y-17465D01*
X-8548Y-17418D01*
X-8557Y-17417D01*
X-8566Y-17413D01*
X-8699Y-17381D01*
X-8708Y-17381D01*
X-8717Y-17378D01*
X-8853Y-17362D01*
X-8860Y-17363D01*
X-8867Y-17361D01*
X-8936Y-17359D01*
X-8938Y-17360D01*
X-8940Y-17359D01*
X-18619D01*
X-18621Y-17360D01*
X-18623Y-17359D01*
X-18692Y-17361D01*
X-18699Y-17363D01*
X-18706Y-17362D01*
X-18842Y-17378D01*
X-18851Y-17381D01*
X-18860Y-17381D01*
X-18993Y-17413D01*
X-19002Y-17417D01*
X-19011Y-17418D01*
X-19140Y-17465D01*
X-19146Y-17468D01*
X-19153Y-17470D01*
X-19215Y-17499D01*
X-19217Y-17500D01*
X-19219Y-17501D01*
X-19901Y-17842D01*
X-19954Y-17868D01*
X-20065Y-17909D01*
X-20181Y-17936D01*
X-20298Y-17950D01*
X-23974D01*
Y-15339D01*
X-23982Y-15300D01*
X-24004Y-15268D01*
X-24036Y-15246D01*
X-24075Y-15238D01*
X-26217D01*
Y-3150D01*
X-26217Y-3003D01*
X-26189Y-2711D01*
X-26131Y-2422D01*
X-26046Y-2141D01*
X-25934Y-1870D01*
X-25795Y-1611D01*
X-25632Y-1367D01*
X-25446Y-1140D01*
X-25238Y-932D01*
X-25011Y-746D01*
X-24767Y-583D01*
X-24508Y-444D01*
X-24237Y-332D01*
X-23968Y-250D01*
X-23950Y-257D01*
X-23942Y-313D01*
X-24063Y-401D01*
X-24206Y-543D01*
X-24324Y-707D01*
X-24416Y-886D01*
X-24478Y-1078D01*
X-24509Y-1277D01*
Y-1329D01*
X-23228D01*
X-21947D01*
Y-1277D01*
X-21979Y-1078D01*
X-22041Y-886D01*
X-22133Y-707D01*
X-22251Y-543D01*
X-22394Y-401D01*
X-22557Y-282D01*
X-22698Y-211D01*
X-22686Y-161D01*
X-15110D01*
X-15098Y-211D01*
X-15238Y-282D01*
X-15402Y-401D01*
X-15544Y-543D01*
X-15663Y-707D01*
X-15754Y-886D01*
X-15816Y-1078D01*
X-15848Y-1277D01*
Y-1329D01*
X-14567D01*
X-13286D01*
Y-1277D01*
X-13317Y-1078D01*
X-13380Y-886D01*
X-13471Y-707D01*
X-13590Y-543D01*
X-13732Y-401D01*
X-13895Y-282D01*
X-14036Y-211D01*
X-14024Y-161D01*
X-4873D01*
X-4861Y-211D01*
X-5002Y-282D01*
X-5165Y-401D01*
X-5308Y-543D01*
X-5426Y-707D01*
X-5518Y-886D01*
X-5580Y-1078D01*
X-5612Y-1277D01*
Y-1329D01*
X-4331D01*
X-3050D01*
Y-1277D01*
X-3081Y-1078D01*
X-3143Y-886D01*
X-3235Y-707D01*
X-3354Y-543D01*
X-3496Y-401D01*
X-3659Y-282D01*
X-3800Y-211D01*
X-3788Y-161D01*
X3788D01*
X3800Y-211D01*
X3659Y-282D01*
X3496Y-401D01*
X3354Y-543D01*
X3235Y-707D01*
X3143Y-886D01*
X3081Y-1078D01*
X3050Y-1277D01*
Y-1329D01*
X4331D01*
X5612D01*
Y-1277D01*
X5580Y-1078D01*
X5518Y-886D01*
X5426Y-707D01*
X5308Y-543D01*
X5165Y-401D01*
X5002Y-282D01*
X4861Y-211D01*
X4873Y-161D01*
X14024D01*
X14036Y-211D01*
X13895Y-282D01*
X13732Y-401D01*
X13590Y-543D01*
X13471Y-707D01*
X13380Y-886D01*
X13317Y-1078D01*
X13286Y-1277D01*
Y-1329D01*
X14567D01*
X15848D01*
Y-1277D01*
X15816Y-1078D01*
X15754Y-886D01*
X15663Y-707D01*
X15544Y-543D01*
X15402Y-401D01*
X15238Y-282D01*
X15098Y-211D01*
X15110Y-161D01*
X22686D01*
X22698Y-211D01*
D02*
G37*
G36*
X26217Y-16929D02*
X26217Y-16996D01*
X26200Y-17129D01*
X26165Y-17258D01*
X26114Y-17381D01*
X26047Y-17497D01*
X25966Y-17603D01*
X25871Y-17698D01*
X25765Y-17780D01*
X25649Y-17846D01*
X25526Y-17898D01*
X25396Y-17932D01*
X25264Y-17950D01*
X24035D01*
Y-15339D01*
X26217D01*
Y-16929D01*
D02*
G37*
G36*
X-24075Y-17950D02*
X-25264D01*
X-25396Y-17932D01*
X-25526Y-17898D01*
X-25649Y-17846D01*
X-25765Y-17780D01*
X-25871Y-17698D01*
X-25966Y-17603D01*
X-26047Y-17497D01*
X-26114Y-17381D01*
X-26165Y-17258D01*
X-26200Y-17129D01*
X-26217Y-16996D01*
X-26217Y-16929D01*
Y-15339D01*
X-24075D01*
Y-17950D01*
D02*
G37*
%LPC*%
G36*
X8386Y-1177D02*
X7835D01*
X7750Y-1194D01*
X7679Y-1242D01*
X7631Y-1313D01*
X7614Y-1398D01*
Y-1949D01*
X7631Y-2033D01*
X7679Y-2105D01*
X7750Y-2153D01*
X7835Y-2170D01*
X8386D01*
X8470Y-2153D01*
X8542Y-2105D01*
X8590Y-2033D01*
X8607Y-1949D01*
Y-1398D01*
X8590Y-1313D01*
X8542Y-1242D01*
X8470Y-1194D01*
X8386Y-1177D01*
D02*
G37*
G36*
X-10512D02*
X-11063D01*
X-11147Y-1194D01*
X-11219Y-1242D01*
X-11267Y-1313D01*
X-11284Y-1398D01*
Y-1949D01*
X-11267Y-2033D01*
X-11219Y-2105D01*
X-11147Y-2153D01*
X-11063Y-2170D01*
X-10512D01*
X-10427Y-2153D01*
X-10356Y-2105D01*
X-10308Y-2033D01*
X-10291Y-1949D01*
Y-1398D01*
X-10308Y-1313D01*
X-10356Y-1242D01*
X-10427Y-1194D01*
X-10512Y-1177D01*
D02*
G37*
G36*
X-6247Y-430D02*
X-6351D01*
X-6372Y-434D01*
X-6393Y-435D01*
X-6493Y-462D01*
X-6512Y-471D01*
X-6532Y-478D01*
X-6621Y-530D01*
X-6637Y-544D01*
X-6655Y-556D01*
X-6728Y-629D01*
X-6740Y-646D01*
X-6753Y-662D01*
X-6805Y-752D01*
X-6812Y-772D01*
X-6821Y-791D01*
X-6848Y-891D01*
X-6850Y-912D01*
X-6854Y-932D01*
Y-1604D01*
X-6851Y-1615D01*
X-6852Y-1627D01*
X-6844Y-1684D01*
X-6840Y-1695D01*
X-6838Y-1707D01*
X-6822Y-1762D01*
X-6816Y-1772D01*
X-6814Y-1784D01*
X-6789Y-1836D01*
X-6782Y-1845D01*
X-6778Y-1856D01*
X-6536Y-2222D01*
X-6569Y-2263D01*
X-6641Y-2233D01*
X-6695Y-2226D01*
Y-2628D01*
X-6345D01*
Y-2618D01*
X-6348Y-2598D01*
X-6300Y-2580D01*
X-5476Y-3828D01*
Y-5905D01*
Y-5957D01*
X-5472Y-5978D01*
X-5470Y-5999D01*
X-5443Y-6099D01*
X-5434Y-6118D01*
X-5427Y-6138D01*
X-5375Y-6228D01*
X-5362Y-6243D01*
X-5350Y-6261D01*
X-5277Y-6334D01*
X-5259Y-6346D01*
X-5243Y-6360D01*
X-5154Y-6412D01*
X-5134Y-6418D01*
X-5115Y-6428D01*
X-5015Y-6454D01*
X-4994Y-6456D01*
X-4973Y-6460D01*
X-4869D01*
X-4849Y-6456D01*
X-4828Y-6454D01*
X-4728Y-6428D01*
X-4709Y-6418D01*
X-4689Y-6412D01*
X-4599Y-6360D01*
X-4583Y-6346D01*
X-4566Y-6334D01*
X-4493Y-6261D01*
X-4481Y-6243D01*
X-4467Y-6228D01*
X-4415Y-6138D01*
X-4408Y-6118D01*
X-4399Y-6099D01*
X-4372Y-5999D01*
X-4371Y-5978D01*
X-4367Y-5957D01*
Y-5905D01*
Y-3661D01*
Y-3633D01*
X-4369Y-3621D01*
X-4369Y-3609D01*
X-4377Y-3552D01*
X-4381Y-3541D01*
X-4382Y-3529D01*
X-4399Y-3474D01*
X-4404Y-3464D01*
X-4407Y-3452D01*
X-4431Y-3400D01*
X-4438Y-3391D01*
X-4443Y-3380D01*
X-5005Y-2528D01*
X-4971Y-2490D01*
X-4822Y-2565D01*
X-4631Y-2628D01*
X-4432Y-2659D01*
X-4380D01*
Y-1427D01*
X-5612D01*
Y-1479D01*
X-5603Y-1534D01*
X-5650Y-1552D01*
X-5745Y-1408D01*
Y-932D01*
X-5749Y-912D01*
X-5750Y-891D01*
X-5777Y-791D01*
X-5786Y-772D01*
X-5793Y-752D01*
X-5845Y-662D01*
X-5859Y-646D01*
X-5871Y-629D01*
X-5944Y-556D01*
X-5961Y-544D01*
X-5977Y-530D01*
X-6067Y-478D01*
X-6087Y-471D01*
X-6106Y-462D01*
X-6206Y-435D01*
X-6227Y-434D01*
X-6247Y-430D01*
D02*
G37*
G36*
X19291Y-1148D02*
X18504D01*
X18388Y-1159D01*
X18277Y-1193D01*
X18174Y-1248D01*
X18084Y-1322D01*
X18011Y-1412D01*
X17956Y-1514D01*
X17922Y-1625D01*
X17911Y-1741D01*
X17922Y-1857D01*
X17956Y-1968D01*
X18011Y-2071D01*
X18084Y-2161D01*
X18174Y-2235D01*
X18277Y-2289D01*
X18388Y-2323D01*
X18504Y-2335D01*
X19291D01*
X19407Y-2323D01*
X19518Y-2289D01*
X19621Y-2235D01*
X19711Y-2161D01*
X19785Y-2071D01*
X19840Y-1968D01*
X19873Y-1857D01*
X19885Y-1741D01*
X19873Y-1625D01*
X19840Y-1514D01*
X19785Y-1412D01*
X19711Y-1322D01*
X19621Y-1248D01*
X19518Y-1193D01*
X19407Y-1159D01*
X19291Y-1148D01*
D02*
G37*
G36*
X394D02*
X-394D01*
X-509Y-1159D01*
X-621Y-1193D01*
X-723Y-1248D01*
X-813Y-1322D01*
X-887Y-1412D01*
X-942Y-1514D01*
X-976Y-1625D01*
X-987Y-1741D01*
X-976Y-1857D01*
X-942Y-1968D01*
X-887Y-2071D01*
X-813Y-2161D01*
X-723Y-2235D01*
X-621Y-2289D01*
X-509Y-2323D01*
X-394Y-2335D01*
X394D01*
X509Y-2323D01*
X621Y-2289D01*
X723Y-2235D01*
X813Y-2161D01*
X887Y-2071D01*
X942Y-1968D01*
X976Y-1857D01*
X987Y-1741D01*
X976Y-1625D01*
X942Y-1514D01*
X887Y-1412D01*
X813Y-1322D01*
X723Y-1248D01*
X621Y-1193D01*
X509Y-1159D01*
X394Y-1148D01*
D02*
G37*
G36*
X-18504D02*
X-19291D01*
X-19407Y-1159D01*
X-19518Y-1193D01*
X-19621Y-1248D01*
X-19711Y-1322D01*
X-19785Y-1412D01*
X-19840Y-1514D01*
X-19873Y-1625D01*
X-19885Y-1741D01*
X-19873Y-1857D01*
X-19840Y-1968D01*
X-19785Y-2071D01*
X-19711Y-2161D01*
X-19621Y-2235D01*
X-19518Y-2289D01*
X-19407Y-2323D01*
X-19291Y-2335D01*
X-18504D01*
X-18388Y-2323D01*
X-18277Y-2289D01*
X-18174Y-2235D01*
X-18084Y-2161D01*
X-18011Y-2071D01*
X-17956Y-1968D01*
X-17922Y-1857D01*
X-17911Y-1741D01*
X-17922Y-1625D01*
X-17956Y-1514D01*
X-18011Y-1412D01*
X-18084Y-1322D01*
X-18174Y-1248D01*
X-18277Y-1193D01*
X-18388Y-1159D01*
X-18504Y-1148D01*
D02*
G37*
G36*
X12203Y-2226D02*
Y-2628D01*
X12552D01*
Y-2618D01*
X12539Y-2515D01*
X12499Y-2419D01*
X12435Y-2336D01*
X12353Y-2273D01*
X12257Y-2233D01*
X12203Y-2226D01*
D02*
G37*
G36*
X12104D02*
X12050Y-2233D01*
X11954Y-2273D01*
X11872Y-2336D01*
X11808Y-2419D01*
X11768Y-2515D01*
X11755Y-2618D01*
Y-2628D01*
X12104D01*
Y-2226D01*
D02*
G37*
G36*
X-6793D02*
X-6847Y-2233D01*
X-6943Y-2273D01*
X-7026Y-2336D01*
X-7089Y-2419D01*
X-7129Y-2515D01*
X-7143Y-2618D01*
Y-2628D01*
X-6793D01*
Y-2226D01*
D02*
G37*
G36*
X24509Y-1427D02*
X23278D01*
Y-2659D01*
X23329D01*
X23528Y-2628D01*
X23720Y-2565D01*
X23900Y-2474D01*
X24063Y-2355D01*
X24206Y-2213D01*
X24324Y-2049D01*
X24416Y-1870D01*
X24478Y-1678D01*
X24509Y-1479D01*
Y-1427D01*
D02*
G37*
G36*
X23179D02*
X21947D01*
Y-1479D01*
X21979Y-1678D01*
X22041Y-1870D01*
X22133Y-2049D01*
X22251Y-2213D01*
X22394Y-2355D01*
X22557Y-2474D01*
X22737Y-2565D01*
X22928Y-2628D01*
X23128Y-2659D01*
X23179D01*
Y-1427D01*
D02*
G37*
G36*
X15848D02*
X14616D01*
Y-2659D01*
X14668D01*
X14867Y-2628D01*
X15059Y-2565D01*
X15238Y-2474D01*
X15402Y-2355D01*
X15544Y-2213D01*
X15663Y-2049D01*
X15754Y-1870D01*
X15816Y-1678D01*
X15848Y-1479D01*
Y-1427D01*
D02*
G37*
G36*
X14518D02*
X13286D01*
Y-1479D01*
X13317Y-1678D01*
X13380Y-1870D01*
X13471Y-2049D01*
X13590Y-2213D01*
X13732Y-2355D01*
X13895Y-2474D01*
X14075Y-2565D01*
X14267Y-2628D01*
X14466Y-2659D01*
X14518D01*
Y-1427D01*
D02*
G37*
G36*
X5612D02*
X4380D01*
Y-2659D01*
X4432D01*
X4631Y-2628D01*
X4822Y-2565D01*
X5002Y-2474D01*
X5165Y-2355D01*
X5308Y-2213D01*
X5426Y-2049D01*
X5518Y-1870D01*
X5580Y-1678D01*
X5612Y-1479D01*
Y-1427D01*
D02*
G37*
G36*
X4281D02*
X3050D01*
Y-1479D01*
X3081Y-1678D01*
X3143Y-1870D01*
X3235Y-2049D01*
X3354Y-2213D01*
X3496Y-2355D01*
X3659Y-2474D01*
X3839Y-2565D01*
X4031Y-2628D01*
X4230Y-2659D01*
X4281D01*
Y-1427D01*
D02*
G37*
G36*
X-3050D02*
X-4281D01*
Y-2659D01*
X-4230D01*
X-4031Y-2628D01*
X-3839Y-2565D01*
X-3659Y-2474D01*
X-3496Y-2355D01*
X-3354Y-2213D01*
X-3235Y-2049D01*
X-3143Y-1870D01*
X-3081Y-1678D01*
X-3050Y-1479D01*
Y-1427D01*
D02*
G37*
G36*
X-13286D02*
X-14518D01*
Y-2659D01*
X-14466D01*
X-14267Y-2628D01*
X-14075Y-2565D01*
X-13895Y-2474D01*
X-13732Y-2355D01*
X-13590Y-2213D01*
X-13471Y-2049D01*
X-13380Y-1870D01*
X-13317Y-1678D01*
X-13286Y-1479D01*
Y-1427D01*
D02*
G37*
G36*
X-14616D02*
X-15848D01*
Y-1479D01*
X-15816Y-1678D01*
X-15754Y-1870D01*
X-15663Y-2049D01*
X-15544Y-2213D01*
X-15402Y-2355D01*
X-15238Y-2474D01*
X-15059Y-2565D01*
X-14867Y-2628D01*
X-14668Y-2659D01*
X-14616D01*
Y-1427D01*
D02*
G37*
G36*
X-21947D02*
X-23179D01*
Y-2659D01*
X-23128D01*
X-22928Y-2628D01*
X-22737Y-2565D01*
X-22557Y-2474D01*
X-22394Y-2355D01*
X-22251Y-2213D01*
X-22133Y-2049D01*
X-22041Y-1870D01*
X-21979Y-1678D01*
X-21947Y-1479D01*
Y-1427D01*
D02*
G37*
G36*
X-23278D02*
X-24509D01*
Y-1479D01*
X-24478Y-1678D01*
X-24416Y-1870D01*
X-24324Y-2049D01*
X-24206Y-2213D01*
X-24063Y-2355D01*
X-23900Y-2474D01*
X-23720Y-2565D01*
X-23528Y-2628D01*
X-23329Y-2659D01*
X-23278D01*
Y-1427D01*
D02*
G37*
G36*
X-6345Y-2726D02*
X-6695D01*
Y-3128D01*
X-6641Y-3121D01*
X-6545Y-3081D01*
X-6462Y-3018D01*
X-6399Y-2936D01*
X-6359Y-2839D01*
X-6345Y-2736D01*
Y-2726D01*
D02*
G37*
G36*
X12552D02*
X12203D01*
Y-3128D01*
X12257Y-3121D01*
X12353Y-3081D01*
X12435Y-3018D01*
X12499Y-2936D01*
X12539Y-2839D01*
X12552Y-2736D01*
Y-2726D01*
D02*
G37*
G36*
X12104D02*
X11755D01*
Y-2736D01*
X11768Y-2839D01*
X11808Y-2936D01*
X11872Y-3018D01*
X11954Y-3081D01*
X12050Y-3121D01*
X12104Y-3128D01*
Y-2726D01*
D02*
G37*
G36*
X-6793D02*
X-7143D01*
Y-2736D01*
X-7129Y-2839D01*
X-7089Y-2936D01*
X-7026Y-3018D01*
X-6943Y-3081D01*
X-6847Y-3121D01*
X-6793Y-3128D01*
Y-2726D01*
D02*
G37*
G36*
X11301Y-2220D02*
X11006D01*
X10910Y-2239D01*
X10829Y-2293D01*
X10774Y-2374D01*
X10755Y-2470D01*
Y-2555D01*
X10630D01*
X10553Y-2570D01*
X10488Y-2614D01*
X9504Y-3598D01*
X9460Y-3663D01*
X9445Y-3740D01*
Y-5822D01*
X7988Y-7280D01*
X5709D01*
X5632Y-7295D01*
X5567Y-7338D01*
X2510Y-10395D01*
X2466Y-10461D01*
X2451Y-10537D01*
Y-10783D01*
X2372Y-10815D01*
X2275Y-10880D01*
X2193Y-10962D01*
X2128Y-11059D01*
X2084Y-11166D01*
X2061Y-11280D01*
Y-11397D01*
X2084Y-11511D01*
X2128Y-11618D01*
X2193Y-11715D01*
X2275Y-11797D01*
X2372Y-11862D01*
X2479Y-11906D01*
X2593Y-11929D01*
X2710D01*
X2824Y-11906D01*
X2931Y-11862D01*
X3028Y-11797D01*
X3110Y-11715D01*
X3175Y-11618D01*
X3219Y-11511D01*
X3242Y-11397D01*
Y-11280D01*
X3219Y-11166D01*
X3175Y-11059D01*
X3110Y-10962D01*
X3028Y-10880D01*
X2931Y-10815D01*
X2852Y-10783D01*
Y-10621D01*
X5792Y-7681D01*
X8071D01*
X8148Y-7666D01*
X8213Y-7622D01*
X9788Y-6047D01*
X9831Y-5982D01*
X9846Y-5906D01*
Y-3823D01*
X10713Y-2957D01*
X10769D01*
X10774Y-2980D01*
X10829Y-3061D01*
X10910Y-3116D01*
X11006Y-3135D01*
X11301D01*
X11397Y-3116D01*
X11479Y-3061D01*
X11533Y-2980D01*
X11552Y-2884D01*
Y-2470D01*
X11533Y-2374D01*
X11479Y-2293D01*
X11397Y-2239D01*
X11301Y-2220D01*
D02*
G37*
G36*
X-7596D02*
X-7892D01*
X-7988Y-2239D01*
X-8069Y-2293D01*
X-8124Y-2374D01*
X-8143Y-2470D01*
Y-2884D01*
X-8124Y-2980D01*
X-8069Y-3061D01*
X-7988Y-3116D01*
X-7892Y-3135D01*
X-7596D01*
X-7500Y-3116D01*
X-7419Y-3061D01*
X-7365Y-2980D01*
X-7346Y-2884D01*
Y-2470D01*
X-7365Y-2374D01*
X-7419Y-2293D01*
X-7500Y-2239D01*
X-7596Y-2220D01*
D02*
G37*
G36*
X16378Y-2028D02*
X16262Y-2040D01*
X16151Y-2073D01*
X16049Y-2128D01*
X15959Y-2202D01*
X15402Y-2759D01*
X15328Y-2849D01*
X15273Y-2951D01*
X15239Y-3063D01*
X15228Y-3178D01*
X15239Y-3294D01*
X15273Y-3406D01*
X15328Y-3508D01*
X15402Y-3598D01*
X15492Y-3672D01*
X15594Y-3727D01*
X15706Y-3760D01*
X15821Y-3772D01*
X15937Y-3760D01*
X16049Y-3727D01*
X16151Y-3672D01*
X16241Y-3598D01*
X16798Y-3041D01*
X16872Y-2951D01*
X16926Y-2849D01*
X16960Y-2737D01*
X16972Y-2622D01*
X16960Y-2506D01*
X16926Y-2395D01*
X16872Y-2292D01*
X16798Y-2202D01*
X16708Y-2128D01*
X16605Y-2073D01*
X16494Y-2040D01*
X16378Y-2028D01*
D02*
G37*
G36*
X-2519D02*
X-2635Y-2040D01*
X-2747Y-2073D01*
X-2849Y-2128D01*
X-2939Y-2202D01*
X-3496Y-2759D01*
X-3570Y-2849D01*
X-3624Y-2951D01*
X-3658Y-3063D01*
X-3670Y-3178D01*
X-3658Y-3294D01*
X-3624Y-3406D01*
X-3570Y-3508D01*
X-3496Y-3598D01*
X-3406Y-3672D01*
X-3303Y-3727D01*
X-3192Y-3760D01*
X-3076Y-3772D01*
X-2960Y-3760D01*
X-2849Y-3727D01*
X-2747Y-3672D01*
X-2657Y-3598D01*
X-2100Y-3041D01*
X-2026Y-2951D01*
X-1971Y-2849D01*
X-1937Y-2737D01*
X-1926Y-2622D01*
X-1937Y-2506D01*
X-1971Y-2395D01*
X-2026Y-2292D01*
X-2100Y-2202D01*
X-2190Y-2128D01*
X-2292Y-2073D01*
X-2404Y-2040D01*
X-2519Y-2028D01*
D02*
G37*
G36*
X-21417D02*
X-21533Y-2040D01*
X-21644Y-2073D01*
X-21747Y-2128D01*
X-21837Y-2202D01*
X-22393Y-2759D01*
X-22467Y-2849D01*
X-22522Y-2951D01*
X-22556Y-3063D01*
X-22567Y-3178D01*
X-22556Y-3294D01*
X-22522Y-3406D01*
X-22467Y-3508D01*
X-22393Y-3598D01*
X-22304Y-3672D01*
X-22201Y-3727D01*
X-22090Y-3760D01*
X-21974Y-3772D01*
X-21858Y-3760D01*
X-21747Y-3727D01*
X-21644Y-3672D01*
X-21554Y-3598D01*
X-20997Y-3041D01*
X-20924Y-2951D01*
X-20869Y-2849D01*
X-20835Y-2737D01*
X-20824Y-2622D01*
X-20835Y-2506D01*
X-20869Y-2395D01*
X-20924Y-2292D01*
X-20997Y-2202D01*
X-21087Y-2128D01*
X-21190Y-2073D01*
X-21301Y-2040D01*
X-21417Y-2028D01*
D02*
G37*
G36*
X21417Y-2028D02*
X21301Y-2040D01*
X21190Y-2073D01*
X21087Y-2128D01*
X20997Y-2202D01*
X20924Y-2292D01*
X20869Y-2395D01*
X20835Y-2506D01*
X20824Y-2622D01*
X20835Y-2737D01*
X20869Y-2849D01*
X20924Y-2951D01*
X20997Y-3041D01*
X21554Y-3598D01*
X21644Y-3672D01*
X21747Y-3727D01*
X21858Y-3760D01*
X21974Y-3772D01*
X22090Y-3760D01*
X22201Y-3727D01*
X22304Y-3672D01*
X22393Y-3598D01*
X22467Y-3508D01*
X22522Y-3406D01*
X22556Y-3294D01*
X22567Y-3178D01*
X22556Y-3063D01*
X22522Y-2951D01*
X22467Y-2849D01*
X22393Y-2759D01*
X21837Y-2202D01*
X21747Y-2128D01*
X21644Y-2073D01*
X21533Y-2040D01*
X21417Y-2028D01*
D02*
G37*
G36*
X2519D02*
X2404Y-2040D01*
X2292Y-2073D01*
X2190Y-2128D01*
X2100Y-2202D01*
X2026Y-2292D01*
X1971Y-2395D01*
X1937Y-2506D01*
X1926Y-2622D01*
X1937Y-2737D01*
X1971Y-2849D01*
X2026Y-2951D01*
X2100Y-3041D01*
X2657Y-3598D01*
X2747Y-3672D01*
X2849Y-3727D01*
X2960Y-3760D01*
X3076Y-3772D01*
X3192Y-3760D01*
X3303Y-3727D01*
X3406Y-3672D01*
X3496Y-3598D01*
X3570Y-3508D01*
X3624Y-3406D01*
X3658Y-3294D01*
X3670Y-3178D01*
X3658Y-3063D01*
X3624Y-2951D01*
X3570Y-2849D01*
X3496Y-2759D01*
X2939Y-2202D01*
X2849Y-2128D01*
X2747Y-2073D01*
X2635Y-2040D01*
X2519Y-2028D01*
D02*
G37*
G36*
X-16378D02*
X-16494Y-2040D01*
X-16605Y-2073D01*
X-16708Y-2128D01*
X-16798Y-2202D01*
X-16872Y-2292D01*
X-16926Y-2395D01*
X-16960Y-2506D01*
X-16972Y-2622D01*
X-16960Y-2737D01*
X-16926Y-2849D01*
X-16872Y-2951D01*
X-16798Y-3041D01*
X-16241Y-3598D01*
X-16151Y-3672D01*
X-16049Y-3727D01*
X-15937Y-3760D01*
X-15821Y-3772D01*
X-15706Y-3760D01*
X-15594Y-3727D01*
X-15492Y-3672D01*
X-15402Y-3598D01*
X-15328Y-3508D01*
X-15273Y-3406D01*
X-15239Y-3294D01*
X-15228Y-3178D01*
X-15239Y-3063D01*
X-15273Y-2951D01*
X-15328Y-2849D01*
X-15402Y-2759D01*
X-15959Y-2202D01*
X-16049Y-2128D01*
X-16151Y-2073D01*
X-16262Y-2040D01*
X-16378Y-2028D01*
D02*
G37*
G36*
X8175Y-3740D02*
X8045D01*
X7920Y-3774D01*
X7808Y-3838D01*
X7716Y-3930D01*
X7652Y-4042D01*
X7618Y-4167D01*
Y-4297D01*
X7652Y-4422D01*
X7716Y-4534D01*
X7808Y-4626D01*
X7920Y-4691D01*
X8045Y-4724D01*
X8175D01*
X8300Y-4691D01*
X8412Y-4626D01*
X8504Y-4534D01*
X8569Y-4422D01*
X8602Y-4297D01*
Y-4167D01*
X8569Y-4042D01*
X8504Y-3930D01*
X8412Y-3838D01*
X8300Y-3774D01*
X8175Y-3740D01*
D02*
G37*
G36*
X-10723D02*
X-10852D01*
X-10977Y-3774D01*
X-11090Y-3838D01*
X-11181Y-3930D01*
X-11246Y-4042D01*
X-11280Y-4167D01*
Y-4297D01*
X-11246Y-4422D01*
X-11181Y-4534D01*
X-11090Y-4626D01*
X-10977Y-4691D01*
X-10852Y-4724D01*
X-10723D01*
X-10597Y-4691D01*
X-10485Y-4626D01*
X-10394Y-4534D01*
X-10329Y-4422D01*
X-10295Y-4297D01*
Y-4167D01*
X-10329Y-4042D01*
X-10394Y-3930D01*
X-10485Y-3838D01*
X-10597Y-3774D01*
X-10723Y-3740D01*
D02*
G37*
G36*
X-12748Y-3701D02*
X-12842D01*
X-12929Y-3737D01*
X-12996Y-3803D01*
X-13031Y-3889D01*
X-14517Y-5374D01*
X-14602Y-5410D01*
X-14669Y-5476D01*
X-14705Y-5563D01*
Y-5657D01*
X-14669Y-5744D01*
X-14602Y-5810D01*
X-14515Y-5846D01*
X-14422D01*
X-14335Y-5810D01*
X-14268Y-5744D01*
X-14233Y-5658D01*
X-12747Y-4173D01*
X-12661Y-4137D01*
X-12595Y-4071D01*
X-12559Y-3984D01*
Y-3890D01*
X-12595Y-3803D01*
X-12661Y-3737D01*
X-12748Y-3701D01*
D02*
G37*
G36*
X21545Y-5000D02*
Y-6033D01*
X22230D01*
Y-5728D01*
X22215Y-5585D01*
X22174Y-5448D01*
X22106Y-5321D01*
X22015Y-5210D01*
X21904Y-5118D01*
X21777Y-5051D01*
X21639Y-5009D01*
X21545Y-5000D01*
D02*
G37*
G36*
X21447D02*
X21353Y-5009D01*
X21215Y-5051D01*
X21089Y-5118D01*
X20977Y-5210D01*
X20886Y-5321D01*
X20818Y-5448D01*
X20777Y-5585D01*
X20763Y-5728D01*
Y-6033D01*
X21447D01*
Y-5000D01*
D02*
G37*
G36*
X-16250D02*
Y-6033D01*
X-15566D01*
Y-5728D01*
X-15580Y-5585D01*
X-15622Y-5448D01*
X-15689Y-5321D01*
X-15781Y-5210D01*
X-15892Y-5118D01*
X-16019Y-5051D01*
X-16156Y-5009D01*
X-16250Y-5000D01*
D02*
G37*
G36*
X-16348D02*
X-16442Y-5009D01*
X-16580Y-5051D01*
X-16707Y-5118D01*
X-16818Y-5210D01*
X-16909Y-5321D01*
X-16977Y-5448D01*
X-17019Y-5585D01*
X-17033Y-5728D01*
Y-6033D01*
X-16348D01*
Y-5000D01*
D02*
G37*
G36*
X22230Y-6132D02*
X20763D01*
Y-6437D01*
X20768Y-6496D01*
X20763Y-6555D01*
Y-6860D01*
X22230D01*
Y-6555D01*
X22224Y-6496D01*
X22230Y-6437D01*
Y-6132D01*
D02*
G37*
G36*
X-15566D02*
X-17033D01*
Y-6437D01*
X-17027Y-6496D01*
X-17033Y-6555D01*
Y-6860D01*
X-15566D01*
Y-6555D01*
X-15572Y-6496D01*
X-15566Y-6437D01*
Y-6132D01*
D02*
G37*
G36*
X22230Y-6959D02*
X21545D01*
Y-7992D01*
X21639Y-7983D01*
X21777Y-7941D01*
X21904Y-7874D01*
X22015Y-7782D01*
X22106Y-7671D01*
X22174Y-7544D01*
X22215Y-7407D01*
X22230Y-7264D01*
Y-6959D01*
D02*
G37*
G36*
X21447D02*
X20763D01*
Y-7264D01*
X20777Y-7407D01*
X20818Y-7544D01*
X20886Y-7671D01*
X20977Y-7782D01*
X21089Y-7874D01*
X21215Y-7941D01*
X21353Y-7983D01*
X21447Y-7992D01*
Y-6959D01*
D02*
G37*
G36*
X-15566D02*
X-16250D01*
Y-7992D01*
X-16156Y-7983D01*
X-16019Y-7941D01*
X-15892Y-7874D01*
X-15781Y-7782D01*
X-15689Y-7671D01*
X-15622Y-7544D01*
X-15580Y-7407D01*
X-15566Y-7264D01*
Y-6959D01*
D02*
G37*
G36*
X-16348D02*
X-17033D01*
Y-7264D01*
X-17019Y-7407D01*
X-16977Y-7544D01*
X-16909Y-7671D01*
X-16818Y-7782D01*
X-16707Y-7874D01*
X-16580Y-7941D01*
X-16442Y-7983D01*
X-16348Y-7992D01*
Y-6959D01*
D02*
G37*
G36*
X16740Y-4998D02*
X15858D01*
X15783Y-5007D01*
X15713Y-5036D01*
X15653Y-5082D01*
X15607Y-5142D01*
X15578Y-5212D01*
X15568Y-5287D01*
Y-6114D01*
Y-6878D01*
Y-7705D01*
X15578Y-7780D01*
X15607Y-7850D01*
X15653Y-7910D01*
X15713Y-7956D01*
X15783Y-7985D01*
X15858Y-7995D01*
X16740D01*
X16815Y-7985D01*
X16885Y-7956D01*
X16945Y-7910D01*
X16991Y-7850D01*
X17020Y-7780D01*
X17030Y-7705D01*
Y-6114D01*
Y-5287D01*
X17020Y-5212D01*
X16991Y-5142D01*
X16945Y-5082D01*
X16885Y-5036D01*
X16815Y-5007D01*
X16740Y-4998D01*
D02*
G37*
G36*
X-2157D02*
X-3039D01*
X-3114Y-5007D01*
X-3184Y-5036D01*
X-3244Y-5082D01*
X-3290Y-5142D01*
X-3319Y-5212D01*
X-3329Y-5287D01*
Y-6114D01*
Y-6878D01*
Y-7705D01*
X-3319Y-7780D01*
X-3290Y-7850D01*
X-3244Y-7910D01*
X-3184Y-7956D01*
X-3114Y-7985D01*
X-3039Y-7995D01*
X-2157D01*
X-2082Y-7985D01*
X-2013Y-7956D01*
X-1953Y-7910D01*
X-1906Y-7850D01*
X-1877Y-7780D01*
X-1868Y-7705D01*
Y-6114D01*
Y-5287D01*
X-1877Y-5212D01*
X-1906Y-5142D01*
X-1953Y-5082D01*
X-2013Y-5036D01*
X-2082Y-5007D01*
X-2157Y-4998D01*
D02*
G37*
G36*
X-21055D02*
X-21937D01*
X-22012Y-5007D01*
X-22082Y-5036D01*
X-22142Y-5082D01*
X-22188Y-5142D01*
X-22217Y-5212D01*
X-22227Y-5287D01*
Y-6114D01*
Y-6878D01*
Y-7705D01*
X-22217Y-7780D01*
X-22188Y-7850D01*
X-22142Y-7910D01*
X-22082Y-7956D01*
X-22012Y-7985D01*
X-21937Y-7995D01*
X-21055D01*
X-20980Y-7985D01*
X-20910Y-7956D01*
X-20850Y-7910D01*
X-20804Y-7850D01*
X-20775Y-7780D01*
X-20765Y-7705D01*
Y-6114D01*
Y-5287D01*
X-20775Y-5212D01*
X-20804Y-5142D01*
X-20850Y-5082D01*
X-20910Y-5036D01*
X-20980Y-5007D01*
X-21055Y-4998D01*
D02*
G37*
G36*
X2598Y-4996D02*
X2456Y-5011D01*
X2318Y-5052D01*
X2192Y-5120D01*
X2081Y-5211D01*
X1990Y-5322D01*
X1922Y-5448D01*
X1881Y-5586D01*
X1867Y-5728D01*
Y-6437D01*
X1872Y-6496D01*
X1867Y-6555D01*
Y-7264D01*
X1881Y-7407D01*
X1922Y-7544D01*
X1990Y-7670D01*
X2081Y-7781D01*
X2192Y-7872D01*
X2318Y-7940D01*
X2456Y-7982D01*
X2598Y-7996D01*
X2741Y-7982D01*
X2878Y-7940D01*
X3005Y-7872D01*
X3116Y-7781D01*
X3207Y-7670D01*
X3275Y-7544D01*
X3316Y-7407D01*
X3330Y-7264D01*
Y-6555D01*
X3324Y-6496D01*
X3330Y-6437D01*
Y-5728D01*
X3316Y-5586D01*
X3275Y-5448D01*
X3207Y-5322D01*
X3116Y-5211D01*
X3005Y-5120D01*
X2878Y-5052D01*
X2741Y-5011D01*
X2598Y-4996D01*
D02*
G37*
G36*
X11417Y-3246D02*
X10630D01*
X10592Y-3254D01*
X10559Y-3275D01*
X10165Y-3669D01*
X10144Y-3702D01*
X10136Y-3740D01*
Y-6061D01*
X8226Y-7971D01*
X6299D01*
X6261Y-7978D01*
X6228Y-8000D01*
X5835Y-8394D01*
X5813Y-8426D01*
X5805Y-8465D01*
X5805Y-8858D01*
X5813Y-8897D01*
X5835Y-8929D01*
X6228Y-9323D01*
X6261Y-9345D01*
X6299Y-9352D01*
X12795D01*
X12834Y-9345D01*
X12866Y-9323D01*
X13260Y-8929D01*
X13282Y-8897D01*
X13289Y-8858D01*
X13289Y-5118D01*
X13282Y-5080D01*
X13260Y-5047D01*
X11488Y-3275D01*
X11456Y-3254D01*
X11417Y-3246D01*
D02*
G37*
G36*
X-24309Y-9743D02*
X-24360D01*
Y-10974D01*
X-23128D01*
Y-10923D01*
X-23160Y-10724D01*
X-23222Y-10532D01*
X-23314Y-10352D01*
X-23432Y-10189D01*
X-23575Y-10046D01*
X-23738Y-9928D01*
X-23918Y-9836D01*
X-24109Y-9774D01*
X-24309Y-9743D01*
D02*
G37*
G36*
X24510D02*
X24459D01*
Y-10974D01*
X25691D01*
Y-10923D01*
X25659Y-10724D01*
X25597Y-10532D01*
X25505Y-10352D01*
X25387Y-10189D01*
X25244Y-10046D01*
X25081Y-9928D01*
X24901Y-9836D01*
X24709Y-9774D01*
X24510Y-9743D01*
D02*
G37*
G36*
X24360D02*
X24309D01*
X24109Y-9774D01*
X23918Y-9836D01*
X23738Y-9928D01*
X23575Y-10046D01*
X23432Y-10189D01*
X23314Y-10352D01*
X23222Y-10532D01*
X23160Y-10724D01*
X23128Y-10923D01*
Y-10974D01*
X24360D01*
Y-9743D01*
D02*
G37*
G36*
X-24459D02*
X-24510D01*
X-24709Y-9774D01*
X-24901Y-9836D01*
X-25081Y-9928D01*
X-25244Y-10046D01*
X-25387Y-10189D01*
X-25505Y-10352D01*
X-25597Y-10532D01*
X-25659Y-10724D01*
X-25691Y-10923D01*
Y-10974D01*
X-24459D01*
Y-9743D01*
D02*
G37*
G36*
X-4869Y-6827D02*
X-4973D01*
X-4994Y-6832D01*
X-5015Y-6833D01*
X-5115Y-6860D01*
X-5134Y-6869D01*
X-5154Y-6876D01*
X-5243Y-6928D01*
X-5259Y-6942D01*
X-5277Y-6953D01*
X-5350Y-7027D01*
X-5362Y-7044D01*
X-5375Y-7060D01*
X-5427Y-7150D01*
X-5434Y-7169D01*
X-5443Y-7188D01*
X-5470Y-7288D01*
X-5472Y-7309D01*
X-5476Y-7330D01*
Y-7382D01*
Y-11319D01*
Y-11371D01*
X-5472Y-11391D01*
X-5470Y-11412D01*
X-5443Y-11512D01*
X-5434Y-11531D01*
X-5427Y-11551D01*
X-5375Y-11641D01*
X-5362Y-11657D01*
X-5350Y-11674D01*
X-5277Y-11748D01*
X-5259Y-11759D01*
X-5243Y-11773D01*
X-5154Y-11825D01*
X-5134Y-11832D01*
X-5115Y-11841D01*
X-5015Y-11868D01*
X-4994Y-11869D01*
X-4973Y-11873D01*
X-4869D01*
X-4849Y-11869D01*
X-4828Y-11868D01*
X-4728Y-11841D01*
X-4709Y-11832D01*
X-4689Y-11825D01*
X-4599Y-11773D01*
X-4583Y-11759D01*
X-4566Y-11748D01*
X-4493Y-11674D01*
X-4481Y-11657D01*
X-4467Y-11641D01*
X-4415Y-11551D01*
X-4408Y-11531D01*
X-4399Y-11512D01*
X-4372Y-11412D01*
X-4371Y-11391D01*
X-4367Y-11371D01*
Y-11319D01*
Y-7382D01*
Y-7330D01*
X-4371Y-7309D01*
X-4372Y-7288D01*
X-4399Y-7188D01*
X-4408Y-7169D01*
X-4415Y-7150D01*
X-4467Y-7060D01*
X-4481Y-7044D01*
X-4493Y-7027D01*
X-4566Y-6953D01*
X-4583Y-6942D01*
X-4599Y-6928D01*
X-4689Y-6876D01*
X-4709Y-6869D01*
X-4728Y-6860D01*
X-4828Y-6833D01*
X-4849Y-6832D01*
X-4869Y-6827D01*
D02*
G37*
G36*
X-2593Y-10748D02*
X-2710D01*
X-2824Y-10771D01*
X-2931Y-10815D01*
X-3028Y-10880D01*
X-3110Y-10962D01*
X-3175Y-11059D01*
X-3219Y-11166D01*
X-3242Y-11280D01*
Y-11397D01*
X-3219Y-11511D01*
X-3175Y-11618D01*
X-3110Y-11715D01*
X-3028Y-11797D01*
X-2931Y-11862D01*
X-2824Y-11906D01*
X-2710Y-11929D01*
X-2593D01*
X-2479Y-11906D01*
X-2372Y-11862D01*
X-2275Y-11797D01*
X-2193Y-11715D01*
X-2128Y-11618D01*
X-2084Y-11511D01*
X-2061Y-11397D01*
Y-11280D01*
X-2084Y-11166D01*
X-2128Y-11059D01*
X-2193Y-10962D01*
X-2275Y-10880D01*
X-2372Y-10815D01*
X-2479Y-10771D01*
X-2593Y-10748D01*
D02*
G37*
G36*
X-16188D02*
X-16304D01*
X-16418Y-10771D01*
X-16526Y-10815D01*
X-16623Y-10880D01*
X-16705Y-10962D01*
X-16769Y-11059D01*
X-16814Y-11166D01*
X-16837Y-11280D01*
Y-11397D01*
X-16814Y-11511D01*
X-16769Y-11618D01*
X-16705Y-11715D01*
X-16623Y-11797D01*
X-16526Y-11862D01*
X-16418Y-11906D01*
X-16304Y-11929D01*
X-16188D01*
X-16074Y-11906D01*
X-15966Y-11862D01*
X-15870Y-11797D01*
X-15787Y-11715D01*
X-15723Y-11618D01*
X-15678Y-11511D01*
X-15656Y-11397D01*
Y-11280D01*
X-15678Y-11166D01*
X-15723Y-11059D01*
X-15787Y-10962D01*
X-15870Y-10880D01*
X-15966Y-10815D01*
X-16074Y-10771D01*
X-16188Y-10748D01*
D02*
G37*
G36*
X-21491D02*
X-21607D01*
X-21721Y-10771D01*
X-21829Y-10815D01*
X-21926Y-10880D01*
X-22008Y-10962D01*
X-22073Y-11059D01*
X-22117Y-11166D01*
X-22140Y-11280D01*
Y-11397D01*
X-22117Y-11511D01*
X-22073Y-11618D01*
X-22008Y-11715D01*
X-21926Y-11797D01*
X-21829Y-11862D01*
X-21721Y-11906D01*
X-21607Y-11929D01*
X-21491D01*
X-21377Y-11906D01*
X-21269Y-11862D01*
X-21173Y-11797D01*
X-21091Y-11715D01*
X-21026Y-11618D01*
X-20981Y-11511D01*
X-20959Y-11397D01*
Y-11280D01*
X-20981Y-11166D01*
X-21026Y-11059D01*
X-21091Y-10962D01*
X-21173Y-10880D01*
X-21269Y-10815D01*
X-21377Y-10771D01*
X-21491Y-10748D01*
D02*
G37*
G36*
X13487Y-10924D02*
X13435D01*
Y-12156D01*
X14667D01*
Y-12104D01*
X14635Y-11905D01*
X14573Y-11713D01*
X14482Y-11533D01*
X14363Y-11370D01*
X14220Y-11228D01*
X14057Y-11109D01*
X13878Y-11017D01*
X13686Y-10955D01*
X13487Y-10924D01*
D02*
G37*
G36*
X-13285D02*
X-13337D01*
Y-12156D01*
X-12105D01*
Y-12104D01*
X-12136Y-11905D01*
X-12199Y-11713D01*
X-12290Y-11533D01*
X-12409Y-11370D01*
X-12551Y-11228D01*
X-12714Y-11109D01*
X-12894Y-11017D01*
X-13086Y-10955D01*
X-13285Y-10924D01*
D02*
G37*
G36*
X-13435D02*
X-13487D01*
X-13686Y-10955D01*
X-13878Y-11017D01*
X-14057Y-11109D01*
X-14220Y-11228D01*
X-14363Y-11370D01*
X-14482Y-11533D01*
X-14573Y-11713D01*
X-14635Y-11905D01*
X-14667Y-12104D01*
Y-12156D01*
X-13435D01*
Y-10924D01*
D02*
G37*
G36*
X13337D02*
X13285D01*
X13086Y-10955D01*
X12894Y-11017D01*
X12714Y-11109D01*
X12551Y-11228D01*
X12409Y-11370D01*
X12290Y-11533D01*
X12199Y-11713D01*
X12136Y-11905D01*
X12105Y-12104D01*
Y-12156D01*
X13337D01*
Y-10924D01*
D02*
G37*
G36*
X25691Y-11073D02*
X24459D01*
Y-12305D01*
X24510D01*
X24709Y-12273D01*
X24901Y-12211D01*
X25081Y-12119D01*
X25244Y-12001D01*
X25387Y-11858D01*
X25505Y-11695D01*
X25597Y-11515D01*
X25659Y-11324D01*
X25691Y-11124D01*
Y-11073D01*
D02*
G37*
G36*
X24360D02*
X23128D01*
Y-11124D01*
X23160Y-11324D01*
X23222Y-11515D01*
X23314Y-11695D01*
X23432Y-11858D01*
X23575Y-12001D01*
X23738Y-12119D01*
X23918Y-12211D01*
X24109Y-12273D01*
X24309Y-12305D01*
X24360D01*
Y-11073D01*
D02*
G37*
G36*
X-23128D02*
X-24360D01*
Y-12305D01*
X-24309D01*
X-24109Y-12273D01*
X-23918Y-12211D01*
X-23738Y-12119D01*
X-23575Y-12001D01*
X-23432Y-11858D01*
X-23314Y-11695D01*
X-23222Y-11515D01*
X-23160Y-11324D01*
X-23128Y-11124D01*
Y-11073D01*
D02*
G37*
G36*
X-24459D02*
X-25691D01*
Y-11124D01*
X-25659Y-11324D01*
X-25597Y-11515D01*
X-25505Y-11695D01*
X-25387Y-11858D01*
X-25244Y-12001D01*
X-25081Y-12119D01*
X-24901Y-12211D01*
X-24709Y-12273D01*
X-24510Y-12305D01*
X-24459D01*
Y-11073D01*
D02*
G37*
G36*
X2710Y-12087D02*
X2593D01*
X2479Y-12109D01*
X2372Y-12154D01*
X2275Y-12218D01*
X2193Y-12301D01*
X2128Y-12397D01*
X2084Y-12505D01*
X2061Y-12619D01*
Y-12735D01*
X2084Y-12849D01*
X2128Y-12957D01*
X2193Y-13054D01*
X2275Y-13136D01*
X2372Y-13201D01*
X2479Y-13245D01*
X2593Y-13268D01*
X2710D01*
X2824Y-13245D01*
X2931Y-13201D01*
X3028Y-13136D01*
X3110Y-13054D01*
X3175Y-12957D01*
X3219Y-12849D01*
X3242Y-12735D01*
Y-12619D01*
X3219Y-12505D01*
X3175Y-12397D01*
X3110Y-12301D01*
X3028Y-12218D01*
X2931Y-12154D01*
X2824Y-12109D01*
X2710Y-12087D01*
D02*
G37*
G36*
X-2593D02*
X-2710D01*
X-2824Y-12109D01*
X-2931Y-12154D01*
X-3028Y-12218D01*
X-3110Y-12301D01*
X-3175Y-12397D01*
X-3219Y-12505D01*
X-3242Y-12619D01*
Y-12735D01*
X-3219Y-12849D01*
X-3175Y-12957D01*
X-3110Y-13054D01*
X-3028Y-13136D01*
X-2931Y-13201D01*
X-2824Y-13245D01*
X-2710Y-13268D01*
X-2593D01*
X-2479Y-13245D01*
X-2372Y-13201D01*
X-2275Y-13136D01*
X-2193Y-13054D01*
X-2128Y-12957D01*
X-2084Y-12849D01*
X-2061Y-12735D01*
Y-12619D01*
X-2084Y-12505D01*
X-2128Y-12397D01*
X-2193Y-12301D01*
X-2275Y-12218D01*
X-2372Y-12154D01*
X-2479Y-12109D01*
X-2593Y-12087D01*
D02*
G37*
G36*
X-16188D02*
X-16304D01*
X-16418Y-12109D01*
X-16526Y-12154D01*
X-16623Y-12218D01*
X-16705Y-12301D01*
X-16769Y-12397D01*
X-16814Y-12505D01*
X-16837Y-12619D01*
Y-12735D01*
X-16814Y-12849D01*
X-16769Y-12957D01*
X-16705Y-13054D01*
X-16623Y-13136D01*
X-16526Y-13201D01*
X-16418Y-13245D01*
X-16304Y-13268D01*
X-16188D01*
X-16074Y-13245D01*
X-15966Y-13201D01*
X-15870Y-13136D01*
X-15787Y-13054D01*
X-15723Y-12957D01*
X-15678Y-12849D01*
X-15656Y-12735D01*
Y-12619D01*
X-15678Y-12505D01*
X-15723Y-12397D01*
X-15787Y-12301D01*
X-15870Y-12218D01*
X-15966Y-12154D01*
X-16074Y-12109D01*
X-16188Y-12087D01*
D02*
G37*
G36*
X-21491D02*
X-21607D01*
X-21721Y-12109D01*
X-21829Y-12154D01*
X-21926Y-12218D01*
X-22008Y-12301D01*
X-22073Y-12397D01*
X-22117Y-12505D01*
X-22140Y-12619D01*
Y-12735D01*
X-22117Y-12849D01*
X-22073Y-12957D01*
X-22008Y-13054D01*
X-21926Y-13136D01*
X-21829Y-13201D01*
X-21721Y-13245D01*
X-21607Y-13268D01*
X-21491D01*
X-21377Y-13245D01*
X-21269Y-13201D01*
X-21173Y-13136D01*
X-21091Y-13054D01*
X-21026Y-12957D01*
X-20981Y-12849D01*
X-20959Y-12735D01*
Y-12619D01*
X-20981Y-12505D01*
X-21026Y-12397D01*
X-21091Y-12301D01*
X-21173Y-12218D01*
X-21269Y-12154D01*
X-21377Y-12109D01*
X-21491Y-12087D01*
D02*
G37*
G36*
X14667Y-12254D02*
X13435D01*
Y-13486D01*
X13487D01*
X13686Y-13454D01*
X13878Y-13392D01*
X14057Y-13300D01*
X14220Y-13182D01*
X14363Y-13039D01*
X14482Y-12876D01*
X14573Y-12696D01*
X14635Y-12505D01*
X14667Y-12306D01*
Y-12254D01*
D02*
G37*
G36*
X13337D02*
X12105D01*
Y-12306D01*
X12136Y-12505D01*
X12199Y-12696D01*
X12290Y-12876D01*
X12409Y-13039D01*
X12551Y-13182D01*
X12714Y-13300D01*
X12894Y-13392D01*
X13086Y-13454D01*
X13285Y-13486D01*
X13337D01*
Y-12254D01*
D02*
G37*
G36*
X-12105D02*
X-13337D01*
Y-13486D01*
X-13285D01*
X-13086Y-13454D01*
X-12894Y-13392D01*
X-12714Y-13300D01*
X-12551Y-13182D01*
X-12409Y-13039D01*
X-12290Y-12876D01*
X-12199Y-12696D01*
X-12136Y-12505D01*
X-12105Y-12306D01*
Y-12254D01*
D02*
G37*
G36*
X-13435D02*
X-14667D01*
Y-12306D01*
X-14635Y-12505D01*
X-14573Y-12696D01*
X-14482Y-12876D01*
X-14363Y-13039D01*
X-14220Y-13182D01*
X-14057Y-13300D01*
X-13878Y-13392D01*
X-13686Y-13454D01*
X-13487Y-13486D01*
X-13435D01*
Y-12254D01*
D02*
G37*
G36*
X25449Y-13782D02*
X25423D01*
Y-14305D01*
X25946D01*
Y-14279D01*
X25907Y-14133D01*
X25832Y-14003D01*
X25726Y-13896D01*
X25595Y-13821D01*
X25449Y-13782D01*
D02*
G37*
G36*
X25325D02*
X25299D01*
X25153Y-13821D01*
X25023Y-13896D01*
X24916Y-14003D01*
X24841Y-14133D01*
X24802Y-14279D01*
Y-14305D01*
X25325D01*
Y-13782D01*
D02*
G37*
G36*
X-25141D02*
X-25167D01*
Y-14305D01*
X-24644D01*
Y-14279D01*
X-24683Y-14133D01*
X-24758Y-14003D01*
X-24865Y-13896D01*
X-24996Y-13821D01*
X-25141Y-13782D01*
D02*
G37*
G36*
X-25266D02*
X-25292D01*
X-25437Y-13821D01*
X-25568Y-13896D01*
X-25675Y-14003D01*
X-25750Y-14133D01*
X-25789Y-14279D01*
Y-14305D01*
X-25266D01*
Y-13782D01*
D02*
G37*
G36*
X101Y-13483D02*
X49D01*
Y-14715D01*
X1281D01*
Y-14663D01*
X1250Y-14464D01*
X1187Y-14272D01*
X1096Y-14092D01*
X977Y-13929D01*
X835Y-13787D01*
X671Y-13668D01*
X492Y-13577D01*
X300Y-13514D01*
X101Y-13483D01*
D02*
G37*
G36*
X-49D02*
X-101D01*
X-300Y-13514D01*
X-492Y-13577D01*
X-671Y-13668D01*
X-835Y-13787D01*
X-977Y-13929D01*
X-1096Y-14092D01*
X-1187Y-14272D01*
X-1250Y-14464D01*
X-1281Y-14663D01*
Y-14715D01*
X-49D01*
Y-13483D01*
D02*
G37*
G36*
X25946Y-14404D02*
X25423D01*
Y-14927D01*
X25449D01*
X25595Y-14888D01*
X25726Y-14812D01*
X25832Y-14706D01*
X25907Y-14575D01*
X25946Y-14430D01*
Y-14404D01*
D02*
G37*
G36*
X25325D02*
X24802D01*
Y-14430D01*
X24841Y-14575D01*
X24916Y-14706D01*
X25023Y-14812D01*
X25153Y-14888D01*
X25299Y-14927D01*
X25325D01*
Y-14404D01*
D02*
G37*
G36*
X-24644Y-14404D02*
X-25167D01*
Y-14927D01*
X-25141D01*
X-24996Y-14888D01*
X-24865Y-14812D01*
X-24758Y-14706D01*
X-24683Y-14575D01*
X-24644Y-14430D01*
Y-14404D01*
D02*
G37*
G36*
X-25266D02*
X-25789D01*
Y-14430D01*
X-25750Y-14575D01*
X-25675Y-14706D01*
X-25568Y-14812D01*
X-25437Y-14888D01*
X-25292Y-14927D01*
X-25266D01*
Y-14404D01*
D02*
G37*
G36*
X1281Y-14813D02*
X49D01*
Y-16045D01*
X101D01*
X300Y-16013D01*
X492Y-15951D01*
X671Y-15859D01*
X835Y-15741D01*
X977Y-15598D01*
X1096Y-15435D01*
X1187Y-15256D01*
X1250Y-15064D01*
X1281Y-14865D01*
Y-14813D01*
D02*
G37*
G36*
X-49D02*
X-1281D01*
Y-14865D01*
X-1250Y-15064D01*
X-1187Y-15256D01*
X-1096Y-15435D01*
X-977Y-15598D01*
X-835Y-15741D01*
X-671Y-15859D01*
X-492Y-15951D01*
X-300Y-16013D01*
X-101Y-16045D01*
X-49D01*
Y-14813D01*
D02*
G37*
G36*
X18945Y-10669D02*
X18851D01*
X18764Y-10705D01*
X18697Y-10772D01*
X18661Y-10859D01*
Y-10953D01*
X18697Y-11038D01*
Y-15232D01*
X18141Y-15788D01*
X18055Y-15823D01*
X17989Y-15890D01*
X17953Y-15977D01*
Y-16071D01*
X17989Y-16157D01*
X18055Y-16224D01*
X18142Y-16260D01*
X18236D01*
X18323Y-16224D01*
X18389Y-16157D01*
X18425Y-16072D01*
X19040Y-15457D01*
X19083Y-15392D01*
X19098Y-15315D01*
Y-11038D01*
X19134Y-10953D01*
Y-10859D01*
X19098Y-10772D01*
X19031Y-10705D01*
X18945Y-10669D01*
D02*
G37*
G36*
X-12788Y-16496D02*
X-12882D01*
X-12967Y-16532D01*
X-17092D01*
X-17177Y-16496D01*
X-17271D01*
X-17358Y-16532D01*
X-17425Y-16598D01*
X-17461Y-16685D01*
Y-16779D01*
X-17425Y-16866D01*
X-17358Y-16933D01*
X-17271Y-16968D01*
X-17177D01*
X-17092Y-16933D01*
X-12967D01*
X-12882Y-16968D01*
X-12788D01*
X-12701Y-16933D01*
X-12634Y-16866D01*
X-12598Y-16779D01*
Y-16685D01*
X-12634Y-16598D01*
X-12701Y-16532D01*
X-12788Y-16496D01*
D02*
G37*
G36*
X-6144Y-16281D02*
Y-16683D01*
X-5794D01*
Y-16673D01*
X-5808Y-16570D01*
X-5848Y-16474D01*
X-5911Y-16391D01*
X-5994Y-16328D01*
X-6090Y-16288D01*
X-6144Y-16281D01*
D02*
G37*
G36*
X-6242D02*
X-6296Y-16288D01*
X-6392Y-16328D01*
X-6475Y-16391D01*
X-6538Y-16474D01*
X-6578Y-16570D01*
X-6592Y-16673D01*
Y-16683D01*
X-6242D01*
Y-16281D01*
D02*
G37*
G36*
X17645Y-12087D02*
X17551D01*
X17465Y-12123D01*
X17398Y-12189D01*
X17363Y-12275D01*
X15271Y-14366D01*
X3346D01*
X3270Y-14382D01*
X3205Y-14425D01*
X1330Y-16300D01*
X1244Y-16335D01*
X1178Y-16402D01*
X1142Y-16488D01*
Y-16582D01*
X1178Y-16669D01*
X1244Y-16736D01*
X1331Y-16772D01*
X1425D01*
X1512Y-16736D01*
X1578Y-16669D01*
X1614Y-16583D01*
X3430Y-14768D01*
X15354D01*
X15431Y-14752D01*
X15496Y-14709D01*
X17646Y-12559D01*
X17732Y-12523D01*
X17799Y-12457D01*
X17835Y-12370D01*
Y-12276D01*
X17799Y-12189D01*
X17732Y-12123D01*
X17645Y-12087D01*
D02*
G37*
G36*
X-5794Y-16781D02*
X-6144D01*
Y-17184D01*
X-6090Y-17176D01*
X-5994Y-17137D01*
X-5911Y-17073D01*
X-5848Y-16991D01*
X-5808Y-16895D01*
X-5794Y-16791D01*
Y-16781D01*
D02*
G37*
G36*
X-6242D02*
X-6592D01*
Y-16791D01*
X-6578Y-16895D01*
X-6538Y-16991D01*
X-6475Y-17073D01*
X-6392Y-17137D01*
X-6296Y-17176D01*
X-6242Y-17184D01*
Y-16781D01*
D02*
G37*
G36*
X-7045Y-16275D02*
X-7341D01*
X-7437Y-16294D01*
X-7518Y-16348D01*
X-7572Y-16430D01*
X-7591Y-16526D01*
Y-16939D01*
X-7572Y-17035D01*
X-7518Y-17116D01*
X-7437Y-17171D01*
X-7341Y-17190D01*
X-7045D01*
X-6949Y-17171D01*
X-6868Y-17116D01*
X-6813Y-17035D01*
X-6794Y-16939D01*
Y-16526D01*
X-6813Y-16430D01*
X-6868Y-16348D01*
X-6949Y-16294D01*
X-7045Y-16275D01*
D02*
G37*
G36*
X-4869Y-12241D02*
X-4973D01*
X-4994Y-12245D01*
X-5015Y-12246D01*
X-5115Y-12273D01*
X-5134Y-12282D01*
X-5154Y-12289D01*
X-5243Y-12341D01*
X-5259Y-12355D01*
X-5277Y-12367D01*
X-5350Y-12440D01*
X-5362Y-12457D01*
X-5375Y-12473D01*
X-5427Y-12563D01*
X-5434Y-12583D01*
X-5443Y-12602D01*
X-5470Y-12702D01*
X-5472Y-12723D01*
X-5476Y-12743D01*
Y-12795D01*
Y-17028D01*
Y-17079D01*
X-5472Y-17100D01*
X-5470Y-17121D01*
X-5443Y-17221D01*
X-5434Y-17240D01*
X-5427Y-17260D01*
X-5375Y-17350D01*
X-5362Y-17365D01*
X-5350Y-17383D01*
X-5277Y-17456D01*
X-5259Y-17468D01*
X-5243Y-17482D01*
X-5154Y-17534D01*
X-5134Y-17540D01*
X-5115Y-17550D01*
X-5015Y-17577D01*
X-4994Y-17578D01*
X-4973Y-17582D01*
X-4869D01*
X-4849Y-17578D01*
X-4828Y-17577D01*
X-4728Y-17550D01*
X-4709Y-17540D01*
X-4689Y-17534D01*
X-4599Y-17482D01*
X-4583Y-17468D01*
X-4566Y-17456D01*
X-4493Y-17383D01*
X-4481Y-17365D01*
X-4467Y-17350D01*
X-4415Y-17260D01*
X-4408Y-17240D01*
X-4399Y-17221D01*
X-4372Y-17121D01*
X-4371Y-17100D01*
X-4367Y-17079D01*
Y-17028D01*
Y-12795D01*
Y-12743D01*
X-4371Y-12723D01*
X-4372Y-12702D01*
X-4399Y-12602D01*
X-4408Y-12583D01*
X-4415Y-12563D01*
X-4467Y-12473D01*
X-4481Y-12457D01*
X-4493Y-12440D01*
X-4566Y-12367D01*
X-4583Y-12355D01*
X-4599Y-12341D01*
X-4689Y-12289D01*
X-4709Y-12282D01*
X-4728Y-12273D01*
X-4828Y-12246D01*
X-4849Y-12245D01*
X-4869Y-12241D01*
D02*
G37*
%LPD*%
G36*
X13189Y-5118D02*
X13189Y-8858D01*
X12795Y-9252D01*
X6299D01*
X5906Y-8858D01*
X5906Y-8465D01*
X6299Y-8071D01*
X8268D01*
X10236Y-6102D01*
Y-3740D01*
X10630Y-3346D01*
X11417D01*
X13189Y-5118D01*
D02*
G37*
D11*
X-17224Y-16732D02*
X-12835D01*
X5709Y-7480D02*
X8071D01*
X2652Y-10537D02*
X5709Y-7480D01*
X2652Y-11339D02*
Y-10537D01*
X8071Y-7480D02*
X9646Y-5906D01*
Y-3740D02*
X10630Y-2756D01*
X9646Y-5906D02*
Y-3740D01*
X3346Y-14567D02*
X15354D01*
X1378Y-16535D02*
X3346Y-14567D01*
X15354D02*
X17598Y-12323D01*
X18189Y-16024D02*
X18898Y-15315D01*
Y-10906D01*
X10630Y-2756D02*
X11075D01*
X11154Y-2677D01*
X-14468Y-5610D02*
X-12795Y-3937D01*
D76*
X-16299Y-6909D02*
Y-6083D01*
Y-7835D02*
Y-6909D01*
X-18504Y-12795D02*
Y-10827D01*
X-18898Y-10433D02*
X-18504Y-10827D01*
X-18898Y-10433D02*
X-16299Y-7835D01*
Y-6083D02*
Y-5512D01*
X-20063Y-14354D02*
X-18504Y-12795D01*
X21496Y-7480D02*
Y-5512D01*
Y-12441D02*
Y-7480D01*
D77*
X-25217Y-14354D02*
X-24409D01*
X-20063D01*
X-4331Y-1378D02*
X-3346D01*
X-4331Y-1378D02*
X-4331Y-1378D01*
X-5157Y-787D02*
X-4567Y-1378D01*
X-4331D01*
X23409Y-14354D02*
X25374D01*
D81*
X12154Y-2677D02*
D03*
X-6193Y-16732D02*
D03*
X-6744Y-2677D02*
D03*
D82*
X11154D02*
D03*
X-7193Y-16732D02*
D03*
X-7744Y-2677D02*
D03*
D83*
X-25217Y-14354D02*
D03*
X25374D02*
D03*
D84*
X-25217Y-16354D02*
D03*
X25374D02*
D03*
D86*
X8110Y-4232D02*
D03*
X-10787D02*
D03*
D87*
X8110Y-1673D02*
D03*
X-10787D02*
D03*
D88*
X-21695Y-2900D02*
D03*
X16100D02*
D03*
X-2798D02*
D03*
D89*
X-18898Y-1741D02*
D03*
X18898D02*
D03*
X0D02*
D03*
D90*
X-16100Y-2900D02*
D03*
X21695D02*
D03*
X2798D02*
D03*
D91*
X-21496Y-6909D02*
D03*
Y-6083D02*
D03*
X16299Y-6909D02*
D03*
Y-6083D02*
D03*
X-2598Y-6909D02*
D03*
Y-6083D02*
D03*
D92*
X-16299Y-6909D02*
D03*
Y-6083D02*
D03*
X21496Y-6909D02*
D03*
Y-6083D02*
D03*
X2598Y-6909D02*
D03*
Y-6083D02*
D03*
D93*
X-21549Y-12677D02*
D03*
X-16246Y-11339D02*
D03*
X-21549D02*
D03*
X-16246Y-12677D02*
D03*
X-2652D02*
D03*
X2652Y-11339D02*
D03*
X-2652D02*
D03*
X2652Y-12677D02*
D03*
D94*
X-14862Y-17224D02*
D03*
X-18898Y-10433D02*
D03*
X-12008Y-4921D02*
D03*
X-10039Y-1575D02*
D03*
X-13583Y-6102D02*
D03*
X-16732Y-4134D02*
D03*
X-18504Y-2559D02*
D03*
X-24409Y-12598D02*
D03*
X-14764Y-10433D02*
D03*
X7283Y-17717D02*
D03*
X-984D02*
D03*
X-6890D02*
D03*
X-12913Y-17205D02*
D03*
X-25984Y-10236D02*
D03*
Y-7480D02*
D03*
Y-3937D02*
D03*
X-25394Y-1378D02*
D03*
X-20276Y-394D02*
D03*
X-17126D02*
D03*
X-8071D02*
D03*
X-12402D02*
D03*
X-12795Y-4331D02*
D03*
X-11024Y-7087D02*
D03*
X-8268Y-6299D02*
D03*
X-4134Y-16929D02*
D03*
X-5709Y-10827D02*
D03*
Y-7480D02*
D03*
Y-4331D02*
D03*
X-4134Y-9646D02*
D03*
Y-6693D02*
D03*
Y-3937D02*
D03*
X-2165Y-394D02*
D03*
X2165D02*
D03*
X7677D02*
D03*
X11811D02*
D03*
X18110D02*
D03*
X21654D02*
D03*
X25984Y-11024D02*
D03*
Y-8661D02*
D03*
Y-5906D02*
D03*
Y-2756D02*
D03*
X19882Y-17520D02*
D03*
X19488Y-15945D02*
D03*
Y-14764D02*
D03*
X16929Y-11614D02*
D03*
X18898Y-8858D02*
D03*
X18307Y-4921D02*
D03*
X14370D02*
D03*
X12598Y-4134D02*
D03*
X13386Y-8268D02*
D03*
X6693Y-5118D02*
D03*
X6299Y-7874D02*
D03*
X7874Y-7087D02*
D03*
X9252Y-4528D02*
D03*
X10039Y-3740D02*
D03*
X8465Y-2756D02*
D03*
X7677D02*
D03*
X5906Y-4331D02*
D03*
Y-5118D02*
D03*
X3740Y-3346D02*
D03*
X1378Y-1181D02*
D03*
X1772Y-2362D02*
D03*
X-1181Y-2165D02*
D03*
X-2165Y-3937D02*
D03*
X1772Y-4134D02*
D03*
X197Y-7677D02*
D03*
X2362Y-9646D02*
D03*
X197Y-10827D02*
D03*
Y-16929D02*
D03*
X-1969Y-16535D02*
D03*
X-2165Y-15354D02*
D03*
X-3937Y-12402D02*
D03*
X-4134Y-14370D02*
D03*
X-5709Y-12992D02*
D03*
X-11024Y-16929D02*
D03*
X-8661Y-12598D02*
D03*
Y-13386D02*
D03*
X-12598Y-14567D02*
D03*
X-13386Y-15354D02*
D03*
X-11417Y-16142D02*
D03*
X-16142D02*
D03*
X-20079Y-17717D02*
D03*
Y-16535D02*
D03*
X-15748Y-9449D02*
D03*
X-18898Y-7874D02*
D03*
Y-6299D02*
D03*
Y-4331D02*
D03*
X-20079Y-3543D02*
D03*
X-22835D02*
D03*
X-24016Y-5118D02*
D03*
Y-7087D02*
D03*
Y-9055D02*
D03*
X24567Y-16732D02*
D03*
Y-16142D02*
D03*
X-24409D02*
D03*
Y-16732D02*
D03*
X-25591Y-17126D02*
D03*
X-24803Y-17520D02*
D03*
X-25197D02*
D03*
X-25591D02*
D03*
X-25984Y-16535D02*
D03*
Y-15748D02*
D03*
X-24803D02*
D03*
X-25984Y-16142D02*
D03*
X-25591Y-15748D02*
D03*
X-25197D02*
D03*
X-24409Y-17126D02*
D03*
Y-17520D02*
D03*
X-25984Y-16929D02*
D03*
Y-17323D02*
D03*
X-24409Y-14370D02*
D03*
X-25984D02*
D03*
Y-13976D02*
D03*
X-24409Y-15748D02*
D03*
Y-13976D02*
D03*
Y-15157D02*
D03*
X-24803D02*
D03*
X-25197D02*
D03*
X-25591D02*
D03*
X-25984D02*
D03*
Y-14764D02*
D03*
X-24409D02*
D03*
X-25984Y-13583D02*
D03*
X-25591D02*
D03*
X-24803D02*
D03*
X-25197D02*
D03*
X-24803Y-17126D02*
D03*
X-25197D02*
D03*
X25827Y-15748D02*
D03*
X25433D02*
D03*
X25039D02*
D03*
X24646D02*
D03*
X26083Y-15945D02*
D03*
Y-16339D02*
D03*
Y-16732D02*
D03*
X25787Y-17126D02*
D03*
X25394D02*
D03*
X25000D02*
D03*
X24606D02*
D03*
Y-17520D02*
D03*
X25000D02*
D03*
X25394D02*
D03*
X25787D02*
D03*
X24606Y-15157D02*
D03*
X25000D02*
D03*
X25394D02*
D03*
X25787D02*
D03*
X26083Y-14764D02*
D03*
X24606Y-14370D02*
D03*
X26083D02*
D03*
Y-13976D02*
D03*
X25787Y-13583D02*
D03*
X25394D02*
D03*
X24606Y-14764D02*
D03*
X25000Y-13583D02*
D03*
X24606Y-13976D02*
D03*
D95*
X-12835Y-16732D02*
D03*
X1378Y-16535D02*
D03*
X17598Y-12323D02*
D03*
X18898Y-10906D02*
D03*
X18189Y-16024D02*
D03*
X12008Y-5020D02*
D03*
X12795Y-8858D02*
D03*
X-14468Y-5610D02*
D03*
X-12795Y-3937D02*
D03*
X-17224Y-16732D02*
D03*
X6545Y-8858D02*
D03*
X10532Y-7087D02*
D03*
X11024Y-3740D02*
D03*
X-12352Y-8858D02*
D03*
X-7874Y-3740D02*
D03*
X-6890Y-5020D02*
D03*
X-8366Y-7087D02*
D03*
X-6102Y-8957D02*
D03*
D96*
X21496Y-12441D02*
X23409Y-14354D01*
D97*
X0Y-14764D02*
D03*
X13386Y-12205D02*
D03*
X24409Y-11024D02*
D03*
X-13386Y-12205D02*
D03*
X-24409Y-11024D02*
D03*
X23228Y-1378D02*
D03*
X14567D02*
D03*
X4331D02*
D03*
X-4331D02*
D03*
X-14567D02*
D03*
X-23228D02*
D03*
M02*
