M48
;Layer_Color=9474304
;FILE_FORMAT=2:5
INCH,TZ
;TYPE=PLATED
T1F00S00C0.01181
T2F00S00C0.03150
T3F00S00C0.03937
%
T01
X3543Y12598
X12492Y14853
X16142Y10630
X28153
X27854Y17036
X26378Y23228
X11417Y24016
X7087Y24409
X3543Y29134
X20891Y39807
X31890Y34321
X33465Y5118
X36496Y14764
X51181Y14173
X50394Y24409
X47441Y26927
X53937Y31102
X41732Y34348
X65748Y27165
T02
X5827Y5063
X15827
Y37063
X5827
X78347Y25787
Y15945
T03
X26496Y38189
X36496
X46496
X56496
X66496
X76496
Y5118
X66496
X56496
X46496
M30
