G04*
G04 #@! TF.GenerationSoftware,Altium Limited,Altium Designer,21.1.1 (26)*
G04*
G04 Layer_Physical_Order=2*
G04 Layer_Color=16711680*
%FSLAX25Y25*%
%MOIN*%
G70*
G04*
G04 #@! TF.SameCoordinates,796318E6-0720-4558-8E08-BFF37AF7A405*
G04*
G04*
G04 #@! TF.FilePolarity,Positive*
G04*
G01*
G75*
%ADD49C,0.01968*%
G04:AMPARAMS|DCode=52|XSize=59.06mil|YSize=70.87mil|CornerRadius=14.76mil|HoleSize=0mil|Usage=FLASHONLY|Rotation=0.000|XOffset=0mil|YOffset=0mil|HoleType=Round|Shape=RoundedRectangle|*
%AMROUNDEDRECTD52*
21,1,0.05906,0.04134,0,0,0.0*
21,1,0.02953,0.07087,0,0,0.0*
1,1,0.02953,0.01476,-0.02067*
1,1,0.02953,-0.01476,-0.02067*
1,1,0.02953,-0.01476,0.02067*
1,1,0.02953,0.01476,0.02067*
%
%ADD52ROUNDEDRECTD52*%
%ADD53O,0.05906X0.07087*%
%ADD54C,0.05118*%
G04:AMPARAMS|DCode=55|XSize=51.18mil|YSize=51.18mil|CornerRadius=7.68mil|HoleSize=0mil|Usage=FLASHONLY|Rotation=90.000|XOffset=0mil|YOffset=0mil|HoleType=Round|Shape=RoundedRectangle|*
%AMROUNDEDRECTD55*
21,1,0.05118,0.03583,0,0,90.0*
21,1,0.03583,0.05118,0,0,90.0*
1,1,0.01535,0.01791,0.01791*
1,1,0.01535,0.01791,-0.01791*
1,1,0.01535,-0.01791,-0.01791*
1,1,0.01535,-0.01791,0.01791*
%
%ADD55ROUNDEDRECTD55*%
%ADD56C,0.04724*%
G04:AMPARAMS|DCode=57|XSize=47.24mil|YSize=47.24mil|CornerRadius=7.09mil|HoleSize=0mil|Usage=FLASHONLY|Rotation=90.000|XOffset=0mil|YOffset=0mil|HoleType=Round|Shape=RoundedRectangle|*
%AMROUNDEDRECTD57*
21,1,0.04724,0.03307,0,0,90.0*
21,1,0.03307,0.04724,0,0,90.0*
1,1,0.01417,0.01654,0.01654*
1,1,0.01417,0.01654,-0.01654*
1,1,0.01417,-0.01654,-0.01654*
1,1,0.01417,-0.01654,0.01654*
%
%ADD57ROUNDEDRECTD57*%
%ADD58C,0.02756*%
G36*
X72712Y41291D02*
X72699Y41201D01*
X72511Y40256D01*
Y36122D01*
X72702Y35162D01*
X73246Y34348D01*
X74060Y33804D01*
X75020Y33613D01*
X77972D01*
X78932Y33804D01*
X79746Y34348D01*
X80290Y35162D01*
X80481Y36122D01*
Y39375D01*
X80981Y39655D01*
X81058Y39608D01*
X81072Y39560D01*
Y29618D01*
X80572Y29279D01*
X80138Y29365D01*
X76555D01*
X75872Y29229D01*
X75292Y28842D01*
X74905Y28262D01*
X74769Y27579D01*
Y24655D01*
X72597Y22482D01*
X72162Y21831D01*
X72009Y21063D01*
Y13217D01*
X72162Y12449D01*
X72597Y11798D01*
X74328Y10066D01*
X74190Y9529D01*
X74060Y9503D01*
X73246Y8959D01*
X72702Y8145D01*
X72511Y7185D01*
Y3051D01*
X72699Y2106D01*
X72712Y2016D01*
X72432Y1606D01*
X69867D01*
X69620Y2106D01*
X69949Y2534D01*
X70347Y3496D01*
X70483Y4528D01*
Y4626D01*
X62509D01*
Y4528D01*
X62645Y3496D01*
X63043Y2534D01*
X63372Y2106D01*
X63126Y1606D01*
X60560D01*
X60280Y2016D01*
X60293Y2106D01*
X60481Y3051D01*
Y7185D01*
X60290Y8145D01*
X59746Y8959D01*
X58933Y9503D01*
X57972Y9694D01*
X55020D01*
X54966Y9683D01*
X52691Y11959D01*
X52040Y12394D01*
X51272Y12546D01*
X37142D01*
X31347Y18341D01*
X30696Y18777D01*
X29928Y18929D01*
X29301D01*
X29192Y19038D01*
X28324Y19398D01*
X27384D01*
X26516Y19038D01*
X25851Y18374D01*
X25492Y17506D01*
Y16566D01*
X25851Y15698D01*
X26516Y15033D01*
X27384Y14673D01*
X28324D01*
X28907Y14915D01*
X29097D01*
X34892Y9120D01*
X35543Y8685D01*
X36311Y8532D01*
X43050D01*
X43297Y8032D01*
X43043Y7702D01*
X42645Y6741D01*
X42509Y5709D01*
Y5610D01*
X46496D01*
Y4626D01*
X42509D01*
Y4528D01*
X42645Y3496D01*
X43043Y2534D01*
X43372Y2106D01*
X43126Y1606D01*
X18728Y1606D01*
X18576Y2106D01*
X18701Y2189D01*
X19075Y2749D01*
X19206Y3409D01*
Y6717D01*
X19075Y7377D01*
X18701Y7937D01*
X18141Y8311D01*
X17480Y8443D01*
X14173D01*
X13513Y8311D01*
X12953Y7937D01*
X12578Y7377D01*
X12447Y6717D01*
Y3409D01*
X12578Y2749D01*
X12953Y2189D01*
X13077Y2106D01*
X12926Y1606D01*
X7563Y1606D01*
X7429Y2106D01*
X7891Y2373D01*
X8517Y2998D01*
X8960Y3765D01*
X9176Y4571D01*
X5827D01*
X2478D01*
X2694Y3765D01*
X3136Y2998D01*
X3762Y2373D01*
X4225Y2106D01*
X4091Y1606D01*
X3937D01*
X3937Y1606D01*
X3937Y1606D01*
X3707Y1606D01*
X3257Y1695D01*
X2833Y1871D01*
X2451Y2126D01*
X2126Y2451D01*
X1871Y2833D01*
X1695Y3257D01*
X1606Y3707D01*
Y3937D01*
Y39370D01*
Y39600D01*
X1695Y40050D01*
X1871Y40474D01*
X2126Y40856D01*
X2451Y41181D01*
X2833Y41436D01*
X3257Y41612D01*
X3707Y41701D01*
X22432D01*
X22713Y41291D01*
X22699Y41201D01*
X22511Y40256D01*
Y36579D01*
X21010Y35078D01*
X19045D01*
X18795Y35511D01*
X18945Y35771D01*
X19173Y36622D01*
Y37504D01*
X18945Y38355D01*
X18505Y39118D01*
X17882Y39741D01*
X17119Y40181D01*
X16267Y40409D01*
X15386D01*
X14535Y40181D01*
X13772Y39741D01*
X13149Y39118D01*
X12708Y38355D01*
X12480Y37504D01*
Y36622D01*
X12708Y35771D01*
X12859Y35511D01*
X12609Y35078D01*
X10650D01*
X9159Y36569D01*
X9173Y36622D01*
Y37504D01*
X8945Y38355D01*
X8505Y39118D01*
X7881Y39741D01*
X7118Y40181D01*
X6267Y40409D01*
X5386D01*
X4535Y40181D01*
X3772Y39741D01*
X3149Y39118D01*
X2708Y38355D01*
X2480Y37504D01*
Y36622D01*
X2708Y35771D01*
X3149Y35008D01*
X3772Y34385D01*
X4535Y33945D01*
X5386Y33716D01*
X6267D01*
X6320Y33731D01*
X8400Y31652D01*
X9051Y31217D01*
X9819Y31064D01*
X21841D01*
X22609Y31217D01*
X23260Y31652D01*
X25222Y33613D01*
X27972D01*
X28932Y33804D01*
X29746Y34348D01*
X30290Y35162D01*
X30481Y36122D01*
Y40256D01*
X30293Y41201D01*
X30280Y41291D01*
X30560Y41701D01*
X33145D01*
X33392Y41201D01*
X33057Y40765D01*
X32660Y39807D01*
X32525Y38780D01*
Y37598D01*
X32660Y36571D01*
X33057Y35613D01*
X33688Y34791D01*
X34511Y34159D01*
X35468Y33763D01*
X36496Y33628D01*
X37524Y33763D01*
X38482Y34159D01*
X39304Y34791D01*
X39935Y35613D01*
X40332Y36571D01*
X40467Y37598D01*
Y38780D01*
X40332Y39807D01*
X39935Y40765D01*
X39600Y41201D01*
X39847Y41701D01*
X43126Y41701D01*
X43372Y41201D01*
X43043Y40773D01*
X42645Y39811D01*
X42509Y38780D01*
Y38681D01*
X50483D01*
Y38780D01*
X50347Y39811D01*
X49949Y40773D01*
X49620Y41201D01*
X49867Y41701D01*
X52432D01*
X52713Y41291D01*
X52699Y41201D01*
X52511Y40256D01*
Y36122D01*
X52702Y35162D01*
X53246Y34348D01*
X54060Y33804D01*
X55020Y33613D01*
X57972D01*
X58933Y33804D01*
X59746Y34348D01*
X60290Y35162D01*
X60481Y36122D01*
Y40256D01*
X60293Y41201D01*
X60280Y41291D01*
X60560Y41701D01*
X63146D01*
X63392Y41201D01*
X63057Y40765D01*
X62660Y39807D01*
X62525Y38780D01*
Y37598D01*
X62660Y36571D01*
X63057Y35613D01*
X63688Y34791D01*
X64511Y34159D01*
X65468Y33763D01*
X66496Y33628D01*
X67524Y33763D01*
X68482Y34159D01*
X69304Y34791D01*
X69935Y35613D01*
X70332Y36571D01*
X70467Y37598D01*
Y38780D01*
X70332Y39807D01*
X69935Y40765D01*
X69600Y41201D01*
X69847Y41701D01*
X72432D01*
X72712Y41291D01*
D02*
G37*
%LPC*%
G36*
X50483Y37697D02*
X46988D01*
Y33676D01*
X47528Y33747D01*
X48489Y34146D01*
X49315Y34779D01*
X49949Y35605D01*
X50347Y36567D01*
X50483Y37598D01*
Y37697D01*
D02*
G37*
G36*
X46004D02*
X42509D01*
Y37598D01*
X42645Y36567D01*
X43043Y35605D01*
X43677Y34779D01*
X44503Y34146D01*
X45464Y33747D01*
X46004Y33676D01*
Y37697D01*
D02*
G37*
G36*
X50864Y26772D02*
X49924D01*
X49056Y26412D01*
X48391Y25747D01*
X48187Y25254D01*
X48168Y25235D01*
X27705D01*
X26848Y25591D01*
X25908D01*
X25040Y25231D01*
X24935Y25126D01*
X23513D01*
X22745Y24973D01*
X22093Y24538D01*
X20234Y22679D01*
X19799Y22028D01*
X19647Y21260D01*
Y14567D01*
X19799Y13799D01*
X20234Y13148D01*
X24171Y9211D01*
X24823Y8776D01*
X25591Y8623D01*
X26826D01*
X27683Y8268D01*
X28623D01*
X29491Y8627D01*
X30156Y9292D01*
X30515Y10160D01*
Y11100D01*
X30156Y11968D01*
X29491Y12632D01*
X28623Y12992D01*
X27683D01*
X26826Y12637D01*
X26422D01*
X23661Y15398D01*
Y20428D01*
X24344Y21112D01*
X25315D01*
X25908Y20866D01*
X26848D01*
X27705Y21221D01*
X49000D01*
X49768Y21374D01*
X50419Y21809D01*
X50657Y22047D01*
X50864D01*
X51732Y22407D01*
X52396Y23071D01*
X52756Y23940D01*
Y24879D01*
X52396Y25747D01*
X51732Y26412D01*
X50864Y26772D01*
D02*
G37*
G36*
X7557D02*
X6617D01*
X5748Y26412D01*
X5084Y25747D01*
X4724Y24879D01*
Y23940D01*
X5084Y23071D01*
X5230Y22925D01*
Y20108D01*
X5383Y19340D01*
X5818Y18689D01*
X10135Y14372D01*
X10490Y13515D01*
X11154Y12850D01*
X12023Y12491D01*
X12962D01*
X13830Y12850D01*
X14495Y13515D01*
X14855Y14383D01*
Y15323D01*
X14495Y16191D01*
X13830Y16856D01*
X12973Y17211D01*
X9244Y20939D01*
Y23446D01*
X9449Y23940D01*
Y24879D01*
X9089Y25747D01*
X8425Y26412D01*
X7557Y26772D01*
D02*
G37*
G36*
X66988Y9631D02*
Y5610D01*
X70483D01*
Y5709D01*
X70347Y6741D01*
X69949Y7702D01*
X69315Y8528D01*
X68489Y9161D01*
X67528Y9560D01*
X66988Y9631D01*
D02*
G37*
G36*
X66004D02*
X65464Y9560D01*
X64503Y9161D01*
X63677Y8528D01*
X63043Y7702D01*
X62645Y6741D01*
X62509Y5709D01*
Y5610D01*
X66004D01*
Y9631D01*
D02*
G37*
G36*
X6319Y8412D02*
Y5555D01*
X9176D01*
X8960Y6361D01*
X8517Y7127D01*
X7891Y7753D01*
X7124Y8196D01*
X6319Y8412D01*
D02*
G37*
G36*
X5335D02*
X4529Y8196D01*
X3762Y7753D01*
X3136Y7127D01*
X2694Y6361D01*
X2478Y5555D01*
X5335D01*
Y8412D01*
D02*
G37*
%LPD*%
D49*
X21654Y14567D02*
X25591Y10630D01*
X28153D01*
X21654Y14567D02*
Y21260D01*
X23513Y23119D01*
X26268D01*
X59252Y20669D02*
X65748Y27165D01*
X53937Y30709D02*
X62205D01*
X51181Y14173D02*
X57677Y20669D01*
X62205Y30709D02*
X65748Y27165D01*
X57677Y20669D02*
X59252D01*
X26268Y23119D02*
X26378Y23228D01*
X49000D01*
X27854Y17036D02*
X27967Y16922D01*
X29928D02*
X36311Y10539D01*
X51272D01*
X27967Y16922D02*
X29928D01*
X53747Y30709D02*
X53937D01*
X51778Y28740D02*
X53747Y30709D01*
X47441Y26927D02*
X47654D01*
X49467Y28740D01*
X51778D01*
X46562Y38189D02*
X53937Y30814D01*
X46496Y38189D02*
X46562D01*
X53937Y30709D02*
Y30814D01*
X50181Y24409D02*
X50394D01*
X49000Y23228D02*
X50181Y24409D01*
X7237Y20108D02*
X12492Y14853D01*
X7237Y20108D02*
Y24259D01*
X7087Y24409D02*
X7237Y24259D01*
X74016Y13217D02*
X76496Y10737D01*
Y5315D02*
Y10737D01*
X74016Y13217D02*
Y21063D01*
X76772Y24213D02*
X78347Y25787D01*
X76772Y23819D02*
Y24213D01*
X74016Y21063D02*
X76772Y23819D01*
X54438Y7373D02*
X54565D01*
X56496Y5315D02*
Y5442D01*
X51272Y10539D02*
X54438Y7373D01*
X54565D02*
X56496Y5442D01*
X24528Y35757D02*
X25581Y36811D01*
X24528Y35757D02*
Y35757D01*
X21841Y33071D02*
X24528Y35757D01*
X9819Y33071D02*
X21841D01*
X25581Y36811D02*
X26496D01*
X5827Y37063D02*
X9819Y33071D01*
D52*
X56496Y5118D02*
D03*
X76496D02*
D03*
X56496Y38189D02*
D03*
X76496D02*
D03*
X26496D02*
D03*
D53*
X46496Y5118D02*
D03*
X66496D02*
D03*
X46496Y38189D02*
D03*
X66496D02*
D03*
X36496D02*
D03*
D54*
X78347Y15945D02*
D03*
D55*
Y25787D02*
D03*
D56*
X5827Y5063D02*
D03*
X15827Y37063D02*
D03*
X5827D02*
D03*
D57*
X15827Y5063D02*
D03*
D58*
X16142Y10630D02*
D03*
X53937Y31102D02*
D03*
X65748Y27165D02*
D03*
X51181Y14173D02*
D03*
X33465Y5118D02*
D03*
X3543Y12598D02*
D03*
Y29134D02*
D03*
X26378Y23228D02*
D03*
X47441Y26927D02*
D03*
X36496Y14764D02*
D03*
X31890Y34321D02*
D03*
X41732Y34348D02*
D03*
X20891Y39807D02*
D03*
X12492Y14853D02*
D03*
X27854Y17036D02*
D03*
X11417Y24016D02*
D03*
X50394Y24409D02*
D03*
X28153Y10630D02*
D03*
X7087Y24409D02*
D03*
M02*
