G04*
G04 #@! TF.GenerationSoftware,Altium Limited,Altium Designer,21.1.1 (26)*
G04*
G04 Layer_Physical_Order=1*
G04 Layer_Color=255*
%FSLAX25Y25*%
%MOIN*%
G70*
G04*
G04 #@! TF.SameCoordinates,796318E6-0720-4558-8E08-BFF37AF7A405*
G04*
G04*
G04 #@! TF.FilePolarity,Positive*
G04*
G01*
G75*
G04:AMPARAMS|DCode=15|XSize=45.28mil|YSize=78.74mil|CornerRadius=6.79mil|HoleSize=0mil|Usage=FLASHONLY|Rotation=0.000|XOffset=0mil|YOffset=0mil|HoleType=Round|Shape=RoundedRectangle|*
%AMROUNDEDRECTD15*
21,1,0.04528,0.06516,0,0,0.0*
21,1,0.03169,0.07874,0,0,0.0*
1,1,0.01358,0.01585,-0.03258*
1,1,0.01358,-0.01585,-0.03258*
1,1,0.01358,-0.01585,0.03258*
1,1,0.01358,0.01585,0.03258*
%
%ADD15ROUNDEDRECTD15*%
G04:AMPARAMS|DCode=16|XSize=31.5mil|YSize=22.64mil|CornerRadius=3.4mil|HoleSize=0mil|Usage=FLASHONLY|Rotation=0.000|XOffset=0mil|YOffset=0mil|HoleType=Round|Shape=RoundedRectangle|*
%AMROUNDEDRECTD16*
21,1,0.03150,0.01585,0,0,0.0*
21,1,0.02471,0.02264,0,0,0.0*
1,1,0.00679,0.01235,-0.00792*
1,1,0.00679,-0.01235,-0.00792*
1,1,0.00679,-0.01235,0.00792*
1,1,0.00679,0.01235,0.00792*
%
%ADD16ROUNDEDRECTD16*%
%ADD17R,0.03150X0.02264*%
G04:AMPARAMS|DCode=18|XSize=31.5mil|YSize=35.43mil|CornerRadius=2.36mil|HoleSize=0mil|Usage=FLASHONLY|Rotation=270.000|XOffset=0mil|YOffset=0mil|HoleType=Round|Shape=RoundedRectangle|*
%AMROUNDEDRECTD18*
21,1,0.03150,0.03071,0,0,270.0*
21,1,0.02677,0.03543,0,0,270.0*
1,1,0.00472,-0.01535,-0.01339*
1,1,0.00472,-0.01535,0.01339*
1,1,0.00472,0.01535,0.01339*
1,1,0.00472,0.01535,-0.01339*
%
%ADD18ROUNDEDRECTD18*%
G04:AMPARAMS|DCode=19|XSize=31.5mil|YSize=35.43mil|CornerRadius=7.87mil|HoleSize=0mil|Usage=FLASHONLY|Rotation=270.000|XOffset=0mil|YOffset=0mil|HoleType=Round|Shape=RoundedRectangle|*
%AMROUNDEDRECTD19*
21,1,0.03150,0.01968,0,0,270.0*
21,1,0.01575,0.03543,0,0,270.0*
1,1,0.01575,-0.00984,-0.00787*
1,1,0.01575,-0.00984,0.00787*
1,1,0.01575,0.00984,0.00787*
1,1,0.01575,0.00984,-0.00787*
%
%ADD19ROUNDEDRECTD19*%
G04:AMPARAMS|DCode=20|XSize=37.4mil|YSize=33.47mil|CornerRadius=5.02mil|HoleSize=0mil|Usage=FLASHONLY|Rotation=0.000|XOffset=0mil|YOffset=0mil|HoleType=Round|Shape=RoundedRectangle|*
%AMROUNDEDRECTD20*
21,1,0.03740,0.02343,0,0,0.0*
21,1,0.02736,0.03347,0,0,0.0*
1,1,0.01004,0.01368,-0.01171*
1,1,0.01004,-0.01368,-0.01171*
1,1,0.01004,-0.01368,0.01171*
1,1,0.01004,0.01368,0.01171*
%
%ADD20ROUNDEDRECTD20*%
G04:AMPARAMS|DCode=23|XSize=31.5mil|YSize=31.5mil|CornerRadius=4.72mil|HoleSize=0mil|Usage=FLASHONLY|Rotation=90.000|XOffset=0mil|YOffset=0mil|HoleType=Round|Shape=RoundedRectangle|*
%AMROUNDEDRECTD23*
21,1,0.03150,0.02205,0,0,90.0*
21,1,0.02205,0.03150,0,0,90.0*
1,1,0.00945,0.01102,0.01102*
1,1,0.00945,0.01102,-0.01102*
1,1,0.00945,-0.01102,-0.01102*
1,1,0.00945,-0.01102,0.01102*
%
%ADD23ROUNDEDRECTD23*%
G04:AMPARAMS|DCode=24|XSize=35.43mil|YSize=51.18mil|CornerRadius=5.32mil|HoleSize=0mil|Usage=FLASHONLY|Rotation=270.000|XOffset=0mil|YOffset=0mil|HoleType=Round|Shape=RoundedRectangle|*
%AMROUNDEDRECTD24*
21,1,0.03543,0.04055,0,0,270.0*
21,1,0.02480,0.05118,0,0,270.0*
1,1,0.01063,-0.02028,-0.01240*
1,1,0.01063,-0.02028,0.01240*
1,1,0.01063,0.02028,0.01240*
1,1,0.01063,0.02028,-0.01240*
%
%ADD24ROUNDEDRECTD24*%
G04:AMPARAMS|DCode=25|XSize=37.4mil|YSize=33.47mil|CornerRadius=5.02mil|HoleSize=0mil|Usage=FLASHONLY|Rotation=90.000|XOffset=0mil|YOffset=0mil|HoleType=Round|Shape=RoundedRectangle|*
%AMROUNDEDRECTD25*
21,1,0.03740,0.02343,0,0,90.0*
21,1,0.02736,0.03347,0,0,90.0*
1,1,0.01004,0.01171,0.01368*
1,1,0.01004,0.01171,-0.01368*
1,1,0.01004,-0.01171,-0.01368*
1,1,0.01004,-0.01171,0.01368*
%
%ADD25ROUNDEDRECTD25*%
G04:AMPARAMS|DCode=26|XSize=35.43mil|YSize=51.18mil|CornerRadius=2.66mil|HoleSize=0mil|Usage=FLASHONLY|Rotation=180.000|XOffset=0mil|YOffset=0mil|HoleType=Round|Shape=RoundedRectangle|*
%AMROUNDEDRECTD26*
21,1,0.03543,0.04587,0,0,180.0*
21,1,0.03012,0.05118,0,0,180.0*
1,1,0.00532,-0.01506,0.02293*
1,1,0.00532,0.01506,0.02293*
1,1,0.00532,0.01506,-0.02293*
1,1,0.00532,-0.01506,-0.02293*
%
%ADD26ROUNDEDRECTD26*%
G04:AMPARAMS|DCode=27|XSize=35.43mil|YSize=51.18mil|CornerRadius=8.86mil|HoleSize=0mil|Usage=FLASHONLY|Rotation=180.000|XOffset=0mil|YOffset=0mil|HoleType=Round|Shape=RoundedRectangle|*
%AMROUNDEDRECTD27*
21,1,0.03543,0.03347,0,0,180.0*
21,1,0.01772,0.05118,0,0,180.0*
1,1,0.01772,-0.00886,0.01673*
1,1,0.01772,0.00886,0.01673*
1,1,0.01772,0.00886,-0.01673*
1,1,0.01772,-0.00886,-0.01673*
%
%ADD27ROUNDEDRECTD27*%
G04:AMPARAMS|DCode=47|XSize=41.34mil|YSize=23.62mil|CornerRadius=5.91mil|HoleSize=0mil|Usage=FLASHONLY|Rotation=0.000|XOffset=0mil|YOffset=0mil|HoleType=Round|Shape=RoundedRectangle|*
%AMROUNDEDRECTD47*
21,1,0.04134,0.01181,0,0,0.0*
21,1,0.02953,0.02362,0,0,0.0*
1,1,0.01181,0.01476,-0.00591*
1,1,0.01181,-0.01476,-0.00591*
1,1,0.01181,-0.01476,0.00591*
1,1,0.01181,0.01476,0.00591*
%
%ADD47ROUNDEDRECTD47*%
G04:AMPARAMS|DCode=48|XSize=41.34mil|YSize=23.62mil|CornerRadius=2.36mil|HoleSize=0mil|Usage=FLASHONLY|Rotation=180.000|XOffset=0mil|YOffset=0mil|HoleType=Round|Shape=RoundedRectangle|*
%AMROUNDEDRECTD48*
21,1,0.04134,0.01890,0,0,180.0*
21,1,0.03661,0.02362,0,0,180.0*
1,1,0.00472,-0.01831,0.00945*
1,1,0.00472,0.01831,0.00945*
1,1,0.00472,0.01831,-0.00945*
1,1,0.00472,-0.01831,-0.00945*
%
%ADD48ROUNDEDRECTD48*%
%ADD49C,0.01968*%
%ADD50C,0.01575*%
%ADD51C,0.01772*%
G04:AMPARAMS|DCode=52|XSize=59.06mil|YSize=70.87mil|CornerRadius=14.76mil|HoleSize=0mil|Usage=FLASHONLY|Rotation=0.000|XOffset=0mil|YOffset=0mil|HoleType=Round|Shape=RoundedRectangle|*
%AMROUNDEDRECTD52*
21,1,0.05906,0.04134,0,0,0.0*
21,1,0.02953,0.07087,0,0,0.0*
1,1,0.02953,0.01476,-0.02067*
1,1,0.02953,-0.01476,-0.02067*
1,1,0.02953,-0.01476,0.02067*
1,1,0.02953,0.01476,0.02067*
%
%ADD52ROUNDEDRECTD52*%
%ADD53O,0.05906X0.07087*%
%ADD54C,0.05118*%
G04:AMPARAMS|DCode=55|XSize=51.18mil|YSize=51.18mil|CornerRadius=7.68mil|HoleSize=0mil|Usage=FLASHONLY|Rotation=90.000|XOffset=0mil|YOffset=0mil|HoleType=Round|Shape=RoundedRectangle|*
%AMROUNDEDRECTD55*
21,1,0.05118,0.03583,0,0,90.0*
21,1,0.03583,0.05118,0,0,90.0*
1,1,0.01535,0.01791,0.01791*
1,1,0.01535,0.01791,-0.01791*
1,1,0.01535,-0.01791,-0.01791*
1,1,0.01535,-0.01791,0.01791*
%
%ADD55ROUNDEDRECTD55*%
%ADD56C,0.04724*%
G04:AMPARAMS|DCode=57|XSize=47.24mil|YSize=47.24mil|CornerRadius=7.09mil|HoleSize=0mil|Usage=FLASHONLY|Rotation=90.000|XOffset=0mil|YOffset=0mil|HoleType=Round|Shape=RoundedRectangle|*
%AMROUNDEDRECTD57*
21,1,0.04724,0.03307,0,0,90.0*
21,1,0.03307,0.04724,0,0,90.0*
1,1,0.01417,0.01654,0.01654*
1,1,0.01417,0.01654,-0.01654*
1,1,0.01417,-0.01654,-0.01654*
1,1,0.01417,-0.01654,0.01654*
%
%ADD57ROUNDEDRECTD57*%
%ADD58C,0.02756*%
G36*
X62660Y36571D02*
X63057Y35613D01*
X63688Y34791D01*
X64511Y34159D01*
X64690Y34085D01*
Y33990D01*
X64843Y33222D01*
X65278Y32571D01*
X67293Y30556D01*
Y29862D01*
X67411Y29271D01*
X67746Y28769D01*
X68247Y28434D01*
X68839Y28317D01*
X72894D01*
X73485Y28434D01*
X73987Y28769D01*
X74273Y29199D01*
X74601Y29268D01*
X74830Y29265D01*
X75077Y28896D01*
X75158Y28814D01*
Y28642D01*
X74905Y28262D01*
X74769Y27579D01*
Y25653D01*
X74269Y25561D01*
X73998Y25966D01*
X73491Y26305D01*
X72894Y26424D01*
X71358D01*
Y23622D01*
X70374D01*
Y26424D01*
X68839D01*
X68241Y26305D01*
X67734Y25966D01*
X67396Y25460D01*
X67277Y24862D01*
Y24108D01*
X66815Y23917D01*
X65789Y24943D01*
X65138Y25378D01*
X64370Y25531D01*
X63227D01*
X63069Y25766D01*
X62578Y26095D01*
X61998Y26210D01*
X59262D01*
X58682Y26095D01*
X58190Y25766D01*
X57862Y25275D01*
X57746Y24695D01*
Y22476D01*
X54134D01*
X53443Y22338D01*
X52857Y21947D01*
X50086Y19176D01*
X48622D01*
Y19486D01*
X46444D01*
X46260Y19523D01*
X46075Y19486D01*
X44162D01*
X44107Y19763D01*
X43778Y20255D01*
X43672Y20325D01*
X43715Y20842D01*
X44102Y21096D01*
X44121Y21092D01*
X44712Y20697D01*
X45409Y20559D01*
X45902D01*
Y23168D01*
X46886D01*
Y20559D01*
X47378D01*
X48075Y20697D01*
X48667Y21092D01*
X49062Y21684D01*
X49117Y21963D01*
X49558Y22199D01*
X49924Y22047D01*
X50864D01*
X51732Y22407D01*
X52396Y23071D01*
X52756Y23940D01*
Y24011D01*
X53142Y24328D01*
X53409Y24275D01*
X55378D01*
X56069Y24412D01*
X56655Y24804D01*
X57047Y25390D01*
X57184Y26081D01*
Y26624D01*
X57884Y27324D01*
X59941D01*
X59988Y27333D01*
X61998D01*
X62578Y27448D01*
X63069Y27777D01*
X63398Y28269D01*
X63513Y28848D01*
Y31191D01*
X63398Y31771D01*
X63069Y32262D01*
X62578Y32591D01*
X61998Y32706D01*
X59262D01*
X58682Y32591D01*
X58190Y32262D01*
X57862Y31771D01*
X57776Y31338D01*
X57053D01*
X56285Y31185D01*
X55633Y30750D01*
X54346Y29462D01*
X53409D01*
X52901Y29361D01*
X52401Y29668D01*
Y31649D01*
X54474Y33722D01*
X55020Y33613D01*
X57972D01*
X58933Y33804D01*
X59746Y34348D01*
X60290Y35162D01*
X60481Y36122D01*
Y36576D01*
X62660D01*
X62660Y36571D01*
D02*
G37*
G36*
X33392Y41201D02*
X33057Y40765D01*
X32660Y39807D01*
X32525Y38780D01*
Y37598D01*
X32660Y36571D01*
X33057Y35613D01*
X33688Y34791D01*
X34351Y34282D01*
Y33000D01*
X34272Y32985D01*
X33781Y32656D01*
X33725Y32573D01*
X25036D01*
X24793Y32937D01*
X24390Y33207D01*
X23913Y33301D01*
X20843D01*
X20366Y33207D01*
X19963Y32937D01*
X19693Y32533D01*
X19598Y32057D01*
Y30606D01*
X15793Y26801D01*
X14774D01*
X14194Y26685D01*
X13702Y26357D01*
X13374Y25865D01*
X13258Y25285D01*
Y22943D01*
X13374Y22363D01*
X13702Y21871D01*
X14194Y21543D01*
X14774Y21428D01*
X15507D01*
X15774Y20928D01*
X15555Y20601D01*
X15497Y20305D01*
X14774D01*
X14194Y20189D01*
X13702Y19861D01*
X13374Y19369D01*
X13258Y18789D01*
Y17413D01*
X12962Y17215D01*
X12023D01*
X11154Y16856D01*
X10490Y16191D01*
X10130Y15323D01*
Y14383D01*
X10490Y13515D01*
X11154Y12850D01*
X12023Y12491D01*
X12962D01*
X13377Y12662D01*
X17782D01*
X18193Y12162D01*
X18162Y12008D01*
Y11910D01*
X21260D01*
X24358D01*
Y12008D01*
X24235Y12629D01*
X23883Y13155D01*
X24025Y13661D01*
X24219Y13952D01*
X24341Y14567D01*
Y15748D01*
X24219Y16362D01*
X24024Y16654D01*
X23883Y17161D01*
X24235Y17687D01*
X24358Y18307D01*
Y18406D01*
X21260D01*
Y19390D01*
X24358D01*
Y19489D01*
X24235Y20109D01*
X24129Y20267D01*
X24118Y20341D01*
X24289Y20920D01*
X24640Y21154D01*
X24681Y21216D01*
X25063D01*
X25577Y21003D01*
X25910Y20811D01*
X25921Y20366D01*
X25847Y19991D01*
Y18363D01*
X25492Y17506D01*
Y16566D01*
X25851Y15698D01*
X26516Y15033D01*
X27384Y14673D01*
X28324D01*
X28344Y14682D01*
X28836Y14345D01*
X28916Y13947D01*
X29062Y13728D01*
X28794Y13228D01*
X28744D01*
X27976Y13075D01*
X27852Y12992D01*
X27683D01*
X26815Y12632D01*
X26151Y11968D01*
X25791Y11100D01*
Y10160D01*
X26151Y9292D01*
X26292Y9150D01*
Y8405D01*
X26202Y8345D01*
X25874Y7853D01*
X25758Y7274D01*
Y4537D01*
X25874Y3957D01*
X26202Y3466D01*
X26694Y3137D01*
X27274Y3022D01*
X29616D01*
X30196Y3137D01*
X30688Y3466D01*
X31016Y3957D01*
X31132Y4537D01*
Y7274D01*
X31016Y7853D01*
X30688Y8345D01*
X30306Y8600D01*
Y9214D01*
X31693D01*
X31767Y9228D01*
X33721D01*
X34141Y9312D01*
X34299D01*
X34462Y9068D01*
X34943Y8746D01*
X35512Y8633D01*
X37716D01*
X38285Y8746D01*
X38767Y9068D01*
X39105Y9135D01*
X39391Y8945D01*
X39970Y8829D01*
X42707D01*
X43287Y8945D01*
X43778Y9273D01*
X44107Y9765D01*
X44109Y9777D01*
X44311Y10118D01*
X44828Y10015D01*
X45258D01*
X45357Y9515D01*
X44503Y9161D01*
X43677Y8528D01*
X43043Y7702D01*
X42645Y6741D01*
X42509Y5709D01*
Y5610D01*
X50483D01*
Y5709D01*
X50347Y6741D01*
X49949Y7702D01*
X49315Y8528D01*
X48489Y9161D01*
X47528Y9560D01*
X47537Y10063D01*
X47815Y10118D01*
X48253Y10411D01*
X48545Y10849D01*
X48648Y11365D01*
Y12950D01*
X48545Y13466D01*
X48253Y13904D01*
X47815Y14197D01*
X47298Y14300D01*
X46051D01*
X45859Y14762D01*
X46352Y15254D01*
X48622D01*
Y15564D01*
X50835D01*
X51526Y15701D01*
X52112Y16093D01*
X52245Y16226D01*
X52707Y16035D01*
Y15256D01*
X56004D01*
Y14272D01*
X52707D01*
Y11506D01*
X52838Y10851D01*
X53209Y10295D01*
X53764Y9924D01*
X53787Y9920D01*
X53890Y9389D01*
X53246Y8959D01*
X52702Y8145D01*
X52511Y7185D01*
Y3051D01*
X52699Y2106D01*
X52713Y2016D01*
X52432Y1606D01*
X49867D01*
X49620Y2106D01*
X49949Y2534D01*
X50347Y3496D01*
X50483Y4528D01*
Y4626D01*
X42509D01*
Y4528D01*
X42645Y3496D01*
X43043Y2534D01*
X43372Y2106D01*
X43126Y1606D01*
X18728Y1606D01*
X18576Y2106D01*
X18701Y2189D01*
X19075Y2749D01*
X19206Y3409D01*
Y3477D01*
X19699D01*
X19706Y3466D01*
X20198Y3137D01*
X20778Y3022D01*
X23120D01*
X23700Y3137D01*
X24192Y3466D01*
X24520Y3957D01*
X24635Y4537D01*
Y7274D01*
X24520Y7853D01*
X24192Y8345D01*
X23700Y8674D01*
X23120Y8789D01*
X23132Y9284D01*
X23357Y9329D01*
X23883Y9680D01*
X24235Y10206D01*
X24358Y10827D01*
Y10926D01*
X21260D01*
X18162D01*
Y10827D01*
X18286Y10206D01*
X18637Y9680D01*
X19163Y9329D01*
X19784Y9205D01*
X20308D01*
X20357Y8705D01*
X20198Y8674D01*
X19706Y8345D01*
X19378Y7853D01*
X19373Y7831D01*
X18842Y7725D01*
X18701Y7937D01*
X18141Y8311D01*
X17480Y8443D01*
X14173D01*
X13513Y8311D01*
X12953Y7937D01*
X12578Y7377D01*
X12447Y6717D01*
Y3409D01*
X12578Y2749D01*
X12953Y2189D01*
X13077Y2106D01*
X12926Y1606D01*
X7563Y1606D01*
X7429Y2106D01*
X7891Y2373D01*
X8517Y2998D01*
X8960Y3765D01*
X9176Y4571D01*
X5827D01*
X2478D01*
X2694Y3765D01*
X3136Y2998D01*
X3762Y2373D01*
X4225Y2106D01*
X4091Y1606D01*
X3937D01*
X3937Y1606D01*
X3937Y1606D01*
X3707Y1606D01*
X3257Y1695D01*
X2833Y1871D01*
X2451Y2126D01*
X2126Y2451D01*
X1871Y2833D01*
X1695Y3257D01*
X1606Y3707D01*
Y3937D01*
Y39370D01*
Y39600D01*
X1695Y40050D01*
X1871Y40474D01*
X2126Y40856D01*
X2451Y41181D01*
X2833Y41436D01*
X3257Y41612D01*
X3707Y41701D01*
X22432D01*
X22713Y41291D01*
X22699Y41201D01*
X22511Y40256D01*
Y36122D01*
X22702Y35162D01*
X23246Y34348D01*
X24060Y33804D01*
X25020Y33613D01*
X27972D01*
X28932Y33804D01*
X29746Y34348D01*
X30290Y35162D01*
X30481Y36122D01*
Y40256D01*
X30293Y41201D01*
X30280Y41291D01*
X30560Y41701D01*
X33145D01*
X33392Y41201D01*
D02*
G37*
G36*
X43372D02*
X43043Y40773D01*
X42645Y39811D01*
X42509Y38780D01*
Y38681D01*
X46496D01*
Y37697D01*
X42509D01*
Y37598D01*
X42645Y36567D01*
X43043Y35605D01*
X43677Y34779D01*
X44503Y34146D01*
X45464Y33747D01*
X45401Y33252D01*
X44858D01*
X44382Y33157D01*
X43978Y32887D01*
X43750Y32545D01*
X43680Y32591D01*
X43100Y32706D01*
X40364D01*
X39784Y32591D01*
X39421Y32348D01*
X39253Y32277D01*
X38807Y32436D01*
X38660Y32656D01*
X38365Y32853D01*
Y34111D01*
X38482Y34159D01*
X39304Y34791D01*
X39935Y35613D01*
X40332Y36571D01*
X40467Y37598D01*
Y38780D01*
X40332Y39807D01*
X39935Y40765D01*
X39600Y41201D01*
X39847Y41701D01*
X43126Y41701D01*
X43372Y41201D01*
D02*
G37*
G36*
X75292Y22733D02*
X75872Y22346D01*
X76555Y22210D01*
X80138D01*
X80572Y22296D01*
X81072Y21957D01*
Y18906D01*
X80610Y18715D01*
X80532Y18793D01*
X79720Y19261D01*
X78839Y19498D01*
Y15945D01*
X77854D01*
Y19498D01*
X76973Y19261D01*
X76161Y18793D01*
X75498Y18130D01*
X75030Y17319D01*
X74787Y16413D01*
Y16182D01*
X74213D01*
Y12598D01*
X73721D01*
Y12106D01*
X70924D01*
Y10305D01*
X71022Y9811D01*
X71302Y9393D01*
X71721Y9113D01*
X72215Y9015D01*
X72681D01*
X72949Y8515D01*
X72702Y8145D01*
X72511Y7185D01*
Y3051D01*
X72699Y2106D01*
X72712Y2016D01*
X72432Y1606D01*
X69867D01*
X69620Y2106D01*
X69949Y2534D01*
X70347Y3496D01*
X70483Y4528D01*
Y4626D01*
X62509D01*
Y4528D01*
X62645Y3496D01*
X63043Y2534D01*
X63372Y2106D01*
X63126Y1606D01*
X60560D01*
X60280Y2016D01*
X60293Y2106D01*
X60481Y3051D01*
Y7122D01*
X62344Y8985D01*
X62367Y9019D01*
X62598D01*
X63328Y9164D01*
X63947Y9577D01*
X64360Y10195D01*
X64478Y10788D01*
X64764D01*
X65532Y10941D01*
X66183Y11376D01*
X67561Y12754D01*
X67996Y13405D01*
X68010Y13476D01*
X68159Y13700D01*
X68304Y14429D01*
Y15508D01*
X68573Y15729D01*
X69252D01*
Y18628D01*
X69744D01*
Y19120D01*
X72447D01*
Y19996D01*
X72382Y20320D01*
X72727Y20820D01*
X72894D01*
X73491Y20939D01*
X73998Y21278D01*
X74336Y21784D01*
X74455Y22382D01*
Y23154D01*
X74632Y23216D01*
X74955Y23237D01*
X75292Y22733D01*
D02*
G37*
%LPC*%
G36*
X6267Y40409D02*
X5386D01*
X4535Y40181D01*
X3772Y39741D01*
X3149Y39118D01*
X2708Y38355D01*
X2480Y37504D01*
Y36622D01*
X2708Y35771D01*
X3149Y35008D01*
X3772Y34385D01*
X4535Y33945D01*
X5386Y33716D01*
X6267D01*
X7118Y33945D01*
X7881Y34385D01*
X8505Y35008D01*
X8945Y35771D01*
X9173Y36622D01*
Y37504D01*
X8945Y38355D01*
X8505Y39118D01*
X7881Y39741D01*
X7118Y40181D01*
X6267Y40409D01*
D02*
G37*
G36*
X16267D02*
X15386D01*
X14535Y40181D01*
X13772Y39741D01*
X13149Y39118D01*
X12708Y38355D01*
X12480Y37504D01*
Y36622D01*
X12708Y35771D01*
X12906Y35429D01*
X5818Y28341D01*
X5383Y27690D01*
X5230Y26922D01*
Y25894D01*
X5084Y25747D01*
X4724Y24879D01*
Y23940D01*
X5084Y23071D01*
X5748Y22407D01*
X6617Y22047D01*
X7557D01*
X8425Y22407D01*
X9089Y23071D01*
X9449Y23940D01*
Y24879D01*
X9244Y25373D01*
Y26091D01*
X16719Y33565D01*
X16940Y33897D01*
X17119Y33945D01*
X17882Y34385D01*
X18505Y35008D01*
X18945Y35771D01*
X19173Y36622D01*
Y37504D01*
X18945Y38355D01*
X18505Y39118D01*
X17882Y39741D01*
X17119Y40181D01*
X16267Y40409D01*
D02*
G37*
G36*
X6319Y8412D02*
Y5555D01*
X9176D01*
X8960Y6361D01*
X8517Y7127D01*
X7891Y7753D01*
X7124Y8196D01*
X6319Y8412D01*
D02*
G37*
G36*
X5335D02*
X4529Y8196D01*
X3762Y7753D01*
X3136Y7127D01*
X2694Y6361D01*
X2478Y5555D01*
X5335D01*
Y8412D01*
D02*
G37*
G36*
X72447Y18136D02*
X70236D01*
Y15729D01*
X70650D01*
X70764Y15624D01*
X70988Y15278D01*
X70994Y15242D01*
X70924Y14892D01*
Y13091D01*
X73228D01*
Y16182D01*
X72603D01*
X72330Y16674D01*
X72447Y17260D01*
Y18136D01*
D02*
G37*
G36*
X66988Y9631D02*
Y5610D01*
X70483D01*
Y5709D01*
X70347Y6741D01*
X69949Y7702D01*
X69315Y8528D01*
X68489Y9161D01*
X67528Y9560D01*
X66988Y9631D01*
D02*
G37*
G36*
X66004D02*
X65464Y9560D01*
X64503Y9161D01*
X63677Y8528D01*
X63043Y7702D01*
X62645Y6741D01*
X62509Y5709D01*
Y5610D01*
X66004D01*
Y9631D01*
D02*
G37*
%LPD*%
D15*
X56004Y14764D02*
D03*
D16*
X46063Y12157D02*
D03*
D17*
Y17370D02*
D03*
D18*
X46394Y30669D02*
D03*
X22378Y30718D02*
D03*
D19*
X46394Y23168D02*
D03*
X54394Y26869D02*
D03*
X30378Y26919D02*
D03*
X22378Y23219D02*
D03*
D20*
X16142Y24114D02*
D03*
Y17618D02*
D03*
X36220Y23917D02*
D03*
Y30413D02*
D03*
X41339Y11516D02*
D03*
Y18012D02*
D03*
X60630Y30020D02*
D03*
Y23524D02*
D03*
X41732D02*
D03*
Y30020D02*
D03*
D23*
X36614Y17126D02*
D03*
X36614Y11220D02*
D03*
D24*
X70866Y23622D02*
D03*
Y31102D02*
D03*
D25*
X63248Y18628D02*
D03*
X69744D02*
D03*
X28445Y5906D02*
D03*
X21949D02*
D03*
D26*
X73721Y12598D02*
D03*
D27*
X61713D02*
D03*
D47*
X21260Y15157D02*
D03*
X21260Y11418D02*
D03*
X21260Y18898D02*
D03*
X31890D02*
D03*
Y15158D02*
D03*
D48*
X31890Y11418D02*
D03*
D49*
X65748Y27165D02*
X65899Y27015D01*
X66686D01*
X70572Y23128D02*
X70866D01*
X66686Y27015D02*
X70572Y23128D01*
X46260Y5472D02*
X51030Y10243D01*
X51181Y14173D02*
X55413D01*
X51030Y14023D02*
X51181Y14173D01*
X51030Y10243D02*
Y14023D01*
X55413Y14173D02*
X56004Y14764D01*
X41732Y34252D02*
X41979Y34499D01*
X42331D02*
X46021Y38189D01*
X41979Y34499D02*
X42331D01*
X46021Y38189D02*
X46496D01*
X21528Y5484D02*
X21949Y5906D01*
X16248Y5484D02*
X21528D01*
X15827Y5063D02*
X16248Y5484D01*
X28102Y10579D02*
X28299Y10382D01*
Y6051D02*
Y10382D01*
Y6051D02*
X28445Y5906D01*
X28102Y10579D02*
X28153Y10630D01*
X28102Y10579D02*
X28744Y11221D01*
X22446Y23223D02*
X26373D01*
X22441Y23228D02*
X22446Y23223D01*
X26373D02*
X26378Y23228D01*
X30265Y22402D02*
Y26328D01*
X30575Y26638D01*
Y26919D01*
X27854Y19991D02*
X30265Y22402D01*
X27854Y17036D02*
Y19991D01*
X56496Y38583D02*
X66496D01*
X50394Y24409D02*
Y32480D01*
X56496Y38583D01*
X56496Y5315D02*
X57017D01*
X64764Y12795D02*
X66142Y14173D01*
X62008Y12795D02*
X64764D01*
X64370Y23524D02*
X66398Y21496D01*
X56496Y5315D02*
Y5975D01*
Y5118D02*
Y5315D01*
X60925Y10404D02*
Y11713D01*
X56496Y5975D02*
X60925Y10404D01*
X15300Y34984D02*
Y36536D01*
X15827Y37063D01*
X7237Y26922D02*
X15300Y34984D01*
X7237Y24560D02*
Y26922D01*
X7087Y24409D02*
X7237Y24560D01*
X47441Y26714D02*
Y26927D01*
X47181Y26454D02*
X47441Y26714D01*
X47181Y23759D02*
Y26454D01*
X46984Y23759D02*
X47181D01*
X46394Y23168D02*
X46984Y23759D01*
X42057Y30344D02*
X46069D01*
X41732Y30020D02*
X42057Y30344D01*
X46069D02*
X46394Y30669D01*
X46216Y23346D02*
X46394Y23168D01*
X54394Y26869D02*
X54590D01*
X57053Y29331D01*
X59941D01*
X60630Y30020D01*
X41910Y23346D02*
X46216D01*
X41732Y23524D02*
X41910Y23346D01*
X36457Y14803D02*
Y17087D01*
Y14803D02*
X36496Y14764D01*
X36417Y17126D02*
X36457Y17087D01*
X34646Y15355D02*
X36417Y17126D01*
X22123Y11418D02*
X22320Y11221D01*
X21260Y11418D02*
X22123D01*
X66697Y33990D02*
X70079Y30609D01*
X66496Y36811D02*
X66697Y36610D01*
Y33990D02*
Y36610D01*
X26851Y14083D02*
X29077D01*
X24383Y11614D02*
X26851Y14083D01*
X29955Y14961D02*
X31693D01*
X29077Y14083D02*
X29955Y14961D01*
X31693D02*
X32087Y15355D01*
X21457Y18701D02*
X23748D01*
X24901Y12133D02*
Y17548D01*
X23748Y18701D02*
X24901Y17548D01*
X21457Y11614D02*
X24383D01*
X66496Y3937D02*
Y4587D01*
X73721Y11811D02*
Y12598D01*
X66496Y4587D02*
X73721Y11811D01*
X57017Y5315D02*
X58161Y6459D01*
Y6980D01*
X28744Y11221D02*
X31693D01*
X31890Y11418D01*
X21260Y18898D02*
X21457Y18701D01*
X36068Y30566D02*
X36358Y30856D01*
Y36673D02*
X36496Y36811D01*
X36358Y30856D02*
Y36673D01*
X60630Y23524D02*
X64370D01*
X70079Y30609D02*
X70866D01*
X70305Y19189D02*
Y22567D01*
X69744Y18628D02*
X70305Y19189D01*
Y22567D02*
X70866Y23128D01*
X60925Y11811D02*
X61713Y12598D01*
X31989Y11319D02*
X36319D01*
X31890Y11418D02*
X31989Y11319D01*
X36319D02*
X36417Y11220D01*
X21260Y11418D02*
X21457Y11614D01*
X22575Y30718D02*
X22727Y30566D01*
X36068D01*
X15945Y24114D02*
X21787Y29957D01*
Y30128D02*
X22378Y30718D01*
X22575D01*
X15748Y24114D02*
X15945D01*
X21787Y29957D02*
Y30128D01*
X77165Y27362D02*
X78740Y25787D01*
X77165Y27362D02*
Y29646D01*
X76496Y30315D02*
X77165Y29646D01*
X76496Y30315D02*
Y36811D01*
X73721Y13386D02*
X75677Y15342D01*
X73721Y12598D02*
Y13386D01*
X75677Y15342D02*
X78137D01*
X78740Y15945D01*
X72933Y13386D02*
Y15242D01*
X69744Y18431D02*
Y18628D01*
Y18431D02*
X72933Y15242D01*
Y13386D02*
X73721Y12598D01*
X37106Y24606D02*
Y25591D01*
X36417Y23917D02*
X37106Y24606D01*
X41535Y30020D02*
X41732D01*
X37106Y25591D02*
X41535Y30020D01*
X36220Y23917D02*
X36417D01*
X32087Y15355D02*
X34646D01*
D50*
X50835Y17370D02*
X54134Y20669D01*
X46063Y17370D02*
X50835D01*
X54134Y20669D02*
X58071D01*
X42421Y13878D02*
X46260Y17717D01*
X60039Y18701D02*
X62992D01*
X58071Y20669D02*
X60039Y18701D01*
X42421Y12402D02*
Y13878D01*
X41339Y11516D02*
X41535D01*
X42421Y12402D01*
X38484Y20669D02*
X41339Y17815D01*
Y17717D02*
Y17815D01*
X34547Y20669D02*
X38484D01*
X31890Y18898D02*
X32284Y19292D01*
X33170D02*
X34547Y20669D01*
X32284Y19292D02*
X33170D01*
X21673Y22513D02*
X22378Y23219D01*
X17224Y19910D02*
X19828Y22513D01*
X15945Y17618D02*
X16339D01*
X17224Y18504D01*
Y19910D01*
X19828Y22513D02*
X21673D01*
X12812Y14853D02*
X13196Y14469D01*
X20866Y14763D02*
X21260Y15157D01*
X12492Y14853D02*
X12812D01*
X13196Y14469D02*
X18861D01*
X19156Y14763D01*
X20866D01*
D51*
X66398Y14429D02*
Y21496D01*
D52*
X56496Y5118D02*
D03*
X76496D02*
D03*
X56496Y38189D02*
D03*
X76496D02*
D03*
X26496D02*
D03*
D53*
X46496Y5118D02*
D03*
X66496D02*
D03*
X46496Y38189D02*
D03*
X66496D02*
D03*
X36496D02*
D03*
D54*
X78347Y15945D02*
D03*
D55*
Y25787D02*
D03*
D56*
X5827Y5063D02*
D03*
X15827Y37063D02*
D03*
X5827D02*
D03*
D57*
X15827Y5063D02*
D03*
D58*
X16142Y10630D02*
D03*
X53937Y31102D02*
D03*
X65748Y27165D02*
D03*
X51181Y14173D02*
D03*
X33465Y5118D02*
D03*
X3543Y12598D02*
D03*
Y29134D02*
D03*
X26378Y23228D02*
D03*
X47441Y26927D02*
D03*
X36496Y14764D02*
D03*
X31890Y34321D02*
D03*
X41732Y34348D02*
D03*
X20891Y39807D02*
D03*
X12492Y14853D02*
D03*
X27854Y17036D02*
D03*
X11417Y24016D02*
D03*
X50394Y24409D02*
D03*
X28153Y10630D02*
D03*
X7087Y24409D02*
D03*
M02*
