M48
;Layer_Color=9474304
;FILE_FORMAT=2:5
INCH,TZ
;TYPE=PLATED
T1F00S00C0.01181
T2F00S00C0.03543
T3F00S00C0.03937
T4F00S00C0.04724
T5F00S00C0.05512
T6F00S00C0.05906
T7F00S00C0.06299
T8F00S00C0.07874
T9F00S00C0.12598
;TYPE=NON_PLATED
T10F00S00C0.01968
T11F00S00C0.27559
%
T01
X20472Y40551
X20669Y50197
X114173Y4921
X187795Y46063
X212205Y49213
X210236Y57087
X224606Y49213
X235039Y45276
X246269Y40551
X252756Y40354
X254823Y50197
X259842Y52854
X266732Y54134
X269826Y57776
X283071Y52362
X292028Y51279
X300295
X308563
X317224
X340551Y42323
X350787Y52756
X338189Y10950
X265748Y10630
X224016
X220079
X216535Y8661
X229331Y4921
X387402Y57874
X387795Y79724
X384646Y136614
X387795Y207047
X285039Y193248
X282480Y169291
X313779Y159843
X318898Y108268
X324803
X330709
Y102362
Y96457
Y90551
X324803
X318898
Y96457
X324803
Y102362
X318898
X324803Y82677
X334350Y66535
X301181Y66634
X283465Y70332
X268012Y74508
X267717Y84646
Y89272
X270472Y97244
X268012Y104035
X258071Y118110
X245079Y107382
X235433Y97244
Y82042
X251969Y69882
X245079Y61466
X216535Y64961
X218898Y96457
X220079Y109843
X220276Y138189
X250689Y143683
X240945Y188583
X228346Y177165
X261024Y199213
X359449Y75984
X211811Y81496
X179921Y77559
X180709Y68110
X172244Y85630
X176772Y96850
X191732Y118504
X175591Y134646
X177165Y161987
X210630Y159055
X147716Y152559
X142913Y140945
X139764Y161811
X154331Y122441
X144213Y103409
X134213Y104331
X120079Y101810
X129134Y90158
X151654Y72835
X94488Y81102
X92913Y103937
X55905Y92520
X31772Y102362
X19154Y113189
X10624Y126464
X20866Y88189
X27559Y79134
X20669Y63976
X39764Y59055
X4724Y196063
X25591Y228346
X46850Y250394
X42913Y264173
X47146Y280315
X43012Y293602
X47146Y306693
X42913Y319291
X40157Y350787
X29134Y342913
X45276Y368110
X57953Y348425
X68898Y346457
X91732Y343701
X86756Y360236
X79882Y363189
X103937Y368144
X120079Y370079
X114173Y342520
X129921Y339567
X146080Y339165
X149606Y356739
X161417Y350000
X169546Y339165
X170866Y322012
X170472Y304724
X150394Y305117
X151021Y320866
X129000
X127953Y301181
X131890Y277869
X116336Y283465
X120005Y264745
X131014Y248907
X138581Y227362
X118504Y231102
X94899Y229331
X93504Y257874
X82012Y250984
X85630Y271770
X93504Y285433
X99410Y290354
X99472Y311024
X93504Y312992
X81693Y320607
X85630Y299250
X171814Y280315
X171653Y263386
X171260Y249711
X194467Y240158
X203150Y226378
X209646Y230315
X210236Y289764
X212598Y295276
X192913Y304331
X193898Y315531
X208661Y321339
X191732Y338583
X201772Y361417
X179528Y365748
X164567Y367323
X223425Y354331
X232283
X246161Y351964
X253937Y340427
X244094Y320945
X237205Y318160
X226024Y322580
X228346Y309842
X229331Y295149
X240945Y297126
X248031Y294882
X258858Y292900
Y288386
Y283465
Y278543
X262856Y280512
X262795Y285433
X266526Y283465
Y278543
X266534Y288386
X266526Y292900
X263090Y290945
X278543
X283465Y291339
X288386
X289764Y279921
X283465
X278814
X276472Y260827
X282480
X280023Y253543
X283362Y248031
X309188
X307087Y252155
X306232Y260819
X303937Y267323
X311973Y277559
X312034Y282480
Y287402
X311973Y292900
X315945Y289760
Y284449
Y279528
X319945Y277559
Y282480
X319882Y287402
X327658Y288878
X336333Y288893
X335236Y280020
X327947Y279921
X332677Y259842
X338583
X341598Y252155
X345472Y248031
X348425Y257874
X353346
X360236Y251969
X352362Y230197
X356693Y287795
X361385Y285009
X368110Y287008
X360624Y318898
X348425Y312992
X338976Y310699
X314843Y317717
X300197Y320866
Y312992
X296260Y314532
X290945Y304724
X283003Y310891
X279134
X245669Y310236
X229528Y279528
X222205Y278119
X216535Y279528
X230315Y247244
X234252
X240616Y253411
X244882Y256201
X250787Y261417
X266929Y224410
X297244Y216535
X302362Y349606
X291339Y350394
X293564Y354370
X316535Y360336
X321654Y349213
X318898Y344488
X364175Y338583
X358484Y364173
X214961Y342126
X371654Y344980
X389764Y350787
Y368898
X376378Y368388
X385827Y311024
Y295276
Y277559
Y257874
X389764Y381548
X373425Y390748
X347244Y389370
X347638Y381888
X330709Y389764
X317878Y381496
X293799Y376969
X286614Y374410
X268504Y381102
X247047Y381548
X254331Y389764
X231890Y389789
X228346Y376945
Y372047
X218504Y378346
X205118Y374456
X191732Y389910
X169685Y389764
X150787
X154331Y374016
X145308
X111221Y389764
X81890
X87008Y372835
X51181Y372047
Y375984
X39380Y377687
X44882Y390158
X29724Y390065
X5748Y386811
T02
X47244Y10827
Y24606
X107283Y24409
Y10630
X272638Y17717
X280512
X283465Y44488
X297244
X295433Y117126
X281653
X191929Y212598
X159449Y212598
X107283Y193268
Y179488
X107283Y159449
Y145669
X74803
Y159449
X74803Y179488
Y193268
X53150Y197362
Y187362
Y162480
Y152480
Y220197
Y230197
X30669Y220020
X20669
X10669
X5748Y259842
X15748
X25748
Y269961
Y279961
Y289961
X15748
X5748
Y279961
Y269961
X15748Y269961
Y279961
Y300669
Y310669
X25748Y310669
Y300669
X5748
Y310669
X5906Y349331
Y359331
Y369331
X98425Y364173
Y356299
X106299Y271654
Y263779
X106220Y250000
X116220
X126969Y263779
Y271654
X147638
Y263779
X151654Y250000
X141654
X133031Y220020
X123031
X113031
X90709
X80709
X70709
X159449Y226378
X191929Y226378
X240158Y356299
Y364173
X311024
Y356299
X381890
Y364173
Y372047
X311024
X240158
X222598Y387795
X212598
X202598
X98425Y372047
X74961Y387795
X64961
X54961
X5906Y379331
T03
X382874Y99410
X372638Y127953
X382874Y156496
X363189
X353740Y127953
X363189Y99410
X234252Y264764
X214567
T04
X159449Y339567
X179134
Y388779
X159449
T05
X19488Y145591
X32087Y145669
Y159449
X19488Y159370
Y182087
X32087
Y195866
X19488
X185827Y253937
X198425
Y267717
X185827
X361614Y261811
Y275590
Y295276
Y309055
X374213
Y295276
Y275590
Y261811
T06
X98425Y348031
X240158
X311024
X381890
Y380315
X311024
X240158
X98425
T07
X300256Y8071
Y21457
X353287
Y8071
X376772Y44134
Y64134
X377756Y192756
Y212756
X339567Y212047
Y172677
T08
X59882Y44488
X79882
X110039
X144213Y12362
X164213
X204213
X214213Y192362
X269528Y144882
X289528
X319685
X174213Y192362
X134213
X109882Y124803
X69882
X29882
X239528Y225197
X279528
X319528
T09
X13780Y13780
X379921
X13780Y240158
Y330709
X133858Y364173
X161417Y291339
X275590Y364173
X379921Y330709
Y240158
T10
X121555Y326772
X124508
X127461
X130413
X133366
X136319
Y334646
X133366
X130413
X127461
X124508
X121555
X186516
X189469
X192421
X195374
X198327
X201279
Y326772
X198327
X195374
X192421
X189469
X186516
X287894
X290846
X293799
X296752
X299705
X302658
Y334646
X299705
X296752
X293799
X290846
X287894
T11
X27559Y364173
M30
